G04 #@! TF.GenerationSoftware,KiCad,Pcbnew,5.0.2-bee76a0~70~ubuntu18.04.1*
G04 #@! TF.CreationDate,2019-01-17T01:44:13+01:00*
G04 #@! TF.ProjectId,ESPLED,4553504c-4544-42e6-9b69-6361645f7063,rev?*
G04 #@! TF.SameCoordinates,Original*
G04 #@! TF.FileFunction,Legend,Top*
G04 #@! TF.FilePolarity,Positive*
%FSLAX46Y46*%
G04 Gerber Fmt 4.6, Leading zero omitted, Abs format (unit mm)*
G04 Created by KiCad (PCBNEW 5.0.2-bee76a0~70~ubuntu18.04.1) date Do 17 Jan 2019 01:44:13 CET*
%MOMM*%
%LPD*%
G01*
G04 APERTURE LIST*
%ADD10C,0.200000*%
%ADD11C,0.175000*%
%ADD12C,0.150000*%
%ADD13C,0.120000*%
G04 APERTURE END LIST*
D10*
X141000000Y-66000000D02*
X141000000Y-46000000D01*
D11*
X186968666Y-83628000D02*
X186935333Y-83661333D01*
X186835333Y-83694666D01*
X186768666Y-83694666D01*
X186668666Y-83661333D01*
X186602000Y-83594666D01*
X186568666Y-83528000D01*
X186535333Y-83394666D01*
X186535333Y-83294666D01*
X186568666Y-83161333D01*
X186602000Y-83094666D01*
X186668666Y-83028000D01*
X186768666Y-82994666D01*
X186835333Y-82994666D01*
X186935333Y-83028000D01*
X186968666Y-83061333D01*
X187268666Y-83694666D02*
X187268666Y-82994666D01*
X187268666Y-83328000D02*
X187668666Y-83328000D01*
X187668666Y-83694666D02*
X187668666Y-82994666D01*
X187935333Y-82994666D02*
X188368666Y-82994666D01*
X188135333Y-83261333D01*
X188235333Y-83261333D01*
X188302000Y-83294666D01*
X188335333Y-83328000D01*
X188368666Y-83394666D01*
X188368666Y-83561333D01*
X188335333Y-83628000D01*
X188302000Y-83661333D01*
X188235333Y-83694666D01*
X188035333Y-83694666D01*
X187968666Y-83661333D01*
X187935333Y-83628000D01*
X186968666Y-86168000D02*
X186935333Y-86201333D01*
X186835333Y-86234666D01*
X186768666Y-86234666D01*
X186668666Y-86201333D01*
X186602000Y-86134666D01*
X186568666Y-86068000D01*
X186535333Y-85934666D01*
X186535333Y-85834666D01*
X186568666Y-85701333D01*
X186602000Y-85634666D01*
X186668666Y-85568000D01*
X186768666Y-85534666D01*
X186835333Y-85534666D01*
X186935333Y-85568000D01*
X186968666Y-85601333D01*
X187268666Y-86234666D02*
X187268666Y-85534666D01*
X187268666Y-85868000D02*
X187668666Y-85868000D01*
X187668666Y-86234666D02*
X187668666Y-85534666D01*
X187968666Y-85601333D02*
X188002000Y-85568000D01*
X188068666Y-85534666D01*
X188235333Y-85534666D01*
X188302000Y-85568000D01*
X188335333Y-85601333D01*
X188368666Y-85668000D01*
X188368666Y-85734666D01*
X188335333Y-85834666D01*
X187935333Y-86234666D01*
X188368666Y-86234666D01*
D10*
X141000000Y-46000000D02*
X154000000Y-46000000D01*
X154000000Y-46000000D02*
X154000000Y-66000000D01*
X154000000Y-66000000D02*
X141000000Y-66000000D01*
D12*
X144177142Y-56144380D02*
X144177142Y-55144380D01*
X144510476Y-55858666D01*
X144843809Y-55144380D01*
X144843809Y-56144380D01*
X145272380Y-55858666D02*
X145748571Y-55858666D01*
X145177142Y-56144380D02*
X145510476Y-55144380D01*
X145843809Y-56144380D01*
X146081904Y-55144380D02*
X146748571Y-56144380D01*
X146748571Y-55144380D02*
X146081904Y-56144380D01*
X147558095Y-55477714D02*
X147558095Y-56144380D01*
X147320000Y-55096761D02*
X147081904Y-55811047D01*
X147700952Y-55811047D01*
X148510476Y-55477714D02*
X148510476Y-56144380D01*
X148272380Y-55096761D02*
X148034285Y-55811047D01*
X148653333Y-55811047D01*
X149462857Y-55144380D02*
X149272380Y-55144380D01*
X149177142Y-55192000D01*
X149129523Y-55239619D01*
X149034285Y-55382476D01*
X148986666Y-55572952D01*
X148986666Y-55953904D01*
X149034285Y-56049142D01*
X149081904Y-56096761D01*
X149177142Y-56144380D01*
X149367619Y-56144380D01*
X149462857Y-56096761D01*
X149510476Y-56049142D01*
X149558095Y-55953904D01*
X149558095Y-55715809D01*
X149510476Y-55620571D01*
X149462857Y-55572952D01*
X149367619Y-55525333D01*
X149177142Y-55525333D01*
X149081904Y-55572952D01*
X149034285Y-55620571D01*
X148986666Y-55715809D01*
X150415238Y-55144380D02*
X150224761Y-55144380D01*
X150129523Y-55192000D01*
X150081904Y-55239619D01*
X149986666Y-55382476D01*
X149939047Y-55572952D01*
X149939047Y-55953904D01*
X149986666Y-56049142D01*
X150034285Y-56096761D01*
X150129523Y-56144380D01*
X150320000Y-56144380D01*
X150415238Y-56096761D01*
X150462857Y-56049142D01*
X150510476Y-55953904D01*
X150510476Y-55715809D01*
X150462857Y-55620571D01*
X150415238Y-55572952D01*
X150320000Y-55525333D01*
X150129523Y-55525333D01*
X150034285Y-55572952D01*
X149986666Y-55620571D01*
X149939047Y-55715809D01*
D11*
X186968666Y-88708000D02*
X186935333Y-88741333D01*
X186835333Y-88774666D01*
X186768666Y-88774666D01*
X186668666Y-88741333D01*
X186602000Y-88674666D01*
X186568666Y-88608000D01*
X186535333Y-88474666D01*
X186535333Y-88374666D01*
X186568666Y-88241333D01*
X186602000Y-88174666D01*
X186668666Y-88108000D01*
X186768666Y-88074666D01*
X186835333Y-88074666D01*
X186935333Y-88108000D01*
X186968666Y-88141333D01*
X187268666Y-88774666D02*
X187268666Y-88074666D01*
X187268666Y-88408000D02*
X187668666Y-88408000D01*
X187668666Y-88774666D02*
X187668666Y-88074666D01*
X188368666Y-88774666D02*
X187968666Y-88774666D01*
X188168666Y-88774666D02*
X188168666Y-88074666D01*
X188102000Y-88174666D01*
X188035333Y-88241333D01*
X187968666Y-88274666D01*
X181634666Y-83628000D02*
X181601333Y-83661333D01*
X181501333Y-83694666D01*
X181434666Y-83694666D01*
X181334666Y-83661333D01*
X181268000Y-83594666D01*
X181234666Y-83528000D01*
X181201333Y-83394666D01*
X181201333Y-83294666D01*
X181234666Y-83161333D01*
X181268000Y-83094666D01*
X181334666Y-83028000D01*
X181434666Y-82994666D01*
X181501333Y-82994666D01*
X181601333Y-83028000D01*
X181634666Y-83061333D01*
X181934666Y-83694666D02*
X181934666Y-82994666D01*
X181934666Y-83328000D02*
X182334666Y-83328000D01*
X182334666Y-83694666D02*
X182334666Y-82994666D01*
X183001333Y-82994666D02*
X182668000Y-82994666D01*
X182634666Y-83328000D01*
X182668000Y-83294666D01*
X182734666Y-83261333D01*
X182901333Y-83261333D01*
X182968000Y-83294666D01*
X183001333Y-83328000D01*
X183034666Y-83394666D01*
X183034666Y-83561333D01*
X183001333Y-83628000D01*
X182968000Y-83661333D01*
X182901333Y-83694666D01*
X182734666Y-83694666D01*
X182668000Y-83661333D01*
X182634666Y-83628000D01*
X183001999Y-91048000D02*
X183535332Y-91048000D01*
X183268666Y-91314666D02*
X183268666Y-90781333D01*
X184235332Y-91314666D02*
X183835332Y-91314666D01*
X184035332Y-91314666D02*
X184035332Y-90614666D01*
X183968666Y-90714666D01*
X183901999Y-90781333D01*
X183835332Y-90814666D01*
X184501999Y-90681333D02*
X184535332Y-90648000D01*
X184601999Y-90614666D01*
X184768666Y-90614666D01*
X184835332Y-90648000D01*
X184868666Y-90681333D01*
X184901999Y-90748000D01*
X184901999Y-90814666D01*
X184868666Y-90914666D01*
X184468666Y-91314666D01*
X184901999Y-91314666D01*
X185101999Y-90614666D02*
X185335332Y-91314666D01*
X185568666Y-90614666D01*
X186301999Y-90581333D02*
X185701999Y-91481333D01*
X186535332Y-91048000D02*
X187068666Y-91048000D01*
X186801999Y-91314666D02*
X186801999Y-90781333D01*
X187735332Y-90614666D02*
X187401999Y-90614666D01*
X187368666Y-90948000D01*
X187401999Y-90914666D01*
X187468666Y-90881333D01*
X187635332Y-90881333D01*
X187701999Y-90914666D01*
X187735332Y-90948000D01*
X187768666Y-91014666D01*
X187768666Y-91181333D01*
X187735332Y-91248000D01*
X187701999Y-91281333D01*
X187635332Y-91314666D01*
X187468666Y-91314666D01*
X187401999Y-91281333D01*
X187368666Y-91248000D01*
X187968666Y-90614666D02*
X188201999Y-91314666D01*
X188435332Y-90614666D01*
X181634666Y-86168000D02*
X181601333Y-86201333D01*
X181501333Y-86234666D01*
X181434666Y-86234666D01*
X181334666Y-86201333D01*
X181268000Y-86134666D01*
X181234666Y-86068000D01*
X181201333Y-85934666D01*
X181201333Y-85834666D01*
X181234666Y-85701333D01*
X181268000Y-85634666D01*
X181334666Y-85568000D01*
X181434666Y-85534666D01*
X181501333Y-85534666D01*
X181601333Y-85568000D01*
X181634666Y-85601333D01*
X181934666Y-86234666D02*
X181934666Y-85534666D01*
X181934666Y-85868000D02*
X182334666Y-85868000D01*
X182334666Y-86234666D02*
X182334666Y-85534666D01*
X182968000Y-85768000D02*
X182968000Y-86234666D01*
X182801333Y-85501333D02*
X182634666Y-86001333D01*
X183068000Y-86001333D01*
X186968666Y-133628000D02*
X186935333Y-133661333D01*
X186835333Y-133694666D01*
X186768666Y-133694666D01*
X186668666Y-133661333D01*
X186602000Y-133594666D01*
X186568666Y-133528000D01*
X186535333Y-133394666D01*
X186535333Y-133294666D01*
X186568666Y-133161333D01*
X186602000Y-133094666D01*
X186668666Y-133028000D01*
X186768666Y-132994666D01*
X186835333Y-132994666D01*
X186935333Y-133028000D01*
X186968666Y-133061333D01*
X187268666Y-133694666D02*
X187268666Y-132994666D01*
X187268666Y-133328000D02*
X187668666Y-133328000D01*
X187668666Y-133694666D02*
X187668666Y-132994666D01*
X187935333Y-132994666D02*
X188368666Y-132994666D01*
X188135333Y-133261333D01*
X188235333Y-133261333D01*
X188302000Y-133294666D01*
X188335333Y-133328000D01*
X188368666Y-133394666D01*
X188368666Y-133561333D01*
X188335333Y-133628000D01*
X188302000Y-133661333D01*
X188235333Y-133694666D01*
X188035333Y-133694666D01*
X187968666Y-133661333D01*
X187935333Y-133628000D01*
X186968666Y-136168000D02*
X186935333Y-136201333D01*
X186835333Y-136234666D01*
X186768666Y-136234666D01*
X186668666Y-136201333D01*
X186602000Y-136134666D01*
X186568666Y-136068000D01*
X186535333Y-135934666D01*
X186535333Y-135834666D01*
X186568666Y-135701333D01*
X186602000Y-135634666D01*
X186668666Y-135568000D01*
X186768666Y-135534666D01*
X186835333Y-135534666D01*
X186935333Y-135568000D01*
X186968666Y-135601333D01*
X187268666Y-136234666D02*
X187268666Y-135534666D01*
X187268666Y-135868000D02*
X187668666Y-135868000D01*
X187668666Y-136234666D02*
X187668666Y-135534666D01*
X187968666Y-135601333D02*
X188002000Y-135568000D01*
X188068666Y-135534666D01*
X188235333Y-135534666D01*
X188302000Y-135568000D01*
X188335333Y-135601333D01*
X188368666Y-135668000D01*
X188368666Y-135734666D01*
X188335333Y-135834666D01*
X187935333Y-136234666D01*
X188368666Y-136234666D01*
X181634666Y-136168000D02*
X181601333Y-136201333D01*
X181501333Y-136234666D01*
X181434666Y-136234666D01*
X181334666Y-136201333D01*
X181268000Y-136134666D01*
X181234666Y-136068000D01*
X181201333Y-135934666D01*
X181201333Y-135834666D01*
X181234666Y-135701333D01*
X181268000Y-135634666D01*
X181334666Y-135568000D01*
X181434666Y-135534666D01*
X181501333Y-135534666D01*
X181601333Y-135568000D01*
X181634666Y-135601333D01*
X181934666Y-136234666D02*
X181934666Y-135534666D01*
X181934666Y-135868000D02*
X182334666Y-135868000D01*
X182334666Y-136234666D02*
X182334666Y-135534666D01*
X182968000Y-135768000D02*
X182968000Y-136234666D01*
X182801333Y-135501333D02*
X182634666Y-136001333D01*
X183068000Y-136001333D01*
X183001999Y-141048000D02*
X183535332Y-141048000D01*
X183268666Y-141314666D02*
X183268666Y-140781333D01*
X184235332Y-141314666D02*
X183835332Y-141314666D01*
X184035332Y-141314666D02*
X184035332Y-140614666D01*
X183968666Y-140714666D01*
X183901999Y-140781333D01*
X183835332Y-140814666D01*
X184501999Y-140681333D02*
X184535332Y-140648000D01*
X184601999Y-140614666D01*
X184768666Y-140614666D01*
X184835332Y-140648000D01*
X184868666Y-140681333D01*
X184901999Y-140748000D01*
X184901999Y-140814666D01*
X184868666Y-140914666D01*
X184468666Y-141314666D01*
X184901999Y-141314666D01*
X185101999Y-140614666D02*
X185335332Y-141314666D01*
X185568666Y-140614666D01*
X186301999Y-140581333D02*
X185701999Y-141481333D01*
X186535332Y-141048000D02*
X187068666Y-141048000D01*
X186801999Y-141314666D02*
X186801999Y-140781333D01*
X187735332Y-140614666D02*
X187401999Y-140614666D01*
X187368666Y-140948000D01*
X187401999Y-140914666D01*
X187468666Y-140881333D01*
X187635332Y-140881333D01*
X187701999Y-140914666D01*
X187735332Y-140948000D01*
X187768666Y-141014666D01*
X187768666Y-141181333D01*
X187735332Y-141248000D01*
X187701999Y-141281333D01*
X187635332Y-141314666D01*
X187468666Y-141314666D01*
X187401999Y-141281333D01*
X187368666Y-141248000D01*
X187968666Y-140614666D02*
X188201999Y-141314666D01*
X188435332Y-140614666D01*
X181634666Y-133628000D02*
X181601333Y-133661333D01*
X181501333Y-133694666D01*
X181434666Y-133694666D01*
X181334666Y-133661333D01*
X181268000Y-133594666D01*
X181234666Y-133528000D01*
X181201333Y-133394666D01*
X181201333Y-133294666D01*
X181234666Y-133161333D01*
X181268000Y-133094666D01*
X181334666Y-133028000D01*
X181434666Y-132994666D01*
X181501333Y-132994666D01*
X181601333Y-133028000D01*
X181634666Y-133061333D01*
X181934666Y-133694666D02*
X181934666Y-132994666D01*
X181934666Y-133328000D02*
X182334666Y-133328000D01*
X182334666Y-133694666D02*
X182334666Y-132994666D01*
X183001333Y-132994666D02*
X182668000Y-132994666D01*
X182634666Y-133328000D01*
X182668000Y-133294666D01*
X182734666Y-133261333D01*
X182901333Y-133261333D01*
X182968000Y-133294666D01*
X183001333Y-133328000D01*
X183034666Y-133394666D01*
X183034666Y-133561333D01*
X183001333Y-133628000D01*
X182968000Y-133661333D01*
X182901333Y-133694666D01*
X182734666Y-133694666D01*
X182668000Y-133661333D01*
X182634666Y-133628000D01*
X186968666Y-138708000D02*
X186935333Y-138741333D01*
X186835333Y-138774666D01*
X186768666Y-138774666D01*
X186668666Y-138741333D01*
X186602000Y-138674666D01*
X186568666Y-138608000D01*
X186535333Y-138474666D01*
X186535333Y-138374666D01*
X186568666Y-138241333D01*
X186602000Y-138174666D01*
X186668666Y-138108000D01*
X186768666Y-138074666D01*
X186835333Y-138074666D01*
X186935333Y-138108000D01*
X186968666Y-138141333D01*
X187268666Y-138774666D02*
X187268666Y-138074666D01*
X187268666Y-138408000D02*
X187668666Y-138408000D01*
X187668666Y-138774666D02*
X187668666Y-138074666D01*
X188368666Y-138774666D02*
X187968666Y-138774666D01*
X188168666Y-138774666D02*
X188168666Y-138074666D01*
X188102000Y-138174666D01*
X188035333Y-138241333D01*
X187968666Y-138274666D01*
D12*
X144177142Y-106144380D02*
X144177142Y-105144380D01*
X144510476Y-105858666D01*
X144843809Y-105144380D01*
X144843809Y-106144380D01*
X145272380Y-105858666D02*
X145748571Y-105858666D01*
X145177142Y-106144380D02*
X145510476Y-105144380D01*
X145843809Y-106144380D01*
X146081904Y-105144380D02*
X146748571Y-106144380D01*
X146748571Y-105144380D02*
X146081904Y-106144380D01*
X147558095Y-105477714D02*
X147558095Y-106144380D01*
X147320000Y-105096761D02*
X147081904Y-105811047D01*
X147700952Y-105811047D01*
X148510476Y-105477714D02*
X148510476Y-106144380D01*
X148272380Y-105096761D02*
X148034285Y-105811047D01*
X148653333Y-105811047D01*
X149462857Y-105144380D02*
X149272380Y-105144380D01*
X149177142Y-105192000D01*
X149129523Y-105239619D01*
X149034285Y-105382476D01*
X148986666Y-105572952D01*
X148986666Y-105953904D01*
X149034285Y-106049142D01*
X149081904Y-106096761D01*
X149177142Y-106144380D01*
X149367619Y-106144380D01*
X149462857Y-106096761D01*
X149510476Y-106049142D01*
X149558095Y-105953904D01*
X149558095Y-105715809D01*
X149510476Y-105620571D01*
X149462857Y-105572952D01*
X149367619Y-105525333D01*
X149177142Y-105525333D01*
X149081904Y-105572952D01*
X149034285Y-105620571D01*
X148986666Y-105715809D01*
X150415238Y-105144380D02*
X150224761Y-105144380D01*
X150129523Y-105192000D01*
X150081904Y-105239619D01*
X149986666Y-105382476D01*
X149939047Y-105572952D01*
X149939047Y-105953904D01*
X149986666Y-106049142D01*
X150034285Y-106096761D01*
X150129523Y-106144380D01*
X150320000Y-106144380D01*
X150415238Y-106096761D01*
X150462857Y-106049142D01*
X150510476Y-105953904D01*
X150510476Y-105715809D01*
X150462857Y-105620571D01*
X150415238Y-105572952D01*
X150320000Y-105525333D01*
X150129523Y-105525333D01*
X150034285Y-105572952D01*
X149986666Y-105620571D01*
X149939047Y-105715809D01*
D10*
X141000000Y-116000000D02*
X141000000Y-96000000D01*
X154000000Y-116000000D02*
X141000000Y-116000000D01*
X154000000Y-96000000D02*
X154000000Y-116000000D01*
X141000000Y-96000000D02*
X154000000Y-96000000D01*
D13*
G04 #@! TO.C,U3*
X119191792Y-59388000D02*
X119191792Y-64188000D01*
X129991792Y-59388000D02*
X129991792Y-64188000D01*
X129591792Y-59388000D02*
X129591792Y-57988000D01*
X129991792Y-59388000D02*
X129591792Y-59388000D01*
G04 #@! TO.C,JP3*
X119265892Y-69650000D02*
G75*
G02X119965892Y-68950000I700000J0D01*
G01*
X120565892Y-68950000D02*
G75*
G02X121265892Y-69650000I0J-700000D01*
G01*
X121265892Y-71050000D02*
G75*
G02X120565892Y-71750000I-700000J0D01*
G01*
X119965892Y-71750000D02*
G75*
G02X119265892Y-71050000I0J700000D01*
G01*
X120565892Y-71750000D02*
X119965892Y-71750000D01*
X121265892Y-69650000D02*
X121265892Y-71050000D01*
X119965892Y-68950000D02*
X120565892Y-68950000D01*
X119265892Y-71050000D02*
X119265892Y-69650000D01*
G04 #@! TO.C,C8*
X166622000Y-80412733D02*
X166622000Y-80755267D01*
X167642000Y-80412733D02*
X167642000Y-80755267D01*
G04 #@! TO.C,R8*
X132336000Y-62828733D02*
X132336000Y-63171267D01*
X131316000Y-62828733D02*
X131316000Y-63171267D01*
G04 #@! TO.C,R3*
X125947365Y-70521267D02*
X125947365Y-70178733D01*
X126967365Y-70521267D02*
X126967365Y-70178733D01*
G04 #@! TO.C,JP10*
X160036000Y-75696000D02*
X160036000Y-74296000D01*
X160736000Y-73596000D02*
X161336000Y-73596000D01*
X162036000Y-74296000D02*
X162036000Y-75696000D01*
X161336000Y-76396000D02*
X160736000Y-76396000D01*
X160736000Y-76396000D02*
G75*
G02X160036000Y-75696000I0J700000D01*
G01*
X162036000Y-75696000D02*
G75*
G02X161336000Y-76396000I-700000J0D01*
G01*
X161336000Y-73596000D02*
G75*
G02X162036000Y-74296000I0J-700000D01*
G01*
X160036000Y-74296000D02*
G75*
G02X160736000Y-73596000I700000J0D01*
G01*
G04 #@! TO.C,R5*
X151640000Y-70849267D02*
X151640000Y-70506733D01*
X150620000Y-70849267D02*
X150620000Y-70506733D01*
G04 #@! TO.C,F1*
X104710000Y-51126252D02*
X104710000Y-48353748D01*
X101290000Y-51126252D02*
X101290000Y-48353748D01*
G04 #@! TO.C,JP5*
X144288000Y-69650000D02*
G75*
G02X144988000Y-68950000I700000J0D01*
G01*
X145588000Y-68950000D02*
G75*
G02X146288000Y-69650000I0J-700000D01*
G01*
X146288000Y-71050000D02*
G75*
G02X145588000Y-71750000I-700000J0D01*
G01*
X144988000Y-71750000D02*
G75*
G02X144288000Y-71050000I0J700000D01*
G01*
X145588000Y-71750000D02*
X144988000Y-71750000D01*
X146288000Y-69650000D02*
X146288000Y-71050000D01*
X144988000Y-68950000D02*
X145588000Y-68950000D01*
X144288000Y-71050000D02*
X144288000Y-69650000D01*
G04 #@! TO.C,C2*
X123775000Y-47615000D02*
X123775000Y-48865000D01*
X123150000Y-48240000D02*
X124400000Y-48240000D01*
X124640000Y-55295563D02*
X125704437Y-56360000D01*
X124640000Y-46704437D02*
X125704437Y-45640000D01*
X124640000Y-46704437D02*
X124640000Y-49490000D01*
X124640000Y-55295563D02*
X124640000Y-52510000D01*
X125704437Y-56360000D02*
X135360000Y-56360000D01*
X125704437Y-45640000D02*
X135360000Y-45640000D01*
X135360000Y-45640000D02*
X135360000Y-49490000D01*
X135360000Y-56360000D02*
X135360000Y-52510000D01*
G04 #@! TO.C,JP2*
X106882946Y-69650000D02*
G75*
G02X107582946Y-68950000I700000J0D01*
G01*
X108182946Y-68950000D02*
G75*
G02X108882946Y-69650000I0J-700000D01*
G01*
X108882946Y-71050000D02*
G75*
G02X108182946Y-71750000I-700000J0D01*
G01*
X107582946Y-71750000D02*
G75*
G02X106882946Y-71050000I0J700000D01*
G01*
X108182946Y-71750000D02*
X107582946Y-71750000D01*
X108882946Y-69650000D02*
X108882946Y-71050000D01*
X107582946Y-68950000D02*
X108182946Y-68950000D01*
X106882946Y-71050000D02*
X106882946Y-69650000D01*
G04 #@! TO.C,U1*
X112290000Y-47570000D02*
X118300000Y-47570000D01*
X114540000Y-54390000D02*
X118300000Y-54390000D01*
X118300000Y-47570000D02*
X118300000Y-48830000D01*
X118300000Y-54390000D02*
X118300000Y-53130000D01*
G04 #@! TO.C,R4*
X137990000Y-70796267D02*
X137990000Y-70453733D01*
X139010000Y-70796267D02*
X139010000Y-70453733D01*
G04 #@! TO.C,SW2*
X168000000Y-84472000D02*
X166500000Y-84472000D01*
X164000000Y-85722000D02*
X164000000Y-90222000D01*
X166500000Y-91472000D02*
X168000000Y-91472000D01*
X170500000Y-90222000D02*
X170500000Y-85722000D01*
G04 #@! TO.C,C7*
X133171267Y-65490000D02*
X132828733Y-65490000D01*
X133171267Y-66510000D02*
X132828733Y-66510000D01*
G04 #@! TO.C,C3*
X109490000Y-49387267D02*
X109490000Y-49044733D01*
X110510000Y-49387267D02*
X110510000Y-49044733D01*
G04 #@! TO.C,R6*
X155704000Y-67434267D02*
X155704000Y-67091733D01*
X154684000Y-67434267D02*
X154684000Y-67091733D01*
G04 #@! TO.C,SW3*
X177000000Y-84472000D02*
X175500000Y-84472000D01*
X173000000Y-85722000D02*
X173000000Y-90222000D01*
X175500000Y-91472000D02*
X177000000Y-91472000D01*
X179500000Y-90222000D02*
X179500000Y-85722000D01*
G04 #@! TO.C,Q3*
X120781035Y-78110101D02*
X120781035Y-75570101D01*
X123321035Y-78110101D02*
X123321035Y-75570101D01*
X125861035Y-78110101D02*
X125861035Y-75570101D01*
X118201035Y-94000101D02*
X118201035Y-78110101D01*
X128441035Y-94000101D02*
X128441035Y-78110101D01*
X128441035Y-94000101D02*
X118201035Y-94000101D01*
X128441035Y-78110101D02*
X118201035Y-78110101D01*
G04 #@! TO.C,Q5*
X153453785Y-78110101D02*
X143213785Y-78110101D01*
X153453785Y-94000101D02*
X143213785Y-94000101D01*
X153453785Y-94000101D02*
X153453785Y-78110101D01*
X143213785Y-94000101D02*
X143213785Y-78110101D01*
X150873785Y-78110101D02*
X150873785Y-75570101D01*
X148333785Y-78110101D02*
X148333785Y-75570101D01*
X145793785Y-78110101D02*
X145793785Y-75570101D01*
G04 #@! TO.C,R2*
X114584419Y-70521267D02*
X114584419Y-70178733D01*
X113564419Y-70521267D02*
X113564419Y-70178733D01*
G04 #@! TO.C,P2*
X179215000Y-57992000D02*
X179215000Y-68842000D01*
X184315000Y-57992000D02*
X179215000Y-57992000D01*
X184015000Y-58492000D02*
X184315000Y-57992000D01*
X189415000Y-58492000D02*
X184015000Y-58492000D01*
X189165000Y-57992000D02*
X189415000Y-58492000D01*
X189215000Y-57992000D02*
X189165000Y-57992000D01*
X191115000Y-57992000D02*
X189215000Y-57992000D01*
X190865000Y-58492000D02*
X191115000Y-57992000D01*
X191815000Y-58492000D02*
X190865000Y-58492000D01*
X191815000Y-68842000D02*
X191815000Y-58492000D01*
X179215000Y-68842000D02*
X191815000Y-68842000D01*
G04 #@! TO.C,P3*
X179215000Y-68152000D02*
X179215000Y-79002000D01*
X184315000Y-68152000D02*
X179215000Y-68152000D01*
X184015000Y-68652000D02*
X184315000Y-68152000D01*
X189415000Y-68652000D02*
X184015000Y-68652000D01*
X189165000Y-68152000D02*
X189415000Y-68652000D01*
X189215000Y-68152000D02*
X189165000Y-68152000D01*
X191115000Y-68152000D02*
X189215000Y-68152000D01*
X190865000Y-68652000D02*
X191115000Y-68152000D01*
X191815000Y-68652000D02*
X190865000Y-68652000D01*
X191815000Y-79002000D02*
X191815000Y-68652000D01*
X179215000Y-79002000D02*
X191815000Y-79002000D01*
G04 #@! TO.C,Q2*
X115944222Y-78110101D02*
X105704222Y-78110101D01*
X115944222Y-94000101D02*
X105704222Y-94000101D01*
X115944222Y-94000101D02*
X115944222Y-78110101D01*
X105704222Y-94000101D02*
X105704222Y-78110101D01*
X113364222Y-78110101D02*
X113364222Y-75570101D01*
X110824222Y-78110101D02*
X110824222Y-75570101D01*
X108284222Y-78110101D02*
X108284222Y-75570101D01*
G04 #@! TO.C,P1*
X179215000Y-58682000D02*
X191815000Y-58682000D01*
X191815000Y-58682000D02*
X191815000Y-48332000D01*
X191815000Y-48332000D02*
X190865000Y-48332000D01*
X190865000Y-48332000D02*
X191115000Y-47832000D01*
X191115000Y-47832000D02*
X189215000Y-47832000D01*
X189215000Y-47832000D02*
X189165000Y-47832000D01*
X189165000Y-47832000D02*
X189415000Y-48332000D01*
X189415000Y-48332000D02*
X184015000Y-48332000D01*
X184015000Y-48332000D02*
X184315000Y-47832000D01*
X184315000Y-47832000D02*
X179215000Y-47832000D01*
X179215000Y-47832000D02*
X179215000Y-58682000D01*
G04 #@! TO.C,C1*
X112745733Y-55944000D02*
X113088267Y-55944000D01*
X112745733Y-56964000D02*
X113088267Y-56964000D01*
G04 #@! TO.C,U2*
X175120000Y-68894000D02*
X175120000Y-69714000D01*
X175120000Y-69714000D02*
X158880000Y-69714000D01*
X158880000Y-69714000D02*
X158880000Y-68894000D01*
X157850000Y-53594000D02*
X157850000Y-54594000D01*
X158880000Y-67294000D02*
X158880000Y-66894000D01*
X175120000Y-67294000D02*
X175120000Y-66894000D01*
X158880000Y-65294000D02*
X158880000Y-64894000D01*
X175120000Y-65294000D02*
X175120000Y-64894000D01*
X158880000Y-63294000D02*
X158880000Y-62894000D01*
X175120000Y-63294000D02*
X175120000Y-62894000D01*
X158880000Y-61294000D02*
X158880000Y-60894000D01*
X175120000Y-61294000D02*
X175120000Y-60894000D01*
X158880000Y-59294000D02*
X158880000Y-58894000D01*
X175120000Y-59294000D02*
X175120000Y-58894000D01*
X158880000Y-57294000D02*
X158880000Y-56894000D01*
X175120000Y-57294000D02*
X175120000Y-56894000D01*
X158880000Y-55294000D02*
X158880000Y-54894000D01*
X175120000Y-55294000D02*
X175120000Y-54894000D01*
G04 #@! TO.C,R7*
X177036000Y-67063733D02*
X177036000Y-67406267D01*
X178056000Y-67063733D02*
X178056000Y-67406267D01*
G04 #@! TO.C,Q4*
X133290596Y-78110101D02*
X133290596Y-75570101D01*
X135830596Y-78110101D02*
X135830596Y-75570101D01*
X138370596Y-78110101D02*
X138370596Y-75570101D01*
X130710596Y-94000101D02*
X130710596Y-78110101D01*
X140950596Y-94000101D02*
X140950596Y-78110101D01*
X140950596Y-94000101D02*
X130710596Y-94000101D01*
X140950596Y-78110101D02*
X130710596Y-78110101D01*
G04 #@! TO.C,J1*
X98324500Y-49420000D02*
X97874500Y-49420000D01*
X98324500Y-49420000D02*
X98324500Y-49870000D01*
X97774500Y-55020000D02*
X97774500Y-54570000D01*
X95924500Y-55020000D02*
X97774500Y-55020000D01*
X93374500Y-47220000D02*
X93624500Y-47220000D01*
X93374500Y-55020000D02*
X93624500Y-55020000D01*
X95924500Y-47220000D02*
X97774500Y-47220000D01*
X97774500Y-47220000D02*
X97774500Y-47670000D01*
G04 #@! TO.C,D1*
X110400000Y-56650000D02*
X103500000Y-56650000D01*
X110400000Y-53350000D02*
X103500000Y-53350000D01*
X110400000Y-56650000D02*
X110400000Y-53350000D01*
G04 #@! TO.C,Q1*
X95787409Y-78110101D02*
X95787409Y-75570101D01*
X98327409Y-78110101D02*
X98327409Y-75570101D01*
X100867409Y-78110101D02*
X100867409Y-75570101D01*
X93207409Y-94000101D02*
X93207409Y-78110101D01*
X103447409Y-94000101D02*
X103447409Y-78110101D01*
X103447409Y-94000101D02*
X93207409Y-94000101D01*
X103447409Y-78110101D02*
X93207409Y-78110101D01*
G04 #@! TO.C,JP1*
X94500000Y-71050000D02*
X94500000Y-69650000D01*
X95200000Y-68950000D02*
X95800000Y-68950000D01*
X96500000Y-69650000D02*
X96500000Y-71050000D01*
X95800000Y-71750000D02*
X95200000Y-71750000D01*
X95200000Y-71750000D02*
G75*
G02X94500000Y-71050000I0J700000D01*
G01*
X96500000Y-71050000D02*
G75*
G02X95800000Y-71750000I-700000J0D01*
G01*
X95800000Y-68950000D02*
G75*
G02X96500000Y-69650000I0J-700000D01*
G01*
X94500000Y-69650000D02*
G75*
G02X95200000Y-68950000I700000J0D01*
G01*
G04 #@! TO.C,R1*
X101181473Y-70521267D02*
X101181473Y-70178733D01*
X102201473Y-70521267D02*
X102201473Y-70178733D01*
G04 #@! TO.C,Y1*
X118790000Y-66935500D02*
X118790000Y-58960500D01*
X114890000Y-66935500D02*
X118790000Y-66935500D01*
X114890000Y-58960500D02*
X114890000Y-66935500D01*
G04 #@! TO.C,U4*
X133855055Y-60010316D02*
G75*
G03X134883500Y-64288000I1808445J-1827684D01*
G01*
X137475375Y-59996259D02*
G75*
G02X136483500Y-64288000I-1811875J-1841741D01*
G01*
X137463500Y-59988000D02*
X133863500Y-59988000D01*
G04 #@! TO.C,JP4*
X131648838Y-69650000D02*
G75*
G02X132348838Y-68950000I700000J0D01*
G01*
X132948838Y-68950000D02*
G75*
G02X133648838Y-69650000I0J-700000D01*
G01*
X133648838Y-71050000D02*
G75*
G02X132948838Y-71750000I-700000J0D01*
G01*
X132348838Y-71750000D02*
G75*
G02X131648838Y-71050000I0J700000D01*
G01*
X132948838Y-71750000D02*
X132348838Y-71750000D01*
X133648838Y-69650000D02*
X133648838Y-71050000D01*
X132348838Y-68950000D02*
X132948838Y-68950000D01*
X131648838Y-71050000D02*
X131648838Y-69650000D01*
G04 #@! TO.C,J4*
X143670000Y-64330000D02*
X143670000Y-63000000D01*
X145000000Y-64330000D02*
X143670000Y-64330000D01*
X146270000Y-64330000D02*
X146270000Y-61670000D01*
X146270000Y-61670000D02*
X151410000Y-61670000D01*
X146270000Y-64330000D02*
X151410000Y-64330000D01*
X151410000Y-64330000D02*
X151410000Y-61670000D01*
G04 #@! TO.C,J3*
X186330000Y-87330000D02*
X185000000Y-87330000D01*
X186330000Y-86000000D02*
X186330000Y-87330000D01*
X186330000Y-84730000D02*
X183670000Y-84730000D01*
X183670000Y-84730000D02*
X183670000Y-82130000D01*
X186330000Y-84730000D02*
X186330000Y-82130000D01*
X186330000Y-82130000D02*
X183670000Y-82130000D01*
G04 #@! TO.C,J2*
X191330000Y-92330000D02*
X190000000Y-92330000D01*
X191330000Y-91000000D02*
X191330000Y-92330000D01*
X191330000Y-89730000D02*
X188670000Y-89730000D01*
X188670000Y-89730000D02*
X188670000Y-82050000D01*
X191330000Y-89730000D02*
X191330000Y-82050000D01*
X191330000Y-82050000D02*
X188670000Y-82050000D01*
G04 #@! TO.C,JP9*
X162068000Y-74296000D02*
G75*
G02X162768000Y-73596000I700000J0D01*
G01*
X163368000Y-73596000D02*
G75*
G02X164068000Y-74296000I0J-700000D01*
G01*
X164068000Y-75696000D02*
G75*
G02X163368000Y-76396000I-700000J0D01*
G01*
X162768000Y-76396000D02*
G75*
G02X162068000Y-75696000I0J700000D01*
G01*
X163368000Y-76396000D02*
X162768000Y-76396000D01*
X164068000Y-74296000D02*
X164068000Y-75696000D01*
X162768000Y-73596000D02*
X163368000Y-73596000D01*
X162068000Y-75696000D02*
X162068000Y-74296000D01*
D12*
G04 #@! TO.C,U5*
X168296000Y-71246000D02*
X168296000Y-77221000D01*
X161396000Y-72771000D02*
X161396000Y-77221000D01*
D13*
G04 #@! TO.C,JP8*
X164100000Y-75696000D02*
X164100000Y-74296000D01*
X164800000Y-73596000D02*
X165400000Y-73596000D01*
X166100000Y-74296000D02*
X166100000Y-75696000D01*
X165400000Y-76396000D02*
X164800000Y-76396000D01*
X164800000Y-76396000D02*
G75*
G02X164100000Y-75696000I0J700000D01*
G01*
X166100000Y-75696000D02*
G75*
G02X165400000Y-76396000I-700000J0D01*
G01*
X165400000Y-73596000D02*
G75*
G02X166100000Y-74296000I0J-700000D01*
G01*
X164100000Y-74296000D02*
G75*
G02X164800000Y-73596000I700000J0D01*
G01*
G04 #@! TO.C,JP7*
X166132000Y-75696000D02*
X166132000Y-74296000D01*
X166832000Y-73596000D02*
X167432000Y-73596000D01*
X168132000Y-74296000D02*
X168132000Y-75696000D01*
X167432000Y-76396000D02*
X166832000Y-76396000D01*
X166832000Y-76396000D02*
G75*
G02X166132000Y-75696000I0J700000D01*
G01*
X168132000Y-75696000D02*
G75*
G02X167432000Y-76396000I-700000J0D01*
G01*
X167432000Y-73596000D02*
G75*
G02X168132000Y-74296000I0J-700000D01*
G01*
X166132000Y-74296000D02*
G75*
G02X166832000Y-73596000I700000J0D01*
G01*
G04 #@! TO.C,JP6*
X168164000Y-74296000D02*
G75*
G02X168864000Y-73596000I700000J0D01*
G01*
X169464000Y-73596000D02*
G75*
G02X170164000Y-74296000I0J-700000D01*
G01*
X170164000Y-75696000D02*
G75*
G02X169464000Y-76396000I-700000J0D01*
G01*
X168864000Y-76396000D02*
G75*
G02X168164000Y-75696000I0J700000D01*
G01*
X169464000Y-76396000D02*
X168864000Y-76396000D01*
X170164000Y-74296000D02*
X170164000Y-75696000D01*
X168864000Y-73596000D02*
X169464000Y-73596000D01*
X168164000Y-75696000D02*
X168164000Y-74296000D01*
G04 #@! TO.C,C9*
X159481733Y-71438000D02*
X159824267Y-71438000D01*
X159481733Y-72458000D02*
X159824267Y-72458000D01*
G04 #@! TO.C,CON1*
X107900000Y-57400000D02*
X107900000Y-60000000D01*
X93200000Y-57400000D02*
X107900000Y-57400000D01*
X107900000Y-66600000D02*
X106000000Y-66600000D01*
X107900000Y-63900000D02*
X107900000Y-66600000D01*
X93200000Y-66600000D02*
X93200000Y-57400000D01*
X102000000Y-66600000D02*
X93200000Y-66600000D01*
X107050000Y-57200000D02*
X108100000Y-57200000D01*
X108100000Y-58250000D02*
X108100000Y-57200000D01*
G04 #@! TO.C,SW1*
X161500000Y-90222000D02*
X161500000Y-85722000D01*
X157500000Y-91472000D02*
X159000000Y-91472000D01*
X155000000Y-85722000D02*
X155000000Y-90222000D01*
X159000000Y-84472000D02*
X157500000Y-84472000D01*
G04 #@! TO.C,C6*
X113088267Y-64580000D02*
X112745733Y-64580000D01*
X113088267Y-65600000D02*
X112745733Y-65600000D01*
G04 #@! TO.C,C4*
X133319733Y-59250000D02*
X133662267Y-59250000D01*
X133319733Y-58230000D02*
X133662267Y-58230000D01*
G04 #@! TO.C,C5*
X113060267Y-59758000D02*
X112717733Y-59758000D01*
X113060267Y-58738000D02*
X112717733Y-58738000D01*
G04 #@! TO.C,C8*
X167642000Y-130412733D02*
X167642000Y-130755267D01*
X166622000Y-130412733D02*
X166622000Y-130755267D01*
G04 #@! TO.C,JP10*
X160036000Y-124296000D02*
G75*
G02X160736000Y-123596000I700000J0D01*
G01*
X161336000Y-123596000D02*
G75*
G02X162036000Y-124296000I0J-700000D01*
G01*
X162036000Y-125696000D02*
G75*
G02X161336000Y-126396000I-700000J0D01*
G01*
X160736000Y-126396000D02*
G75*
G02X160036000Y-125696000I0J700000D01*
G01*
X161336000Y-126396000D02*
X160736000Y-126396000D01*
X162036000Y-124296000D02*
X162036000Y-125696000D01*
X160736000Y-123596000D02*
X161336000Y-123596000D01*
X160036000Y-125696000D02*
X160036000Y-124296000D01*
G04 #@! TO.C,C2*
X135360000Y-106360000D02*
X135360000Y-102510000D01*
X135360000Y-95640000D02*
X135360000Y-99490000D01*
X125704437Y-95640000D02*
X135360000Y-95640000D01*
X125704437Y-106360000D02*
X135360000Y-106360000D01*
X124640000Y-105295563D02*
X124640000Y-102510000D01*
X124640000Y-96704437D02*
X124640000Y-99490000D01*
X124640000Y-96704437D02*
X125704437Y-95640000D01*
X124640000Y-105295563D02*
X125704437Y-106360000D01*
X123150000Y-98240000D02*
X124400000Y-98240000D01*
X123775000Y-97615000D02*
X123775000Y-98865000D01*
G04 #@! TO.C,C7*
X133171267Y-116510000D02*
X132828733Y-116510000D01*
X133171267Y-115490000D02*
X132828733Y-115490000D01*
G04 #@! TO.C,C6*
X113088267Y-115600000D02*
X112745733Y-115600000D01*
X113088267Y-114580000D02*
X112745733Y-114580000D01*
G04 #@! TO.C,C4*
X133319733Y-108230000D02*
X133662267Y-108230000D01*
X133319733Y-109250000D02*
X133662267Y-109250000D01*
G04 #@! TO.C,C5*
X113060267Y-108738000D02*
X112717733Y-108738000D01*
X113060267Y-109758000D02*
X112717733Y-109758000D01*
G04 #@! TO.C,R6*
X154684000Y-117434267D02*
X154684000Y-117091733D01*
X155704000Y-117434267D02*
X155704000Y-117091733D01*
G04 #@! TO.C,R7*
X178056000Y-117063733D02*
X178056000Y-117406267D01*
X177036000Y-117063733D02*
X177036000Y-117406267D01*
G04 #@! TO.C,U2*
X175120000Y-105294000D02*
X175120000Y-104894000D01*
X158880000Y-105294000D02*
X158880000Y-104894000D01*
X175120000Y-107294000D02*
X175120000Y-106894000D01*
X158880000Y-107294000D02*
X158880000Y-106894000D01*
X175120000Y-109294000D02*
X175120000Y-108894000D01*
X158880000Y-109294000D02*
X158880000Y-108894000D01*
X175120000Y-111294000D02*
X175120000Y-110894000D01*
X158880000Y-111294000D02*
X158880000Y-110894000D01*
X175120000Y-113294000D02*
X175120000Y-112894000D01*
X158880000Y-113294000D02*
X158880000Y-112894000D01*
X175120000Y-115294000D02*
X175120000Y-114894000D01*
X158880000Y-115294000D02*
X158880000Y-114894000D01*
X175120000Y-117294000D02*
X175120000Y-116894000D01*
X158880000Y-117294000D02*
X158880000Y-116894000D01*
X157850000Y-103594000D02*
X157850000Y-104594000D01*
X158880000Y-119714000D02*
X158880000Y-118894000D01*
X175120000Y-119714000D02*
X158880000Y-119714000D01*
X175120000Y-118894000D02*
X175120000Y-119714000D01*
G04 #@! TO.C,JP1*
X94500000Y-119650000D02*
G75*
G02X95200000Y-118950000I700000J0D01*
G01*
X95800000Y-118950000D02*
G75*
G02X96500000Y-119650000I0J-700000D01*
G01*
X96500000Y-121050000D02*
G75*
G02X95800000Y-121750000I-700000J0D01*
G01*
X95200000Y-121750000D02*
G75*
G02X94500000Y-121050000I0J700000D01*
G01*
X95800000Y-121750000D02*
X95200000Y-121750000D01*
X96500000Y-119650000D02*
X96500000Y-121050000D01*
X95200000Y-118950000D02*
X95800000Y-118950000D01*
X94500000Y-121050000D02*
X94500000Y-119650000D01*
G04 #@! TO.C,SW1*
X159000000Y-134472000D02*
X157500000Y-134472000D01*
X155000000Y-135722000D02*
X155000000Y-140222000D01*
X157500000Y-141472000D02*
X159000000Y-141472000D01*
X161500000Y-140222000D02*
X161500000Y-135722000D01*
G04 #@! TO.C,P1*
X179215000Y-97832000D02*
X179215000Y-108682000D01*
X184315000Y-97832000D02*
X179215000Y-97832000D01*
X184015000Y-98332000D02*
X184315000Y-97832000D01*
X189415000Y-98332000D02*
X184015000Y-98332000D01*
X189165000Y-97832000D02*
X189415000Y-98332000D01*
X189215000Y-97832000D02*
X189165000Y-97832000D01*
X191115000Y-97832000D02*
X189215000Y-97832000D01*
X190865000Y-98332000D02*
X191115000Y-97832000D01*
X191815000Y-98332000D02*
X190865000Y-98332000D01*
X191815000Y-108682000D02*
X191815000Y-98332000D01*
X179215000Y-108682000D02*
X191815000Y-108682000D01*
G04 #@! TO.C,Q5*
X145793785Y-128110101D02*
X145793785Y-125570101D01*
X148333785Y-128110101D02*
X148333785Y-125570101D01*
X150873785Y-128110101D02*
X150873785Y-125570101D01*
X143213785Y-144000101D02*
X143213785Y-128110101D01*
X153453785Y-144000101D02*
X153453785Y-128110101D01*
X153453785Y-144000101D02*
X143213785Y-144000101D01*
X153453785Y-128110101D02*
X143213785Y-128110101D01*
G04 #@! TO.C,JP5*
X144288000Y-121050000D02*
X144288000Y-119650000D01*
X144988000Y-118950000D02*
X145588000Y-118950000D01*
X146288000Y-119650000D02*
X146288000Y-121050000D01*
X145588000Y-121750000D02*
X144988000Y-121750000D01*
X144988000Y-121750000D02*
G75*
G02X144288000Y-121050000I0J700000D01*
G01*
X146288000Y-121050000D02*
G75*
G02X145588000Y-121750000I-700000J0D01*
G01*
X145588000Y-118950000D02*
G75*
G02X146288000Y-119650000I0J-700000D01*
G01*
X144288000Y-119650000D02*
G75*
G02X144988000Y-118950000I700000J0D01*
G01*
G04 #@! TO.C,SW2*
X170500000Y-140222000D02*
X170500000Y-135722000D01*
X166500000Y-141472000D02*
X168000000Y-141472000D01*
X164000000Y-135722000D02*
X164000000Y-140222000D01*
X168000000Y-134472000D02*
X166500000Y-134472000D01*
G04 #@! TO.C,R4*
X139010000Y-120796267D02*
X139010000Y-120453733D01*
X137990000Y-120796267D02*
X137990000Y-120453733D01*
G04 #@! TO.C,R8*
X131316000Y-112828733D02*
X131316000Y-113171267D01*
X132336000Y-112828733D02*
X132336000Y-113171267D01*
G04 #@! TO.C,P2*
X179215000Y-118842000D02*
X191815000Y-118842000D01*
X191815000Y-118842000D02*
X191815000Y-108492000D01*
X191815000Y-108492000D02*
X190865000Y-108492000D01*
X190865000Y-108492000D02*
X191115000Y-107992000D01*
X191115000Y-107992000D02*
X189215000Y-107992000D01*
X189215000Y-107992000D02*
X189165000Y-107992000D01*
X189165000Y-107992000D02*
X189415000Y-108492000D01*
X189415000Y-108492000D02*
X184015000Y-108492000D01*
X184015000Y-108492000D02*
X184315000Y-107992000D01*
X184315000Y-107992000D02*
X179215000Y-107992000D01*
X179215000Y-107992000D02*
X179215000Y-118842000D01*
G04 #@! TO.C,Q4*
X140950596Y-128110101D02*
X130710596Y-128110101D01*
X140950596Y-144000101D02*
X130710596Y-144000101D01*
X140950596Y-144000101D02*
X140950596Y-128110101D01*
X130710596Y-144000101D02*
X130710596Y-128110101D01*
X138370596Y-128110101D02*
X138370596Y-125570101D01*
X135830596Y-128110101D02*
X135830596Y-125570101D01*
X133290596Y-128110101D02*
X133290596Y-125570101D01*
G04 #@! TO.C,R3*
X126967365Y-120521267D02*
X126967365Y-120178733D01*
X125947365Y-120521267D02*
X125947365Y-120178733D01*
G04 #@! TO.C,JP3*
X119265892Y-121050000D02*
X119265892Y-119650000D01*
X119965892Y-118950000D02*
X120565892Y-118950000D01*
X121265892Y-119650000D02*
X121265892Y-121050000D01*
X120565892Y-121750000D02*
X119965892Y-121750000D01*
X119965892Y-121750000D02*
G75*
G02X119265892Y-121050000I0J700000D01*
G01*
X121265892Y-121050000D02*
G75*
G02X120565892Y-121750000I-700000J0D01*
G01*
X120565892Y-118950000D02*
G75*
G02X121265892Y-119650000I0J-700000D01*
G01*
X119265892Y-119650000D02*
G75*
G02X119965892Y-118950000I700000J0D01*
G01*
G04 #@! TO.C,JP2*
X106882946Y-121050000D02*
X106882946Y-119650000D01*
X107582946Y-118950000D02*
X108182946Y-118950000D01*
X108882946Y-119650000D02*
X108882946Y-121050000D01*
X108182946Y-121750000D02*
X107582946Y-121750000D01*
X107582946Y-121750000D02*
G75*
G02X106882946Y-121050000I0J700000D01*
G01*
X108882946Y-121050000D02*
G75*
G02X108182946Y-121750000I-700000J0D01*
G01*
X108182946Y-118950000D02*
G75*
G02X108882946Y-119650000I0J-700000D01*
G01*
X106882946Y-119650000D02*
G75*
G02X107582946Y-118950000I700000J0D01*
G01*
G04 #@! TO.C,U1*
X118300000Y-104390000D02*
X118300000Y-103130000D01*
X118300000Y-97570000D02*
X118300000Y-98830000D01*
X114540000Y-104390000D02*
X118300000Y-104390000D01*
X112290000Y-97570000D02*
X118300000Y-97570000D01*
G04 #@! TO.C,R5*
X150620000Y-120849267D02*
X150620000Y-120506733D01*
X151640000Y-120849267D02*
X151640000Y-120506733D01*
G04 #@! TO.C,F1*
X101290000Y-101126252D02*
X101290000Y-98353748D01*
X104710000Y-101126252D02*
X104710000Y-98353748D01*
G04 #@! TO.C,SW3*
X179500000Y-140222000D02*
X179500000Y-135722000D01*
X175500000Y-141472000D02*
X177000000Y-141472000D01*
X173000000Y-135722000D02*
X173000000Y-140222000D01*
X177000000Y-134472000D02*
X175500000Y-134472000D01*
G04 #@! TO.C,C3*
X110510000Y-99387267D02*
X110510000Y-99044733D01*
X109490000Y-99387267D02*
X109490000Y-99044733D01*
G04 #@! TO.C,P3*
X179215000Y-129002000D02*
X191815000Y-129002000D01*
X191815000Y-129002000D02*
X191815000Y-118652000D01*
X191815000Y-118652000D02*
X190865000Y-118652000D01*
X190865000Y-118652000D02*
X191115000Y-118152000D01*
X191115000Y-118152000D02*
X189215000Y-118152000D01*
X189215000Y-118152000D02*
X189165000Y-118152000D01*
X189165000Y-118152000D02*
X189415000Y-118652000D01*
X189415000Y-118652000D02*
X184015000Y-118652000D01*
X184015000Y-118652000D02*
X184315000Y-118152000D01*
X184315000Y-118152000D02*
X179215000Y-118152000D01*
X179215000Y-118152000D02*
X179215000Y-129002000D01*
G04 #@! TO.C,D1*
X110400000Y-106650000D02*
X110400000Y-103350000D01*
X110400000Y-103350000D02*
X103500000Y-103350000D01*
X110400000Y-106650000D02*
X103500000Y-106650000D01*
G04 #@! TO.C,CON1*
X108100000Y-108250000D02*
X108100000Y-107200000D01*
X107050000Y-107200000D02*
X108100000Y-107200000D01*
X102000000Y-116600000D02*
X93200000Y-116600000D01*
X93200000Y-116600000D02*
X93200000Y-107400000D01*
X107900000Y-113900000D02*
X107900000Y-116600000D01*
X107900000Y-116600000D02*
X106000000Y-116600000D01*
X93200000Y-107400000D02*
X107900000Y-107400000D01*
X107900000Y-107400000D02*
X107900000Y-110000000D01*
G04 #@! TO.C,J1*
X97774500Y-97220000D02*
X97774500Y-97670000D01*
X95924500Y-97220000D02*
X97774500Y-97220000D01*
X93374500Y-105020000D02*
X93624500Y-105020000D01*
X93374500Y-97220000D02*
X93624500Y-97220000D01*
X95924500Y-105020000D02*
X97774500Y-105020000D01*
X97774500Y-105020000D02*
X97774500Y-104570000D01*
X98324500Y-99420000D02*
X98324500Y-99870000D01*
X98324500Y-99420000D02*
X97874500Y-99420000D01*
G04 #@! TO.C,C1*
X112745733Y-106964000D02*
X113088267Y-106964000D01*
X112745733Y-105944000D02*
X113088267Y-105944000D01*
G04 #@! TO.C,Q1*
X103447409Y-128110101D02*
X93207409Y-128110101D01*
X103447409Y-144000101D02*
X93207409Y-144000101D01*
X103447409Y-144000101D02*
X103447409Y-128110101D01*
X93207409Y-144000101D02*
X93207409Y-128110101D01*
X100867409Y-128110101D02*
X100867409Y-125570101D01*
X98327409Y-128110101D02*
X98327409Y-125570101D01*
X95787409Y-128110101D02*
X95787409Y-125570101D01*
G04 #@! TO.C,R1*
X102201473Y-120521267D02*
X102201473Y-120178733D01*
X101181473Y-120521267D02*
X101181473Y-120178733D01*
G04 #@! TO.C,Q2*
X108284222Y-128110101D02*
X108284222Y-125570101D01*
X110824222Y-128110101D02*
X110824222Y-125570101D01*
X113364222Y-128110101D02*
X113364222Y-125570101D01*
X105704222Y-144000101D02*
X105704222Y-128110101D01*
X115944222Y-144000101D02*
X115944222Y-128110101D01*
X115944222Y-144000101D02*
X105704222Y-144000101D01*
X115944222Y-128110101D02*
X105704222Y-128110101D01*
G04 #@! TO.C,R2*
X113564419Y-120521267D02*
X113564419Y-120178733D01*
X114584419Y-120521267D02*
X114584419Y-120178733D01*
G04 #@! TO.C,Q3*
X128441035Y-128110101D02*
X118201035Y-128110101D01*
X128441035Y-144000101D02*
X118201035Y-144000101D01*
X128441035Y-144000101D02*
X128441035Y-128110101D01*
X118201035Y-144000101D02*
X118201035Y-128110101D01*
X125861035Y-128110101D02*
X125861035Y-125570101D01*
X123321035Y-128110101D02*
X123321035Y-125570101D01*
X120781035Y-128110101D02*
X120781035Y-125570101D01*
G04 #@! TO.C,U4*
X137463500Y-109988000D02*
X133863500Y-109988000D01*
X137475375Y-109996259D02*
G75*
G02X136483500Y-114288000I-1811875J-1841741D01*
G01*
X133855055Y-110010316D02*
G75*
G03X134883500Y-114288000I1808445J-1827684D01*
G01*
G04 #@! TO.C,Y1*
X114890000Y-108960500D02*
X114890000Y-116935500D01*
X114890000Y-116935500D02*
X118790000Y-116935500D01*
X118790000Y-116935500D02*
X118790000Y-108960500D01*
G04 #@! TO.C,J2*
X191330000Y-132050000D02*
X188670000Y-132050000D01*
X191330000Y-139730000D02*
X191330000Y-132050000D01*
X188670000Y-139730000D02*
X188670000Y-132050000D01*
X191330000Y-139730000D02*
X188670000Y-139730000D01*
X191330000Y-141000000D02*
X191330000Y-142330000D01*
X191330000Y-142330000D02*
X190000000Y-142330000D01*
G04 #@! TO.C,J3*
X186330000Y-132130000D02*
X183670000Y-132130000D01*
X186330000Y-134730000D02*
X186330000Y-132130000D01*
X183670000Y-134730000D02*
X183670000Y-132130000D01*
X186330000Y-134730000D02*
X183670000Y-134730000D01*
X186330000Y-136000000D02*
X186330000Y-137330000D01*
X186330000Y-137330000D02*
X185000000Y-137330000D01*
G04 #@! TO.C,J4*
X151410000Y-114330000D02*
X151410000Y-111670000D01*
X146270000Y-114330000D02*
X151410000Y-114330000D01*
X146270000Y-111670000D02*
X151410000Y-111670000D01*
X146270000Y-114330000D02*
X146270000Y-111670000D01*
X145000000Y-114330000D02*
X143670000Y-114330000D01*
X143670000Y-114330000D02*
X143670000Y-113000000D01*
G04 #@! TO.C,JP4*
X131648838Y-121050000D02*
X131648838Y-119650000D01*
X132348838Y-118950000D02*
X132948838Y-118950000D01*
X133648838Y-119650000D02*
X133648838Y-121050000D01*
X132948838Y-121750000D02*
X132348838Y-121750000D01*
X132348838Y-121750000D02*
G75*
G02X131648838Y-121050000I0J700000D01*
G01*
X133648838Y-121050000D02*
G75*
G02X132948838Y-121750000I-700000J0D01*
G01*
X132948838Y-118950000D02*
G75*
G02X133648838Y-119650000I0J-700000D01*
G01*
X131648838Y-119650000D02*
G75*
G02X132348838Y-118950000I700000J0D01*
G01*
G04 #@! TO.C,C9*
X159481733Y-122458000D02*
X159824267Y-122458000D01*
X159481733Y-121438000D02*
X159824267Y-121438000D01*
G04 #@! TO.C,JP6*
X168164000Y-125696000D02*
X168164000Y-124296000D01*
X168864000Y-123596000D02*
X169464000Y-123596000D01*
X170164000Y-124296000D02*
X170164000Y-125696000D01*
X169464000Y-126396000D02*
X168864000Y-126396000D01*
X168864000Y-126396000D02*
G75*
G02X168164000Y-125696000I0J700000D01*
G01*
X170164000Y-125696000D02*
G75*
G02X169464000Y-126396000I-700000J0D01*
G01*
X169464000Y-123596000D02*
G75*
G02X170164000Y-124296000I0J-700000D01*
G01*
X168164000Y-124296000D02*
G75*
G02X168864000Y-123596000I700000J0D01*
G01*
G04 #@! TO.C,JP7*
X166132000Y-124296000D02*
G75*
G02X166832000Y-123596000I700000J0D01*
G01*
X167432000Y-123596000D02*
G75*
G02X168132000Y-124296000I0J-700000D01*
G01*
X168132000Y-125696000D02*
G75*
G02X167432000Y-126396000I-700000J0D01*
G01*
X166832000Y-126396000D02*
G75*
G02X166132000Y-125696000I0J700000D01*
G01*
X167432000Y-126396000D02*
X166832000Y-126396000D01*
X168132000Y-124296000D02*
X168132000Y-125696000D01*
X166832000Y-123596000D02*
X167432000Y-123596000D01*
X166132000Y-125696000D02*
X166132000Y-124296000D01*
G04 #@! TO.C,JP8*
X164100000Y-124296000D02*
G75*
G02X164800000Y-123596000I700000J0D01*
G01*
X165400000Y-123596000D02*
G75*
G02X166100000Y-124296000I0J-700000D01*
G01*
X166100000Y-125696000D02*
G75*
G02X165400000Y-126396000I-700000J0D01*
G01*
X164800000Y-126396000D02*
G75*
G02X164100000Y-125696000I0J700000D01*
G01*
X165400000Y-126396000D02*
X164800000Y-126396000D01*
X166100000Y-124296000D02*
X166100000Y-125696000D01*
X164800000Y-123596000D02*
X165400000Y-123596000D01*
X164100000Y-125696000D02*
X164100000Y-124296000D01*
G04 #@! TO.C,JP9*
X162068000Y-125696000D02*
X162068000Y-124296000D01*
X162768000Y-123596000D02*
X163368000Y-123596000D01*
X164068000Y-124296000D02*
X164068000Y-125696000D01*
X163368000Y-126396000D02*
X162768000Y-126396000D01*
X162768000Y-126396000D02*
G75*
G02X162068000Y-125696000I0J700000D01*
G01*
X164068000Y-125696000D02*
G75*
G02X163368000Y-126396000I-700000J0D01*
G01*
X163368000Y-123596000D02*
G75*
G02X164068000Y-124296000I0J-700000D01*
G01*
X162068000Y-124296000D02*
G75*
G02X162768000Y-123596000I700000J0D01*
G01*
D12*
G04 #@! TO.C,U5*
X161396000Y-122771000D02*
X161396000Y-127221000D01*
X168296000Y-121246000D02*
X168296000Y-127221000D01*
D13*
G04 #@! TO.C,U3*
X129991792Y-109388000D02*
X129591792Y-109388000D01*
X129591792Y-109388000D02*
X129591792Y-107988000D01*
X129991792Y-109388000D02*
X129991792Y-114188000D01*
X119191792Y-109388000D02*
X119191792Y-114188000D01*
D12*
X120102380Y-62549904D02*
X120911904Y-62549904D01*
X121007142Y-62502285D01*
X121054761Y-62454666D01*
X121102380Y-62359428D01*
X121102380Y-62168952D01*
X121054761Y-62073714D01*
X121007142Y-62026095D01*
X120911904Y-61978476D01*
X120102380Y-61978476D01*
X120102380Y-61597523D02*
X120102380Y-60978476D01*
X120483333Y-61311809D01*
X120483333Y-61168952D01*
X120530952Y-61073714D01*
X120578571Y-61026095D01*
X120673809Y-60978476D01*
X120911904Y-60978476D01*
X121007142Y-61026095D01*
X121054761Y-61073714D01*
X121102380Y-61168952D01*
X121102380Y-61454666D01*
X121054761Y-61549904D01*
X121007142Y-61597523D01*
G04 #@! TO.C,JP3*
X119308666Y-67336380D02*
X119308666Y-68050666D01*
X119261047Y-68193523D01*
X119165809Y-68288761D01*
X119022952Y-68336380D01*
X118927714Y-68336380D01*
X119784857Y-68336380D02*
X119784857Y-67336380D01*
X120165809Y-67336380D01*
X120261047Y-67384000D01*
X120308666Y-67431619D01*
X120356285Y-67526857D01*
X120356285Y-67669714D01*
X120308666Y-67764952D01*
X120261047Y-67812571D01*
X120165809Y-67860190D01*
X119784857Y-67860190D01*
X120689619Y-67336380D02*
X121308666Y-67336380D01*
X120975333Y-67717333D01*
X121118190Y-67717333D01*
X121213428Y-67764952D01*
X121261047Y-67812571D01*
X121308666Y-67907809D01*
X121308666Y-68145904D01*
X121261047Y-68241142D01*
X121213428Y-68288761D01*
X121118190Y-68336380D01*
X120832476Y-68336380D01*
X120737238Y-68288761D01*
X120689619Y-68241142D01*
G04 #@! TO.C,C8*
X164933333Y-80687142D02*
X164885714Y-80734761D01*
X164742857Y-80782380D01*
X164647619Y-80782380D01*
X164504761Y-80734761D01*
X164409523Y-80639523D01*
X164361904Y-80544285D01*
X164314285Y-80353809D01*
X164314285Y-80210952D01*
X164361904Y-80020476D01*
X164409523Y-79925238D01*
X164504761Y-79830000D01*
X164647619Y-79782380D01*
X164742857Y-79782380D01*
X164885714Y-79830000D01*
X164933333Y-79877619D01*
X165504761Y-80210952D02*
X165409523Y-80163333D01*
X165361904Y-80115714D01*
X165314285Y-80020476D01*
X165314285Y-79972857D01*
X165361904Y-79877619D01*
X165409523Y-79830000D01*
X165504761Y-79782380D01*
X165695238Y-79782380D01*
X165790476Y-79830000D01*
X165838095Y-79877619D01*
X165885714Y-79972857D01*
X165885714Y-80020476D01*
X165838095Y-80115714D01*
X165790476Y-80163333D01*
X165695238Y-80210952D01*
X165504761Y-80210952D01*
X165409523Y-80258571D01*
X165361904Y-80306190D01*
X165314285Y-80401428D01*
X165314285Y-80591904D01*
X165361904Y-80687142D01*
X165409523Y-80734761D01*
X165504761Y-80782380D01*
X165695238Y-80782380D01*
X165790476Y-80734761D01*
X165838095Y-80687142D01*
X165885714Y-80591904D01*
X165885714Y-80401428D01*
X165838095Y-80306190D01*
X165790476Y-80258571D01*
X165695238Y-80210952D01*
G04 #@! TO.C,R8*
X131532333Y-61097380D02*
X131199000Y-60621190D01*
X130960904Y-61097380D02*
X130960904Y-60097380D01*
X131341857Y-60097380D01*
X131437095Y-60145000D01*
X131484714Y-60192619D01*
X131532333Y-60287857D01*
X131532333Y-60430714D01*
X131484714Y-60525952D01*
X131437095Y-60573571D01*
X131341857Y-60621190D01*
X130960904Y-60621190D01*
X132103761Y-60525952D02*
X132008523Y-60478333D01*
X131960904Y-60430714D01*
X131913285Y-60335476D01*
X131913285Y-60287857D01*
X131960904Y-60192619D01*
X132008523Y-60145000D01*
X132103761Y-60097380D01*
X132294238Y-60097380D01*
X132389476Y-60145000D01*
X132437095Y-60192619D01*
X132484714Y-60287857D01*
X132484714Y-60335476D01*
X132437095Y-60430714D01*
X132389476Y-60478333D01*
X132294238Y-60525952D01*
X132103761Y-60525952D01*
X132008523Y-60573571D01*
X131960904Y-60621190D01*
X131913285Y-60716428D01*
X131913285Y-60906904D01*
X131960904Y-61002142D01*
X132008523Y-61049761D01*
X132103761Y-61097380D01*
X132294238Y-61097380D01*
X132389476Y-61049761D01*
X132437095Y-61002142D01*
X132484714Y-60906904D01*
X132484714Y-60716428D01*
X132437095Y-60621190D01*
X132389476Y-60573571D01*
X132294238Y-60525952D01*
G04 #@! TO.C,R3*
X126325333Y-68336380D02*
X125992000Y-67860190D01*
X125753904Y-68336380D02*
X125753904Y-67336380D01*
X126134857Y-67336380D01*
X126230095Y-67384000D01*
X126277714Y-67431619D01*
X126325333Y-67526857D01*
X126325333Y-67669714D01*
X126277714Y-67764952D01*
X126230095Y-67812571D01*
X126134857Y-67860190D01*
X125753904Y-67860190D01*
X126658666Y-67336380D02*
X127277714Y-67336380D01*
X126944380Y-67717333D01*
X127087238Y-67717333D01*
X127182476Y-67764952D01*
X127230095Y-67812571D01*
X127277714Y-67907809D01*
X127277714Y-68145904D01*
X127230095Y-68241142D01*
X127182476Y-68288761D01*
X127087238Y-68336380D01*
X126801523Y-68336380D01*
X126706285Y-68288761D01*
X126658666Y-68241142D01*
G04 #@! TO.C,JP10*
X158202380Y-76559523D02*
X158916666Y-76559523D01*
X159059523Y-76607142D01*
X159154761Y-76702380D01*
X159202380Y-76845238D01*
X159202380Y-76940476D01*
X159202380Y-76083333D02*
X158202380Y-76083333D01*
X158202380Y-75702380D01*
X158250000Y-75607142D01*
X158297619Y-75559523D01*
X158392857Y-75511904D01*
X158535714Y-75511904D01*
X158630952Y-75559523D01*
X158678571Y-75607142D01*
X158726190Y-75702380D01*
X158726190Y-76083333D01*
X159202380Y-74559523D02*
X159202380Y-75130952D01*
X159202380Y-74845238D02*
X158202380Y-74845238D01*
X158345238Y-74940476D01*
X158440476Y-75035714D01*
X158488095Y-75130952D01*
X158202380Y-73940476D02*
X158202380Y-73845238D01*
X158250000Y-73750000D01*
X158297619Y-73702380D01*
X158392857Y-73654761D01*
X158583333Y-73607142D01*
X158821428Y-73607142D01*
X159011904Y-73654761D01*
X159107142Y-73702380D01*
X159154761Y-73750000D01*
X159202380Y-73845238D01*
X159202380Y-73940476D01*
X159154761Y-74035714D01*
X159107142Y-74083333D01*
X159011904Y-74130952D01*
X158821428Y-74178571D01*
X158583333Y-74178571D01*
X158392857Y-74130952D01*
X158297619Y-74083333D01*
X158250000Y-74035714D01*
X158202380Y-73940476D01*
G04 #@! TO.C,R5*
X150963333Y-68844380D02*
X150630000Y-68368190D01*
X150391904Y-68844380D02*
X150391904Y-67844380D01*
X150772857Y-67844380D01*
X150868095Y-67892000D01*
X150915714Y-67939619D01*
X150963333Y-68034857D01*
X150963333Y-68177714D01*
X150915714Y-68272952D01*
X150868095Y-68320571D01*
X150772857Y-68368190D01*
X150391904Y-68368190D01*
X151868095Y-67844380D02*
X151391904Y-67844380D01*
X151344285Y-68320571D01*
X151391904Y-68272952D01*
X151487142Y-68225333D01*
X151725238Y-68225333D01*
X151820476Y-68272952D01*
X151868095Y-68320571D01*
X151915714Y-68415809D01*
X151915714Y-68653904D01*
X151868095Y-68749142D01*
X151820476Y-68796761D01*
X151725238Y-68844380D01*
X151487142Y-68844380D01*
X151391904Y-68796761D01*
X151344285Y-68749142D01*
G04 #@! TO.C,F1*
X102790666Y-45968571D02*
X102457333Y-45968571D01*
X102457333Y-46492380D02*
X102457333Y-45492380D01*
X102933523Y-45492380D01*
X103838285Y-46492380D02*
X103266857Y-46492380D01*
X103552571Y-46492380D02*
X103552571Y-45492380D01*
X103457333Y-45635238D01*
X103362095Y-45730476D01*
X103266857Y-45778095D01*
G04 #@! TO.C,JP5*
X144454666Y-67590380D02*
X144454666Y-68304666D01*
X144407047Y-68447523D01*
X144311809Y-68542761D01*
X144168952Y-68590380D01*
X144073714Y-68590380D01*
X144930857Y-68590380D02*
X144930857Y-67590380D01*
X145311809Y-67590380D01*
X145407047Y-67638000D01*
X145454666Y-67685619D01*
X145502285Y-67780857D01*
X145502285Y-67923714D01*
X145454666Y-68018952D01*
X145407047Y-68066571D01*
X145311809Y-68114190D01*
X144930857Y-68114190D01*
X146407047Y-67590380D02*
X145930857Y-67590380D01*
X145883238Y-68066571D01*
X145930857Y-68018952D01*
X146026095Y-67971333D01*
X146264190Y-67971333D01*
X146359428Y-68018952D01*
X146407047Y-68066571D01*
X146454666Y-68161809D01*
X146454666Y-68399904D01*
X146407047Y-68495142D01*
X146359428Y-68542761D01*
X146264190Y-68590380D01*
X146026095Y-68590380D01*
X145930857Y-68542761D01*
X145883238Y-68495142D01*
G04 #@! TO.C,C2*
X136358333Y-47032142D02*
X136310714Y-47079761D01*
X136167857Y-47127380D01*
X136072619Y-47127380D01*
X135929761Y-47079761D01*
X135834523Y-46984523D01*
X135786904Y-46889285D01*
X135739285Y-46698809D01*
X135739285Y-46555952D01*
X135786904Y-46365476D01*
X135834523Y-46270238D01*
X135929761Y-46175000D01*
X136072619Y-46127380D01*
X136167857Y-46127380D01*
X136310714Y-46175000D01*
X136358333Y-46222619D01*
X136739285Y-46222619D02*
X136786904Y-46175000D01*
X136882142Y-46127380D01*
X137120238Y-46127380D01*
X137215476Y-46175000D01*
X137263095Y-46222619D01*
X137310714Y-46317857D01*
X137310714Y-46413095D01*
X137263095Y-46555952D01*
X136691666Y-47127380D01*
X137310714Y-47127380D01*
G04 #@! TO.C,JP2*
X107116666Y-67590380D02*
X107116666Y-68304666D01*
X107069047Y-68447523D01*
X106973809Y-68542761D01*
X106830952Y-68590380D01*
X106735714Y-68590380D01*
X107592857Y-68590380D02*
X107592857Y-67590380D01*
X107973809Y-67590380D01*
X108069047Y-67638000D01*
X108116666Y-67685619D01*
X108164285Y-67780857D01*
X108164285Y-67923714D01*
X108116666Y-68018952D01*
X108069047Y-68066571D01*
X107973809Y-68114190D01*
X107592857Y-68114190D01*
X108545238Y-67685619D02*
X108592857Y-67638000D01*
X108688095Y-67590380D01*
X108926190Y-67590380D01*
X109021428Y-67638000D01*
X109069047Y-67685619D01*
X109116666Y-67780857D01*
X109116666Y-67876095D01*
X109069047Y-68018952D01*
X108497619Y-68590380D01*
X109116666Y-68590380D01*
G04 #@! TO.C,U1*
X112268095Y-46000380D02*
X112268095Y-46809904D01*
X112315714Y-46905142D01*
X112363333Y-46952761D01*
X112458571Y-47000380D01*
X112649047Y-47000380D01*
X112744285Y-46952761D01*
X112791904Y-46905142D01*
X112839523Y-46809904D01*
X112839523Y-46000380D01*
X113839523Y-47000380D02*
X113268095Y-47000380D01*
X113553809Y-47000380D02*
X113553809Y-46000380D01*
X113458571Y-46143238D01*
X113363333Y-46238476D01*
X113268095Y-46286095D01*
G04 #@! TO.C,R4*
X138263333Y-68844380D02*
X137930000Y-68368190D01*
X137691904Y-68844380D02*
X137691904Y-67844380D01*
X138072857Y-67844380D01*
X138168095Y-67892000D01*
X138215714Y-67939619D01*
X138263333Y-68034857D01*
X138263333Y-68177714D01*
X138215714Y-68272952D01*
X138168095Y-68320571D01*
X138072857Y-68368190D01*
X137691904Y-68368190D01*
X139120476Y-68177714D02*
X139120476Y-68844380D01*
X138882380Y-67796761D02*
X138644285Y-68511047D01*
X139263333Y-68511047D01*
G04 #@! TO.C,SW2*
X164481238Y-93990380D02*
X164481238Y-92990380D01*
X164862190Y-92990380D01*
X164957428Y-93038000D01*
X165005047Y-93085619D01*
X165052666Y-93180857D01*
X165052666Y-93323714D01*
X165005047Y-93418952D01*
X164957428Y-93466571D01*
X164862190Y-93514190D01*
X164481238Y-93514190D01*
X165481238Y-93990380D02*
X165481238Y-93323714D01*
X165481238Y-93514190D02*
X165528857Y-93418952D01*
X165576476Y-93371333D01*
X165671714Y-93323714D01*
X165766952Y-93323714D01*
X166243142Y-93990380D02*
X166147904Y-93942761D01*
X166100285Y-93895142D01*
X166052666Y-93799904D01*
X166052666Y-93514190D01*
X166100285Y-93418952D01*
X166147904Y-93371333D01*
X166243142Y-93323714D01*
X166386000Y-93323714D01*
X166481238Y-93371333D01*
X166528857Y-93418952D01*
X166576476Y-93514190D01*
X166576476Y-93799904D01*
X166528857Y-93895142D01*
X166481238Y-93942761D01*
X166386000Y-93990380D01*
X166243142Y-93990380D01*
X167433619Y-93323714D02*
X167433619Y-94133238D01*
X167386000Y-94228476D01*
X167338380Y-94276095D01*
X167243142Y-94323714D01*
X167100285Y-94323714D01*
X167005047Y-94276095D01*
X167433619Y-93942761D02*
X167338380Y-93990380D01*
X167147904Y-93990380D01*
X167052666Y-93942761D01*
X167005047Y-93895142D01*
X166957428Y-93799904D01*
X166957428Y-93514190D01*
X167005047Y-93418952D01*
X167052666Y-93371333D01*
X167147904Y-93323714D01*
X167338380Y-93323714D01*
X167433619Y-93371333D01*
X167909809Y-93990380D02*
X167909809Y-93323714D01*
X167909809Y-93514190D02*
X167957428Y-93418952D01*
X168005047Y-93371333D01*
X168100285Y-93323714D01*
X168195523Y-93323714D01*
X168957428Y-93990380D02*
X168957428Y-93466571D01*
X168909809Y-93371333D01*
X168814571Y-93323714D01*
X168624095Y-93323714D01*
X168528857Y-93371333D01*
X168957428Y-93942761D02*
X168862190Y-93990380D01*
X168624095Y-93990380D01*
X168528857Y-93942761D01*
X168481238Y-93847523D01*
X168481238Y-93752285D01*
X168528857Y-93657047D01*
X168624095Y-93609428D01*
X168862190Y-93609428D01*
X168957428Y-93561809D01*
X169433619Y-93990380D02*
X169433619Y-93323714D01*
X169433619Y-93418952D02*
X169481238Y-93371333D01*
X169576476Y-93323714D01*
X169719333Y-93323714D01*
X169814571Y-93371333D01*
X169862190Y-93466571D01*
X169862190Y-93990380D01*
X169862190Y-93466571D02*
X169909809Y-93371333D01*
X170005047Y-93323714D01*
X170147904Y-93323714D01*
X170243142Y-93371333D01*
X170290761Y-93466571D01*
X170290761Y-93990380D01*
X165916666Y-88376761D02*
X166059523Y-88424380D01*
X166297619Y-88424380D01*
X166392857Y-88376761D01*
X166440476Y-88329142D01*
X166488095Y-88233904D01*
X166488095Y-88138666D01*
X166440476Y-88043428D01*
X166392857Y-87995809D01*
X166297619Y-87948190D01*
X166107142Y-87900571D01*
X166011904Y-87852952D01*
X165964285Y-87805333D01*
X165916666Y-87710095D01*
X165916666Y-87614857D01*
X165964285Y-87519619D01*
X166011904Y-87472000D01*
X166107142Y-87424380D01*
X166345238Y-87424380D01*
X166488095Y-87472000D01*
X166821428Y-87424380D02*
X167059523Y-88424380D01*
X167250000Y-87710095D01*
X167440476Y-88424380D01*
X167678571Y-87424380D01*
X168011904Y-87519619D02*
X168059523Y-87472000D01*
X168154761Y-87424380D01*
X168392857Y-87424380D01*
X168488095Y-87472000D01*
X168535714Y-87519619D01*
X168583333Y-87614857D01*
X168583333Y-87710095D01*
X168535714Y-87852952D01*
X167964285Y-88424380D01*
X168583333Y-88424380D01*
G04 #@! TO.C,C7*
X135723333Y-66463142D02*
X135675714Y-66510761D01*
X135532857Y-66558380D01*
X135437619Y-66558380D01*
X135294761Y-66510761D01*
X135199523Y-66415523D01*
X135151904Y-66320285D01*
X135104285Y-66129809D01*
X135104285Y-65986952D01*
X135151904Y-65796476D01*
X135199523Y-65701238D01*
X135294761Y-65606000D01*
X135437619Y-65558380D01*
X135532857Y-65558380D01*
X135675714Y-65606000D01*
X135723333Y-65653619D01*
X136056666Y-65558380D02*
X136723333Y-65558380D01*
X136294761Y-66558380D01*
G04 #@! TO.C,C3*
X109815333Y-47159142D02*
X109767714Y-47206761D01*
X109624857Y-47254380D01*
X109529619Y-47254380D01*
X109386761Y-47206761D01*
X109291523Y-47111523D01*
X109243904Y-47016285D01*
X109196285Y-46825809D01*
X109196285Y-46682952D01*
X109243904Y-46492476D01*
X109291523Y-46397238D01*
X109386761Y-46302000D01*
X109529619Y-46254380D01*
X109624857Y-46254380D01*
X109767714Y-46302000D01*
X109815333Y-46349619D01*
X110148666Y-46254380D02*
X110767714Y-46254380D01*
X110434380Y-46635333D01*
X110577238Y-46635333D01*
X110672476Y-46682952D01*
X110720095Y-46730571D01*
X110767714Y-46825809D01*
X110767714Y-47063904D01*
X110720095Y-47159142D01*
X110672476Y-47206761D01*
X110577238Y-47254380D01*
X110291523Y-47254380D01*
X110196285Y-47206761D01*
X110148666Y-47159142D01*
G04 #@! TO.C,R6*
X156027380Y-70336666D02*
X155551190Y-70670000D01*
X156027380Y-70908095D02*
X155027380Y-70908095D01*
X155027380Y-70527142D01*
X155075000Y-70431904D01*
X155122619Y-70384285D01*
X155217857Y-70336666D01*
X155360714Y-70336666D01*
X155455952Y-70384285D01*
X155503571Y-70431904D01*
X155551190Y-70527142D01*
X155551190Y-70908095D01*
X155027380Y-69479523D02*
X155027380Y-69670000D01*
X155075000Y-69765238D01*
X155122619Y-69812857D01*
X155265476Y-69908095D01*
X155455952Y-69955714D01*
X155836904Y-69955714D01*
X155932142Y-69908095D01*
X155979761Y-69860476D01*
X156027380Y-69765238D01*
X156027380Y-69574761D01*
X155979761Y-69479523D01*
X155932142Y-69431904D01*
X155836904Y-69384285D01*
X155598809Y-69384285D01*
X155503571Y-69431904D01*
X155455952Y-69479523D01*
X155408333Y-69574761D01*
X155408333Y-69765238D01*
X155455952Y-69860476D01*
X155503571Y-69908095D01*
X155598809Y-69955714D01*
G04 #@! TO.C,SW3*
X174609333Y-93990380D02*
X174609333Y-92990380D01*
X174942666Y-93704666D01*
X175276000Y-92990380D01*
X175276000Y-93990380D01*
X175895047Y-93990380D02*
X175799809Y-93942761D01*
X175752190Y-93895142D01*
X175704571Y-93799904D01*
X175704571Y-93514190D01*
X175752190Y-93418952D01*
X175799809Y-93371333D01*
X175895047Y-93323714D01*
X176037904Y-93323714D01*
X176133142Y-93371333D01*
X176180761Y-93418952D01*
X176228380Y-93514190D01*
X176228380Y-93799904D01*
X176180761Y-93895142D01*
X176133142Y-93942761D01*
X176037904Y-93990380D01*
X175895047Y-93990380D01*
X177085523Y-93990380D02*
X177085523Y-92990380D01*
X177085523Y-93942761D02*
X176990285Y-93990380D01*
X176799809Y-93990380D01*
X176704571Y-93942761D01*
X176656952Y-93895142D01*
X176609333Y-93799904D01*
X176609333Y-93514190D01*
X176656952Y-93418952D01*
X176704571Y-93371333D01*
X176799809Y-93323714D01*
X176990285Y-93323714D01*
X177085523Y-93371333D01*
X177942666Y-93942761D02*
X177847428Y-93990380D01*
X177656952Y-93990380D01*
X177561714Y-93942761D01*
X177514095Y-93847523D01*
X177514095Y-93466571D01*
X177561714Y-93371333D01*
X177656952Y-93323714D01*
X177847428Y-93323714D01*
X177942666Y-93371333D01*
X177990285Y-93466571D01*
X177990285Y-93561809D01*
X177514095Y-93657047D01*
X174916666Y-88376761D02*
X175059523Y-88424380D01*
X175297619Y-88424380D01*
X175392857Y-88376761D01*
X175440476Y-88329142D01*
X175488095Y-88233904D01*
X175488095Y-88138666D01*
X175440476Y-88043428D01*
X175392857Y-87995809D01*
X175297619Y-87948190D01*
X175107142Y-87900571D01*
X175011904Y-87852952D01*
X174964285Y-87805333D01*
X174916666Y-87710095D01*
X174916666Y-87614857D01*
X174964285Y-87519619D01*
X175011904Y-87472000D01*
X175107142Y-87424380D01*
X175345238Y-87424380D01*
X175488095Y-87472000D01*
X175821428Y-87424380D02*
X176059523Y-88424380D01*
X176250000Y-87710095D01*
X176440476Y-88424380D01*
X176678571Y-87424380D01*
X176964285Y-87424380D02*
X177583333Y-87424380D01*
X177250000Y-87805333D01*
X177392857Y-87805333D01*
X177488095Y-87852952D01*
X177535714Y-87900571D01*
X177583333Y-87995809D01*
X177583333Y-88233904D01*
X177535714Y-88329142D01*
X177488095Y-88376761D01*
X177392857Y-88424380D01*
X177107142Y-88424380D01*
X177011904Y-88376761D01*
X176964285Y-88329142D01*
G04 #@! TO.C,Q3*
X123225796Y-82547619D02*
X123130558Y-82500000D01*
X123035320Y-82404761D01*
X122892463Y-82261904D01*
X122797225Y-82214285D01*
X122701987Y-82214285D01*
X122749606Y-82452380D02*
X122654368Y-82404761D01*
X122559130Y-82309523D01*
X122511511Y-82119047D01*
X122511511Y-81785714D01*
X122559130Y-81595238D01*
X122654368Y-81500000D01*
X122749606Y-81452380D01*
X122940082Y-81452380D01*
X123035320Y-81500000D01*
X123130558Y-81595238D01*
X123178177Y-81785714D01*
X123178177Y-82119047D01*
X123130558Y-82309523D01*
X123035320Y-82404761D01*
X122940082Y-82452380D01*
X122749606Y-82452380D01*
X123511511Y-81452380D02*
X124130558Y-81452380D01*
X123797225Y-81833333D01*
X123940082Y-81833333D01*
X124035320Y-81880952D01*
X124082939Y-81928571D01*
X124130558Y-82023809D01*
X124130558Y-82261904D01*
X124082939Y-82357142D01*
X124035320Y-82404761D01*
X123940082Y-82452380D01*
X123654368Y-82452380D01*
X123559130Y-82404761D01*
X123511511Y-82357142D01*
X120463892Y-80452380D02*
X120463892Y-79452380D01*
X121511511Y-80452380D02*
X121178177Y-79976190D01*
X120940082Y-80452380D02*
X120940082Y-79452380D01*
X121321035Y-79452380D01*
X121416273Y-79500000D01*
X121463892Y-79547619D01*
X121511511Y-79642857D01*
X121511511Y-79785714D01*
X121463892Y-79880952D01*
X121416273Y-79928571D01*
X121321035Y-79976190D01*
X120940082Y-79976190D01*
X122416273Y-80452380D02*
X121940082Y-80452380D01*
X121940082Y-79452380D01*
X122654368Y-79452380D02*
X123321035Y-79452380D01*
X122654368Y-80452380D01*
X123321035Y-80452380D01*
X123606749Y-79452380D02*
X124225796Y-79452380D01*
X123892463Y-79833333D01*
X124035320Y-79833333D01*
X124130558Y-79880952D01*
X124178177Y-79928571D01*
X124225796Y-80023809D01*
X124225796Y-80261904D01*
X124178177Y-80357142D01*
X124130558Y-80404761D01*
X124035320Y-80452380D01*
X123749606Y-80452380D01*
X123654368Y-80404761D01*
X123606749Y-80357142D01*
X125082939Y-79785714D02*
X125082939Y-80452380D01*
X124844844Y-79404761D02*
X124606749Y-80119047D01*
X125225796Y-80119047D01*
X125606749Y-80452380D02*
X125606749Y-79452380D01*
X126178177Y-80452380D01*
X126178177Y-79452380D01*
G04 #@! TO.C,Q5*
X148238546Y-82420619D02*
X148143308Y-82373000D01*
X148048070Y-82277761D01*
X147905213Y-82134904D01*
X147809975Y-82087285D01*
X147714737Y-82087285D01*
X147762356Y-82325380D02*
X147667118Y-82277761D01*
X147571880Y-82182523D01*
X147524261Y-81992047D01*
X147524261Y-81658714D01*
X147571880Y-81468238D01*
X147667118Y-81373000D01*
X147762356Y-81325380D01*
X147952832Y-81325380D01*
X148048070Y-81373000D01*
X148143308Y-81468238D01*
X148190927Y-81658714D01*
X148190927Y-81992047D01*
X148143308Y-82182523D01*
X148048070Y-82277761D01*
X147952832Y-82325380D01*
X147762356Y-82325380D01*
X149095689Y-81325380D02*
X148619499Y-81325380D01*
X148571880Y-81801571D01*
X148619499Y-81753952D01*
X148714737Y-81706333D01*
X148952832Y-81706333D01*
X149048070Y-81753952D01*
X149095689Y-81801571D01*
X149143308Y-81896809D01*
X149143308Y-82134904D01*
X149095689Y-82230142D01*
X149048070Y-82277761D01*
X148952832Y-82325380D01*
X148714737Y-82325380D01*
X148619499Y-82277761D01*
X148571880Y-82230142D01*
X145476642Y-80325380D02*
X145476642Y-79325380D01*
X146524261Y-80325380D02*
X146190927Y-79849190D01*
X145952832Y-80325380D02*
X145952832Y-79325380D01*
X146333785Y-79325380D01*
X146429023Y-79373000D01*
X146476642Y-79420619D01*
X146524261Y-79515857D01*
X146524261Y-79658714D01*
X146476642Y-79753952D01*
X146429023Y-79801571D01*
X146333785Y-79849190D01*
X145952832Y-79849190D01*
X147429023Y-80325380D02*
X146952832Y-80325380D01*
X146952832Y-79325380D01*
X147667118Y-79325380D02*
X148333785Y-79325380D01*
X147667118Y-80325380D01*
X148333785Y-80325380D01*
X148619499Y-79325380D02*
X149238546Y-79325380D01*
X148905213Y-79706333D01*
X149048070Y-79706333D01*
X149143308Y-79753952D01*
X149190927Y-79801571D01*
X149238546Y-79896809D01*
X149238546Y-80134904D01*
X149190927Y-80230142D01*
X149143308Y-80277761D01*
X149048070Y-80325380D01*
X148762356Y-80325380D01*
X148667118Y-80277761D01*
X148619499Y-80230142D01*
X150095689Y-79658714D02*
X150095689Y-80325380D01*
X149857594Y-79277761D02*
X149619499Y-79992047D01*
X150238546Y-79992047D01*
X150619499Y-80325380D02*
X150619499Y-79325380D01*
X151190927Y-80325380D01*
X151190927Y-79325380D01*
G04 #@! TO.C,R2*
X113879333Y-68590380D02*
X113546000Y-68114190D01*
X113307904Y-68590380D02*
X113307904Y-67590380D01*
X113688857Y-67590380D01*
X113784095Y-67638000D01*
X113831714Y-67685619D01*
X113879333Y-67780857D01*
X113879333Y-67923714D01*
X113831714Y-68018952D01*
X113784095Y-68066571D01*
X113688857Y-68114190D01*
X113307904Y-68114190D01*
X114260285Y-67685619D02*
X114307904Y-67638000D01*
X114403142Y-67590380D01*
X114641238Y-67590380D01*
X114736476Y-67638000D01*
X114784095Y-67685619D01*
X114831714Y-67780857D01*
X114831714Y-67876095D01*
X114784095Y-68018952D01*
X114212666Y-68590380D01*
X114831714Y-68590380D01*
G04 #@! TO.C,P2*
X176576904Y-60462380D02*
X176576904Y-59462380D01*
X176957857Y-59462380D01*
X177053095Y-59510000D01*
X177100714Y-59557619D01*
X177148333Y-59652857D01*
X177148333Y-59795714D01*
X177100714Y-59890952D01*
X177053095Y-59938571D01*
X176957857Y-59986190D01*
X176576904Y-59986190D01*
X177529285Y-59557619D02*
X177576904Y-59510000D01*
X177672142Y-59462380D01*
X177910238Y-59462380D01*
X178005476Y-59510000D01*
X178053095Y-59557619D01*
X178100714Y-59652857D01*
X178100714Y-59748095D01*
X178053095Y-59890952D01*
X177481666Y-60462380D01*
X178100714Y-60462380D01*
G04 #@! TO.C,P3*
X176553904Y-73162380D02*
X176553904Y-72162380D01*
X176934857Y-72162380D01*
X177030095Y-72210000D01*
X177077714Y-72257619D01*
X177125333Y-72352857D01*
X177125333Y-72495714D01*
X177077714Y-72590952D01*
X177030095Y-72638571D01*
X176934857Y-72686190D01*
X176553904Y-72686190D01*
X177458666Y-72162380D02*
X178077714Y-72162380D01*
X177744380Y-72543333D01*
X177887238Y-72543333D01*
X177982476Y-72590952D01*
X178030095Y-72638571D01*
X178077714Y-72733809D01*
X178077714Y-72971904D01*
X178030095Y-73067142D01*
X177982476Y-73114761D01*
X177887238Y-73162380D01*
X177601523Y-73162380D01*
X177506285Y-73114761D01*
X177458666Y-73067142D01*
G04 #@! TO.C,Q2*
X110728983Y-82547619D02*
X110633745Y-82500000D01*
X110538507Y-82404761D01*
X110395650Y-82261904D01*
X110300412Y-82214285D01*
X110205174Y-82214285D01*
X110252793Y-82452380D02*
X110157555Y-82404761D01*
X110062317Y-82309523D01*
X110014698Y-82119047D01*
X110014698Y-81785714D01*
X110062317Y-81595238D01*
X110157555Y-81500000D01*
X110252793Y-81452380D01*
X110443269Y-81452380D01*
X110538507Y-81500000D01*
X110633745Y-81595238D01*
X110681364Y-81785714D01*
X110681364Y-82119047D01*
X110633745Y-82309523D01*
X110538507Y-82404761D01*
X110443269Y-82452380D01*
X110252793Y-82452380D01*
X111062317Y-81547619D02*
X111109936Y-81500000D01*
X111205174Y-81452380D01*
X111443269Y-81452380D01*
X111538507Y-81500000D01*
X111586126Y-81547619D01*
X111633745Y-81642857D01*
X111633745Y-81738095D01*
X111586126Y-81880952D01*
X111014698Y-82452380D01*
X111633745Y-82452380D01*
X107967079Y-80452380D02*
X107967079Y-79452380D01*
X109014698Y-80452380D02*
X108681364Y-79976190D01*
X108443269Y-80452380D02*
X108443269Y-79452380D01*
X108824222Y-79452380D01*
X108919460Y-79500000D01*
X108967079Y-79547619D01*
X109014698Y-79642857D01*
X109014698Y-79785714D01*
X108967079Y-79880952D01*
X108919460Y-79928571D01*
X108824222Y-79976190D01*
X108443269Y-79976190D01*
X109919460Y-80452380D02*
X109443269Y-80452380D01*
X109443269Y-79452380D01*
X110157555Y-79452380D02*
X110824222Y-79452380D01*
X110157555Y-80452380D01*
X110824222Y-80452380D01*
X111109936Y-79452380D02*
X111728983Y-79452380D01*
X111395650Y-79833333D01*
X111538507Y-79833333D01*
X111633745Y-79880952D01*
X111681364Y-79928571D01*
X111728983Y-80023809D01*
X111728983Y-80261904D01*
X111681364Y-80357142D01*
X111633745Y-80404761D01*
X111538507Y-80452380D01*
X111252793Y-80452380D01*
X111157555Y-80404761D01*
X111109936Y-80357142D01*
X112586126Y-79785714D02*
X112586126Y-80452380D01*
X112348031Y-79404761D02*
X112109936Y-80119047D01*
X112728983Y-80119047D01*
X113109936Y-80452380D02*
X113109936Y-79452380D01*
X113681364Y-80452380D01*
X113681364Y-79452380D01*
G04 #@! TO.C,P1*
X176553904Y-50937380D02*
X176553904Y-49937380D01*
X176934857Y-49937380D01*
X177030095Y-49985000D01*
X177077714Y-50032619D01*
X177125333Y-50127857D01*
X177125333Y-50270714D01*
X177077714Y-50365952D01*
X177030095Y-50413571D01*
X176934857Y-50461190D01*
X176553904Y-50461190D01*
X178077714Y-50937380D02*
X177506285Y-50937380D01*
X177792000Y-50937380D02*
X177792000Y-49937380D01*
X177696761Y-50080238D01*
X177601523Y-50175476D01*
X177506285Y-50223095D01*
G04 #@! TO.C,C1*
X112750333Y-55381142D02*
X112702714Y-55428761D01*
X112559857Y-55476380D01*
X112464619Y-55476380D01*
X112321761Y-55428761D01*
X112226523Y-55333523D01*
X112178904Y-55238285D01*
X112131285Y-55047809D01*
X112131285Y-54904952D01*
X112178904Y-54714476D01*
X112226523Y-54619238D01*
X112321761Y-54524000D01*
X112464619Y-54476380D01*
X112559857Y-54476380D01*
X112702714Y-54524000D01*
X112750333Y-54571619D01*
X113702714Y-55476380D02*
X113131285Y-55476380D01*
X113417000Y-55476380D02*
X113417000Y-54476380D01*
X113321761Y-54619238D01*
X113226523Y-54714476D01*
X113131285Y-54762095D01*
G04 #@! TO.C,U2*
X166238095Y-66447380D02*
X166238095Y-67256904D01*
X166285714Y-67352142D01*
X166333333Y-67399761D01*
X166428571Y-67447380D01*
X166619047Y-67447380D01*
X166714285Y-67399761D01*
X166761904Y-67352142D01*
X166809523Y-67256904D01*
X166809523Y-66447380D01*
X167238095Y-66542619D02*
X167285714Y-66495000D01*
X167380952Y-66447380D01*
X167619047Y-66447380D01*
X167714285Y-66495000D01*
X167761904Y-66542619D01*
X167809523Y-66637857D01*
X167809523Y-66733095D01*
X167761904Y-66875952D01*
X167190476Y-67447380D01*
X167809523Y-67447380D01*
X161904761Y-68522571D02*
X162238095Y-68522571D01*
X162380952Y-69046380D02*
X161904761Y-69046380D01*
X161904761Y-68046380D01*
X162380952Y-68046380D01*
X162761904Y-68998761D02*
X162904761Y-69046380D01*
X163142857Y-69046380D01*
X163238095Y-68998761D01*
X163285714Y-68951142D01*
X163333333Y-68855904D01*
X163333333Y-68760666D01*
X163285714Y-68665428D01*
X163238095Y-68617809D01*
X163142857Y-68570190D01*
X162952380Y-68522571D01*
X162857142Y-68474952D01*
X162809523Y-68427333D01*
X162761904Y-68332095D01*
X162761904Y-68236857D01*
X162809523Y-68141619D01*
X162857142Y-68094000D01*
X162952380Y-68046380D01*
X163190476Y-68046380D01*
X163333333Y-68094000D01*
X163761904Y-69046380D02*
X163761904Y-68046380D01*
X164142857Y-68046380D01*
X164238095Y-68094000D01*
X164285714Y-68141619D01*
X164333333Y-68236857D01*
X164333333Y-68379714D01*
X164285714Y-68474952D01*
X164238095Y-68522571D01*
X164142857Y-68570190D01*
X163761904Y-68570190D01*
X164904761Y-68474952D02*
X164809523Y-68427333D01*
X164761904Y-68379714D01*
X164714285Y-68284476D01*
X164714285Y-68236857D01*
X164761904Y-68141619D01*
X164809523Y-68094000D01*
X164904761Y-68046380D01*
X165095238Y-68046380D01*
X165190476Y-68094000D01*
X165238095Y-68141619D01*
X165285714Y-68236857D01*
X165285714Y-68284476D01*
X165238095Y-68379714D01*
X165190476Y-68427333D01*
X165095238Y-68474952D01*
X164904761Y-68474952D01*
X164809523Y-68522571D01*
X164761904Y-68570190D01*
X164714285Y-68665428D01*
X164714285Y-68855904D01*
X164761904Y-68951142D01*
X164809523Y-68998761D01*
X164904761Y-69046380D01*
X165095238Y-69046380D01*
X165190476Y-68998761D01*
X165238095Y-68951142D01*
X165285714Y-68855904D01*
X165285714Y-68665428D01*
X165238095Y-68570190D01*
X165190476Y-68522571D01*
X165095238Y-68474952D01*
X165666666Y-68141619D02*
X165714285Y-68094000D01*
X165809523Y-68046380D01*
X166047619Y-68046380D01*
X166142857Y-68094000D01*
X166190476Y-68141619D01*
X166238095Y-68236857D01*
X166238095Y-68332095D01*
X166190476Y-68474952D01*
X165619047Y-69046380D01*
X166238095Y-69046380D01*
X167095238Y-68046380D02*
X166904761Y-68046380D01*
X166809523Y-68094000D01*
X166761904Y-68141619D01*
X166666666Y-68284476D01*
X166619047Y-68474952D01*
X166619047Y-68855904D01*
X166666666Y-68951142D01*
X166714285Y-68998761D01*
X166809523Y-69046380D01*
X167000000Y-69046380D01*
X167095238Y-68998761D01*
X167142857Y-68951142D01*
X167190476Y-68855904D01*
X167190476Y-68617809D01*
X167142857Y-68522571D01*
X167095238Y-68474952D01*
X167000000Y-68427333D01*
X166809523Y-68427333D01*
X166714285Y-68474952D01*
X166666666Y-68522571D01*
X166619047Y-68617809D01*
X168047619Y-68046380D02*
X167857142Y-68046380D01*
X167761904Y-68094000D01*
X167714285Y-68141619D01*
X167619047Y-68284476D01*
X167571428Y-68474952D01*
X167571428Y-68855904D01*
X167619047Y-68951142D01*
X167666666Y-68998761D01*
X167761904Y-69046380D01*
X167952380Y-69046380D01*
X168047619Y-68998761D01*
X168095238Y-68951142D01*
X168142857Y-68855904D01*
X168142857Y-68617809D01*
X168095238Y-68522571D01*
X168047619Y-68474952D01*
X167952380Y-68427333D01*
X167761904Y-68427333D01*
X167666666Y-68474952D01*
X167619047Y-68522571D01*
X167571428Y-68617809D01*
X168571428Y-68665428D02*
X169333333Y-68665428D01*
X170333333Y-69046380D02*
X169761904Y-69046380D01*
X170047619Y-69046380D02*
X170047619Y-68046380D01*
X169952380Y-68189238D01*
X169857142Y-68284476D01*
X169761904Y-68332095D01*
X170714285Y-68141619D02*
X170761904Y-68094000D01*
X170857142Y-68046380D01*
X171095238Y-68046380D01*
X171190476Y-68094000D01*
X171238095Y-68141619D01*
X171285714Y-68236857D01*
X171285714Y-68332095D01*
X171238095Y-68474952D01*
X170666666Y-69046380D01*
X171285714Y-69046380D01*
X172047619Y-68522571D02*
X171714285Y-68522571D01*
X171714285Y-69046380D02*
X171714285Y-68046380D01*
X172190476Y-68046380D01*
G04 #@! TO.C,R7*
X178252380Y-70336666D02*
X177776190Y-70670000D01*
X178252380Y-70908095D02*
X177252380Y-70908095D01*
X177252380Y-70527142D01*
X177300000Y-70431904D01*
X177347619Y-70384285D01*
X177442857Y-70336666D01*
X177585714Y-70336666D01*
X177680952Y-70384285D01*
X177728571Y-70431904D01*
X177776190Y-70527142D01*
X177776190Y-70908095D01*
X177252380Y-70003333D02*
X177252380Y-69336666D01*
X178252380Y-69765238D01*
G04 #@! TO.C,Q4*
X135735357Y-82547619D02*
X135640119Y-82500000D01*
X135544881Y-82404761D01*
X135402024Y-82261904D01*
X135306786Y-82214285D01*
X135211548Y-82214285D01*
X135259167Y-82452380D02*
X135163929Y-82404761D01*
X135068691Y-82309523D01*
X135021072Y-82119047D01*
X135021072Y-81785714D01*
X135068691Y-81595238D01*
X135163929Y-81500000D01*
X135259167Y-81452380D01*
X135449643Y-81452380D01*
X135544881Y-81500000D01*
X135640119Y-81595238D01*
X135687738Y-81785714D01*
X135687738Y-82119047D01*
X135640119Y-82309523D01*
X135544881Y-82404761D01*
X135449643Y-82452380D01*
X135259167Y-82452380D01*
X136544881Y-81785714D02*
X136544881Y-82452380D01*
X136306786Y-81404761D02*
X136068691Y-82119047D01*
X136687738Y-82119047D01*
X133146043Y-80452380D02*
X133146043Y-79452380D01*
X134193662Y-80452380D02*
X133860328Y-79976190D01*
X133622233Y-80452380D02*
X133622233Y-79452380D01*
X134003186Y-79452380D01*
X134098424Y-79500000D01*
X134146043Y-79547619D01*
X134193662Y-79642857D01*
X134193662Y-79785714D01*
X134146043Y-79880952D01*
X134098424Y-79928571D01*
X134003186Y-79976190D01*
X133622233Y-79976190D01*
X135098424Y-80452380D02*
X134622233Y-80452380D01*
X134622233Y-79452380D01*
X135336519Y-79452380D02*
X136003186Y-79452380D01*
X135336519Y-80452380D01*
X136003186Y-80452380D01*
X136288900Y-79452380D02*
X136907947Y-79452380D01*
X136574614Y-79833333D01*
X136717471Y-79833333D01*
X136812709Y-79880952D01*
X136860328Y-79928571D01*
X136907947Y-80023809D01*
X136907947Y-80261904D01*
X136860328Y-80357142D01*
X136812709Y-80404761D01*
X136717471Y-80452380D01*
X136431757Y-80452380D01*
X136336519Y-80404761D01*
X136288900Y-80357142D01*
X137765090Y-79785714D02*
X137765090Y-80452380D01*
X137526995Y-79404761D02*
X137288900Y-80119047D01*
X137907947Y-80119047D01*
X138288900Y-80452380D02*
X138288900Y-79452380D01*
X138860328Y-80452380D01*
X138860328Y-79452380D01*
G04 #@! TO.C,J1*
X93646666Y-45492380D02*
X93646666Y-46206666D01*
X93599047Y-46349523D01*
X93503809Y-46444761D01*
X93360952Y-46492380D01*
X93265714Y-46492380D01*
X94646666Y-46492380D02*
X94075238Y-46492380D01*
X94360952Y-46492380D02*
X94360952Y-45492380D01*
X94265714Y-45635238D01*
X94170476Y-45730476D01*
X94075238Y-45778095D01*
G04 #@! TO.C,D1*
X106195904Y-52842380D02*
X106195904Y-51842380D01*
X106434000Y-51842380D01*
X106576857Y-51890000D01*
X106672095Y-51985238D01*
X106719714Y-52080476D01*
X106767333Y-52270952D01*
X106767333Y-52413809D01*
X106719714Y-52604285D01*
X106672095Y-52699523D01*
X106576857Y-52794761D01*
X106434000Y-52842380D01*
X106195904Y-52842380D01*
X107719714Y-52842380D02*
X107148285Y-52842380D01*
X107434000Y-52842380D02*
X107434000Y-51842380D01*
X107338761Y-51985238D01*
X107243523Y-52080476D01*
X107148285Y-52128095D01*
G04 #@! TO.C,Q1*
X98232170Y-82420619D02*
X98136932Y-82373000D01*
X98041694Y-82277761D01*
X97898837Y-82134904D01*
X97803599Y-82087285D01*
X97708361Y-82087285D01*
X97755980Y-82325380D02*
X97660742Y-82277761D01*
X97565504Y-82182523D01*
X97517885Y-81992047D01*
X97517885Y-81658714D01*
X97565504Y-81468238D01*
X97660742Y-81373000D01*
X97755980Y-81325380D01*
X97946456Y-81325380D01*
X98041694Y-81373000D01*
X98136932Y-81468238D01*
X98184551Y-81658714D01*
X98184551Y-81992047D01*
X98136932Y-82182523D01*
X98041694Y-82277761D01*
X97946456Y-82325380D01*
X97755980Y-82325380D01*
X99136932Y-82325380D02*
X98565504Y-82325380D01*
X98851218Y-82325380D02*
X98851218Y-81325380D01*
X98755980Y-81468238D01*
X98660742Y-81563476D01*
X98565504Y-81611095D01*
X95161981Y-80325380D02*
X95161981Y-79325380D01*
X96209600Y-80325380D02*
X95876266Y-79849190D01*
X95638171Y-80325380D02*
X95638171Y-79325380D01*
X96019124Y-79325380D01*
X96114362Y-79373000D01*
X96161981Y-79420619D01*
X96209600Y-79515857D01*
X96209600Y-79658714D01*
X96161981Y-79753952D01*
X96114362Y-79801571D01*
X96019124Y-79849190D01*
X95638171Y-79849190D01*
X97114362Y-80325380D02*
X96638171Y-80325380D01*
X96638171Y-79325380D01*
X97352457Y-79325380D02*
X98019124Y-79325380D01*
X97352457Y-80325380D01*
X98019124Y-80325380D01*
X98304838Y-79325380D02*
X98923885Y-79325380D01*
X98590552Y-79706333D01*
X98733409Y-79706333D01*
X98828647Y-79753952D01*
X98876266Y-79801571D01*
X98923885Y-79896809D01*
X98923885Y-80134904D01*
X98876266Y-80230142D01*
X98828647Y-80277761D01*
X98733409Y-80325380D01*
X98447695Y-80325380D01*
X98352457Y-80277761D01*
X98304838Y-80230142D01*
X99781028Y-79658714D02*
X99781028Y-80325380D01*
X99542933Y-79277761D02*
X99304838Y-79992047D01*
X99923885Y-79992047D01*
X100304838Y-80325380D02*
X100304838Y-79325380D01*
X100876266Y-80325380D01*
X100876266Y-79325380D01*
G04 #@! TO.C,JP1*
X94670666Y-67590380D02*
X94670666Y-68304666D01*
X94623047Y-68447523D01*
X94527809Y-68542761D01*
X94384952Y-68590380D01*
X94289714Y-68590380D01*
X95146857Y-68590380D02*
X95146857Y-67590380D01*
X95527809Y-67590380D01*
X95623047Y-67638000D01*
X95670666Y-67685619D01*
X95718285Y-67780857D01*
X95718285Y-67923714D01*
X95670666Y-68018952D01*
X95623047Y-68066571D01*
X95527809Y-68114190D01*
X95146857Y-68114190D01*
X96670666Y-68590380D02*
X96099238Y-68590380D01*
X96384952Y-68590380D02*
X96384952Y-67590380D01*
X96289714Y-67733238D01*
X96194476Y-67828476D01*
X96099238Y-67876095D01*
G04 #@! TO.C,R1*
X100798333Y-68590380D02*
X100465000Y-68114190D01*
X100226904Y-68590380D02*
X100226904Y-67590380D01*
X100607857Y-67590380D01*
X100703095Y-67638000D01*
X100750714Y-67685619D01*
X100798333Y-67780857D01*
X100798333Y-67923714D01*
X100750714Y-68018952D01*
X100703095Y-68066571D01*
X100607857Y-68114190D01*
X100226904Y-68114190D01*
X101750714Y-68590380D02*
X101179285Y-68590380D01*
X101465000Y-68590380D02*
X101465000Y-67590380D01*
X101369761Y-67733238D01*
X101274523Y-67828476D01*
X101179285Y-67876095D01*
G04 #@! TO.C,Y1*
X116363809Y-56176190D02*
X116363809Y-56652380D01*
X116030476Y-55652380D02*
X116363809Y-56176190D01*
X116697142Y-55652380D01*
X117554285Y-56652380D02*
X116982857Y-56652380D01*
X117268571Y-56652380D02*
X117268571Y-55652380D01*
X117173333Y-55795238D01*
X117078095Y-55890476D01*
X116982857Y-55938095D01*
G04 #@! TO.C,U4*
X135763095Y-58192380D02*
X135763095Y-59001904D01*
X135810714Y-59097142D01*
X135858333Y-59144761D01*
X135953571Y-59192380D01*
X136144047Y-59192380D01*
X136239285Y-59144761D01*
X136286904Y-59097142D01*
X136334523Y-59001904D01*
X136334523Y-58192380D01*
X137239285Y-58525714D02*
X137239285Y-59192380D01*
X137001190Y-58144761D02*
X136763095Y-58859047D01*
X137382142Y-58859047D01*
X139517380Y-65057857D02*
X138517380Y-65057857D01*
X138517380Y-64819761D01*
X138565000Y-64676904D01*
X138660238Y-64581666D01*
X138755476Y-64534047D01*
X138945952Y-64486428D01*
X139088809Y-64486428D01*
X139279285Y-64534047D01*
X139374523Y-64581666D01*
X139469761Y-64676904D01*
X139517380Y-64819761D01*
X139517380Y-65057857D01*
X139469761Y-64105476D02*
X139517380Y-63962619D01*
X139517380Y-63724523D01*
X139469761Y-63629285D01*
X139422142Y-63581666D01*
X139326904Y-63534047D01*
X139231666Y-63534047D01*
X139136428Y-63581666D01*
X139088809Y-63629285D01*
X139041190Y-63724523D01*
X138993571Y-63915000D01*
X138945952Y-64010238D01*
X138898333Y-64057857D01*
X138803095Y-64105476D01*
X138707857Y-64105476D01*
X138612619Y-64057857D01*
X138565000Y-64010238D01*
X138517380Y-63915000D01*
X138517380Y-63676904D01*
X138565000Y-63534047D01*
X139517380Y-62581666D02*
X139517380Y-63153095D01*
X139517380Y-62867380D02*
X138517380Y-62867380D01*
X138660238Y-62962619D01*
X138755476Y-63057857D01*
X138803095Y-63153095D01*
X138945952Y-62010238D02*
X138898333Y-62105476D01*
X138850714Y-62153095D01*
X138755476Y-62200714D01*
X138707857Y-62200714D01*
X138612619Y-62153095D01*
X138565000Y-62105476D01*
X138517380Y-62010238D01*
X138517380Y-61819761D01*
X138565000Y-61724523D01*
X138612619Y-61676904D01*
X138707857Y-61629285D01*
X138755476Y-61629285D01*
X138850714Y-61676904D01*
X138898333Y-61724523D01*
X138945952Y-61819761D01*
X138945952Y-62010238D01*
X138993571Y-62105476D01*
X139041190Y-62153095D01*
X139136428Y-62200714D01*
X139326904Y-62200714D01*
X139422142Y-62153095D01*
X139469761Y-62105476D01*
X139517380Y-62010238D01*
X139517380Y-61819761D01*
X139469761Y-61724523D01*
X139422142Y-61676904D01*
X139326904Y-61629285D01*
X139136428Y-61629285D01*
X139041190Y-61676904D01*
X138993571Y-61724523D01*
X138945952Y-61819761D01*
X138993571Y-60867380D02*
X139041190Y-60724523D01*
X139088809Y-60676904D01*
X139184047Y-60629285D01*
X139326904Y-60629285D01*
X139422142Y-60676904D01*
X139469761Y-60724523D01*
X139517380Y-60819761D01*
X139517380Y-61200714D01*
X138517380Y-61200714D01*
X138517380Y-60867380D01*
X138565000Y-60772142D01*
X138612619Y-60724523D01*
X138707857Y-60676904D01*
X138803095Y-60676904D01*
X138898333Y-60724523D01*
X138945952Y-60772142D01*
X138993571Y-60867380D01*
X138993571Y-61200714D01*
X138612619Y-60248333D02*
X138565000Y-60200714D01*
X138517380Y-60105476D01*
X138517380Y-59867380D01*
X138565000Y-59772142D01*
X138612619Y-59724523D01*
X138707857Y-59676904D01*
X138803095Y-59676904D01*
X138945952Y-59724523D01*
X139517380Y-60295952D01*
X139517380Y-59676904D01*
X138517380Y-59057857D02*
X138517380Y-58962619D01*
X138565000Y-58867380D01*
X138612619Y-58819761D01*
X138707857Y-58772142D01*
X138898333Y-58724523D01*
X139136428Y-58724523D01*
X139326904Y-58772142D01*
X139422142Y-58819761D01*
X139469761Y-58867380D01*
X139517380Y-58962619D01*
X139517380Y-59057857D01*
X139469761Y-59153095D01*
X139422142Y-59200714D01*
X139326904Y-59248333D01*
X139136428Y-59295952D01*
X138898333Y-59295952D01*
X138707857Y-59248333D01*
X138612619Y-59200714D01*
X138565000Y-59153095D01*
X138517380Y-59057857D01*
G04 #@! TO.C,JP4*
X131754666Y-67590380D02*
X131754666Y-68304666D01*
X131707047Y-68447523D01*
X131611809Y-68542761D01*
X131468952Y-68590380D01*
X131373714Y-68590380D01*
X132230857Y-68590380D02*
X132230857Y-67590380D01*
X132611809Y-67590380D01*
X132707047Y-67638000D01*
X132754666Y-67685619D01*
X132802285Y-67780857D01*
X132802285Y-67923714D01*
X132754666Y-68018952D01*
X132707047Y-68066571D01*
X132611809Y-68114190D01*
X132230857Y-68114190D01*
X133659428Y-67923714D02*
X133659428Y-68590380D01*
X133421333Y-67542761D02*
X133183238Y-68257047D01*
X133802285Y-68257047D01*
G04 #@! TO.C,J4*
X142122380Y-63333333D02*
X142836666Y-63333333D01*
X142979523Y-63380952D01*
X143074761Y-63476190D01*
X143122380Y-63619047D01*
X143122380Y-63714285D01*
X142455714Y-62428571D02*
X143122380Y-62428571D01*
X142074761Y-62666666D02*
X142789047Y-62904761D01*
X142789047Y-62285714D01*
X146248571Y-57922380D02*
X146248571Y-56922380D01*
X146581904Y-57636666D01*
X146915238Y-56922380D01*
X146915238Y-57922380D01*
X147391428Y-57922380D02*
X147391428Y-56922380D01*
X148439047Y-57827142D02*
X148391428Y-57874761D01*
X148248571Y-57922380D01*
X148153333Y-57922380D01*
X148010476Y-57874761D01*
X147915238Y-57779523D01*
X147867619Y-57684285D01*
X147820000Y-57493809D01*
X147820000Y-57350952D01*
X147867619Y-57160476D01*
X147915238Y-57065238D01*
X148010476Y-56970000D01*
X148153333Y-56922380D01*
X148248571Y-56922380D01*
X148391428Y-56970000D01*
X148439047Y-57017619D01*
G04 #@! TO.C,J3*
X184666666Y-87782380D02*
X184666666Y-88496666D01*
X184619047Y-88639523D01*
X184523809Y-88734761D01*
X184380952Y-88782380D01*
X184285714Y-88782380D01*
X185047619Y-87782380D02*
X185666666Y-87782380D01*
X185333333Y-88163333D01*
X185476190Y-88163333D01*
X185571428Y-88210952D01*
X185619047Y-88258571D01*
X185666666Y-88353809D01*
X185666666Y-88591904D01*
X185619047Y-88687142D01*
X185571428Y-88734761D01*
X185476190Y-88782380D01*
X185190476Y-88782380D01*
X185095238Y-88734761D01*
X185047619Y-88687142D01*
G04 #@! TO.C,J2*
X189666666Y-92782380D02*
X189666666Y-93496666D01*
X189619047Y-93639523D01*
X189523809Y-93734761D01*
X189380952Y-93782380D01*
X189285714Y-93782380D01*
X190095238Y-92877619D02*
X190142857Y-92830000D01*
X190238095Y-92782380D01*
X190476190Y-92782380D01*
X190571428Y-92830000D01*
X190619047Y-92877619D01*
X190666666Y-92972857D01*
X190666666Y-93068095D01*
X190619047Y-93210952D01*
X190047619Y-93782380D01*
X190666666Y-93782380D01*
G04 #@! TO.C,U5*
X169124380Y-78805904D02*
X169933904Y-78805904D01*
X170029142Y-78758285D01*
X170076761Y-78710666D01*
X170124380Y-78615428D01*
X170124380Y-78424952D01*
X170076761Y-78329714D01*
X170029142Y-78282095D01*
X169933904Y-78234476D01*
X169124380Y-78234476D01*
X169124380Y-77282095D02*
X169124380Y-77758285D01*
X169600571Y-77805904D01*
X169552952Y-77758285D01*
X169505333Y-77663047D01*
X169505333Y-77424952D01*
X169552952Y-77329714D01*
X169600571Y-77282095D01*
X169695809Y-77234476D01*
X169933904Y-77234476D01*
X170029142Y-77282095D01*
X170076761Y-77329714D01*
X170124380Y-77424952D01*
X170124380Y-77663047D01*
X170076761Y-77758285D01*
X170029142Y-77805904D01*
G04 #@! TO.C,JP6*
X170902380Y-76083333D02*
X171616666Y-76083333D01*
X171759523Y-76130952D01*
X171854761Y-76226190D01*
X171902380Y-76369047D01*
X171902380Y-76464285D01*
X171902380Y-75607142D02*
X170902380Y-75607142D01*
X170902380Y-75226190D01*
X170950000Y-75130952D01*
X170997619Y-75083333D01*
X171092857Y-75035714D01*
X171235714Y-75035714D01*
X171330952Y-75083333D01*
X171378571Y-75130952D01*
X171426190Y-75226190D01*
X171426190Y-75607142D01*
X170902380Y-74178571D02*
X170902380Y-74369047D01*
X170950000Y-74464285D01*
X170997619Y-74511904D01*
X171140476Y-74607142D01*
X171330952Y-74654761D01*
X171711904Y-74654761D01*
X171807142Y-74607142D01*
X171854761Y-74559523D01*
X171902380Y-74464285D01*
X171902380Y-74273809D01*
X171854761Y-74178571D01*
X171807142Y-74130952D01*
X171711904Y-74083333D01*
X171473809Y-74083333D01*
X171378571Y-74130952D01*
X171330952Y-74178571D01*
X171283333Y-74273809D01*
X171283333Y-74464285D01*
X171330952Y-74559523D01*
X171378571Y-74607142D01*
X171473809Y-74654761D01*
G04 #@! TO.C,C9*
X156678333Y-72432142D02*
X156630714Y-72479761D01*
X156487857Y-72527380D01*
X156392619Y-72527380D01*
X156249761Y-72479761D01*
X156154523Y-72384523D01*
X156106904Y-72289285D01*
X156059285Y-72098809D01*
X156059285Y-71955952D01*
X156106904Y-71765476D01*
X156154523Y-71670238D01*
X156249761Y-71575000D01*
X156392619Y-71527380D01*
X156487857Y-71527380D01*
X156630714Y-71575000D01*
X156678333Y-71622619D01*
X157154523Y-72527380D02*
X157345000Y-72527380D01*
X157440238Y-72479761D01*
X157487857Y-72432142D01*
X157583095Y-72289285D01*
X157630714Y-72098809D01*
X157630714Y-71717857D01*
X157583095Y-71622619D01*
X157535476Y-71575000D01*
X157440238Y-71527380D01*
X157249761Y-71527380D01*
X157154523Y-71575000D01*
X157106904Y-71622619D01*
X157059285Y-71717857D01*
X157059285Y-71955952D01*
X157106904Y-72051190D01*
X157154523Y-72098809D01*
X157249761Y-72146428D01*
X157440238Y-72146428D01*
X157535476Y-72098809D01*
X157583095Y-72051190D01*
X157630714Y-71955952D01*
G04 #@! TO.C,CON1*
X98099714Y-56811142D02*
X98052095Y-56858761D01*
X97909238Y-56906380D01*
X97814000Y-56906380D01*
X97671142Y-56858761D01*
X97575904Y-56763523D01*
X97528285Y-56668285D01*
X97480666Y-56477809D01*
X97480666Y-56334952D01*
X97528285Y-56144476D01*
X97575904Y-56049238D01*
X97671142Y-55954000D01*
X97814000Y-55906380D01*
X97909238Y-55906380D01*
X98052095Y-55954000D01*
X98099714Y-56001619D01*
X98718761Y-55906380D02*
X98909238Y-55906380D01*
X99004476Y-55954000D01*
X99099714Y-56049238D01*
X99147333Y-56239714D01*
X99147333Y-56573047D01*
X99099714Y-56763523D01*
X99004476Y-56858761D01*
X98909238Y-56906380D01*
X98718761Y-56906380D01*
X98623523Y-56858761D01*
X98528285Y-56763523D01*
X98480666Y-56573047D01*
X98480666Y-56239714D01*
X98528285Y-56049238D01*
X98623523Y-55954000D01*
X98718761Y-55906380D01*
X99575904Y-56906380D02*
X99575904Y-55906380D01*
X100147333Y-56906380D01*
X100147333Y-55906380D01*
X101147333Y-56906380D02*
X100575904Y-56906380D01*
X100861619Y-56906380D02*
X100861619Y-55906380D01*
X100766380Y-56049238D01*
X100671142Y-56144476D01*
X100575904Y-56192095D01*
G04 #@! TO.C,SW1*
X157003904Y-93990380D02*
X156670571Y-93514190D01*
X156432476Y-93990380D02*
X156432476Y-92990380D01*
X156813428Y-92990380D01*
X156908666Y-93038000D01*
X156956285Y-93085619D01*
X157003904Y-93180857D01*
X157003904Y-93323714D01*
X156956285Y-93418952D01*
X156908666Y-93466571D01*
X156813428Y-93514190D01*
X156432476Y-93514190D01*
X157813428Y-93942761D02*
X157718190Y-93990380D01*
X157527714Y-93990380D01*
X157432476Y-93942761D01*
X157384857Y-93847523D01*
X157384857Y-93466571D01*
X157432476Y-93371333D01*
X157527714Y-93323714D01*
X157718190Y-93323714D01*
X157813428Y-93371333D01*
X157861047Y-93466571D01*
X157861047Y-93561809D01*
X157384857Y-93657047D01*
X158242000Y-93942761D02*
X158337238Y-93990380D01*
X158527714Y-93990380D01*
X158622952Y-93942761D01*
X158670571Y-93847523D01*
X158670571Y-93799904D01*
X158622952Y-93704666D01*
X158527714Y-93657047D01*
X158384857Y-93657047D01*
X158289619Y-93609428D01*
X158242000Y-93514190D01*
X158242000Y-93466571D01*
X158289619Y-93371333D01*
X158384857Y-93323714D01*
X158527714Y-93323714D01*
X158622952Y-93371333D01*
X159480095Y-93942761D02*
X159384857Y-93990380D01*
X159194380Y-93990380D01*
X159099142Y-93942761D01*
X159051523Y-93847523D01*
X159051523Y-93466571D01*
X159099142Y-93371333D01*
X159194380Y-93323714D01*
X159384857Y-93323714D01*
X159480095Y-93371333D01*
X159527714Y-93466571D01*
X159527714Y-93561809D01*
X159051523Y-93657047D01*
X159813428Y-93323714D02*
X160194380Y-93323714D01*
X159956285Y-92990380D02*
X159956285Y-93847523D01*
X160003904Y-93942761D01*
X160099142Y-93990380D01*
X160194380Y-93990380D01*
X156916666Y-88376761D02*
X157059523Y-88424380D01*
X157297619Y-88424380D01*
X157392857Y-88376761D01*
X157440476Y-88329142D01*
X157488095Y-88233904D01*
X157488095Y-88138666D01*
X157440476Y-88043428D01*
X157392857Y-87995809D01*
X157297619Y-87948190D01*
X157107142Y-87900571D01*
X157011904Y-87852952D01*
X156964285Y-87805333D01*
X156916666Y-87710095D01*
X156916666Y-87614857D01*
X156964285Y-87519619D01*
X157011904Y-87472000D01*
X157107142Y-87424380D01*
X157345238Y-87424380D01*
X157488095Y-87472000D01*
X157821428Y-87424380D02*
X158059523Y-88424380D01*
X158250000Y-87710095D01*
X158440476Y-88424380D01*
X158678571Y-87424380D01*
X159583333Y-88424380D02*
X159011904Y-88424380D01*
X159297619Y-88424380D02*
X159297619Y-87424380D01*
X159202380Y-87567238D01*
X159107142Y-87662476D01*
X159011904Y-87710095D01*
G04 #@! TO.C,C6*
X109815333Y-65447142D02*
X109767714Y-65494761D01*
X109624857Y-65542380D01*
X109529619Y-65542380D01*
X109386761Y-65494761D01*
X109291523Y-65399523D01*
X109243904Y-65304285D01*
X109196285Y-65113809D01*
X109196285Y-64970952D01*
X109243904Y-64780476D01*
X109291523Y-64685238D01*
X109386761Y-64590000D01*
X109529619Y-64542380D01*
X109624857Y-64542380D01*
X109767714Y-64590000D01*
X109815333Y-64637619D01*
X110672476Y-64542380D02*
X110482000Y-64542380D01*
X110386761Y-64590000D01*
X110339142Y-64637619D01*
X110243904Y-64780476D01*
X110196285Y-64970952D01*
X110196285Y-65351904D01*
X110243904Y-65447142D01*
X110291523Y-65494761D01*
X110386761Y-65542380D01*
X110577238Y-65542380D01*
X110672476Y-65494761D01*
X110720095Y-65447142D01*
X110767714Y-65351904D01*
X110767714Y-65113809D01*
X110720095Y-65018571D01*
X110672476Y-64970952D01*
X110577238Y-64923333D01*
X110386761Y-64923333D01*
X110291523Y-64970952D01*
X110243904Y-65018571D01*
X110196285Y-65113809D01*
G04 #@! TO.C,C4*
X130516333Y-59097142D02*
X130468714Y-59144761D01*
X130325857Y-59192380D01*
X130230619Y-59192380D01*
X130087761Y-59144761D01*
X129992523Y-59049523D01*
X129944904Y-58954285D01*
X129897285Y-58763809D01*
X129897285Y-58620952D01*
X129944904Y-58430476D01*
X129992523Y-58335238D01*
X130087761Y-58240000D01*
X130230619Y-58192380D01*
X130325857Y-58192380D01*
X130468714Y-58240000D01*
X130516333Y-58287619D01*
X131373476Y-58525714D02*
X131373476Y-59192380D01*
X131135380Y-58144761D02*
X130897285Y-58859047D01*
X131516333Y-58859047D01*
G04 #@! TO.C,C5*
X109815333Y-59605142D02*
X109767714Y-59652761D01*
X109624857Y-59700380D01*
X109529619Y-59700380D01*
X109386761Y-59652761D01*
X109291523Y-59557523D01*
X109243904Y-59462285D01*
X109196285Y-59271809D01*
X109196285Y-59128952D01*
X109243904Y-58938476D01*
X109291523Y-58843238D01*
X109386761Y-58748000D01*
X109529619Y-58700380D01*
X109624857Y-58700380D01*
X109767714Y-58748000D01*
X109815333Y-58795619D01*
X110720095Y-58700380D02*
X110243904Y-58700380D01*
X110196285Y-59176571D01*
X110243904Y-59128952D01*
X110339142Y-59081333D01*
X110577238Y-59081333D01*
X110672476Y-59128952D01*
X110720095Y-59176571D01*
X110767714Y-59271809D01*
X110767714Y-59509904D01*
X110720095Y-59605142D01*
X110672476Y-59652761D01*
X110577238Y-59700380D01*
X110339142Y-59700380D01*
X110243904Y-59652761D01*
X110196285Y-59605142D01*
G04 #@! TO.C,C8*
X164933333Y-130687142D02*
X164885714Y-130734761D01*
X164742857Y-130782380D01*
X164647619Y-130782380D01*
X164504761Y-130734761D01*
X164409523Y-130639523D01*
X164361904Y-130544285D01*
X164314285Y-130353809D01*
X164314285Y-130210952D01*
X164361904Y-130020476D01*
X164409523Y-129925238D01*
X164504761Y-129830000D01*
X164647619Y-129782380D01*
X164742857Y-129782380D01*
X164885714Y-129830000D01*
X164933333Y-129877619D01*
X165504761Y-130210952D02*
X165409523Y-130163333D01*
X165361904Y-130115714D01*
X165314285Y-130020476D01*
X165314285Y-129972857D01*
X165361904Y-129877619D01*
X165409523Y-129830000D01*
X165504761Y-129782380D01*
X165695238Y-129782380D01*
X165790476Y-129830000D01*
X165838095Y-129877619D01*
X165885714Y-129972857D01*
X165885714Y-130020476D01*
X165838095Y-130115714D01*
X165790476Y-130163333D01*
X165695238Y-130210952D01*
X165504761Y-130210952D01*
X165409523Y-130258571D01*
X165361904Y-130306190D01*
X165314285Y-130401428D01*
X165314285Y-130591904D01*
X165361904Y-130687142D01*
X165409523Y-130734761D01*
X165504761Y-130782380D01*
X165695238Y-130782380D01*
X165790476Y-130734761D01*
X165838095Y-130687142D01*
X165885714Y-130591904D01*
X165885714Y-130401428D01*
X165838095Y-130306190D01*
X165790476Y-130258571D01*
X165695238Y-130210952D01*
G04 #@! TO.C,JP10*
X158202380Y-126559523D02*
X158916666Y-126559523D01*
X159059523Y-126607142D01*
X159154761Y-126702380D01*
X159202380Y-126845238D01*
X159202380Y-126940476D01*
X159202380Y-126083333D02*
X158202380Y-126083333D01*
X158202380Y-125702380D01*
X158250000Y-125607142D01*
X158297619Y-125559523D01*
X158392857Y-125511904D01*
X158535714Y-125511904D01*
X158630952Y-125559523D01*
X158678571Y-125607142D01*
X158726190Y-125702380D01*
X158726190Y-126083333D01*
X159202380Y-124559523D02*
X159202380Y-125130952D01*
X159202380Y-124845238D02*
X158202380Y-124845238D01*
X158345238Y-124940476D01*
X158440476Y-125035714D01*
X158488095Y-125130952D01*
X158202380Y-123940476D02*
X158202380Y-123845238D01*
X158250000Y-123750000D01*
X158297619Y-123702380D01*
X158392857Y-123654761D01*
X158583333Y-123607142D01*
X158821428Y-123607142D01*
X159011904Y-123654761D01*
X159107142Y-123702380D01*
X159154761Y-123750000D01*
X159202380Y-123845238D01*
X159202380Y-123940476D01*
X159154761Y-124035714D01*
X159107142Y-124083333D01*
X159011904Y-124130952D01*
X158821428Y-124178571D01*
X158583333Y-124178571D01*
X158392857Y-124130952D01*
X158297619Y-124083333D01*
X158250000Y-124035714D01*
X158202380Y-123940476D01*
G04 #@! TO.C,C2*
X136358333Y-97032142D02*
X136310714Y-97079761D01*
X136167857Y-97127380D01*
X136072619Y-97127380D01*
X135929761Y-97079761D01*
X135834523Y-96984523D01*
X135786904Y-96889285D01*
X135739285Y-96698809D01*
X135739285Y-96555952D01*
X135786904Y-96365476D01*
X135834523Y-96270238D01*
X135929761Y-96175000D01*
X136072619Y-96127380D01*
X136167857Y-96127380D01*
X136310714Y-96175000D01*
X136358333Y-96222619D01*
X136739285Y-96222619D02*
X136786904Y-96175000D01*
X136882142Y-96127380D01*
X137120238Y-96127380D01*
X137215476Y-96175000D01*
X137263095Y-96222619D01*
X137310714Y-96317857D01*
X137310714Y-96413095D01*
X137263095Y-96555952D01*
X136691666Y-97127380D01*
X137310714Y-97127380D01*
G04 #@! TO.C,C7*
X135723333Y-116463142D02*
X135675714Y-116510761D01*
X135532857Y-116558380D01*
X135437619Y-116558380D01*
X135294761Y-116510761D01*
X135199523Y-116415523D01*
X135151904Y-116320285D01*
X135104285Y-116129809D01*
X135104285Y-115986952D01*
X135151904Y-115796476D01*
X135199523Y-115701238D01*
X135294761Y-115606000D01*
X135437619Y-115558380D01*
X135532857Y-115558380D01*
X135675714Y-115606000D01*
X135723333Y-115653619D01*
X136056666Y-115558380D02*
X136723333Y-115558380D01*
X136294761Y-116558380D01*
G04 #@! TO.C,C6*
X109815333Y-115447142D02*
X109767714Y-115494761D01*
X109624857Y-115542380D01*
X109529619Y-115542380D01*
X109386761Y-115494761D01*
X109291523Y-115399523D01*
X109243904Y-115304285D01*
X109196285Y-115113809D01*
X109196285Y-114970952D01*
X109243904Y-114780476D01*
X109291523Y-114685238D01*
X109386761Y-114590000D01*
X109529619Y-114542380D01*
X109624857Y-114542380D01*
X109767714Y-114590000D01*
X109815333Y-114637619D01*
X110672476Y-114542380D02*
X110482000Y-114542380D01*
X110386761Y-114590000D01*
X110339142Y-114637619D01*
X110243904Y-114780476D01*
X110196285Y-114970952D01*
X110196285Y-115351904D01*
X110243904Y-115447142D01*
X110291523Y-115494761D01*
X110386761Y-115542380D01*
X110577238Y-115542380D01*
X110672476Y-115494761D01*
X110720095Y-115447142D01*
X110767714Y-115351904D01*
X110767714Y-115113809D01*
X110720095Y-115018571D01*
X110672476Y-114970952D01*
X110577238Y-114923333D01*
X110386761Y-114923333D01*
X110291523Y-114970952D01*
X110243904Y-115018571D01*
X110196285Y-115113809D01*
G04 #@! TO.C,C4*
X130516333Y-109097142D02*
X130468714Y-109144761D01*
X130325857Y-109192380D01*
X130230619Y-109192380D01*
X130087761Y-109144761D01*
X129992523Y-109049523D01*
X129944904Y-108954285D01*
X129897285Y-108763809D01*
X129897285Y-108620952D01*
X129944904Y-108430476D01*
X129992523Y-108335238D01*
X130087761Y-108240000D01*
X130230619Y-108192380D01*
X130325857Y-108192380D01*
X130468714Y-108240000D01*
X130516333Y-108287619D01*
X131373476Y-108525714D02*
X131373476Y-109192380D01*
X131135380Y-108144761D02*
X130897285Y-108859047D01*
X131516333Y-108859047D01*
G04 #@! TO.C,C5*
X109815333Y-109605142D02*
X109767714Y-109652761D01*
X109624857Y-109700380D01*
X109529619Y-109700380D01*
X109386761Y-109652761D01*
X109291523Y-109557523D01*
X109243904Y-109462285D01*
X109196285Y-109271809D01*
X109196285Y-109128952D01*
X109243904Y-108938476D01*
X109291523Y-108843238D01*
X109386761Y-108748000D01*
X109529619Y-108700380D01*
X109624857Y-108700380D01*
X109767714Y-108748000D01*
X109815333Y-108795619D01*
X110720095Y-108700380D02*
X110243904Y-108700380D01*
X110196285Y-109176571D01*
X110243904Y-109128952D01*
X110339142Y-109081333D01*
X110577238Y-109081333D01*
X110672476Y-109128952D01*
X110720095Y-109176571D01*
X110767714Y-109271809D01*
X110767714Y-109509904D01*
X110720095Y-109605142D01*
X110672476Y-109652761D01*
X110577238Y-109700380D01*
X110339142Y-109700380D01*
X110243904Y-109652761D01*
X110196285Y-109605142D01*
G04 #@! TO.C,R6*
X156027380Y-120336666D02*
X155551190Y-120670000D01*
X156027380Y-120908095D02*
X155027380Y-120908095D01*
X155027380Y-120527142D01*
X155075000Y-120431904D01*
X155122619Y-120384285D01*
X155217857Y-120336666D01*
X155360714Y-120336666D01*
X155455952Y-120384285D01*
X155503571Y-120431904D01*
X155551190Y-120527142D01*
X155551190Y-120908095D01*
X155027380Y-119479523D02*
X155027380Y-119670000D01*
X155075000Y-119765238D01*
X155122619Y-119812857D01*
X155265476Y-119908095D01*
X155455952Y-119955714D01*
X155836904Y-119955714D01*
X155932142Y-119908095D01*
X155979761Y-119860476D01*
X156027380Y-119765238D01*
X156027380Y-119574761D01*
X155979761Y-119479523D01*
X155932142Y-119431904D01*
X155836904Y-119384285D01*
X155598809Y-119384285D01*
X155503571Y-119431904D01*
X155455952Y-119479523D01*
X155408333Y-119574761D01*
X155408333Y-119765238D01*
X155455952Y-119860476D01*
X155503571Y-119908095D01*
X155598809Y-119955714D01*
G04 #@! TO.C,R7*
X178252380Y-120336666D02*
X177776190Y-120670000D01*
X178252380Y-120908095D02*
X177252380Y-120908095D01*
X177252380Y-120527142D01*
X177300000Y-120431904D01*
X177347619Y-120384285D01*
X177442857Y-120336666D01*
X177585714Y-120336666D01*
X177680952Y-120384285D01*
X177728571Y-120431904D01*
X177776190Y-120527142D01*
X177776190Y-120908095D01*
X177252380Y-120003333D02*
X177252380Y-119336666D01*
X178252380Y-119765238D01*
G04 #@! TO.C,U2*
X166238095Y-116447380D02*
X166238095Y-117256904D01*
X166285714Y-117352142D01*
X166333333Y-117399761D01*
X166428571Y-117447380D01*
X166619047Y-117447380D01*
X166714285Y-117399761D01*
X166761904Y-117352142D01*
X166809523Y-117256904D01*
X166809523Y-116447380D01*
X167238095Y-116542619D02*
X167285714Y-116495000D01*
X167380952Y-116447380D01*
X167619047Y-116447380D01*
X167714285Y-116495000D01*
X167761904Y-116542619D01*
X167809523Y-116637857D01*
X167809523Y-116733095D01*
X167761904Y-116875952D01*
X167190476Y-117447380D01*
X167809523Y-117447380D01*
X161904761Y-118522571D02*
X162238095Y-118522571D01*
X162380952Y-119046380D02*
X161904761Y-119046380D01*
X161904761Y-118046380D01*
X162380952Y-118046380D01*
X162761904Y-118998761D02*
X162904761Y-119046380D01*
X163142857Y-119046380D01*
X163238095Y-118998761D01*
X163285714Y-118951142D01*
X163333333Y-118855904D01*
X163333333Y-118760666D01*
X163285714Y-118665428D01*
X163238095Y-118617809D01*
X163142857Y-118570190D01*
X162952380Y-118522571D01*
X162857142Y-118474952D01*
X162809523Y-118427333D01*
X162761904Y-118332095D01*
X162761904Y-118236857D01*
X162809523Y-118141619D01*
X162857142Y-118094000D01*
X162952380Y-118046380D01*
X163190476Y-118046380D01*
X163333333Y-118094000D01*
X163761904Y-119046380D02*
X163761904Y-118046380D01*
X164142857Y-118046380D01*
X164238095Y-118094000D01*
X164285714Y-118141619D01*
X164333333Y-118236857D01*
X164333333Y-118379714D01*
X164285714Y-118474952D01*
X164238095Y-118522571D01*
X164142857Y-118570190D01*
X163761904Y-118570190D01*
X164904761Y-118474952D02*
X164809523Y-118427333D01*
X164761904Y-118379714D01*
X164714285Y-118284476D01*
X164714285Y-118236857D01*
X164761904Y-118141619D01*
X164809523Y-118094000D01*
X164904761Y-118046380D01*
X165095238Y-118046380D01*
X165190476Y-118094000D01*
X165238095Y-118141619D01*
X165285714Y-118236857D01*
X165285714Y-118284476D01*
X165238095Y-118379714D01*
X165190476Y-118427333D01*
X165095238Y-118474952D01*
X164904761Y-118474952D01*
X164809523Y-118522571D01*
X164761904Y-118570190D01*
X164714285Y-118665428D01*
X164714285Y-118855904D01*
X164761904Y-118951142D01*
X164809523Y-118998761D01*
X164904761Y-119046380D01*
X165095238Y-119046380D01*
X165190476Y-118998761D01*
X165238095Y-118951142D01*
X165285714Y-118855904D01*
X165285714Y-118665428D01*
X165238095Y-118570190D01*
X165190476Y-118522571D01*
X165095238Y-118474952D01*
X165666666Y-118141619D02*
X165714285Y-118094000D01*
X165809523Y-118046380D01*
X166047619Y-118046380D01*
X166142857Y-118094000D01*
X166190476Y-118141619D01*
X166238095Y-118236857D01*
X166238095Y-118332095D01*
X166190476Y-118474952D01*
X165619047Y-119046380D01*
X166238095Y-119046380D01*
X167095238Y-118046380D02*
X166904761Y-118046380D01*
X166809523Y-118094000D01*
X166761904Y-118141619D01*
X166666666Y-118284476D01*
X166619047Y-118474952D01*
X166619047Y-118855904D01*
X166666666Y-118951142D01*
X166714285Y-118998761D01*
X166809523Y-119046380D01*
X167000000Y-119046380D01*
X167095238Y-118998761D01*
X167142857Y-118951142D01*
X167190476Y-118855904D01*
X167190476Y-118617809D01*
X167142857Y-118522571D01*
X167095238Y-118474952D01*
X167000000Y-118427333D01*
X166809523Y-118427333D01*
X166714285Y-118474952D01*
X166666666Y-118522571D01*
X166619047Y-118617809D01*
X168047619Y-118046380D02*
X167857142Y-118046380D01*
X167761904Y-118094000D01*
X167714285Y-118141619D01*
X167619047Y-118284476D01*
X167571428Y-118474952D01*
X167571428Y-118855904D01*
X167619047Y-118951142D01*
X167666666Y-118998761D01*
X167761904Y-119046380D01*
X167952380Y-119046380D01*
X168047619Y-118998761D01*
X168095238Y-118951142D01*
X168142857Y-118855904D01*
X168142857Y-118617809D01*
X168095238Y-118522571D01*
X168047619Y-118474952D01*
X167952380Y-118427333D01*
X167761904Y-118427333D01*
X167666666Y-118474952D01*
X167619047Y-118522571D01*
X167571428Y-118617809D01*
X168571428Y-118665428D02*
X169333333Y-118665428D01*
X170333333Y-119046380D02*
X169761904Y-119046380D01*
X170047619Y-119046380D02*
X170047619Y-118046380D01*
X169952380Y-118189238D01*
X169857142Y-118284476D01*
X169761904Y-118332095D01*
X170714285Y-118141619D02*
X170761904Y-118094000D01*
X170857142Y-118046380D01*
X171095238Y-118046380D01*
X171190476Y-118094000D01*
X171238095Y-118141619D01*
X171285714Y-118236857D01*
X171285714Y-118332095D01*
X171238095Y-118474952D01*
X170666666Y-119046380D01*
X171285714Y-119046380D01*
X172047619Y-118522571D02*
X171714285Y-118522571D01*
X171714285Y-119046380D02*
X171714285Y-118046380D01*
X172190476Y-118046380D01*
G04 #@! TO.C,JP1*
X94670666Y-117590380D02*
X94670666Y-118304666D01*
X94623047Y-118447523D01*
X94527809Y-118542761D01*
X94384952Y-118590380D01*
X94289714Y-118590380D01*
X95146857Y-118590380D02*
X95146857Y-117590380D01*
X95527809Y-117590380D01*
X95623047Y-117638000D01*
X95670666Y-117685619D01*
X95718285Y-117780857D01*
X95718285Y-117923714D01*
X95670666Y-118018952D01*
X95623047Y-118066571D01*
X95527809Y-118114190D01*
X95146857Y-118114190D01*
X96670666Y-118590380D02*
X96099238Y-118590380D01*
X96384952Y-118590380D02*
X96384952Y-117590380D01*
X96289714Y-117733238D01*
X96194476Y-117828476D01*
X96099238Y-117876095D01*
G04 #@! TO.C,SW1*
X157003904Y-143990380D02*
X156670571Y-143514190D01*
X156432476Y-143990380D02*
X156432476Y-142990380D01*
X156813428Y-142990380D01*
X156908666Y-143038000D01*
X156956285Y-143085619D01*
X157003904Y-143180857D01*
X157003904Y-143323714D01*
X156956285Y-143418952D01*
X156908666Y-143466571D01*
X156813428Y-143514190D01*
X156432476Y-143514190D01*
X157813428Y-143942761D02*
X157718190Y-143990380D01*
X157527714Y-143990380D01*
X157432476Y-143942761D01*
X157384857Y-143847523D01*
X157384857Y-143466571D01*
X157432476Y-143371333D01*
X157527714Y-143323714D01*
X157718190Y-143323714D01*
X157813428Y-143371333D01*
X157861047Y-143466571D01*
X157861047Y-143561809D01*
X157384857Y-143657047D01*
X158242000Y-143942761D02*
X158337238Y-143990380D01*
X158527714Y-143990380D01*
X158622952Y-143942761D01*
X158670571Y-143847523D01*
X158670571Y-143799904D01*
X158622952Y-143704666D01*
X158527714Y-143657047D01*
X158384857Y-143657047D01*
X158289619Y-143609428D01*
X158242000Y-143514190D01*
X158242000Y-143466571D01*
X158289619Y-143371333D01*
X158384857Y-143323714D01*
X158527714Y-143323714D01*
X158622952Y-143371333D01*
X159480095Y-143942761D02*
X159384857Y-143990380D01*
X159194380Y-143990380D01*
X159099142Y-143942761D01*
X159051523Y-143847523D01*
X159051523Y-143466571D01*
X159099142Y-143371333D01*
X159194380Y-143323714D01*
X159384857Y-143323714D01*
X159480095Y-143371333D01*
X159527714Y-143466571D01*
X159527714Y-143561809D01*
X159051523Y-143657047D01*
X159813428Y-143323714D02*
X160194380Y-143323714D01*
X159956285Y-142990380D02*
X159956285Y-143847523D01*
X160003904Y-143942761D01*
X160099142Y-143990380D01*
X160194380Y-143990380D01*
X156916666Y-138376761D02*
X157059523Y-138424380D01*
X157297619Y-138424380D01*
X157392857Y-138376761D01*
X157440476Y-138329142D01*
X157488095Y-138233904D01*
X157488095Y-138138666D01*
X157440476Y-138043428D01*
X157392857Y-137995809D01*
X157297619Y-137948190D01*
X157107142Y-137900571D01*
X157011904Y-137852952D01*
X156964285Y-137805333D01*
X156916666Y-137710095D01*
X156916666Y-137614857D01*
X156964285Y-137519619D01*
X157011904Y-137472000D01*
X157107142Y-137424380D01*
X157345238Y-137424380D01*
X157488095Y-137472000D01*
X157821428Y-137424380D02*
X158059523Y-138424380D01*
X158250000Y-137710095D01*
X158440476Y-138424380D01*
X158678571Y-137424380D01*
X159583333Y-138424380D02*
X159011904Y-138424380D01*
X159297619Y-138424380D02*
X159297619Y-137424380D01*
X159202380Y-137567238D01*
X159107142Y-137662476D01*
X159011904Y-137710095D01*
G04 #@! TO.C,P1*
X176553904Y-100937380D02*
X176553904Y-99937380D01*
X176934857Y-99937380D01*
X177030095Y-99985000D01*
X177077714Y-100032619D01*
X177125333Y-100127857D01*
X177125333Y-100270714D01*
X177077714Y-100365952D01*
X177030095Y-100413571D01*
X176934857Y-100461190D01*
X176553904Y-100461190D01*
X178077714Y-100937380D02*
X177506285Y-100937380D01*
X177792000Y-100937380D02*
X177792000Y-99937380D01*
X177696761Y-100080238D01*
X177601523Y-100175476D01*
X177506285Y-100223095D01*
G04 #@! TO.C,Q5*
X148238546Y-132420619D02*
X148143308Y-132373000D01*
X148048070Y-132277761D01*
X147905213Y-132134904D01*
X147809975Y-132087285D01*
X147714737Y-132087285D01*
X147762356Y-132325380D02*
X147667118Y-132277761D01*
X147571880Y-132182523D01*
X147524261Y-131992047D01*
X147524261Y-131658714D01*
X147571880Y-131468238D01*
X147667118Y-131373000D01*
X147762356Y-131325380D01*
X147952832Y-131325380D01*
X148048070Y-131373000D01*
X148143308Y-131468238D01*
X148190927Y-131658714D01*
X148190927Y-131992047D01*
X148143308Y-132182523D01*
X148048070Y-132277761D01*
X147952832Y-132325380D01*
X147762356Y-132325380D01*
X149095689Y-131325380D02*
X148619499Y-131325380D01*
X148571880Y-131801571D01*
X148619499Y-131753952D01*
X148714737Y-131706333D01*
X148952832Y-131706333D01*
X149048070Y-131753952D01*
X149095689Y-131801571D01*
X149143308Y-131896809D01*
X149143308Y-132134904D01*
X149095689Y-132230142D01*
X149048070Y-132277761D01*
X148952832Y-132325380D01*
X148714737Y-132325380D01*
X148619499Y-132277761D01*
X148571880Y-132230142D01*
X145476642Y-130325380D02*
X145476642Y-129325380D01*
X146524261Y-130325380D02*
X146190927Y-129849190D01*
X145952832Y-130325380D02*
X145952832Y-129325380D01*
X146333785Y-129325380D01*
X146429023Y-129373000D01*
X146476642Y-129420619D01*
X146524261Y-129515857D01*
X146524261Y-129658714D01*
X146476642Y-129753952D01*
X146429023Y-129801571D01*
X146333785Y-129849190D01*
X145952832Y-129849190D01*
X147429023Y-130325380D02*
X146952832Y-130325380D01*
X146952832Y-129325380D01*
X147667118Y-129325380D02*
X148333785Y-129325380D01*
X147667118Y-130325380D01*
X148333785Y-130325380D01*
X148619499Y-129325380D02*
X149238546Y-129325380D01*
X148905213Y-129706333D01*
X149048070Y-129706333D01*
X149143308Y-129753952D01*
X149190927Y-129801571D01*
X149238546Y-129896809D01*
X149238546Y-130134904D01*
X149190927Y-130230142D01*
X149143308Y-130277761D01*
X149048070Y-130325380D01*
X148762356Y-130325380D01*
X148667118Y-130277761D01*
X148619499Y-130230142D01*
X150095689Y-129658714D02*
X150095689Y-130325380D01*
X149857594Y-129277761D02*
X149619499Y-129992047D01*
X150238546Y-129992047D01*
X150619499Y-130325380D02*
X150619499Y-129325380D01*
X151190927Y-130325380D01*
X151190927Y-129325380D01*
G04 #@! TO.C,JP5*
X144454666Y-117590380D02*
X144454666Y-118304666D01*
X144407047Y-118447523D01*
X144311809Y-118542761D01*
X144168952Y-118590380D01*
X144073714Y-118590380D01*
X144930857Y-118590380D02*
X144930857Y-117590380D01*
X145311809Y-117590380D01*
X145407047Y-117638000D01*
X145454666Y-117685619D01*
X145502285Y-117780857D01*
X145502285Y-117923714D01*
X145454666Y-118018952D01*
X145407047Y-118066571D01*
X145311809Y-118114190D01*
X144930857Y-118114190D01*
X146407047Y-117590380D02*
X145930857Y-117590380D01*
X145883238Y-118066571D01*
X145930857Y-118018952D01*
X146026095Y-117971333D01*
X146264190Y-117971333D01*
X146359428Y-118018952D01*
X146407047Y-118066571D01*
X146454666Y-118161809D01*
X146454666Y-118399904D01*
X146407047Y-118495142D01*
X146359428Y-118542761D01*
X146264190Y-118590380D01*
X146026095Y-118590380D01*
X145930857Y-118542761D01*
X145883238Y-118495142D01*
G04 #@! TO.C,SW2*
X164481238Y-143990380D02*
X164481238Y-142990380D01*
X164862190Y-142990380D01*
X164957428Y-143038000D01*
X165005047Y-143085619D01*
X165052666Y-143180857D01*
X165052666Y-143323714D01*
X165005047Y-143418952D01*
X164957428Y-143466571D01*
X164862190Y-143514190D01*
X164481238Y-143514190D01*
X165481238Y-143990380D02*
X165481238Y-143323714D01*
X165481238Y-143514190D02*
X165528857Y-143418952D01*
X165576476Y-143371333D01*
X165671714Y-143323714D01*
X165766952Y-143323714D01*
X166243142Y-143990380D02*
X166147904Y-143942761D01*
X166100285Y-143895142D01*
X166052666Y-143799904D01*
X166052666Y-143514190D01*
X166100285Y-143418952D01*
X166147904Y-143371333D01*
X166243142Y-143323714D01*
X166386000Y-143323714D01*
X166481238Y-143371333D01*
X166528857Y-143418952D01*
X166576476Y-143514190D01*
X166576476Y-143799904D01*
X166528857Y-143895142D01*
X166481238Y-143942761D01*
X166386000Y-143990380D01*
X166243142Y-143990380D01*
X167433619Y-143323714D02*
X167433619Y-144133238D01*
X167386000Y-144228476D01*
X167338380Y-144276095D01*
X167243142Y-144323714D01*
X167100285Y-144323714D01*
X167005047Y-144276095D01*
X167433619Y-143942761D02*
X167338380Y-143990380D01*
X167147904Y-143990380D01*
X167052666Y-143942761D01*
X167005047Y-143895142D01*
X166957428Y-143799904D01*
X166957428Y-143514190D01*
X167005047Y-143418952D01*
X167052666Y-143371333D01*
X167147904Y-143323714D01*
X167338380Y-143323714D01*
X167433619Y-143371333D01*
X167909809Y-143990380D02*
X167909809Y-143323714D01*
X167909809Y-143514190D02*
X167957428Y-143418952D01*
X168005047Y-143371333D01*
X168100285Y-143323714D01*
X168195523Y-143323714D01*
X168957428Y-143990380D02*
X168957428Y-143466571D01*
X168909809Y-143371333D01*
X168814571Y-143323714D01*
X168624095Y-143323714D01*
X168528857Y-143371333D01*
X168957428Y-143942761D02*
X168862190Y-143990380D01*
X168624095Y-143990380D01*
X168528857Y-143942761D01*
X168481238Y-143847523D01*
X168481238Y-143752285D01*
X168528857Y-143657047D01*
X168624095Y-143609428D01*
X168862190Y-143609428D01*
X168957428Y-143561809D01*
X169433619Y-143990380D02*
X169433619Y-143323714D01*
X169433619Y-143418952D02*
X169481238Y-143371333D01*
X169576476Y-143323714D01*
X169719333Y-143323714D01*
X169814571Y-143371333D01*
X169862190Y-143466571D01*
X169862190Y-143990380D01*
X169862190Y-143466571D02*
X169909809Y-143371333D01*
X170005047Y-143323714D01*
X170147904Y-143323714D01*
X170243142Y-143371333D01*
X170290761Y-143466571D01*
X170290761Y-143990380D01*
X165916666Y-138376761D02*
X166059523Y-138424380D01*
X166297619Y-138424380D01*
X166392857Y-138376761D01*
X166440476Y-138329142D01*
X166488095Y-138233904D01*
X166488095Y-138138666D01*
X166440476Y-138043428D01*
X166392857Y-137995809D01*
X166297619Y-137948190D01*
X166107142Y-137900571D01*
X166011904Y-137852952D01*
X165964285Y-137805333D01*
X165916666Y-137710095D01*
X165916666Y-137614857D01*
X165964285Y-137519619D01*
X166011904Y-137472000D01*
X166107142Y-137424380D01*
X166345238Y-137424380D01*
X166488095Y-137472000D01*
X166821428Y-137424380D02*
X167059523Y-138424380D01*
X167250000Y-137710095D01*
X167440476Y-138424380D01*
X167678571Y-137424380D01*
X168011904Y-137519619D02*
X168059523Y-137472000D01*
X168154761Y-137424380D01*
X168392857Y-137424380D01*
X168488095Y-137472000D01*
X168535714Y-137519619D01*
X168583333Y-137614857D01*
X168583333Y-137710095D01*
X168535714Y-137852952D01*
X167964285Y-138424380D01*
X168583333Y-138424380D01*
G04 #@! TO.C,R4*
X138263333Y-118844380D02*
X137930000Y-118368190D01*
X137691904Y-118844380D02*
X137691904Y-117844380D01*
X138072857Y-117844380D01*
X138168095Y-117892000D01*
X138215714Y-117939619D01*
X138263333Y-118034857D01*
X138263333Y-118177714D01*
X138215714Y-118272952D01*
X138168095Y-118320571D01*
X138072857Y-118368190D01*
X137691904Y-118368190D01*
X139120476Y-118177714D02*
X139120476Y-118844380D01*
X138882380Y-117796761D02*
X138644285Y-118511047D01*
X139263333Y-118511047D01*
G04 #@! TO.C,R8*
X131532333Y-111097380D02*
X131199000Y-110621190D01*
X130960904Y-111097380D02*
X130960904Y-110097380D01*
X131341857Y-110097380D01*
X131437095Y-110145000D01*
X131484714Y-110192619D01*
X131532333Y-110287857D01*
X131532333Y-110430714D01*
X131484714Y-110525952D01*
X131437095Y-110573571D01*
X131341857Y-110621190D01*
X130960904Y-110621190D01*
X132103761Y-110525952D02*
X132008523Y-110478333D01*
X131960904Y-110430714D01*
X131913285Y-110335476D01*
X131913285Y-110287857D01*
X131960904Y-110192619D01*
X132008523Y-110145000D01*
X132103761Y-110097380D01*
X132294238Y-110097380D01*
X132389476Y-110145000D01*
X132437095Y-110192619D01*
X132484714Y-110287857D01*
X132484714Y-110335476D01*
X132437095Y-110430714D01*
X132389476Y-110478333D01*
X132294238Y-110525952D01*
X132103761Y-110525952D01*
X132008523Y-110573571D01*
X131960904Y-110621190D01*
X131913285Y-110716428D01*
X131913285Y-110906904D01*
X131960904Y-111002142D01*
X132008523Y-111049761D01*
X132103761Y-111097380D01*
X132294238Y-111097380D01*
X132389476Y-111049761D01*
X132437095Y-111002142D01*
X132484714Y-110906904D01*
X132484714Y-110716428D01*
X132437095Y-110621190D01*
X132389476Y-110573571D01*
X132294238Y-110525952D01*
G04 #@! TO.C,P2*
X176576904Y-110462380D02*
X176576904Y-109462380D01*
X176957857Y-109462380D01*
X177053095Y-109510000D01*
X177100714Y-109557619D01*
X177148333Y-109652857D01*
X177148333Y-109795714D01*
X177100714Y-109890952D01*
X177053095Y-109938571D01*
X176957857Y-109986190D01*
X176576904Y-109986190D01*
X177529285Y-109557619D02*
X177576904Y-109510000D01*
X177672142Y-109462380D01*
X177910238Y-109462380D01*
X178005476Y-109510000D01*
X178053095Y-109557619D01*
X178100714Y-109652857D01*
X178100714Y-109748095D01*
X178053095Y-109890952D01*
X177481666Y-110462380D01*
X178100714Y-110462380D01*
G04 #@! TO.C,Q4*
X135735357Y-132547619D02*
X135640119Y-132500000D01*
X135544881Y-132404761D01*
X135402024Y-132261904D01*
X135306786Y-132214285D01*
X135211548Y-132214285D01*
X135259167Y-132452380D02*
X135163929Y-132404761D01*
X135068691Y-132309523D01*
X135021072Y-132119047D01*
X135021072Y-131785714D01*
X135068691Y-131595238D01*
X135163929Y-131500000D01*
X135259167Y-131452380D01*
X135449643Y-131452380D01*
X135544881Y-131500000D01*
X135640119Y-131595238D01*
X135687738Y-131785714D01*
X135687738Y-132119047D01*
X135640119Y-132309523D01*
X135544881Y-132404761D01*
X135449643Y-132452380D01*
X135259167Y-132452380D01*
X136544881Y-131785714D02*
X136544881Y-132452380D01*
X136306786Y-131404761D02*
X136068691Y-132119047D01*
X136687738Y-132119047D01*
X133146043Y-130452380D02*
X133146043Y-129452380D01*
X134193662Y-130452380D02*
X133860328Y-129976190D01*
X133622233Y-130452380D02*
X133622233Y-129452380D01*
X134003186Y-129452380D01*
X134098424Y-129500000D01*
X134146043Y-129547619D01*
X134193662Y-129642857D01*
X134193662Y-129785714D01*
X134146043Y-129880952D01*
X134098424Y-129928571D01*
X134003186Y-129976190D01*
X133622233Y-129976190D01*
X135098424Y-130452380D02*
X134622233Y-130452380D01*
X134622233Y-129452380D01*
X135336519Y-129452380D02*
X136003186Y-129452380D01*
X135336519Y-130452380D01*
X136003186Y-130452380D01*
X136288900Y-129452380D02*
X136907947Y-129452380D01*
X136574614Y-129833333D01*
X136717471Y-129833333D01*
X136812709Y-129880952D01*
X136860328Y-129928571D01*
X136907947Y-130023809D01*
X136907947Y-130261904D01*
X136860328Y-130357142D01*
X136812709Y-130404761D01*
X136717471Y-130452380D01*
X136431757Y-130452380D01*
X136336519Y-130404761D01*
X136288900Y-130357142D01*
X137765090Y-129785714D02*
X137765090Y-130452380D01*
X137526995Y-129404761D02*
X137288900Y-130119047D01*
X137907947Y-130119047D01*
X138288900Y-130452380D02*
X138288900Y-129452380D01*
X138860328Y-130452380D01*
X138860328Y-129452380D01*
G04 #@! TO.C,R3*
X126325333Y-118336380D02*
X125992000Y-117860190D01*
X125753904Y-118336380D02*
X125753904Y-117336380D01*
X126134857Y-117336380D01*
X126230095Y-117384000D01*
X126277714Y-117431619D01*
X126325333Y-117526857D01*
X126325333Y-117669714D01*
X126277714Y-117764952D01*
X126230095Y-117812571D01*
X126134857Y-117860190D01*
X125753904Y-117860190D01*
X126658666Y-117336380D02*
X127277714Y-117336380D01*
X126944380Y-117717333D01*
X127087238Y-117717333D01*
X127182476Y-117764952D01*
X127230095Y-117812571D01*
X127277714Y-117907809D01*
X127277714Y-118145904D01*
X127230095Y-118241142D01*
X127182476Y-118288761D01*
X127087238Y-118336380D01*
X126801523Y-118336380D01*
X126706285Y-118288761D01*
X126658666Y-118241142D01*
G04 #@! TO.C,JP3*
X119308666Y-117336380D02*
X119308666Y-118050666D01*
X119261047Y-118193523D01*
X119165809Y-118288761D01*
X119022952Y-118336380D01*
X118927714Y-118336380D01*
X119784857Y-118336380D02*
X119784857Y-117336380D01*
X120165809Y-117336380D01*
X120261047Y-117384000D01*
X120308666Y-117431619D01*
X120356285Y-117526857D01*
X120356285Y-117669714D01*
X120308666Y-117764952D01*
X120261047Y-117812571D01*
X120165809Y-117860190D01*
X119784857Y-117860190D01*
X120689619Y-117336380D02*
X121308666Y-117336380D01*
X120975333Y-117717333D01*
X121118190Y-117717333D01*
X121213428Y-117764952D01*
X121261047Y-117812571D01*
X121308666Y-117907809D01*
X121308666Y-118145904D01*
X121261047Y-118241142D01*
X121213428Y-118288761D01*
X121118190Y-118336380D01*
X120832476Y-118336380D01*
X120737238Y-118288761D01*
X120689619Y-118241142D01*
G04 #@! TO.C,JP2*
X107116666Y-117590380D02*
X107116666Y-118304666D01*
X107069047Y-118447523D01*
X106973809Y-118542761D01*
X106830952Y-118590380D01*
X106735714Y-118590380D01*
X107592857Y-118590380D02*
X107592857Y-117590380D01*
X107973809Y-117590380D01*
X108069047Y-117638000D01*
X108116666Y-117685619D01*
X108164285Y-117780857D01*
X108164285Y-117923714D01*
X108116666Y-118018952D01*
X108069047Y-118066571D01*
X107973809Y-118114190D01*
X107592857Y-118114190D01*
X108545238Y-117685619D02*
X108592857Y-117638000D01*
X108688095Y-117590380D01*
X108926190Y-117590380D01*
X109021428Y-117638000D01*
X109069047Y-117685619D01*
X109116666Y-117780857D01*
X109116666Y-117876095D01*
X109069047Y-118018952D01*
X108497619Y-118590380D01*
X109116666Y-118590380D01*
G04 #@! TO.C,U1*
X112268095Y-96000380D02*
X112268095Y-96809904D01*
X112315714Y-96905142D01*
X112363333Y-96952761D01*
X112458571Y-97000380D01*
X112649047Y-97000380D01*
X112744285Y-96952761D01*
X112791904Y-96905142D01*
X112839523Y-96809904D01*
X112839523Y-96000380D01*
X113839523Y-97000380D02*
X113268095Y-97000380D01*
X113553809Y-97000380D02*
X113553809Y-96000380D01*
X113458571Y-96143238D01*
X113363333Y-96238476D01*
X113268095Y-96286095D01*
G04 #@! TO.C,R5*
X150963333Y-118844380D02*
X150630000Y-118368190D01*
X150391904Y-118844380D02*
X150391904Y-117844380D01*
X150772857Y-117844380D01*
X150868095Y-117892000D01*
X150915714Y-117939619D01*
X150963333Y-118034857D01*
X150963333Y-118177714D01*
X150915714Y-118272952D01*
X150868095Y-118320571D01*
X150772857Y-118368190D01*
X150391904Y-118368190D01*
X151868095Y-117844380D02*
X151391904Y-117844380D01*
X151344285Y-118320571D01*
X151391904Y-118272952D01*
X151487142Y-118225333D01*
X151725238Y-118225333D01*
X151820476Y-118272952D01*
X151868095Y-118320571D01*
X151915714Y-118415809D01*
X151915714Y-118653904D01*
X151868095Y-118749142D01*
X151820476Y-118796761D01*
X151725238Y-118844380D01*
X151487142Y-118844380D01*
X151391904Y-118796761D01*
X151344285Y-118749142D01*
G04 #@! TO.C,F1*
X102790666Y-95968571D02*
X102457333Y-95968571D01*
X102457333Y-96492380D02*
X102457333Y-95492380D01*
X102933523Y-95492380D01*
X103838285Y-96492380D02*
X103266857Y-96492380D01*
X103552571Y-96492380D02*
X103552571Y-95492380D01*
X103457333Y-95635238D01*
X103362095Y-95730476D01*
X103266857Y-95778095D01*
G04 #@! TO.C,SW3*
X174609333Y-143990380D02*
X174609333Y-142990380D01*
X174942666Y-143704666D01*
X175276000Y-142990380D01*
X175276000Y-143990380D01*
X175895047Y-143990380D02*
X175799809Y-143942761D01*
X175752190Y-143895142D01*
X175704571Y-143799904D01*
X175704571Y-143514190D01*
X175752190Y-143418952D01*
X175799809Y-143371333D01*
X175895047Y-143323714D01*
X176037904Y-143323714D01*
X176133142Y-143371333D01*
X176180761Y-143418952D01*
X176228380Y-143514190D01*
X176228380Y-143799904D01*
X176180761Y-143895142D01*
X176133142Y-143942761D01*
X176037904Y-143990380D01*
X175895047Y-143990380D01*
X177085523Y-143990380D02*
X177085523Y-142990380D01*
X177085523Y-143942761D02*
X176990285Y-143990380D01*
X176799809Y-143990380D01*
X176704571Y-143942761D01*
X176656952Y-143895142D01*
X176609333Y-143799904D01*
X176609333Y-143514190D01*
X176656952Y-143418952D01*
X176704571Y-143371333D01*
X176799809Y-143323714D01*
X176990285Y-143323714D01*
X177085523Y-143371333D01*
X177942666Y-143942761D02*
X177847428Y-143990380D01*
X177656952Y-143990380D01*
X177561714Y-143942761D01*
X177514095Y-143847523D01*
X177514095Y-143466571D01*
X177561714Y-143371333D01*
X177656952Y-143323714D01*
X177847428Y-143323714D01*
X177942666Y-143371333D01*
X177990285Y-143466571D01*
X177990285Y-143561809D01*
X177514095Y-143657047D01*
X174916666Y-138376761D02*
X175059523Y-138424380D01*
X175297619Y-138424380D01*
X175392857Y-138376761D01*
X175440476Y-138329142D01*
X175488095Y-138233904D01*
X175488095Y-138138666D01*
X175440476Y-138043428D01*
X175392857Y-137995809D01*
X175297619Y-137948190D01*
X175107142Y-137900571D01*
X175011904Y-137852952D01*
X174964285Y-137805333D01*
X174916666Y-137710095D01*
X174916666Y-137614857D01*
X174964285Y-137519619D01*
X175011904Y-137472000D01*
X175107142Y-137424380D01*
X175345238Y-137424380D01*
X175488095Y-137472000D01*
X175821428Y-137424380D02*
X176059523Y-138424380D01*
X176250000Y-137710095D01*
X176440476Y-138424380D01*
X176678571Y-137424380D01*
X176964285Y-137424380D02*
X177583333Y-137424380D01*
X177250000Y-137805333D01*
X177392857Y-137805333D01*
X177488095Y-137852952D01*
X177535714Y-137900571D01*
X177583333Y-137995809D01*
X177583333Y-138233904D01*
X177535714Y-138329142D01*
X177488095Y-138376761D01*
X177392857Y-138424380D01*
X177107142Y-138424380D01*
X177011904Y-138376761D01*
X176964285Y-138329142D01*
G04 #@! TO.C,C3*
X109815333Y-97159142D02*
X109767714Y-97206761D01*
X109624857Y-97254380D01*
X109529619Y-97254380D01*
X109386761Y-97206761D01*
X109291523Y-97111523D01*
X109243904Y-97016285D01*
X109196285Y-96825809D01*
X109196285Y-96682952D01*
X109243904Y-96492476D01*
X109291523Y-96397238D01*
X109386761Y-96302000D01*
X109529619Y-96254380D01*
X109624857Y-96254380D01*
X109767714Y-96302000D01*
X109815333Y-96349619D01*
X110148666Y-96254380D02*
X110767714Y-96254380D01*
X110434380Y-96635333D01*
X110577238Y-96635333D01*
X110672476Y-96682952D01*
X110720095Y-96730571D01*
X110767714Y-96825809D01*
X110767714Y-97063904D01*
X110720095Y-97159142D01*
X110672476Y-97206761D01*
X110577238Y-97254380D01*
X110291523Y-97254380D01*
X110196285Y-97206761D01*
X110148666Y-97159142D01*
G04 #@! TO.C,P3*
X176553904Y-123162380D02*
X176553904Y-122162380D01*
X176934857Y-122162380D01*
X177030095Y-122210000D01*
X177077714Y-122257619D01*
X177125333Y-122352857D01*
X177125333Y-122495714D01*
X177077714Y-122590952D01*
X177030095Y-122638571D01*
X176934857Y-122686190D01*
X176553904Y-122686190D01*
X177458666Y-122162380D02*
X178077714Y-122162380D01*
X177744380Y-122543333D01*
X177887238Y-122543333D01*
X177982476Y-122590952D01*
X178030095Y-122638571D01*
X178077714Y-122733809D01*
X178077714Y-122971904D01*
X178030095Y-123067142D01*
X177982476Y-123114761D01*
X177887238Y-123162380D01*
X177601523Y-123162380D01*
X177506285Y-123114761D01*
X177458666Y-123067142D01*
G04 #@! TO.C,D1*
X106195904Y-102842380D02*
X106195904Y-101842380D01*
X106434000Y-101842380D01*
X106576857Y-101890000D01*
X106672095Y-101985238D01*
X106719714Y-102080476D01*
X106767333Y-102270952D01*
X106767333Y-102413809D01*
X106719714Y-102604285D01*
X106672095Y-102699523D01*
X106576857Y-102794761D01*
X106434000Y-102842380D01*
X106195904Y-102842380D01*
X107719714Y-102842380D02*
X107148285Y-102842380D01*
X107434000Y-102842380D02*
X107434000Y-101842380D01*
X107338761Y-101985238D01*
X107243523Y-102080476D01*
X107148285Y-102128095D01*
G04 #@! TO.C,CON1*
X98099714Y-106811142D02*
X98052095Y-106858761D01*
X97909238Y-106906380D01*
X97814000Y-106906380D01*
X97671142Y-106858761D01*
X97575904Y-106763523D01*
X97528285Y-106668285D01*
X97480666Y-106477809D01*
X97480666Y-106334952D01*
X97528285Y-106144476D01*
X97575904Y-106049238D01*
X97671142Y-105954000D01*
X97814000Y-105906380D01*
X97909238Y-105906380D01*
X98052095Y-105954000D01*
X98099714Y-106001619D01*
X98718761Y-105906380D02*
X98909238Y-105906380D01*
X99004476Y-105954000D01*
X99099714Y-106049238D01*
X99147333Y-106239714D01*
X99147333Y-106573047D01*
X99099714Y-106763523D01*
X99004476Y-106858761D01*
X98909238Y-106906380D01*
X98718761Y-106906380D01*
X98623523Y-106858761D01*
X98528285Y-106763523D01*
X98480666Y-106573047D01*
X98480666Y-106239714D01*
X98528285Y-106049238D01*
X98623523Y-105954000D01*
X98718761Y-105906380D01*
X99575904Y-106906380D02*
X99575904Y-105906380D01*
X100147333Y-106906380D01*
X100147333Y-105906380D01*
X101147333Y-106906380D02*
X100575904Y-106906380D01*
X100861619Y-106906380D02*
X100861619Y-105906380D01*
X100766380Y-106049238D01*
X100671142Y-106144476D01*
X100575904Y-106192095D01*
G04 #@! TO.C,J1*
X93646666Y-95492380D02*
X93646666Y-96206666D01*
X93599047Y-96349523D01*
X93503809Y-96444761D01*
X93360952Y-96492380D01*
X93265714Y-96492380D01*
X94646666Y-96492380D02*
X94075238Y-96492380D01*
X94360952Y-96492380D02*
X94360952Y-95492380D01*
X94265714Y-95635238D01*
X94170476Y-95730476D01*
X94075238Y-95778095D01*
G04 #@! TO.C,C1*
X112750333Y-105381142D02*
X112702714Y-105428761D01*
X112559857Y-105476380D01*
X112464619Y-105476380D01*
X112321761Y-105428761D01*
X112226523Y-105333523D01*
X112178904Y-105238285D01*
X112131285Y-105047809D01*
X112131285Y-104904952D01*
X112178904Y-104714476D01*
X112226523Y-104619238D01*
X112321761Y-104524000D01*
X112464619Y-104476380D01*
X112559857Y-104476380D01*
X112702714Y-104524000D01*
X112750333Y-104571619D01*
X113702714Y-105476380D02*
X113131285Y-105476380D01*
X113417000Y-105476380D02*
X113417000Y-104476380D01*
X113321761Y-104619238D01*
X113226523Y-104714476D01*
X113131285Y-104762095D01*
G04 #@! TO.C,Q1*
X98232170Y-132420619D02*
X98136932Y-132373000D01*
X98041694Y-132277761D01*
X97898837Y-132134904D01*
X97803599Y-132087285D01*
X97708361Y-132087285D01*
X97755980Y-132325380D02*
X97660742Y-132277761D01*
X97565504Y-132182523D01*
X97517885Y-131992047D01*
X97517885Y-131658714D01*
X97565504Y-131468238D01*
X97660742Y-131373000D01*
X97755980Y-131325380D01*
X97946456Y-131325380D01*
X98041694Y-131373000D01*
X98136932Y-131468238D01*
X98184551Y-131658714D01*
X98184551Y-131992047D01*
X98136932Y-132182523D01*
X98041694Y-132277761D01*
X97946456Y-132325380D01*
X97755980Y-132325380D01*
X99136932Y-132325380D02*
X98565504Y-132325380D01*
X98851218Y-132325380D02*
X98851218Y-131325380D01*
X98755980Y-131468238D01*
X98660742Y-131563476D01*
X98565504Y-131611095D01*
X95161981Y-130325380D02*
X95161981Y-129325380D01*
X96209600Y-130325380D02*
X95876266Y-129849190D01*
X95638171Y-130325380D02*
X95638171Y-129325380D01*
X96019124Y-129325380D01*
X96114362Y-129373000D01*
X96161981Y-129420619D01*
X96209600Y-129515857D01*
X96209600Y-129658714D01*
X96161981Y-129753952D01*
X96114362Y-129801571D01*
X96019124Y-129849190D01*
X95638171Y-129849190D01*
X97114362Y-130325380D02*
X96638171Y-130325380D01*
X96638171Y-129325380D01*
X97352457Y-129325380D02*
X98019124Y-129325380D01*
X97352457Y-130325380D01*
X98019124Y-130325380D01*
X98304838Y-129325380D02*
X98923885Y-129325380D01*
X98590552Y-129706333D01*
X98733409Y-129706333D01*
X98828647Y-129753952D01*
X98876266Y-129801571D01*
X98923885Y-129896809D01*
X98923885Y-130134904D01*
X98876266Y-130230142D01*
X98828647Y-130277761D01*
X98733409Y-130325380D01*
X98447695Y-130325380D01*
X98352457Y-130277761D01*
X98304838Y-130230142D01*
X99781028Y-129658714D02*
X99781028Y-130325380D01*
X99542933Y-129277761D02*
X99304838Y-129992047D01*
X99923885Y-129992047D01*
X100304838Y-130325380D02*
X100304838Y-129325380D01*
X100876266Y-130325380D01*
X100876266Y-129325380D01*
G04 #@! TO.C,R1*
X100798333Y-118590380D02*
X100465000Y-118114190D01*
X100226904Y-118590380D02*
X100226904Y-117590380D01*
X100607857Y-117590380D01*
X100703095Y-117638000D01*
X100750714Y-117685619D01*
X100798333Y-117780857D01*
X100798333Y-117923714D01*
X100750714Y-118018952D01*
X100703095Y-118066571D01*
X100607857Y-118114190D01*
X100226904Y-118114190D01*
X101750714Y-118590380D02*
X101179285Y-118590380D01*
X101465000Y-118590380D02*
X101465000Y-117590380D01*
X101369761Y-117733238D01*
X101274523Y-117828476D01*
X101179285Y-117876095D01*
G04 #@! TO.C,Q2*
X110728983Y-132547619D02*
X110633745Y-132500000D01*
X110538507Y-132404761D01*
X110395650Y-132261904D01*
X110300412Y-132214285D01*
X110205174Y-132214285D01*
X110252793Y-132452380D02*
X110157555Y-132404761D01*
X110062317Y-132309523D01*
X110014698Y-132119047D01*
X110014698Y-131785714D01*
X110062317Y-131595238D01*
X110157555Y-131500000D01*
X110252793Y-131452380D01*
X110443269Y-131452380D01*
X110538507Y-131500000D01*
X110633745Y-131595238D01*
X110681364Y-131785714D01*
X110681364Y-132119047D01*
X110633745Y-132309523D01*
X110538507Y-132404761D01*
X110443269Y-132452380D01*
X110252793Y-132452380D01*
X111062317Y-131547619D02*
X111109936Y-131500000D01*
X111205174Y-131452380D01*
X111443269Y-131452380D01*
X111538507Y-131500000D01*
X111586126Y-131547619D01*
X111633745Y-131642857D01*
X111633745Y-131738095D01*
X111586126Y-131880952D01*
X111014698Y-132452380D01*
X111633745Y-132452380D01*
X107967079Y-130452380D02*
X107967079Y-129452380D01*
X109014698Y-130452380D02*
X108681364Y-129976190D01*
X108443269Y-130452380D02*
X108443269Y-129452380D01*
X108824222Y-129452380D01*
X108919460Y-129500000D01*
X108967079Y-129547619D01*
X109014698Y-129642857D01*
X109014698Y-129785714D01*
X108967079Y-129880952D01*
X108919460Y-129928571D01*
X108824222Y-129976190D01*
X108443269Y-129976190D01*
X109919460Y-130452380D02*
X109443269Y-130452380D01*
X109443269Y-129452380D01*
X110157555Y-129452380D02*
X110824222Y-129452380D01*
X110157555Y-130452380D01*
X110824222Y-130452380D01*
X111109936Y-129452380D02*
X111728983Y-129452380D01*
X111395650Y-129833333D01*
X111538507Y-129833333D01*
X111633745Y-129880952D01*
X111681364Y-129928571D01*
X111728983Y-130023809D01*
X111728983Y-130261904D01*
X111681364Y-130357142D01*
X111633745Y-130404761D01*
X111538507Y-130452380D01*
X111252793Y-130452380D01*
X111157555Y-130404761D01*
X111109936Y-130357142D01*
X112586126Y-129785714D02*
X112586126Y-130452380D01*
X112348031Y-129404761D02*
X112109936Y-130119047D01*
X112728983Y-130119047D01*
X113109936Y-130452380D02*
X113109936Y-129452380D01*
X113681364Y-130452380D01*
X113681364Y-129452380D01*
G04 #@! TO.C,R2*
X113879333Y-118590380D02*
X113546000Y-118114190D01*
X113307904Y-118590380D02*
X113307904Y-117590380D01*
X113688857Y-117590380D01*
X113784095Y-117638000D01*
X113831714Y-117685619D01*
X113879333Y-117780857D01*
X113879333Y-117923714D01*
X113831714Y-118018952D01*
X113784095Y-118066571D01*
X113688857Y-118114190D01*
X113307904Y-118114190D01*
X114260285Y-117685619D02*
X114307904Y-117638000D01*
X114403142Y-117590380D01*
X114641238Y-117590380D01*
X114736476Y-117638000D01*
X114784095Y-117685619D01*
X114831714Y-117780857D01*
X114831714Y-117876095D01*
X114784095Y-118018952D01*
X114212666Y-118590380D01*
X114831714Y-118590380D01*
G04 #@! TO.C,Q3*
X123225796Y-132547619D02*
X123130558Y-132500000D01*
X123035320Y-132404761D01*
X122892463Y-132261904D01*
X122797225Y-132214285D01*
X122701987Y-132214285D01*
X122749606Y-132452380D02*
X122654368Y-132404761D01*
X122559130Y-132309523D01*
X122511511Y-132119047D01*
X122511511Y-131785714D01*
X122559130Y-131595238D01*
X122654368Y-131500000D01*
X122749606Y-131452380D01*
X122940082Y-131452380D01*
X123035320Y-131500000D01*
X123130558Y-131595238D01*
X123178177Y-131785714D01*
X123178177Y-132119047D01*
X123130558Y-132309523D01*
X123035320Y-132404761D01*
X122940082Y-132452380D01*
X122749606Y-132452380D01*
X123511511Y-131452380D02*
X124130558Y-131452380D01*
X123797225Y-131833333D01*
X123940082Y-131833333D01*
X124035320Y-131880952D01*
X124082939Y-131928571D01*
X124130558Y-132023809D01*
X124130558Y-132261904D01*
X124082939Y-132357142D01*
X124035320Y-132404761D01*
X123940082Y-132452380D01*
X123654368Y-132452380D01*
X123559130Y-132404761D01*
X123511511Y-132357142D01*
X120463892Y-130452380D02*
X120463892Y-129452380D01*
X121511511Y-130452380D02*
X121178177Y-129976190D01*
X120940082Y-130452380D02*
X120940082Y-129452380D01*
X121321035Y-129452380D01*
X121416273Y-129500000D01*
X121463892Y-129547619D01*
X121511511Y-129642857D01*
X121511511Y-129785714D01*
X121463892Y-129880952D01*
X121416273Y-129928571D01*
X121321035Y-129976190D01*
X120940082Y-129976190D01*
X122416273Y-130452380D02*
X121940082Y-130452380D01*
X121940082Y-129452380D01*
X122654368Y-129452380D02*
X123321035Y-129452380D01*
X122654368Y-130452380D01*
X123321035Y-130452380D01*
X123606749Y-129452380D02*
X124225796Y-129452380D01*
X123892463Y-129833333D01*
X124035320Y-129833333D01*
X124130558Y-129880952D01*
X124178177Y-129928571D01*
X124225796Y-130023809D01*
X124225796Y-130261904D01*
X124178177Y-130357142D01*
X124130558Y-130404761D01*
X124035320Y-130452380D01*
X123749606Y-130452380D01*
X123654368Y-130404761D01*
X123606749Y-130357142D01*
X125082939Y-129785714D02*
X125082939Y-130452380D01*
X124844844Y-129404761D02*
X124606749Y-130119047D01*
X125225796Y-130119047D01*
X125606749Y-130452380D02*
X125606749Y-129452380D01*
X126178177Y-130452380D01*
X126178177Y-129452380D01*
G04 #@! TO.C,U4*
X135763095Y-108192380D02*
X135763095Y-109001904D01*
X135810714Y-109097142D01*
X135858333Y-109144761D01*
X135953571Y-109192380D01*
X136144047Y-109192380D01*
X136239285Y-109144761D01*
X136286904Y-109097142D01*
X136334523Y-109001904D01*
X136334523Y-108192380D01*
X137239285Y-108525714D02*
X137239285Y-109192380D01*
X137001190Y-108144761D02*
X136763095Y-108859047D01*
X137382142Y-108859047D01*
X139517380Y-115057857D02*
X138517380Y-115057857D01*
X138517380Y-114819761D01*
X138565000Y-114676904D01*
X138660238Y-114581666D01*
X138755476Y-114534047D01*
X138945952Y-114486428D01*
X139088809Y-114486428D01*
X139279285Y-114534047D01*
X139374523Y-114581666D01*
X139469761Y-114676904D01*
X139517380Y-114819761D01*
X139517380Y-115057857D01*
X139469761Y-114105476D02*
X139517380Y-113962619D01*
X139517380Y-113724523D01*
X139469761Y-113629285D01*
X139422142Y-113581666D01*
X139326904Y-113534047D01*
X139231666Y-113534047D01*
X139136428Y-113581666D01*
X139088809Y-113629285D01*
X139041190Y-113724523D01*
X138993571Y-113915000D01*
X138945952Y-114010238D01*
X138898333Y-114057857D01*
X138803095Y-114105476D01*
X138707857Y-114105476D01*
X138612619Y-114057857D01*
X138565000Y-114010238D01*
X138517380Y-113915000D01*
X138517380Y-113676904D01*
X138565000Y-113534047D01*
X139517380Y-112581666D02*
X139517380Y-113153095D01*
X139517380Y-112867380D02*
X138517380Y-112867380D01*
X138660238Y-112962619D01*
X138755476Y-113057857D01*
X138803095Y-113153095D01*
X138945952Y-112010238D02*
X138898333Y-112105476D01*
X138850714Y-112153095D01*
X138755476Y-112200714D01*
X138707857Y-112200714D01*
X138612619Y-112153095D01*
X138565000Y-112105476D01*
X138517380Y-112010238D01*
X138517380Y-111819761D01*
X138565000Y-111724523D01*
X138612619Y-111676904D01*
X138707857Y-111629285D01*
X138755476Y-111629285D01*
X138850714Y-111676904D01*
X138898333Y-111724523D01*
X138945952Y-111819761D01*
X138945952Y-112010238D01*
X138993571Y-112105476D01*
X139041190Y-112153095D01*
X139136428Y-112200714D01*
X139326904Y-112200714D01*
X139422142Y-112153095D01*
X139469761Y-112105476D01*
X139517380Y-112010238D01*
X139517380Y-111819761D01*
X139469761Y-111724523D01*
X139422142Y-111676904D01*
X139326904Y-111629285D01*
X139136428Y-111629285D01*
X139041190Y-111676904D01*
X138993571Y-111724523D01*
X138945952Y-111819761D01*
X138993571Y-110867380D02*
X139041190Y-110724523D01*
X139088809Y-110676904D01*
X139184047Y-110629285D01*
X139326904Y-110629285D01*
X139422142Y-110676904D01*
X139469761Y-110724523D01*
X139517380Y-110819761D01*
X139517380Y-111200714D01*
X138517380Y-111200714D01*
X138517380Y-110867380D01*
X138565000Y-110772142D01*
X138612619Y-110724523D01*
X138707857Y-110676904D01*
X138803095Y-110676904D01*
X138898333Y-110724523D01*
X138945952Y-110772142D01*
X138993571Y-110867380D01*
X138993571Y-111200714D01*
X138612619Y-110248333D02*
X138565000Y-110200714D01*
X138517380Y-110105476D01*
X138517380Y-109867380D01*
X138565000Y-109772142D01*
X138612619Y-109724523D01*
X138707857Y-109676904D01*
X138803095Y-109676904D01*
X138945952Y-109724523D01*
X139517380Y-110295952D01*
X139517380Y-109676904D01*
X138517380Y-109057857D02*
X138517380Y-108962619D01*
X138565000Y-108867380D01*
X138612619Y-108819761D01*
X138707857Y-108772142D01*
X138898333Y-108724523D01*
X139136428Y-108724523D01*
X139326904Y-108772142D01*
X139422142Y-108819761D01*
X139469761Y-108867380D01*
X139517380Y-108962619D01*
X139517380Y-109057857D01*
X139469761Y-109153095D01*
X139422142Y-109200714D01*
X139326904Y-109248333D01*
X139136428Y-109295952D01*
X138898333Y-109295952D01*
X138707857Y-109248333D01*
X138612619Y-109200714D01*
X138565000Y-109153095D01*
X138517380Y-109057857D01*
G04 #@! TO.C,Y1*
X116363809Y-106176190D02*
X116363809Y-106652380D01*
X116030476Y-105652380D02*
X116363809Y-106176190D01*
X116697142Y-105652380D01*
X117554285Y-106652380D02*
X116982857Y-106652380D01*
X117268571Y-106652380D02*
X117268571Y-105652380D01*
X117173333Y-105795238D01*
X117078095Y-105890476D01*
X116982857Y-105938095D01*
G04 #@! TO.C,J2*
X189666666Y-142782380D02*
X189666666Y-143496666D01*
X189619047Y-143639523D01*
X189523809Y-143734761D01*
X189380952Y-143782380D01*
X189285714Y-143782380D01*
X190095238Y-142877619D02*
X190142857Y-142830000D01*
X190238095Y-142782380D01*
X190476190Y-142782380D01*
X190571428Y-142830000D01*
X190619047Y-142877619D01*
X190666666Y-142972857D01*
X190666666Y-143068095D01*
X190619047Y-143210952D01*
X190047619Y-143782380D01*
X190666666Y-143782380D01*
G04 #@! TO.C,J3*
X184666666Y-137782380D02*
X184666666Y-138496666D01*
X184619047Y-138639523D01*
X184523809Y-138734761D01*
X184380952Y-138782380D01*
X184285714Y-138782380D01*
X185047619Y-137782380D02*
X185666666Y-137782380D01*
X185333333Y-138163333D01*
X185476190Y-138163333D01*
X185571428Y-138210952D01*
X185619047Y-138258571D01*
X185666666Y-138353809D01*
X185666666Y-138591904D01*
X185619047Y-138687142D01*
X185571428Y-138734761D01*
X185476190Y-138782380D01*
X185190476Y-138782380D01*
X185095238Y-138734761D01*
X185047619Y-138687142D01*
G04 #@! TO.C,J4*
X142122380Y-113333333D02*
X142836666Y-113333333D01*
X142979523Y-113380952D01*
X143074761Y-113476190D01*
X143122380Y-113619047D01*
X143122380Y-113714285D01*
X142455714Y-112428571D02*
X143122380Y-112428571D01*
X142074761Y-112666666D02*
X142789047Y-112904761D01*
X142789047Y-112285714D01*
X146248571Y-107922380D02*
X146248571Y-106922380D01*
X146581904Y-107636666D01*
X146915238Y-106922380D01*
X146915238Y-107922380D01*
X147391428Y-107922380D02*
X147391428Y-106922380D01*
X148439047Y-107827142D02*
X148391428Y-107874761D01*
X148248571Y-107922380D01*
X148153333Y-107922380D01*
X148010476Y-107874761D01*
X147915238Y-107779523D01*
X147867619Y-107684285D01*
X147820000Y-107493809D01*
X147820000Y-107350952D01*
X147867619Y-107160476D01*
X147915238Y-107065238D01*
X148010476Y-106970000D01*
X148153333Y-106922380D01*
X148248571Y-106922380D01*
X148391428Y-106970000D01*
X148439047Y-107017619D01*
G04 #@! TO.C,JP4*
X131754666Y-117590380D02*
X131754666Y-118304666D01*
X131707047Y-118447523D01*
X131611809Y-118542761D01*
X131468952Y-118590380D01*
X131373714Y-118590380D01*
X132230857Y-118590380D02*
X132230857Y-117590380D01*
X132611809Y-117590380D01*
X132707047Y-117638000D01*
X132754666Y-117685619D01*
X132802285Y-117780857D01*
X132802285Y-117923714D01*
X132754666Y-118018952D01*
X132707047Y-118066571D01*
X132611809Y-118114190D01*
X132230857Y-118114190D01*
X133659428Y-117923714D02*
X133659428Y-118590380D01*
X133421333Y-117542761D02*
X133183238Y-118257047D01*
X133802285Y-118257047D01*
G04 #@! TO.C,C9*
X156678333Y-122432142D02*
X156630714Y-122479761D01*
X156487857Y-122527380D01*
X156392619Y-122527380D01*
X156249761Y-122479761D01*
X156154523Y-122384523D01*
X156106904Y-122289285D01*
X156059285Y-122098809D01*
X156059285Y-121955952D01*
X156106904Y-121765476D01*
X156154523Y-121670238D01*
X156249761Y-121575000D01*
X156392619Y-121527380D01*
X156487857Y-121527380D01*
X156630714Y-121575000D01*
X156678333Y-121622619D01*
X157154523Y-122527380D02*
X157345000Y-122527380D01*
X157440238Y-122479761D01*
X157487857Y-122432142D01*
X157583095Y-122289285D01*
X157630714Y-122098809D01*
X157630714Y-121717857D01*
X157583095Y-121622619D01*
X157535476Y-121575000D01*
X157440238Y-121527380D01*
X157249761Y-121527380D01*
X157154523Y-121575000D01*
X157106904Y-121622619D01*
X157059285Y-121717857D01*
X157059285Y-121955952D01*
X157106904Y-122051190D01*
X157154523Y-122098809D01*
X157249761Y-122146428D01*
X157440238Y-122146428D01*
X157535476Y-122098809D01*
X157583095Y-122051190D01*
X157630714Y-121955952D01*
G04 #@! TO.C,JP6*
X170902380Y-126083333D02*
X171616666Y-126083333D01*
X171759523Y-126130952D01*
X171854761Y-126226190D01*
X171902380Y-126369047D01*
X171902380Y-126464285D01*
X171902380Y-125607142D02*
X170902380Y-125607142D01*
X170902380Y-125226190D01*
X170950000Y-125130952D01*
X170997619Y-125083333D01*
X171092857Y-125035714D01*
X171235714Y-125035714D01*
X171330952Y-125083333D01*
X171378571Y-125130952D01*
X171426190Y-125226190D01*
X171426190Y-125607142D01*
X170902380Y-124178571D02*
X170902380Y-124369047D01*
X170950000Y-124464285D01*
X170997619Y-124511904D01*
X171140476Y-124607142D01*
X171330952Y-124654761D01*
X171711904Y-124654761D01*
X171807142Y-124607142D01*
X171854761Y-124559523D01*
X171902380Y-124464285D01*
X171902380Y-124273809D01*
X171854761Y-124178571D01*
X171807142Y-124130952D01*
X171711904Y-124083333D01*
X171473809Y-124083333D01*
X171378571Y-124130952D01*
X171330952Y-124178571D01*
X171283333Y-124273809D01*
X171283333Y-124464285D01*
X171330952Y-124559523D01*
X171378571Y-124607142D01*
X171473809Y-124654761D01*
G04 #@! TO.C,U5*
X169124380Y-128805904D02*
X169933904Y-128805904D01*
X170029142Y-128758285D01*
X170076761Y-128710666D01*
X170124380Y-128615428D01*
X170124380Y-128424952D01*
X170076761Y-128329714D01*
X170029142Y-128282095D01*
X169933904Y-128234476D01*
X169124380Y-128234476D01*
X169124380Y-127282095D02*
X169124380Y-127758285D01*
X169600571Y-127805904D01*
X169552952Y-127758285D01*
X169505333Y-127663047D01*
X169505333Y-127424952D01*
X169552952Y-127329714D01*
X169600571Y-127282095D01*
X169695809Y-127234476D01*
X169933904Y-127234476D01*
X170029142Y-127282095D01*
X170076761Y-127329714D01*
X170124380Y-127424952D01*
X170124380Y-127663047D01*
X170076761Y-127758285D01*
X170029142Y-127805904D01*
G04 #@! TO.C,U3*
X120102380Y-112549904D02*
X120911904Y-112549904D01*
X121007142Y-112502285D01*
X121054761Y-112454666D01*
X121102380Y-112359428D01*
X121102380Y-112168952D01*
X121054761Y-112073714D01*
X121007142Y-112026095D01*
X120911904Y-111978476D01*
X120102380Y-111978476D01*
X120102380Y-111597523D02*
X120102380Y-110978476D01*
X120483333Y-111311809D01*
X120483333Y-111168952D01*
X120530952Y-111073714D01*
X120578571Y-111026095D01*
X120673809Y-110978476D01*
X120911904Y-110978476D01*
X121007142Y-111026095D01*
X121054761Y-111073714D01*
X121102380Y-111168952D01*
X121102380Y-111454666D01*
X121054761Y-111549904D01*
X121007142Y-111597523D01*
G04 #@! TD*
M02*
