G04 #@! TF.GenerationSoftware,KiCad,Pcbnew,5.0.2-bee76a0~70~ubuntu18.04.1*
G04 #@! TF.CreationDate,2019-01-16T23:40:41+01:00*
G04 #@! TF.ProjectId,ESPLED,4553504c-4544-42e6-9b69-6361645f7063,rev?*
G04 #@! TF.SameCoordinates,Original*
G04 #@! TF.FileFunction,Soldermask,Bot*
G04 #@! TF.FilePolarity,Negative*
%FSLAX46Y46*%
G04 Gerber Fmt 4.6, Leading zero omitted, Abs format (unit mm)*
G04 Created by KiCad (PCBNEW 5.0.2-bee76a0~70~ubuntu18.04.1) date Mi 16 Jan 2019 23:40:41 CET*
%MOMM*%
%LPD*%
G01*
G04 APERTURE LIST*
%ADD10C,0.100000*%
G04 APERTURE END LIST*
D10*
G36*
X123703298Y-138368315D02*
X123703301Y-138368316D01*
X123703302Y-138368316D01*
X124070878Y-138479819D01*
X124409639Y-138660890D01*
X124706565Y-138904571D01*
X124950246Y-139201497D01*
X125131317Y-139540258D01*
X125169777Y-139667045D01*
X125242821Y-139907838D01*
X125280470Y-140290101D01*
X125242821Y-140672364D01*
X125242820Y-140672367D01*
X125242820Y-140672368D01*
X125131317Y-141039944D01*
X124950246Y-141378705D01*
X124706565Y-141675631D01*
X124409639Y-141919312D01*
X124070878Y-142100383D01*
X123703302Y-142211886D01*
X123703301Y-142211886D01*
X123703298Y-142211887D01*
X123416834Y-142240101D01*
X123225236Y-142240101D01*
X122938772Y-142211887D01*
X122938769Y-142211886D01*
X122938768Y-142211886D01*
X122571192Y-142100383D01*
X122232431Y-141919312D01*
X121935505Y-141675631D01*
X121691824Y-141378705D01*
X121510753Y-141039944D01*
X121399250Y-140672368D01*
X121399250Y-140672367D01*
X121399249Y-140672364D01*
X121361600Y-140290101D01*
X121399249Y-139907838D01*
X121472293Y-139667045D01*
X121510753Y-139540258D01*
X121691824Y-139201497D01*
X121935505Y-138904571D01*
X122232431Y-138660890D01*
X122571192Y-138479819D01*
X122938768Y-138368316D01*
X122938769Y-138368316D01*
X122938772Y-138368315D01*
X123225236Y-138340101D01*
X123416834Y-138340101D01*
X123703298Y-138368315D01*
X123703298Y-138368315D01*
G37*
G36*
X111206485Y-138368315D02*
X111206488Y-138368316D01*
X111206489Y-138368316D01*
X111574065Y-138479819D01*
X111912826Y-138660890D01*
X112209752Y-138904571D01*
X112453433Y-139201497D01*
X112634504Y-139540258D01*
X112672964Y-139667045D01*
X112746008Y-139907838D01*
X112783657Y-140290101D01*
X112746008Y-140672364D01*
X112746007Y-140672367D01*
X112746007Y-140672368D01*
X112634504Y-141039944D01*
X112453433Y-141378705D01*
X112209752Y-141675631D01*
X111912826Y-141919312D01*
X111574065Y-142100383D01*
X111206489Y-142211886D01*
X111206488Y-142211886D01*
X111206485Y-142211887D01*
X110920021Y-142240101D01*
X110728423Y-142240101D01*
X110441959Y-142211887D01*
X110441956Y-142211886D01*
X110441955Y-142211886D01*
X110074379Y-142100383D01*
X109735618Y-141919312D01*
X109438692Y-141675631D01*
X109195011Y-141378705D01*
X109013940Y-141039944D01*
X108902437Y-140672368D01*
X108902437Y-140672367D01*
X108902436Y-140672364D01*
X108864787Y-140290101D01*
X108902436Y-139907838D01*
X108975480Y-139667045D01*
X109013940Y-139540258D01*
X109195011Y-139201497D01*
X109438692Y-138904571D01*
X109735618Y-138660890D01*
X110074379Y-138479819D01*
X110441955Y-138368316D01*
X110441956Y-138368316D01*
X110441959Y-138368315D01*
X110728423Y-138340101D01*
X110920021Y-138340101D01*
X111206485Y-138368315D01*
X111206485Y-138368315D01*
G37*
G36*
X98709672Y-138368315D02*
X98709675Y-138368316D01*
X98709676Y-138368316D01*
X99077252Y-138479819D01*
X99416013Y-138660890D01*
X99712939Y-138904571D01*
X99956620Y-139201497D01*
X100137691Y-139540258D01*
X100176151Y-139667045D01*
X100249195Y-139907838D01*
X100286844Y-140290101D01*
X100249195Y-140672364D01*
X100249194Y-140672367D01*
X100249194Y-140672368D01*
X100137691Y-141039944D01*
X99956620Y-141378705D01*
X99712939Y-141675631D01*
X99416013Y-141919312D01*
X99077252Y-142100383D01*
X98709676Y-142211886D01*
X98709675Y-142211886D01*
X98709672Y-142211887D01*
X98423208Y-142240101D01*
X98231610Y-142240101D01*
X97945146Y-142211887D01*
X97945143Y-142211886D01*
X97945142Y-142211886D01*
X97577566Y-142100383D01*
X97238805Y-141919312D01*
X96941879Y-141675631D01*
X96698198Y-141378705D01*
X96517127Y-141039944D01*
X96405624Y-140672368D01*
X96405624Y-140672367D01*
X96405623Y-140672364D01*
X96367974Y-140290101D01*
X96405623Y-139907838D01*
X96478667Y-139667045D01*
X96517127Y-139540258D01*
X96698198Y-139201497D01*
X96941879Y-138904571D01*
X97238805Y-138660890D01*
X97577566Y-138479819D01*
X97945142Y-138368316D01*
X97945143Y-138368316D01*
X97945146Y-138368315D01*
X98231610Y-138340101D01*
X98423208Y-138340101D01*
X98709672Y-138368315D01*
X98709672Y-138368315D01*
G37*
G36*
X136212859Y-138368315D02*
X136212862Y-138368316D01*
X136212863Y-138368316D01*
X136580439Y-138479819D01*
X136919200Y-138660890D01*
X137216126Y-138904571D01*
X137459807Y-139201497D01*
X137640878Y-139540258D01*
X137679338Y-139667045D01*
X137752382Y-139907838D01*
X137790031Y-140290101D01*
X137752382Y-140672364D01*
X137752381Y-140672367D01*
X137752381Y-140672368D01*
X137640878Y-141039944D01*
X137459807Y-141378705D01*
X137216126Y-141675631D01*
X136919200Y-141919312D01*
X136580439Y-142100383D01*
X136212863Y-142211886D01*
X136212862Y-142211886D01*
X136212859Y-142211887D01*
X135926395Y-142240101D01*
X135734797Y-142240101D01*
X135448333Y-142211887D01*
X135448330Y-142211886D01*
X135448329Y-142211886D01*
X135080753Y-142100383D01*
X134741992Y-141919312D01*
X134445066Y-141675631D01*
X134201385Y-141378705D01*
X134020314Y-141039944D01*
X133908811Y-140672368D01*
X133908811Y-140672367D01*
X133908810Y-140672364D01*
X133871161Y-140290101D01*
X133908810Y-139907838D01*
X133981854Y-139667045D01*
X134020314Y-139540258D01*
X134201385Y-139201497D01*
X134445066Y-138904571D01*
X134741992Y-138660890D01*
X135080753Y-138479819D01*
X135448329Y-138368316D01*
X135448330Y-138368316D01*
X135448333Y-138368315D01*
X135734797Y-138340101D01*
X135926395Y-138340101D01*
X136212859Y-138368315D01*
X136212859Y-138368315D01*
G37*
G36*
X148716048Y-138368315D02*
X148716051Y-138368316D01*
X148716052Y-138368316D01*
X149083628Y-138479819D01*
X149422389Y-138660890D01*
X149719315Y-138904571D01*
X149962996Y-139201497D01*
X150144067Y-139540258D01*
X150182527Y-139667045D01*
X150255571Y-139907838D01*
X150293220Y-140290101D01*
X150255571Y-140672364D01*
X150255570Y-140672367D01*
X150255570Y-140672368D01*
X150144067Y-141039944D01*
X149962996Y-141378705D01*
X149719315Y-141675631D01*
X149422389Y-141919312D01*
X149083628Y-142100383D01*
X148716052Y-142211886D01*
X148716051Y-142211886D01*
X148716048Y-142211887D01*
X148429584Y-142240101D01*
X148237986Y-142240101D01*
X147951522Y-142211887D01*
X147951519Y-142211886D01*
X147951518Y-142211886D01*
X147583942Y-142100383D01*
X147245181Y-141919312D01*
X146948255Y-141675631D01*
X146704574Y-141378705D01*
X146523503Y-141039944D01*
X146412000Y-140672368D01*
X146412000Y-140672367D01*
X146411999Y-140672364D01*
X146374350Y-140290101D01*
X146411999Y-139907838D01*
X146485043Y-139667045D01*
X146523503Y-139540258D01*
X146704574Y-139201497D01*
X146948255Y-138904571D01*
X147245181Y-138660890D01*
X147583942Y-138479819D01*
X147951518Y-138368316D01*
X147951519Y-138368316D01*
X147951522Y-138368315D01*
X148237986Y-138340101D01*
X148429584Y-138340101D01*
X148716048Y-138368315D01*
X148716048Y-138368315D01*
G37*
G36*
X160850026Y-139278115D02*
X161068412Y-139368573D01*
X161264958Y-139499901D01*
X161432099Y-139667042D01*
X161563427Y-139863588D01*
X161653885Y-140081974D01*
X161700000Y-140313809D01*
X161700000Y-140550191D01*
X161653885Y-140782026D01*
X161563427Y-141000412D01*
X161432099Y-141196958D01*
X161264958Y-141364099D01*
X161068412Y-141495427D01*
X160850026Y-141585885D01*
X160618191Y-141632000D01*
X160381809Y-141632000D01*
X160149974Y-141585885D01*
X159931588Y-141495427D01*
X159735042Y-141364099D01*
X159567901Y-141196958D01*
X159436573Y-141000412D01*
X159346115Y-140782026D01*
X159300000Y-140550191D01*
X159300000Y-140313809D01*
X159346115Y-140081974D01*
X159436573Y-139863588D01*
X159567901Y-139667042D01*
X159735042Y-139499901D01*
X159931588Y-139368573D01*
X160149974Y-139278115D01*
X160381809Y-139232000D01*
X160618191Y-139232000D01*
X160850026Y-139278115D01*
X160850026Y-139278115D01*
G37*
G36*
X156350026Y-139278115D02*
X156568412Y-139368573D01*
X156764958Y-139499901D01*
X156932099Y-139667042D01*
X157063427Y-139863588D01*
X157153885Y-140081974D01*
X157200000Y-140313809D01*
X157200000Y-140550191D01*
X157153885Y-140782026D01*
X157063427Y-141000412D01*
X156932099Y-141196958D01*
X156764958Y-141364099D01*
X156568412Y-141495427D01*
X156350026Y-141585885D01*
X156118191Y-141632000D01*
X155881809Y-141632000D01*
X155649974Y-141585885D01*
X155431588Y-141495427D01*
X155235042Y-141364099D01*
X155067901Y-141196958D01*
X154936573Y-141000412D01*
X154846115Y-140782026D01*
X154800000Y-140550191D01*
X154800000Y-140313809D01*
X154846115Y-140081974D01*
X154936573Y-139863588D01*
X155067901Y-139667042D01*
X155235042Y-139499901D01*
X155431588Y-139368573D01*
X155649974Y-139278115D01*
X155881809Y-139232000D01*
X156118191Y-139232000D01*
X156350026Y-139278115D01*
X156350026Y-139278115D01*
G37*
G36*
X165350026Y-139278115D02*
X165568412Y-139368573D01*
X165764958Y-139499901D01*
X165932099Y-139667042D01*
X166063427Y-139863588D01*
X166153885Y-140081974D01*
X166200000Y-140313809D01*
X166200000Y-140550191D01*
X166153885Y-140782026D01*
X166063427Y-141000412D01*
X165932099Y-141196958D01*
X165764958Y-141364099D01*
X165568412Y-141495427D01*
X165350026Y-141585885D01*
X165118191Y-141632000D01*
X164881809Y-141632000D01*
X164649974Y-141585885D01*
X164431588Y-141495427D01*
X164235042Y-141364099D01*
X164067901Y-141196958D01*
X163936573Y-141000412D01*
X163846115Y-140782026D01*
X163800000Y-140550191D01*
X163800000Y-140313809D01*
X163846115Y-140081974D01*
X163936573Y-139863588D01*
X164067901Y-139667042D01*
X164235042Y-139499901D01*
X164431588Y-139368573D01*
X164649974Y-139278115D01*
X164881809Y-139232000D01*
X165118191Y-139232000D01*
X165350026Y-139278115D01*
X165350026Y-139278115D01*
G37*
G36*
X178850026Y-139278115D02*
X179068412Y-139368573D01*
X179264958Y-139499901D01*
X179432099Y-139667042D01*
X179563427Y-139863588D01*
X179653885Y-140081974D01*
X179700000Y-140313809D01*
X179700000Y-140550191D01*
X179653885Y-140782026D01*
X179563427Y-141000412D01*
X179432099Y-141196958D01*
X179264958Y-141364099D01*
X179068412Y-141495427D01*
X178850026Y-141585885D01*
X178618191Y-141632000D01*
X178381809Y-141632000D01*
X178149974Y-141585885D01*
X177931588Y-141495427D01*
X177735042Y-141364099D01*
X177567901Y-141196958D01*
X177436573Y-141000412D01*
X177346115Y-140782026D01*
X177300000Y-140550191D01*
X177300000Y-140313809D01*
X177346115Y-140081974D01*
X177436573Y-139863588D01*
X177567901Y-139667042D01*
X177735042Y-139499901D01*
X177931588Y-139368573D01*
X178149974Y-139278115D01*
X178381809Y-139232000D01*
X178618191Y-139232000D01*
X178850026Y-139278115D01*
X178850026Y-139278115D01*
G37*
G36*
X174350026Y-139278115D02*
X174568412Y-139368573D01*
X174764958Y-139499901D01*
X174932099Y-139667042D01*
X175063427Y-139863588D01*
X175153885Y-140081974D01*
X175200000Y-140313809D01*
X175200000Y-140550191D01*
X175153885Y-140782026D01*
X175063427Y-141000412D01*
X174932099Y-141196958D01*
X174764958Y-141364099D01*
X174568412Y-141495427D01*
X174350026Y-141585885D01*
X174118191Y-141632000D01*
X173881809Y-141632000D01*
X173649974Y-141585885D01*
X173431588Y-141495427D01*
X173235042Y-141364099D01*
X173067901Y-141196958D01*
X172936573Y-141000412D01*
X172846115Y-140782026D01*
X172800000Y-140550191D01*
X172800000Y-140313809D01*
X172846115Y-140081974D01*
X172936573Y-139863588D01*
X173067901Y-139667042D01*
X173235042Y-139499901D01*
X173431588Y-139368573D01*
X173649974Y-139278115D01*
X173881809Y-139232000D01*
X174118191Y-139232000D01*
X174350026Y-139278115D01*
X174350026Y-139278115D01*
G37*
G36*
X169850026Y-139278115D02*
X170068412Y-139368573D01*
X170264958Y-139499901D01*
X170432099Y-139667042D01*
X170563427Y-139863588D01*
X170653885Y-140081974D01*
X170700000Y-140313809D01*
X170700000Y-140550191D01*
X170653885Y-140782026D01*
X170563427Y-141000412D01*
X170432099Y-141196958D01*
X170264958Y-141364099D01*
X170068412Y-141495427D01*
X169850026Y-141585885D01*
X169618191Y-141632000D01*
X169381809Y-141632000D01*
X169149974Y-141585885D01*
X168931588Y-141495427D01*
X168735042Y-141364099D01*
X168567901Y-141196958D01*
X168436573Y-141000412D01*
X168346115Y-140782026D01*
X168300000Y-140550191D01*
X168300000Y-140313809D01*
X168346115Y-140081974D01*
X168436573Y-139863588D01*
X168567901Y-139667042D01*
X168735042Y-139499901D01*
X168931588Y-139368573D01*
X169149974Y-139278115D01*
X169381809Y-139232000D01*
X169618191Y-139232000D01*
X169850026Y-139278115D01*
X169850026Y-139278115D01*
G37*
G36*
X191050000Y-141260000D02*
X188950000Y-141260000D01*
X188950000Y-139160000D01*
X191050000Y-139160000D01*
X191050000Y-141260000D01*
X191050000Y-141260000D01*
G37*
G36*
X190128707Y-136627597D02*
X190205836Y-136635193D01*
X190337787Y-136675220D01*
X190403763Y-136695233D01*
X190586172Y-136792733D01*
X190746054Y-136923946D01*
X190877267Y-137083828D01*
X190974767Y-137266237D01*
X190974767Y-137266238D01*
X191034807Y-137464164D01*
X191055080Y-137670000D01*
X191034807Y-137875836D01*
X190994780Y-138007787D01*
X190974767Y-138073763D01*
X190877267Y-138256172D01*
X190746054Y-138416054D01*
X190586172Y-138547267D01*
X190403763Y-138644767D01*
X190350605Y-138660892D01*
X190205836Y-138704807D01*
X190128707Y-138712403D01*
X190051580Y-138720000D01*
X189948420Y-138720000D01*
X189871293Y-138712403D01*
X189794164Y-138704807D01*
X189649395Y-138660892D01*
X189596237Y-138644767D01*
X189413828Y-138547267D01*
X189253946Y-138416054D01*
X189122733Y-138256172D01*
X189025233Y-138073763D01*
X189005220Y-138007787D01*
X188965193Y-137875836D01*
X188944920Y-137670000D01*
X188965193Y-137464164D01*
X189025233Y-137266238D01*
X189025233Y-137266237D01*
X189122733Y-137083828D01*
X189253946Y-136923946D01*
X189413828Y-136792733D01*
X189596237Y-136695233D01*
X189662213Y-136675220D01*
X189794164Y-136635193D01*
X189871293Y-136627597D01*
X189948420Y-136620000D01*
X190051580Y-136620000D01*
X190128707Y-136627597D01*
X190128707Y-136627597D01*
G37*
G36*
X186050000Y-136260000D02*
X183950000Y-136260000D01*
X183950000Y-134160000D01*
X186050000Y-134160000D01*
X186050000Y-136260000D01*
X186050000Y-136260000D01*
G37*
G36*
X190128707Y-134087597D02*
X190205836Y-134095193D01*
X190337787Y-134135220D01*
X190403763Y-134155233D01*
X190586172Y-134252733D01*
X190746054Y-134383946D01*
X190877267Y-134543828D01*
X190974767Y-134726237D01*
X190974767Y-134726238D01*
X191034807Y-134924164D01*
X191055080Y-135130000D01*
X191034807Y-135335836D01*
X190994780Y-135467787D01*
X190974767Y-135533763D01*
X190877267Y-135716172D01*
X190746054Y-135876054D01*
X190586172Y-136007267D01*
X190403763Y-136104767D01*
X190337787Y-136124780D01*
X190205836Y-136164807D01*
X190128707Y-136172404D01*
X190051580Y-136180000D01*
X189948420Y-136180000D01*
X189871293Y-136172404D01*
X189794164Y-136164807D01*
X189662213Y-136124780D01*
X189596237Y-136104767D01*
X189413828Y-136007267D01*
X189253946Y-135876054D01*
X189122733Y-135716172D01*
X189025233Y-135533763D01*
X189005220Y-135467787D01*
X188965193Y-135335836D01*
X188944920Y-135130000D01*
X188965193Y-134924164D01*
X189025233Y-134726238D01*
X189025233Y-134726237D01*
X189122733Y-134543828D01*
X189253946Y-134383946D01*
X189413828Y-134252733D01*
X189596237Y-134155233D01*
X189662213Y-134135220D01*
X189794164Y-134095193D01*
X189871293Y-134087597D01*
X189948420Y-134080000D01*
X190051580Y-134080000D01*
X190128707Y-134087597D01*
X190128707Y-134087597D01*
G37*
G36*
X156350026Y-132778115D02*
X156568412Y-132868573D01*
X156764958Y-132999901D01*
X156932099Y-133167042D01*
X157063427Y-133363588D01*
X157153885Y-133581974D01*
X157200000Y-133813809D01*
X157200000Y-134050191D01*
X157153885Y-134282026D01*
X157063427Y-134500412D01*
X156932099Y-134696958D01*
X156764958Y-134864099D01*
X156568412Y-134995427D01*
X156350026Y-135085885D01*
X156118191Y-135132000D01*
X155881809Y-135132000D01*
X155649974Y-135085885D01*
X155431588Y-134995427D01*
X155235042Y-134864099D01*
X155067901Y-134696958D01*
X154936573Y-134500412D01*
X154846115Y-134282026D01*
X154800000Y-134050191D01*
X154800000Y-133813809D01*
X154846115Y-133581974D01*
X154936573Y-133363588D01*
X155067901Y-133167042D01*
X155235042Y-132999901D01*
X155431588Y-132868573D01*
X155649974Y-132778115D01*
X155881809Y-132732000D01*
X156118191Y-132732000D01*
X156350026Y-132778115D01*
X156350026Y-132778115D01*
G37*
G36*
X160850026Y-132778115D02*
X161068412Y-132868573D01*
X161264958Y-132999901D01*
X161432099Y-133167042D01*
X161563427Y-133363588D01*
X161653885Y-133581974D01*
X161700000Y-133813809D01*
X161700000Y-134050191D01*
X161653885Y-134282026D01*
X161563427Y-134500412D01*
X161432099Y-134696958D01*
X161264958Y-134864099D01*
X161068412Y-134995427D01*
X160850026Y-135085885D01*
X160618191Y-135132000D01*
X160381809Y-135132000D01*
X160149974Y-135085885D01*
X159931588Y-134995427D01*
X159735042Y-134864099D01*
X159567901Y-134696958D01*
X159436573Y-134500412D01*
X159346115Y-134282026D01*
X159300000Y-134050191D01*
X159300000Y-133813809D01*
X159346115Y-133581974D01*
X159436573Y-133363588D01*
X159567901Y-133167042D01*
X159735042Y-132999901D01*
X159931588Y-132868573D01*
X160149974Y-132778115D01*
X160381809Y-132732000D01*
X160618191Y-132732000D01*
X160850026Y-132778115D01*
X160850026Y-132778115D01*
G37*
G36*
X169850026Y-132778115D02*
X170068412Y-132868573D01*
X170264958Y-132999901D01*
X170432099Y-133167042D01*
X170563427Y-133363588D01*
X170653885Y-133581974D01*
X170700000Y-133813809D01*
X170700000Y-134050191D01*
X170653885Y-134282026D01*
X170563427Y-134500412D01*
X170432099Y-134696958D01*
X170264958Y-134864099D01*
X170068412Y-134995427D01*
X169850026Y-135085885D01*
X169618191Y-135132000D01*
X169381809Y-135132000D01*
X169149974Y-135085885D01*
X168931588Y-134995427D01*
X168735042Y-134864099D01*
X168567901Y-134696958D01*
X168436573Y-134500412D01*
X168346115Y-134282026D01*
X168300000Y-134050191D01*
X168300000Y-133813809D01*
X168346115Y-133581974D01*
X168436573Y-133363588D01*
X168567901Y-133167042D01*
X168735042Y-132999901D01*
X168931588Y-132868573D01*
X169149974Y-132778115D01*
X169381809Y-132732000D01*
X169618191Y-132732000D01*
X169850026Y-132778115D01*
X169850026Y-132778115D01*
G37*
G36*
X174350026Y-132778115D02*
X174568412Y-132868573D01*
X174764958Y-132999901D01*
X174932099Y-133167042D01*
X175063427Y-133363588D01*
X175153885Y-133581974D01*
X175200000Y-133813809D01*
X175200000Y-134050191D01*
X175153885Y-134282026D01*
X175063427Y-134500412D01*
X174932099Y-134696958D01*
X174764958Y-134864099D01*
X174568412Y-134995427D01*
X174350026Y-135085885D01*
X174118191Y-135132000D01*
X173881809Y-135132000D01*
X173649974Y-135085885D01*
X173431588Y-134995427D01*
X173235042Y-134864099D01*
X173067901Y-134696958D01*
X172936573Y-134500412D01*
X172846115Y-134282026D01*
X172800000Y-134050191D01*
X172800000Y-133813809D01*
X172846115Y-133581974D01*
X172936573Y-133363588D01*
X173067901Y-133167042D01*
X173235042Y-132999901D01*
X173431588Y-132868573D01*
X173649974Y-132778115D01*
X173881809Y-132732000D01*
X174118191Y-132732000D01*
X174350026Y-132778115D01*
X174350026Y-132778115D01*
G37*
G36*
X165350026Y-132778115D02*
X165568412Y-132868573D01*
X165764958Y-132999901D01*
X165932099Y-133167042D01*
X166063427Y-133363588D01*
X166153885Y-133581974D01*
X166200000Y-133813809D01*
X166200000Y-134050191D01*
X166153885Y-134282026D01*
X166063427Y-134500412D01*
X165932099Y-134696958D01*
X165764958Y-134864099D01*
X165568412Y-134995427D01*
X165350026Y-135085885D01*
X165118191Y-135132000D01*
X164881809Y-135132000D01*
X164649974Y-135085885D01*
X164431588Y-134995427D01*
X164235042Y-134864099D01*
X164067901Y-134696958D01*
X163936573Y-134500412D01*
X163846115Y-134282026D01*
X163800000Y-134050191D01*
X163800000Y-133813809D01*
X163846115Y-133581974D01*
X163936573Y-133363588D01*
X164067901Y-133167042D01*
X164235042Y-132999901D01*
X164431588Y-132868573D01*
X164649974Y-132778115D01*
X164881809Y-132732000D01*
X165118191Y-132732000D01*
X165350026Y-132778115D01*
X165350026Y-132778115D01*
G37*
G36*
X178850026Y-132778115D02*
X179068412Y-132868573D01*
X179264958Y-132999901D01*
X179432099Y-133167042D01*
X179563427Y-133363588D01*
X179653885Y-133581974D01*
X179700000Y-133813809D01*
X179700000Y-134050191D01*
X179653885Y-134282026D01*
X179563427Y-134500412D01*
X179432099Y-134696958D01*
X179264958Y-134864099D01*
X179068412Y-134995427D01*
X178850026Y-135085885D01*
X178618191Y-135132000D01*
X178381809Y-135132000D01*
X178149974Y-135085885D01*
X177931588Y-134995427D01*
X177735042Y-134864099D01*
X177567901Y-134696958D01*
X177436573Y-134500412D01*
X177346115Y-134282026D01*
X177300000Y-134050191D01*
X177300000Y-133813809D01*
X177346115Y-133581974D01*
X177436573Y-133363588D01*
X177567901Y-133167042D01*
X177735042Y-132999901D01*
X177931588Y-132868573D01*
X178149974Y-132778115D01*
X178381809Y-132732000D01*
X178618191Y-132732000D01*
X178850026Y-132778115D01*
X178850026Y-132778115D01*
G37*
G36*
X185128707Y-131627597D02*
X185205836Y-131635193D01*
X185337787Y-131675220D01*
X185403763Y-131695233D01*
X185586172Y-131792733D01*
X185746054Y-131923946D01*
X185877267Y-132083828D01*
X185974767Y-132266237D01*
X185974767Y-132266238D01*
X186034807Y-132464164D01*
X186055080Y-132670000D01*
X186034807Y-132875836D01*
X185999035Y-132993762D01*
X185974767Y-133073763D01*
X185877267Y-133256172D01*
X185746054Y-133416054D01*
X185586172Y-133547267D01*
X185403763Y-133644767D01*
X185337787Y-133664780D01*
X185205836Y-133704807D01*
X185128707Y-133712403D01*
X185051580Y-133720000D01*
X184948420Y-133720000D01*
X184871293Y-133712403D01*
X184794164Y-133704807D01*
X184662213Y-133664780D01*
X184596237Y-133644767D01*
X184413828Y-133547267D01*
X184253946Y-133416054D01*
X184122733Y-133256172D01*
X184025233Y-133073763D01*
X184000965Y-132993762D01*
X183965193Y-132875836D01*
X183944920Y-132670000D01*
X183965193Y-132464164D01*
X184025233Y-132266238D01*
X184025233Y-132266237D01*
X184122733Y-132083828D01*
X184253946Y-131923946D01*
X184413828Y-131792733D01*
X184596237Y-131695233D01*
X184662213Y-131675220D01*
X184794164Y-131635193D01*
X184871293Y-131627597D01*
X184948420Y-131620000D01*
X185051580Y-131620000D01*
X185128707Y-131627597D01*
X185128707Y-131627597D01*
G37*
G36*
X190128707Y-131547596D02*
X190205836Y-131555193D01*
X190337787Y-131595220D01*
X190403763Y-131615233D01*
X190586172Y-131712733D01*
X190746054Y-131843946D01*
X190877267Y-132003828D01*
X190974767Y-132186237D01*
X190974767Y-132186238D01*
X191034807Y-132384164D01*
X191055080Y-132590000D01*
X191034807Y-132795836D01*
X191012742Y-132868574D01*
X190974767Y-132993763D01*
X190877267Y-133176172D01*
X190746054Y-133336054D01*
X190586172Y-133467267D01*
X190403763Y-133564767D01*
X190347041Y-133581973D01*
X190205836Y-133624807D01*
X190128707Y-133632404D01*
X190051580Y-133640000D01*
X189948420Y-133640000D01*
X189871293Y-133632404D01*
X189794164Y-133624807D01*
X189652959Y-133581973D01*
X189596237Y-133564767D01*
X189413828Y-133467267D01*
X189253946Y-133336054D01*
X189122733Y-133176172D01*
X189025233Y-132993763D01*
X188987258Y-132868574D01*
X188965193Y-132795836D01*
X188944920Y-132590000D01*
X188965193Y-132384164D01*
X189025233Y-132186238D01*
X189025233Y-132186237D01*
X189122733Y-132003828D01*
X189253946Y-131843946D01*
X189413828Y-131712733D01*
X189596237Y-131615233D01*
X189662213Y-131595220D01*
X189794164Y-131555193D01*
X189871293Y-131547596D01*
X189948420Y-131540000D01*
X190051580Y-131540000D01*
X190128707Y-131547596D01*
X190128707Y-131547596D01*
G37*
G36*
X187695000Y-126752000D02*
X183335000Y-126752000D01*
X183335000Y-124372000D01*
X187695000Y-124372000D01*
X187695000Y-126752000D01*
X187695000Y-126752000D01*
G37*
G36*
X136056525Y-122446777D02*
X136165149Y-122479728D01*
X136273773Y-122512678D01*
X136473991Y-122619697D01*
X136649477Y-122763714D01*
X136745494Y-122880712D01*
X136793501Y-122939209D01*
X136793502Y-122939211D01*
X136900519Y-123139425D01*
X136900519Y-123139426D01*
X136966420Y-123356672D01*
X136966420Y-123356674D01*
X136968698Y-123379803D01*
X136973479Y-123403837D01*
X136982856Y-123426476D01*
X136996470Y-123446850D01*
X137013797Y-123464177D01*
X137034172Y-123477791D01*
X137056811Y-123487169D01*
X137080844Y-123491949D01*
X137105348Y-123491949D01*
X137129382Y-123487168D01*
X137152021Y-123477791D01*
X137172395Y-123464177D01*
X137189722Y-123446850D01*
X137203336Y-123426475D01*
X137212714Y-123403836D01*
X137218096Y-123367551D01*
X137218096Y-122430101D01*
X139523096Y-122430101D01*
X139523096Y-124830101D01*
X137218096Y-124830101D01*
X137218096Y-123892652D01*
X137215694Y-123868266D01*
X137208581Y-123844817D01*
X137197030Y-123823206D01*
X137181484Y-123804264D01*
X137162542Y-123788718D01*
X137140931Y-123777167D01*
X137117482Y-123770054D01*
X137093096Y-123767652D01*
X137068710Y-123770054D01*
X137045261Y-123777167D01*
X137023650Y-123788718D01*
X137004708Y-123804264D01*
X136989162Y-123823206D01*
X136977611Y-123844817D01*
X136968698Y-123880400D01*
X136966420Y-123903529D01*
X136900519Y-124120778D01*
X136793500Y-124320996D01*
X136649483Y-124496482D01*
X136532485Y-124592499D01*
X136473988Y-124640506D01*
X136473986Y-124640507D01*
X136273772Y-124747524D01*
X136165148Y-124780474D01*
X136056524Y-124813425D01*
X135830596Y-124835677D01*
X135604667Y-124813425D01*
X135496043Y-124780474D01*
X135387419Y-124747524D01*
X135187201Y-124640505D01*
X135011715Y-124496488D01*
X134915698Y-124379490D01*
X134867691Y-124320993D01*
X134760674Y-124120778D01*
X134760673Y-124120777D01*
X134727722Y-124012152D01*
X134694772Y-123903529D01*
X134684994Y-123804252D01*
X134680213Y-123780218D01*
X134670836Y-123757579D01*
X134657222Y-123737205D01*
X134639895Y-123719878D01*
X134619520Y-123706264D01*
X134596881Y-123696886D01*
X134572848Y-123692106D01*
X134548344Y-123692106D01*
X134524310Y-123696887D01*
X134501671Y-123706264D01*
X134481297Y-123719878D01*
X134463970Y-123737205D01*
X134450356Y-123757580D01*
X134440978Y-123780219D01*
X134436198Y-123804252D01*
X134426420Y-123903529D01*
X134360519Y-124120778D01*
X134253500Y-124320996D01*
X134109483Y-124496482D01*
X133992485Y-124592499D01*
X133933988Y-124640506D01*
X133933986Y-124640507D01*
X133733772Y-124747524D01*
X133625148Y-124780474D01*
X133516524Y-124813425D01*
X133290596Y-124835677D01*
X133064667Y-124813425D01*
X132956043Y-124780474D01*
X132847419Y-124747524D01*
X132647201Y-124640505D01*
X132471715Y-124496488D01*
X132375698Y-124379490D01*
X132327691Y-124320993D01*
X132220674Y-124120778D01*
X132220673Y-124120777D01*
X132187722Y-124012152D01*
X132154772Y-123903529D01*
X132140397Y-123757579D01*
X132138096Y-123734216D01*
X132138096Y-123525985D01*
X132154772Y-123356673D01*
X132220673Y-123139424D01*
X132277876Y-123032406D01*
X132327691Y-122939208D01*
X132353517Y-122907739D01*
X132471713Y-122763717D01*
X132647202Y-122619697D01*
X132847420Y-122512678D01*
X132956044Y-122479728D01*
X133064668Y-122446777D01*
X133290596Y-122424525D01*
X133516525Y-122446777D01*
X133625149Y-122479728D01*
X133733773Y-122512678D01*
X133933991Y-122619697D01*
X134109477Y-122763714D01*
X134205494Y-122880712D01*
X134253501Y-122939209D01*
X134253502Y-122939211D01*
X134360519Y-123139425D01*
X134360519Y-123139426D01*
X134426420Y-123356672D01*
X134426420Y-123356674D01*
X134436198Y-123455950D01*
X134440979Y-123479984D01*
X134450356Y-123502623D01*
X134463970Y-123522997D01*
X134481297Y-123540324D01*
X134501672Y-123553938D01*
X134524311Y-123563316D01*
X134548344Y-123568096D01*
X134572848Y-123568096D01*
X134596882Y-123563315D01*
X134619521Y-123553938D01*
X134639895Y-123540324D01*
X134657222Y-123522997D01*
X134670836Y-123502622D01*
X134680214Y-123479983D01*
X134684994Y-123455950D01*
X134694772Y-123356673D01*
X134760673Y-123139424D01*
X134817876Y-123032406D01*
X134867691Y-122939208D01*
X134893517Y-122907739D01*
X135011713Y-122763717D01*
X135187202Y-122619697D01*
X135387420Y-122512678D01*
X135496044Y-122479728D01*
X135604668Y-122446777D01*
X135830596Y-122424525D01*
X136056525Y-122446777D01*
X136056525Y-122446777D01*
G37*
G36*
X98553338Y-122446777D02*
X98661962Y-122479728D01*
X98770586Y-122512678D01*
X98970804Y-122619697D01*
X99146290Y-122763714D01*
X99242307Y-122880712D01*
X99290314Y-122939209D01*
X99290315Y-122939211D01*
X99397332Y-123139425D01*
X99397332Y-123139426D01*
X99463233Y-123356672D01*
X99463233Y-123356674D01*
X99465511Y-123379803D01*
X99470292Y-123403837D01*
X99479669Y-123426476D01*
X99493283Y-123446850D01*
X99510610Y-123464177D01*
X99530985Y-123477791D01*
X99553624Y-123487169D01*
X99577657Y-123491949D01*
X99602161Y-123491949D01*
X99626195Y-123487168D01*
X99648834Y-123477791D01*
X99669208Y-123464177D01*
X99686535Y-123446850D01*
X99700149Y-123426475D01*
X99709527Y-123403836D01*
X99714909Y-123367551D01*
X99714909Y-122430101D01*
X102019909Y-122430101D01*
X102019909Y-124830101D01*
X99714909Y-124830101D01*
X99714909Y-123892652D01*
X99712507Y-123868266D01*
X99705394Y-123844817D01*
X99693843Y-123823206D01*
X99678297Y-123804264D01*
X99659355Y-123788718D01*
X99637744Y-123777167D01*
X99614295Y-123770054D01*
X99589909Y-123767652D01*
X99565523Y-123770054D01*
X99542074Y-123777167D01*
X99520463Y-123788718D01*
X99501521Y-123804264D01*
X99485975Y-123823206D01*
X99474424Y-123844817D01*
X99465511Y-123880400D01*
X99463233Y-123903529D01*
X99397332Y-124120778D01*
X99290313Y-124320996D01*
X99146296Y-124496482D01*
X99029298Y-124592499D01*
X98970801Y-124640506D01*
X98970799Y-124640507D01*
X98770585Y-124747524D01*
X98661961Y-124780474D01*
X98553337Y-124813425D01*
X98327409Y-124835677D01*
X98101480Y-124813425D01*
X97992856Y-124780474D01*
X97884232Y-124747524D01*
X97684014Y-124640505D01*
X97508528Y-124496488D01*
X97412511Y-124379490D01*
X97364504Y-124320993D01*
X97257487Y-124120778D01*
X97257486Y-124120777D01*
X97224535Y-124012152D01*
X97191585Y-123903529D01*
X97181807Y-123804252D01*
X97177026Y-123780218D01*
X97167649Y-123757579D01*
X97154035Y-123737205D01*
X97136708Y-123719878D01*
X97116333Y-123706264D01*
X97093694Y-123696886D01*
X97069661Y-123692106D01*
X97045157Y-123692106D01*
X97021123Y-123696887D01*
X96998484Y-123706264D01*
X96978110Y-123719878D01*
X96960783Y-123737205D01*
X96947169Y-123757580D01*
X96937791Y-123780219D01*
X96933011Y-123804252D01*
X96923233Y-123903529D01*
X96857332Y-124120778D01*
X96750313Y-124320996D01*
X96606296Y-124496482D01*
X96489298Y-124592499D01*
X96430801Y-124640506D01*
X96430799Y-124640507D01*
X96230585Y-124747524D01*
X96121961Y-124780474D01*
X96013337Y-124813425D01*
X95787409Y-124835677D01*
X95561480Y-124813425D01*
X95452856Y-124780474D01*
X95344232Y-124747524D01*
X95144014Y-124640505D01*
X94968528Y-124496488D01*
X94872511Y-124379490D01*
X94824504Y-124320993D01*
X94717487Y-124120778D01*
X94717486Y-124120777D01*
X94684535Y-124012152D01*
X94651585Y-123903529D01*
X94637210Y-123757579D01*
X94634909Y-123734216D01*
X94634909Y-123525985D01*
X94651585Y-123356673D01*
X94717486Y-123139424D01*
X94774689Y-123032406D01*
X94824504Y-122939208D01*
X94850330Y-122907739D01*
X94968526Y-122763717D01*
X95144015Y-122619697D01*
X95344233Y-122512678D01*
X95452857Y-122479728D01*
X95561481Y-122446777D01*
X95787409Y-122424525D01*
X96013338Y-122446777D01*
X96121962Y-122479728D01*
X96230586Y-122512678D01*
X96430804Y-122619697D01*
X96606290Y-122763714D01*
X96702307Y-122880712D01*
X96750314Y-122939209D01*
X96750315Y-122939211D01*
X96857332Y-123139425D01*
X96857332Y-123139426D01*
X96923233Y-123356672D01*
X96923233Y-123356674D01*
X96933011Y-123455950D01*
X96937792Y-123479984D01*
X96947169Y-123502623D01*
X96960783Y-123522997D01*
X96978110Y-123540324D01*
X96998485Y-123553938D01*
X97021124Y-123563316D01*
X97045157Y-123568096D01*
X97069661Y-123568096D01*
X97093695Y-123563315D01*
X97116334Y-123553938D01*
X97136708Y-123540324D01*
X97154035Y-123522997D01*
X97167649Y-123502622D01*
X97177027Y-123479983D01*
X97181807Y-123455950D01*
X97191585Y-123356673D01*
X97257486Y-123139424D01*
X97314689Y-123032406D01*
X97364504Y-122939208D01*
X97390330Y-122907739D01*
X97508526Y-122763717D01*
X97684015Y-122619697D01*
X97884233Y-122512678D01*
X97992857Y-122479728D01*
X98101481Y-122446777D01*
X98327409Y-122424525D01*
X98553338Y-122446777D01*
X98553338Y-122446777D01*
G37*
G36*
X148559714Y-122446777D02*
X148668338Y-122479728D01*
X148776962Y-122512678D01*
X148977180Y-122619697D01*
X149152666Y-122763714D01*
X149248683Y-122880712D01*
X149296690Y-122939209D01*
X149296691Y-122939211D01*
X149403708Y-123139425D01*
X149403708Y-123139426D01*
X149469609Y-123356672D01*
X149469609Y-123356674D01*
X149471887Y-123379803D01*
X149476668Y-123403837D01*
X149486045Y-123426476D01*
X149499659Y-123446850D01*
X149516986Y-123464177D01*
X149537361Y-123477791D01*
X149560000Y-123487169D01*
X149584033Y-123491949D01*
X149608537Y-123491949D01*
X149632571Y-123487168D01*
X149655210Y-123477791D01*
X149675584Y-123464177D01*
X149692911Y-123446850D01*
X149706525Y-123426475D01*
X149715903Y-123403836D01*
X149721285Y-123367551D01*
X149721285Y-122430101D01*
X152026285Y-122430101D01*
X152026285Y-124830101D01*
X149721285Y-124830101D01*
X149721285Y-123892652D01*
X149718883Y-123868266D01*
X149711770Y-123844817D01*
X149700219Y-123823206D01*
X149684673Y-123804264D01*
X149665731Y-123788718D01*
X149644120Y-123777167D01*
X149620671Y-123770054D01*
X149596285Y-123767652D01*
X149571899Y-123770054D01*
X149548450Y-123777167D01*
X149526839Y-123788718D01*
X149507897Y-123804264D01*
X149492351Y-123823206D01*
X149480800Y-123844817D01*
X149471887Y-123880400D01*
X149469609Y-123903529D01*
X149403708Y-124120778D01*
X149296689Y-124320996D01*
X149152672Y-124496482D01*
X149035674Y-124592499D01*
X148977177Y-124640506D01*
X148977175Y-124640507D01*
X148776961Y-124747524D01*
X148668337Y-124780474D01*
X148559713Y-124813425D01*
X148333785Y-124835677D01*
X148107856Y-124813425D01*
X147999232Y-124780474D01*
X147890608Y-124747524D01*
X147690390Y-124640505D01*
X147514904Y-124496488D01*
X147418887Y-124379490D01*
X147370880Y-124320993D01*
X147263863Y-124120778D01*
X147263862Y-124120777D01*
X147230911Y-124012152D01*
X147197961Y-123903529D01*
X147188183Y-123804252D01*
X147183402Y-123780218D01*
X147174025Y-123757579D01*
X147160411Y-123737205D01*
X147143084Y-123719878D01*
X147122709Y-123706264D01*
X147100070Y-123696886D01*
X147076037Y-123692106D01*
X147051533Y-123692106D01*
X147027499Y-123696887D01*
X147004860Y-123706264D01*
X146984486Y-123719878D01*
X146967159Y-123737205D01*
X146953545Y-123757580D01*
X146944167Y-123780219D01*
X146939387Y-123804252D01*
X146929609Y-123903529D01*
X146863708Y-124120778D01*
X146756689Y-124320996D01*
X146612672Y-124496482D01*
X146495674Y-124592499D01*
X146437177Y-124640506D01*
X146437175Y-124640507D01*
X146236961Y-124747524D01*
X146128337Y-124780474D01*
X146019713Y-124813425D01*
X145793785Y-124835677D01*
X145567856Y-124813425D01*
X145459232Y-124780474D01*
X145350608Y-124747524D01*
X145150390Y-124640505D01*
X144974904Y-124496488D01*
X144878887Y-124379490D01*
X144830880Y-124320993D01*
X144723863Y-124120778D01*
X144723862Y-124120777D01*
X144690911Y-124012152D01*
X144657961Y-123903529D01*
X144643586Y-123757579D01*
X144641285Y-123734216D01*
X144641285Y-123525985D01*
X144657961Y-123356673D01*
X144723862Y-123139424D01*
X144781065Y-123032406D01*
X144830880Y-122939208D01*
X144856706Y-122907739D01*
X144974902Y-122763717D01*
X145150391Y-122619697D01*
X145350609Y-122512678D01*
X145459233Y-122479728D01*
X145567857Y-122446777D01*
X145793785Y-122424525D01*
X146019714Y-122446777D01*
X146128338Y-122479728D01*
X146236962Y-122512678D01*
X146437180Y-122619697D01*
X146612666Y-122763714D01*
X146708683Y-122880712D01*
X146756690Y-122939209D01*
X146756691Y-122939211D01*
X146863708Y-123139425D01*
X146863708Y-123139426D01*
X146929609Y-123356672D01*
X146929609Y-123356674D01*
X146939387Y-123455950D01*
X146944168Y-123479984D01*
X146953545Y-123502623D01*
X146967159Y-123522997D01*
X146984486Y-123540324D01*
X147004861Y-123553938D01*
X147027500Y-123563316D01*
X147051533Y-123568096D01*
X147076037Y-123568096D01*
X147100071Y-123563315D01*
X147122710Y-123553938D01*
X147143084Y-123540324D01*
X147160411Y-123522997D01*
X147174025Y-123502622D01*
X147183403Y-123479983D01*
X147188183Y-123455950D01*
X147197961Y-123356673D01*
X147263862Y-123139424D01*
X147321065Y-123032406D01*
X147370880Y-122939208D01*
X147396706Y-122907739D01*
X147514902Y-122763717D01*
X147690391Y-122619697D01*
X147890609Y-122512678D01*
X147999233Y-122479728D01*
X148107857Y-122446777D01*
X148333785Y-122424525D01*
X148559714Y-122446777D01*
X148559714Y-122446777D01*
G37*
G36*
X123546964Y-122446777D02*
X123655588Y-122479728D01*
X123764212Y-122512678D01*
X123964430Y-122619697D01*
X124139916Y-122763714D01*
X124235933Y-122880712D01*
X124283940Y-122939209D01*
X124283941Y-122939211D01*
X124390958Y-123139425D01*
X124390958Y-123139426D01*
X124456859Y-123356672D01*
X124456859Y-123356674D01*
X124459137Y-123379803D01*
X124463918Y-123403837D01*
X124473295Y-123426476D01*
X124486909Y-123446850D01*
X124504236Y-123464177D01*
X124524611Y-123477791D01*
X124547250Y-123487169D01*
X124571283Y-123491949D01*
X124595787Y-123491949D01*
X124619821Y-123487168D01*
X124642460Y-123477791D01*
X124662834Y-123464177D01*
X124680161Y-123446850D01*
X124693775Y-123426475D01*
X124703153Y-123403836D01*
X124708535Y-123367551D01*
X124708535Y-122430101D01*
X127013535Y-122430101D01*
X127013535Y-124830101D01*
X124708535Y-124830101D01*
X124708535Y-123892652D01*
X124706133Y-123868266D01*
X124699020Y-123844817D01*
X124687469Y-123823206D01*
X124671923Y-123804264D01*
X124652981Y-123788718D01*
X124631370Y-123777167D01*
X124607921Y-123770054D01*
X124583535Y-123767652D01*
X124559149Y-123770054D01*
X124535700Y-123777167D01*
X124514089Y-123788718D01*
X124495147Y-123804264D01*
X124479601Y-123823206D01*
X124468050Y-123844817D01*
X124459137Y-123880400D01*
X124456859Y-123903529D01*
X124390958Y-124120778D01*
X124283939Y-124320996D01*
X124139922Y-124496482D01*
X124022924Y-124592499D01*
X123964427Y-124640506D01*
X123964425Y-124640507D01*
X123764211Y-124747524D01*
X123655587Y-124780474D01*
X123546963Y-124813425D01*
X123321035Y-124835677D01*
X123095106Y-124813425D01*
X122986482Y-124780474D01*
X122877858Y-124747524D01*
X122677640Y-124640505D01*
X122502154Y-124496488D01*
X122406137Y-124379490D01*
X122358130Y-124320993D01*
X122251113Y-124120778D01*
X122251112Y-124120777D01*
X122218161Y-124012152D01*
X122185211Y-123903529D01*
X122175433Y-123804252D01*
X122170652Y-123780218D01*
X122161275Y-123757579D01*
X122147661Y-123737205D01*
X122130334Y-123719878D01*
X122109959Y-123706264D01*
X122087320Y-123696886D01*
X122063287Y-123692106D01*
X122038783Y-123692106D01*
X122014749Y-123696887D01*
X121992110Y-123706264D01*
X121971736Y-123719878D01*
X121954409Y-123737205D01*
X121940795Y-123757580D01*
X121931417Y-123780219D01*
X121926637Y-123804252D01*
X121916859Y-123903529D01*
X121850958Y-124120778D01*
X121743939Y-124320996D01*
X121599922Y-124496482D01*
X121482924Y-124592499D01*
X121424427Y-124640506D01*
X121424425Y-124640507D01*
X121224211Y-124747524D01*
X121115587Y-124780474D01*
X121006963Y-124813425D01*
X120781035Y-124835677D01*
X120555106Y-124813425D01*
X120446482Y-124780474D01*
X120337858Y-124747524D01*
X120137640Y-124640505D01*
X119962154Y-124496488D01*
X119866137Y-124379490D01*
X119818130Y-124320993D01*
X119711113Y-124120778D01*
X119711112Y-124120777D01*
X119678161Y-124012152D01*
X119645211Y-123903529D01*
X119630836Y-123757579D01*
X119628535Y-123734216D01*
X119628535Y-123525985D01*
X119645211Y-123356673D01*
X119711112Y-123139424D01*
X119768315Y-123032406D01*
X119818130Y-122939208D01*
X119843956Y-122907739D01*
X119962152Y-122763717D01*
X120137641Y-122619697D01*
X120337859Y-122512678D01*
X120446483Y-122479728D01*
X120555107Y-122446777D01*
X120781035Y-122424525D01*
X121006964Y-122446777D01*
X121115588Y-122479728D01*
X121224212Y-122512678D01*
X121424430Y-122619697D01*
X121599916Y-122763714D01*
X121695933Y-122880712D01*
X121743940Y-122939209D01*
X121743941Y-122939211D01*
X121850958Y-123139425D01*
X121850958Y-123139426D01*
X121916859Y-123356672D01*
X121916859Y-123356674D01*
X121926637Y-123455950D01*
X121931418Y-123479984D01*
X121940795Y-123502623D01*
X121954409Y-123522997D01*
X121971736Y-123540324D01*
X121992111Y-123553938D01*
X122014750Y-123563316D01*
X122038783Y-123568096D01*
X122063287Y-123568096D01*
X122087321Y-123563315D01*
X122109960Y-123553938D01*
X122130334Y-123540324D01*
X122147661Y-123522997D01*
X122161275Y-123502622D01*
X122170653Y-123479983D01*
X122175433Y-123455950D01*
X122185211Y-123356673D01*
X122251112Y-123139424D01*
X122308315Y-123032406D01*
X122358130Y-122939208D01*
X122383956Y-122907739D01*
X122502152Y-122763717D01*
X122677641Y-122619697D01*
X122877859Y-122512678D01*
X122986483Y-122479728D01*
X123095107Y-122446777D01*
X123321035Y-122424525D01*
X123546964Y-122446777D01*
X123546964Y-122446777D01*
G37*
G36*
X111050151Y-122446777D02*
X111158775Y-122479728D01*
X111267399Y-122512678D01*
X111467617Y-122619697D01*
X111643103Y-122763714D01*
X111739120Y-122880712D01*
X111787127Y-122939209D01*
X111787128Y-122939211D01*
X111894145Y-123139425D01*
X111894145Y-123139426D01*
X111960046Y-123356672D01*
X111960046Y-123356674D01*
X111962324Y-123379803D01*
X111967105Y-123403837D01*
X111976482Y-123426476D01*
X111990096Y-123446850D01*
X112007423Y-123464177D01*
X112027798Y-123477791D01*
X112050437Y-123487169D01*
X112074470Y-123491949D01*
X112098974Y-123491949D01*
X112123008Y-123487168D01*
X112145647Y-123477791D01*
X112166021Y-123464177D01*
X112183348Y-123446850D01*
X112196962Y-123426475D01*
X112206340Y-123403836D01*
X112211722Y-123367551D01*
X112211722Y-122430101D01*
X114516722Y-122430101D01*
X114516722Y-124830101D01*
X112211722Y-124830101D01*
X112211722Y-123892652D01*
X112209320Y-123868266D01*
X112202207Y-123844817D01*
X112190656Y-123823206D01*
X112175110Y-123804264D01*
X112156168Y-123788718D01*
X112134557Y-123777167D01*
X112111108Y-123770054D01*
X112086722Y-123767652D01*
X112062336Y-123770054D01*
X112038887Y-123777167D01*
X112017276Y-123788718D01*
X111998334Y-123804264D01*
X111982788Y-123823206D01*
X111971237Y-123844817D01*
X111962324Y-123880400D01*
X111960046Y-123903529D01*
X111894145Y-124120778D01*
X111787126Y-124320996D01*
X111643109Y-124496482D01*
X111526111Y-124592499D01*
X111467614Y-124640506D01*
X111467612Y-124640507D01*
X111267398Y-124747524D01*
X111158774Y-124780474D01*
X111050150Y-124813425D01*
X110824222Y-124835677D01*
X110598293Y-124813425D01*
X110489669Y-124780474D01*
X110381045Y-124747524D01*
X110180827Y-124640505D01*
X110005341Y-124496488D01*
X109909324Y-124379490D01*
X109861317Y-124320993D01*
X109754300Y-124120778D01*
X109754299Y-124120777D01*
X109721348Y-124012152D01*
X109688398Y-123903529D01*
X109678620Y-123804252D01*
X109673839Y-123780218D01*
X109664462Y-123757579D01*
X109650848Y-123737205D01*
X109633521Y-123719878D01*
X109613146Y-123706264D01*
X109590507Y-123696886D01*
X109566474Y-123692106D01*
X109541970Y-123692106D01*
X109517936Y-123696887D01*
X109495297Y-123706264D01*
X109474923Y-123719878D01*
X109457596Y-123737205D01*
X109443982Y-123757580D01*
X109434604Y-123780219D01*
X109429824Y-123804252D01*
X109420046Y-123903529D01*
X109354145Y-124120778D01*
X109247126Y-124320996D01*
X109103109Y-124496482D01*
X108986111Y-124592499D01*
X108927614Y-124640506D01*
X108927612Y-124640507D01*
X108727398Y-124747524D01*
X108618774Y-124780474D01*
X108510150Y-124813425D01*
X108284222Y-124835677D01*
X108058293Y-124813425D01*
X107949669Y-124780474D01*
X107841045Y-124747524D01*
X107640827Y-124640505D01*
X107465341Y-124496488D01*
X107369324Y-124379490D01*
X107321317Y-124320993D01*
X107214300Y-124120778D01*
X107214299Y-124120777D01*
X107181348Y-124012152D01*
X107148398Y-123903529D01*
X107134023Y-123757579D01*
X107131722Y-123734216D01*
X107131722Y-123525985D01*
X107148398Y-123356673D01*
X107214299Y-123139424D01*
X107271502Y-123032406D01*
X107321317Y-122939208D01*
X107347143Y-122907739D01*
X107465339Y-122763717D01*
X107640828Y-122619697D01*
X107841046Y-122512678D01*
X107949670Y-122479728D01*
X108058294Y-122446777D01*
X108284222Y-122424525D01*
X108510151Y-122446777D01*
X108618775Y-122479728D01*
X108727399Y-122512678D01*
X108927617Y-122619697D01*
X109103103Y-122763714D01*
X109199120Y-122880712D01*
X109247127Y-122939209D01*
X109247128Y-122939211D01*
X109354145Y-123139425D01*
X109354145Y-123139426D01*
X109420046Y-123356672D01*
X109420046Y-123356674D01*
X109429824Y-123455950D01*
X109434605Y-123479984D01*
X109443982Y-123502623D01*
X109457596Y-123522997D01*
X109474923Y-123540324D01*
X109495298Y-123553938D01*
X109517937Y-123563316D01*
X109541970Y-123568096D01*
X109566474Y-123568096D01*
X109590508Y-123563315D01*
X109613147Y-123553938D01*
X109633521Y-123540324D01*
X109650848Y-123522997D01*
X109664462Y-123502622D01*
X109673840Y-123479983D01*
X109678620Y-123455950D01*
X109688398Y-123356673D01*
X109754299Y-123139424D01*
X109811502Y-123032406D01*
X109861317Y-122939208D01*
X109887143Y-122907739D01*
X110005339Y-122763717D01*
X110180828Y-122619697D01*
X110381046Y-122512678D01*
X110489670Y-122479728D01*
X110598294Y-122446777D01*
X110824222Y-122424525D01*
X111050151Y-122446777D01*
X111050151Y-122446777D01*
G37*
G36*
X186598418Y-119375444D02*
X186738281Y-119389219D01*
X186962596Y-119457265D01*
X187169327Y-119567764D01*
X187350528Y-119716472D01*
X187499236Y-119897673D01*
X187609735Y-120104404D01*
X187677781Y-120328719D01*
X187700757Y-120562000D01*
X187677781Y-120795281D01*
X187609735Y-121019596D01*
X187499236Y-121226327D01*
X187350528Y-121407528D01*
X187169327Y-121556236D01*
X186962596Y-121666735D01*
X186738281Y-121734781D01*
X186598418Y-121748556D01*
X186563453Y-121752000D01*
X184466547Y-121752000D01*
X184431582Y-121748556D01*
X184291719Y-121734781D01*
X184067404Y-121666735D01*
X183860673Y-121556236D01*
X183679472Y-121407528D01*
X183530764Y-121226327D01*
X183420265Y-121019596D01*
X183352219Y-120795281D01*
X183329243Y-120562000D01*
X183352219Y-120328719D01*
X183420265Y-120104404D01*
X183530764Y-119897673D01*
X183679472Y-119716472D01*
X183860673Y-119567764D01*
X184067404Y-119457265D01*
X184291719Y-119389219D01*
X184431582Y-119375444D01*
X184466547Y-119372000D01*
X186563453Y-119372000D01*
X186598418Y-119375444D01*
X186598418Y-119375444D01*
G37*
G36*
X105215398Y-113978126D02*
X105386472Y-114030021D01*
X105544121Y-114114286D01*
X105682307Y-114227693D01*
X105795714Y-114365879D01*
X105879979Y-114523528D01*
X105931874Y-114694602D01*
X105950000Y-114878640D01*
X105950000Y-116941360D01*
X105931874Y-117125398D01*
X105879979Y-117296472D01*
X105795714Y-117454121D01*
X105682307Y-117592307D01*
X105544121Y-117705714D01*
X105386472Y-117789979D01*
X105215398Y-117841874D01*
X105031360Y-117860000D01*
X102968640Y-117860000D01*
X102784602Y-117841874D01*
X102613528Y-117789979D01*
X102455879Y-117705714D01*
X102317693Y-117592307D01*
X102204286Y-117454121D01*
X102120021Y-117296472D01*
X102068126Y-117125398D01*
X102050000Y-116941360D01*
X102050000Y-114878640D01*
X102068126Y-114694602D01*
X102120021Y-114523528D01*
X102204286Y-114365879D01*
X102317693Y-114227693D01*
X102455879Y-114114286D01*
X102613528Y-114030021D01*
X102784602Y-113978126D01*
X102968640Y-113960000D01*
X105031360Y-113960000D01*
X105215398Y-113978126D01*
X105215398Y-113978126D01*
G37*
G36*
X187695000Y-116592000D02*
X183335000Y-116592000D01*
X183335000Y-114212000D01*
X187695000Y-114212000D01*
X187695000Y-116592000D01*
X187695000Y-116592000D01*
G37*
G36*
X134891848Y-109554597D02*
X134950358Y-109572347D01*
X135004277Y-109601167D01*
X135051543Y-109639957D01*
X135090333Y-109687223D01*
X135119153Y-109741142D01*
X135136903Y-109799652D01*
X135143500Y-109866639D01*
X135143500Y-111429360D01*
X135138439Y-111480748D01*
X135138439Y-111505253D01*
X135143220Y-111529286D01*
X135152597Y-111551925D01*
X135166211Y-111572300D01*
X135183538Y-111589627D01*
X135203913Y-111603240D01*
X135226552Y-111612618D01*
X135262837Y-111618000D01*
X136058500Y-111618000D01*
X136082886Y-111615598D01*
X136106335Y-111608485D01*
X136127946Y-111596934D01*
X136146888Y-111581388D01*
X136162434Y-111562446D01*
X136173985Y-111540835D01*
X136181098Y-111517386D01*
X136183500Y-111493000D01*
X136183500Y-109548000D01*
X137683500Y-109548000D01*
X137683500Y-111748000D01*
X136532837Y-111748000D01*
X136508451Y-111750402D01*
X136485002Y-111757515D01*
X136463391Y-111769066D01*
X136444449Y-111784612D01*
X136428903Y-111803554D01*
X136417352Y-111825165D01*
X136410239Y-111848614D01*
X136408439Y-111885252D01*
X136413500Y-111936640D01*
X136413500Y-113499361D01*
X136406903Y-113566348D01*
X136389153Y-113624858D01*
X136360333Y-113678777D01*
X136321543Y-113726043D01*
X136274277Y-113764833D01*
X136220358Y-113793653D01*
X136161848Y-113811403D01*
X136094861Y-113818000D01*
X135232139Y-113818000D01*
X135165152Y-113811403D01*
X135106642Y-113793653D01*
X135052723Y-113764833D01*
X135005457Y-113726043D01*
X134966667Y-113678777D01*
X134937847Y-113624858D01*
X134920097Y-113566348D01*
X134913500Y-113499361D01*
X134913500Y-111936640D01*
X134918561Y-111885252D01*
X134918561Y-111860747D01*
X134913780Y-111836714D01*
X134904403Y-111814075D01*
X134890789Y-111793700D01*
X134873462Y-111776373D01*
X134853087Y-111762760D01*
X134830448Y-111753382D01*
X134794163Y-111748000D01*
X133962139Y-111748000D01*
X133895152Y-111741403D01*
X133836642Y-111723653D01*
X133782723Y-111694833D01*
X133735457Y-111656043D01*
X133696667Y-111608777D01*
X133667847Y-111554858D01*
X133650097Y-111496348D01*
X133643500Y-111429361D01*
X133643500Y-109866639D01*
X133650097Y-109799652D01*
X133667847Y-109741142D01*
X133696667Y-109687223D01*
X133735457Y-109639957D01*
X133782723Y-109601167D01*
X133836642Y-109572347D01*
X133895152Y-109554597D01*
X133962139Y-109548000D01*
X134824861Y-109548000D01*
X134891848Y-109554597D01*
X134891848Y-109554597D01*
G37*
G36*
X147668707Y-111167597D02*
X147745836Y-111175193D01*
X147877787Y-111215220D01*
X147943763Y-111235233D01*
X148126172Y-111332733D01*
X148286054Y-111463946D01*
X148417267Y-111623828D01*
X148514767Y-111806237D01*
X148524012Y-111836714D01*
X148574807Y-112004164D01*
X148595080Y-112210000D01*
X148574807Y-112415836D01*
X148556609Y-112475827D01*
X148514767Y-112613763D01*
X148417267Y-112796172D01*
X148286054Y-112956054D01*
X148126172Y-113087267D01*
X147943763Y-113184767D01*
X147877787Y-113204780D01*
X147745836Y-113244807D01*
X147668707Y-113252404D01*
X147591580Y-113260000D01*
X147488420Y-113260000D01*
X147411293Y-113252404D01*
X147334164Y-113244807D01*
X147202213Y-113204780D01*
X147136237Y-113184767D01*
X146953828Y-113087267D01*
X146793946Y-112956054D01*
X146662733Y-112796172D01*
X146565233Y-112613763D01*
X146523391Y-112475827D01*
X146505193Y-112415836D01*
X146484920Y-112210000D01*
X146505193Y-112004164D01*
X146555988Y-111836714D01*
X146565233Y-111806237D01*
X146662733Y-111623828D01*
X146793946Y-111463946D01*
X146953828Y-111332733D01*
X147136237Y-111235233D01*
X147202213Y-111215220D01*
X147334164Y-111175193D01*
X147411293Y-111167597D01*
X147488420Y-111160000D01*
X147591580Y-111160000D01*
X147668707Y-111167597D01*
X147668707Y-111167597D01*
G37*
G36*
X150208707Y-111167597D02*
X150285836Y-111175193D01*
X150417787Y-111215220D01*
X150483763Y-111235233D01*
X150666172Y-111332733D01*
X150826054Y-111463946D01*
X150957267Y-111623828D01*
X151054767Y-111806237D01*
X151064012Y-111836714D01*
X151114807Y-112004164D01*
X151135080Y-112210000D01*
X151114807Y-112415836D01*
X151096609Y-112475827D01*
X151054767Y-112613763D01*
X150957267Y-112796172D01*
X150826054Y-112956054D01*
X150666172Y-113087267D01*
X150483763Y-113184767D01*
X150417787Y-113204780D01*
X150285836Y-113244807D01*
X150208707Y-113252404D01*
X150131580Y-113260000D01*
X150028420Y-113260000D01*
X149951293Y-113252404D01*
X149874164Y-113244807D01*
X149742213Y-113204780D01*
X149676237Y-113184767D01*
X149493828Y-113087267D01*
X149333946Y-112956054D01*
X149202733Y-112796172D01*
X149105233Y-112613763D01*
X149063391Y-112475827D01*
X149045193Y-112415836D01*
X149024920Y-112210000D01*
X149045193Y-112004164D01*
X149095988Y-111836714D01*
X149105233Y-111806237D01*
X149202733Y-111623828D01*
X149333946Y-111463946D01*
X149493828Y-111332733D01*
X149676237Y-111235233D01*
X149742213Y-111215220D01*
X149874164Y-111175193D01*
X149951293Y-111167597D01*
X150028420Y-111160000D01*
X150131580Y-111160000D01*
X150208707Y-111167597D01*
X150208707Y-111167597D01*
G37*
G36*
X146050000Y-113260000D02*
X143950000Y-113260000D01*
X143950000Y-111160000D01*
X146050000Y-111160000D01*
X146050000Y-113260000D01*
X146050000Y-113260000D01*
G37*
G36*
X102066017Y-109275724D02*
X102213630Y-109320503D01*
X102349677Y-109393222D01*
X102468919Y-109491081D01*
X102566778Y-109610323D01*
X102639497Y-109746370D01*
X102684276Y-109893983D01*
X102700000Y-110053640D01*
X102700000Y-112366360D01*
X102684276Y-112526017D01*
X102639497Y-112673630D01*
X102566778Y-112809677D01*
X102468919Y-112928919D01*
X102349677Y-113026778D01*
X102213630Y-113099497D01*
X102066017Y-113144276D01*
X101906360Y-113160000D01*
X100093640Y-113160000D01*
X99933983Y-113144276D01*
X99786370Y-113099497D01*
X99650323Y-113026778D01*
X99531081Y-112928919D01*
X99433222Y-112809677D01*
X99360503Y-112673630D01*
X99315724Y-112526017D01*
X99300000Y-112366360D01*
X99300000Y-110053640D01*
X99315724Y-109893983D01*
X99360503Y-109746370D01*
X99433222Y-109610323D01*
X99531081Y-109491081D01*
X99650323Y-109393222D01*
X99786370Y-109320503D01*
X99933983Y-109275724D01*
X100093640Y-109260000D01*
X101906360Y-109260000D01*
X102066017Y-109275724D01*
X102066017Y-109275724D01*
G37*
G36*
X108950000Y-113160000D02*
X105050000Y-113160000D01*
X105050000Y-109260000D01*
X108950000Y-109260000D01*
X108950000Y-113160000D01*
X108950000Y-113160000D01*
G37*
G36*
X186598418Y-109215444D02*
X186738281Y-109229219D01*
X186962596Y-109297265D01*
X187169327Y-109407764D01*
X187350528Y-109556472D01*
X187499236Y-109737673D01*
X187609735Y-109944404D01*
X187677781Y-110168719D01*
X187700757Y-110402000D01*
X187677781Y-110635281D01*
X187609735Y-110859596D01*
X187499236Y-111066327D01*
X187350528Y-111247528D01*
X187169327Y-111396236D01*
X186962596Y-111506735D01*
X186738281Y-111574781D01*
X186598418Y-111588556D01*
X186563453Y-111592000D01*
X184466547Y-111592000D01*
X184431582Y-111588556D01*
X184291719Y-111574781D01*
X184067404Y-111506735D01*
X183860673Y-111396236D01*
X183679472Y-111247528D01*
X183530764Y-111066327D01*
X183420265Y-110859596D01*
X183352219Y-110635281D01*
X183329243Y-110402000D01*
X183352219Y-110168719D01*
X183420265Y-109944404D01*
X183530764Y-109737673D01*
X183679472Y-109556472D01*
X183860673Y-109407764D01*
X184067404Y-109297265D01*
X184291719Y-109229219D01*
X184431582Y-109215444D01*
X184466547Y-109212000D01*
X186563453Y-109212000D01*
X186598418Y-109215444D01*
X186598418Y-109215444D01*
G37*
G36*
X187695000Y-106432000D02*
X183335000Y-106432000D01*
X183335000Y-104052000D01*
X187695000Y-104052000D01*
X187695000Y-106432000D01*
X187695000Y-106432000D01*
G37*
G36*
X95242149Y-103037717D02*
X95281327Y-103041576D01*
X95356728Y-103064449D01*
X95432129Y-103087321D01*
X95571108Y-103161608D01*
X95692922Y-103261578D01*
X95792892Y-103383392D01*
X95867179Y-103522371D01*
X95912924Y-103673174D01*
X95928370Y-103830000D01*
X95912924Y-103986826D01*
X95867179Y-104137629D01*
X95792892Y-104276608D01*
X95692922Y-104398422D01*
X95571108Y-104498392D01*
X95432129Y-104572679D01*
X95356727Y-104595552D01*
X95281327Y-104618424D01*
X95242149Y-104622283D01*
X95163795Y-104630000D01*
X94385205Y-104630000D01*
X94306851Y-104622283D01*
X94267673Y-104618424D01*
X94192273Y-104595552D01*
X94116871Y-104572679D01*
X93977892Y-104498392D01*
X93856078Y-104398422D01*
X93756108Y-104276608D01*
X93681821Y-104137629D01*
X93636076Y-103986826D01*
X93620630Y-103830000D01*
X93636076Y-103673174D01*
X93681821Y-103522371D01*
X93756108Y-103383392D01*
X93856078Y-103261578D01*
X93977892Y-103161608D01*
X94116871Y-103087321D01*
X94192272Y-103064449D01*
X94267673Y-103041576D01*
X94306851Y-103037717D01*
X94385205Y-103030000D01*
X95163795Y-103030000D01*
X95242149Y-103037717D01*
X95242149Y-103037717D01*
G37*
G36*
X97744311Y-101940546D02*
X97744314Y-101940547D01*
X97744313Y-101940547D01*
X97912652Y-102010275D01*
X97912653Y-102010276D01*
X98064156Y-102111507D01*
X98192993Y-102240344D01*
X98192995Y-102240347D01*
X98294225Y-102391848D01*
X98348157Y-102522052D01*
X98363954Y-102560189D01*
X98399500Y-102738894D01*
X98399500Y-102921106D01*
X98363954Y-103099811D01*
X98363953Y-103099813D01*
X98294225Y-103268152D01*
X98194360Y-103417611D01*
X98192993Y-103419656D01*
X98064156Y-103548493D01*
X98064153Y-103548495D01*
X97912652Y-103649725D01*
X97782448Y-103703657D01*
X97744311Y-103719454D01*
X97565606Y-103755000D01*
X97383394Y-103755000D01*
X97204689Y-103719454D01*
X97166552Y-103703657D01*
X97036348Y-103649725D01*
X96884847Y-103548495D01*
X96884844Y-103548493D01*
X96756007Y-103419656D01*
X96754640Y-103417611D01*
X96654775Y-103268152D01*
X96585047Y-103099813D01*
X96585046Y-103099811D01*
X96549500Y-102921106D01*
X96549500Y-102738894D01*
X96585046Y-102560189D01*
X96600843Y-102522052D01*
X96654775Y-102391848D01*
X96756005Y-102240347D01*
X96756007Y-102240344D01*
X96884844Y-102111507D01*
X97036347Y-102010276D01*
X97036348Y-102010275D01*
X97204687Y-101940547D01*
X97204686Y-101940547D01*
X97204689Y-101940546D01*
X97383394Y-101905000D01*
X97565606Y-101905000D01*
X97744311Y-101940546D01*
X97744311Y-101940546D01*
G37*
G36*
X186598418Y-99055444D02*
X186738281Y-99069219D01*
X186962596Y-99137265D01*
X187169327Y-99247764D01*
X187350528Y-99396472D01*
X187499236Y-99577673D01*
X187609735Y-99784404D01*
X187677781Y-100008719D01*
X187700757Y-100242000D01*
X187677781Y-100475281D01*
X187609735Y-100699596D01*
X187499236Y-100906327D01*
X187350528Y-101087528D01*
X187169327Y-101236236D01*
X186962596Y-101346735D01*
X186738281Y-101414781D01*
X186598418Y-101428556D01*
X186563453Y-101432000D01*
X184466547Y-101432000D01*
X184431582Y-101428556D01*
X184291719Y-101414781D01*
X184067404Y-101346735D01*
X183860673Y-101236236D01*
X183679472Y-101087528D01*
X183530764Y-100906327D01*
X183420265Y-100699596D01*
X183352219Y-100475281D01*
X183329243Y-100242000D01*
X183352219Y-100008719D01*
X183420265Y-99784404D01*
X183530764Y-99577673D01*
X183679472Y-99396472D01*
X183860673Y-99247764D01*
X184067404Y-99137265D01*
X184291719Y-99069219D01*
X184431582Y-99055444D01*
X184466547Y-99052000D01*
X186563453Y-99052000D01*
X186598418Y-99055444D01*
X186598418Y-99055444D01*
G37*
G36*
X97744311Y-96940546D02*
X97744314Y-96940547D01*
X97744313Y-96940547D01*
X97912652Y-97010275D01*
X97912653Y-97010276D01*
X98064156Y-97111507D01*
X98192993Y-97240344D01*
X98192995Y-97240347D01*
X98294225Y-97391848D01*
X98338357Y-97498392D01*
X98363954Y-97560189D01*
X98399500Y-97738894D01*
X98399500Y-97921106D01*
X98363954Y-98099811D01*
X98363953Y-98099813D01*
X98294225Y-98268152D01*
X98294224Y-98268153D01*
X98192993Y-98419656D01*
X98064156Y-98548493D01*
X98064153Y-98548495D01*
X97912652Y-98649725D01*
X97782448Y-98703657D01*
X97744311Y-98719454D01*
X97565606Y-98755000D01*
X97383394Y-98755000D01*
X97204689Y-98719454D01*
X97166552Y-98703657D01*
X97036348Y-98649725D01*
X96884847Y-98548495D01*
X96884844Y-98548493D01*
X96756007Y-98419656D01*
X96654776Y-98268153D01*
X96654775Y-98268152D01*
X96585047Y-98099813D01*
X96585046Y-98099811D01*
X96549500Y-97921106D01*
X96549500Y-97738894D01*
X96585046Y-97560189D01*
X96610643Y-97498392D01*
X96654775Y-97391848D01*
X96756005Y-97240347D01*
X96756007Y-97240344D01*
X96884844Y-97111507D01*
X97036347Y-97010276D01*
X97036348Y-97010275D01*
X97204687Y-96940547D01*
X97204686Y-96940547D01*
X97204689Y-96940546D01*
X97383394Y-96905000D01*
X97565606Y-96905000D01*
X97744311Y-96940546D01*
X97744311Y-96940546D01*
G37*
G36*
X95242149Y-96037717D02*
X95281327Y-96041576D01*
X95356728Y-96064449D01*
X95432129Y-96087321D01*
X95571108Y-96161608D01*
X95692922Y-96261578D01*
X95792892Y-96383392D01*
X95867179Y-96522371D01*
X95912924Y-96673174D01*
X95928370Y-96830000D01*
X95912924Y-96986826D01*
X95867179Y-97137629D01*
X95792892Y-97276608D01*
X95692922Y-97398422D01*
X95571108Y-97498392D01*
X95432129Y-97572679D01*
X95356727Y-97595552D01*
X95281327Y-97618424D01*
X95242149Y-97622283D01*
X95163795Y-97630000D01*
X94385205Y-97630000D01*
X94306851Y-97622283D01*
X94267673Y-97618424D01*
X94192273Y-97595552D01*
X94116871Y-97572679D01*
X93977892Y-97498392D01*
X93856078Y-97398422D01*
X93756108Y-97276608D01*
X93681821Y-97137629D01*
X93636076Y-96986826D01*
X93620630Y-96830000D01*
X93636076Y-96673174D01*
X93681821Y-96522371D01*
X93756108Y-96383392D01*
X93856078Y-96261578D01*
X93977892Y-96161608D01*
X94116871Y-96087321D01*
X94192272Y-96064449D01*
X94267673Y-96041576D01*
X94306851Y-96037717D01*
X94385205Y-96030000D01*
X95163795Y-96030000D01*
X95242149Y-96037717D01*
X95242149Y-96037717D01*
G37*
G36*
X136212859Y-88368315D02*
X136212862Y-88368316D01*
X136212863Y-88368316D01*
X136580439Y-88479819D01*
X136919200Y-88660890D01*
X137216126Y-88904571D01*
X137459807Y-89201497D01*
X137640878Y-89540258D01*
X137679338Y-89667045D01*
X137752382Y-89907838D01*
X137790031Y-90290101D01*
X137752382Y-90672364D01*
X137752381Y-90672367D01*
X137752381Y-90672368D01*
X137640878Y-91039944D01*
X137459807Y-91378705D01*
X137216126Y-91675631D01*
X136919200Y-91919312D01*
X136580439Y-92100383D01*
X136212863Y-92211886D01*
X136212862Y-92211886D01*
X136212859Y-92211887D01*
X135926395Y-92240101D01*
X135734797Y-92240101D01*
X135448333Y-92211887D01*
X135448330Y-92211886D01*
X135448329Y-92211886D01*
X135080753Y-92100383D01*
X134741992Y-91919312D01*
X134445066Y-91675631D01*
X134201385Y-91378705D01*
X134020314Y-91039944D01*
X133908811Y-90672368D01*
X133908811Y-90672367D01*
X133908810Y-90672364D01*
X133871161Y-90290101D01*
X133908810Y-89907838D01*
X133981854Y-89667045D01*
X134020314Y-89540258D01*
X134201385Y-89201497D01*
X134445066Y-88904571D01*
X134741992Y-88660890D01*
X135080753Y-88479819D01*
X135448329Y-88368316D01*
X135448330Y-88368316D01*
X135448333Y-88368315D01*
X135734797Y-88340101D01*
X135926395Y-88340101D01*
X136212859Y-88368315D01*
X136212859Y-88368315D01*
G37*
G36*
X98709672Y-88368315D02*
X98709675Y-88368316D01*
X98709676Y-88368316D01*
X99077252Y-88479819D01*
X99416013Y-88660890D01*
X99712939Y-88904571D01*
X99956620Y-89201497D01*
X100137691Y-89540258D01*
X100176151Y-89667045D01*
X100249195Y-89907838D01*
X100286844Y-90290101D01*
X100249195Y-90672364D01*
X100249194Y-90672367D01*
X100249194Y-90672368D01*
X100137691Y-91039944D01*
X99956620Y-91378705D01*
X99712939Y-91675631D01*
X99416013Y-91919312D01*
X99077252Y-92100383D01*
X98709676Y-92211886D01*
X98709675Y-92211886D01*
X98709672Y-92211887D01*
X98423208Y-92240101D01*
X98231610Y-92240101D01*
X97945146Y-92211887D01*
X97945143Y-92211886D01*
X97945142Y-92211886D01*
X97577566Y-92100383D01*
X97238805Y-91919312D01*
X96941879Y-91675631D01*
X96698198Y-91378705D01*
X96517127Y-91039944D01*
X96405624Y-90672368D01*
X96405624Y-90672367D01*
X96405623Y-90672364D01*
X96367974Y-90290101D01*
X96405623Y-89907838D01*
X96478667Y-89667045D01*
X96517127Y-89540258D01*
X96698198Y-89201497D01*
X96941879Y-88904571D01*
X97238805Y-88660890D01*
X97577566Y-88479819D01*
X97945142Y-88368316D01*
X97945143Y-88368316D01*
X97945146Y-88368315D01*
X98231610Y-88340101D01*
X98423208Y-88340101D01*
X98709672Y-88368315D01*
X98709672Y-88368315D01*
G37*
G36*
X111206485Y-88368315D02*
X111206488Y-88368316D01*
X111206489Y-88368316D01*
X111574065Y-88479819D01*
X111912826Y-88660890D01*
X112209752Y-88904571D01*
X112453433Y-89201497D01*
X112634504Y-89540258D01*
X112672964Y-89667045D01*
X112746008Y-89907838D01*
X112783657Y-90290101D01*
X112746008Y-90672364D01*
X112746007Y-90672367D01*
X112746007Y-90672368D01*
X112634504Y-91039944D01*
X112453433Y-91378705D01*
X112209752Y-91675631D01*
X111912826Y-91919312D01*
X111574065Y-92100383D01*
X111206489Y-92211886D01*
X111206488Y-92211886D01*
X111206485Y-92211887D01*
X110920021Y-92240101D01*
X110728423Y-92240101D01*
X110441959Y-92211887D01*
X110441956Y-92211886D01*
X110441955Y-92211886D01*
X110074379Y-92100383D01*
X109735618Y-91919312D01*
X109438692Y-91675631D01*
X109195011Y-91378705D01*
X109013940Y-91039944D01*
X108902437Y-90672368D01*
X108902437Y-90672367D01*
X108902436Y-90672364D01*
X108864787Y-90290101D01*
X108902436Y-89907838D01*
X108975480Y-89667045D01*
X109013940Y-89540258D01*
X109195011Y-89201497D01*
X109438692Y-88904571D01*
X109735618Y-88660890D01*
X110074379Y-88479819D01*
X110441955Y-88368316D01*
X110441956Y-88368316D01*
X110441959Y-88368315D01*
X110728423Y-88340101D01*
X110920021Y-88340101D01*
X111206485Y-88368315D01*
X111206485Y-88368315D01*
G37*
G36*
X148716048Y-88368315D02*
X148716051Y-88368316D01*
X148716052Y-88368316D01*
X149083628Y-88479819D01*
X149422389Y-88660890D01*
X149719315Y-88904571D01*
X149962996Y-89201497D01*
X150144067Y-89540258D01*
X150182527Y-89667045D01*
X150255571Y-89907838D01*
X150293220Y-90290101D01*
X150255571Y-90672364D01*
X150255570Y-90672367D01*
X150255570Y-90672368D01*
X150144067Y-91039944D01*
X149962996Y-91378705D01*
X149719315Y-91675631D01*
X149422389Y-91919312D01*
X149083628Y-92100383D01*
X148716052Y-92211886D01*
X148716051Y-92211886D01*
X148716048Y-92211887D01*
X148429584Y-92240101D01*
X148237986Y-92240101D01*
X147951522Y-92211887D01*
X147951519Y-92211886D01*
X147951518Y-92211886D01*
X147583942Y-92100383D01*
X147245181Y-91919312D01*
X146948255Y-91675631D01*
X146704574Y-91378705D01*
X146523503Y-91039944D01*
X146412000Y-90672368D01*
X146412000Y-90672367D01*
X146411999Y-90672364D01*
X146374350Y-90290101D01*
X146411999Y-89907838D01*
X146485043Y-89667045D01*
X146523503Y-89540258D01*
X146704574Y-89201497D01*
X146948255Y-88904571D01*
X147245181Y-88660890D01*
X147583942Y-88479819D01*
X147951518Y-88368316D01*
X147951519Y-88368316D01*
X147951522Y-88368315D01*
X148237986Y-88340101D01*
X148429584Y-88340101D01*
X148716048Y-88368315D01*
X148716048Y-88368315D01*
G37*
G36*
X123703298Y-88368315D02*
X123703301Y-88368316D01*
X123703302Y-88368316D01*
X124070878Y-88479819D01*
X124409639Y-88660890D01*
X124706565Y-88904571D01*
X124950246Y-89201497D01*
X125131317Y-89540258D01*
X125169777Y-89667045D01*
X125242821Y-89907838D01*
X125280470Y-90290101D01*
X125242821Y-90672364D01*
X125242820Y-90672367D01*
X125242820Y-90672368D01*
X125131317Y-91039944D01*
X124950246Y-91378705D01*
X124706565Y-91675631D01*
X124409639Y-91919312D01*
X124070878Y-92100383D01*
X123703302Y-92211886D01*
X123703301Y-92211886D01*
X123703298Y-92211887D01*
X123416834Y-92240101D01*
X123225236Y-92240101D01*
X122938772Y-92211887D01*
X122938769Y-92211886D01*
X122938768Y-92211886D01*
X122571192Y-92100383D01*
X122232431Y-91919312D01*
X121935505Y-91675631D01*
X121691824Y-91378705D01*
X121510753Y-91039944D01*
X121399250Y-90672368D01*
X121399250Y-90672367D01*
X121399249Y-90672364D01*
X121361600Y-90290101D01*
X121399249Y-89907838D01*
X121472293Y-89667045D01*
X121510753Y-89540258D01*
X121691824Y-89201497D01*
X121935505Y-88904571D01*
X122232431Y-88660890D01*
X122571192Y-88479819D01*
X122938768Y-88368316D01*
X122938769Y-88368316D01*
X122938772Y-88368315D01*
X123225236Y-88340101D01*
X123416834Y-88340101D01*
X123703298Y-88368315D01*
X123703298Y-88368315D01*
G37*
G36*
X178850026Y-89278115D02*
X179068412Y-89368573D01*
X179264958Y-89499901D01*
X179432099Y-89667042D01*
X179563427Y-89863588D01*
X179653885Y-90081974D01*
X179700000Y-90313809D01*
X179700000Y-90550191D01*
X179653885Y-90782026D01*
X179563427Y-91000412D01*
X179432099Y-91196958D01*
X179264958Y-91364099D01*
X179068412Y-91495427D01*
X178850026Y-91585885D01*
X178618191Y-91632000D01*
X178381809Y-91632000D01*
X178149974Y-91585885D01*
X177931588Y-91495427D01*
X177735042Y-91364099D01*
X177567901Y-91196958D01*
X177436573Y-91000412D01*
X177346115Y-90782026D01*
X177300000Y-90550191D01*
X177300000Y-90313809D01*
X177346115Y-90081974D01*
X177436573Y-89863588D01*
X177567901Y-89667042D01*
X177735042Y-89499901D01*
X177931588Y-89368573D01*
X178149974Y-89278115D01*
X178381809Y-89232000D01*
X178618191Y-89232000D01*
X178850026Y-89278115D01*
X178850026Y-89278115D01*
G37*
G36*
X169850026Y-89278115D02*
X170068412Y-89368573D01*
X170264958Y-89499901D01*
X170432099Y-89667042D01*
X170563427Y-89863588D01*
X170653885Y-90081974D01*
X170700000Y-90313809D01*
X170700000Y-90550191D01*
X170653885Y-90782026D01*
X170563427Y-91000412D01*
X170432099Y-91196958D01*
X170264958Y-91364099D01*
X170068412Y-91495427D01*
X169850026Y-91585885D01*
X169618191Y-91632000D01*
X169381809Y-91632000D01*
X169149974Y-91585885D01*
X168931588Y-91495427D01*
X168735042Y-91364099D01*
X168567901Y-91196958D01*
X168436573Y-91000412D01*
X168346115Y-90782026D01*
X168300000Y-90550191D01*
X168300000Y-90313809D01*
X168346115Y-90081974D01*
X168436573Y-89863588D01*
X168567901Y-89667042D01*
X168735042Y-89499901D01*
X168931588Y-89368573D01*
X169149974Y-89278115D01*
X169381809Y-89232000D01*
X169618191Y-89232000D01*
X169850026Y-89278115D01*
X169850026Y-89278115D01*
G37*
G36*
X165350026Y-89278115D02*
X165568412Y-89368573D01*
X165764958Y-89499901D01*
X165932099Y-89667042D01*
X166063427Y-89863588D01*
X166153885Y-90081974D01*
X166200000Y-90313809D01*
X166200000Y-90550191D01*
X166153885Y-90782026D01*
X166063427Y-91000412D01*
X165932099Y-91196958D01*
X165764958Y-91364099D01*
X165568412Y-91495427D01*
X165350026Y-91585885D01*
X165118191Y-91632000D01*
X164881809Y-91632000D01*
X164649974Y-91585885D01*
X164431588Y-91495427D01*
X164235042Y-91364099D01*
X164067901Y-91196958D01*
X163936573Y-91000412D01*
X163846115Y-90782026D01*
X163800000Y-90550191D01*
X163800000Y-90313809D01*
X163846115Y-90081974D01*
X163936573Y-89863588D01*
X164067901Y-89667042D01*
X164235042Y-89499901D01*
X164431588Y-89368573D01*
X164649974Y-89278115D01*
X164881809Y-89232000D01*
X165118191Y-89232000D01*
X165350026Y-89278115D01*
X165350026Y-89278115D01*
G37*
G36*
X160850026Y-89278115D02*
X161068412Y-89368573D01*
X161264958Y-89499901D01*
X161432099Y-89667042D01*
X161563427Y-89863588D01*
X161653885Y-90081974D01*
X161700000Y-90313809D01*
X161700000Y-90550191D01*
X161653885Y-90782026D01*
X161563427Y-91000412D01*
X161432099Y-91196958D01*
X161264958Y-91364099D01*
X161068412Y-91495427D01*
X160850026Y-91585885D01*
X160618191Y-91632000D01*
X160381809Y-91632000D01*
X160149974Y-91585885D01*
X159931588Y-91495427D01*
X159735042Y-91364099D01*
X159567901Y-91196958D01*
X159436573Y-91000412D01*
X159346115Y-90782026D01*
X159300000Y-90550191D01*
X159300000Y-90313809D01*
X159346115Y-90081974D01*
X159436573Y-89863588D01*
X159567901Y-89667042D01*
X159735042Y-89499901D01*
X159931588Y-89368573D01*
X160149974Y-89278115D01*
X160381809Y-89232000D01*
X160618191Y-89232000D01*
X160850026Y-89278115D01*
X160850026Y-89278115D01*
G37*
G36*
X156350026Y-89278115D02*
X156568412Y-89368573D01*
X156764958Y-89499901D01*
X156932099Y-89667042D01*
X157063427Y-89863588D01*
X157153885Y-90081974D01*
X157200000Y-90313809D01*
X157200000Y-90550191D01*
X157153885Y-90782026D01*
X157063427Y-91000412D01*
X156932099Y-91196958D01*
X156764958Y-91364099D01*
X156568412Y-91495427D01*
X156350026Y-91585885D01*
X156118191Y-91632000D01*
X155881809Y-91632000D01*
X155649974Y-91585885D01*
X155431588Y-91495427D01*
X155235042Y-91364099D01*
X155067901Y-91196958D01*
X154936573Y-91000412D01*
X154846115Y-90782026D01*
X154800000Y-90550191D01*
X154800000Y-90313809D01*
X154846115Y-90081974D01*
X154936573Y-89863588D01*
X155067901Y-89667042D01*
X155235042Y-89499901D01*
X155431588Y-89368573D01*
X155649974Y-89278115D01*
X155881809Y-89232000D01*
X156118191Y-89232000D01*
X156350026Y-89278115D01*
X156350026Y-89278115D01*
G37*
G36*
X174350026Y-89278115D02*
X174568412Y-89368573D01*
X174764958Y-89499901D01*
X174932099Y-89667042D01*
X175063427Y-89863588D01*
X175153885Y-90081974D01*
X175200000Y-90313809D01*
X175200000Y-90550191D01*
X175153885Y-90782026D01*
X175063427Y-91000412D01*
X174932099Y-91196958D01*
X174764958Y-91364099D01*
X174568412Y-91495427D01*
X174350026Y-91585885D01*
X174118191Y-91632000D01*
X173881809Y-91632000D01*
X173649974Y-91585885D01*
X173431588Y-91495427D01*
X173235042Y-91364099D01*
X173067901Y-91196958D01*
X172936573Y-91000412D01*
X172846115Y-90782026D01*
X172800000Y-90550191D01*
X172800000Y-90313809D01*
X172846115Y-90081974D01*
X172936573Y-89863588D01*
X173067901Y-89667042D01*
X173235042Y-89499901D01*
X173431588Y-89368573D01*
X173649974Y-89278115D01*
X173881809Y-89232000D01*
X174118191Y-89232000D01*
X174350026Y-89278115D01*
X174350026Y-89278115D01*
G37*
G36*
X191050000Y-91260000D02*
X188950000Y-91260000D01*
X188950000Y-89160000D01*
X191050000Y-89160000D01*
X191050000Y-91260000D01*
X191050000Y-91260000D01*
G37*
G36*
X190128707Y-86627597D02*
X190205836Y-86635193D01*
X190337787Y-86675220D01*
X190403763Y-86695233D01*
X190586172Y-86792733D01*
X190746054Y-86923946D01*
X190877267Y-87083828D01*
X190974767Y-87266237D01*
X190974767Y-87266238D01*
X191034807Y-87464164D01*
X191055080Y-87670000D01*
X191034807Y-87875836D01*
X190994780Y-88007787D01*
X190974767Y-88073763D01*
X190877267Y-88256172D01*
X190746054Y-88416054D01*
X190586172Y-88547267D01*
X190403763Y-88644767D01*
X190350605Y-88660892D01*
X190205836Y-88704807D01*
X190128707Y-88712403D01*
X190051580Y-88720000D01*
X189948420Y-88720000D01*
X189871293Y-88712404D01*
X189794164Y-88704807D01*
X189649395Y-88660892D01*
X189596237Y-88644767D01*
X189413828Y-88547267D01*
X189253946Y-88416054D01*
X189122733Y-88256172D01*
X189025233Y-88073763D01*
X189005220Y-88007787D01*
X188965193Y-87875836D01*
X188944920Y-87670000D01*
X188965193Y-87464164D01*
X189025233Y-87266238D01*
X189025233Y-87266237D01*
X189122733Y-87083828D01*
X189253946Y-86923946D01*
X189413828Y-86792733D01*
X189596237Y-86695233D01*
X189662213Y-86675220D01*
X189794164Y-86635193D01*
X189871293Y-86627597D01*
X189948420Y-86620000D01*
X190051580Y-86620000D01*
X190128707Y-86627597D01*
X190128707Y-86627597D01*
G37*
G36*
X186050000Y-86260000D02*
X183950000Y-86260000D01*
X183950000Y-84160000D01*
X186050000Y-84160000D01*
X186050000Y-86260000D01*
X186050000Y-86260000D01*
G37*
G36*
X190128707Y-84087597D02*
X190205836Y-84095193D01*
X190337787Y-84135220D01*
X190403763Y-84155233D01*
X190586172Y-84252733D01*
X190746054Y-84383946D01*
X190877267Y-84543828D01*
X190974767Y-84726237D01*
X190974767Y-84726238D01*
X191034807Y-84924164D01*
X191055080Y-85130000D01*
X191034807Y-85335836D01*
X190994780Y-85467787D01*
X190974767Y-85533763D01*
X190877267Y-85716172D01*
X190746054Y-85876054D01*
X190586172Y-86007267D01*
X190403763Y-86104767D01*
X190337787Y-86124780D01*
X190205836Y-86164807D01*
X190128707Y-86172403D01*
X190051580Y-86180000D01*
X189948420Y-86180000D01*
X189871293Y-86172403D01*
X189794164Y-86164807D01*
X189662213Y-86124780D01*
X189596237Y-86104767D01*
X189413828Y-86007267D01*
X189253946Y-85876054D01*
X189122733Y-85716172D01*
X189025233Y-85533763D01*
X189005220Y-85467787D01*
X188965193Y-85335836D01*
X188944920Y-85130000D01*
X188965193Y-84924164D01*
X189025233Y-84726238D01*
X189025233Y-84726237D01*
X189122733Y-84543828D01*
X189253946Y-84383946D01*
X189413828Y-84252733D01*
X189596237Y-84155233D01*
X189662213Y-84135220D01*
X189794164Y-84095193D01*
X189871293Y-84087597D01*
X189948420Y-84080000D01*
X190051580Y-84080000D01*
X190128707Y-84087597D01*
X190128707Y-84087597D01*
G37*
G36*
X178850026Y-82778115D02*
X179068412Y-82868573D01*
X179264958Y-82999901D01*
X179432099Y-83167042D01*
X179563427Y-83363588D01*
X179653885Y-83581974D01*
X179700000Y-83813809D01*
X179700000Y-84050191D01*
X179653885Y-84282026D01*
X179563427Y-84500412D01*
X179432099Y-84696958D01*
X179264958Y-84864099D01*
X179068412Y-84995427D01*
X178850026Y-85085885D01*
X178618191Y-85132000D01*
X178381809Y-85132000D01*
X178149974Y-85085885D01*
X177931588Y-84995427D01*
X177735042Y-84864099D01*
X177567901Y-84696958D01*
X177436573Y-84500412D01*
X177346115Y-84282026D01*
X177300000Y-84050191D01*
X177300000Y-83813809D01*
X177346115Y-83581974D01*
X177436573Y-83363588D01*
X177567901Y-83167042D01*
X177735042Y-82999901D01*
X177931588Y-82868573D01*
X178149974Y-82778115D01*
X178381809Y-82732000D01*
X178618191Y-82732000D01*
X178850026Y-82778115D01*
X178850026Y-82778115D01*
G37*
G36*
X174350026Y-82778115D02*
X174568412Y-82868573D01*
X174764958Y-82999901D01*
X174932099Y-83167042D01*
X175063427Y-83363588D01*
X175153885Y-83581974D01*
X175200000Y-83813809D01*
X175200000Y-84050191D01*
X175153885Y-84282026D01*
X175063427Y-84500412D01*
X174932099Y-84696958D01*
X174764958Y-84864099D01*
X174568412Y-84995427D01*
X174350026Y-85085885D01*
X174118191Y-85132000D01*
X173881809Y-85132000D01*
X173649974Y-85085885D01*
X173431588Y-84995427D01*
X173235042Y-84864099D01*
X173067901Y-84696958D01*
X172936573Y-84500412D01*
X172846115Y-84282026D01*
X172800000Y-84050191D01*
X172800000Y-83813809D01*
X172846115Y-83581974D01*
X172936573Y-83363588D01*
X173067901Y-83167042D01*
X173235042Y-82999901D01*
X173431588Y-82868573D01*
X173649974Y-82778115D01*
X173881809Y-82732000D01*
X174118191Y-82732000D01*
X174350026Y-82778115D01*
X174350026Y-82778115D01*
G37*
G36*
X169850026Y-82778115D02*
X170068412Y-82868573D01*
X170264958Y-82999901D01*
X170432099Y-83167042D01*
X170563427Y-83363588D01*
X170653885Y-83581974D01*
X170700000Y-83813809D01*
X170700000Y-84050191D01*
X170653885Y-84282026D01*
X170563427Y-84500412D01*
X170432099Y-84696958D01*
X170264958Y-84864099D01*
X170068412Y-84995427D01*
X169850026Y-85085885D01*
X169618191Y-85132000D01*
X169381809Y-85132000D01*
X169149974Y-85085885D01*
X168931588Y-84995427D01*
X168735042Y-84864099D01*
X168567901Y-84696958D01*
X168436573Y-84500412D01*
X168346115Y-84282026D01*
X168300000Y-84050191D01*
X168300000Y-83813809D01*
X168346115Y-83581974D01*
X168436573Y-83363588D01*
X168567901Y-83167042D01*
X168735042Y-82999901D01*
X168931588Y-82868573D01*
X169149974Y-82778115D01*
X169381809Y-82732000D01*
X169618191Y-82732000D01*
X169850026Y-82778115D01*
X169850026Y-82778115D01*
G37*
G36*
X156350026Y-82778115D02*
X156568412Y-82868573D01*
X156764958Y-82999901D01*
X156932099Y-83167042D01*
X157063427Y-83363588D01*
X157153885Y-83581974D01*
X157200000Y-83813809D01*
X157200000Y-84050191D01*
X157153885Y-84282026D01*
X157063427Y-84500412D01*
X156932099Y-84696958D01*
X156764958Y-84864099D01*
X156568412Y-84995427D01*
X156350026Y-85085885D01*
X156118191Y-85132000D01*
X155881809Y-85132000D01*
X155649974Y-85085885D01*
X155431588Y-84995427D01*
X155235042Y-84864099D01*
X155067901Y-84696958D01*
X154936573Y-84500412D01*
X154846115Y-84282026D01*
X154800000Y-84050191D01*
X154800000Y-83813809D01*
X154846115Y-83581974D01*
X154936573Y-83363588D01*
X155067901Y-83167042D01*
X155235042Y-82999901D01*
X155431588Y-82868573D01*
X155649974Y-82778115D01*
X155881809Y-82732000D01*
X156118191Y-82732000D01*
X156350026Y-82778115D01*
X156350026Y-82778115D01*
G37*
G36*
X160850026Y-82778115D02*
X161068412Y-82868573D01*
X161264958Y-82999901D01*
X161432099Y-83167042D01*
X161563427Y-83363588D01*
X161653885Y-83581974D01*
X161700000Y-83813809D01*
X161700000Y-84050191D01*
X161653885Y-84282026D01*
X161563427Y-84500412D01*
X161432099Y-84696958D01*
X161264958Y-84864099D01*
X161068412Y-84995427D01*
X160850026Y-85085885D01*
X160618191Y-85132000D01*
X160381809Y-85132000D01*
X160149974Y-85085885D01*
X159931588Y-84995427D01*
X159735042Y-84864099D01*
X159567901Y-84696958D01*
X159436573Y-84500412D01*
X159346115Y-84282026D01*
X159300000Y-84050191D01*
X159300000Y-83813809D01*
X159346115Y-83581974D01*
X159436573Y-83363588D01*
X159567901Y-83167042D01*
X159735042Y-82999901D01*
X159931588Y-82868573D01*
X160149974Y-82778115D01*
X160381809Y-82732000D01*
X160618191Y-82732000D01*
X160850026Y-82778115D01*
X160850026Y-82778115D01*
G37*
G36*
X165350026Y-82778115D02*
X165568412Y-82868573D01*
X165764958Y-82999901D01*
X165932099Y-83167042D01*
X166063427Y-83363588D01*
X166153885Y-83581974D01*
X166200000Y-83813809D01*
X166200000Y-84050191D01*
X166153885Y-84282026D01*
X166063427Y-84500412D01*
X165932099Y-84696958D01*
X165764958Y-84864099D01*
X165568412Y-84995427D01*
X165350026Y-85085885D01*
X165118191Y-85132000D01*
X164881809Y-85132000D01*
X164649974Y-85085885D01*
X164431588Y-84995427D01*
X164235042Y-84864099D01*
X164067901Y-84696958D01*
X163936573Y-84500412D01*
X163846115Y-84282026D01*
X163800000Y-84050191D01*
X163800000Y-83813809D01*
X163846115Y-83581974D01*
X163936573Y-83363588D01*
X164067901Y-83167042D01*
X164235042Y-82999901D01*
X164431588Y-82868573D01*
X164649974Y-82778115D01*
X164881809Y-82732000D01*
X165118191Y-82732000D01*
X165350026Y-82778115D01*
X165350026Y-82778115D01*
G37*
G36*
X185128707Y-81627596D02*
X185205836Y-81635193D01*
X185337787Y-81675220D01*
X185403763Y-81695233D01*
X185586172Y-81792733D01*
X185746054Y-81923946D01*
X185877267Y-82083828D01*
X185974767Y-82266237D01*
X185974767Y-82266238D01*
X186034807Y-82464164D01*
X186055080Y-82670000D01*
X186034807Y-82875836D01*
X185999035Y-82993762D01*
X185974767Y-83073763D01*
X185877267Y-83256172D01*
X185746054Y-83416054D01*
X185586172Y-83547267D01*
X185403763Y-83644767D01*
X185337787Y-83664780D01*
X185205836Y-83704807D01*
X185128707Y-83712403D01*
X185051580Y-83720000D01*
X184948420Y-83720000D01*
X184871293Y-83712403D01*
X184794164Y-83704807D01*
X184662213Y-83664780D01*
X184596237Y-83644767D01*
X184413828Y-83547267D01*
X184253946Y-83416054D01*
X184122733Y-83256172D01*
X184025233Y-83073763D01*
X184000965Y-82993762D01*
X183965193Y-82875836D01*
X183944920Y-82670000D01*
X183965193Y-82464164D01*
X184025233Y-82266238D01*
X184025233Y-82266237D01*
X184122733Y-82083828D01*
X184253946Y-81923946D01*
X184413828Y-81792733D01*
X184596237Y-81695233D01*
X184662213Y-81675220D01*
X184794164Y-81635193D01*
X184871293Y-81627596D01*
X184948420Y-81620000D01*
X185051580Y-81620000D01*
X185128707Y-81627596D01*
X185128707Y-81627596D01*
G37*
G36*
X190128707Y-81547597D02*
X190205836Y-81555193D01*
X190337787Y-81595220D01*
X190403763Y-81615233D01*
X190586172Y-81712733D01*
X190746054Y-81843946D01*
X190877267Y-82003828D01*
X190974767Y-82186237D01*
X190974767Y-82186238D01*
X191034807Y-82384164D01*
X191055080Y-82590000D01*
X191034807Y-82795836D01*
X191012742Y-82868574D01*
X190974767Y-82993763D01*
X190877267Y-83176172D01*
X190746054Y-83336054D01*
X190586172Y-83467267D01*
X190403763Y-83564767D01*
X190347041Y-83581973D01*
X190205836Y-83624807D01*
X190128707Y-83632404D01*
X190051580Y-83640000D01*
X189948420Y-83640000D01*
X189871293Y-83632404D01*
X189794164Y-83624807D01*
X189652959Y-83581973D01*
X189596237Y-83564767D01*
X189413828Y-83467267D01*
X189253946Y-83336054D01*
X189122733Y-83176172D01*
X189025233Y-82993763D01*
X188987258Y-82868574D01*
X188965193Y-82795836D01*
X188944920Y-82590000D01*
X188965193Y-82384164D01*
X189025233Y-82186238D01*
X189025233Y-82186237D01*
X189122733Y-82003828D01*
X189253946Y-81843946D01*
X189413828Y-81712733D01*
X189596237Y-81615233D01*
X189662213Y-81595220D01*
X189794164Y-81555193D01*
X189871293Y-81547597D01*
X189948420Y-81540000D01*
X190051580Y-81540000D01*
X190128707Y-81547597D01*
X190128707Y-81547597D01*
G37*
G36*
X187695000Y-76752000D02*
X183335000Y-76752000D01*
X183335000Y-74372000D01*
X187695000Y-74372000D01*
X187695000Y-76752000D01*
X187695000Y-76752000D01*
G37*
G36*
X136056525Y-72446777D02*
X136165149Y-72479728D01*
X136273773Y-72512678D01*
X136473991Y-72619697D01*
X136649477Y-72763714D01*
X136745494Y-72880712D01*
X136793501Y-72939209D01*
X136793502Y-72939211D01*
X136900519Y-73139425D01*
X136900519Y-73139426D01*
X136966420Y-73356672D01*
X136966420Y-73356674D01*
X136968698Y-73379803D01*
X136973479Y-73403837D01*
X136982856Y-73426476D01*
X136996470Y-73446850D01*
X137013797Y-73464177D01*
X137034172Y-73477791D01*
X137056811Y-73487169D01*
X137080844Y-73491949D01*
X137105348Y-73491949D01*
X137129382Y-73487168D01*
X137152021Y-73477791D01*
X137172395Y-73464177D01*
X137189722Y-73446850D01*
X137203336Y-73426475D01*
X137212714Y-73403836D01*
X137218096Y-73367551D01*
X137218096Y-72430101D01*
X139523096Y-72430101D01*
X139523096Y-74830101D01*
X137218096Y-74830101D01*
X137218096Y-73892652D01*
X137215694Y-73868266D01*
X137208581Y-73844817D01*
X137197030Y-73823206D01*
X137181484Y-73804264D01*
X137162542Y-73788718D01*
X137140931Y-73777167D01*
X137117482Y-73770054D01*
X137093096Y-73767652D01*
X137068710Y-73770054D01*
X137045261Y-73777167D01*
X137023650Y-73788718D01*
X137004708Y-73804264D01*
X136989162Y-73823206D01*
X136977611Y-73844817D01*
X136968698Y-73880400D01*
X136966420Y-73903529D01*
X136900519Y-74120778D01*
X136793500Y-74320996D01*
X136649483Y-74496482D01*
X136532485Y-74592499D01*
X136473988Y-74640506D01*
X136473986Y-74640507D01*
X136273772Y-74747524D01*
X136165148Y-74780474D01*
X136056524Y-74813425D01*
X135830596Y-74835677D01*
X135604667Y-74813425D01*
X135496043Y-74780474D01*
X135387419Y-74747524D01*
X135187201Y-74640505D01*
X135011715Y-74496488D01*
X134915698Y-74379490D01*
X134867691Y-74320993D01*
X134760674Y-74120778D01*
X134760673Y-74120777D01*
X134727722Y-74012152D01*
X134694772Y-73903529D01*
X134684994Y-73804252D01*
X134680213Y-73780218D01*
X134670836Y-73757579D01*
X134657222Y-73737205D01*
X134639895Y-73719878D01*
X134619520Y-73706264D01*
X134596881Y-73696886D01*
X134572848Y-73692106D01*
X134548344Y-73692106D01*
X134524310Y-73696887D01*
X134501671Y-73706264D01*
X134481297Y-73719878D01*
X134463970Y-73737205D01*
X134450356Y-73757580D01*
X134440978Y-73780219D01*
X134436198Y-73804252D01*
X134426420Y-73903529D01*
X134360519Y-74120778D01*
X134253500Y-74320996D01*
X134109483Y-74496482D01*
X133992485Y-74592499D01*
X133933988Y-74640506D01*
X133933986Y-74640507D01*
X133733772Y-74747524D01*
X133625148Y-74780474D01*
X133516524Y-74813425D01*
X133290596Y-74835677D01*
X133064667Y-74813425D01*
X132956043Y-74780474D01*
X132847419Y-74747524D01*
X132647201Y-74640505D01*
X132471715Y-74496488D01*
X132375698Y-74379490D01*
X132327691Y-74320993D01*
X132220674Y-74120778D01*
X132220673Y-74120777D01*
X132187722Y-74012152D01*
X132154772Y-73903529D01*
X132140397Y-73757579D01*
X132138096Y-73734216D01*
X132138096Y-73525985D01*
X132154772Y-73356673D01*
X132220673Y-73139424D01*
X132277876Y-73032406D01*
X132327691Y-72939208D01*
X132353517Y-72907739D01*
X132471713Y-72763717D01*
X132647202Y-72619697D01*
X132847420Y-72512678D01*
X132956045Y-72479727D01*
X133064668Y-72446777D01*
X133290596Y-72424525D01*
X133516525Y-72446777D01*
X133625149Y-72479728D01*
X133733773Y-72512678D01*
X133933991Y-72619697D01*
X134109477Y-72763714D01*
X134205494Y-72880712D01*
X134253501Y-72939209D01*
X134253502Y-72939211D01*
X134360519Y-73139425D01*
X134360519Y-73139426D01*
X134426420Y-73356672D01*
X134426420Y-73356674D01*
X134436198Y-73455950D01*
X134440979Y-73479984D01*
X134450356Y-73502623D01*
X134463970Y-73522997D01*
X134481297Y-73540324D01*
X134501672Y-73553938D01*
X134524311Y-73563316D01*
X134548344Y-73568096D01*
X134572848Y-73568096D01*
X134596882Y-73563315D01*
X134619521Y-73553938D01*
X134639895Y-73540324D01*
X134657222Y-73522997D01*
X134670836Y-73502622D01*
X134680214Y-73479983D01*
X134684994Y-73455950D01*
X134694772Y-73356673D01*
X134760673Y-73139424D01*
X134817876Y-73032406D01*
X134867691Y-72939208D01*
X134893517Y-72907739D01*
X135011713Y-72763717D01*
X135187202Y-72619697D01*
X135387420Y-72512678D01*
X135496045Y-72479727D01*
X135604668Y-72446777D01*
X135830596Y-72424525D01*
X136056525Y-72446777D01*
X136056525Y-72446777D01*
G37*
G36*
X111050151Y-72446777D02*
X111158775Y-72479728D01*
X111267399Y-72512678D01*
X111467617Y-72619697D01*
X111643103Y-72763714D01*
X111739120Y-72880712D01*
X111787127Y-72939209D01*
X111787128Y-72939211D01*
X111894145Y-73139425D01*
X111894145Y-73139426D01*
X111960046Y-73356672D01*
X111960046Y-73356674D01*
X111962324Y-73379803D01*
X111967105Y-73403837D01*
X111976482Y-73426476D01*
X111990096Y-73446850D01*
X112007423Y-73464177D01*
X112027798Y-73477791D01*
X112050437Y-73487169D01*
X112074470Y-73491949D01*
X112098974Y-73491949D01*
X112123008Y-73487168D01*
X112145647Y-73477791D01*
X112166021Y-73464177D01*
X112183348Y-73446850D01*
X112196962Y-73426475D01*
X112206340Y-73403836D01*
X112211722Y-73367551D01*
X112211722Y-72430101D01*
X114516722Y-72430101D01*
X114516722Y-74830101D01*
X112211722Y-74830101D01*
X112211722Y-73892652D01*
X112209320Y-73868266D01*
X112202207Y-73844817D01*
X112190656Y-73823206D01*
X112175110Y-73804264D01*
X112156168Y-73788718D01*
X112134557Y-73777167D01*
X112111108Y-73770054D01*
X112086722Y-73767652D01*
X112062336Y-73770054D01*
X112038887Y-73777167D01*
X112017276Y-73788718D01*
X111998334Y-73804264D01*
X111982788Y-73823206D01*
X111971237Y-73844817D01*
X111962324Y-73880400D01*
X111960046Y-73903529D01*
X111894145Y-74120778D01*
X111787126Y-74320996D01*
X111643109Y-74496482D01*
X111526111Y-74592499D01*
X111467614Y-74640506D01*
X111467612Y-74640507D01*
X111267398Y-74747524D01*
X111158774Y-74780474D01*
X111050150Y-74813425D01*
X110824222Y-74835677D01*
X110598293Y-74813425D01*
X110489669Y-74780474D01*
X110381045Y-74747524D01*
X110180827Y-74640505D01*
X110005341Y-74496488D01*
X109909324Y-74379490D01*
X109861317Y-74320993D01*
X109754300Y-74120778D01*
X109754299Y-74120777D01*
X109721348Y-74012152D01*
X109688398Y-73903529D01*
X109678620Y-73804252D01*
X109673839Y-73780218D01*
X109664462Y-73757579D01*
X109650848Y-73737205D01*
X109633521Y-73719878D01*
X109613146Y-73706264D01*
X109590507Y-73696886D01*
X109566474Y-73692106D01*
X109541970Y-73692106D01*
X109517936Y-73696887D01*
X109495297Y-73706264D01*
X109474923Y-73719878D01*
X109457596Y-73737205D01*
X109443982Y-73757580D01*
X109434604Y-73780219D01*
X109429824Y-73804252D01*
X109420046Y-73903529D01*
X109354145Y-74120778D01*
X109247126Y-74320996D01*
X109103109Y-74496482D01*
X108986111Y-74592499D01*
X108927614Y-74640506D01*
X108927612Y-74640507D01*
X108727398Y-74747524D01*
X108618774Y-74780474D01*
X108510150Y-74813425D01*
X108284222Y-74835677D01*
X108058293Y-74813425D01*
X107949669Y-74780474D01*
X107841045Y-74747524D01*
X107640827Y-74640505D01*
X107465341Y-74496488D01*
X107369324Y-74379490D01*
X107321317Y-74320993D01*
X107214300Y-74120778D01*
X107214299Y-74120777D01*
X107181348Y-74012152D01*
X107148398Y-73903529D01*
X107134023Y-73757579D01*
X107131722Y-73734216D01*
X107131722Y-73525985D01*
X107148398Y-73356673D01*
X107214299Y-73139424D01*
X107271502Y-73032406D01*
X107321317Y-72939208D01*
X107347143Y-72907739D01*
X107465339Y-72763717D01*
X107640828Y-72619697D01*
X107841046Y-72512678D01*
X107949671Y-72479727D01*
X108058294Y-72446777D01*
X108284222Y-72424525D01*
X108510151Y-72446777D01*
X108618775Y-72479728D01*
X108727399Y-72512678D01*
X108927617Y-72619697D01*
X109103103Y-72763714D01*
X109199120Y-72880712D01*
X109247127Y-72939209D01*
X109247128Y-72939211D01*
X109354145Y-73139425D01*
X109354145Y-73139426D01*
X109420046Y-73356672D01*
X109420046Y-73356674D01*
X109429824Y-73455950D01*
X109434605Y-73479984D01*
X109443982Y-73502623D01*
X109457596Y-73522997D01*
X109474923Y-73540324D01*
X109495298Y-73553938D01*
X109517937Y-73563316D01*
X109541970Y-73568096D01*
X109566474Y-73568096D01*
X109590508Y-73563315D01*
X109613147Y-73553938D01*
X109633521Y-73540324D01*
X109650848Y-73522997D01*
X109664462Y-73502622D01*
X109673840Y-73479983D01*
X109678620Y-73455950D01*
X109688398Y-73356673D01*
X109754299Y-73139424D01*
X109811502Y-73032406D01*
X109861317Y-72939208D01*
X109887143Y-72907739D01*
X110005339Y-72763717D01*
X110180828Y-72619697D01*
X110381046Y-72512678D01*
X110489671Y-72479727D01*
X110598294Y-72446777D01*
X110824222Y-72424525D01*
X111050151Y-72446777D01*
X111050151Y-72446777D01*
G37*
G36*
X148559714Y-72446777D02*
X148668338Y-72479728D01*
X148776962Y-72512678D01*
X148977180Y-72619697D01*
X149152666Y-72763714D01*
X149248683Y-72880712D01*
X149296690Y-72939209D01*
X149296691Y-72939211D01*
X149403708Y-73139425D01*
X149403708Y-73139426D01*
X149469609Y-73356672D01*
X149469609Y-73356674D01*
X149471887Y-73379803D01*
X149476668Y-73403837D01*
X149486045Y-73426476D01*
X149499659Y-73446850D01*
X149516986Y-73464177D01*
X149537361Y-73477791D01*
X149560000Y-73487169D01*
X149584033Y-73491949D01*
X149608537Y-73491949D01*
X149632571Y-73487168D01*
X149655210Y-73477791D01*
X149675584Y-73464177D01*
X149692911Y-73446850D01*
X149706525Y-73426475D01*
X149715903Y-73403836D01*
X149721285Y-73367551D01*
X149721285Y-72430101D01*
X152026285Y-72430101D01*
X152026285Y-74830101D01*
X149721285Y-74830101D01*
X149721285Y-73892652D01*
X149718883Y-73868266D01*
X149711770Y-73844817D01*
X149700219Y-73823206D01*
X149684673Y-73804264D01*
X149665731Y-73788718D01*
X149644120Y-73777167D01*
X149620671Y-73770054D01*
X149596285Y-73767652D01*
X149571899Y-73770054D01*
X149548450Y-73777167D01*
X149526839Y-73788718D01*
X149507897Y-73804264D01*
X149492351Y-73823206D01*
X149480800Y-73844817D01*
X149471887Y-73880400D01*
X149469609Y-73903529D01*
X149403708Y-74120778D01*
X149296689Y-74320996D01*
X149152672Y-74496482D01*
X149035674Y-74592499D01*
X148977177Y-74640506D01*
X148977175Y-74640507D01*
X148776961Y-74747524D01*
X148668337Y-74780474D01*
X148559713Y-74813425D01*
X148333785Y-74835677D01*
X148107856Y-74813425D01*
X147999232Y-74780474D01*
X147890608Y-74747524D01*
X147690390Y-74640505D01*
X147514904Y-74496488D01*
X147418887Y-74379490D01*
X147370880Y-74320993D01*
X147263863Y-74120778D01*
X147263862Y-74120777D01*
X147230911Y-74012152D01*
X147197961Y-73903529D01*
X147188183Y-73804252D01*
X147183402Y-73780218D01*
X147174025Y-73757579D01*
X147160411Y-73737205D01*
X147143084Y-73719878D01*
X147122709Y-73706264D01*
X147100070Y-73696886D01*
X147076037Y-73692106D01*
X147051533Y-73692106D01*
X147027499Y-73696887D01*
X147004860Y-73706264D01*
X146984486Y-73719878D01*
X146967159Y-73737205D01*
X146953545Y-73757580D01*
X146944167Y-73780219D01*
X146939387Y-73804252D01*
X146929609Y-73903529D01*
X146863708Y-74120778D01*
X146756689Y-74320996D01*
X146612672Y-74496482D01*
X146495674Y-74592499D01*
X146437177Y-74640506D01*
X146437175Y-74640507D01*
X146236961Y-74747524D01*
X146128337Y-74780474D01*
X146019713Y-74813425D01*
X145793785Y-74835677D01*
X145567856Y-74813425D01*
X145459232Y-74780474D01*
X145350608Y-74747524D01*
X145150390Y-74640505D01*
X144974904Y-74496488D01*
X144878887Y-74379490D01*
X144830880Y-74320993D01*
X144723863Y-74120778D01*
X144723862Y-74120777D01*
X144690911Y-74012152D01*
X144657961Y-73903529D01*
X144643586Y-73757579D01*
X144641285Y-73734216D01*
X144641285Y-73525985D01*
X144657961Y-73356673D01*
X144723862Y-73139424D01*
X144781065Y-73032406D01*
X144830880Y-72939208D01*
X144856706Y-72907739D01*
X144974902Y-72763717D01*
X145150391Y-72619697D01*
X145350609Y-72512678D01*
X145459234Y-72479727D01*
X145567857Y-72446777D01*
X145793785Y-72424525D01*
X146019714Y-72446777D01*
X146128338Y-72479728D01*
X146236962Y-72512678D01*
X146437180Y-72619697D01*
X146612666Y-72763714D01*
X146708683Y-72880712D01*
X146756690Y-72939209D01*
X146756691Y-72939211D01*
X146863708Y-73139425D01*
X146863708Y-73139426D01*
X146929609Y-73356672D01*
X146929609Y-73356674D01*
X146939387Y-73455950D01*
X146944168Y-73479984D01*
X146953545Y-73502623D01*
X146967159Y-73522997D01*
X146984486Y-73540324D01*
X147004861Y-73553938D01*
X147027500Y-73563316D01*
X147051533Y-73568096D01*
X147076037Y-73568096D01*
X147100071Y-73563315D01*
X147122710Y-73553938D01*
X147143084Y-73540324D01*
X147160411Y-73522997D01*
X147174025Y-73502622D01*
X147183403Y-73479983D01*
X147188183Y-73455950D01*
X147197961Y-73356673D01*
X147263862Y-73139424D01*
X147321065Y-73032406D01*
X147370880Y-72939208D01*
X147396706Y-72907739D01*
X147514902Y-72763717D01*
X147690391Y-72619697D01*
X147890609Y-72512678D01*
X147999234Y-72479727D01*
X148107857Y-72446777D01*
X148333785Y-72424525D01*
X148559714Y-72446777D01*
X148559714Y-72446777D01*
G37*
G36*
X98553338Y-72446777D02*
X98661962Y-72479728D01*
X98770586Y-72512678D01*
X98970804Y-72619697D01*
X99146290Y-72763714D01*
X99242307Y-72880712D01*
X99290314Y-72939209D01*
X99290315Y-72939211D01*
X99397332Y-73139425D01*
X99397332Y-73139426D01*
X99463233Y-73356672D01*
X99463233Y-73356674D01*
X99465511Y-73379803D01*
X99470292Y-73403837D01*
X99479669Y-73426476D01*
X99493283Y-73446850D01*
X99510610Y-73464177D01*
X99530985Y-73477791D01*
X99553624Y-73487169D01*
X99577657Y-73491949D01*
X99602161Y-73491949D01*
X99626195Y-73487168D01*
X99648834Y-73477791D01*
X99669208Y-73464177D01*
X99686535Y-73446850D01*
X99700149Y-73426475D01*
X99709527Y-73403836D01*
X99714909Y-73367551D01*
X99714909Y-72430101D01*
X102019909Y-72430101D01*
X102019909Y-74830101D01*
X99714909Y-74830101D01*
X99714909Y-73892652D01*
X99712507Y-73868266D01*
X99705394Y-73844817D01*
X99693843Y-73823206D01*
X99678297Y-73804264D01*
X99659355Y-73788718D01*
X99637744Y-73777167D01*
X99614295Y-73770054D01*
X99589909Y-73767652D01*
X99565523Y-73770054D01*
X99542074Y-73777167D01*
X99520463Y-73788718D01*
X99501521Y-73804264D01*
X99485975Y-73823206D01*
X99474424Y-73844817D01*
X99465511Y-73880400D01*
X99463233Y-73903529D01*
X99397332Y-74120778D01*
X99290313Y-74320996D01*
X99146296Y-74496482D01*
X99029298Y-74592499D01*
X98970801Y-74640506D01*
X98970799Y-74640507D01*
X98770585Y-74747524D01*
X98661961Y-74780474D01*
X98553337Y-74813425D01*
X98327409Y-74835677D01*
X98101480Y-74813425D01*
X97992856Y-74780474D01*
X97884232Y-74747524D01*
X97684014Y-74640505D01*
X97508528Y-74496488D01*
X97412511Y-74379490D01*
X97364504Y-74320993D01*
X97257487Y-74120778D01*
X97257486Y-74120777D01*
X97224535Y-74012152D01*
X97191585Y-73903529D01*
X97181807Y-73804252D01*
X97177026Y-73780218D01*
X97167649Y-73757579D01*
X97154035Y-73737205D01*
X97136708Y-73719878D01*
X97116333Y-73706264D01*
X97093694Y-73696886D01*
X97069661Y-73692106D01*
X97045157Y-73692106D01*
X97021123Y-73696887D01*
X96998484Y-73706264D01*
X96978110Y-73719878D01*
X96960783Y-73737205D01*
X96947169Y-73757580D01*
X96937791Y-73780219D01*
X96933011Y-73804252D01*
X96923233Y-73903529D01*
X96857332Y-74120778D01*
X96750313Y-74320996D01*
X96606296Y-74496482D01*
X96489298Y-74592499D01*
X96430801Y-74640506D01*
X96430799Y-74640507D01*
X96230585Y-74747524D01*
X96121961Y-74780474D01*
X96013337Y-74813425D01*
X95787409Y-74835677D01*
X95561480Y-74813425D01*
X95452856Y-74780474D01*
X95344232Y-74747524D01*
X95144014Y-74640505D01*
X94968528Y-74496488D01*
X94872511Y-74379490D01*
X94824504Y-74320993D01*
X94717487Y-74120778D01*
X94717486Y-74120777D01*
X94684535Y-74012152D01*
X94651585Y-73903529D01*
X94637210Y-73757579D01*
X94634909Y-73734216D01*
X94634909Y-73525985D01*
X94651585Y-73356673D01*
X94717486Y-73139424D01*
X94774689Y-73032406D01*
X94824504Y-72939208D01*
X94850330Y-72907739D01*
X94968526Y-72763717D01*
X95144015Y-72619697D01*
X95344233Y-72512678D01*
X95452858Y-72479727D01*
X95561481Y-72446777D01*
X95787409Y-72424525D01*
X96013338Y-72446777D01*
X96121962Y-72479728D01*
X96230586Y-72512678D01*
X96430804Y-72619697D01*
X96606290Y-72763714D01*
X96702307Y-72880712D01*
X96750314Y-72939209D01*
X96750315Y-72939211D01*
X96857332Y-73139425D01*
X96857332Y-73139426D01*
X96923233Y-73356672D01*
X96923233Y-73356674D01*
X96933011Y-73455950D01*
X96937792Y-73479984D01*
X96947169Y-73502623D01*
X96960783Y-73522997D01*
X96978110Y-73540324D01*
X96998485Y-73553938D01*
X97021124Y-73563316D01*
X97045157Y-73568096D01*
X97069661Y-73568096D01*
X97093695Y-73563315D01*
X97116334Y-73553938D01*
X97136708Y-73540324D01*
X97154035Y-73522997D01*
X97167649Y-73502622D01*
X97177027Y-73479983D01*
X97181807Y-73455950D01*
X97191585Y-73356673D01*
X97257486Y-73139424D01*
X97314689Y-73032406D01*
X97364504Y-72939208D01*
X97390330Y-72907739D01*
X97508526Y-72763717D01*
X97684015Y-72619697D01*
X97884233Y-72512678D01*
X97992858Y-72479727D01*
X98101481Y-72446777D01*
X98327409Y-72424525D01*
X98553338Y-72446777D01*
X98553338Y-72446777D01*
G37*
G36*
X123546964Y-72446777D02*
X123655588Y-72479728D01*
X123764212Y-72512678D01*
X123964430Y-72619697D01*
X124139916Y-72763714D01*
X124235933Y-72880712D01*
X124283940Y-72939209D01*
X124283941Y-72939211D01*
X124390958Y-73139425D01*
X124390958Y-73139426D01*
X124456859Y-73356672D01*
X124456859Y-73356674D01*
X124459137Y-73379803D01*
X124463918Y-73403837D01*
X124473295Y-73426476D01*
X124486909Y-73446850D01*
X124504236Y-73464177D01*
X124524611Y-73477791D01*
X124547250Y-73487169D01*
X124571283Y-73491949D01*
X124595787Y-73491949D01*
X124619821Y-73487168D01*
X124642460Y-73477791D01*
X124662834Y-73464177D01*
X124680161Y-73446850D01*
X124693775Y-73426475D01*
X124703153Y-73403836D01*
X124708535Y-73367551D01*
X124708535Y-72430101D01*
X127013535Y-72430101D01*
X127013535Y-74830101D01*
X124708535Y-74830101D01*
X124708535Y-73892652D01*
X124706133Y-73868266D01*
X124699020Y-73844817D01*
X124687469Y-73823206D01*
X124671923Y-73804264D01*
X124652981Y-73788718D01*
X124631370Y-73777167D01*
X124607921Y-73770054D01*
X124583535Y-73767652D01*
X124559149Y-73770054D01*
X124535700Y-73777167D01*
X124514089Y-73788718D01*
X124495147Y-73804264D01*
X124479601Y-73823206D01*
X124468050Y-73844817D01*
X124459137Y-73880400D01*
X124456859Y-73903529D01*
X124390958Y-74120778D01*
X124283939Y-74320996D01*
X124139922Y-74496482D01*
X124022924Y-74592499D01*
X123964427Y-74640506D01*
X123964425Y-74640507D01*
X123764211Y-74747524D01*
X123655587Y-74780474D01*
X123546963Y-74813425D01*
X123321035Y-74835677D01*
X123095106Y-74813425D01*
X122986482Y-74780474D01*
X122877858Y-74747524D01*
X122677640Y-74640505D01*
X122502154Y-74496488D01*
X122406137Y-74379490D01*
X122358130Y-74320993D01*
X122251113Y-74120778D01*
X122251112Y-74120777D01*
X122218161Y-74012152D01*
X122185211Y-73903529D01*
X122175433Y-73804252D01*
X122170652Y-73780218D01*
X122161275Y-73757579D01*
X122147661Y-73737205D01*
X122130334Y-73719878D01*
X122109959Y-73706264D01*
X122087320Y-73696886D01*
X122063287Y-73692106D01*
X122038783Y-73692106D01*
X122014749Y-73696887D01*
X121992110Y-73706264D01*
X121971736Y-73719878D01*
X121954409Y-73737205D01*
X121940795Y-73757580D01*
X121931417Y-73780219D01*
X121926637Y-73804252D01*
X121916859Y-73903529D01*
X121850958Y-74120778D01*
X121743939Y-74320996D01*
X121599922Y-74496482D01*
X121482924Y-74592499D01*
X121424427Y-74640506D01*
X121424425Y-74640507D01*
X121224211Y-74747524D01*
X121115587Y-74780474D01*
X121006963Y-74813425D01*
X120781035Y-74835677D01*
X120555106Y-74813425D01*
X120446482Y-74780474D01*
X120337858Y-74747524D01*
X120137640Y-74640505D01*
X119962154Y-74496488D01*
X119866137Y-74379490D01*
X119818130Y-74320993D01*
X119711113Y-74120778D01*
X119711112Y-74120777D01*
X119678161Y-74012152D01*
X119645211Y-73903529D01*
X119630836Y-73757579D01*
X119628535Y-73734216D01*
X119628535Y-73525985D01*
X119645211Y-73356673D01*
X119711112Y-73139424D01*
X119768315Y-73032406D01*
X119818130Y-72939208D01*
X119843956Y-72907739D01*
X119962152Y-72763717D01*
X120137641Y-72619697D01*
X120337859Y-72512678D01*
X120446484Y-72479727D01*
X120555107Y-72446777D01*
X120781035Y-72424525D01*
X121006964Y-72446777D01*
X121115588Y-72479728D01*
X121224212Y-72512678D01*
X121424430Y-72619697D01*
X121599916Y-72763714D01*
X121695933Y-72880712D01*
X121743940Y-72939209D01*
X121743941Y-72939211D01*
X121850958Y-73139425D01*
X121850958Y-73139426D01*
X121916859Y-73356672D01*
X121916859Y-73356674D01*
X121926637Y-73455950D01*
X121931418Y-73479984D01*
X121940795Y-73502623D01*
X121954409Y-73522997D01*
X121971736Y-73540324D01*
X121992111Y-73553938D01*
X122014750Y-73563316D01*
X122038783Y-73568096D01*
X122063287Y-73568096D01*
X122087321Y-73563315D01*
X122109960Y-73553938D01*
X122130334Y-73540324D01*
X122147661Y-73522997D01*
X122161275Y-73502622D01*
X122170653Y-73479983D01*
X122175433Y-73455950D01*
X122185211Y-73356673D01*
X122251112Y-73139424D01*
X122308315Y-73032406D01*
X122358130Y-72939208D01*
X122383956Y-72907739D01*
X122502152Y-72763717D01*
X122677641Y-72619697D01*
X122877859Y-72512678D01*
X122986484Y-72479727D01*
X123095107Y-72446777D01*
X123321035Y-72424525D01*
X123546964Y-72446777D01*
X123546964Y-72446777D01*
G37*
G36*
X186598418Y-69375444D02*
X186738281Y-69389219D01*
X186962596Y-69457265D01*
X187169327Y-69567764D01*
X187350528Y-69716472D01*
X187499236Y-69897673D01*
X187609735Y-70104404D01*
X187677781Y-70328719D01*
X187700757Y-70562000D01*
X187677781Y-70795281D01*
X187609735Y-71019596D01*
X187499236Y-71226327D01*
X187350528Y-71407528D01*
X187169327Y-71556236D01*
X186962596Y-71666735D01*
X186738281Y-71734781D01*
X186598418Y-71748556D01*
X186563453Y-71752000D01*
X184466547Y-71752000D01*
X184431582Y-71748556D01*
X184291719Y-71734781D01*
X184067404Y-71666735D01*
X183860673Y-71556236D01*
X183679472Y-71407528D01*
X183530764Y-71226327D01*
X183420265Y-71019596D01*
X183352219Y-70795281D01*
X183329243Y-70562000D01*
X183352219Y-70328719D01*
X183420265Y-70104404D01*
X183530764Y-69897673D01*
X183679472Y-69716472D01*
X183860673Y-69567764D01*
X184067404Y-69457265D01*
X184291719Y-69389219D01*
X184431582Y-69375444D01*
X184466547Y-69372000D01*
X186563453Y-69372000D01*
X186598418Y-69375444D01*
X186598418Y-69375444D01*
G37*
G36*
X105215398Y-63978126D02*
X105386472Y-64030021D01*
X105544121Y-64114286D01*
X105682307Y-64227693D01*
X105795714Y-64365879D01*
X105879979Y-64523528D01*
X105931874Y-64694602D01*
X105950000Y-64878640D01*
X105950000Y-66941360D01*
X105931874Y-67125398D01*
X105879979Y-67296472D01*
X105795714Y-67454121D01*
X105682307Y-67592307D01*
X105544121Y-67705714D01*
X105386472Y-67789979D01*
X105215398Y-67841874D01*
X105031360Y-67860000D01*
X102968640Y-67860000D01*
X102784602Y-67841874D01*
X102613528Y-67789979D01*
X102455879Y-67705714D01*
X102317693Y-67592307D01*
X102204286Y-67454121D01*
X102120021Y-67296472D01*
X102068126Y-67125398D01*
X102050000Y-66941360D01*
X102050000Y-64878640D01*
X102068126Y-64694602D01*
X102120021Y-64523528D01*
X102204286Y-64365879D01*
X102317693Y-64227693D01*
X102455879Y-64114286D01*
X102613528Y-64030021D01*
X102784602Y-63978126D01*
X102968640Y-63960000D01*
X105031360Y-63960000D01*
X105215398Y-63978126D01*
X105215398Y-63978126D01*
G37*
G36*
X187695000Y-66592000D02*
X183335000Y-66592000D01*
X183335000Y-64212000D01*
X187695000Y-64212000D01*
X187695000Y-66592000D01*
X187695000Y-66592000D01*
G37*
G36*
X134891848Y-59554597D02*
X134950358Y-59572347D01*
X135004277Y-59601167D01*
X135051543Y-59639957D01*
X135090333Y-59687223D01*
X135119153Y-59741142D01*
X135136903Y-59799652D01*
X135143500Y-59866639D01*
X135143500Y-61429360D01*
X135138439Y-61480748D01*
X135138439Y-61505253D01*
X135143220Y-61529286D01*
X135152597Y-61551925D01*
X135166211Y-61572300D01*
X135183538Y-61589627D01*
X135203913Y-61603240D01*
X135226552Y-61612618D01*
X135262837Y-61618000D01*
X136058500Y-61618000D01*
X136082886Y-61615598D01*
X136106335Y-61608485D01*
X136127946Y-61596934D01*
X136146888Y-61581388D01*
X136162434Y-61562446D01*
X136173985Y-61540835D01*
X136181098Y-61517386D01*
X136183500Y-61493000D01*
X136183500Y-59548000D01*
X137683500Y-59548000D01*
X137683500Y-61748000D01*
X136532837Y-61748000D01*
X136508451Y-61750402D01*
X136485002Y-61757515D01*
X136463391Y-61769066D01*
X136444449Y-61784612D01*
X136428903Y-61803554D01*
X136417352Y-61825165D01*
X136410239Y-61848614D01*
X136408439Y-61885252D01*
X136413500Y-61936640D01*
X136413500Y-63499361D01*
X136406903Y-63566348D01*
X136389153Y-63624858D01*
X136360333Y-63678777D01*
X136321543Y-63726043D01*
X136274277Y-63764833D01*
X136220358Y-63793653D01*
X136161848Y-63811403D01*
X136094861Y-63818000D01*
X135232139Y-63818000D01*
X135165152Y-63811403D01*
X135106642Y-63793653D01*
X135052723Y-63764833D01*
X135005457Y-63726043D01*
X134966667Y-63678777D01*
X134937847Y-63624858D01*
X134920097Y-63566348D01*
X134913500Y-63499361D01*
X134913500Y-61936640D01*
X134918561Y-61885252D01*
X134918561Y-61860747D01*
X134913780Y-61836714D01*
X134904403Y-61814075D01*
X134890789Y-61793700D01*
X134873462Y-61776373D01*
X134853087Y-61762760D01*
X134830448Y-61753382D01*
X134794163Y-61748000D01*
X133962139Y-61748000D01*
X133895152Y-61741403D01*
X133836642Y-61723653D01*
X133782723Y-61694833D01*
X133735457Y-61656043D01*
X133696667Y-61608777D01*
X133667847Y-61554858D01*
X133650097Y-61496348D01*
X133643500Y-61429361D01*
X133643500Y-59866639D01*
X133650097Y-59799652D01*
X133667847Y-59741142D01*
X133696667Y-59687223D01*
X133735457Y-59639957D01*
X133782723Y-59601167D01*
X133836642Y-59572347D01*
X133895152Y-59554597D01*
X133962139Y-59548000D01*
X134824861Y-59548000D01*
X134891848Y-59554597D01*
X134891848Y-59554597D01*
G37*
G36*
X150208707Y-61167596D02*
X150285836Y-61175193D01*
X150417787Y-61215220D01*
X150483763Y-61235233D01*
X150666172Y-61332733D01*
X150826054Y-61463946D01*
X150957267Y-61623828D01*
X151054767Y-61806237D01*
X151064012Y-61836714D01*
X151114807Y-62004164D01*
X151135080Y-62210000D01*
X151114807Y-62415836D01*
X151096609Y-62475827D01*
X151054767Y-62613763D01*
X150957267Y-62796172D01*
X150826054Y-62956054D01*
X150666172Y-63087267D01*
X150483763Y-63184767D01*
X150417787Y-63204780D01*
X150285836Y-63244807D01*
X150208707Y-63252403D01*
X150131580Y-63260000D01*
X150028420Y-63260000D01*
X149951293Y-63252403D01*
X149874164Y-63244807D01*
X149742213Y-63204780D01*
X149676237Y-63184767D01*
X149493828Y-63087267D01*
X149333946Y-62956054D01*
X149202733Y-62796172D01*
X149105233Y-62613763D01*
X149063391Y-62475827D01*
X149045193Y-62415836D01*
X149024920Y-62210000D01*
X149045193Y-62004164D01*
X149095988Y-61836714D01*
X149105233Y-61806237D01*
X149202733Y-61623828D01*
X149333946Y-61463946D01*
X149493828Y-61332733D01*
X149676237Y-61235233D01*
X149742213Y-61215220D01*
X149874164Y-61175193D01*
X149951293Y-61167596D01*
X150028420Y-61160000D01*
X150131580Y-61160000D01*
X150208707Y-61167596D01*
X150208707Y-61167596D01*
G37*
G36*
X147668707Y-61167596D02*
X147745836Y-61175193D01*
X147877787Y-61215220D01*
X147943763Y-61235233D01*
X148126172Y-61332733D01*
X148286054Y-61463946D01*
X148417267Y-61623828D01*
X148514767Y-61806237D01*
X148524012Y-61836714D01*
X148574807Y-62004164D01*
X148595080Y-62210000D01*
X148574807Y-62415836D01*
X148556609Y-62475827D01*
X148514767Y-62613763D01*
X148417267Y-62796172D01*
X148286054Y-62956054D01*
X148126172Y-63087267D01*
X147943763Y-63184767D01*
X147877787Y-63204780D01*
X147745836Y-63244807D01*
X147668707Y-63252403D01*
X147591580Y-63260000D01*
X147488420Y-63260000D01*
X147411293Y-63252403D01*
X147334164Y-63244807D01*
X147202213Y-63204780D01*
X147136237Y-63184767D01*
X146953828Y-63087267D01*
X146793946Y-62956054D01*
X146662733Y-62796172D01*
X146565233Y-62613763D01*
X146523391Y-62475827D01*
X146505193Y-62415836D01*
X146484920Y-62210000D01*
X146505193Y-62004164D01*
X146555988Y-61836714D01*
X146565233Y-61806237D01*
X146662733Y-61623828D01*
X146793946Y-61463946D01*
X146953828Y-61332733D01*
X147136237Y-61235233D01*
X147202213Y-61215220D01*
X147334164Y-61175193D01*
X147411293Y-61167596D01*
X147488420Y-61160000D01*
X147591580Y-61160000D01*
X147668707Y-61167596D01*
X147668707Y-61167596D01*
G37*
G36*
X146050000Y-63260000D02*
X143950000Y-63260000D01*
X143950000Y-61160000D01*
X146050000Y-61160000D01*
X146050000Y-63260000D01*
X146050000Y-63260000D01*
G37*
G36*
X108950000Y-63160000D02*
X105050000Y-63160000D01*
X105050000Y-59260000D01*
X108950000Y-59260000D01*
X108950000Y-63160000D01*
X108950000Y-63160000D01*
G37*
G36*
X102066017Y-59275724D02*
X102213630Y-59320503D01*
X102349677Y-59393222D01*
X102468919Y-59491081D01*
X102566778Y-59610323D01*
X102639497Y-59746370D01*
X102684276Y-59893983D01*
X102700000Y-60053640D01*
X102700000Y-62366360D01*
X102684276Y-62526017D01*
X102639497Y-62673630D01*
X102566778Y-62809677D01*
X102468919Y-62928919D01*
X102349677Y-63026778D01*
X102213630Y-63099497D01*
X102066017Y-63144276D01*
X101906360Y-63160000D01*
X100093640Y-63160000D01*
X99933983Y-63144276D01*
X99786370Y-63099497D01*
X99650323Y-63026778D01*
X99531081Y-62928919D01*
X99433222Y-62809677D01*
X99360503Y-62673630D01*
X99315724Y-62526017D01*
X99300000Y-62366360D01*
X99300000Y-60053640D01*
X99315724Y-59893983D01*
X99360503Y-59746370D01*
X99433222Y-59610323D01*
X99531081Y-59491081D01*
X99650323Y-59393222D01*
X99786370Y-59320503D01*
X99933983Y-59275724D01*
X100093640Y-59260000D01*
X101906360Y-59260000D01*
X102066017Y-59275724D01*
X102066017Y-59275724D01*
G37*
G36*
X186598418Y-59215444D02*
X186738281Y-59229219D01*
X186962596Y-59297265D01*
X187169327Y-59407764D01*
X187350528Y-59556472D01*
X187499236Y-59737673D01*
X187609735Y-59944404D01*
X187677781Y-60168719D01*
X187700757Y-60402000D01*
X187677781Y-60635281D01*
X187609735Y-60859596D01*
X187499236Y-61066327D01*
X187350528Y-61247528D01*
X187169327Y-61396236D01*
X186962596Y-61506735D01*
X186738281Y-61574781D01*
X186598418Y-61588556D01*
X186563453Y-61592000D01*
X184466547Y-61592000D01*
X184431582Y-61588556D01*
X184291719Y-61574781D01*
X184067404Y-61506735D01*
X183860673Y-61396236D01*
X183679472Y-61247528D01*
X183530764Y-61066327D01*
X183420265Y-60859596D01*
X183352219Y-60635281D01*
X183329243Y-60402000D01*
X183352219Y-60168719D01*
X183420265Y-59944404D01*
X183530764Y-59737673D01*
X183679472Y-59556472D01*
X183860673Y-59407764D01*
X184067404Y-59297265D01*
X184291719Y-59229219D01*
X184431582Y-59215444D01*
X184466547Y-59212000D01*
X186563453Y-59212000D01*
X186598418Y-59215444D01*
X186598418Y-59215444D01*
G37*
G36*
X187695000Y-56432000D02*
X183335000Y-56432000D01*
X183335000Y-54052000D01*
X187695000Y-54052000D01*
X187695000Y-56432000D01*
X187695000Y-56432000D01*
G37*
G36*
X95242149Y-53037717D02*
X95281327Y-53041576D01*
X95356727Y-53064448D01*
X95432129Y-53087321D01*
X95571108Y-53161608D01*
X95692922Y-53261578D01*
X95792892Y-53383392D01*
X95867179Y-53522371D01*
X95912924Y-53673174D01*
X95928370Y-53830000D01*
X95912924Y-53986826D01*
X95867179Y-54137629D01*
X95792892Y-54276608D01*
X95692922Y-54398422D01*
X95571108Y-54498392D01*
X95432129Y-54572679D01*
X95356728Y-54595551D01*
X95281327Y-54618424D01*
X95242149Y-54622283D01*
X95163795Y-54630000D01*
X94385205Y-54630000D01*
X94306851Y-54622283D01*
X94267673Y-54618424D01*
X94192272Y-54595551D01*
X94116871Y-54572679D01*
X93977892Y-54498392D01*
X93856078Y-54398422D01*
X93756108Y-54276608D01*
X93681821Y-54137629D01*
X93636076Y-53986826D01*
X93620630Y-53830000D01*
X93636076Y-53673174D01*
X93681821Y-53522371D01*
X93756108Y-53383392D01*
X93856078Y-53261578D01*
X93977892Y-53161608D01*
X94116871Y-53087321D01*
X94192273Y-53064448D01*
X94267673Y-53041576D01*
X94306851Y-53037717D01*
X94385205Y-53030000D01*
X95163795Y-53030000D01*
X95242149Y-53037717D01*
X95242149Y-53037717D01*
G37*
G36*
X97744311Y-51940546D02*
X97744314Y-51940547D01*
X97744313Y-51940547D01*
X97912652Y-52010275D01*
X97912653Y-52010276D01*
X98064156Y-52111507D01*
X98192993Y-52240344D01*
X98192995Y-52240347D01*
X98294225Y-52391848D01*
X98348157Y-52522052D01*
X98363954Y-52560189D01*
X98399500Y-52738894D01*
X98399500Y-52921106D01*
X98363954Y-53099811D01*
X98363953Y-53099813D01*
X98294225Y-53268152D01*
X98194360Y-53417611D01*
X98192993Y-53419656D01*
X98064156Y-53548493D01*
X98064153Y-53548495D01*
X97912652Y-53649725D01*
X97782448Y-53703657D01*
X97744311Y-53719454D01*
X97565606Y-53755000D01*
X97383394Y-53755000D01*
X97204689Y-53719454D01*
X97166552Y-53703657D01*
X97036348Y-53649725D01*
X96884847Y-53548495D01*
X96884844Y-53548493D01*
X96756007Y-53419656D01*
X96754640Y-53417611D01*
X96654775Y-53268152D01*
X96585047Y-53099813D01*
X96585046Y-53099811D01*
X96549500Y-52921106D01*
X96549500Y-52738894D01*
X96585046Y-52560189D01*
X96600843Y-52522052D01*
X96654775Y-52391848D01*
X96756005Y-52240347D01*
X96756007Y-52240344D01*
X96884844Y-52111507D01*
X97036347Y-52010276D01*
X97036348Y-52010275D01*
X97204687Y-51940547D01*
X97204686Y-51940547D01*
X97204689Y-51940546D01*
X97383394Y-51905000D01*
X97565606Y-51905000D01*
X97744311Y-51940546D01*
X97744311Y-51940546D01*
G37*
G36*
X186598418Y-49055444D02*
X186738281Y-49069219D01*
X186962596Y-49137265D01*
X187169327Y-49247764D01*
X187350528Y-49396472D01*
X187499236Y-49577673D01*
X187609735Y-49784404D01*
X187677781Y-50008719D01*
X187700757Y-50242000D01*
X187677781Y-50475281D01*
X187609735Y-50699596D01*
X187499236Y-50906327D01*
X187350528Y-51087528D01*
X187169327Y-51236236D01*
X186962596Y-51346735D01*
X186738281Y-51414781D01*
X186598418Y-51428556D01*
X186563453Y-51432000D01*
X184466547Y-51432000D01*
X184431582Y-51428556D01*
X184291719Y-51414781D01*
X184067404Y-51346735D01*
X183860673Y-51236236D01*
X183679472Y-51087528D01*
X183530764Y-50906327D01*
X183420265Y-50699596D01*
X183352219Y-50475281D01*
X183329243Y-50242000D01*
X183352219Y-50008719D01*
X183420265Y-49784404D01*
X183530764Y-49577673D01*
X183679472Y-49396472D01*
X183860673Y-49247764D01*
X184067404Y-49137265D01*
X184291719Y-49069219D01*
X184431582Y-49055444D01*
X184466547Y-49052000D01*
X186563453Y-49052000D01*
X186598418Y-49055444D01*
X186598418Y-49055444D01*
G37*
G36*
X97744311Y-46940546D02*
X97744314Y-46940547D01*
X97744313Y-46940547D01*
X97912652Y-47010275D01*
X97912653Y-47010276D01*
X98064156Y-47111507D01*
X98192993Y-47240344D01*
X98192995Y-47240347D01*
X98294225Y-47391848D01*
X98338357Y-47498392D01*
X98363954Y-47560189D01*
X98399500Y-47738894D01*
X98399500Y-47921106D01*
X98363954Y-48099811D01*
X98363953Y-48099813D01*
X98294225Y-48268152D01*
X98294224Y-48268153D01*
X98192993Y-48419656D01*
X98064156Y-48548493D01*
X98064153Y-48548495D01*
X97912652Y-48649725D01*
X97782448Y-48703657D01*
X97744311Y-48719454D01*
X97565606Y-48755000D01*
X97383394Y-48755000D01*
X97204689Y-48719454D01*
X97166552Y-48703657D01*
X97036348Y-48649725D01*
X96884847Y-48548495D01*
X96884844Y-48548493D01*
X96756007Y-48419656D01*
X96654776Y-48268153D01*
X96654775Y-48268152D01*
X96585047Y-48099813D01*
X96585046Y-48099811D01*
X96549500Y-47921106D01*
X96549500Y-47738894D01*
X96585046Y-47560189D01*
X96610643Y-47498392D01*
X96654775Y-47391848D01*
X96756005Y-47240347D01*
X96756007Y-47240344D01*
X96884844Y-47111507D01*
X97036347Y-47010276D01*
X97036348Y-47010275D01*
X97204687Y-46940547D01*
X97204686Y-46940547D01*
X97204689Y-46940546D01*
X97383394Y-46905000D01*
X97565606Y-46905000D01*
X97744311Y-46940546D01*
X97744311Y-46940546D01*
G37*
G36*
X95242149Y-46037717D02*
X95281327Y-46041576D01*
X95356727Y-46064448D01*
X95432129Y-46087321D01*
X95571108Y-46161608D01*
X95692922Y-46261578D01*
X95792892Y-46383392D01*
X95867179Y-46522371D01*
X95912924Y-46673174D01*
X95928370Y-46830000D01*
X95912924Y-46986826D01*
X95867179Y-47137629D01*
X95792892Y-47276608D01*
X95692922Y-47398422D01*
X95571108Y-47498392D01*
X95432129Y-47572679D01*
X95356728Y-47595551D01*
X95281327Y-47618424D01*
X95242149Y-47622283D01*
X95163795Y-47630000D01*
X94385205Y-47630000D01*
X94306851Y-47622283D01*
X94267673Y-47618424D01*
X94192272Y-47595551D01*
X94116871Y-47572679D01*
X93977892Y-47498392D01*
X93856078Y-47398422D01*
X93756108Y-47276608D01*
X93681821Y-47137629D01*
X93636076Y-46986826D01*
X93620630Y-46830000D01*
X93636076Y-46673174D01*
X93681821Y-46522371D01*
X93756108Y-46383392D01*
X93856078Y-46261578D01*
X93977892Y-46161608D01*
X94116871Y-46087321D01*
X94192273Y-46064448D01*
X94267673Y-46041576D01*
X94306851Y-46037717D01*
X94385205Y-46030000D01*
X95163795Y-46030000D01*
X95242149Y-46037717D01*
X95242149Y-46037717D01*
G37*
M02*
