M48
;DRILL file {KiCad 5.0.2-bee76a0~70~ubuntu18.04.1} date Mi 16 Jan 2019 23:40:48 CET
;FORMAT={-:-/ absolute / metric / decimal}
FMAT,2
METRIC,TZ
T1C0.600
T2C0.750
T3C0.800
T4C0.850
T5C1.000
T6C1.100
T7C1.320
T8C3.500
%
G90
G05
T1
X106.172Y-48.298
X106.172Y-50.076
X106.172Y-98.298
X106.172Y-100.076
X122.682Y-54.648
X122.682Y-104.648
X123.952Y-55.664
X123.952Y-105.664
X156.718Y-65.316
X156.718Y-115.316
X167.386Y-61.76
X167.386Y-111.76
X168.91Y-58.712
X168.91Y-108.712
X170.959Y-57.696
X170.959Y-107.696
X172.255Y-57.889
X172.255Y-107.889
T2
X134.393Y-111.048
X135.663Y-112.318
X136.933Y-111.048
X134.393Y-61.048
X135.663Y-62.318
X136.933Y-61.048
T3
X168.91Y-79.032
X168.91Y-129.032
T4
X97.474Y-97.83
X97.474Y-102.83
X97.474Y-47.83
X97.474Y-52.83
T5
X190.Y-132.59
X190.Y-135.13
X190.Y-137.67
X190.Y-140.21
X190.Y-82.59
X190.Y-85.13
X190.Y-87.67
X190.Y-90.21
X145.Y-112.21
X147.54Y-112.21
X150.08Y-112.21
X145.Y-62.21
X147.54Y-62.21
X150.08Y-62.21
X185.Y-82.67
X185.Y-85.21
X185.Y-132.67
X185.Y-135.21
T6
X108.284Y-123.63
X110.824Y-123.63
X113.364Y-123.63
X174.Y-83.932
X174.Y-90.432
X178.5Y-83.932
X178.5Y-90.432
X95.787Y-123.63
X98.327Y-123.63
X100.867Y-123.63
X95.787Y-73.63
X98.327Y-73.63
X100.867Y-73.63
X120.781Y-123.63
X123.321Y-123.63
X125.861Y-123.63
X133.291Y-123.63
X135.831Y-123.63
X138.371Y-123.63
X108.284Y-73.63
X110.824Y-73.63
X113.364Y-73.63
X165.Y-83.932
X165.Y-90.432
X169.5Y-83.932
X169.5Y-90.432
X156.Y-83.932
X156.Y-90.432
X160.5Y-83.932
X160.5Y-90.432
X165.Y-133.932
X165.Y-140.432
X169.5Y-133.932
X169.5Y-140.432
X156.Y-133.932
X156.Y-140.432
X160.5Y-133.932
X160.5Y-140.432
X145.794Y-73.63
X148.334Y-73.63
X150.874Y-73.63
X120.781Y-73.63
X123.321Y-73.63
X125.861Y-73.63
X133.291Y-73.63
X135.831Y-73.63
X138.371Y-73.63
X145.794Y-123.63
X148.334Y-123.63
X150.874Y-123.63
X174.Y-133.932
X174.Y-140.432
X178.5Y-133.932
X178.5Y-140.432
T7
X185.515Y-50.242
X185.515Y-55.242
X185.515Y-100.242
X185.515Y-105.242
X185.515Y-70.562
X185.515Y-75.562
X185.515Y-110.402
X185.515Y-115.402
X185.515Y-120.562
X185.515Y-125.562
X185.515Y-60.402
X185.515Y-65.402
T8
X135.831Y-90.29
X148.334Y-140.29
X110.824Y-140.29
X98.327Y-140.29
X98.327Y-90.29
X123.321Y-140.29
X135.831Y-140.29
X110.824Y-90.29
X148.334Y-90.29
X123.321Y-90.29
T1
X94.424Y-96.83G85X95.124Y-96.83
G05
X95.124Y-103.83G85X94.424Y-103.83
G05
X94.424Y-46.83G85X95.124Y-46.83
G05
X95.124Y-53.83G85X94.424Y-53.83
G05
T5
X101.Y-60.21G85X101.Y-62.21
G05
X103.Y-65.91G85X105.Y-65.91
G05
X107.Y-60.21G85X107.Y-62.21
G05
X101.Y-110.21G85X101.Y-112.21
G05
X103.Y-115.91G85X105.Y-115.91
G05
X107.Y-110.21G85X107.Y-112.21
G05
T0
M30
