M48
;DRILL file {KiCad 5.0.2-bee76a0~70~ubuntu18.04.1} date Do 17 Jan 2019 01:28:10 CET
;FORMAT={3:3/ absolute / metric / suppress leading zeros}
FMAT,2
METRIC,TZ
T1C0.600
T2C0.750
T3C0.800
T4C0.850
T5C1.000
T6C1.100
T7C1.320
T8C3.500
%
G90
G05
T1
X106172Y-49088
X106172Y-50866
X106172Y-99088
X106172Y-100866
X122682Y-55438
X122682Y-105438
X123952Y-56454
X123952Y-106454
X156718Y-66106
X156718Y-116106
X167386Y-62550
X167386Y-112550
X168910Y-59502
X168910Y-109502
X170959Y-58486
X170959Y-108486
X172255Y-58679
X172255Y-108679
T2
X134394Y-61838
X135664Y-63108
X136934Y-61838
X134394Y-111838
X135664Y-113108
X136934Y-111838
T3
X168910Y-79822
X168910Y-129822
T4
X97474Y-98620
X97474Y-103620
X97474Y-48620
X97474Y-53620
T5
X190000Y-133380
X190000Y-135920
X190000Y-138460
X190000Y-141000
X185000Y-133460
X185000Y-136000
X145000Y-113000
X147540Y-113000
X150080Y-113000
X190000Y-83380
X190000Y-85920
X190000Y-88460
X190000Y-91000
X145000Y-63000
X147540Y-63000
X150080Y-63000
X185000Y-83460
X185000Y-86000
T6
X174000Y-84722
X174000Y-91222
X178500Y-84722
X178500Y-91222
X145794Y-124420
X148334Y-124420
X150874Y-124420
X165000Y-84722
X165000Y-91222
X169500Y-84722
X169500Y-91222
X156000Y-134722
X156000Y-141222
X160500Y-134722
X160500Y-141222
X95787Y-124420
X98327Y-124420
X100867Y-124420
X120781Y-124420
X123321Y-124420
X125861Y-124420
X108284Y-124420
X110824Y-124420
X113364Y-124420
X133291Y-74420
X135831Y-74420
X138371Y-74420
X165000Y-134722
X165000Y-141222
X169500Y-134722
X169500Y-141222
X145794Y-74420
X148334Y-74420
X150874Y-74420
X133291Y-124420
X135831Y-124420
X138371Y-124420
X156000Y-84722
X156000Y-91222
X160500Y-84722
X160500Y-91222
X120781Y-74420
X123321Y-74420
X125861Y-74420
X95787Y-74420
X98327Y-74420
X100867Y-74420
X174000Y-134722
X174000Y-141222
X178500Y-134722
X178500Y-141222
X108284Y-74420
X110824Y-74420
X113364Y-74420
T7
X185515Y-101032
X185515Y-106032
X185515Y-61192
X185515Y-66192
X185515Y-121352
X185515Y-126352
X185515Y-51032
X185515Y-56032
X185515Y-111192
X185515Y-116192
X185515Y-71352
X185515Y-76352
T8
X123321Y-91080
X98327Y-91080
X98327Y-141080
X123321Y-141080
X110824Y-141080
X148334Y-91080
X135831Y-141080
X110824Y-91080
X148334Y-141080
X135831Y-91080
T1
X94424Y-97620G85X95125Y-97620
G05
X95125Y-104620G85X94424Y-104620
G05
X94424Y-47620G85X95125Y-47620
G05
X95125Y-54620G85X94424Y-54620
G05
T5
X101000Y-111000G85X101000Y-113000
G05
X103000Y-116700G85X105000Y-116700
G05
X107000Y-111000G85X107000Y-113000
G05
X101000Y-61000G85X101000Y-63000
G05
X103000Y-66700G85X105000Y-66700
G05
X107000Y-61000G85X107000Y-63000
G05
T0
M30
