G04 #@! TF.GenerationSoftware,KiCad,Pcbnew,5.0.2-bee76a0~70~ubuntu18.04.1*
G04 #@! TF.CreationDate,2019-01-16T23:40:41+01:00*
G04 #@! TF.ProjectId,ESPLED,4553504c-4544-42e6-9b69-6361645f7063,rev?*
G04 #@! TF.SameCoordinates,Original*
G04 #@! TF.FileFunction,Legend,Top*
G04 #@! TF.FilePolarity,Positive*
%FSLAX46Y46*%
G04 Gerber Fmt 4.6, Leading zero omitted, Abs format (unit mm)*
G04 Created by KiCad (PCBNEW 5.0.2-bee76a0~70~ubuntu18.04.1) date Mi 16 Jan 2019 23:40:41 CET*
%MOMM*%
%LPD*%
G01*
G04 APERTURE LIST*
%ADD10C,0.300000*%
%ADD11C,0.200000*%
%ADD12C,0.120000*%
%ADD13C,0.150000*%
G04 APERTURE END LIST*
D10*
X135977416Y-109213251D02*
X135120273Y-109213251D01*
X135548845Y-109213251D02*
X135548845Y-107713251D01*
X135405987Y-107927537D01*
X135263130Y-108070394D01*
X135120273Y-108141822D01*
X136905987Y-107713251D02*
X137048845Y-107713251D01*
X137191702Y-107784680D01*
X137263130Y-107856108D01*
X137334559Y-107998965D01*
X137405987Y-108284680D01*
X137405987Y-108641822D01*
X137334559Y-108927537D01*
X137263130Y-109070394D01*
X137191702Y-109141822D01*
X137048845Y-109213251D01*
X136905987Y-109213251D01*
X136763130Y-109141822D01*
X136691702Y-109070394D01*
X136620273Y-108927537D01*
X136548845Y-108641822D01*
X136548845Y-108284680D01*
X136620273Y-107998965D01*
X136691702Y-107856108D01*
X136763130Y-107784680D01*
X136905987Y-107713251D01*
X138334559Y-107713251D02*
X138477416Y-107713251D01*
X138620273Y-107784680D01*
X138691702Y-107856108D01*
X138763130Y-107998965D01*
X138834559Y-108284680D01*
X138834559Y-108641822D01*
X138763130Y-108927537D01*
X138691702Y-109070394D01*
X138620273Y-109141822D01*
X138477416Y-109213251D01*
X138334559Y-109213251D01*
X138191702Y-109141822D01*
X138120273Y-109070394D01*
X138048845Y-108927537D01*
X137977416Y-108641822D01*
X137977416Y-108284680D01*
X138048845Y-107998965D01*
X138120273Y-107856108D01*
X138191702Y-107784680D01*
X138334559Y-107713251D01*
X139548845Y-109141822D02*
X139548845Y-109213251D01*
X139477416Y-109356108D01*
X139405987Y-109427537D01*
X140477416Y-107713251D02*
X140620273Y-107713251D01*
X140763130Y-107784680D01*
X140834559Y-107856108D01*
X140905987Y-107998965D01*
X140977416Y-108284680D01*
X140977416Y-108641822D01*
X140905987Y-108927537D01*
X140834559Y-109070394D01*
X140763130Y-109141822D01*
X140620273Y-109213251D01*
X140477416Y-109213251D01*
X140334559Y-109141822D01*
X140263130Y-109070394D01*
X140191702Y-108927537D01*
X140120273Y-108641822D01*
X140120273Y-108284680D01*
X140191702Y-107998965D01*
X140263130Y-107856108D01*
X140334559Y-107784680D01*
X140477416Y-107713251D01*
X141905987Y-107713251D02*
X142048845Y-107713251D01*
X142191702Y-107784680D01*
X142263130Y-107856108D01*
X142334559Y-107998965D01*
X142405987Y-108284680D01*
X142405987Y-108641822D01*
X142334559Y-108927537D01*
X142263130Y-109070394D01*
X142191702Y-109141822D01*
X142048845Y-109213251D01*
X141905987Y-109213251D01*
X141763130Y-109141822D01*
X141691702Y-109070394D01*
X141620273Y-108927537D01*
X141548845Y-108641822D01*
X141548845Y-108284680D01*
X141620273Y-107998965D01*
X141691702Y-107856108D01*
X141763130Y-107784680D01*
X141905987Y-107713251D01*
X143334559Y-107713251D02*
X143477416Y-107713251D01*
X143620273Y-107784680D01*
X143691702Y-107856108D01*
X143763130Y-107998965D01*
X143834559Y-108284680D01*
X143834559Y-108641822D01*
X143763130Y-108927537D01*
X143691702Y-109070394D01*
X143620273Y-109141822D01*
X143477416Y-109213251D01*
X143334559Y-109213251D01*
X143191702Y-109141822D01*
X143120273Y-109070394D01*
X143048845Y-108927537D01*
X142977416Y-108641822D01*
X142977416Y-108284680D01*
X143048845Y-107998965D01*
X143120273Y-107856108D01*
X143191702Y-107784680D01*
X143334559Y-107713251D01*
X145620273Y-109213251D02*
X145620273Y-108213251D01*
X145620273Y-108356108D02*
X145691702Y-108284680D01*
X145834559Y-108213251D01*
X146048845Y-108213251D01*
X146191702Y-108284680D01*
X146263130Y-108427537D01*
X146263130Y-109213251D01*
X146263130Y-108427537D02*
X146334559Y-108284680D01*
X146477416Y-108213251D01*
X146691702Y-108213251D01*
X146834559Y-108284680D01*
X146905987Y-108427537D01*
X146905987Y-109213251D01*
X147620273Y-109213251D02*
X147620273Y-108213251D01*
X147620273Y-108356108D02*
X147691702Y-108284680D01*
X147834559Y-108213251D01*
X148048845Y-108213251D01*
X148191702Y-108284680D01*
X148263130Y-108427537D01*
X148263130Y-109213251D01*
X148263130Y-108427537D02*
X148334559Y-108284680D01*
X148477416Y-108213251D01*
X148691702Y-108213251D01*
X148834559Y-108284680D01*
X148905987Y-108427537D01*
X148905987Y-109213251D01*
X92048845Y-106434680D02*
X192048845Y-106434680D01*
X92048845Y-95434681D02*
X92048845Y-107021101D01*
X192048845Y-95434681D02*
X192048845Y-107021101D01*
X192048845Y-106434680D02*
X190922341Y-107021101D01*
X192048845Y-106434680D02*
X190922341Y-105848259D01*
X92048845Y-106434680D02*
X93175349Y-107021101D01*
X92048845Y-106434680D02*
X93175349Y-105848259D01*
D11*
X141000000Y-45210000D02*
X154000000Y-45210000D01*
X154000000Y-45210000D02*
X154000000Y-65210000D01*
X154000000Y-65210000D02*
X141000000Y-65210000D01*
D10*
X142605714Y-54818571D02*
X142605714Y-53318571D01*
X143105714Y-54390000D01*
X143605714Y-53318571D01*
X143605714Y-54818571D01*
X144248571Y-54390000D02*
X144962857Y-54390000D01*
X144105714Y-54818571D02*
X144605714Y-53318571D01*
X145105714Y-54818571D01*
X145462857Y-53318571D02*
X146462857Y-54818571D01*
X146462857Y-53318571D02*
X145462857Y-54818571D01*
X147677142Y-53818571D02*
X147677142Y-54818571D01*
X147320000Y-53247142D02*
X146962857Y-54318571D01*
X147891428Y-54318571D01*
X149105714Y-53818571D02*
X149105714Y-54818571D01*
X148748571Y-53247142D02*
X148391428Y-54318571D01*
X149320000Y-54318571D01*
X150534285Y-53318571D02*
X150248571Y-53318571D01*
X150105714Y-53390000D01*
X150034285Y-53461428D01*
X149891428Y-53675714D01*
X149820000Y-53961428D01*
X149820000Y-54532857D01*
X149891428Y-54675714D01*
X149962857Y-54747142D01*
X150105714Y-54818571D01*
X150391428Y-54818571D01*
X150534285Y-54747142D01*
X150605714Y-54675714D01*
X150677142Y-54532857D01*
X150677142Y-54175714D01*
X150605714Y-54032857D01*
X150534285Y-53961428D01*
X150391428Y-53890000D01*
X150105714Y-53890000D01*
X149962857Y-53961428D01*
X149891428Y-54032857D01*
X149820000Y-54175714D01*
X151962857Y-53318571D02*
X151677142Y-53318571D01*
X151534285Y-53390000D01*
X151462857Y-53461428D01*
X151320000Y-53675714D01*
X151248571Y-53961428D01*
X151248571Y-54532857D01*
X151320000Y-54675714D01*
X151391428Y-54747142D01*
X151534285Y-54818571D01*
X151820000Y-54818571D01*
X151962857Y-54747142D01*
X152034285Y-54675714D01*
X152105714Y-54532857D01*
X152105714Y-54175714D01*
X152034285Y-54032857D01*
X151962857Y-53961428D01*
X151820000Y-53890000D01*
X151534285Y-53890000D01*
X151391428Y-53961428D01*
X151320000Y-54032857D01*
X151248571Y-54175714D01*
D11*
X141000000Y-65210000D02*
X141000000Y-45210000D01*
D10*
X142605714Y-104818571D02*
X142605714Y-103318571D01*
X143105714Y-104390000D01*
X143605714Y-103318571D01*
X143605714Y-104818571D01*
X144248571Y-104390000D02*
X144962857Y-104390000D01*
X144105714Y-104818571D02*
X144605714Y-103318571D01*
X145105714Y-104818571D01*
X145462857Y-103318571D02*
X146462857Y-104818571D01*
X146462857Y-103318571D02*
X145462857Y-104818571D01*
X147677142Y-103818571D02*
X147677142Y-104818571D01*
X147320000Y-103247142D02*
X146962857Y-104318571D01*
X147891428Y-104318571D01*
X149105714Y-103818571D02*
X149105714Y-104818571D01*
X148748571Y-103247142D02*
X148391428Y-104318571D01*
X149320000Y-104318571D01*
X150534285Y-103318571D02*
X150248571Y-103318571D01*
X150105714Y-103390000D01*
X150034285Y-103461428D01*
X149891428Y-103675714D01*
X149820000Y-103961428D01*
X149820000Y-104532857D01*
X149891428Y-104675714D01*
X149962857Y-104747142D01*
X150105714Y-104818571D01*
X150391428Y-104818571D01*
X150534285Y-104747142D01*
X150605714Y-104675714D01*
X150677142Y-104532857D01*
X150677142Y-104175714D01*
X150605714Y-104032857D01*
X150534285Y-103961428D01*
X150391428Y-103890000D01*
X150105714Y-103890000D01*
X149962857Y-103961428D01*
X149891428Y-104032857D01*
X149820000Y-104175714D01*
X151962857Y-103318571D02*
X151677142Y-103318571D01*
X151534285Y-103390000D01*
X151462857Y-103461428D01*
X151320000Y-103675714D01*
X151248571Y-103961428D01*
X151248571Y-104532857D01*
X151320000Y-104675714D01*
X151391428Y-104747142D01*
X151534285Y-104818571D01*
X151820000Y-104818571D01*
X151962857Y-104747142D01*
X152034285Y-104675714D01*
X152105714Y-104532857D01*
X152105714Y-104175714D01*
X152034285Y-104032857D01*
X151962857Y-103961428D01*
X151820000Y-103890000D01*
X151534285Y-103890000D01*
X151391428Y-103961428D01*
X151320000Y-104032857D01*
X151248571Y-104175714D01*
D11*
X141000000Y-115210000D02*
X141000000Y-95210000D01*
X154000000Y-115210000D02*
X141000000Y-115210000D01*
X154000000Y-95210000D02*
X154000000Y-115210000D01*
X141000000Y-95210000D02*
X154000000Y-95210000D01*
D12*
G04 #@! TO.C,SW1*
X161500000Y-89432000D02*
X161500000Y-84932000D01*
X157500000Y-90682000D02*
X159000000Y-90682000D01*
X155000000Y-84932000D02*
X155000000Y-89432000D01*
X159000000Y-83682000D02*
X157500000Y-83682000D01*
G04 #@! TO.C,C8*
X166622000Y-79622733D02*
X166622000Y-79965267D01*
X167642000Y-79622733D02*
X167642000Y-79965267D01*
G04 #@! TO.C,JP10*
X160036000Y-74906000D02*
X160036000Y-73506000D01*
X160736000Y-72806000D02*
X161336000Y-72806000D01*
X162036000Y-73506000D02*
X162036000Y-74906000D01*
X161336000Y-75606000D02*
X160736000Y-75606000D01*
X160736000Y-75606000D02*
G75*
G02X160036000Y-74906000I0J700000D01*
G01*
X162036000Y-74906000D02*
G75*
G02X161336000Y-75606000I-700000J0D01*
G01*
X161336000Y-72806000D02*
G75*
G02X162036000Y-73506000I0J-700000D01*
G01*
X160036000Y-73506000D02*
G75*
G02X160736000Y-72806000I700000J0D01*
G01*
G04 #@! TO.C,C2*
X123775000Y-46825000D02*
X123775000Y-48075000D01*
X123150000Y-47450000D02*
X124400000Y-47450000D01*
X124640000Y-54505563D02*
X125704437Y-55570000D01*
X124640000Y-45914437D02*
X125704437Y-44850000D01*
X124640000Y-45914437D02*
X124640000Y-48700000D01*
X124640000Y-54505563D02*
X124640000Y-51720000D01*
X125704437Y-55570000D02*
X135360000Y-55570000D01*
X125704437Y-44850000D02*
X135360000Y-44850000D01*
X135360000Y-44850000D02*
X135360000Y-48700000D01*
X135360000Y-55570000D02*
X135360000Y-51720000D01*
G04 #@! TO.C,C7*
X133171267Y-64700000D02*
X132828733Y-64700000D01*
X133171267Y-65720000D02*
X132828733Y-65720000D01*
G04 #@! TO.C,C6*
X113088267Y-63790000D02*
X112745733Y-63790000D01*
X113088267Y-64810000D02*
X112745733Y-64810000D01*
G04 #@! TO.C,R7*
X177036000Y-66273733D02*
X177036000Y-66616267D01*
X178056000Y-66273733D02*
X178056000Y-66616267D01*
G04 #@! TO.C,JP2*
X106882946Y-68860000D02*
G75*
G02X107582946Y-68160000I700000J0D01*
G01*
X108182946Y-68160000D02*
G75*
G02X108882946Y-68860000I0J-700000D01*
G01*
X108882946Y-70260000D02*
G75*
G02X108182946Y-70960000I-700000J0D01*
G01*
X107582946Y-70960000D02*
G75*
G02X106882946Y-70260000I0J700000D01*
G01*
X108182946Y-70960000D02*
X107582946Y-70960000D01*
X108882946Y-68860000D02*
X108882946Y-70260000D01*
X107582946Y-68160000D02*
X108182946Y-68160000D01*
X106882946Y-70260000D02*
X106882946Y-68860000D01*
G04 #@! TO.C,Q4*
X133290596Y-77320101D02*
X133290596Y-74780101D01*
X135830596Y-77320101D02*
X135830596Y-74780101D01*
X138370596Y-77320101D02*
X138370596Y-74780101D01*
X130710596Y-93210101D02*
X130710596Y-77320101D01*
X140950596Y-93210101D02*
X140950596Y-77320101D01*
X140950596Y-93210101D02*
X130710596Y-93210101D01*
X140950596Y-77320101D02*
X130710596Y-77320101D01*
G04 #@! TO.C,R6*
X155704000Y-66644267D02*
X155704000Y-66301733D01*
X154684000Y-66644267D02*
X154684000Y-66301733D01*
G04 #@! TO.C,U2*
X175120000Y-68104000D02*
X175120000Y-68924000D01*
X175120000Y-68924000D02*
X158880000Y-68924000D01*
X158880000Y-68924000D02*
X158880000Y-68104000D01*
X157850000Y-52804000D02*
X157850000Y-53804000D01*
X158880000Y-66504000D02*
X158880000Y-66104000D01*
X175120000Y-66504000D02*
X175120000Y-66104000D01*
X158880000Y-64504000D02*
X158880000Y-64104000D01*
X175120000Y-64504000D02*
X175120000Y-64104000D01*
X158880000Y-62504000D02*
X158880000Y-62104000D01*
X175120000Y-62504000D02*
X175120000Y-62104000D01*
X158880000Y-60504000D02*
X158880000Y-60104000D01*
X175120000Y-60504000D02*
X175120000Y-60104000D01*
X158880000Y-58504000D02*
X158880000Y-58104000D01*
X175120000Y-58504000D02*
X175120000Y-58104000D01*
X158880000Y-56504000D02*
X158880000Y-56104000D01*
X175120000Y-56504000D02*
X175120000Y-56104000D01*
X158880000Y-54504000D02*
X158880000Y-54104000D01*
X175120000Y-54504000D02*
X175120000Y-54104000D01*
G04 #@! TO.C,R3*
X125947365Y-69731267D02*
X125947365Y-69388733D01*
X126967365Y-69731267D02*
X126967365Y-69388733D01*
G04 #@! TO.C,SW3*
X177000000Y-83682000D02*
X175500000Y-83682000D01*
X173000000Y-84932000D02*
X173000000Y-89432000D01*
X175500000Y-90682000D02*
X177000000Y-90682000D01*
X179500000Y-89432000D02*
X179500000Y-84932000D01*
G04 #@! TO.C,D1*
X110400000Y-55860000D02*
X103500000Y-55860000D01*
X110400000Y-52560000D02*
X103500000Y-52560000D01*
X110400000Y-55860000D02*
X110400000Y-52560000D01*
G04 #@! TO.C,P2*
X179215000Y-57202000D02*
X179215000Y-68052000D01*
X184315000Y-57202000D02*
X179215000Y-57202000D01*
X184015000Y-57702000D02*
X184315000Y-57202000D01*
X189415000Y-57702000D02*
X184015000Y-57702000D01*
X189165000Y-57202000D02*
X189415000Y-57702000D01*
X189215000Y-57202000D02*
X189165000Y-57202000D01*
X191115000Y-57202000D02*
X189215000Y-57202000D01*
X190865000Y-57702000D02*
X191115000Y-57202000D01*
X191815000Y-57702000D02*
X190865000Y-57702000D01*
X191815000Y-68052000D02*
X191815000Y-57702000D01*
X179215000Y-68052000D02*
X191815000Y-68052000D01*
G04 #@! TO.C,U1*
X112290000Y-46780000D02*
X118300000Y-46780000D01*
X114540000Y-53600000D02*
X118300000Y-53600000D01*
X118300000Y-46780000D02*
X118300000Y-48040000D01*
X118300000Y-53600000D02*
X118300000Y-52340000D01*
G04 #@! TO.C,C1*
X112745733Y-55154000D02*
X113088267Y-55154000D01*
X112745733Y-56174000D02*
X113088267Y-56174000D01*
G04 #@! TO.C,R5*
X151640000Y-70059267D02*
X151640000Y-69716733D01*
X150620000Y-70059267D02*
X150620000Y-69716733D01*
G04 #@! TO.C,R4*
X137990000Y-70006267D02*
X137990000Y-69663733D01*
X139010000Y-70006267D02*
X139010000Y-69663733D01*
G04 #@! TO.C,CON1*
X107900000Y-56610000D02*
X107900000Y-59210000D01*
X93200000Y-56610000D02*
X107900000Y-56610000D01*
X107900000Y-65810000D02*
X106000000Y-65810000D01*
X107900000Y-63110000D02*
X107900000Y-65810000D01*
X93200000Y-65810000D02*
X93200000Y-56610000D01*
X102000000Y-65810000D02*
X93200000Y-65810000D01*
X107050000Y-56410000D02*
X108100000Y-56410000D01*
X108100000Y-57460000D02*
X108100000Y-56410000D01*
G04 #@! TO.C,J1*
X98324500Y-48630000D02*
X97874500Y-48630000D01*
X98324500Y-48630000D02*
X98324500Y-49080000D01*
X97774500Y-54230000D02*
X97774500Y-53780000D01*
X95924500Y-54230000D02*
X97774500Y-54230000D01*
X93374500Y-46430000D02*
X93624500Y-46430000D01*
X93374500Y-54230000D02*
X93624500Y-54230000D01*
X95924500Y-46430000D02*
X97774500Y-46430000D01*
X97774500Y-46430000D02*
X97774500Y-46880000D01*
G04 #@! TO.C,JP3*
X119265892Y-68860000D02*
G75*
G02X119965892Y-68160000I700000J0D01*
G01*
X120565892Y-68160000D02*
G75*
G02X121265892Y-68860000I0J-700000D01*
G01*
X121265892Y-70260000D02*
G75*
G02X120565892Y-70960000I-700000J0D01*
G01*
X119965892Y-70960000D02*
G75*
G02X119265892Y-70260000I0J700000D01*
G01*
X120565892Y-70960000D02*
X119965892Y-70960000D01*
X121265892Y-68860000D02*
X121265892Y-70260000D01*
X119965892Y-68160000D02*
X120565892Y-68160000D01*
X119265892Y-70260000D02*
X119265892Y-68860000D01*
G04 #@! TO.C,P1*
X179215000Y-57892000D02*
X191815000Y-57892000D01*
X191815000Y-57892000D02*
X191815000Y-47542000D01*
X191815000Y-47542000D02*
X190865000Y-47542000D01*
X190865000Y-47542000D02*
X191115000Y-47042000D01*
X191115000Y-47042000D02*
X189215000Y-47042000D01*
X189215000Y-47042000D02*
X189165000Y-47042000D01*
X189165000Y-47042000D02*
X189415000Y-47542000D01*
X189415000Y-47542000D02*
X184015000Y-47542000D01*
X184015000Y-47542000D02*
X184315000Y-47042000D01*
X184315000Y-47042000D02*
X179215000Y-47042000D01*
X179215000Y-47042000D02*
X179215000Y-57892000D01*
G04 #@! TO.C,SW2*
X168000000Y-83682000D02*
X166500000Y-83682000D01*
X164000000Y-84932000D02*
X164000000Y-89432000D01*
X166500000Y-90682000D02*
X168000000Y-90682000D01*
X170500000Y-89432000D02*
X170500000Y-84932000D01*
G04 #@! TO.C,U3*
X119191792Y-58598000D02*
X119191792Y-63398000D01*
X129991792Y-58598000D02*
X129991792Y-63398000D01*
X129591792Y-58598000D02*
X129591792Y-57198000D01*
X129991792Y-58598000D02*
X129591792Y-58598000D01*
G04 #@! TO.C,Q3*
X120781035Y-77320101D02*
X120781035Y-74780101D01*
X123321035Y-77320101D02*
X123321035Y-74780101D01*
X125861035Y-77320101D02*
X125861035Y-74780101D01*
X118201035Y-93210101D02*
X118201035Y-77320101D01*
X128441035Y-93210101D02*
X128441035Y-77320101D01*
X128441035Y-93210101D02*
X118201035Y-93210101D01*
X128441035Y-77320101D02*
X118201035Y-77320101D01*
G04 #@! TO.C,JP4*
X131648838Y-68860000D02*
G75*
G02X132348838Y-68160000I700000J0D01*
G01*
X132948838Y-68160000D02*
G75*
G02X133648838Y-68860000I0J-700000D01*
G01*
X133648838Y-70260000D02*
G75*
G02X132948838Y-70960000I-700000J0D01*
G01*
X132348838Y-70960000D02*
G75*
G02X131648838Y-70260000I0J700000D01*
G01*
X132948838Y-70960000D02*
X132348838Y-70960000D01*
X133648838Y-68860000D02*
X133648838Y-70260000D01*
X132348838Y-68160000D02*
X132948838Y-68160000D01*
X131648838Y-70260000D02*
X131648838Y-68860000D01*
G04 #@! TO.C,J4*
X143670000Y-63540000D02*
X143670000Y-62210000D01*
X145000000Y-63540000D02*
X143670000Y-63540000D01*
X146270000Y-63540000D02*
X146270000Y-60880000D01*
X146270000Y-60880000D02*
X151410000Y-60880000D01*
X146270000Y-63540000D02*
X151410000Y-63540000D01*
X151410000Y-63540000D02*
X151410000Y-60880000D01*
G04 #@! TO.C,J3*
X186330000Y-86540000D02*
X185000000Y-86540000D01*
X186330000Y-85210000D02*
X186330000Y-86540000D01*
X186330000Y-83940000D02*
X183670000Y-83940000D01*
X183670000Y-83940000D02*
X183670000Y-81340000D01*
X186330000Y-83940000D02*
X186330000Y-81340000D01*
X186330000Y-81340000D02*
X183670000Y-81340000D01*
G04 #@! TO.C,C3*
X109490000Y-48597267D02*
X109490000Y-48254733D01*
X110510000Y-48597267D02*
X110510000Y-48254733D01*
G04 #@! TO.C,J2*
X191330000Y-91540000D02*
X190000000Y-91540000D01*
X191330000Y-90210000D02*
X191330000Y-91540000D01*
X191330000Y-88940000D02*
X188670000Y-88940000D01*
X188670000Y-88940000D02*
X188670000Y-81260000D01*
X191330000Y-88940000D02*
X191330000Y-81260000D01*
X191330000Y-81260000D02*
X188670000Y-81260000D01*
G04 #@! TO.C,Y1*
X118790000Y-66145500D02*
X118790000Y-58170500D01*
X114890000Y-66145500D02*
X118790000Y-66145500D01*
X114890000Y-58170500D02*
X114890000Y-66145500D01*
G04 #@! TO.C,U4*
X133855055Y-59220316D02*
G75*
G03X134883500Y-63498000I1808445J-1827684D01*
G01*
X137475375Y-59206259D02*
G75*
G02X136483500Y-63498000I-1811875J-1841741D01*
G01*
X137463500Y-59198000D02*
X133863500Y-59198000D01*
G04 #@! TO.C,P3*
X179215000Y-67362000D02*
X179215000Y-78212000D01*
X184315000Y-67362000D02*
X179215000Y-67362000D01*
X184015000Y-67862000D02*
X184315000Y-67362000D01*
X189415000Y-67862000D02*
X184015000Y-67862000D01*
X189165000Y-67362000D02*
X189415000Y-67862000D01*
X189215000Y-67362000D02*
X189165000Y-67362000D01*
X191115000Y-67362000D02*
X189215000Y-67362000D01*
X190865000Y-67862000D02*
X191115000Y-67362000D01*
X191815000Y-67862000D02*
X190865000Y-67862000D01*
X191815000Y-78212000D02*
X191815000Y-67862000D01*
X179215000Y-78212000D02*
X191815000Y-78212000D01*
G04 #@! TO.C,Q1*
X95787409Y-77320101D02*
X95787409Y-74780101D01*
X98327409Y-77320101D02*
X98327409Y-74780101D01*
X100867409Y-77320101D02*
X100867409Y-74780101D01*
X93207409Y-93210101D02*
X93207409Y-77320101D01*
X103447409Y-93210101D02*
X103447409Y-77320101D01*
X103447409Y-93210101D02*
X93207409Y-93210101D01*
X103447409Y-77320101D02*
X93207409Y-77320101D01*
G04 #@! TO.C,R2*
X114584419Y-69731267D02*
X114584419Y-69388733D01*
X113564419Y-69731267D02*
X113564419Y-69388733D01*
G04 #@! TO.C,JP9*
X162068000Y-73506000D02*
G75*
G02X162768000Y-72806000I700000J0D01*
G01*
X163368000Y-72806000D02*
G75*
G02X164068000Y-73506000I0J-700000D01*
G01*
X164068000Y-74906000D02*
G75*
G02X163368000Y-75606000I-700000J0D01*
G01*
X162768000Y-75606000D02*
G75*
G02X162068000Y-74906000I0J700000D01*
G01*
X163368000Y-75606000D02*
X162768000Y-75606000D01*
X164068000Y-73506000D02*
X164068000Y-74906000D01*
X162768000Y-72806000D02*
X163368000Y-72806000D01*
X162068000Y-74906000D02*
X162068000Y-73506000D01*
D13*
G04 #@! TO.C,U5*
X168296000Y-70456000D02*
X168296000Y-76431000D01*
X161396000Y-71981000D02*
X161396000Y-76431000D01*
D12*
G04 #@! TO.C,JP8*
X164100000Y-74906000D02*
X164100000Y-73506000D01*
X164800000Y-72806000D02*
X165400000Y-72806000D01*
X166100000Y-73506000D02*
X166100000Y-74906000D01*
X165400000Y-75606000D02*
X164800000Y-75606000D01*
X164800000Y-75606000D02*
G75*
G02X164100000Y-74906000I0J700000D01*
G01*
X166100000Y-74906000D02*
G75*
G02X165400000Y-75606000I-700000J0D01*
G01*
X165400000Y-72806000D02*
G75*
G02X166100000Y-73506000I0J-700000D01*
G01*
X164100000Y-73506000D02*
G75*
G02X164800000Y-72806000I700000J0D01*
G01*
G04 #@! TO.C,JP7*
X166132000Y-74906000D02*
X166132000Y-73506000D01*
X166832000Y-72806000D02*
X167432000Y-72806000D01*
X168132000Y-73506000D02*
X168132000Y-74906000D01*
X167432000Y-75606000D02*
X166832000Y-75606000D01*
X166832000Y-75606000D02*
G75*
G02X166132000Y-74906000I0J700000D01*
G01*
X168132000Y-74906000D02*
G75*
G02X167432000Y-75606000I-700000J0D01*
G01*
X167432000Y-72806000D02*
G75*
G02X168132000Y-73506000I0J-700000D01*
G01*
X166132000Y-73506000D02*
G75*
G02X166832000Y-72806000I700000J0D01*
G01*
G04 #@! TO.C,JP6*
X168164000Y-73506000D02*
G75*
G02X168864000Y-72806000I700000J0D01*
G01*
X169464000Y-72806000D02*
G75*
G02X170164000Y-73506000I0J-700000D01*
G01*
X170164000Y-74906000D02*
G75*
G02X169464000Y-75606000I-700000J0D01*
G01*
X168864000Y-75606000D02*
G75*
G02X168164000Y-74906000I0J700000D01*
G01*
X169464000Y-75606000D02*
X168864000Y-75606000D01*
X170164000Y-73506000D02*
X170164000Y-74906000D01*
X168864000Y-72806000D02*
X169464000Y-72806000D01*
X168164000Y-74906000D02*
X168164000Y-73506000D01*
G04 #@! TO.C,C9*
X159481733Y-70648000D02*
X159824267Y-70648000D01*
X159481733Y-71668000D02*
X159824267Y-71668000D01*
G04 #@! TO.C,Q2*
X115944222Y-77320101D02*
X105704222Y-77320101D01*
X115944222Y-93210101D02*
X105704222Y-93210101D01*
X115944222Y-93210101D02*
X115944222Y-77320101D01*
X105704222Y-93210101D02*
X105704222Y-77320101D01*
X113364222Y-77320101D02*
X113364222Y-74780101D01*
X110824222Y-77320101D02*
X110824222Y-74780101D01*
X108284222Y-77320101D02*
X108284222Y-74780101D01*
G04 #@! TO.C,R1*
X101181473Y-69731267D02*
X101181473Y-69388733D01*
X102201473Y-69731267D02*
X102201473Y-69388733D01*
G04 #@! TO.C,JP5*
X144288000Y-68860000D02*
G75*
G02X144988000Y-68160000I700000J0D01*
G01*
X145588000Y-68160000D02*
G75*
G02X146288000Y-68860000I0J-700000D01*
G01*
X146288000Y-70260000D02*
G75*
G02X145588000Y-70960000I-700000J0D01*
G01*
X144988000Y-70960000D02*
G75*
G02X144288000Y-70260000I0J700000D01*
G01*
X145588000Y-70960000D02*
X144988000Y-70960000D01*
X146288000Y-68860000D02*
X146288000Y-70260000D01*
X144988000Y-68160000D02*
X145588000Y-68160000D01*
X144288000Y-70260000D02*
X144288000Y-68860000D01*
G04 #@! TO.C,JP1*
X94500000Y-70260000D02*
X94500000Y-68860000D01*
X95200000Y-68160000D02*
X95800000Y-68160000D01*
X96500000Y-68860000D02*
X96500000Y-70260000D01*
X95800000Y-70960000D02*
X95200000Y-70960000D01*
X95200000Y-70960000D02*
G75*
G02X94500000Y-70260000I0J700000D01*
G01*
X96500000Y-70260000D02*
G75*
G02X95800000Y-70960000I-700000J0D01*
G01*
X95800000Y-68160000D02*
G75*
G02X96500000Y-68860000I0J-700000D01*
G01*
X94500000Y-68860000D02*
G75*
G02X95200000Y-68160000I700000J0D01*
G01*
G04 #@! TO.C,Q5*
X153453785Y-77320101D02*
X143213785Y-77320101D01*
X153453785Y-93210101D02*
X143213785Y-93210101D01*
X153453785Y-93210101D02*
X153453785Y-77320101D01*
X143213785Y-93210101D02*
X143213785Y-77320101D01*
X150873785Y-77320101D02*
X150873785Y-74780101D01*
X148333785Y-77320101D02*
X148333785Y-74780101D01*
X145793785Y-77320101D02*
X145793785Y-74780101D01*
G04 #@! TO.C,R8*
X132336000Y-62038733D02*
X132336000Y-62381267D01*
X131316000Y-62038733D02*
X131316000Y-62381267D01*
G04 #@! TO.C,F1*
X104710000Y-50336252D02*
X104710000Y-47563748D01*
X101290000Y-50336252D02*
X101290000Y-47563748D01*
G04 #@! TO.C,C4*
X133319733Y-58460000D02*
X133662267Y-58460000D01*
X133319733Y-57440000D02*
X133662267Y-57440000D01*
G04 #@! TO.C,C5*
X113060267Y-58968000D02*
X112717733Y-58968000D01*
X113060267Y-57948000D02*
X112717733Y-57948000D01*
G04 #@! TO.C,C8*
X167642000Y-129622733D02*
X167642000Y-129965267D01*
X166622000Y-129622733D02*
X166622000Y-129965267D01*
G04 #@! TO.C,JP10*
X160036000Y-123506000D02*
G75*
G02X160736000Y-122806000I700000J0D01*
G01*
X161336000Y-122806000D02*
G75*
G02X162036000Y-123506000I0J-700000D01*
G01*
X162036000Y-124906000D02*
G75*
G02X161336000Y-125606000I-700000J0D01*
G01*
X160736000Y-125606000D02*
G75*
G02X160036000Y-124906000I0J700000D01*
G01*
X161336000Y-125606000D02*
X160736000Y-125606000D01*
X162036000Y-123506000D02*
X162036000Y-124906000D01*
X160736000Y-122806000D02*
X161336000Y-122806000D01*
X160036000Y-124906000D02*
X160036000Y-123506000D01*
G04 #@! TO.C,C2*
X135360000Y-105570000D02*
X135360000Y-101720000D01*
X135360000Y-94850000D02*
X135360000Y-98700000D01*
X125704437Y-94850000D02*
X135360000Y-94850000D01*
X125704437Y-105570000D02*
X135360000Y-105570000D01*
X124640000Y-104505563D02*
X124640000Y-101720000D01*
X124640000Y-95914437D02*
X124640000Y-98700000D01*
X124640000Y-95914437D02*
X125704437Y-94850000D01*
X124640000Y-104505563D02*
X125704437Y-105570000D01*
X123150000Y-97450000D02*
X124400000Y-97450000D01*
X123775000Y-96825000D02*
X123775000Y-98075000D01*
G04 #@! TO.C,C7*
X133171267Y-115720000D02*
X132828733Y-115720000D01*
X133171267Y-114700000D02*
X132828733Y-114700000D01*
G04 #@! TO.C,C6*
X113088267Y-114810000D02*
X112745733Y-114810000D01*
X113088267Y-113790000D02*
X112745733Y-113790000D01*
G04 #@! TO.C,C4*
X133319733Y-107440000D02*
X133662267Y-107440000D01*
X133319733Y-108460000D02*
X133662267Y-108460000D01*
G04 #@! TO.C,C5*
X113060267Y-107948000D02*
X112717733Y-107948000D01*
X113060267Y-108968000D02*
X112717733Y-108968000D01*
G04 #@! TO.C,R6*
X154684000Y-116644267D02*
X154684000Y-116301733D01*
X155704000Y-116644267D02*
X155704000Y-116301733D01*
G04 #@! TO.C,R7*
X178056000Y-116273733D02*
X178056000Y-116616267D01*
X177036000Y-116273733D02*
X177036000Y-116616267D01*
G04 #@! TO.C,U2*
X175120000Y-104504000D02*
X175120000Y-104104000D01*
X158880000Y-104504000D02*
X158880000Y-104104000D01*
X175120000Y-106504000D02*
X175120000Y-106104000D01*
X158880000Y-106504000D02*
X158880000Y-106104000D01*
X175120000Y-108504000D02*
X175120000Y-108104000D01*
X158880000Y-108504000D02*
X158880000Y-108104000D01*
X175120000Y-110504000D02*
X175120000Y-110104000D01*
X158880000Y-110504000D02*
X158880000Y-110104000D01*
X175120000Y-112504000D02*
X175120000Y-112104000D01*
X158880000Y-112504000D02*
X158880000Y-112104000D01*
X175120000Y-114504000D02*
X175120000Y-114104000D01*
X158880000Y-114504000D02*
X158880000Y-114104000D01*
X175120000Y-116504000D02*
X175120000Y-116104000D01*
X158880000Y-116504000D02*
X158880000Y-116104000D01*
X157850000Y-102804000D02*
X157850000Y-103804000D01*
X158880000Y-118924000D02*
X158880000Y-118104000D01*
X175120000Y-118924000D02*
X158880000Y-118924000D01*
X175120000Y-118104000D02*
X175120000Y-118924000D01*
G04 #@! TO.C,JP1*
X94500000Y-118860000D02*
G75*
G02X95200000Y-118160000I700000J0D01*
G01*
X95800000Y-118160000D02*
G75*
G02X96500000Y-118860000I0J-700000D01*
G01*
X96500000Y-120260000D02*
G75*
G02X95800000Y-120960000I-700000J0D01*
G01*
X95200000Y-120960000D02*
G75*
G02X94500000Y-120260000I0J700000D01*
G01*
X95800000Y-120960000D02*
X95200000Y-120960000D01*
X96500000Y-118860000D02*
X96500000Y-120260000D01*
X95200000Y-118160000D02*
X95800000Y-118160000D01*
X94500000Y-120260000D02*
X94500000Y-118860000D01*
G04 #@! TO.C,SW1*
X159000000Y-133682000D02*
X157500000Y-133682000D01*
X155000000Y-134932000D02*
X155000000Y-139432000D01*
X157500000Y-140682000D02*
X159000000Y-140682000D01*
X161500000Y-139432000D02*
X161500000Y-134932000D01*
G04 #@! TO.C,P1*
X179215000Y-97042000D02*
X179215000Y-107892000D01*
X184315000Y-97042000D02*
X179215000Y-97042000D01*
X184015000Y-97542000D02*
X184315000Y-97042000D01*
X189415000Y-97542000D02*
X184015000Y-97542000D01*
X189165000Y-97042000D02*
X189415000Y-97542000D01*
X189215000Y-97042000D02*
X189165000Y-97042000D01*
X191115000Y-97042000D02*
X189215000Y-97042000D01*
X190865000Y-97542000D02*
X191115000Y-97042000D01*
X191815000Y-97542000D02*
X190865000Y-97542000D01*
X191815000Y-107892000D02*
X191815000Y-97542000D01*
X179215000Y-107892000D02*
X191815000Y-107892000D01*
G04 #@! TO.C,Q5*
X145793785Y-127320101D02*
X145793785Y-124780101D01*
X148333785Y-127320101D02*
X148333785Y-124780101D01*
X150873785Y-127320101D02*
X150873785Y-124780101D01*
X143213785Y-143210101D02*
X143213785Y-127320101D01*
X153453785Y-143210101D02*
X153453785Y-127320101D01*
X153453785Y-143210101D02*
X143213785Y-143210101D01*
X153453785Y-127320101D02*
X143213785Y-127320101D01*
G04 #@! TO.C,JP5*
X144288000Y-120260000D02*
X144288000Y-118860000D01*
X144988000Y-118160000D02*
X145588000Y-118160000D01*
X146288000Y-118860000D02*
X146288000Y-120260000D01*
X145588000Y-120960000D02*
X144988000Y-120960000D01*
X144988000Y-120960000D02*
G75*
G02X144288000Y-120260000I0J700000D01*
G01*
X146288000Y-120260000D02*
G75*
G02X145588000Y-120960000I-700000J0D01*
G01*
X145588000Y-118160000D02*
G75*
G02X146288000Y-118860000I0J-700000D01*
G01*
X144288000Y-118860000D02*
G75*
G02X144988000Y-118160000I700000J0D01*
G01*
G04 #@! TO.C,SW2*
X170500000Y-139432000D02*
X170500000Y-134932000D01*
X166500000Y-140682000D02*
X168000000Y-140682000D01*
X164000000Y-134932000D02*
X164000000Y-139432000D01*
X168000000Y-133682000D02*
X166500000Y-133682000D01*
G04 #@! TO.C,R4*
X139010000Y-120006267D02*
X139010000Y-119663733D01*
X137990000Y-120006267D02*
X137990000Y-119663733D01*
G04 #@! TO.C,R8*
X131316000Y-112038733D02*
X131316000Y-112381267D01*
X132336000Y-112038733D02*
X132336000Y-112381267D01*
G04 #@! TO.C,P2*
X179215000Y-118052000D02*
X191815000Y-118052000D01*
X191815000Y-118052000D02*
X191815000Y-107702000D01*
X191815000Y-107702000D02*
X190865000Y-107702000D01*
X190865000Y-107702000D02*
X191115000Y-107202000D01*
X191115000Y-107202000D02*
X189215000Y-107202000D01*
X189215000Y-107202000D02*
X189165000Y-107202000D01*
X189165000Y-107202000D02*
X189415000Y-107702000D01*
X189415000Y-107702000D02*
X184015000Y-107702000D01*
X184015000Y-107702000D02*
X184315000Y-107202000D01*
X184315000Y-107202000D02*
X179215000Y-107202000D01*
X179215000Y-107202000D02*
X179215000Y-118052000D01*
G04 #@! TO.C,Q4*
X140950596Y-127320101D02*
X130710596Y-127320101D01*
X140950596Y-143210101D02*
X130710596Y-143210101D01*
X140950596Y-143210101D02*
X140950596Y-127320101D01*
X130710596Y-143210101D02*
X130710596Y-127320101D01*
X138370596Y-127320101D02*
X138370596Y-124780101D01*
X135830596Y-127320101D02*
X135830596Y-124780101D01*
X133290596Y-127320101D02*
X133290596Y-124780101D01*
G04 #@! TO.C,R3*
X126967365Y-119731267D02*
X126967365Y-119388733D01*
X125947365Y-119731267D02*
X125947365Y-119388733D01*
G04 #@! TO.C,JP3*
X119265892Y-120260000D02*
X119265892Y-118860000D01*
X119965892Y-118160000D02*
X120565892Y-118160000D01*
X121265892Y-118860000D02*
X121265892Y-120260000D01*
X120565892Y-120960000D02*
X119965892Y-120960000D01*
X119965892Y-120960000D02*
G75*
G02X119265892Y-120260000I0J700000D01*
G01*
X121265892Y-120260000D02*
G75*
G02X120565892Y-120960000I-700000J0D01*
G01*
X120565892Y-118160000D02*
G75*
G02X121265892Y-118860000I0J-700000D01*
G01*
X119265892Y-118860000D02*
G75*
G02X119965892Y-118160000I700000J0D01*
G01*
G04 #@! TO.C,JP2*
X106882946Y-120260000D02*
X106882946Y-118860000D01*
X107582946Y-118160000D02*
X108182946Y-118160000D01*
X108882946Y-118860000D02*
X108882946Y-120260000D01*
X108182946Y-120960000D02*
X107582946Y-120960000D01*
X107582946Y-120960000D02*
G75*
G02X106882946Y-120260000I0J700000D01*
G01*
X108882946Y-120260000D02*
G75*
G02X108182946Y-120960000I-700000J0D01*
G01*
X108182946Y-118160000D02*
G75*
G02X108882946Y-118860000I0J-700000D01*
G01*
X106882946Y-118860000D02*
G75*
G02X107582946Y-118160000I700000J0D01*
G01*
G04 #@! TO.C,U1*
X118300000Y-103600000D02*
X118300000Y-102340000D01*
X118300000Y-96780000D02*
X118300000Y-98040000D01*
X114540000Y-103600000D02*
X118300000Y-103600000D01*
X112290000Y-96780000D02*
X118300000Y-96780000D01*
G04 #@! TO.C,R5*
X150620000Y-120059267D02*
X150620000Y-119716733D01*
X151640000Y-120059267D02*
X151640000Y-119716733D01*
G04 #@! TO.C,F1*
X101290000Y-100336252D02*
X101290000Y-97563748D01*
X104710000Y-100336252D02*
X104710000Y-97563748D01*
G04 #@! TO.C,SW3*
X179500000Y-139432000D02*
X179500000Y-134932000D01*
X175500000Y-140682000D02*
X177000000Y-140682000D01*
X173000000Y-134932000D02*
X173000000Y-139432000D01*
X177000000Y-133682000D02*
X175500000Y-133682000D01*
G04 #@! TO.C,C3*
X110510000Y-98597267D02*
X110510000Y-98254733D01*
X109490000Y-98597267D02*
X109490000Y-98254733D01*
G04 #@! TO.C,P3*
X179215000Y-128212000D02*
X191815000Y-128212000D01*
X191815000Y-128212000D02*
X191815000Y-117862000D01*
X191815000Y-117862000D02*
X190865000Y-117862000D01*
X190865000Y-117862000D02*
X191115000Y-117362000D01*
X191115000Y-117362000D02*
X189215000Y-117362000D01*
X189215000Y-117362000D02*
X189165000Y-117362000D01*
X189165000Y-117362000D02*
X189415000Y-117862000D01*
X189415000Y-117862000D02*
X184015000Y-117862000D01*
X184015000Y-117862000D02*
X184315000Y-117362000D01*
X184315000Y-117362000D02*
X179215000Y-117362000D01*
X179215000Y-117362000D02*
X179215000Y-128212000D01*
G04 #@! TO.C,D1*
X110400000Y-105860000D02*
X110400000Y-102560000D01*
X110400000Y-102560000D02*
X103500000Y-102560000D01*
X110400000Y-105860000D02*
X103500000Y-105860000D01*
G04 #@! TO.C,CON1*
X108100000Y-107460000D02*
X108100000Y-106410000D01*
X107050000Y-106410000D02*
X108100000Y-106410000D01*
X102000000Y-115810000D02*
X93200000Y-115810000D01*
X93200000Y-115810000D02*
X93200000Y-106610000D01*
X107900000Y-113110000D02*
X107900000Y-115810000D01*
X107900000Y-115810000D02*
X106000000Y-115810000D01*
X93200000Y-106610000D02*
X107900000Y-106610000D01*
X107900000Y-106610000D02*
X107900000Y-109210000D01*
G04 #@! TO.C,J1*
X97774500Y-96430000D02*
X97774500Y-96880000D01*
X95924500Y-96430000D02*
X97774500Y-96430000D01*
X93374500Y-104230000D02*
X93624500Y-104230000D01*
X93374500Y-96430000D02*
X93624500Y-96430000D01*
X95924500Y-104230000D02*
X97774500Y-104230000D01*
X97774500Y-104230000D02*
X97774500Y-103780000D01*
X98324500Y-98630000D02*
X98324500Y-99080000D01*
X98324500Y-98630000D02*
X97874500Y-98630000D01*
G04 #@! TO.C,C1*
X112745733Y-106174000D02*
X113088267Y-106174000D01*
X112745733Y-105154000D02*
X113088267Y-105154000D01*
G04 #@! TO.C,Q1*
X103447409Y-127320101D02*
X93207409Y-127320101D01*
X103447409Y-143210101D02*
X93207409Y-143210101D01*
X103447409Y-143210101D02*
X103447409Y-127320101D01*
X93207409Y-143210101D02*
X93207409Y-127320101D01*
X100867409Y-127320101D02*
X100867409Y-124780101D01*
X98327409Y-127320101D02*
X98327409Y-124780101D01*
X95787409Y-127320101D02*
X95787409Y-124780101D01*
G04 #@! TO.C,R1*
X102201473Y-119731267D02*
X102201473Y-119388733D01*
X101181473Y-119731267D02*
X101181473Y-119388733D01*
G04 #@! TO.C,Q2*
X108284222Y-127320101D02*
X108284222Y-124780101D01*
X110824222Y-127320101D02*
X110824222Y-124780101D01*
X113364222Y-127320101D02*
X113364222Y-124780101D01*
X105704222Y-143210101D02*
X105704222Y-127320101D01*
X115944222Y-143210101D02*
X115944222Y-127320101D01*
X115944222Y-143210101D02*
X105704222Y-143210101D01*
X115944222Y-127320101D02*
X105704222Y-127320101D01*
G04 #@! TO.C,R2*
X113564419Y-119731267D02*
X113564419Y-119388733D01*
X114584419Y-119731267D02*
X114584419Y-119388733D01*
G04 #@! TO.C,Q3*
X128441035Y-127320101D02*
X118201035Y-127320101D01*
X128441035Y-143210101D02*
X118201035Y-143210101D01*
X128441035Y-143210101D02*
X128441035Y-127320101D01*
X118201035Y-143210101D02*
X118201035Y-127320101D01*
X125861035Y-127320101D02*
X125861035Y-124780101D01*
X123321035Y-127320101D02*
X123321035Y-124780101D01*
X120781035Y-127320101D02*
X120781035Y-124780101D01*
G04 #@! TO.C,U4*
X137463500Y-109198000D02*
X133863500Y-109198000D01*
X137475375Y-109206259D02*
G75*
G02X136483500Y-113498000I-1811875J-1841741D01*
G01*
X133855055Y-109220316D02*
G75*
G03X134883500Y-113498000I1808445J-1827684D01*
G01*
G04 #@! TO.C,Y1*
X114890000Y-108170500D02*
X114890000Y-116145500D01*
X114890000Y-116145500D02*
X118790000Y-116145500D01*
X118790000Y-116145500D02*
X118790000Y-108170500D01*
G04 #@! TO.C,J2*
X191330000Y-131260000D02*
X188670000Y-131260000D01*
X191330000Y-138940000D02*
X191330000Y-131260000D01*
X188670000Y-138940000D02*
X188670000Y-131260000D01*
X191330000Y-138940000D02*
X188670000Y-138940000D01*
X191330000Y-140210000D02*
X191330000Y-141540000D01*
X191330000Y-141540000D02*
X190000000Y-141540000D01*
G04 #@! TO.C,J3*
X186330000Y-131340000D02*
X183670000Y-131340000D01*
X186330000Y-133940000D02*
X186330000Y-131340000D01*
X183670000Y-133940000D02*
X183670000Y-131340000D01*
X186330000Y-133940000D02*
X183670000Y-133940000D01*
X186330000Y-135210000D02*
X186330000Y-136540000D01*
X186330000Y-136540000D02*
X185000000Y-136540000D01*
G04 #@! TO.C,J4*
X151410000Y-113540000D02*
X151410000Y-110880000D01*
X146270000Y-113540000D02*
X151410000Y-113540000D01*
X146270000Y-110880000D02*
X151410000Y-110880000D01*
X146270000Y-113540000D02*
X146270000Y-110880000D01*
X145000000Y-113540000D02*
X143670000Y-113540000D01*
X143670000Y-113540000D02*
X143670000Y-112210000D01*
G04 #@! TO.C,JP4*
X131648838Y-120260000D02*
X131648838Y-118860000D01*
X132348838Y-118160000D02*
X132948838Y-118160000D01*
X133648838Y-118860000D02*
X133648838Y-120260000D01*
X132948838Y-120960000D02*
X132348838Y-120960000D01*
X132348838Y-120960000D02*
G75*
G02X131648838Y-120260000I0J700000D01*
G01*
X133648838Y-120260000D02*
G75*
G02X132948838Y-120960000I-700000J0D01*
G01*
X132948838Y-118160000D02*
G75*
G02X133648838Y-118860000I0J-700000D01*
G01*
X131648838Y-118860000D02*
G75*
G02X132348838Y-118160000I700000J0D01*
G01*
G04 #@! TO.C,C9*
X159481733Y-121668000D02*
X159824267Y-121668000D01*
X159481733Y-120648000D02*
X159824267Y-120648000D01*
G04 #@! TO.C,JP6*
X168164000Y-124906000D02*
X168164000Y-123506000D01*
X168864000Y-122806000D02*
X169464000Y-122806000D01*
X170164000Y-123506000D02*
X170164000Y-124906000D01*
X169464000Y-125606000D02*
X168864000Y-125606000D01*
X168864000Y-125606000D02*
G75*
G02X168164000Y-124906000I0J700000D01*
G01*
X170164000Y-124906000D02*
G75*
G02X169464000Y-125606000I-700000J0D01*
G01*
X169464000Y-122806000D02*
G75*
G02X170164000Y-123506000I0J-700000D01*
G01*
X168164000Y-123506000D02*
G75*
G02X168864000Y-122806000I700000J0D01*
G01*
G04 #@! TO.C,JP7*
X166132000Y-123506000D02*
G75*
G02X166832000Y-122806000I700000J0D01*
G01*
X167432000Y-122806000D02*
G75*
G02X168132000Y-123506000I0J-700000D01*
G01*
X168132000Y-124906000D02*
G75*
G02X167432000Y-125606000I-700000J0D01*
G01*
X166832000Y-125606000D02*
G75*
G02X166132000Y-124906000I0J700000D01*
G01*
X167432000Y-125606000D02*
X166832000Y-125606000D01*
X168132000Y-123506000D02*
X168132000Y-124906000D01*
X166832000Y-122806000D02*
X167432000Y-122806000D01*
X166132000Y-124906000D02*
X166132000Y-123506000D01*
G04 #@! TO.C,JP8*
X164100000Y-123506000D02*
G75*
G02X164800000Y-122806000I700000J0D01*
G01*
X165400000Y-122806000D02*
G75*
G02X166100000Y-123506000I0J-700000D01*
G01*
X166100000Y-124906000D02*
G75*
G02X165400000Y-125606000I-700000J0D01*
G01*
X164800000Y-125606000D02*
G75*
G02X164100000Y-124906000I0J700000D01*
G01*
X165400000Y-125606000D02*
X164800000Y-125606000D01*
X166100000Y-123506000D02*
X166100000Y-124906000D01*
X164800000Y-122806000D02*
X165400000Y-122806000D01*
X164100000Y-124906000D02*
X164100000Y-123506000D01*
G04 #@! TO.C,JP9*
X162068000Y-124906000D02*
X162068000Y-123506000D01*
X162768000Y-122806000D02*
X163368000Y-122806000D01*
X164068000Y-123506000D02*
X164068000Y-124906000D01*
X163368000Y-125606000D02*
X162768000Y-125606000D01*
X162768000Y-125606000D02*
G75*
G02X162068000Y-124906000I0J700000D01*
G01*
X164068000Y-124906000D02*
G75*
G02X163368000Y-125606000I-700000J0D01*
G01*
X163368000Y-122806000D02*
G75*
G02X164068000Y-123506000I0J-700000D01*
G01*
X162068000Y-123506000D02*
G75*
G02X162768000Y-122806000I700000J0D01*
G01*
D13*
G04 #@! TO.C,U5*
X161396000Y-121981000D02*
X161396000Y-126431000D01*
X168296000Y-120456000D02*
X168296000Y-126431000D01*
D12*
G04 #@! TO.C,U3*
X129991792Y-108598000D02*
X129591792Y-108598000D01*
X129591792Y-108598000D02*
X129591792Y-107198000D01*
X129991792Y-108598000D02*
X129991792Y-113398000D01*
X119191792Y-108598000D02*
X119191792Y-113398000D01*
G04 #@! TO.C,SW1*
D13*
X157003904Y-93454380D02*
X156670571Y-92978190D01*
X156432476Y-93454380D02*
X156432476Y-92454380D01*
X156813428Y-92454380D01*
X156908666Y-92502000D01*
X156956285Y-92549619D01*
X157003904Y-92644857D01*
X157003904Y-92787714D01*
X156956285Y-92882952D01*
X156908666Y-92930571D01*
X156813428Y-92978190D01*
X156432476Y-92978190D01*
X157813428Y-93406761D02*
X157718190Y-93454380D01*
X157527714Y-93454380D01*
X157432476Y-93406761D01*
X157384857Y-93311523D01*
X157384857Y-92930571D01*
X157432476Y-92835333D01*
X157527714Y-92787714D01*
X157718190Y-92787714D01*
X157813428Y-92835333D01*
X157861047Y-92930571D01*
X157861047Y-93025809D01*
X157384857Y-93121047D01*
X158242000Y-93406761D02*
X158337238Y-93454380D01*
X158527714Y-93454380D01*
X158622952Y-93406761D01*
X158670571Y-93311523D01*
X158670571Y-93263904D01*
X158622952Y-93168666D01*
X158527714Y-93121047D01*
X158384857Y-93121047D01*
X158289619Y-93073428D01*
X158242000Y-92978190D01*
X158242000Y-92930571D01*
X158289619Y-92835333D01*
X158384857Y-92787714D01*
X158527714Y-92787714D01*
X158622952Y-92835333D01*
X159480095Y-93406761D02*
X159384857Y-93454380D01*
X159194380Y-93454380D01*
X159099142Y-93406761D01*
X159051523Y-93311523D01*
X159051523Y-92930571D01*
X159099142Y-92835333D01*
X159194380Y-92787714D01*
X159384857Y-92787714D01*
X159480095Y-92835333D01*
X159527714Y-92930571D01*
X159527714Y-93025809D01*
X159051523Y-93121047D01*
X159813428Y-92787714D02*
X160194380Y-92787714D01*
X159956285Y-92454380D02*
X159956285Y-93311523D01*
X160003904Y-93406761D01*
X160099142Y-93454380D01*
X160194380Y-93454380D01*
X156916666Y-87586761D02*
X157059523Y-87634380D01*
X157297619Y-87634380D01*
X157392857Y-87586761D01*
X157440476Y-87539142D01*
X157488095Y-87443904D01*
X157488095Y-87348666D01*
X157440476Y-87253428D01*
X157392857Y-87205809D01*
X157297619Y-87158190D01*
X157107142Y-87110571D01*
X157011904Y-87062952D01*
X156964285Y-87015333D01*
X156916666Y-86920095D01*
X156916666Y-86824857D01*
X156964285Y-86729619D01*
X157011904Y-86682000D01*
X157107142Y-86634380D01*
X157345238Y-86634380D01*
X157488095Y-86682000D01*
X157821428Y-86634380D02*
X158059523Y-87634380D01*
X158250000Y-86920095D01*
X158440476Y-87634380D01*
X158678571Y-86634380D01*
X159583333Y-87634380D02*
X159011904Y-87634380D01*
X159297619Y-87634380D02*
X159297619Y-86634380D01*
X159202380Y-86777238D01*
X159107142Y-86872476D01*
X159011904Y-86920095D01*
G04 #@! TO.C,C8*
X164933333Y-79897142D02*
X164885714Y-79944761D01*
X164742857Y-79992380D01*
X164647619Y-79992380D01*
X164504761Y-79944761D01*
X164409523Y-79849523D01*
X164361904Y-79754285D01*
X164314285Y-79563809D01*
X164314285Y-79420952D01*
X164361904Y-79230476D01*
X164409523Y-79135238D01*
X164504761Y-79040000D01*
X164647619Y-78992380D01*
X164742857Y-78992380D01*
X164885714Y-79040000D01*
X164933333Y-79087619D01*
X165504761Y-79420952D02*
X165409523Y-79373333D01*
X165361904Y-79325714D01*
X165314285Y-79230476D01*
X165314285Y-79182857D01*
X165361904Y-79087619D01*
X165409523Y-79040000D01*
X165504761Y-78992380D01*
X165695238Y-78992380D01*
X165790476Y-79040000D01*
X165838095Y-79087619D01*
X165885714Y-79182857D01*
X165885714Y-79230476D01*
X165838095Y-79325714D01*
X165790476Y-79373333D01*
X165695238Y-79420952D01*
X165504761Y-79420952D01*
X165409523Y-79468571D01*
X165361904Y-79516190D01*
X165314285Y-79611428D01*
X165314285Y-79801904D01*
X165361904Y-79897142D01*
X165409523Y-79944761D01*
X165504761Y-79992380D01*
X165695238Y-79992380D01*
X165790476Y-79944761D01*
X165838095Y-79897142D01*
X165885714Y-79801904D01*
X165885714Y-79611428D01*
X165838095Y-79516190D01*
X165790476Y-79468571D01*
X165695238Y-79420952D01*
G04 #@! TO.C,JP10*
X158202380Y-75769523D02*
X158916666Y-75769523D01*
X159059523Y-75817142D01*
X159154761Y-75912380D01*
X159202380Y-76055238D01*
X159202380Y-76150476D01*
X159202380Y-75293333D02*
X158202380Y-75293333D01*
X158202380Y-74912380D01*
X158250000Y-74817142D01*
X158297619Y-74769523D01*
X158392857Y-74721904D01*
X158535714Y-74721904D01*
X158630952Y-74769523D01*
X158678571Y-74817142D01*
X158726190Y-74912380D01*
X158726190Y-75293333D01*
X159202380Y-73769523D02*
X159202380Y-74340952D01*
X159202380Y-74055238D02*
X158202380Y-74055238D01*
X158345238Y-74150476D01*
X158440476Y-74245714D01*
X158488095Y-74340952D01*
X158202380Y-73150476D02*
X158202380Y-73055238D01*
X158250000Y-72960000D01*
X158297619Y-72912380D01*
X158392857Y-72864761D01*
X158583333Y-72817142D01*
X158821428Y-72817142D01*
X159011904Y-72864761D01*
X159107142Y-72912380D01*
X159154761Y-72960000D01*
X159202380Y-73055238D01*
X159202380Y-73150476D01*
X159154761Y-73245714D01*
X159107142Y-73293333D01*
X159011904Y-73340952D01*
X158821428Y-73388571D01*
X158583333Y-73388571D01*
X158392857Y-73340952D01*
X158297619Y-73293333D01*
X158250000Y-73245714D01*
X158202380Y-73150476D01*
G04 #@! TO.C,C2*
X136358333Y-46242142D02*
X136310714Y-46289761D01*
X136167857Y-46337380D01*
X136072619Y-46337380D01*
X135929761Y-46289761D01*
X135834523Y-46194523D01*
X135786904Y-46099285D01*
X135739285Y-45908809D01*
X135739285Y-45765952D01*
X135786904Y-45575476D01*
X135834523Y-45480238D01*
X135929761Y-45385000D01*
X136072619Y-45337380D01*
X136167857Y-45337380D01*
X136310714Y-45385000D01*
X136358333Y-45432619D01*
X136739285Y-45432619D02*
X136786904Y-45385000D01*
X136882142Y-45337380D01*
X137120238Y-45337380D01*
X137215476Y-45385000D01*
X137263095Y-45432619D01*
X137310714Y-45527857D01*
X137310714Y-45623095D01*
X137263095Y-45765952D01*
X136691666Y-46337380D01*
X137310714Y-46337380D01*
G04 #@! TO.C,C7*
X135723333Y-65673142D02*
X135675714Y-65720761D01*
X135532857Y-65768380D01*
X135437619Y-65768380D01*
X135294761Y-65720761D01*
X135199523Y-65625523D01*
X135151904Y-65530285D01*
X135104285Y-65339809D01*
X135104285Y-65196952D01*
X135151904Y-65006476D01*
X135199523Y-64911238D01*
X135294761Y-64816000D01*
X135437619Y-64768380D01*
X135532857Y-64768380D01*
X135675714Y-64816000D01*
X135723333Y-64863619D01*
X136056666Y-64768380D02*
X136723333Y-64768380D01*
X136294761Y-65768380D01*
G04 #@! TO.C,C6*
X109815333Y-64657142D02*
X109767714Y-64704761D01*
X109624857Y-64752380D01*
X109529619Y-64752380D01*
X109386761Y-64704761D01*
X109291523Y-64609523D01*
X109243904Y-64514285D01*
X109196285Y-64323809D01*
X109196285Y-64180952D01*
X109243904Y-63990476D01*
X109291523Y-63895238D01*
X109386761Y-63800000D01*
X109529619Y-63752380D01*
X109624857Y-63752380D01*
X109767714Y-63800000D01*
X109815333Y-63847619D01*
X110672476Y-63752380D02*
X110482000Y-63752380D01*
X110386761Y-63800000D01*
X110339142Y-63847619D01*
X110243904Y-63990476D01*
X110196285Y-64180952D01*
X110196285Y-64561904D01*
X110243904Y-64657142D01*
X110291523Y-64704761D01*
X110386761Y-64752380D01*
X110577238Y-64752380D01*
X110672476Y-64704761D01*
X110720095Y-64657142D01*
X110767714Y-64561904D01*
X110767714Y-64323809D01*
X110720095Y-64228571D01*
X110672476Y-64180952D01*
X110577238Y-64133333D01*
X110386761Y-64133333D01*
X110291523Y-64180952D01*
X110243904Y-64228571D01*
X110196285Y-64323809D01*
G04 #@! TO.C,R7*
X178252380Y-69546666D02*
X177776190Y-69880000D01*
X178252380Y-70118095D02*
X177252380Y-70118095D01*
X177252380Y-69737142D01*
X177300000Y-69641904D01*
X177347619Y-69594285D01*
X177442857Y-69546666D01*
X177585714Y-69546666D01*
X177680952Y-69594285D01*
X177728571Y-69641904D01*
X177776190Y-69737142D01*
X177776190Y-70118095D01*
X177252380Y-69213333D02*
X177252380Y-68546666D01*
X178252380Y-68975238D01*
G04 #@! TO.C,JP2*
X107116666Y-66800380D02*
X107116666Y-67514666D01*
X107069047Y-67657523D01*
X106973809Y-67752761D01*
X106830952Y-67800380D01*
X106735714Y-67800380D01*
X107592857Y-67800380D02*
X107592857Y-66800380D01*
X107973809Y-66800380D01*
X108069047Y-66848000D01*
X108116666Y-66895619D01*
X108164285Y-66990857D01*
X108164285Y-67133714D01*
X108116666Y-67228952D01*
X108069047Y-67276571D01*
X107973809Y-67324190D01*
X107592857Y-67324190D01*
X108545238Y-66895619D02*
X108592857Y-66848000D01*
X108688095Y-66800380D01*
X108926190Y-66800380D01*
X109021428Y-66848000D01*
X109069047Y-66895619D01*
X109116666Y-66990857D01*
X109116666Y-67086095D01*
X109069047Y-67228952D01*
X108497619Y-67800380D01*
X109116666Y-67800380D01*
G04 #@! TO.C,Q4*
X135735357Y-81757619D02*
X135640119Y-81710000D01*
X135544881Y-81614761D01*
X135402024Y-81471904D01*
X135306786Y-81424285D01*
X135211548Y-81424285D01*
X135259167Y-81662380D02*
X135163929Y-81614761D01*
X135068691Y-81519523D01*
X135021072Y-81329047D01*
X135021072Y-80995714D01*
X135068691Y-80805238D01*
X135163929Y-80710000D01*
X135259167Y-80662380D01*
X135449643Y-80662380D01*
X135544881Y-80710000D01*
X135640119Y-80805238D01*
X135687738Y-80995714D01*
X135687738Y-81329047D01*
X135640119Y-81519523D01*
X135544881Y-81614761D01*
X135449643Y-81662380D01*
X135259167Y-81662380D01*
X136544881Y-80995714D02*
X136544881Y-81662380D01*
X136306786Y-80614761D02*
X136068691Y-81329047D01*
X136687738Y-81329047D01*
X133146043Y-79662380D02*
X133146043Y-78662380D01*
X134193662Y-79662380D02*
X133860328Y-79186190D01*
X133622233Y-79662380D02*
X133622233Y-78662380D01*
X134003186Y-78662380D01*
X134098424Y-78710000D01*
X134146043Y-78757619D01*
X134193662Y-78852857D01*
X134193662Y-78995714D01*
X134146043Y-79090952D01*
X134098424Y-79138571D01*
X134003186Y-79186190D01*
X133622233Y-79186190D01*
X135098424Y-79662380D02*
X134622233Y-79662380D01*
X134622233Y-78662380D01*
X135336519Y-78662380D02*
X136003186Y-78662380D01*
X135336519Y-79662380D01*
X136003186Y-79662380D01*
X136288900Y-78662380D02*
X136907947Y-78662380D01*
X136574614Y-79043333D01*
X136717471Y-79043333D01*
X136812709Y-79090952D01*
X136860328Y-79138571D01*
X136907947Y-79233809D01*
X136907947Y-79471904D01*
X136860328Y-79567142D01*
X136812709Y-79614761D01*
X136717471Y-79662380D01*
X136431757Y-79662380D01*
X136336519Y-79614761D01*
X136288900Y-79567142D01*
X137765090Y-78995714D02*
X137765090Y-79662380D01*
X137526995Y-78614761D02*
X137288900Y-79329047D01*
X137907947Y-79329047D01*
X138288900Y-79662380D02*
X138288900Y-78662380D01*
X138860328Y-79662380D01*
X138860328Y-78662380D01*
G04 #@! TO.C,R6*
X156027380Y-69546666D02*
X155551190Y-69880000D01*
X156027380Y-70118095D02*
X155027380Y-70118095D01*
X155027380Y-69737142D01*
X155075000Y-69641904D01*
X155122619Y-69594285D01*
X155217857Y-69546666D01*
X155360714Y-69546666D01*
X155455952Y-69594285D01*
X155503571Y-69641904D01*
X155551190Y-69737142D01*
X155551190Y-70118095D01*
X155027380Y-68689523D02*
X155027380Y-68880000D01*
X155075000Y-68975238D01*
X155122619Y-69022857D01*
X155265476Y-69118095D01*
X155455952Y-69165714D01*
X155836904Y-69165714D01*
X155932142Y-69118095D01*
X155979761Y-69070476D01*
X156027380Y-68975238D01*
X156027380Y-68784761D01*
X155979761Y-68689523D01*
X155932142Y-68641904D01*
X155836904Y-68594285D01*
X155598809Y-68594285D01*
X155503571Y-68641904D01*
X155455952Y-68689523D01*
X155408333Y-68784761D01*
X155408333Y-68975238D01*
X155455952Y-69070476D01*
X155503571Y-69118095D01*
X155598809Y-69165714D01*
G04 #@! TO.C,U2*
X166238095Y-65657380D02*
X166238095Y-66466904D01*
X166285714Y-66562142D01*
X166333333Y-66609761D01*
X166428571Y-66657380D01*
X166619047Y-66657380D01*
X166714285Y-66609761D01*
X166761904Y-66562142D01*
X166809523Y-66466904D01*
X166809523Y-65657380D01*
X167238095Y-65752619D02*
X167285714Y-65705000D01*
X167380952Y-65657380D01*
X167619047Y-65657380D01*
X167714285Y-65705000D01*
X167761904Y-65752619D01*
X167809523Y-65847857D01*
X167809523Y-65943095D01*
X167761904Y-66085952D01*
X167190476Y-66657380D01*
X167809523Y-66657380D01*
X163380952Y-67732571D02*
X163714285Y-67732571D01*
X163857142Y-68256380D02*
X163380952Y-68256380D01*
X163380952Y-67256380D01*
X163857142Y-67256380D01*
X164238095Y-68208761D02*
X164380952Y-68256380D01*
X164619047Y-68256380D01*
X164714285Y-68208761D01*
X164761904Y-68161142D01*
X164809523Y-68065904D01*
X164809523Y-67970666D01*
X164761904Y-67875428D01*
X164714285Y-67827809D01*
X164619047Y-67780190D01*
X164428571Y-67732571D01*
X164333333Y-67684952D01*
X164285714Y-67637333D01*
X164238095Y-67542095D01*
X164238095Y-67446857D01*
X164285714Y-67351619D01*
X164333333Y-67304000D01*
X164428571Y-67256380D01*
X164666666Y-67256380D01*
X164809523Y-67304000D01*
X165238095Y-68256380D02*
X165238095Y-67256380D01*
X165619047Y-67256380D01*
X165714285Y-67304000D01*
X165761904Y-67351619D01*
X165809523Y-67446857D01*
X165809523Y-67589714D01*
X165761904Y-67684952D01*
X165714285Y-67732571D01*
X165619047Y-67780190D01*
X165238095Y-67780190D01*
X166238095Y-67875428D02*
X167000000Y-67875428D01*
X167666666Y-67256380D02*
X167761904Y-67256380D01*
X167857142Y-67304000D01*
X167904761Y-67351619D01*
X167952380Y-67446857D01*
X168000000Y-67637333D01*
X168000000Y-67875428D01*
X167952380Y-68065904D01*
X167904761Y-68161142D01*
X167857142Y-68208761D01*
X167761904Y-68256380D01*
X167666666Y-68256380D01*
X167571428Y-68208761D01*
X167523809Y-68161142D01*
X167476190Y-68065904D01*
X167428571Y-67875428D01*
X167428571Y-67637333D01*
X167476190Y-67446857D01*
X167523809Y-67351619D01*
X167571428Y-67304000D01*
X167666666Y-67256380D01*
X168333333Y-67256380D02*
X169000000Y-67256380D01*
X168571428Y-68256380D01*
X169285714Y-67589714D02*
X169523809Y-68256380D01*
X169761904Y-67589714D01*
X170095238Y-67351619D02*
X170142857Y-67304000D01*
X170238095Y-67256380D01*
X170476190Y-67256380D01*
X170571428Y-67304000D01*
X170619047Y-67351619D01*
X170666666Y-67446857D01*
X170666666Y-67542095D01*
X170619047Y-67684952D01*
X170047619Y-68256380D01*
X170666666Y-68256380D01*
G04 #@! TO.C,R3*
X126325333Y-67546380D02*
X125992000Y-67070190D01*
X125753904Y-67546380D02*
X125753904Y-66546380D01*
X126134857Y-66546380D01*
X126230095Y-66594000D01*
X126277714Y-66641619D01*
X126325333Y-66736857D01*
X126325333Y-66879714D01*
X126277714Y-66974952D01*
X126230095Y-67022571D01*
X126134857Y-67070190D01*
X125753904Y-67070190D01*
X126658666Y-66546380D02*
X127277714Y-66546380D01*
X126944380Y-66927333D01*
X127087238Y-66927333D01*
X127182476Y-66974952D01*
X127230095Y-67022571D01*
X127277714Y-67117809D01*
X127277714Y-67355904D01*
X127230095Y-67451142D01*
X127182476Y-67498761D01*
X127087238Y-67546380D01*
X126801523Y-67546380D01*
X126706285Y-67498761D01*
X126658666Y-67451142D01*
G04 #@! TO.C,SW3*
X174609333Y-93454380D02*
X174609333Y-92454380D01*
X174942666Y-93168666D01*
X175276000Y-92454380D01*
X175276000Y-93454380D01*
X175895047Y-93454380D02*
X175799809Y-93406761D01*
X175752190Y-93359142D01*
X175704571Y-93263904D01*
X175704571Y-92978190D01*
X175752190Y-92882952D01*
X175799809Y-92835333D01*
X175895047Y-92787714D01*
X176037904Y-92787714D01*
X176133142Y-92835333D01*
X176180761Y-92882952D01*
X176228380Y-92978190D01*
X176228380Y-93263904D01*
X176180761Y-93359142D01*
X176133142Y-93406761D01*
X176037904Y-93454380D01*
X175895047Y-93454380D01*
X177085523Y-93454380D02*
X177085523Y-92454380D01*
X177085523Y-93406761D02*
X176990285Y-93454380D01*
X176799809Y-93454380D01*
X176704571Y-93406761D01*
X176656952Y-93359142D01*
X176609333Y-93263904D01*
X176609333Y-92978190D01*
X176656952Y-92882952D01*
X176704571Y-92835333D01*
X176799809Y-92787714D01*
X176990285Y-92787714D01*
X177085523Y-92835333D01*
X177942666Y-93406761D02*
X177847428Y-93454380D01*
X177656952Y-93454380D01*
X177561714Y-93406761D01*
X177514095Y-93311523D01*
X177514095Y-92930571D01*
X177561714Y-92835333D01*
X177656952Y-92787714D01*
X177847428Y-92787714D01*
X177942666Y-92835333D01*
X177990285Y-92930571D01*
X177990285Y-93025809D01*
X177514095Y-93121047D01*
X174916666Y-87586761D02*
X175059523Y-87634380D01*
X175297619Y-87634380D01*
X175392857Y-87586761D01*
X175440476Y-87539142D01*
X175488095Y-87443904D01*
X175488095Y-87348666D01*
X175440476Y-87253428D01*
X175392857Y-87205809D01*
X175297619Y-87158190D01*
X175107142Y-87110571D01*
X175011904Y-87062952D01*
X174964285Y-87015333D01*
X174916666Y-86920095D01*
X174916666Y-86824857D01*
X174964285Y-86729619D01*
X175011904Y-86682000D01*
X175107142Y-86634380D01*
X175345238Y-86634380D01*
X175488095Y-86682000D01*
X175821428Y-86634380D02*
X176059523Y-87634380D01*
X176250000Y-86920095D01*
X176440476Y-87634380D01*
X176678571Y-86634380D01*
X176964285Y-86634380D02*
X177583333Y-86634380D01*
X177250000Y-87015333D01*
X177392857Y-87015333D01*
X177488095Y-87062952D01*
X177535714Y-87110571D01*
X177583333Y-87205809D01*
X177583333Y-87443904D01*
X177535714Y-87539142D01*
X177488095Y-87586761D01*
X177392857Y-87634380D01*
X177107142Y-87634380D01*
X177011904Y-87586761D01*
X176964285Y-87539142D01*
G04 #@! TO.C,D1*
X106195904Y-52052380D02*
X106195904Y-51052380D01*
X106434000Y-51052380D01*
X106576857Y-51100000D01*
X106672095Y-51195238D01*
X106719714Y-51290476D01*
X106767333Y-51480952D01*
X106767333Y-51623809D01*
X106719714Y-51814285D01*
X106672095Y-51909523D01*
X106576857Y-52004761D01*
X106434000Y-52052380D01*
X106195904Y-52052380D01*
X107719714Y-52052380D02*
X107148285Y-52052380D01*
X107434000Y-52052380D02*
X107434000Y-51052380D01*
X107338761Y-51195238D01*
X107243523Y-51290476D01*
X107148285Y-51338095D01*
G04 #@! TO.C,P2*
X176576904Y-59672380D02*
X176576904Y-58672380D01*
X176957857Y-58672380D01*
X177053095Y-58720000D01*
X177100714Y-58767619D01*
X177148333Y-58862857D01*
X177148333Y-59005714D01*
X177100714Y-59100952D01*
X177053095Y-59148571D01*
X176957857Y-59196190D01*
X176576904Y-59196190D01*
X177529285Y-58767619D02*
X177576904Y-58720000D01*
X177672142Y-58672380D01*
X177910238Y-58672380D01*
X178005476Y-58720000D01*
X178053095Y-58767619D01*
X178100714Y-58862857D01*
X178100714Y-58958095D01*
X178053095Y-59100952D01*
X177481666Y-59672380D01*
X178100714Y-59672380D01*
G04 #@! TO.C,U1*
X112268095Y-45210380D02*
X112268095Y-46019904D01*
X112315714Y-46115142D01*
X112363333Y-46162761D01*
X112458571Y-46210380D01*
X112649047Y-46210380D01*
X112744285Y-46162761D01*
X112791904Y-46115142D01*
X112839523Y-46019904D01*
X112839523Y-45210380D01*
X113839523Y-46210380D02*
X113268095Y-46210380D01*
X113553809Y-46210380D02*
X113553809Y-45210380D01*
X113458571Y-45353238D01*
X113363333Y-45448476D01*
X113268095Y-45496095D01*
G04 #@! TO.C,C1*
X112750333Y-54591142D02*
X112702714Y-54638761D01*
X112559857Y-54686380D01*
X112464619Y-54686380D01*
X112321761Y-54638761D01*
X112226523Y-54543523D01*
X112178904Y-54448285D01*
X112131285Y-54257809D01*
X112131285Y-54114952D01*
X112178904Y-53924476D01*
X112226523Y-53829238D01*
X112321761Y-53734000D01*
X112464619Y-53686380D01*
X112559857Y-53686380D01*
X112702714Y-53734000D01*
X112750333Y-53781619D01*
X113702714Y-54686380D02*
X113131285Y-54686380D01*
X113417000Y-54686380D02*
X113417000Y-53686380D01*
X113321761Y-53829238D01*
X113226523Y-53924476D01*
X113131285Y-53972095D01*
G04 #@! TO.C,R5*
X150963333Y-68054380D02*
X150630000Y-67578190D01*
X150391904Y-68054380D02*
X150391904Y-67054380D01*
X150772857Y-67054380D01*
X150868095Y-67102000D01*
X150915714Y-67149619D01*
X150963333Y-67244857D01*
X150963333Y-67387714D01*
X150915714Y-67482952D01*
X150868095Y-67530571D01*
X150772857Y-67578190D01*
X150391904Y-67578190D01*
X151868095Y-67054380D02*
X151391904Y-67054380D01*
X151344285Y-67530571D01*
X151391904Y-67482952D01*
X151487142Y-67435333D01*
X151725238Y-67435333D01*
X151820476Y-67482952D01*
X151868095Y-67530571D01*
X151915714Y-67625809D01*
X151915714Y-67863904D01*
X151868095Y-67959142D01*
X151820476Y-68006761D01*
X151725238Y-68054380D01*
X151487142Y-68054380D01*
X151391904Y-68006761D01*
X151344285Y-67959142D01*
G04 #@! TO.C,R4*
X138263333Y-68054380D02*
X137930000Y-67578190D01*
X137691904Y-68054380D02*
X137691904Y-67054380D01*
X138072857Y-67054380D01*
X138168095Y-67102000D01*
X138215714Y-67149619D01*
X138263333Y-67244857D01*
X138263333Y-67387714D01*
X138215714Y-67482952D01*
X138168095Y-67530571D01*
X138072857Y-67578190D01*
X137691904Y-67578190D01*
X139120476Y-67387714D02*
X139120476Y-68054380D01*
X138882380Y-67006761D02*
X138644285Y-67721047D01*
X139263333Y-67721047D01*
G04 #@! TO.C,CON1*
X98099714Y-56021142D02*
X98052095Y-56068761D01*
X97909238Y-56116380D01*
X97814000Y-56116380D01*
X97671142Y-56068761D01*
X97575904Y-55973523D01*
X97528285Y-55878285D01*
X97480666Y-55687809D01*
X97480666Y-55544952D01*
X97528285Y-55354476D01*
X97575904Y-55259238D01*
X97671142Y-55164000D01*
X97814000Y-55116380D01*
X97909238Y-55116380D01*
X98052095Y-55164000D01*
X98099714Y-55211619D01*
X98718761Y-55116380D02*
X98909238Y-55116380D01*
X99004476Y-55164000D01*
X99099714Y-55259238D01*
X99147333Y-55449714D01*
X99147333Y-55783047D01*
X99099714Y-55973523D01*
X99004476Y-56068761D01*
X98909238Y-56116380D01*
X98718761Y-56116380D01*
X98623523Y-56068761D01*
X98528285Y-55973523D01*
X98480666Y-55783047D01*
X98480666Y-55449714D01*
X98528285Y-55259238D01*
X98623523Y-55164000D01*
X98718761Y-55116380D01*
X99575904Y-56116380D02*
X99575904Y-55116380D01*
X100147333Y-56116380D01*
X100147333Y-55116380D01*
X101147333Y-56116380D02*
X100575904Y-56116380D01*
X100861619Y-56116380D02*
X100861619Y-55116380D01*
X100766380Y-55259238D01*
X100671142Y-55354476D01*
X100575904Y-55402095D01*
G04 #@! TO.C,J1*
X93646666Y-44702380D02*
X93646666Y-45416666D01*
X93599047Y-45559523D01*
X93503809Y-45654761D01*
X93360952Y-45702380D01*
X93265714Y-45702380D01*
X94646666Y-45702380D02*
X94075238Y-45702380D01*
X94360952Y-45702380D02*
X94360952Y-44702380D01*
X94265714Y-44845238D01*
X94170476Y-44940476D01*
X94075238Y-44988095D01*
G04 #@! TO.C,JP3*
X119308666Y-66546380D02*
X119308666Y-67260666D01*
X119261047Y-67403523D01*
X119165809Y-67498761D01*
X119022952Y-67546380D01*
X118927714Y-67546380D01*
X119784857Y-67546380D02*
X119784857Y-66546380D01*
X120165809Y-66546380D01*
X120261047Y-66594000D01*
X120308666Y-66641619D01*
X120356285Y-66736857D01*
X120356285Y-66879714D01*
X120308666Y-66974952D01*
X120261047Y-67022571D01*
X120165809Y-67070190D01*
X119784857Y-67070190D01*
X120689619Y-66546380D02*
X121308666Y-66546380D01*
X120975333Y-66927333D01*
X121118190Y-66927333D01*
X121213428Y-66974952D01*
X121261047Y-67022571D01*
X121308666Y-67117809D01*
X121308666Y-67355904D01*
X121261047Y-67451142D01*
X121213428Y-67498761D01*
X121118190Y-67546380D01*
X120832476Y-67546380D01*
X120737238Y-67498761D01*
X120689619Y-67451142D01*
G04 #@! TO.C,P1*
X176553904Y-50147380D02*
X176553904Y-49147380D01*
X176934857Y-49147380D01*
X177030095Y-49195000D01*
X177077714Y-49242619D01*
X177125333Y-49337857D01*
X177125333Y-49480714D01*
X177077714Y-49575952D01*
X177030095Y-49623571D01*
X176934857Y-49671190D01*
X176553904Y-49671190D01*
X178077714Y-50147380D02*
X177506285Y-50147380D01*
X177792000Y-50147380D02*
X177792000Y-49147380D01*
X177696761Y-49290238D01*
X177601523Y-49385476D01*
X177506285Y-49433095D01*
G04 #@! TO.C,SW2*
X164481238Y-93454380D02*
X164481238Y-92454380D01*
X164862190Y-92454380D01*
X164957428Y-92502000D01*
X165005047Y-92549619D01*
X165052666Y-92644857D01*
X165052666Y-92787714D01*
X165005047Y-92882952D01*
X164957428Y-92930571D01*
X164862190Y-92978190D01*
X164481238Y-92978190D01*
X165481238Y-93454380D02*
X165481238Y-92787714D01*
X165481238Y-92978190D02*
X165528857Y-92882952D01*
X165576476Y-92835333D01*
X165671714Y-92787714D01*
X165766952Y-92787714D01*
X166243142Y-93454380D02*
X166147904Y-93406761D01*
X166100285Y-93359142D01*
X166052666Y-93263904D01*
X166052666Y-92978190D01*
X166100285Y-92882952D01*
X166147904Y-92835333D01*
X166243142Y-92787714D01*
X166386000Y-92787714D01*
X166481238Y-92835333D01*
X166528857Y-92882952D01*
X166576476Y-92978190D01*
X166576476Y-93263904D01*
X166528857Y-93359142D01*
X166481238Y-93406761D01*
X166386000Y-93454380D01*
X166243142Y-93454380D01*
X167433619Y-92787714D02*
X167433619Y-93597238D01*
X167386000Y-93692476D01*
X167338380Y-93740095D01*
X167243142Y-93787714D01*
X167100285Y-93787714D01*
X167005047Y-93740095D01*
X167433619Y-93406761D02*
X167338380Y-93454380D01*
X167147904Y-93454380D01*
X167052666Y-93406761D01*
X167005047Y-93359142D01*
X166957428Y-93263904D01*
X166957428Y-92978190D01*
X167005047Y-92882952D01*
X167052666Y-92835333D01*
X167147904Y-92787714D01*
X167338380Y-92787714D01*
X167433619Y-92835333D01*
X167909809Y-93454380D02*
X167909809Y-92787714D01*
X167909809Y-92978190D02*
X167957428Y-92882952D01*
X168005047Y-92835333D01*
X168100285Y-92787714D01*
X168195523Y-92787714D01*
X168957428Y-93454380D02*
X168957428Y-92930571D01*
X168909809Y-92835333D01*
X168814571Y-92787714D01*
X168624095Y-92787714D01*
X168528857Y-92835333D01*
X168957428Y-93406761D02*
X168862190Y-93454380D01*
X168624095Y-93454380D01*
X168528857Y-93406761D01*
X168481238Y-93311523D01*
X168481238Y-93216285D01*
X168528857Y-93121047D01*
X168624095Y-93073428D01*
X168862190Y-93073428D01*
X168957428Y-93025809D01*
X169433619Y-93454380D02*
X169433619Y-92787714D01*
X169433619Y-92882952D02*
X169481238Y-92835333D01*
X169576476Y-92787714D01*
X169719333Y-92787714D01*
X169814571Y-92835333D01*
X169862190Y-92930571D01*
X169862190Y-93454380D01*
X169862190Y-92930571D02*
X169909809Y-92835333D01*
X170005047Y-92787714D01*
X170147904Y-92787714D01*
X170243142Y-92835333D01*
X170290761Y-92930571D01*
X170290761Y-93454380D01*
X165916666Y-87586761D02*
X166059523Y-87634380D01*
X166297619Y-87634380D01*
X166392857Y-87586761D01*
X166440476Y-87539142D01*
X166488095Y-87443904D01*
X166488095Y-87348666D01*
X166440476Y-87253428D01*
X166392857Y-87205809D01*
X166297619Y-87158190D01*
X166107142Y-87110571D01*
X166011904Y-87062952D01*
X165964285Y-87015333D01*
X165916666Y-86920095D01*
X165916666Y-86824857D01*
X165964285Y-86729619D01*
X166011904Y-86682000D01*
X166107142Y-86634380D01*
X166345238Y-86634380D01*
X166488095Y-86682000D01*
X166821428Y-86634380D02*
X167059523Y-87634380D01*
X167250000Y-86920095D01*
X167440476Y-87634380D01*
X167678571Y-86634380D01*
X168011904Y-86729619D02*
X168059523Y-86682000D01*
X168154761Y-86634380D01*
X168392857Y-86634380D01*
X168488095Y-86682000D01*
X168535714Y-86729619D01*
X168583333Y-86824857D01*
X168583333Y-86920095D01*
X168535714Y-87062952D01*
X167964285Y-87634380D01*
X168583333Y-87634380D01*
G04 #@! TO.C,U3*
X120102380Y-61759904D02*
X120911904Y-61759904D01*
X121007142Y-61712285D01*
X121054761Y-61664666D01*
X121102380Y-61569428D01*
X121102380Y-61378952D01*
X121054761Y-61283714D01*
X121007142Y-61236095D01*
X120911904Y-61188476D01*
X120102380Y-61188476D01*
X120102380Y-60807523D02*
X120102380Y-60188476D01*
X120483333Y-60521809D01*
X120483333Y-60378952D01*
X120530952Y-60283714D01*
X120578571Y-60236095D01*
X120673809Y-60188476D01*
X120911904Y-60188476D01*
X121007142Y-60236095D01*
X121054761Y-60283714D01*
X121102380Y-60378952D01*
X121102380Y-60664666D01*
X121054761Y-60759904D01*
X121007142Y-60807523D01*
G04 #@! TO.C,Q3*
X123225796Y-81757619D02*
X123130558Y-81710000D01*
X123035320Y-81614761D01*
X122892463Y-81471904D01*
X122797225Y-81424285D01*
X122701987Y-81424285D01*
X122749606Y-81662380D02*
X122654368Y-81614761D01*
X122559130Y-81519523D01*
X122511511Y-81329047D01*
X122511511Y-80995714D01*
X122559130Y-80805238D01*
X122654368Y-80710000D01*
X122749606Y-80662380D01*
X122940082Y-80662380D01*
X123035320Y-80710000D01*
X123130558Y-80805238D01*
X123178177Y-80995714D01*
X123178177Y-81329047D01*
X123130558Y-81519523D01*
X123035320Y-81614761D01*
X122940082Y-81662380D01*
X122749606Y-81662380D01*
X123511511Y-80662380D02*
X124130558Y-80662380D01*
X123797225Y-81043333D01*
X123940082Y-81043333D01*
X124035320Y-81090952D01*
X124082939Y-81138571D01*
X124130558Y-81233809D01*
X124130558Y-81471904D01*
X124082939Y-81567142D01*
X124035320Y-81614761D01*
X123940082Y-81662380D01*
X123654368Y-81662380D01*
X123559130Y-81614761D01*
X123511511Y-81567142D01*
X120463892Y-79662380D02*
X120463892Y-78662380D01*
X121511511Y-79662380D02*
X121178177Y-79186190D01*
X120940082Y-79662380D02*
X120940082Y-78662380D01*
X121321035Y-78662380D01*
X121416273Y-78710000D01*
X121463892Y-78757619D01*
X121511511Y-78852857D01*
X121511511Y-78995714D01*
X121463892Y-79090952D01*
X121416273Y-79138571D01*
X121321035Y-79186190D01*
X120940082Y-79186190D01*
X122416273Y-79662380D02*
X121940082Y-79662380D01*
X121940082Y-78662380D01*
X122654368Y-78662380D02*
X123321035Y-78662380D01*
X122654368Y-79662380D01*
X123321035Y-79662380D01*
X123606749Y-78662380D02*
X124225796Y-78662380D01*
X123892463Y-79043333D01*
X124035320Y-79043333D01*
X124130558Y-79090952D01*
X124178177Y-79138571D01*
X124225796Y-79233809D01*
X124225796Y-79471904D01*
X124178177Y-79567142D01*
X124130558Y-79614761D01*
X124035320Y-79662380D01*
X123749606Y-79662380D01*
X123654368Y-79614761D01*
X123606749Y-79567142D01*
X125082939Y-78995714D02*
X125082939Y-79662380D01*
X124844844Y-78614761D02*
X124606749Y-79329047D01*
X125225796Y-79329047D01*
X125606749Y-79662380D02*
X125606749Y-78662380D01*
X126178177Y-79662380D01*
X126178177Y-78662380D01*
G04 #@! TO.C,JP4*
X131754666Y-66800380D02*
X131754666Y-67514666D01*
X131707047Y-67657523D01*
X131611809Y-67752761D01*
X131468952Y-67800380D01*
X131373714Y-67800380D01*
X132230857Y-67800380D02*
X132230857Y-66800380D01*
X132611809Y-66800380D01*
X132707047Y-66848000D01*
X132754666Y-66895619D01*
X132802285Y-66990857D01*
X132802285Y-67133714D01*
X132754666Y-67228952D01*
X132707047Y-67276571D01*
X132611809Y-67324190D01*
X132230857Y-67324190D01*
X133659428Y-67133714D02*
X133659428Y-67800380D01*
X133421333Y-66752761D02*
X133183238Y-67467047D01*
X133802285Y-67467047D01*
G04 #@! TO.C,J4*
X142122380Y-62543333D02*
X142836666Y-62543333D01*
X142979523Y-62590952D01*
X143074761Y-62686190D01*
X143122380Y-62829047D01*
X143122380Y-62924285D01*
X142455714Y-61638571D02*
X143122380Y-61638571D01*
X142074761Y-61876666D02*
X142789047Y-62114761D01*
X142789047Y-61495714D01*
X146248571Y-57132380D02*
X146248571Y-56132380D01*
X146581904Y-56846666D01*
X146915238Y-56132380D01*
X146915238Y-57132380D01*
X147391428Y-57132380D02*
X147391428Y-56132380D01*
X148439047Y-57037142D02*
X148391428Y-57084761D01*
X148248571Y-57132380D01*
X148153333Y-57132380D01*
X148010476Y-57084761D01*
X147915238Y-56989523D01*
X147867619Y-56894285D01*
X147820000Y-56703809D01*
X147820000Y-56560952D01*
X147867619Y-56370476D01*
X147915238Y-56275238D01*
X148010476Y-56180000D01*
X148153333Y-56132380D01*
X148248571Y-56132380D01*
X148391428Y-56180000D01*
X148439047Y-56227619D01*
G04 #@! TO.C,J3*
X184666666Y-86992380D02*
X184666666Y-87706666D01*
X184619047Y-87849523D01*
X184523809Y-87944761D01*
X184380952Y-87992380D01*
X184285714Y-87992380D01*
X185047619Y-86992380D02*
X185666666Y-86992380D01*
X185333333Y-87373333D01*
X185476190Y-87373333D01*
X185571428Y-87420952D01*
X185619047Y-87468571D01*
X185666666Y-87563809D01*
X185666666Y-87801904D01*
X185619047Y-87897142D01*
X185571428Y-87944761D01*
X185476190Y-87992380D01*
X185190476Y-87992380D01*
X185095238Y-87944761D01*
X185047619Y-87897142D01*
G04 #@! TO.C,C3*
X109815333Y-46369142D02*
X109767714Y-46416761D01*
X109624857Y-46464380D01*
X109529619Y-46464380D01*
X109386761Y-46416761D01*
X109291523Y-46321523D01*
X109243904Y-46226285D01*
X109196285Y-46035809D01*
X109196285Y-45892952D01*
X109243904Y-45702476D01*
X109291523Y-45607238D01*
X109386761Y-45512000D01*
X109529619Y-45464380D01*
X109624857Y-45464380D01*
X109767714Y-45512000D01*
X109815333Y-45559619D01*
X110148666Y-45464380D02*
X110767714Y-45464380D01*
X110434380Y-45845333D01*
X110577238Y-45845333D01*
X110672476Y-45892952D01*
X110720095Y-45940571D01*
X110767714Y-46035809D01*
X110767714Y-46273904D01*
X110720095Y-46369142D01*
X110672476Y-46416761D01*
X110577238Y-46464380D01*
X110291523Y-46464380D01*
X110196285Y-46416761D01*
X110148666Y-46369142D01*
G04 #@! TO.C,J2*
X189666666Y-91992380D02*
X189666666Y-92706666D01*
X189619047Y-92849523D01*
X189523809Y-92944761D01*
X189380952Y-92992380D01*
X189285714Y-92992380D01*
X190095238Y-92087619D02*
X190142857Y-92040000D01*
X190238095Y-91992380D01*
X190476190Y-91992380D01*
X190571428Y-92040000D01*
X190619047Y-92087619D01*
X190666666Y-92182857D01*
X190666666Y-92278095D01*
X190619047Y-92420952D01*
X190047619Y-92992380D01*
X190666666Y-92992380D01*
G04 #@! TO.C,Y1*
X116363809Y-55386190D02*
X116363809Y-55862380D01*
X116030476Y-54862380D02*
X116363809Y-55386190D01*
X116697142Y-54862380D01*
X117554285Y-55862380D02*
X116982857Y-55862380D01*
X117268571Y-55862380D02*
X117268571Y-54862380D01*
X117173333Y-55005238D01*
X117078095Y-55100476D01*
X116982857Y-55148095D01*
G04 #@! TO.C,U4*
X135763095Y-57402380D02*
X135763095Y-58211904D01*
X135810714Y-58307142D01*
X135858333Y-58354761D01*
X135953571Y-58402380D01*
X136144047Y-58402380D01*
X136239285Y-58354761D01*
X136286904Y-58307142D01*
X136334523Y-58211904D01*
X136334523Y-57402380D01*
X137239285Y-57735714D02*
X137239285Y-58402380D01*
X137001190Y-57354761D02*
X136763095Y-58069047D01*
X137382142Y-58069047D01*
X139517380Y-64267857D02*
X138517380Y-64267857D01*
X138517380Y-64029761D01*
X138565000Y-63886904D01*
X138660238Y-63791666D01*
X138755476Y-63744047D01*
X138945952Y-63696428D01*
X139088809Y-63696428D01*
X139279285Y-63744047D01*
X139374523Y-63791666D01*
X139469761Y-63886904D01*
X139517380Y-64029761D01*
X139517380Y-64267857D01*
X139469761Y-63315476D02*
X139517380Y-63172619D01*
X139517380Y-62934523D01*
X139469761Y-62839285D01*
X139422142Y-62791666D01*
X139326904Y-62744047D01*
X139231666Y-62744047D01*
X139136428Y-62791666D01*
X139088809Y-62839285D01*
X139041190Y-62934523D01*
X138993571Y-63125000D01*
X138945952Y-63220238D01*
X138898333Y-63267857D01*
X138803095Y-63315476D01*
X138707857Y-63315476D01*
X138612619Y-63267857D01*
X138565000Y-63220238D01*
X138517380Y-63125000D01*
X138517380Y-62886904D01*
X138565000Y-62744047D01*
X139517380Y-61791666D02*
X139517380Y-62363095D01*
X139517380Y-62077380D02*
X138517380Y-62077380D01*
X138660238Y-62172619D01*
X138755476Y-62267857D01*
X138803095Y-62363095D01*
X138945952Y-61220238D02*
X138898333Y-61315476D01*
X138850714Y-61363095D01*
X138755476Y-61410714D01*
X138707857Y-61410714D01*
X138612619Y-61363095D01*
X138565000Y-61315476D01*
X138517380Y-61220238D01*
X138517380Y-61029761D01*
X138565000Y-60934523D01*
X138612619Y-60886904D01*
X138707857Y-60839285D01*
X138755476Y-60839285D01*
X138850714Y-60886904D01*
X138898333Y-60934523D01*
X138945952Y-61029761D01*
X138945952Y-61220238D01*
X138993571Y-61315476D01*
X139041190Y-61363095D01*
X139136428Y-61410714D01*
X139326904Y-61410714D01*
X139422142Y-61363095D01*
X139469761Y-61315476D01*
X139517380Y-61220238D01*
X139517380Y-61029761D01*
X139469761Y-60934523D01*
X139422142Y-60886904D01*
X139326904Y-60839285D01*
X139136428Y-60839285D01*
X139041190Y-60886904D01*
X138993571Y-60934523D01*
X138945952Y-61029761D01*
X138993571Y-60077380D02*
X139041190Y-59934523D01*
X139088809Y-59886904D01*
X139184047Y-59839285D01*
X139326904Y-59839285D01*
X139422142Y-59886904D01*
X139469761Y-59934523D01*
X139517380Y-60029761D01*
X139517380Y-60410714D01*
X138517380Y-60410714D01*
X138517380Y-60077380D01*
X138565000Y-59982142D01*
X138612619Y-59934523D01*
X138707857Y-59886904D01*
X138803095Y-59886904D01*
X138898333Y-59934523D01*
X138945952Y-59982142D01*
X138993571Y-60077380D01*
X138993571Y-60410714D01*
X138612619Y-59458333D02*
X138565000Y-59410714D01*
X138517380Y-59315476D01*
X138517380Y-59077380D01*
X138565000Y-58982142D01*
X138612619Y-58934523D01*
X138707857Y-58886904D01*
X138803095Y-58886904D01*
X138945952Y-58934523D01*
X139517380Y-59505952D01*
X139517380Y-58886904D01*
X138517380Y-58267857D02*
X138517380Y-58172619D01*
X138565000Y-58077380D01*
X138612619Y-58029761D01*
X138707857Y-57982142D01*
X138898333Y-57934523D01*
X139136428Y-57934523D01*
X139326904Y-57982142D01*
X139422142Y-58029761D01*
X139469761Y-58077380D01*
X139517380Y-58172619D01*
X139517380Y-58267857D01*
X139469761Y-58363095D01*
X139422142Y-58410714D01*
X139326904Y-58458333D01*
X139136428Y-58505952D01*
X138898333Y-58505952D01*
X138707857Y-58458333D01*
X138612619Y-58410714D01*
X138565000Y-58363095D01*
X138517380Y-58267857D01*
G04 #@! TO.C,P3*
X176553904Y-72372380D02*
X176553904Y-71372380D01*
X176934857Y-71372380D01*
X177030095Y-71420000D01*
X177077714Y-71467619D01*
X177125333Y-71562857D01*
X177125333Y-71705714D01*
X177077714Y-71800952D01*
X177030095Y-71848571D01*
X176934857Y-71896190D01*
X176553904Y-71896190D01*
X177458666Y-71372380D02*
X178077714Y-71372380D01*
X177744380Y-71753333D01*
X177887238Y-71753333D01*
X177982476Y-71800952D01*
X178030095Y-71848571D01*
X178077714Y-71943809D01*
X178077714Y-72181904D01*
X178030095Y-72277142D01*
X177982476Y-72324761D01*
X177887238Y-72372380D01*
X177601523Y-72372380D01*
X177506285Y-72324761D01*
X177458666Y-72277142D01*
G04 #@! TO.C,Q1*
X98232170Y-81630619D02*
X98136932Y-81583000D01*
X98041694Y-81487761D01*
X97898837Y-81344904D01*
X97803599Y-81297285D01*
X97708361Y-81297285D01*
X97755980Y-81535380D02*
X97660742Y-81487761D01*
X97565504Y-81392523D01*
X97517885Y-81202047D01*
X97517885Y-80868714D01*
X97565504Y-80678238D01*
X97660742Y-80583000D01*
X97755980Y-80535380D01*
X97946456Y-80535380D01*
X98041694Y-80583000D01*
X98136932Y-80678238D01*
X98184551Y-80868714D01*
X98184551Y-81202047D01*
X98136932Y-81392523D01*
X98041694Y-81487761D01*
X97946456Y-81535380D01*
X97755980Y-81535380D01*
X99136932Y-81535380D02*
X98565504Y-81535380D01*
X98851218Y-81535380D02*
X98851218Y-80535380D01*
X98755980Y-80678238D01*
X98660742Y-80773476D01*
X98565504Y-80821095D01*
X95161981Y-79535380D02*
X95161981Y-78535380D01*
X96209600Y-79535380D02*
X95876266Y-79059190D01*
X95638171Y-79535380D02*
X95638171Y-78535380D01*
X96019124Y-78535380D01*
X96114362Y-78583000D01*
X96161981Y-78630619D01*
X96209600Y-78725857D01*
X96209600Y-78868714D01*
X96161981Y-78963952D01*
X96114362Y-79011571D01*
X96019124Y-79059190D01*
X95638171Y-79059190D01*
X97114362Y-79535380D02*
X96638171Y-79535380D01*
X96638171Y-78535380D01*
X97352457Y-78535380D02*
X98019124Y-78535380D01*
X97352457Y-79535380D01*
X98019124Y-79535380D01*
X98304838Y-78535380D02*
X98923885Y-78535380D01*
X98590552Y-78916333D01*
X98733409Y-78916333D01*
X98828647Y-78963952D01*
X98876266Y-79011571D01*
X98923885Y-79106809D01*
X98923885Y-79344904D01*
X98876266Y-79440142D01*
X98828647Y-79487761D01*
X98733409Y-79535380D01*
X98447695Y-79535380D01*
X98352457Y-79487761D01*
X98304838Y-79440142D01*
X99781028Y-78868714D02*
X99781028Y-79535380D01*
X99542933Y-78487761D02*
X99304838Y-79202047D01*
X99923885Y-79202047D01*
X100304838Y-79535380D02*
X100304838Y-78535380D01*
X100876266Y-79535380D01*
X100876266Y-78535380D01*
G04 #@! TO.C,R2*
X113879333Y-67800380D02*
X113546000Y-67324190D01*
X113307904Y-67800380D02*
X113307904Y-66800380D01*
X113688857Y-66800380D01*
X113784095Y-66848000D01*
X113831714Y-66895619D01*
X113879333Y-66990857D01*
X113879333Y-67133714D01*
X113831714Y-67228952D01*
X113784095Y-67276571D01*
X113688857Y-67324190D01*
X113307904Y-67324190D01*
X114260285Y-66895619D02*
X114307904Y-66848000D01*
X114403142Y-66800380D01*
X114641238Y-66800380D01*
X114736476Y-66848000D01*
X114784095Y-66895619D01*
X114831714Y-66990857D01*
X114831714Y-67086095D01*
X114784095Y-67228952D01*
X114212666Y-67800380D01*
X114831714Y-67800380D01*
G04 #@! TO.C,U5*
X172807380Y-81571904D02*
X173616904Y-81571904D01*
X173712142Y-81524285D01*
X173759761Y-81476666D01*
X173807380Y-81381428D01*
X173807380Y-81190952D01*
X173759761Y-81095714D01*
X173712142Y-81048095D01*
X173616904Y-81000476D01*
X172807380Y-81000476D01*
X172807380Y-80048095D02*
X172807380Y-80524285D01*
X173283571Y-80571904D01*
X173235952Y-80524285D01*
X173188333Y-80429047D01*
X173188333Y-80190952D01*
X173235952Y-80095714D01*
X173283571Y-80048095D01*
X173378809Y-80000476D01*
X173616904Y-80000476D01*
X173712142Y-80048095D01*
X173759761Y-80095714D01*
X173807380Y-80190952D01*
X173807380Y-80429047D01*
X173759761Y-80524285D01*
X173712142Y-80571904D01*
G04 #@! TO.C,JP6*
X170902380Y-75293333D02*
X171616666Y-75293333D01*
X171759523Y-75340952D01*
X171854761Y-75436190D01*
X171902380Y-75579047D01*
X171902380Y-75674285D01*
X171902380Y-74817142D02*
X170902380Y-74817142D01*
X170902380Y-74436190D01*
X170950000Y-74340952D01*
X170997619Y-74293333D01*
X171092857Y-74245714D01*
X171235714Y-74245714D01*
X171330952Y-74293333D01*
X171378571Y-74340952D01*
X171426190Y-74436190D01*
X171426190Y-74817142D01*
X170902380Y-73388571D02*
X170902380Y-73579047D01*
X170950000Y-73674285D01*
X170997619Y-73721904D01*
X171140476Y-73817142D01*
X171330952Y-73864761D01*
X171711904Y-73864761D01*
X171807142Y-73817142D01*
X171854761Y-73769523D01*
X171902380Y-73674285D01*
X171902380Y-73483809D01*
X171854761Y-73388571D01*
X171807142Y-73340952D01*
X171711904Y-73293333D01*
X171473809Y-73293333D01*
X171378571Y-73340952D01*
X171330952Y-73388571D01*
X171283333Y-73483809D01*
X171283333Y-73674285D01*
X171330952Y-73769523D01*
X171378571Y-73817142D01*
X171473809Y-73864761D01*
G04 #@! TO.C,C9*
X156678333Y-71642142D02*
X156630714Y-71689761D01*
X156487857Y-71737380D01*
X156392619Y-71737380D01*
X156249761Y-71689761D01*
X156154523Y-71594523D01*
X156106904Y-71499285D01*
X156059285Y-71308809D01*
X156059285Y-71165952D01*
X156106904Y-70975476D01*
X156154523Y-70880238D01*
X156249761Y-70785000D01*
X156392619Y-70737380D01*
X156487857Y-70737380D01*
X156630714Y-70785000D01*
X156678333Y-70832619D01*
X157154523Y-71737380D02*
X157345000Y-71737380D01*
X157440238Y-71689761D01*
X157487857Y-71642142D01*
X157583095Y-71499285D01*
X157630714Y-71308809D01*
X157630714Y-70927857D01*
X157583095Y-70832619D01*
X157535476Y-70785000D01*
X157440238Y-70737380D01*
X157249761Y-70737380D01*
X157154523Y-70785000D01*
X157106904Y-70832619D01*
X157059285Y-70927857D01*
X157059285Y-71165952D01*
X157106904Y-71261190D01*
X157154523Y-71308809D01*
X157249761Y-71356428D01*
X157440238Y-71356428D01*
X157535476Y-71308809D01*
X157583095Y-71261190D01*
X157630714Y-71165952D01*
G04 #@! TO.C,Q2*
X110728983Y-81757619D02*
X110633745Y-81710000D01*
X110538507Y-81614761D01*
X110395650Y-81471904D01*
X110300412Y-81424285D01*
X110205174Y-81424285D01*
X110252793Y-81662380D02*
X110157555Y-81614761D01*
X110062317Y-81519523D01*
X110014698Y-81329047D01*
X110014698Y-80995714D01*
X110062317Y-80805238D01*
X110157555Y-80710000D01*
X110252793Y-80662380D01*
X110443269Y-80662380D01*
X110538507Y-80710000D01*
X110633745Y-80805238D01*
X110681364Y-80995714D01*
X110681364Y-81329047D01*
X110633745Y-81519523D01*
X110538507Y-81614761D01*
X110443269Y-81662380D01*
X110252793Y-81662380D01*
X111062317Y-80757619D02*
X111109936Y-80710000D01*
X111205174Y-80662380D01*
X111443269Y-80662380D01*
X111538507Y-80710000D01*
X111586126Y-80757619D01*
X111633745Y-80852857D01*
X111633745Y-80948095D01*
X111586126Y-81090952D01*
X111014698Y-81662380D01*
X111633745Y-81662380D01*
X107967079Y-79662380D02*
X107967079Y-78662380D01*
X109014698Y-79662380D02*
X108681364Y-79186190D01*
X108443269Y-79662380D02*
X108443269Y-78662380D01*
X108824222Y-78662380D01*
X108919460Y-78710000D01*
X108967079Y-78757619D01*
X109014698Y-78852857D01*
X109014698Y-78995714D01*
X108967079Y-79090952D01*
X108919460Y-79138571D01*
X108824222Y-79186190D01*
X108443269Y-79186190D01*
X109919460Y-79662380D02*
X109443269Y-79662380D01*
X109443269Y-78662380D01*
X110157555Y-78662380D02*
X110824222Y-78662380D01*
X110157555Y-79662380D01*
X110824222Y-79662380D01*
X111109936Y-78662380D02*
X111728983Y-78662380D01*
X111395650Y-79043333D01*
X111538507Y-79043333D01*
X111633745Y-79090952D01*
X111681364Y-79138571D01*
X111728983Y-79233809D01*
X111728983Y-79471904D01*
X111681364Y-79567142D01*
X111633745Y-79614761D01*
X111538507Y-79662380D01*
X111252793Y-79662380D01*
X111157555Y-79614761D01*
X111109936Y-79567142D01*
X112586126Y-78995714D02*
X112586126Y-79662380D01*
X112348031Y-78614761D02*
X112109936Y-79329047D01*
X112728983Y-79329047D01*
X113109936Y-79662380D02*
X113109936Y-78662380D01*
X113681364Y-79662380D01*
X113681364Y-78662380D01*
G04 #@! TO.C,R1*
X100798333Y-67800380D02*
X100465000Y-67324190D01*
X100226904Y-67800380D02*
X100226904Y-66800380D01*
X100607857Y-66800380D01*
X100703095Y-66848000D01*
X100750714Y-66895619D01*
X100798333Y-66990857D01*
X100798333Y-67133714D01*
X100750714Y-67228952D01*
X100703095Y-67276571D01*
X100607857Y-67324190D01*
X100226904Y-67324190D01*
X101750714Y-67800380D02*
X101179285Y-67800380D01*
X101465000Y-67800380D02*
X101465000Y-66800380D01*
X101369761Y-66943238D01*
X101274523Y-67038476D01*
X101179285Y-67086095D01*
G04 #@! TO.C,JP5*
X144454666Y-66800380D02*
X144454666Y-67514666D01*
X144407047Y-67657523D01*
X144311809Y-67752761D01*
X144168952Y-67800380D01*
X144073714Y-67800380D01*
X144930857Y-67800380D02*
X144930857Y-66800380D01*
X145311809Y-66800380D01*
X145407047Y-66848000D01*
X145454666Y-66895619D01*
X145502285Y-66990857D01*
X145502285Y-67133714D01*
X145454666Y-67228952D01*
X145407047Y-67276571D01*
X145311809Y-67324190D01*
X144930857Y-67324190D01*
X146407047Y-66800380D02*
X145930857Y-66800380D01*
X145883238Y-67276571D01*
X145930857Y-67228952D01*
X146026095Y-67181333D01*
X146264190Y-67181333D01*
X146359428Y-67228952D01*
X146407047Y-67276571D01*
X146454666Y-67371809D01*
X146454666Y-67609904D01*
X146407047Y-67705142D01*
X146359428Y-67752761D01*
X146264190Y-67800380D01*
X146026095Y-67800380D01*
X145930857Y-67752761D01*
X145883238Y-67705142D01*
G04 #@! TO.C,JP1*
X94670666Y-66800380D02*
X94670666Y-67514666D01*
X94623047Y-67657523D01*
X94527809Y-67752761D01*
X94384952Y-67800380D01*
X94289714Y-67800380D01*
X95146857Y-67800380D02*
X95146857Y-66800380D01*
X95527809Y-66800380D01*
X95623047Y-66848000D01*
X95670666Y-66895619D01*
X95718285Y-66990857D01*
X95718285Y-67133714D01*
X95670666Y-67228952D01*
X95623047Y-67276571D01*
X95527809Y-67324190D01*
X95146857Y-67324190D01*
X96670666Y-67800380D02*
X96099238Y-67800380D01*
X96384952Y-67800380D02*
X96384952Y-66800380D01*
X96289714Y-66943238D01*
X96194476Y-67038476D01*
X96099238Y-67086095D01*
G04 #@! TO.C,Q5*
X148238546Y-81630619D02*
X148143308Y-81583000D01*
X148048070Y-81487761D01*
X147905213Y-81344904D01*
X147809975Y-81297285D01*
X147714737Y-81297285D01*
X147762356Y-81535380D02*
X147667118Y-81487761D01*
X147571880Y-81392523D01*
X147524261Y-81202047D01*
X147524261Y-80868714D01*
X147571880Y-80678238D01*
X147667118Y-80583000D01*
X147762356Y-80535380D01*
X147952832Y-80535380D01*
X148048070Y-80583000D01*
X148143308Y-80678238D01*
X148190927Y-80868714D01*
X148190927Y-81202047D01*
X148143308Y-81392523D01*
X148048070Y-81487761D01*
X147952832Y-81535380D01*
X147762356Y-81535380D01*
X149095689Y-80535380D02*
X148619499Y-80535380D01*
X148571880Y-81011571D01*
X148619499Y-80963952D01*
X148714737Y-80916333D01*
X148952832Y-80916333D01*
X149048070Y-80963952D01*
X149095689Y-81011571D01*
X149143308Y-81106809D01*
X149143308Y-81344904D01*
X149095689Y-81440142D01*
X149048070Y-81487761D01*
X148952832Y-81535380D01*
X148714737Y-81535380D01*
X148619499Y-81487761D01*
X148571880Y-81440142D01*
X145476642Y-79535380D02*
X145476642Y-78535380D01*
X146524261Y-79535380D02*
X146190927Y-79059190D01*
X145952832Y-79535380D02*
X145952832Y-78535380D01*
X146333785Y-78535380D01*
X146429023Y-78583000D01*
X146476642Y-78630619D01*
X146524261Y-78725857D01*
X146524261Y-78868714D01*
X146476642Y-78963952D01*
X146429023Y-79011571D01*
X146333785Y-79059190D01*
X145952832Y-79059190D01*
X147429023Y-79535380D02*
X146952832Y-79535380D01*
X146952832Y-78535380D01*
X147667118Y-78535380D02*
X148333785Y-78535380D01*
X147667118Y-79535380D01*
X148333785Y-79535380D01*
X148619499Y-78535380D02*
X149238546Y-78535380D01*
X148905213Y-78916333D01*
X149048070Y-78916333D01*
X149143308Y-78963952D01*
X149190927Y-79011571D01*
X149238546Y-79106809D01*
X149238546Y-79344904D01*
X149190927Y-79440142D01*
X149143308Y-79487761D01*
X149048070Y-79535380D01*
X148762356Y-79535380D01*
X148667118Y-79487761D01*
X148619499Y-79440142D01*
X150095689Y-78868714D02*
X150095689Y-79535380D01*
X149857594Y-78487761D02*
X149619499Y-79202047D01*
X150238546Y-79202047D01*
X150619499Y-79535380D02*
X150619499Y-78535380D01*
X151190927Y-79535380D01*
X151190927Y-78535380D01*
G04 #@! TO.C,R8*
X131532333Y-60307380D02*
X131199000Y-59831190D01*
X130960904Y-60307380D02*
X130960904Y-59307380D01*
X131341857Y-59307380D01*
X131437095Y-59355000D01*
X131484714Y-59402619D01*
X131532333Y-59497857D01*
X131532333Y-59640714D01*
X131484714Y-59735952D01*
X131437095Y-59783571D01*
X131341857Y-59831190D01*
X130960904Y-59831190D01*
X132103761Y-59735952D02*
X132008523Y-59688333D01*
X131960904Y-59640714D01*
X131913285Y-59545476D01*
X131913285Y-59497857D01*
X131960904Y-59402619D01*
X132008523Y-59355000D01*
X132103761Y-59307380D01*
X132294238Y-59307380D01*
X132389476Y-59355000D01*
X132437095Y-59402619D01*
X132484714Y-59497857D01*
X132484714Y-59545476D01*
X132437095Y-59640714D01*
X132389476Y-59688333D01*
X132294238Y-59735952D01*
X132103761Y-59735952D01*
X132008523Y-59783571D01*
X131960904Y-59831190D01*
X131913285Y-59926428D01*
X131913285Y-60116904D01*
X131960904Y-60212142D01*
X132008523Y-60259761D01*
X132103761Y-60307380D01*
X132294238Y-60307380D01*
X132389476Y-60259761D01*
X132437095Y-60212142D01*
X132484714Y-60116904D01*
X132484714Y-59926428D01*
X132437095Y-59831190D01*
X132389476Y-59783571D01*
X132294238Y-59735952D01*
G04 #@! TO.C,F1*
X102790666Y-45178571D02*
X102457333Y-45178571D01*
X102457333Y-45702380D02*
X102457333Y-44702380D01*
X102933523Y-44702380D01*
X103838285Y-45702380D02*
X103266857Y-45702380D01*
X103552571Y-45702380D02*
X103552571Y-44702380D01*
X103457333Y-44845238D01*
X103362095Y-44940476D01*
X103266857Y-44988095D01*
G04 #@! TO.C,C4*
X130516333Y-58307142D02*
X130468714Y-58354761D01*
X130325857Y-58402380D01*
X130230619Y-58402380D01*
X130087761Y-58354761D01*
X129992523Y-58259523D01*
X129944904Y-58164285D01*
X129897285Y-57973809D01*
X129897285Y-57830952D01*
X129944904Y-57640476D01*
X129992523Y-57545238D01*
X130087761Y-57450000D01*
X130230619Y-57402380D01*
X130325857Y-57402380D01*
X130468714Y-57450000D01*
X130516333Y-57497619D01*
X131373476Y-57735714D02*
X131373476Y-58402380D01*
X131135380Y-57354761D02*
X130897285Y-58069047D01*
X131516333Y-58069047D01*
G04 #@! TO.C,C5*
X109815333Y-58815142D02*
X109767714Y-58862761D01*
X109624857Y-58910380D01*
X109529619Y-58910380D01*
X109386761Y-58862761D01*
X109291523Y-58767523D01*
X109243904Y-58672285D01*
X109196285Y-58481809D01*
X109196285Y-58338952D01*
X109243904Y-58148476D01*
X109291523Y-58053238D01*
X109386761Y-57958000D01*
X109529619Y-57910380D01*
X109624857Y-57910380D01*
X109767714Y-57958000D01*
X109815333Y-58005619D01*
X110720095Y-57910380D02*
X110243904Y-57910380D01*
X110196285Y-58386571D01*
X110243904Y-58338952D01*
X110339142Y-58291333D01*
X110577238Y-58291333D01*
X110672476Y-58338952D01*
X110720095Y-58386571D01*
X110767714Y-58481809D01*
X110767714Y-58719904D01*
X110720095Y-58815142D01*
X110672476Y-58862761D01*
X110577238Y-58910380D01*
X110339142Y-58910380D01*
X110243904Y-58862761D01*
X110196285Y-58815142D01*
G04 #@! TO.C,C8*
X164933333Y-129897142D02*
X164885714Y-129944761D01*
X164742857Y-129992380D01*
X164647619Y-129992380D01*
X164504761Y-129944761D01*
X164409523Y-129849523D01*
X164361904Y-129754285D01*
X164314285Y-129563809D01*
X164314285Y-129420952D01*
X164361904Y-129230476D01*
X164409523Y-129135238D01*
X164504761Y-129040000D01*
X164647619Y-128992380D01*
X164742857Y-128992380D01*
X164885714Y-129040000D01*
X164933333Y-129087619D01*
X165504761Y-129420952D02*
X165409523Y-129373333D01*
X165361904Y-129325714D01*
X165314285Y-129230476D01*
X165314285Y-129182857D01*
X165361904Y-129087619D01*
X165409523Y-129040000D01*
X165504761Y-128992380D01*
X165695238Y-128992380D01*
X165790476Y-129040000D01*
X165838095Y-129087619D01*
X165885714Y-129182857D01*
X165885714Y-129230476D01*
X165838095Y-129325714D01*
X165790476Y-129373333D01*
X165695238Y-129420952D01*
X165504761Y-129420952D01*
X165409523Y-129468571D01*
X165361904Y-129516190D01*
X165314285Y-129611428D01*
X165314285Y-129801904D01*
X165361904Y-129897142D01*
X165409523Y-129944761D01*
X165504761Y-129992380D01*
X165695238Y-129992380D01*
X165790476Y-129944761D01*
X165838095Y-129897142D01*
X165885714Y-129801904D01*
X165885714Y-129611428D01*
X165838095Y-129516190D01*
X165790476Y-129468571D01*
X165695238Y-129420952D01*
G04 #@! TO.C,JP10*
X158202380Y-125769523D02*
X158916666Y-125769523D01*
X159059523Y-125817142D01*
X159154761Y-125912380D01*
X159202380Y-126055238D01*
X159202380Y-126150476D01*
X159202380Y-125293333D02*
X158202380Y-125293333D01*
X158202380Y-124912380D01*
X158250000Y-124817142D01*
X158297619Y-124769523D01*
X158392857Y-124721904D01*
X158535714Y-124721904D01*
X158630952Y-124769523D01*
X158678571Y-124817142D01*
X158726190Y-124912380D01*
X158726190Y-125293333D01*
X159202380Y-123769523D02*
X159202380Y-124340952D01*
X159202380Y-124055238D02*
X158202380Y-124055238D01*
X158345238Y-124150476D01*
X158440476Y-124245714D01*
X158488095Y-124340952D01*
X158202380Y-123150476D02*
X158202380Y-123055238D01*
X158250000Y-122960000D01*
X158297619Y-122912380D01*
X158392857Y-122864761D01*
X158583333Y-122817142D01*
X158821428Y-122817142D01*
X159011904Y-122864761D01*
X159107142Y-122912380D01*
X159154761Y-122960000D01*
X159202380Y-123055238D01*
X159202380Y-123150476D01*
X159154761Y-123245714D01*
X159107142Y-123293333D01*
X159011904Y-123340952D01*
X158821428Y-123388571D01*
X158583333Y-123388571D01*
X158392857Y-123340952D01*
X158297619Y-123293333D01*
X158250000Y-123245714D01*
X158202380Y-123150476D01*
G04 #@! TO.C,C2*
X136358333Y-96242142D02*
X136310714Y-96289761D01*
X136167857Y-96337380D01*
X136072619Y-96337380D01*
X135929761Y-96289761D01*
X135834523Y-96194523D01*
X135786904Y-96099285D01*
X135739285Y-95908809D01*
X135739285Y-95765952D01*
X135786904Y-95575476D01*
X135834523Y-95480238D01*
X135929761Y-95385000D01*
X136072619Y-95337380D01*
X136167857Y-95337380D01*
X136310714Y-95385000D01*
X136358333Y-95432619D01*
X136739285Y-95432619D02*
X136786904Y-95385000D01*
X136882142Y-95337380D01*
X137120238Y-95337380D01*
X137215476Y-95385000D01*
X137263095Y-95432619D01*
X137310714Y-95527857D01*
X137310714Y-95623095D01*
X137263095Y-95765952D01*
X136691666Y-96337380D01*
X137310714Y-96337380D01*
G04 #@! TO.C,C7*
X135723333Y-115673142D02*
X135675714Y-115720761D01*
X135532857Y-115768380D01*
X135437619Y-115768380D01*
X135294761Y-115720761D01*
X135199523Y-115625523D01*
X135151904Y-115530285D01*
X135104285Y-115339809D01*
X135104285Y-115196952D01*
X135151904Y-115006476D01*
X135199523Y-114911238D01*
X135294761Y-114816000D01*
X135437619Y-114768380D01*
X135532857Y-114768380D01*
X135675714Y-114816000D01*
X135723333Y-114863619D01*
X136056666Y-114768380D02*
X136723333Y-114768380D01*
X136294761Y-115768380D01*
G04 #@! TO.C,C6*
X109815333Y-114657142D02*
X109767714Y-114704761D01*
X109624857Y-114752380D01*
X109529619Y-114752380D01*
X109386761Y-114704761D01*
X109291523Y-114609523D01*
X109243904Y-114514285D01*
X109196285Y-114323809D01*
X109196285Y-114180952D01*
X109243904Y-113990476D01*
X109291523Y-113895238D01*
X109386761Y-113800000D01*
X109529619Y-113752380D01*
X109624857Y-113752380D01*
X109767714Y-113800000D01*
X109815333Y-113847619D01*
X110672476Y-113752380D02*
X110482000Y-113752380D01*
X110386761Y-113800000D01*
X110339142Y-113847619D01*
X110243904Y-113990476D01*
X110196285Y-114180952D01*
X110196285Y-114561904D01*
X110243904Y-114657142D01*
X110291523Y-114704761D01*
X110386761Y-114752380D01*
X110577238Y-114752380D01*
X110672476Y-114704761D01*
X110720095Y-114657142D01*
X110767714Y-114561904D01*
X110767714Y-114323809D01*
X110720095Y-114228571D01*
X110672476Y-114180952D01*
X110577238Y-114133333D01*
X110386761Y-114133333D01*
X110291523Y-114180952D01*
X110243904Y-114228571D01*
X110196285Y-114323809D01*
G04 #@! TO.C,C4*
X130516333Y-108307142D02*
X130468714Y-108354761D01*
X130325857Y-108402380D01*
X130230619Y-108402380D01*
X130087761Y-108354761D01*
X129992523Y-108259523D01*
X129944904Y-108164285D01*
X129897285Y-107973809D01*
X129897285Y-107830952D01*
X129944904Y-107640476D01*
X129992523Y-107545238D01*
X130087761Y-107450000D01*
X130230619Y-107402380D01*
X130325857Y-107402380D01*
X130468714Y-107450000D01*
X130516333Y-107497619D01*
X131373476Y-107735714D02*
X131373476Y-108402380D01*
X131135380Y-107354761D02*
X130897285Y-108069047D01*
X131516333Y-108069047D01*
G04 #@! TO.C,C5*
X109815333Y-108815142D02*
X109767714Y-108862761D01*
X109624857Y-108910380D01*
X109529619Y-108910380D01*
X109386761Y-108862761D01*
X109291523Y-108767523D01*
X109243904Y-108672285D01*
X109196285Y-108481809D01*
X109196285Y-108338952D01*
X109243904Y-108148476D01*
X109291523Y-108053238D01*
X109386761Y-107958000D01*
X109529619Y-107910380D01*
X109624857Y-107910380D01*
X109767714Y-107958000D01*
X109815333Y-108005619D01*
X110720095Y-107910380D02*
X110243904Y-107910380D01*
X110196285Y-108386571D01*
X110243904Y-108338952D01*
X110339142Y-108291333D01*
X110577238Y-108291333D01*
X110672476Y-108338952D01*
X110720095Y-108386571D01*
X110767714Y-108481809D01*
X110767714Y-108719904D01*
X110720095Y-108815142D01*
X110672476Y-108862761D01*
X110577238Y-108910380D01*
X110339142Y-108910380D01*
X110243904Y-108862761D01*
X110196285Y-108815142D01*
G04 #@! TO.C,R6*
X156027380Y-119546666D02*
X155551190Y-119880000D01*
X156027380Y-120118095D02*
X155027380Y-120118095D01*
X155027380Y-119737142D01*
X155075000Y-119641904D01*
X155122619Y-119594285D01*
X155217857Y-119546666D01*
X155360714Y-119546666D01*
X155455952Y-119594285D01*
X155503571Y-119641904D01*
X155551190Y-119737142D01*
X155551190Y-120118095D01*
X155027380Y-118689523D02*
X155027380Y-118880000D01*
X155075000Y-118975238D01*
X155122619Y-119022857D01*
X155265476Y-119118095D01*
X155455952Y-119165714D01*
X155836904Y-119165714D01*
X155932142Y-119118095D01*
X155979761Y-119070476D01*
X156027380Y-118975238D01*
X156027380Y-118784761D01*
X155979761Y-118689523D01*
X155932142Y-118641904D01*
X155836904Y-118594285D01*
X155598809Y-118594285D01*
X155503571Y-118641904D01*
X155455952Y-118689523D01*
X155408333Y-118784761D01*
X155408333Y-118975238D01*
X155455952Y-119070476D01*
X155503571Y-119118095D01*
X155598809Y-119165714D01*
G04 #@! TO.C,R7*
X178252380Y-119546666D02*
X177776190Y-119880000D01*
X178252380Y-120118095D02*
X177252380Y-120118095D01*
X177252380Y-119737142D01*
X177300000Y-119641904D01*
X177347619Y-119594285D01*
X177442857Y-119546666D01*
X177585714Y-119546666D01*
X177680952Y-119594285D01*
X177728571Y-119641904D01*
X177776190Y-119737142D01*
X177776190Y-120118095D01*
X177252380Y-119213333D02*
X177252380Y-118546666D01*
X178252380Y-118975238D01*
G04 #@! TO.C,U2*
X166238095Y-115657380D02*
X166238095Y-116466904D01*
X166285714Y-116562142D01*
X166333333Y-116609761D01*
X166428571Y-116657380D01*
X166619047Y-116657380D01*
X166714285Y-116609761D01*
X166761904Y-116562142D01*
X166809523Y-116466904D01*
X166809523Y-115657380D01*
X167238095Y-115752619D02*
X167285714Y-115705000D01*
X167380952Y-115657380D01*
X167619047Y-115657380D01*
X167714285Y-115705000D01*
X167761904Y-115752619D01*
X167809523Y-115847857D01*
X167809523Y-115943095D01*
X167761904Y-116085952D01*
X167190476Y-116657380D01*
X167809523Y-116657380D01*
X163380952Y-117732571D02*
X163714285Y-117732571D01*
X163857142Y-118256380D02*
X163380952Y-118256380D01*
X163380952Y-117256380D01*
X163857142Y-117256380D01*
X164238095Y-118208761D02*
X164380952Y-118256380D01*
X164619047Y-118256380D01*
X164714285Y-118208761D01*
X164761904Y-118161142D01*
X164809523Y-118065904D01*
X164809523Y-117970666D01*
X164761904Y-117875428D01*
X164714285Y-117827809D01*
X164619047Y-117780190D01*
X164428571Y-117732571D01*
X164333333Y-117684952D01*
X164285714Y-117637333D01*
X164238095Y-117542095D01*
X164238095Y-117446857D01*
X164285714Y-117351619D01*
X164333333Y-117304000D01*
X164428571Y-117256380D01*
X164666666Y-117256380D01*
X164809523Y-117304000D01*
X165238095Y-118256380D02*
X165238095Y-117256380D01*
X165619047Y-117256380D01*
X165714285Y-117304000D01*
X165761904Y-117351619D01*
X165809523Y-117446857D01*
X165809523Y-117589714D01*
X165761904Y-117684952D01*
X165714285Y-117732571D01*
X165619047Y-117780190D01*
X165238095Y-117780190D01*
X166238095Y-117875428D02*
X167000000Y-117875428D01*
X167666666Y-117256380D02*
X167761904Y-117256380D01*
X167857142Y-117304000D01*
X167904761Y-117351619D01*
X167952380Y-117446857D01*
X168000000Y-117637333D01*
X168000000Y-117875428D01*
X167952380Y-118065904D01*
X167904761Y-118161142D01*
X167857142Y-118208761D01*
X167761904Y-118256380D01*
X167666666Y-118256380D01*
X167571428Y-118208761D01*
X167523809Y-118161142D01*
X167476190Y-118065904D01*
X167428571Y-117875428D01*
X167428571Y-117637333D01*
X167476190Y-117446857D01*
X167523809Y-117351619D01*
X167571428Y-117304000D01*
X167666666Y-117256380D01*
X168333333Y-117256380D02*
X169000000Y-117256380D01*
X168571428Y-118256380D01*
X169285714Y-117589714D02*
X169523809Y-118256380D01*
X169761904Y-117589714D01*
X170095238Y-117351619D02*
X170142857Y-117304000D01*
X170238095Y-117256380D01*
X170476190Y-117256380D01*
X170571428Y-117304000D01*
X170619047Y-117351619D01*
X170666666Y-117446857D01*
X170666666Y-117542095D01*
X170619047Y-117684952D01*
X170047619Y-118256380D01*
X170666666Y-118256380D01*
G04 #@! TO.C,JP1*
X94670666Y-116800380D02*
X94670666Y-117514666D01*
X94623047Y-117657523D01*
X94527809Y-117752761D01*
X94384952Y-117800380D01*
X94289714Y-117800380D01*
X95146857Y-117800380D02*
X95146857Y-116800380D01*
X95527809Y-116800380D01*
X95623047Y-116848000D01*
X95670666Y-116895619D01*
X95718285Y-116990857D01*
X95718285Y-117133714D01*
X95670666Y-117228952D01*
X95623047Y-117276571D01*
X95527809Y-117324190D01*
X95146857Y-117324190D01*
X96670666Y-117800380D02*
X96099238Y-117800380D01*
X96384952Y-117800380D02*
X96384952Y-116800380D01*
X96289714Y-116943238D01*
X96194476Y-117038476D01*
X96099238Y-117086095D01*
G04 #@! TO.C,SW1*
X157003904Y-143454380D02*
X156670571Y-142978190D01*
X156432476Y-143454380D02*
X156432476Y-142454380D01*
X156813428Y-142454380D01*
X156908666Y-142502000D01*
X156956285Y-142549619D01*
X157003904Y-142644857D01*
X157003904Y-142787714D01*
X156956285Y-142882952D01*
X156908666Y-142930571D01*
X156813428Y-142978190D01*
X156432476Y-142978190D01*
X157813428Y-143406761D02*
X157718190Y-143454380D01*
X157527714Y-143454380D01*
X157432476Y-143406761D01*
X157384857Y-143311523D01*
X157384857Y-142930571D01*
X157432476Y-142835333D01*
X157527714Y-142787714D01*
X157718190Y-142787714D01*
X157813428Y-142835333D01*
X157861047Y-142930571D01*
X157861047Y-143025809D01*
X157384857Y-143121047D01*
X158242000Y-143406761D02*
X158337238Y-143454380D01*
X158527714Y-143454380D01*
X158622952Y-143406761D01*
X158670571Y-143311523D01*
X158670571Y-143263904D01*
X158622952Y-143168666D01*
X158527714Y-143121047D01*
X158384857Y-143121047D01*
X158289619Y-143073428D01*
X158242000Y-142978190D01*
X158242000Y-142930571D01*
X158289619Y-142835333D01*
X158384857Y-142787714D01*
X158527714Y-142787714D01*
X158622952Y-142835333D01*
X159480095Y-143406761D02*
X159384857Y-143454380D01*
X159194380Y-143454380D01*
X159099142Y-143406761D01*
X159051523Y-143311523D01*
X159051523Y-142930571D01*
X159099142Y-142835333D01*
X159194380Y-142787714D01*
X159384857Y-142787714D01*
X159480095Y-142835333D01*
X159527714Y-142930571D01*
X159527714Y-143025809D01*
X159051523Y-143121047D01*
X159813428Y-142787714D02*
X160194380Y-142787714D01*
X159956285Y-142454380D02*
X159956285Y-143311523D01*
X160003904Y-143406761D01*
X160099142Y-143454380D01*
X160194380Y-143454380D01*
X156916666Y-137586761D02*
X157059523Y-137634380D01*
X157297619Y-137634380D01*
X157392857Y-137586761D01*
X157440476Y-137539142D01*
X157488095Y-137443904D01*
X157488095Y-137348666D01*
X157440476Y-137253428D01*
X157392857Y-137205809D01*
X157297619Y-137158190D01*
X157107142Y-137110571D01*
X157011904Y-137062952D01*
X156964285Y-137015333D01*
X156916666Y-136920095D01*
X156916666Y-136824857D01*
X156964285Y-136729619D01*
X157011904Y-136682000D01*
X157107142Y-136634380D01*
X157345238Y-136634380D01*
X157488095Y-136682000D01*
X157821428Y-136634380D02*
X158059523Y-137634380D01*
X158250000Y-136920095D01*
X158440476Y-137634380D01*
X158678571Y-136634380D01*
X159583333Y-137634380D02*
X159011904Y-137634380D01*
X159297619Y-137634380D02*
X159297619Y-136634380D01*
X159202380Y-136777238D01*
X159107142Y-136872476D01*
X159011904Y-136920095D01*
G04 #@! TO.C,P1*
X176553904Y-100147380D02*
X176553904Y-99147380D01*
X176934857Y-99147380D01*
X177030095Y-99195000D01*
X177077714Y-99242619D01*
X177125333Y-99337857D01*
X177125333Y-99480714D01*
X177077714Y-99575952D01*
X177030095Y-99623571D01*
X176934857Y-99671190D01*
X176553904Y-99671190D01*
X178077714Y-100147380D02*
X177506285Y-100147380D01*
X177792000Y-100147380D02*
X177792000Y-99147380D01*
X177696761Y-99290238D01*
X177601523Y-99385476D01*
X177506285Y-99433095D01*
G04 #@! TO.C,Q5*
X148238546Y-131630619D02*
X148143308Y-131583000D01*
X148048070Y-131487761D01*
X147905213Y-131344904D01*
X147809975Y-131297285D01*
X147714737Y-131297285D01*
X147762356Y-131535380D02*
X147667118Y-131487761D01*
X147571880Y-131392523D01*
X147524261Y-131202047D01*
X147524261Y-130868714D01*
X147571880Y-130678238D01*
X147667118Y-130583000D01*
X147762356Y-130535380D01*
X147952832Y-130535380D01*
X148048070Y-130583000D01*
X148143308Y-130678238D01*
X148190927Y-130868714D01*
X148190927Y-131202047D01*
X148143308Y-131392523D01*
X148048070Y-131487761D01*
X147952832Y-131535380D01*
X147762356Y-131535380D01*
X149095689Y-130535380D02*
X148619499Y-130535380D01*
X148571880Y-131011571D01*
X148619499Y-130963952D01*
X148714737Y-130916333D01*
X148952832Y-130916333D01*
X149048070Y-130963952D01*
X149095689Y-131011571D01*
X149143308Y-131106809D01*
X149143308Y-131344904D01*
X149095689Y-131440142D01*
X149048070Y-131487761D01*
X148952832Y-131535380D01*
X148714737Y-131535380D01*
X148619499Y-131487761D01*
X148571880Y-131440142D01*
X145476642Y-129535380D02*
X145476642Y-128535380D01*
X146524261Y-129535380D02*
X146190927Y-129059190D01*
X145952832Y-129535380D02*
X145952832Y-128535380D01*
X146333785Y-128535380D01*
X146429023Y-128583000D01*
X146476642Y-128630619D01*
X146524261Y-128725857D01*
X146524261Y-128868714D01*
X146476642Y-128963952D01*
X146429023Y-129011571D01*
X146333785Y-129059190D01*
X145952832Y-129059190D01*
X147429023Y-129535380D02*
X146952832Y-129535380D01*
X146952832Y-128535380D01*
X147667118Y-128535380D02*
X148333785Y-128535380D01*
X147667118Y-129535380D01*
X148333785Y-129535380D01*
X148619499Y-128535380D02*
X149238546Y-128535380D01*
X148905213Y-128916333D01*
X149048070Y-128916333D01*
X149143308Y-128963952D01*
X149190927Y-129011571D01*
X149238546Y-129106809D01*
X149238546Y-129344904D01*
X149190927Y-129440142D01*
X149143308Y-129487761D01*
X149048070Y-129535380D01*
X148762356Y-129535380D01*
X148667118Y-129487761D01*
X148619499Y-129440142D01*
X150095689Y-128868714D02*
X150095689Y-129535380D01*
X149857594Y-128487761D02*
X149619499Y-129202047D01*
X150238546Y-129202047D01*
X150619499Y-129535380D02*
X150619499Y-128535380D01*
X151190927Y-129535380D01*
X151190927Y-128535380D01*
G04 #@! TO.C,JP5*
X144454666Y-116800380D02*
X144454666Y-117514666D01*
X144407047Y-117657523D01*
X144311809Y-117752761D01*
X144168952Y-117800380D01*
X144073714Y-117800380D01*
X144930857Y-117800380D02*
X144930857Y-116800380D01*
X145311809Y-116800380D01*
X145407047Y-116848000D01*
X145454666Y-116895619D01*
X145502285Y-116990857D01*
X145502285Y-117133714D01*
X145454666Y-117228952D01*
X145407047Y-117276571D01*
X145311809Y-117324190D01*
X144930857Y-117324190D01*
X146407047Y-116800380D02*
X145930857Y-116800380D01*
X145883238Y-117276571D01*
X145930857Y-117228952D01*
X146026095Y-117181333D01*
X146264190Y-117181333D01*
X146359428Y-117228952D01*
X146407047Y-117276571D01*
X146454666Y-117371809D01*
X146454666Y-117609904D01*
X146407047Y-117705142D01*
X146359428Y-117752761D01*
X146264190Y-117800380D01*
X146026095Y-117800380D01*
X145930857Y-117752761D01*
X145883238Y-117705142D01*
G04 #@! TO.C,SW2*
X164481238Y-143454380D02*
X164481238Y-142454380D01*
X164862190Y-142454380D01*
X164957428Y-142502000D01*
X165005047Y-142549619D01*
X165052666Y-142644857D01*
X165052666Y-142787714D01*
X165005047Y-142882952D01*
X164957428Y-142930571D01*
X164862190Y-142978190D01*
X164481238Y-142978190D01*
X165481238Y-143454380D02*
X165481238Y-142787714D01*
X165481238Y-142978190D02*
X165528857Y-142882952D01*
X165576476Y-142835333D01*
X165671714Y-142787714D01*
X165766952Y-142787714D01*
X166243142Y-143454380D02*
X166147904Y-143406761D01*
X166100285Y-143359142D01*
X166052666Y-143263904D01*
X166052666Y-142978190D01*
X166100285Y-142882952D01*
X166147904Y-142835333D01*
X166243142Y-142787714D01*
X166386000Y-142787714D01*
X166481238Y-142835333D01*
X166528857Y-142882952D01*
X166576476Y-142978190D01*
X166576476Y-143263904D01*
X166528857Y-143359142D01*
X166481238Y-143406761D01*
X166386000Y-143454380D01*
X166243142Y-143454380D01*
X167433619Y-142787714D02*
X167433619Y-143597238D01*
X167386000Y-143692476D01*
X167338380Y-143740095D01*
X167243142Y-143787714D01*
X167100285Y-143787714D01*
X167005047Y-143740095D01*
X167433619Y-143406761D02*
X167338380Y-143454380D01*
X167147904Y-143454380D01*
X167052666Y-143406761D01*
X167005047Y-143359142D01*
X166957428Y-143263904D01*
X166957428Y-142978190D01*
X167005047Y-142882952D01*
X167052666Y-142835333D01*
X167147904Y-142787714D01*
X167338380Y-142787714D01*
X167433619Y-142835333D01*
X167909809Y-143454380D02*
X167909809Y-142787714D01*
X167909809Y-142978190D02*
X167957428Y-142882952D01*
X168005047Y-142835333D01*
X168100285Y-142787714D01*
X168195523Y-142787714D01*
X168957428Y-143454380D02*
X168957428Y-142930571D01*
X168909809Y-142835333D01*
X168814571Y-142787714D01*
X168624095Y-142787714D01*
X168528857Y-142835333D01*
X168957428Y-143406761D02*
X168862190Y-143454380D01*
X168624095Y-143454380D01*
X168528857Y-143406761D01*
X168481238Y-143311523D01*
X168481238Y-143216285D01*
X168528857Y-143121047D01*
X168624095Y-143073428D01*
X168862190Y-143073428D01*
X168957428Y-143025809D01*
X169433619Y-143454380D02*
X169433619Y-142787714D01*
X169433619Y-142882952D02*
X169481238Y-142835333D01*
X169576476Y-142787714D01*
X169719333Y-142787714D01*
X169814571Y-142835333D01*
X169862190Y-142930571D01*
X169862190Y-143454380D01*
X169862190Y-142930571D02*
X169909809Y-142835333D01*
X170005047Y-142787714D01*
X170147904Y-142787714D01*
X170243142Y-142835333D01*
X170290761Y-142930571D01*
X170290761Y-143454380D01*
X165916666Y-137586761D02*
X166059523Y-137634380D01*
X166297619Y-137634380D01*
X166392857Y-137586761D01*
X166440476Y-137539142D01*
X166488095Y-137443904D01*
X166488095Y-137348666D01*
X166440476Y-137253428D01*
X166392857Y-137205809D01*
X166297619Y-137158190D01*
X166107142Y-137110571D01*
X166011904Y-137062952D01*
X165964285Y-137015333D01*
X165916666Y-136920095D01*
X165916666Y-136824857D01*
X165964285Y-136729619D01*
X166011904Y-136682000D01*
X166107142Y-136634380D01*
X166345238Y-136634380D01*
X166488095Y-136682000D01*
X166821428Y-136634380D02*
X167059523Y-137634380D01*
X167250000Y-136920095D01*
X167440476Y-137634380D01*
X167678571Y-136634380D01*
X168011904Y-136729619D02*
X168059523Y-136682000D01*
X168154761Y-136634380D01*
X168392857Y-136634380D01*
X168488095Y-136682000D01*
X168535714Y-136729619D01*
X168583333Y-136824857D01*
X168583333Y-136920095D01*
X168535714Y-137062952D01*
X167964285Y-137634380D01*
X168583333Y-137634380D01*
G04 #@! TO.C,R4*
X138263333Y-118054380D02*
X137930000Y-117578190D01*
X137691904Y-118054380D02*
X137691904Y-117054380D01*
X138072857Y-117054380D01*
X138168095Y-117102000D01*
X138215714Y-117149619D01*
X138263333Y-117244857D01*
X138263333Y-117387714D01*
X138215714Y-117482952D01*
X138168095Y-117530571D01*
X138072857Y-117578190D01*
X137691904Y-117578190D01*
X139120476Y-117387714D02*
X139120476Y-118054380D01*
X138882380Y-117006761D02*
X138644285Y-117721047D01*
X139263333Y-117721047D01*
G04 #@! TO.C,R8*
X131532333Y-110307380D02*
X131199000Y-109831190D01*
X130960904Y-110307380D02*
X130960904Y-109307380D01*
X131341857Y-109307380D01*
X131437095Y-109355000D01*
X131484714Y-109402619D01*
X131532333Y-109497857D01*
X131532333Y-109640714D01*
X131484714Y-109735952D01*
X131437095Y-109783571D01*
X131341857Y-109831190D01*
X130960904Y-109831190D01*
X132103761Y-109735952D02*
X132008523Y-109688333D01*
X131960904Y-109640714D01*
X131913285Y-109545476D01*
X131913285Y-109497857D01*
X131960904Y-109402619D01*
X132008523Y-109355000D01*
X132103761Y-109307380D01*
X132294238Y-109307380D01*
X132389476Y-109355000D01*
X132437095Y-109402619D01*
X132484714Y-109497857D01*
X132484714Y-109545476D01*
X132437095Y-109640714D01*
X132389476Y-109688333D01*
X132294238Y-109735952D01*
X132103761Y-109735952D01*
X132008523Y-109783571D01*
X131960904Y-109831190D01*
X131913285Y-109926428D01*
X131913285Y-110116904D01*
X131960904Y-110212142D01*
X132008523Y-110259761D01*
X132103761Y-110307380D01*
X132294238Y-110307380D01*
X132389476Y-110259761D01*
X132437095Y-110212142D01*
X132484714Y-110116904D01*
X132484714Y-109926428D01*
X132437095Y-109831190D01*
X132389476Y-109783571D01*
X132294238Y-109735952D01*
G04 #@! TO.C,P2*
X176576904Y-109672380D02*
X176576904Y-108672380D01*
X176957857Y-108672380D01*
X177053095Y-108720000D01*
X177100714Y-108767619D01*
X177148333Y-108862857D01*
X177148333Y-109005714D01*
X177100714Y-109100952D01*
X177053095Y-109148571D01*
X176957857Y-109196190D01*
X176576904Y-109196190D01*
X177529285Y-108767619D02*
X177576904Y-108720000D01*
X177672142Y-108672380D01*
X177910238Y-108672380D01*
X178005476Y-108720000D01*
X178053095Y-108767619D01*
X178100714Y-108862857D01*
X178100714Y-108958095D01*
X178053095Y-109100952D01*
X177481666Y-109672380D01*
X178100714Y-109672380D01*
G04 #@! TO.C,Q4*
X135735357Y-131757619D02*
X135640119Y-131710000D01*
X135544881Y-131614761D01*
X135402024Y-131471904D01*
X135306786Y-131424285D01*
X135211548Y-131424285D01*
X135259167Y-131662380D02*
X135163929Y-131614761D01*
X135068691Y-131519523D01*
X135021072Y-131329047D01*
X135021072Y-130995714D01*
X135068691Y-130805238D01*
X135163929Y-130710000D01*
X135259167Y-130662380D01*
X135449643Y-130662380D01*
X135544881Y-130710000D01*
X135640119Y-130805238D01*
X135687738Y-130995714D01*
X135687738Y-131329047D01*
X135640119Y-131519523D01*
X135544881Y-131614761D01*
X135449643Y-131662380D01*
X135259167Y-131662380D01*
X136544881Y-130995714D02*
X136544881Y-131662380D01*
X136306786Y-130614761D02*
X136068691Y-131329047D01*
X136687738Y-131329047D01*
X133146043Y-129662380D02*
X133146043Y-128662380D01*
X134193662Y-129662380D02*
X133860328Y-129186190D01*
X133622233Y-129662380D02*
X133622233Y-128662380D01*
X134003186Y-128662380D01*
X134098424Y-128710000D01*
X134146043Y-128757619D01*
X134193662Y-128852857D01*
X134193662Y-128995714D01*
X134146043Y-129090952D01*
X134098424Y-129138571D01*
X134003186Y-129186190D01*
X133622233Y-129186190D01*
X135098424Y-129662380D02*
X134622233Y-129662380D01*
X134622233Y-128662380D01*
X135336519Y-128662380D02*
X136003186Y-128662380D01*
X135336519Y-129662380D01*
X136003186Y-129662380D01*
X136288900Y-128662380D02*
X136907947Y-128662380D01*
X136574614Y-129043333D01*
X136717471Y-129043333D01*
X136812709Y-129090952D01*
X136860328Y-129138571D01*
X136907947Y-129233809D01*
X136907947Y-129471904D01*
X136860328Y-129567142D01*
X136812709Y-129614761D01*
X136717471Y-129662380D01*
X136431757Y-129662380D01*
X136336519Y-129614761D01*
X136288900Y-129567142D01*
X137765090Y-128995714D02*
X137765090Y-129662380D01*
X137526995Y-128614761D02*
X137288900Y-129329047D01*
X137907947Y-129329047D01*
X138288900Y-129662380D02*
X138288900Y-128662380D01*
X138860328Y-129662380D01*
X138860328Y-128662380D01*
G04 #@! TO.C,R3*
X126325333Y-117546380D02*
X125992000Y-117070190D01*
X125753904Y-117546380D02*
X125753904Y-116546380D01*
X126134857Y-116546380D01*
X126230095Y-116594000D01*
X126277714Y-116641619D01*
X126325333Y-116736857D01*
X126325333Y-116879714D01*
X126277714Y-116974952D01*
X126230095Y-117022571D01*
X126134857Y-117070190D01*
X125753904Y-117070190D01*
X126658666Y-116546380D02*
X127277714Y-116546380D01*
X126944380Y-116927333D01*
X127087238Y-116927333D01*
X127182476Y-116974952D01*
X127230095Y-117022571D01*
X127277714Y-117117809D01*
X127277714Y-117355904D01*
X127230095Y-117451142D01*
X127182476Y-117498761D01*
X127087238Y-117546380D01*
X126801523Y-117546380D01*
X126706285Y-117498761D01*
X126658666Y-117451142D01*
G04 #@! TO.C,JP3*
X119308666Y-116546380D02*
X119308666Y-117260666D01*
X119261047Y-117403523D01*
X119165809Y-117498761D01*
X119022952Y-117546380D01*
X118927714Y-117546380D01*
X119784857Y-117546380D02*
X119784857Y-116546380D01*
X120165809Y-116546380D01*
X120261047Y-116594000D01*
X120308666Y-116641619D01*
X120356285Y-116736857D01*
X120356285Y-116879714D01*
X120308666Y-116974952D01*
X120261047Y-117022571D01*
X120165809Y-117070190D01*
X119784857Y-117070190D01*
X120689619Y-116546380D02*
X121308666Y-116546380D01*
X120975333Y-116927333D01*
X121118190Y-116927333D01*
X121213428Y-116974952D01*
X121261047Y-117022571D01*
X121308666Y-117117809D01*
X121308666Y-117355904D01*
X121261047Y-117451142D01*
X121213428Y-117498761D01*
X121118190Y-117546380D01*
X120832476Y-117546380D01*
X120737238Y-117498761D01*
X120689619Y-117451142D01*
G04 #@! TO.C,JP2*
X107116666Y-116800380D02*
X107116666Y-117514666D01*
X107069047Y-117657523D01*
X106973809Y-117752761D01*
X106830952Y-117800380D01*
X106735714Y-117800380D01*
X107592857Y-117800380D02*
X107592857Y-116800380D01*
X107973809Y-116800380D01*
X108069047Y-116848000D01*
X108116666Y-116895619D01*
X108164285Y-116990857D01*
X108164285Y-117133714D01*
X108116666Y-117228952D01*
X108069047Y-117276571D01*
X107973809Y-117324190D01*
X107592857Y-117324190D01*
X108545238Y-116895619D02*
X108592857Y-116848000D01*
X108688095Y-116800380D01*
X108926190Y-116800380D01*
X109021428Y-116848000D01*
X109069047Y-116895619D01*
X109116666Y-116990857D01*
X109116666Y-117086095D01*
X109069047Y-117228952D01*
X108497619Y-117800380D01*
X109116666Y-117800380D01*
G04 #@! TO.C,U1*
X112268095Y-95210380D02*
X112268095Y-96019904D01*
X112315714Y-96115142D01*
X112363333Y-96162761D01*
X112458571Y-96210380D01*
X112649047Y-96210380D01*
X112744285Y-96162761D01*
X112791904Y-96115142D01*
X112839523Y-96019904D01*
X112839523Y-95210380D01*
X113839523Y-96210380D02*
X113268095Y-96210380D01*
X113553809Y-96210380D02*
X113553809Y-95210380D01*
X113458571Y-95353238D01*
X113363333Y-95448476D01*
X113268095Y-95496095D01*
G04 #@! TO.C,R5*
X150963333Y-118054380D02*
X150630000Y-117578190D01*
X150391904Y-118054380D02*
X150391904Y-117054380D01*
X150772857Y-117054380D01*
X150868095Y-117102000D01*
X150915714Y-117149619D01*
X150963333Y-117244857D01*
X150963333Y-117387714D01*
X150915714Y-117482952D01*
X150868095Y-117530571D01*
X150772857Y-117578190D01*
X150391904Y-117578190D01*
X151868095Y-117054380D02*
X151391904Y-117054380D01*
X151344285Y-117530571D01*
X151391904Y-117482952D01*
X151487142Y-117435333D01*
X151725238Y-117435333D01*
X151820476Y-117482952D01*
X151868095Y-117530571D01*
X151915714Y-117625809D01*
X151915714Y-117863904D01*
X151868095Y-117959142D01*
X151820476Y-118006761D01*
X151725238Y-118054380D01*
X151487142Y-118054380D01*
X151391904Y-118006761D01*
X151344285Y-117959142D01*
G04 #@! TO.C,F1*
X102790666Y-95178571D02*
X102457333Y-95178571D01*
X102457333Y-95702380D02*
X102457333Y-94702380D01*
X102933523Y-94702380D01*
X103838285Y-95702380D02*
X103266857Y-95702380D01*
X103552571Y-95702380D02*
X103552571Y-94702380D01*
X103457333Y-94845238D01*
X103362095Y-94940476D01*
X103266857Y-94988095D01*
G04 #@! TO.C,SW3*
X174609333Y-143454380D02*
X174609333Y-142454380D01*
X174942666Y-143168666D01*
X175276000Y-142454380D01*
X175276000Y-143454380D01*
X175895047Y-143454380D02*
X175799809Y-143406761D01*
X175752190Y-143359142D01*
X175704571Y-143263904D01*
X175704571Y-142978190D01*
X175752190Y-142882952D01*
X175799809Y-142835333D01*
X175895047Y-142787714D01*
X176037904Y-142787714D01*
X176133142Y-142835333D01*
X176180761Y-142882952D01*
X176228380Y-142978190D01*
X176228380Y-143263904D01*
X176180761Y-143359142D01*
X176133142Y-143406761D01*
X176037904Y-143454380D01*
X175895047Y-143454380D01*
X177085523Y-143454380D02*
X177085523Y-142454380D01*
X177085523Y-143406761D02*
X176990285Y-143454380D01*
X176799809Y-143454380D01*
X176704571Y-143406761D01*
X176656952Y-143359142D01*
X176609333Y-143263904D01*
X176609333Y-142978190D01*
X176656952Y-142882952D01*
X176704571Y-142835333D01*
X176799809Y-142787714D01*
X176990285Y-142787714D01*
X177085523Y-142835333D01*
X177942666Y-143406761D02*
X177847428Y-143454380D01*
X177656952Y-143454380D01*
X177561714Y-143406761D01*
X177514095Y-143311523D01*
X177514095Y-142930571D01*
X177561714Y-142835333D01*
X177656952Y-142787714D01*
X177847428Y-142787714D01*
X177942666Y-142835333D01*
X177990285Y-142930571D01*
X177990285Y-143025809D01*
X177514095Y-143121047D01*
X174916666Y-137586761D02*
X175059523Y-137634380D01*
X175297619Y-137634380D01*
X175392857Y-137586761D01*
X175440476Y-137539142D01*
X175488095Y-137443904D01*
X175488095Y-137348666D01*
X175440476Y-137253428D01*
X175392857Y-137205809D01*
X175297619Y-137158190D01*
X175107142Y-137110571D01*
X175011904Y-137062952D01*
X174964285Y-137015333D01*
X174916666Y-136920095D01*
X174916666Y-136824857D01*
X174964285Y-136729619D01*
X175011904Y-136682000D01*
X175107142Y-136634380D01*
X175345238Y-136634380D01*
X175488095Y-136682000D01*
X175821428Y-136634380D02*
X176059523Y-137634380D01*
X176250000Y-136920095D01*
X176440476Y-137634380D01*
X176678571Y-136634380D01*
X176964285Y-136634380D02*
X177583333Y-136634380D01*
X177250000Y-137015333D01*
X177392857Y-137015333D01*
X177488095Y-137062952D01*
X177535714Y-137110571D01*
X177583333Y-137205809D01*
X177583333Y-137443904D01*
X177535714Y-137539142D01*
X177488095Y-137586761D01*
X177392857Y-137634380D01*
X177107142Y-137634380D01*
X177011904Y-137586761D01*
X176964285Y-137539142D01*
G04 #@! TO.C,C3*
X109815333Y-96369142D02*
X109767714Y-96416761D01*
X109624857Y-96464380D01*
X109529619Y-96464380D01*
X109386761Y-96416761D01*
X109291523Y-96321523D01*
X109243904Y-96226285D01*
X109196285Y-96035809D01*
X109196285Y-95892952D01*
X109243904Y-95702476D01*
X109291523Y-95607238D01*
X109386761Y-95512000D01*
X109529619Y-95464380D01*
X109624857Y-95464380D01*
X109767714Y-95512000D01*
X109815333Y-95559619D01*
X110148666Y-95464380D02*
X110767714Y-95464380D01*
X110434380Y-95845333D01*
X110577238Y-95845333D01*
X110672476Y-95892952D01*
X110720095Y-95940571D01*
X110767714Y-96035809D01*
X110767714Y-96273904D01*
X110720095Y-96369142D01*
X110672476Y-96416761D01*
X110577238Y-96464380D01*
X110291523Y-96464380D01*
X110196285Y-96416761D01*
X110148666Y-96369142D01*
G04 #@! TO.C,P3*
X176553904Y-122372380D02*
X176553904Y-121372380D01*
X176934857Y-121372380D01*
X177030095Y-121420000D01*
X177077714Y-121467619D01*
X177125333Y-121562857D01*
X177125333Y-121705714D01*
X177077714Y-121800952D01*
X177030095Y-121848571D01*
X176934857Y-121896190D01*
X176553904Y-121896190D01*
X177458666Y-121372380D02*
X178077714Y-121372380D01*
X177744380Y-121753333D01*
X177887238Y-121753333D01*
X177982476Y-121800952D01*
X178030095Y-121848571D01*
X178077714Y-121943809D01*
X178077714Y-122181904D01*
X178030095Y-122277142D01*
X177982476Y-122324761D01*
X177887238Y-122372380D01*
X177601523Y-122372380D01*
X177506285Y-122324761D01*
X177458666Y-122277142D01*
G04 #@! TO.C,D1*
X106195904Y-102052380D02*
X106195904Y-101052380D01*
X106434000Y-101052380D01*
X106576857Y-101100000D01*
X106672095Y-101195238D01*
X106719714Y-101290476D01*
X106767333Y-101480952D01*
X106767333Y-101623809D01*
X106719714Y-101814285D01*
X106672095Y-101909523D01*
X106576857Y-102004761D01*
X106434000Y-102052380D01*
X106195904Y-102052380D01*
X107719714Y-102052380D02*
X107148285Y-102052380D01*
X107434000Y-102052380D02*
X107434000Y-101052380D01*
X107338761Y-101195238D01*
X107243523Y-101290476D01*
X107148285Y-101338095D01*
G04 #@! TO.C,CON1*
X98099714Y-106021142D02*
X98052095Y-106068761D01*
X97909238Y-106116380D01*
X97814000Y-106116380D01*
X97671142Y-106068761D01*
X97575904Y-105973523D01*
X97528285Y-105878285D01*
X97480666Y-105687809D01*
X97480666Y-105544952D01*
X97528285Y-105354476D01*
X97575904Y-105259238D01*
X97671142Y-105164000D01*
X97814000Y-105116380D01*
X97909238Y-105116380D01*
X98052095Y-105164000D01*
X98099714Y-105211619D01*
X98718761Y-105116380D02*
X98909238Y-105116380D01*
X99004476Y-105164000D01*
X99099714Y-105259238D01*
X99147333Y-105449714D01*
X99147333Y-105783047D01*
X99099714Y-105973523D01*
X99004476Y-106068761D01*
X98909238Y-106116380D01*
X98718761Y-106116380D01*
X98623523Y-106068761D01*
X98528285Y-105973523D01*
X98480666Y-105783047D01*
X98480666Y-105449714D01*
X98528285Y-105259238D01*
X98623523Y-105164000D01*
X98718761Y-105116380D01*
X99575904Y-106116380D02*
X99575904Y-105116380D01*
X100147333Y-106116380D01*
X100147333Y-105116380D01*
X101147333Y-106116380D02*
X100575904Y-106116380D01*
X100861619Y-106116380D02*
X100861619Y-105116380D01*
X100766380Y-105259238D01*
X100671142Y-105354476D01*
X100575904Y-105402095D01*
G04 #@! TO.C,J1*
X93646666Y-94702380D02*
X93646666Y-95416666D01*
X93599047Y-95559523D01*
X93503809Y-95654761D01*
X93360952Y-95702380D01*
X93265714Y-95702380D01*
X94646666Y-95702380D02*
X94075238Y-95702380D01*
X94360952Y-95702380D02*
X94360952Y-94702380D01*
X94265714Y-94845238D01*
X94170476Y-94940476D01*
X94075238Y-94988095D01*
G04 #@! TO.C,C1*
X112750333Y-104591142D02*
X112702714Y-104638761D01*
X112559857Y-104686380D01*
X112464619Y-104686380D01*
X112321761Y-104638761D01*
X112226523Y-104543523D01*
X112178904Y-104448285D01*
X112131285Y-104257809D01*
X112131285Y-104114952D01*
X112178904Y-103924476D01*
X112226523Y-103829238D01*
X112321761Y-103734000D01*
X112464619Y-103686380D01*
X112559857Y-103686380D01*
X112702714Y-103734000D01*
X112750333Y-103781619D01*
X113702714Y-104686380D02*
X113131285Y-104686380D01*
X113417000Y-104686380D02*
X113417000Y-103686380D01*
X113321761Y-103829238D01*
X113226523Y-103924476D01*
X113131285Y-103972095D01*
G04 #@! TO.C,Q1*
X98232170Y-131630619D02*
X98136932Y-131583000D01*
X98041694Y-131487761D01*
X97898837Y-131344904D01*
X97803599Y-131297285D01*
X97708361Y-131297285D01*
X97755980Y-131535380D02*
X97660742Y-131487761D01*
X97565504Y-131392523D01*
X97517885Y-131202047D01*
X97517885Y-130868714D01*
X97565504Y-130678238D01*
X97660742Y-130583000D01*
X97755980Y-130535380D01*
X97946456Y-130535380D01*
X98041694Y-130583000D01*
X98136932Y-130678238D01*
X98184551Y-130868714D01*
X98184551Y-131202047D01*
X98136932Y-131392523D01*
X98041694Y-131487761D01*
X97946456Y-131535380D01*
X97755980Y-131535380D01*
X99136932Y-131535380D02*
X98565504Y-131535380D01*
X98851218Y-131535380D02*
X98851218Y-130535380D01*
X98755980Y-130678238D01*
X98660742Y-130773476D01*
X98565504Y-130821095D01*
X95161981Y-129535380D02*
X95161981Y-128535380D01*
X96209600Y-129535380D02*
X95876266Y-129059190D01*
X95638171Y-129535380D02*
X95638171Y-128535380D01*
X96019124Y-128535380D01*
X96114362Y-128583000D01*
X96161981Y-128630619D01*
X96209600Y-128725857D01*
X96209600Y-128868714D01*
X96161981Y-128963952D01*
X96114362Y-129011571D01*
X96019124Y-129059190D01*
X95638171Y-129059190D01*
X97114362Y-129535380D02*
X96638171Y-129535380D01*
X96638171Y-128535380D01*
X97352457Y-128535380D02*
X98019124Y-128535380D01*
X97352457Y-129535380D01*
X98019124Y-129535380D01*
X98304838Y-128535380D02*
X98923885Y-128535380D01*
X98590552Y-128916333D01*
X98733409Y-128916333D01*
X98828647Y-128963952D01*
X98876266Y-129011571D01*
X98923885Y-129106809D01*
X98923885Y-129344904D01*
X98876266Y-129440142D01*
X98828647Y-129487761D01*
X98733409Y-129535380D01*
X98447695Y-129535380D01*
X98352457Y-129487761D01*
X98304838Y-129440142D01*
X99781028Y-128868714D02*
X99781028Y-129535380D01*
X99542933Y-128487761D02*
X99304838Y-129202047D01*
X99923885Y-129202047D01*
X100304838Y-129535380D02*
X100304838Y-128535380D01*
X100876266Y-129535380D01*
X100876266Y-128535380D01*
G04 #@! TO.C,R1*
X100798333Y-117800380D02*
X100465000Y-117324190D01*
X100226904Y-117800380D02*
X100226904Y-116800380D01*
X100607857Y-116800380D01*
X100703095Y-116848000D01*
X100750714Y-116895619D01*
X100798333Y-116990857D01*
X100798333Y-117133714D01*
X100750714Y-117228952D01*
X100703095Y-117276571D01*
X100607857Y-117324190D01*
X100226904Y-117324190D01*
X101750714Y-117800380D02*
X101179285Y-117800380D01*
X101465000Y-117800380D02*
X101465000Y-116800380D01*
X101369761Y-116943238D01*
X101274523Y-117038476D01*
X101179285Y-117086095D01*
G04 #@! TO.C,Q2*
X110728983Y-131757619D02*
X110633745Y-131710000D01*
X110538507Y-131614761D01*
X110395650Y-131471904D01*
X110300412Y-131424285D01*
X110205174Y-131424285D01*
X110252793Y-131662380D02*
X110157555Y-131614761D01*
X110062317Y-131519523D01*
X110014698Y-131329047D01*
X110014698Y-130995714D01*
X110062317Y-130805238D01*
X110157555Y-130710000D01*
X110252793Y-130662380D01*
X110443269Y-130662380D01*
X110538507Y-130710000D01*
X110633745Y-130805238D01*
X110681364Y-130995714D01*
X110681364Y-131329047D01*
X110633745Y-131519523D01*
X110538507Y-131614761D01*
X110443269Y-131662380D01*
X110252793Y-131662380D01*
X111062317Y-130757619D02*
X111109936Y-130710000D01*
X111205174Y-130662380D01*
X111443269Y-130662380D01*
X111538507Y-130710000D01*
X111586126Y-130757619D01*
X111633745Y-130852857D01*
X111633745Y-130948095D01*
X111586126Y-131090952D01*
X111014698Y-131662380D01*
X111633745Y-131662380D01*
X107967079Y-129662380D02*
X107967079Y-128662380D01*
X109014698Y-129662380D02*
X108681364Y-129186190D01*
X108443269Y-129662380D02*
X108443269Y-128662380D01*
X108824222Y-128662380D01*
X108919460Y-128710000D01*
X108967079Y-128757619D01*
X109014698Y-128852857D01*
X109014698Y-128995714D01*
X108967079Y-129090952D01*
X108919460Y-129138571D01*
X108824222Y-129186190D01*
X108443269Y-129186190D01*
X109919460Y-129662380D02*
X109443269Y-129662380D01*
X109443269Y-128662380D01*
X110157555Y-128662380D02*
X110824222Y-128662380D01*
X110157555Y-129662380D01*
X110824222Y-129662380D01*
X111109936Y-128662380D02*
X111728983Y-128662380D01*
X111395650Y-129043333D01*
X111538507Y-129043333D01*
X111633745Y-129090952D01*
X111681364Y-129138571D01*
X111728983Y-129233809D01*
X111728983Y-129471904D01*
X111681364Y-129567142D01*
X111633745Y-129614761D01*
X111538507Y-129662380D01*
X111252793Y-129662380D01*
X111157555Y-129614761D01*
X111109936Y-129567142D01*
X112586126Y-128995714D02*
X112586126Y-129662380D01*
X112348031Y-128614761D02*
X112109936Y-129329047D01*
X112728983Y-129329047D01*
X113109936Y-129662380D02*
X113109936Y-128662380D01*
X113681364Y-129662380D01*
X113681364Y-128662380D01*
G04 #@! TO.C,R2*
X113879333Y-117800380D02*
X113546000Y-117324190D01*
X113307904Y-117800380D02*
X113307904Y-116800380D01*
X113688857Y-116800380D01*
X113784095Y-116848000D01*
X113831714Y-116895619D01*
X113879333Y-116990857D01*
X113879333Y-117133714D01*
X113831714Y-117228952D01*
X113784095Y-117276571D01*
X113688857Y-117324190D01*
X113307904Y-117324190D01*
X114260285Y-116895619D02*
X114307904Y-116848000D01*
X114403142Y-116800380D01*
X114641238Y-116800380D01*
X114736476Y-116848000D01*
X114784095Y-116895619D01*
X114831714Y-116990857D01*
X114831714Y-117086095D01*
X114784095Y-117228952D01*
X114212666Y-117800380D01*
X114831714Y-117800380D01*
G04 #@! TO.C,Q3*
X123225796Y-131757619D02*
X123130558Y-131710000D01*
X123035320Y-131614761D01*
X122892463Y-131471904D01*
X122797225Y-131424285D01*
X122701987Y-131424285D01*
X122749606Y-131662380D02*
X122654368Y-131614761D01*
X122559130Y-131519523D01*
X122511511Y-131329047D01*
X122511511Y-130995714D01*
X122559130Y-130805238D01*
X122654368Y-130710000D01*
X122749606Y-130662380D01*
X122940082Y-130662380D01*
X123035320Y-130710000D01*
X123130558Y-130805238D01*
X123178177Y-130995714D01*
X123178177Y-131329047D01*
X123130558Y-131519523D01*
X123035320Y-131614761D01*
X122940082Y-131662380D01*
X122749606Y-131662380D01*
X123511511Y-130662380D02*
X124130558Y-130662380D01*
X123797225Y-131043333D01*
X123940082Y-131043333D01*
X124035320Y-131090952D01*
X124082939Y-131138571D01*
X124130558Y-131233809D01*
X124130558Y-131471904D01*
X124082939Y-131567142D01*
X124035320Y-131614761D01*
X123940082Y-131662380D01*
X123654368Y-131662380D01*
X123559130Y-131614761D01*
X123511511Y-131567142D01*
X120463892Y-129662380D02*
X120463892Y-128662380D01*
X121511511Y-129662380D02*
X121178177Y-129186190D01*
X120940082Y-129662380D02*
X120940082Y-128662380D01*
X121321035Y-128662380D01*
X121416273Y-128710000D01*
X121463892Y-128757619D01*
X121511511Y-128852857D01*
X121511511Y-128995714D01*
X121463892Y-129090952D01*
X121416273Y-129138571D01*
X121321035Y-129186190D01*
X120940082Y-129186190D01*
X122416273Y-129662380D02*
X121940082Y-129662380D01*
X121940082Y-128662380D01*
X122654368Y-128662380D02*
X123321035Y-128662380D01*
X122654368Y-129662380D01*
X123321035Y-129662380D01*
X123606749Y-128662380D02*
X124225796Y-128662380D01*
X123892463Y-129043333D01*
X124035320Y-129043333D01*
X124130558Y-129090952D01*
X124178177Y-129138571D01*
X124225796Y-129233809D01*
X124225796Y-129471904D01*
X124178177Y-129567142D01*
X124130558Y-129614761D01*
X124035320Y-129662380D01*
X123749606Y-129662380D01*
X123654368Y-129614761D01*
X123606749Y-129567142D01*
X125082939Y-128995714D02*
X125082939Y-129662380D01*
X124844844Y-128614761D02*
X124606749Y-129329047D01*
X125225796Y-129329047D01*
X125606749Y-129662380D02*
X125606749Y-128662380D01*
X126178177Y-129662380D01*
X126178177Y-128662380D01*
G04 #@! TO.C,U4*
X135763095Y-107402380D02*
X135763095Y-108211904D01*
X135810714Y-108307142D01*
X135858333Y-108354761D01*
X135953571Y-108402380D01*
X136144047Y-108402380D01*
X136239285Y-108354761D01*
X136286904Y-108307142D01*
X136334523Y-108211904D01*
X136334523Y-107402380D01*
X137239285Y-107735714D02*
X137239285Y-108402380D01*
X137001190Y-107354761D02*
X136763095Y-108069047D01*
X137382142Y-108069047D01*
X139517380Y-114267857D02*
X138517380Y-114267857D01*
X138517380Y-114029761D01*
X138565000Y-113886904D01*
X138660238Y-113791666D01*
X138755476Y-113744047D01*
X138945952Y-113696428D01*
X139088809Y-113696428D01*
X139279285Y-113744047D01*
X139374523Y-113791666D01*
X139469761Y-113886904D01*
X139517380Y-114029761D01*
X139517380Y-114267857D01*
X139469761Y-113315476D02*
X139517380Y-113172619D01*
X139517380Y-112934523D01*
X139469761Y-112839285D01*
X139422142Y-112791666D01*
X139326904Y-112744047D01*
X139231666Y-112744047D01*
X139136428Y-112791666D01*
X139088809Y-112839285D01*
X139041190Y-112934523D01*
X138993571Y-113125000D01*
X138945952Y-113220238D01*
X138898333Y-113267857D01*
X138803095Y-113315476D01*
X138707857Y-113315476D01*
X138612619Y-113267857D01*
X138565000Y-113220238D01*
X138517380Y-113125000D01*
X138517380Y-112886904D01*
X138565000Y-112744047D01*
X139517380Y-111791666D02*
X139517380Y-112363095D01*
X139517380Y-112077380D02*
X138517380Y-112077380D01*
X138660238Y-112172619D01*
X138755476Y-112267857D01*
X138803095Y-112363095D01*
X138945952Y-111220238D02*
X138898333Y-111315476D01*
X138850714Y-111363095D01*
X138755476Y-111410714D01*
X138707857Y-111410714D01*
X138612619Y-111363095D01*
X138565000Y-111315476D01*
X138517380Y-111220238D01*
X138517380Y-111029761D01*
X138565000Y-110934523D01*
X138612619Y-110886904D01*
X138707857Y-110839285D01*
X138755476Y-110839285D01*
X138850714Y-110886904D01*
X138898333Y-110934523D01*
X138945952Y-111029761D01*
X138945952Y-111220238D01*
X138993571Y-111315476D01*
X139041190Y-111363095D01*
X139136428Y-111410714D01*
X139326904Y-111410714D01*
X139422142Y-111363095D01*
X139469761Y-111315476D01*
X139517380Y-111220238D01*
X139517380Y-111029761D01*
X139469761Y-110934523D01*
X139422142Y-110886904D01*
X139326904Y-110839285D01*
X139136428Y-110839285D01*
X139041190Y-110886904D01*
X138993571Y-110934523D01*
X138945952Y-111029761D01*
X138993571Y-110077380D02*
X139041190Y-109934523D01*
X139088809Y-109886904D01*
X139184047Y-109839285D01*
X139326904Y-109839285D01*
X139422142Y-109886904D01*
X139469761Y-109934523D01*
X139517380Y-110029761D01*
X139517380Y-110410714D01*
X138517380Y-110410714D01*
X138517380Y-110077380D01*
X138565000Y-109982142D01*
X138612619Y-109934523D01*
X138707857Y-109886904D01*
X138803095Y-109886904D01*
X138898333Y-109934523D01*
X138945952Y-109982142D01*
X138993571Y-110077380D01*
X138993571Y-110410714D01*
X138612619Y-109458333D02*
X138565000Y-109410714D01*
X138517380Y-109315476D01*
X138517380Y-109077380D01*
X138565000Y-108982142D01*
X138612619Y-108934523D01*
X138707857Y-108886904D01*
X138803095Y-108886904D01*
X138945952Y-108934523D01*
X139517380Y-109505952D01*
X139517380Y-108886904D01*
X138517380Y-108267857D02*
X138517380Y-108172619D01*
X138565000Y-108077380D01*
X138612619Y-108029761D01*
X138707857Y-107982142D01*
X138898333Y-107934523D01*
X139136428Y-107934523D01*
X139326904Y-107982142D01*
X139422142Y-108029761D01*
X139469761Y-108077380D01*
X139517380Y-108172619D01*
X139517380Y-108267857D01*
X139469761Y-108363095D01*
X139422142Y-108410714D01*
X139326904Y-108458333D01*
X139136428Y-108505952D01*
X138898333Y-108505952D01*
X138707857Y-108458333D01*
X138612619Y-108410714D01*
X138565000Y-108363095D01*
X138517380Y-108267857D01*
G04 #@! TO.C,Y1*
X116363809Y-105386190D02*
X116363809Y-105862380D01*
X116030476Y-104862380D02*
X116363809Y-105386190D01*
X116697142Y-104862380D01*
X117554285Y-105862380D02*
X116982857Y-105862380D01*
X117268571Y-105862380D02*
X117268571Y-104862380D01*
X117173333Y-105005238D01*
X117078095Y-105100476D01*
X116982857Y-105148095D01*
G04 #@! TO.C,J2*
X189666666Y-141992380D02*
X189666666Y-142706666D01*
X189619047Y-142849523D01*
X189523809Y-142944761D01*
X189380952Y-142992380D01*
X189285714Y-142992380D01*
X190095238Y-142087619D02*
X190142857Y-142040000D01*
X190238095Y-141992380D01*
X190476190Y-141992380D01*
X190571428Y-142040000D01*
X190619047Y-142087619D01*
X190666666Y-142182857D01*
X190666666Y-142278095D01*
X190619047Y-142420952D01*
X190047619Y-142992380D01*
X190666666Y-142992380D01*
G04 #@! TO.C,J3*
X184666666Y-136992380D02*
X184666666Y-137706666D01*
X184619047Y-137849523D01*
X184523809Y-137944761D01*
X184380952Y-137992380D01*
X184285714Y-137992380D01*
X185047619Y-136992380D02*
X185666666Y-136992380D01*
X185333333Y-137373333D01*
X185476190Y-137373333D01*
X185571428Y-137420952D01*
X185619047Y-137468571D01*
X185666666Y-137563809D01*
X185666666Y-137801904D01*
X185619047Y-137897142D01*
X185571428Y-137944761D01*
X185476190Y-137992380D01*
X185190476Y-137992380D01*
X185095238Y-137944761D01*
X185047619Y-137897142D01*
G04 #@! TO.C,J4*
X142122380Y-112543333D02*
X142836666Y-112543333D01*
X142979523Y-112590952D01*
X143074761Y-112686190D01*
X143122380Y-112829047D01*
X143122380Y-112924285D01*
X142455714Y-111638571D02*
X143122380Y-111638571D01*
X142074761Y-111876666D02*
X142789047Y-112114761D01*
X142789047Y-111495714D01*
X146248571Y-107132380D02*
X146248571Y-106132380D01*
X146581904Y-106846666D01*
X146915238Y-106132380D01*
X146915238Y-107132380D01*
X147391428Y-107132380D02*
X147391428Y-106132380D01*
X148439047Y-107037142D02*
X148391428Y-107084761D01*
X148248571Y-107132380D01*
X148153333Y-107132380D01*
X148010476Y-107084761D01*
X147915238Y-106989523D01*
X147867619Y-106894285D01*
X147820000Y-106703809D01*
X147820000Y-106560952D01*
X147867619Y-106370476D01*
X147915238Y-106275238D01*
X148010476Y-106180000D01*
X148153333Y-106132380D01*
X148248571Y-106132380D01*
X148391428Y-106180000D01*
X148439047Y-106227619D01*
G04 #@! TO.C,JP4*
X131754666Y-116800380D02*
X131754666Y-117514666D01*
X131707047Y-117657523D01*
X131611809Y-117752761D01*
X131468952Y-117800380D01*
X131373714Y-117800380D01*
X132230857Y-117800380D02*
X132230857Y-116800380D01*
X132611809Y-116800380D01*
X132707047Y-116848000D01*
X132754666Y-116895619D01*
X132802285Y-116990857D01*
X132802285Y-117133714D01*
X132754666Y-117228952D01*
X132707047Y-117276571D01*
X132611809Y-117324190D01*
X132230857Y-117324190D01*
X133659428Y-117133714D02*
X133659428Y-117800380D01*
X133421333Y-116752761D02*
X133183238Y-117467047D01*
X133802285Y-117467047D01*
G04 #@! TO.C,C9*
X156678333Y-121642142D02*
X156630714Y-121689761D01*
X156487857Y-121737380D01*
X156392619Y-121737380D01*
X156249761Y-121689761D01*
X156154523Y-121594523D01*
X156106904Y-121499285D01*
X156059285Y-121308809D01*
X156059285Y-121165952D01*
X156106904Y-120975476D01*
X156154523Y-120880238D01*
X156249761Y-120785000D01*
X156392619Y-120737380D01*
X156487857Y-120737380D01*
X156630714Y-120785000D01*
X156678333Y-120832619D01*
X157154523Y-121737380D02*
X157345000Y-121737380D01*
X157440238Y-121689761D01*
X157487857Y-121642142D01*
X157583095Y-121499285D01*
X157630714Y-121308809D01*
X157630714Y-120927857D01*
X157583095Y-120832619D01*
X157535476Y-120785000D01*
X157440238Y-120737380D01*
X157249761Y-120737380D01*
X157154523Y-120785000D01*
X157106904Y-120832619D01*
X157059285Y-120927857D01*
X157059285Y-121165952D01*
X157106904Y-121261190D01*
X157154523Y-121308809D01*
X157249761Y-121356428D01*
X157440238Y-121356428D01*
X157535476Y-121308809D01*
X157583095Y-121261190D01*
X157630714Y-121165952D01*
G04 #@! TO.C,JP6*
X170902380Y-125293333D02*
X171616666Y-125293333D01*
X171759523Y-125340952D01*
X171854761Y-125436190D01*
X171902380Y-125579047D01*
X171902380Y-125674285D01*
X171902380Y-124817142D02*
X170902380Y-124817142D01*
X170902380Y-124436190D01*
X170950000Y-124340952D01*
X170997619Y-124293333D01*
X171092857Y-124245714D01*
X171235714Y-124245714D01*
X171330952Y-124293333D01*
X171378571Y-124340952D01*
X171426190Y-124436190D01*
X171426190Y-124817142D01*
X170902380Y-123388571D02*
X170902380Y-123579047D01*
X170950000Y-123674285D01*
X170997619Y-123721904D01*
X171140476Y-123817142D01*
X171330952Y-123864761D01*
X171711904Y-123864761D01*
X171807142Y-123817142D01*
X171854761Y-123769523D01*
X171902380Y-123674285D01*
X171902380Y-123483809D01*
X171854761Y-123388571D01*
X171807142Y-123340952D01*
X171711904Y-123293333D01*
X171473809Y-123293333D01*
X171378571Y-123340952D01*
X171330952Y-123388571D01*
X171283333Y-123483809D01*
X171283333Y-123674285D01*
X171330952Y-123769523D01*
X171378571Y-123817142D01*
X171473809Y-123864761D01*
G04 #@! TO.C,U5*
X172807380Y-131571904D02*
X173616904Y-131571904D01*
X173712142Y-131524285D01*
X173759761Y-131476666D01*
X173807380Y-131381428D01*
X173807380Y-131190952D01*
X173759761Y-131095714D01*
X173712142Y-131048095D01*
X173616904Y-131000476D01*
X172807380Y-131000476D01*
X172807380Y-130048095D02*
X172807380Y-130524285D01*
X173283571Y-130571904D01*
X173235952Y-130524285D01*
X173188333Y-130429047D01*
X173188333Y-130190952D01*
X173235952Y-130095714D01*
X173283571Y-130048095D01*
X173378809Y-130000476D01*
X173616904Y-130000476D01*
X173712142Y-130048095D01*
X173759761Y-130095714D01*
X173807380Y-130190952D01*
X173807380Y-130429047D01*
X173759761Y-130524285D01*
X173712142Y-130571904D01*
G04 #@! TO.C,U3*
X120102380Y-111759904D02*
X120911904Y-111759904D01*
X121007142Y-111712285D01*
X121054761Y-111664666D01*
X121102380Y-111569428D01*
X121102380Y-111378952D01*
X121054761Y-111283714D01*
X121007142Y-111236095D01*
X120911904Y-111188476D01*
X120102380Y-111188476D01*
X120102380Y-110807523D02*
X120102380Y-110188476D01*
X120483333Y-110521809D01*
X120483333Y-110378952D01*
X120530952Y-110283714D01*
X120578571Y-110236095D01*
X120673809Y-110188476D01*
X120911904Y-110188476D01*
X121007142Y-110236095D01*
X121054761Y-110283714D01*
X121102380Y-110378952D01*
X121102380Y-110664666D01*
X121054761Y-110759904D01*
X121007142Y-110807523D01*
G04 #@! TD*
M02*
