G04 #@! TF.GenerationSoftware,KiCad,Pcbnew,5.0.2-bee76a0~70~ubuntu18.04.1*
G04 #@! TF.CreationDate,2019-01-16T23:40:41+01:00*
G04 #@! TF.ProjectId,ESPLED,4553504c-4544-42e6-9b69-6361645f7063,rev?*
G04 #@! TF.SameCoordinates,Original*
G04 #@! TF.FileFunction,Legend,Bot*
G04 #@! TF.FilePolarity,Positive*
%FSLAX46Y46*%
G04 Gerber Fmt 4.6, Leading zero omitted, Abs format (unit mm)*
G04 Created by KiCad (PCBNEW 5.0.2-bee76a0~70~ubuntu18.04.1) date Mi 16 Jan 2019 23:40:41 CET*
%MOMM*%
%LPD*%
G01*
G04 APERTURE LIST*
%ADD10C,0.300000*%
G04 APERTURE END LIST*
D10*
X124901142Y-48833714D02*
X124829714Y-48905142D01*
X124615428Y-48976571D01*
X124472571Y-48976571D01*
X124258285Y-48905142D01*
X124115428Y-48762285D01*
X124044000Y-48619428D01*
X123972571Y-48333714D01*
X123972571Y-48119428D01*
X124044000Y-47833714D01*
X124115428Y-47690857D01*
X124258285Y-47548000D01*
X124472571Y-47476571D01*
X124615428Y-47476571D01*
X124829714Y-47548000D01*
X124901142Y-47619428D01*
X124258285Y-47119428D02*
X124544000Y-46905142D01*
X124829714Y-47119428D01*
X126544000Y-47476571D02*
X126901142Y-48976571D01*
X127186857Y-47905142D01*
X127472571Y-48976571D01*
X127829714Y-47476571D01*
X129186857Y-47548000D02*
X129044000Y-47476571D01*
X128829714Y-47476571D01*
X128615428Y-47548000D01*
X128472571Y-47690857D01*
X128401142Y-47833714D01*
X128329714Y-48119428D01*
X128329714Y-48333714D01*
X128401142Y-48619428D01*
X128472571Y-48762285D01*
X128615428Y-48905142D01*
X128829714Y-48976571D01*
X128972571Y-48976571D01*
X129186857Y-48905142D01*
X129258285Y-48833714D01*
X129258285Y-48333714D01*
X128972571Y-48333714D01*
X131829714Y-47548000D02*
X131686857Y-47476571D01*
X131472571Y-47476571D01*
X131258285Y-47548000D01*
X131115428Y-47690857D01*
X131044000Y-47833714D01*
X130972571Y-48119428D01*
X130972571Y-48333714D01*
X131044000Y-48619428D01*
X131115428Y-48762285D01*
X131258285Y-48905142D01*
X131472571Y-48976571D01*
X131615428Y-48976571D01*
X131829714Y-48905142D01*
X131901142Y-48833714D01*
X131901142Y-48333714D01*
X131615428Y-48333714D01*
X133186857Y-47976571D02*
X133186857Y-48976571D01*
X132544000Y-47976571D02*
X132544000Y-48762285D01*
X132615428Y-48905142D01*
X132758285Y-48976571D01*
X132972571Y-48976571D01*
X133115428Y-48905142D01*
X133186857Y-48833714D01*
X133758285Y-47976571D02*
X134115428Y-48976571D01*
X134472571Y-47976571D02*
X134115428Y-48976571D01*
X133972571Y-49333714D01*
X133901142Y-49405142D01*
X133758285Y-49476571D01*
X134972571Y-48905142D02*
X135115428Y-48976571D01*
X135401142Y-48976571D01*
X135544000Y-48905142D01*
X135615428Y-48762285D01*
X135615428Y-48690857D01*
X135544000Y-48548000D01*
X135401142Y-48476571D01*
X135186857Y-48476571D01*
X135044000Y-48405142D01*
X134972571Y-48262285D01*
X134972571Y-48190857D01*
X135044000Y-48048000D01*
X135186857Y-47976571D01*
X135401142Y-47976571D01*
X135544000Y-48048000D01*
X124901142Y-98833714D02*
X124829714Y-98905142D01*
X124615428Y-98976571D01*
X124472571Y-98976571D01*
X124258285Y-98905142D01*
X124115428Y-98762285D01*
X124044000Y-98619428D01*
X123972571Y-98333714D01*
X123972571Y-98119428D01*
X124044000Y-97833714D01*
X124115428Y-97690857D01*
X124258285Y-97548000D01*
X124472571Y-97476571D01*
X124615428Y-97476571D01*
X124829714Y-97548000D01*
X124901142Y-97619428D01*
X124258285Y-97119428D02*
X124544000Y-96905142D01*
X124829714Y-97119428D01*
X126544000Y-97476571D02*
X126901142Y-98976571D01*
X127186857Y-97905142D01*
X127472571Y-98976571D01*
X127829714Y-97476571D01*
X129186857Y-97548000D02*
X129044000Y-97476571D01*
X128829714Y-97476571D01*
X128615428Y-97548000D01*
X128472571Y-97690857D01*
X128401142Y-97833714D01*
X128329714Y-98119428D01*
X128329714Y-98333714D01*
X128401142Y-98619428D01*
X128472571Y-98762285D01*
X128615428Y-98905142D01*
X128829714Y-98976571D01*
X128972571Y-98976571D01*
X129186857Y-98905142D01*
X129258285Y-98833714D01*
X129258285Y-98333714D01*
X128972571Y-98333714D01*
X131829714Y-97548000D02*
X131686857Y-97476571D01*
X131472571Y-97476571D01*
X131258285Y-97548000D01*
X131115428Y-97690857D01*
X131044000Y-97833714D01*
X130972571Y-98119428D01*
X130972571Y-98333714D01*
X131044000Y-98619428D01*
X131115428Y-98762285D01*
X131258285Y-98905142D01*
X131472571Y-98976571D01*
X131615428Y-98976571D01*
X131829714Y-98905142D01*
X131901142Y-98833714D01*
X131901142Y-98333714D01*
X131615428Y-98333714D01*
X133186857Y-97976571D02*
X133186857Y-98976571D01*
X132544000Y-97976571D02*
X132544000Y-98762285D01*
X132615428Y-98905142D01*
X132758285Y-98976571D01*
X132972571Y-98976571D01*
X133115428Y-98905142D01*
X133186857Y-98833714D01*
X133758285Y-97976571D02*
X134115428Y-98976571D01*
X134472571Y-97976571D02*
X134115428Y-98976571D01*
X133972571Y-99333714D01*
X133901142Y-99405142D01*
X133758285Y-99476571D01*
X134972571Y-98905142D02*
X135115428Y-98976571D01*
X135401142Y-98976571D01*
X135544000Y-98905142D01*
X135615428Y-98762285D01*
X135615428Y-98690857D01*
X135544000Y-98548000D01*
X135401142Y-98476571D01*
X135186857Y-98476571D01*
X135044000Y-98405142D01*
X134972571Y-98262285D01*
X134972571Y-98190857D01*
X135044000Y-98048000D01*
X135186857Y-97976571D01*
X135401142Y-97976571D01*
X135544000Y-98048000D01*
M02*
