<?xml version="1.0" standalone="no"?>
 <!DOCTYPE svg PUBLIC "-//W3C//DTD SVG 1.1//EN" 
 "http://www.w3.org/Graphics/SVG/1.1/DTD/svg11.dtd"> 
<svg xmlns="http://www.w3.org/2000/svg" version="1.1" 
    width="12.3825cm" height="7.9375cm" viewBox="0 0 48750 31250 ">
<title>SVG Picture created as ESPLED-B.Mask.svg date 2019/01/08 01:43:35 </title>
  <desc>Picture generated by PCBNEW </desc>
<g style="fill:#000000; fill-opacity:1;stroke:#000000; stroke-opacity:1;
stroke-linecap:round; stroke-linejoin:round; "
 transform="translate(0 0) scale(1 1)">
</g>
<g style="fill:#000000; fill-opacity:0.0; 
stroke:#000000; stroke-width:-0.000393701; stroke-opacity:1; 
stroke-linecap:round; stroke-linejoin:round;">
</g>
<g style="fill:#000000; fill-opacity:1.0; 
stroke:#000000; stroke-width:0; stroke-opacity:1; 
stroke-linecap:round; stroke-linejoin:round;">
<polyline style="fill-rule:evenodd;"
points="2671,22763
2671,22763
2671,22763
2815,22807
2949,22878
3066,22974
3162,23091
3233,23224
3248,23274
3277,23369
3292,23519
3277,23670
3277,23670
3277,23670
3233,23814
3162,23948
3066,24065
2949,24161
2815,24232
2671,24276
2671,24276
2671,24276
2558,24287
2482,24287
2370,24276
2370,24276
2370,24276
2225,24232
2092,24161
1975,24065
1879,23948
1807,23814
1764,23670
1764,23670
1764,23670
1749,23519
1764,23369
1792,23274
1807,23224
1879,23091
1975,22974
2092,22878
2225,22807
2370,22763
2370,22763
2370,22763
2482,22752
2558,22752
2671,22763
" /> 
<polyline style="fill-rule:evenodd;"
points="22358,22763
22358,22763
22358,22763
22503,22807
22636,22878
22753,22974
22849,23091
22920,23224
22936,23274
22964,23369
22979,23519
22964,23670
22964,23670
22964,23670
22920,23814
22849,23948
22753,24065
22636,24161
22503,24232
22358,24276
22358,24276
22358,24276
22245,24287
22170,24287
22057,24276
22057,24276
22057,24276
21912,24232
21779,24161
21662,24065
21566,23948
21495,23814
21451,23670
21451,23670
21451,23670
21436,23519
21451,23369
21480,23274
21495,23224
21566,23091
21662,22974
21779,22878
21912,22807
22057,22763
22057,22763
22057,22763
22170,22752
22245,22752
22358,22763
" /> 
<polyline style="fill-rule:evenodd;"
points="7591,22763
7591,22763
7591,22763
7735,22807
7869,22878
7986,22974
8082,23091
8153,23224
8168,23274
8197,23369
8212,23519
8197,23670
8197,23670
8197,23670
8153,23814
8082,23948
7986,24065
7869,24161
7735,24232
7591,24276
7591,24276
7591,24276
7478,24287
7402,24287
7290,24276
7290,24276
7290,24276
7145,24232
7012,24161
6895,24065
6799,23948
6727,23814
6684,23670
6684,23670
6684,23670
6669,23519
6684,23369
6712,23274
6727,23224
6799,23091
6895,22974
7012,22878
7145,22807
7290,22763
7290,22763
7290,22763
7402,22752
7478,22752
7591,22763
" /> 
<polyline style="fill-rule:evenodd;"
points="12511,22763
12511,22763
12511,22763
12655,22807
12789,22878
12906,22974
13002,23091
13073,23224
13088,23274
13117,23369
13132,23519
13117,23670
13117,23670
13117,23670
13073,23814
13002,23948
12906,24065
12789,24161
12655,24232
12511,24276
12511,24276
12511,24276
12398,24287
12322,24287
12210,24276
12210,24276
12210,24276
12065,24232
11932,24161
11815,24065
11719,23948
11647,23814
11604,23670
11604,23670
11604,23670
11589,23519
11604,23369
11632,23274
11647,23224
11719,23091
11815,22974
11932,22878
12065,22807
12210,22763
12210,22763
12210,22763
12322,22752
12398,22752
12511,22763
" /> 
<polyline style="fill-rule:evenodd;"
points="17436,22763
17436,22763
17436,22763
17580,22807
17714,22878
17831,22974
17927,23091
17998,23224
18013,23274
18042,23369
18057,23519
18042,23670
18042,23670
18042,23670
17998,23814
17927,23948
17831,24065
17714,24161
17580,24232
17436,24276
17436,24276
17436,24276
17323,24287
17247,24287
17135,24276
17135,24276
17135,24276
16990,24232
16857,24161
16740,24065
16644,23948
16572,23814
16529,23670
16529,23670
16529,23670
16514,23519
16529,23369
16557,23274
16572,23224
16644,23091
16740,22974
16857,22878
16990,22807
17135,22763
17135,22763
17135,22763
17247,22752
17323,22752
17436,22763
" /> 
<polyline style="fill-rule:evenodd;"
points="34222,23121
34308,23156
34385,23208
34451,23274
34503,23351
34538,23437
34557,23529
34557,23622
34538,23713
34503,23799
34451,23876
34385,23942
34308,23994
34222,24029
34131,24048
34038,24048
33946,24029
33860,23994
33783,23942
33717,23876
33665,23799
33630,23713
33612,23622
33612,23529
33630,23437
33665,23351
33717,23274
33783,23208
33860,23156
33946,23121
34038,23103
34131,23103
34222,23121
" /> 
<polyline style="fill-rule:evenodd;"
points="28907,23121
28993,23156
29070,23208
29136,23274
29188,23351
29223,23437
29242,23529
29242,23622
29223,23713
29188,23799
29136,23876
29070,23942
28993,23994
28907,24029
28816,24048
28723,24048
28631,24029
28545,23994
28468,23942
28402,23876
28351,23799
28315,23713
28297,23622
28297,23529
28315,23437
28351,23351
28402,23274
28468,23208
28545,23156
28631,23121
28723,23103
28816,23103
28907,23121
" /> 
<polyline style="fill-rule:evenodd;"
points="27135,23121
27221,23156
27299,23208
27365,23274
27416,23351
27452,23437
27470,23529
27470,23622
27452,23713
27416,23799
27365,23876
27299,23942
27221,23994
27135,24029
27044,24048
26951,24048
26860,24029
26774,23994
26696,23942
26631,23876
26579,23799
26543,23713
26525,23622
26525,23529
26543,23437
26579,23351
26631,23274
26696,23208
26774,23156
26860,23121
26951,23103
27044,23103
27135,23121
" /> 
<polyline style="fill-rule:evenodd;"
points="25364,23121
25450,23156
25527,23208
25593,23274
25645,23351
25680,23437
25698,23529
25698,23622
25680,23713
25645,23799
25593,23876
25527,23942
25450,23994
25364,24029
25272,24048
25179,24048
25088,24029
25002,23994
24925,23942
24859,23876
24807,23799
24772,23713
24753,23622
24753,23529
24772,23437
24807,23351
24859,23274
24925,23208
25002,23156
25088,23121
25179,23103
25272,23103
25364,23121
" /> 
<polyline style="fill-rule:evenodd;"
points="30679,23121
30765,23156
30842,23208
30908,23274
30960,23351
30995,23437
31013,23529
31013,23622
30995,23713
30960,23799
30908,23876
30842,23942
30765,23994
30679,24029
30587,24048
30494,24048
30403,24029
30317,23994
30240,23942
30174,23876
30122,23799
30087,23713
30068,23622
30068,23529
30087,23437
30122,23351
30174,23274
30240,23208
30317,23156
30403,23121
30494,23103
30587,23103
30679,23121
" /> 
<polyline style="fill-rule:evenodd;"
points="32450,23121
32536,23156
32614,23208
32679,23274
32731,23351
32767,23437
32785,23529
32785,23622
32767,23713
32731,23799
32679,23876
32614,23942
32536,23994
32450,24029
32359,24048
32266,24048
32175,24029
32089,23994
32011,23942
31946,23876
31894,23799
31858,23713
31840,23622
31840,23529
31858,23437
31894,23351
31946,23274
32011,23208
32089,23156
32175,23121
32266,23103
32359,23103
32450,23121
" /> 
<polyline style="fill-rule:evenodd;"
points="39025,23901
38198,23901
38198,23074
39025,23074
39025,23901
" /> 
<polyline style="fill-rule:evenodd;"
points="38662,22077
38693,22080
38745,22096
38771,22104
38842,22142
38905,22194
38957,22257
38995,22329
38995,22329
39019,22407
39027,22488
39019,22569
39003,22621
38995,22647
38957,22718
38905,22781
38842,22833
38771,22871
38750,22878
38693,22895
38662,22898
38632,22901
38591,22901
38561,22898
38531,22895
38474,22878
38453,22871
38381,22833
38318,22781
38266,22718
38228,22647
38220,22621
38204,22569
38196,22488
38204,22407
38228,22329
38228,22329
38266,22257
38318,22194
38381,22142
38453,22104
38479,22096
38531,22080
38561,22077
38591,22074
38632,22074
38662,22077
" /> 
<polyline style="fill-rule:evenodd;"
points="37057,21933
36230,21933
36230,21106
37057,21106
37057,21933
" /> 
<polyline style="fill-rule:evenodd;"
points="38662,21077
38693,21080
38745,21096
38771,21104
38842,21142
38905,21194
38957,21257
38995,21329
38995,21329
39019,21407
39027,21488
39019,21569
39003,21621
38995,21647
38957,21718
38905,21781
38842,21833
38771,21871
38745,21879
38693,21895
38662,21898
38632,21901
38591,21901
38561,21898
38531,21895
38479,21879
38453,21871
38381,21833
38318,21781
38266,21718
38228,21647
38220,21621
38204,21569
38196,21488
38204,21407
38228,21329
38228,21329
38266,21257
38318,21194
38381,21142
38453,21104
38479,21096
38531,21080
38561,21077
38591,21074
38632,21074
38662,21077
" /> 
<polyline style="fill-rule:evenodd;"
points="28907,20562
28993,20597
29070,20649
29136,20715
29188,20792
29223,20878
29242,20970
29242,21063
29223,21154
29188,21240
29136,21317
29070,21383
28993,21435
28907,21470
28816,21488
28723,21488
28631,21470
28545,21435
28468,21383
28402,21317
28351,21240
28315,21154
28297,21063
28297,20970
28315,20878
28351,20792
28402,20715
28468,20649
28545,20597
28631,20562
28723,20544
28816,20544
28907,20562
" /> 
<polyline style="fill-rule:evenodd;"
points="32450,20562
32536,20597
32614,20649
32679,20715
32731,20792
32767,20878
32785,20970
32785,21063
32767,21154
32731,21240
32679,21317
32614,21383
32536,21435
32450,21470
32359,21488
32266,21488
32175,21470
32089,21435
32011,21383
31946,21317
31894,21240
31858,21154
31840,21063
31840,20970
31858,20878
31894,20792
31946,20715
32011,20649
32089,20597
32175,20562
32266,20544
32359,20544
32450,20562
" /> 
<polyline style="fill-rule:evenodd;"
points="30679,20562
30765,20597
30842,20649
30908,20715
30960,20792
30995,20878
31013,20970
31013,21063
30995,21154
30960,21240
30908,21317
30842,21383
30765,21435
30679,21470
30587,21488
30494,21488
30403,21470
30317,21435
30240,21383
30174,21317
30122,21240
30087,21154
30068,21063
30068,20970
30087,20878
30122,20792
30174,20715
30240,20649
30317,20597
30403,20562
30494,20544
30587,20544
30679,20562
" /> 
<polyline style="fill-rule:evenodd;"
points="27135,20562
27221,20597
27299,20649
27365,20715
27416,20792
27452,20878
27470,20970
27470,21063
27452,21154
27416,21240
27365,21317
27299,21383
27221,21435
27135,21470
27044,21488
26951,21488
26860,21470
26774,21435
26696,21383
26631,21317
26579,21240
26543,21154
26525,21063
26525,20970
26543,20878
26579,20792
26631,20715
26696,20649
26774,20597
26860,20562
26951,20544
27044,20544
27135,20562
" /> 
<polyline style="fill-rule:evenodd;"
points="25364,20562
25450,20597
25527,20649
25593,20715
25645,20792
25680,20878
25698,20970
25698,21063
25680,21154
25645,21240
25593,21317
25527,21383
25450,21435
25364,21470
25272,21488
25179,21488
25088,21470
25002,21435
24925,21383
24859,21317
24807,21240
24772,21154
24753,21063
24753,20970
24772,20878
24807,20792
24859,20715
24925,20649
25002,20597
25088,20562
25179,20544
25272,20544
25364,20562
" /> 
<polyline style="fill-rule:evenodd;"
points="34222,20562
34308,20597
34385,20649
34451,20715
34503,20792
34538,20878
34557,20970
34557,21063
34538,21154
34503,21240
34451,21317
34385,21383
34308,21435
34222,21470
34131,21488
34038,21488
33946,21470
33860,21435
33783,21383
33717,21317
33665,21240
33630,21154
33612,21063
33612,20970
33630,20878
33665,20792
33717,20715
33783,20649
33860,20597
33946,20562
34038,20544
34131,20544
34222,20562
" /> 
<polyline style="fill-rule:evenodd;"
points="36694,20109
36724,20112
36776,20128
36802,20135
36874,20174
36937,20225
36989,20288
37027,20360
37027,20360
37051,20438
37059,20519
37051,20600
37037,20647
37027,20678
36989,20750
36937,20813
36874,20865
36802,20903
36776,20911
36724,20927
36694,20930
36664,20933
36623,20933
36593,20930
36562,20927
36510,20911
36484,20903
36412,20865
36349,20813
36298,20750
36259,20678
36250,20647
36236,20600
36228,20519
36236,20438
36259,20360
36259,20360
36298,20288
36349,20225
36412,20174
36484,20135
36510,20128
36562,20112
36593,20109
36623,20106
36664,20106
36694,20109
" /> 
<polyline style="fill-rule:evenodd;"
points="38662,20077
38693,20080
38745,20096
38771,20104
38842,20142
38905,20194
38957,20257
38995,20329
38995,20329
39019,20407
39027,20488
39019,20569
39010,20597
38995,20647
38957,20718
38905,20781
38842,20833
38771,20871
38748,20878
38693,20895
38662,20898
38632,20901
38591,20901
38561,20898
38531,20895
38475,20878
38453,20871
38381,20833
38318,20781
38266,20718
38228,20647
38213,20597
38204,20569
38196,20488
38204,20407
38228,20329
38228,20329
38266,20257
38318,20194
38381,20142
38453,20104
38479,20096
38531,20080
38561,20077
38591,20074
38632,20074
38662,20077
" /> 
<polyline style="fill-rule:evenodd;"
points="37904,18838
36188,18838
36188,17901
37904,17901
37904,18838
" /> 
<polyline style="fill-rule:evenodd;"
points="17374,16494
17417,16507
17460,16520
17538,16562
17608,16619
17643,16663
17664,16688
17664,16688
17706,16767
17706,16767
17732,16853
17732,16853
17733,16862
17735,16871
17739,16880
17744,16888
17751,16895
17759,16900
17768,16904
17777,16906
17787,16906
17797,16904
17805,16900
17813,16895
17820,16888
17826,16880
17829,16871
17831,16857
17831,16488
18739,16488
18739,17433
17831,17433
17831,17064
17830,17054
17828,17045
17823,17036
17817,17029
17810,17023
17801,17018
17792,17015
17782,17014
17773,17015
17763,17018
17755,17023
17747,17029
17741,17036
17737,17045
17733,17059
17732,17068
17706,17153
17664,17232
17608,17301
17562,17339
17538,17358
17538,17358
17460,17400
17417,17413
17374,17426
17285,17435
17196,17426
17153,17413
17111,17400
17032,17358
16963,17301
16925,17255
16906,17232
16864,17153
16864,17153
16851,17111
16838,17068
16834,17029
16832,17019
16829,17010
16823,17002
16816,16996
16808,16990
16799,16986
16790,16985
16780,16985
16771,16986
16762,16990
16754,16996
16747,17002
16742,17010
16738,17019
16736,17029
16732,17068
16706,17153
16664,17232
16608,17301
16562,17339
16538,17358
16538,17358
16460,17400
16417,17413
16374,17426
16285,17435
16196,17426
16153,17413
16111,17400
16032,17358
15963,17301
15925,17255
15906,17232
15864,17153
15864,17153
15851,17111
15838,17068
15832,17010
15831,17001
15831,16919
15836,16870
15838,16853
15856,16793
15864,16767
15886,16725
15906,16688
15927,16663
15963,16619
16032,16562
16111,16520
16153,16507
16196,16494
16285,16486
16374,16494
16417,16507
16460,16520
16538,16562
16608,16619
16643,16663
16664,16688
16664,16688
16706,16767
16706,16767
16732,16853
16732,16853
16736,16892
16738,16901
16742,16910
16747,16918
16754,16925
16762,16930
16771,16934
16780,16936
16790,16936
16799,16934
16808,16930
16816,16925
16823,16918
16829,16910
16832,16901
16834,16892
16836,16870
16838,16853
16856,16793
16864,16767
16886,16725
16906,16688
16927,16663
16963,16619
17032,16562
17111,16520
17153,16507
17196,16494
17285,16486
17374,16494
" /> 
<polyline style="fill-rule:evenodd;"
points="2609,16494
2652,16507
2695,16520
2773,16562
2843,16619
2878,16663
2899,16688
2899,16688
2941,16767
2941,16767
2967,16853
2967,16853
2968,16862
2970,16871
2974,16880
2979,16888
2986,16895
2994,16900
3003,16904
3012,16906
3022,16906
3031,16904
3040,16900
3048,16895
3055,16888
3061,16880
3064,16871
3066,16857
3066,16488
3974,16488
3974,17433
3066,17433
3066,17064
3065,17054
3063,17045
3058,17036
3052,17029
3045,17023
3036,17018
3027,17015
3017,17014
3008,17015
2998,17018
2990,17023
2982,17029
2976,17036
2972,17045
2968,17059
2967,17068
2941,17153
2899,17232
2843,17301
2796,17339
2773,17358
2773,17358
2695,17400
2652,17413
2609,17426
2520,17435
2431,17426
2388,17413
2346,17400
2267,17358
2198,17301
2160,17255
2141,17232
2099,17153
2099,17153
2086,17111
2073,17068
2069,17029
2067,17019
2064,17010
2058,17002
2051,16996
2043,16990
2034,16986
2025,16985
2015,16985
2006,16986
1997,16990
1989,16996
1982,17002
1977,17010
1973,17019
1971,17029
1967,17068
1941,17153
1899,17232
1843,17301
1796,17339
1773,17358
1773,17358
1695,17400
1652,17413
1609,17426
1520,17435
1431,17426
1388,17413
1346,17400
1267,17358
1198,17301
1160,17255
1141,17232
1099,17153
1099,17153
1086,17111
1073,17068
1067,17010
1066,17001
1066,16919
1071,16870
1073,16853
1091,16793
1099,16767
1121,16725
1141,16688
1162,16663
1198,16619
1267,16562
1346,16520
1388,16507
1431,16494
1520,16486
1609,16494
1652,16507
1695,16520
1773,16562
1843,16619
1878,16663
1899,16688
1899,16688
1941,16767
1941,16767
1967,16853
1967,16853
1971,16892
1973,16901
1977,16910
1982,16918
1989,16925
1997,16930
2006,16934
2015,16936
2025,16936
2034,16934
2043,16930
2051,16925
2058,16918
2064,16910
2067,16901
2069,16892
2071,16870
2073,16853
2091,16793
2099,16767
2121,16725
2141,16688
2162,16663
2198,16619
2267,16562
2346,16520
2388,16507
2431,16494
2520,16486
2609,16494
" /> 
<polyline style="fill-rule:evenodd;"
points="12449,16494
12492,16507
12535,16520
12613,16562
12683,16619
12718,16663
12739,16688
12739,16688
12781,16767
12781,16767
12807,16853
12807,16853
12808,16862
12810,16871
12814,16880
12819,16888
12826,16895
12834,16900
12843,16904
12852,16906
12862,16906
12871,16904
12880,16900
12888,16895
12895,16888
12901,16880
12904,16871
12906,16857
12906,16488
13814,16488
13814,17433
12906,17433
12906,17064
12905,17054
12903,17045
12898,17036
12892,17029
12885,17023
12876,17018
12867,17015
12857,17014
12848,17015
12838,17018
12830,17023
12822,17029
12816,17036
12812,17045
12808,17059
12807,17068
12781,17153
12739,17232
12683,17301
12636,17339
12613,17358
12613,17358
12535,17400
12492,17413
12449,17426
12360,17435
12271,17426
12228,17413
12186,17400
12107,17358
12038,17301
12000,17255
11981,17232
11939,17153
11939,17153
11926,17111
11913,17068
11909,17029
11907,17019
11904,17010
11898,17002
11891,16996
11883,16990
11874,16986
11865,16985
11855,16985
11846,16986
11837,16990
11829,16996
11822,17002
11817,17010
11813,17019
11811,17029
11807,17068
11781,17153
11739,17232
11683,17301
11636,17339
11613,17358
11613,17358
11535,17400
11492,17413
11449,17426
11360,17435
11271,17426
11228,17413
11186,17400
11107,17358
11038,17301
11000,17255
10981,17232
10939,17153
10939,17153
10926,17111
10913,17068
10907,17010
10906,17001
10906,16919
10911,16870
10913,16853
10931,16793
10939,16767
10961,16725
10981,16688
11002,16663
11038,16619
11107,16562
11186,16520
11228,16507
11271,16494
11360,16486
11449,16494
11492,16507
11535,16520
11613,16562
11683,16619
11718,16663
11739,16688
11739,16688
11781,16767
11781,16767
11807,16853
11807,16853
11811,16892
11813,16901
11817,16910
11822,16918
11829,16925
11837,16930
11846,16934
11855,16936
11865,16936
11874,16934
11883,16930
11891,16925
11898,16918
11904,16910
11907,16901
11909,16892
11911,16870
11913,16853
11931,16793
11939,16767
11961,16725
11981,16688
12002,16663
12038,16619
12107,16562
12186,16520
12228,16507
12271,16494
12360,16486
12449,16494
" /> 
<polyline style="fill-rule:evenodd;"
points="7529,16494
7572,16507
7615,16520
7693,16562
7763,16619
7798,16663
7819,16688
7819,16688
7861,16767
7861,16767
7887,16853
7887,16853
7888,16862
7890,16871
7894,16880
7899,16888
7906,16895
7914,16900
7923,16904
7932,16906
7942,16906
7951,16904
7960,16900
7968,16895
7975,16888
7981,16880
7984,16871
7986,16857
7986,16488
8894,16488
8894,17433
7986,17433
7986,17064
7985,17054
7983,17045
7978,17036
7972,17029
7965,17023
7956,17018
7947,17015
7937,17014
7928,17015
7918,17018
7910,17023
7902,17029
7896,17036
7892,17045
7888,17059
7887,17068
7861,17153
7819,17232
7763,17301
7716,17339
7693,17358
7693,17358
7615,17400
7572,17413
7529,17426
7440,17435
7351,17426
7308,17413
7266,17400
7187,17358
7118,17301
7080,17255
7061,17232
7019,17153
7019,17153
7006,17111
6993,17068
6989,17029
6987,17019
6984,17010
6978,17002
6971,16996
6963,16990
6954,16986
6945,16985
6935,16985
6926,16986
6917,16990
6909,16996
6902,17002
6897,17010
6893,17019
6891,17029
6887,17068
6861,17153
6819,17232
6763,17301
6716,17339
6693,17358
6693,17358
6615,17400
6572,17413
6529,17426
6440,17435
6351,17426
6308,17413
6266,17400
6187,17358
6118,17301
6080,17255
6061,17232
6019,17153
6019,17153
6006,17111
5993,17068
5987,17010
5986,17001
5986,16919
5991,16870
5993,16853
6011,16793
6019,16767
6041,16725
6061,16688
6082,16663
6118,16619
6187,16562
6266,16520
6308,16507
6351,16494
6440,16486
6529,16494
6572,16507
6615,16520
6693,16562
6763,16619
6798,16663
6819,16688
6819,16688
6861,16767
6861,16767
6887,16853
6887,16853
6891,16892
6893,16901
6897,16910
6902,16918
6909,16925
6917,16930
6926,16934
6935,16936
6945,16936
6954,16934
6963,16930
6971,16925
6978,16918
6984,16910
6987,16901
6989,16892
6991,16870
6993,16853
7011,16793
7019,16767
7041,16725
7061,16688
7082,16663
7118,16619
7187,16562
7266,16520
7308,16507
7351,16494
7440,16486
7529,16494
" /> 
<polyline style="fill-rule:evenodd;"
points="22297,16494
22339,16507
22382,16520
22461,16562
22530,16619
22566,16663
22587,16688
22587,16688
22629,16767
22629,16767
22655,16853
22655,16853
22656,16862
22658,16871
22661,16880
22667,16888
22674,16895
22682,16900
22690,16904
22700,16906
22710,16906
22719,16904
22728,16900
22736,16895
22743,16888
22748,16880
22752,16871
22754,16857
22754,16488
23661,16488
23661,17433
22754,17433
22754,17064
22753,17054
22750,17045
22746,17036
22740,17029
22732,17023
22724,17018
22714,17015
22705,17014
22695,17015
22686,17018
22677,17023
22670,17029
22664,17036
22659,17045
22656,17059
22655,17068
22629,17153
22587,17232
22530,17301
22484,17339
22461,17358
22461,17358
22382,17400
22339,17413
22297,17426
22208,17435
22119,17426
22076,17413
22033,17400
21954,17358
21885,17301
21847,17255
21829,17232
21786,17153
21786,17153
21773,17111
21761,17068
21757,17029
21755,17019
21751,17010
21746,17002
21739,16996
21731,16990
21722,16986
21713,16985
21703,16985
21693,16986
21684,16990
21676,16996
21670,17002
21664,17010
21661,17019
21659,17029
21655,17068
21629,17153
21587,17232
21530,17301
21484,17339
21461,17358
21461,17358
21382,17400
21339,17413
21297,17426
21208,17435
21119,17426
21076,17413
21033,17400
20954,17358
20885,17301
20847,17255
20829,17232
20786,17153
20786,17153
20773,17111
20761,17068
20755,17010
20754,17001
20754,16919
20759,16870
20761,16853
20779,16793
20786,16767
20809,16725
20829,16688
20850,16663
20885,16619
20954,16562
21033,16520
21076,16507
21119,16494
21208,16486
21297,16494
21339,16507
21382,16520
21461,16562
21530,16619
21566,16663
21587,16688
21587,16688
21629,16767
21629,16767
21655,16853
21655,16853
21659,16892
21661,16901
21664,16910
21670,16918
21676,16925
21684,16930
21693,16934
21703,16936
21713,16936
21722,16934
21731,16930
21739,16925
21746,16918
21751,16910
21755,16901
21757,16892
21759,16870
21761,16853
21779,16793
21786,16767
21809,16725
21829,16688
21850,16663
21885,16619
21954,16562
22033,16520
22076,16507
22119,16494
22208,16486
22297,16494
" /> 
<polyline style="fill-rule:evenodd;"
points="37472,15934
37528,15939
37616,15966
37697,16010
37769,16068
37827,16140
37871,16221
37897,16309
37906,16401
37897,16493
37871,16581
37827,16663
37769,16734
37697,16793
37616,16836
37528,16863
37472,16868
37459,16870
36633,16870
36619,16868
36564,16863
36476,16836
36395,16793
36323,16734
36265,16663
36221,16581
36194,16493
36185,16401
36194,16309
36221,16221
36265,16140
36323,16068
36395,16010
36476,15966
36564,15939
36619,15934
36633,15933
37459,15933
37472,15934
" /> 
<polyline style="fill-rule:evenodd;"
points="5232,13160
5299,13181
5361,13214
5416,13258
5460,13313
5494,13375
5514,13442
5521,13515
5521,14327
5514,14399
5494,14467
5460,14529
5416,14583
5361,14628
5299,14661
5232,14681
5159,14688
4347,14688
4275,14681
4208,14661
4146,14628
4091,14583
4046,14529
4013,14467
3993,14399
3986,14327
3986,13515
3993,13442
4013,13375
4046,13313
4091,13258
4146,13214
4208,13181
4275,13160
4347,13153
5159,13153
5232,13160
" /> 
<polyline style="fill-rule:evenodd;"
points="37895,14114
36179,14114
36179,13177
37895,13177
37895,14114
" /> 
<polyline style="fill-rule:evenodd;"
points="16916,11419
16939,11426
16960,11437
16978,11452
16994,11471
17005,11492
17012,11515
17015,11541
17015,12157
17013,12177
17013,12187
17015,12196
17018,12205
17024,12213
17030,12220
17038,12225
17047,12229
17062,12231
17375,12231
17384,12230
17394,12227
17402,12223
17410,12217
17416,12209
17420,12201
17423,12191
17424,12182
17424,11416
18015,11416
18015,12282
17562,12282
17552,12283
17543,12286
17534,12290
17527,12297
17521,12304
17516,12313
17513,12322
17513,12336
17515,12356
17515,12972
17512,12998
17505,13021
17494,13042
17478,13061
17460,13076
17439,13088
17416,13095
17389,13097
17050,13097
17023,13095
17000,13088
16979,13076
16960,13061
16945,13042
16934,13021
16927,12998
16924,12972
16924,12356
16926,12336
16926,12327
16924,12317
16921,12308
16915,12300
16908,12293
16900,12288
16891,12284
16877,12282
16550,12282
16523,12280
16500,12273
16479,12261
16460,12246
16445,12227
16434,12206
16427,12183
16424,12157
16424,11541
16427,11515
16434,11492
16445,11471
16460,11452
16479,11437
16500,11426
16523,11419
16550,11416
16889,11416
16916,11419
" /> 
<polyline style="fill-rule:evenodd;"
points="21309,12877
20482,12877
20482,12051
21309,12051
21309,12877
" /> 
<polyline style="fill-rule:evenodd;"
points="21946,12054
21976,12057
22014,12068
22054,12080
22126,12119
22189,12170
22241,12233
22279,12305
22283,12317
22303,12383
22311,12464
22303,12545
22295,12569
22279,12623
22241,12695
22189,12758
22126,12809
22054,12848
22028,12856
21976,12871
21946,12874
21915,12877
21875,12877
21844,12874
21814,12871
21762,12856
21736,12848
21664,12809
21601,12758
21550,12695
21511,12623
21495,12569
21488,12545
21480,12464
21488,12383
21508,12317
21511,12305
21550,12233
21601,12170
21664,12119
21736,12080
21776,12068
21814,12057
21844,12054
21875,12051
21915,12051
21946,12054
" /> 
<polyline style="fill-rule:evenodd;"
points="22946,12054
22976,12057
23014,12068
23054,12080
23126,12119
23189,12170
23241,12233
23279,12305
23283,12317
23303,12383
23311,12464
23303,12545
23295,12569
23279,12623
23241,12695
23189,12758
23126,12809
23054,12848
23028,12856
22976,12871
22946,12874
22915,12877
22875,12877
22844,12874
22814,12871
22762,12856
22736,12848
22664,12809
22601,12758
22550,12695
22511,12623
22495,12569
22488,12545
22480,12464
22488,12383
22508,12317
22511,12305
22550,12233
22601,12170
22664,12119
22736,12080
22776,12068
22814,12057
22844,12054
22875,12051
22915,12051
22946,12054
" /> 
<polyline style="fill-rule:evenodd;"
points="3992,11309
4050,11326
4104,11355
4151,11394
4189,11441
4218,11494
4235,11552
4242,11615
4242,12526
4235,12588
4218,12647
4189,12700
4151,12747
4104,12786
4050,12814
3992,12832
3929,12838
3216,12838
3153,12832
3095,12814
3041,12786
2994,12747
2955,12700
2927,12647
2909,12588
2903,12526
2903,11615
2909,11552
2927,11494
2955,11441
2994,11394
3041,11355
3095,11326
3153,11309
3216,11303
3929,11303
3992,11309
" /> 
<polyline style="fill-rule:evenodd;"
points="6702,12838
5167,12838
5167,11303
6702,11303
6702,12838
" /> 
<polyline style="fill-rule:evenodd;"
points="37463,11210
37519,11215
37607,11242
37688,11285
37760,11344
37818,11415
37862,11497
37888,11585
37897,11677
37888,11769
37862,11857
37818,11938
37760,12010
37688,12068
37607,12112
37519,12138
37463,12144
37450,12145
36624,12145
36610,12144
36555,12138
36467,12112
36386,12068
36314,12010
36256,11938
36212,11857
36185,11769
36176,11677
36185,11585
36212,11497
36256,11415
36314,11344
36386,11285
36467,11242
36555,11215
36610,11210
36624,11208
37450,11208
37463,11210
" /> 
<polyline style="fill-rule:evenodd;"
points="37904,9389
36188,9389
36188,8452
37904,8452
37904,9389
" /> 
<polyline style="fill-rule:evenodd;"
points="1301,8310
1316,8311
1346,8320
1376,8329
1430,8358
1478,8398
1518,8446
1547,8500
1565,8560
1571,8622
1565,8683
1547,8743
1518,8797
1478,8845
1430,8885
1376,8914
1346,8923
1316,8932
1301,8933
1270,8937
963,8937
933,8933
917,8932
887,8923
858,8914
803,8885
755,8845
716,8797
686,8743
668,8683
662,8622
668,8560
686,8500
716,8446
755,8398
803,8358
858,8329
887,8320
917,8311
933,8310
963,8307
1270,8307
1301,8310
" /> 
<polyline style="fill-rule:evenodd;"
points="2286,7878
2286,7878
2286,7878
2352,7905
2352,7905
2412,7945
2462,7996
2462,7996
2502,8055
2524,8107
2530,8122
2544,8192
2544,8264
2530,8334
2530,8334
2502,8400
2468,8452
2462,8460
2412,8511
2412,8511
2352,8551
2301,8572
2286,8578
2215,8592
2144,8592
2073,8578
2058,8572
2007,8551
1947,8511
1947,8511
1897,8460
1892,8452
1857,8400
1829,8334
1829,8334
1815,8264
1815,8192
1829,8122
1836,8107
1857,8055
1897,7996
1897,7996
1947,7945
2007,7905
2007,7905
2073,7878
2073,7878
2073,7878
2144,7864
2215,7864
2286,7878
" /> 
<polyline style="fill-rule:evenodd;"
points="37472,6485
37528,6491
37616,6517
37697,6561
37769,6619
37827,6691
37871,6772
37897,6860
37906,6952
37897,7044
37871,7132
37827,7214
37769,7285
37697,7344
37616,7387
37528,7414
37472,7419
37459,7421
36633,7421
36619,7419
36564,7414
36476,7387
36395,7344
36323,7285
36265,7214
36221,7132
36194,7044
36185,6952
36194,6860
36221,6772
36265,6691
36323,6619
36395,6561
36476,6517
36564,6491
36619,6485
36633,6484
37459,6484
37472,6485
" /> 
<polyline style="fill-rule:evenodd;"
points="2286,5909
2286,5909
2286,5909
2352,5937
2352,5937
2412,5976
2462,6027
2462,6027
2502,6087
2520,6129
2530,6153
2544,6223
2544,6295
2530,6366
2530,6366
2502,6432
2502,6432
2462,6491
2412,6542
2412,6542
2352,6582
2301,6603
2286,6610
2215,6624
2144,6624
2073,6610
2058,6603
2007,6582
1947,6542
1947,6542
1897,6491
1857,6432
1857,6432
1829,6366
1829,6366
1815,6295
1815,6223
1829,6153
1840,6129
1857,6087
1897,6027
1897,6027
1947,5976
2007,5937
2007,5937
2073,5909
2073,5909
2073,5909
2144,5895
2215,5895
2286,5909
" /> 
<polyline style="fill-rule:evenodd;"
points="1301,5554
1316,5555
1346,5564
1376,5573
1430,5602
1478,5642
1518,5690
1547,5745
1565,5804
1571,5866
1565,5927
1547,5987
1518,6041
1478,6089
1430,6129
1376,6158
1346,6167
1316,6176
1301,6178
1270,6181
963,6181
933,6178
917,6176
887,6167
858,6158
803,6129
755,6089
716,6041
686,5987
668,5927
662,5866
668,5804
686,5745
716,5690
755,5642
803,5602
858,5573
887,5564
917,5555
933,5554
963,5551
1270,5551
1301,5554
" /> 
</g>
<g style="fill:#000000; fill-opacity:1.0; 
stroke:#000000; stroke-width:59.0551; stroke-opacity:1; 
stroke-linecap:round; stroke-linejoin:round;">
</g>
<g style="fill:#000000; fill-opacity:0.0; 
stroke:#000000; stroke-width:59.0551; stroke-opacity:1; 
stroke-linecap:round; stroke-linejoin:round;">
<path d="M29 5377
L39399 5377
" />
<path d="M29 25062
L29 5377
" />
<path d="M39399 25062
L29 25062
" />
<path d="M39399 5377
L39399 25062
" />
</g> 
</svg>
