<?xml version="1.0" standalone="no"?>
 <!DOCTYPE svg PUBLIC "-//W3C//DTD SVG 1.1//EN" 
 "http://www.w3.org/Graphics/SVG/1.1/DTD/svg11.dtd"> 
<svg xmlns="http://www.w3.org/2000/svg" version="1.1" 
    width="12.3825cm" height="7.9375cm" viewBox="0 0 48750 31250 ">
<title>SVG Picture created as ESPLED-F.Mask.svg date 2019/01/08 01:43:35 </title>
  <desc>Picture generated by PCBNEW </desc>
<g style="fill:#000000; fill-opacity:1;stroke:#000000; stroke-opacity:1;
stroke-linecap:round; stroke-linejoin:round; "
 transform="translate(0 0) scale(1 1)">
</g>
<g style="fill:#000000; fill-opacity:0.0; 
stroke:#000000; stroke-width:-0.000393701; stroke-opacity:1; 
stroke-linecap:round; stroke-linejoin:round;">
</g>
<g style="fill:#000000; fill-opacity:1.0; 
stroke:#000000; stroke-width:0; stroke-opacity:1; 
stroke-linecap:round; stroke-linejoin:round;">
<polyline style="fill-rule:evenodd;"
points="22358,22763
22358,22763
22358,22763
22503,22807
22636,22878
22753,22974
22849,23091
22920,23224
22936,23274
22964,23369
22979,23519
22964,23670
22964,23670
22964,23670
22920,23814
22849,23948
22753,24065
22636,24161
22503,24232
22358,24276
22358,24276
22358,24276
22245,24287
22170,24287
22057,24276
22057,24276
22057,24276
21912,24232
21779,24161
21662,24065
21566,23948
21495,23814
21451,23670
21451,23670
21451,23670
21436,23519
21451,23369
21480,23274
21495,23224
21566,23091
21662,22974
21779,22878
21912,22807
22057,22763
22057,22763
22057,22763
22170,22752
22245,22752
22358,22763
" /> 
<polyline style="fill-rule:evenodd;"
points="17436,22763
17436,22763
17436,22763
17580,22807
17714,22878
17831,22974
17927,23091
17998,23224
18013,23274
18042,23369
18057,23519
18042,23670
18042,23670
18042,23670
17998,23814
17927,23948
17831,24065
17714,24161
17580,24232
17436,24276
17436,24276
17436,24276
17323,24287
17247,24287
17135,24276
17135,24276
17135,24276
16990,24232
16857,24161
16740,24065
16644,23948
16572,23814
16529,23670
16529,23670
16529,23670
16514,23519
16529,23369
16557,23274
16572,23224
16644,23091
16740,22974
16857,22878
16990,22807
17135,22763
17135,22763
17135,22763
17247,22752
17323,22752
17436,22763
" /> 
<polyline style="fill-rule:evenodd;"
points="12511,22763
12511,22763
12511,22763
12655,22807
12789,22878
12906,22974
13002,23091
13073,23224
13088,23274
13117,23369
13132,23519
13117,23670
13117,23670
13117,23670
13073,23814
13002,23948
12906,24065
12789,24161
12655,24232
12511,24276
12511,24276
12511,24276
12398,24287
12322,24287
12210,24276
12210,24276
12210,24276
12065,24232
11932,24161
11815,24065
11719,23948
11647,23814
11604,23670
11604,23670
11604,23670
11589,23519
11604,23369
11632,23274
11647,23224
11719,23091
11815,22974
11932,22878
12065,22807
12210,22763
12210,22763
12210,22763
12322,22752
12398,22752
12511,22763
" /> 
<polyline style="fill-rule:evenodd;"
points="2671,22763
2671,22763
2671,22763
2815,22807
2949,22878
3066,22974
3162,23091
3233,23224
3248,23274
3277,23369
3292,23519
3277,23670
3277,23670
3277,23670
3233,23814
3162,23948
3066,24065
2949,24161
2815,24232
2671,24276
2671,24276
2671,24276
2558,24287
2482,24287
2370,24276
2370,24276
2370,24276
2225,24232
2092,24161
1975,24065
1879,23948
1807,23814
1764,23670
1764,23670
1764,23670
1749,23519
1764,23369
1792,23274
1807,23224
1879,23091
1975,22974
2092,22878
2225,22807
2370,22763
2370,22763
2370,22763
2482,22752
2558,22752
2671,22763
" /> 
<polyline style="fill-rule:evenodd;"
points="7591,22763
7591,22763
7591,22763
7735,22807
7869,22878
7986,22974
8082,23091
8153,23224
8168,23274
8197,23369
8212,23519
8197,23670
8197,23670
8197,23670
8153,23814
8082,23948
7986,24065
7869,24161
7735,24232
7591,24276
7591,24276
7591,24276
7478,24287
7402,24287
7290,24276
7290,24276
7290,24276
7145,24232
7012,24161
6895,24065
6799,23948
6727,23814
6684,23670
6684,23670
6684,23670
6669,23519
6684,23369
6712,23274
6727,23224
6799,23091
6895,22974
7012,22878
7145,22807
7290,22763
7290,22763
7290,22763
7402,22752
7478,22752
7591,22763
" /> 
<polyline style="fill-rule:evenodd;"
points="28907,23121
28993,23156
29070,23208
29136,23274
29188,23351
29223,23437
29242,23529
29242,23622
29223,23713
29188,23799
29136,23876
29070,23942
28993,23994
28907,24029
28816,24048
28723,24048
28631,24029
28545,23994
28468,23942
28402,23876
28351,23799
28315,23713
28297,23622
28297,23529
28315,23437
28351,23351
28402,23274
28468,23208
28545,23156
28631,23121
28723,23103
28816,23103
28907,23121
" /> 
<polyline style="fill-rule:evenodd;"
points="34222,23121
34308,23156
34385,23208
34451,23274
34503,23351
34538,23437
34557,23529
34557,23622
34538,23713
34503,23799
34451,23876
34385,23942
34308,23994
34222,24029
34131,24048
34038,24048
33946,24029
33860,23994
33783,23942
33717,23876
33665,23799
33630,23713
33612,23622
33612,23529
33630,23437
33665,23351
33717,23274
33783,23208
33860,23156
33946,23121
34038,23103
34131,23103
34222,23121
" /> 
<polyline style="fill-rule:evenodd;"
points="32450,23121
32536,23156
32614,23208
32679,23274
32731,23351
32767,23437
32785,23529
32785,23622
32767,23713
32731,23799
32679,23876
32614,23942
32536,23994
32450,24029
32359,24048
32266,24048
32175,24029
32089,23994
32011,23942
31946,23876
31894,23799
31858,23713
31840,23622
31840,23529
31858,23437
31894,23351
31946,23274
32011,23208
32089,23156
32175,23121
32266,23103
32359,23103
32450,23121
" /> 
<polyline style="fill-rule:evenodd;"
points="27135,23121
27221,23156
27299,23208
27365,23274
27416,23351
27452,23437
27470,23529
27470,23622
27452,23713
27416,23799
27365,23876
27299,23942
27221,23994
27135,24029
27044,24048
26951,24048
26860,24029
26774,23994
26696,23942
26631,23876
26579,23799
26543,23713
26525,23622
26525,23529
26543,23437
26579,23351
26631,23274
26696,23208
26774,23156
26860,23121
26951,23103
27044,23103
27135,23121
" /> 
<polyline style="fill-rule:evenodd;"
points="25364,23121
25450,23156
25527,23208
25593,23274
25645,23351
25680,23437
25698,23529
25698,23622
25680,23713
25645,23799
25593,23876
25527,23942
25450,23994
25364,24029
25272,24048
25179,24048
25088,24029
25002,23994
24925,23942
24859,23876
24807,23799
24772,23713
24753,23622
24753,23529
24772,23437
24807,23351
24859,23274
24925,23208
25002,23156
25088,23121
25179,23103
25272,23103
25364,23121
" /> 
<polyline style="fill-rule:evenodd;"
points="30679,23121
30765,23156
30842,23208
30908,23274
30960,23351
30995,23437
31013,23529
31013,23622
30995,23713
30960,23799
30908,23876
30842,23942
30765,23994
30679,24029
30587,24048
30494,24048
30403,24029
30317,23994
30240,23942
30174,23876
30122,23799
30087,23713
30068,23622
30068,23529
30087,23437
30122,23351
30174,23274
30240,23208
30317,23156
30403,23121
30494,23103
30587,23103
30679,23121
" /> 
<polyline style="fill-rule:evenodd;"
points="39025,23901
38198,23901
38198,23074
39025,23074
39025,23901
" /> 
<polyline style="fill-rule:evenodd;"
points="38662,22077
38693,22080
38745,22096
38771,22104
38842,22142
38905,22194
38957,22257
38995,22329
38995,22329
39019,22407
39027,22488
39019,22569
39003,22621
38995,22647
38957,22718
38905,22781
38842,22833
38771,22871
38750,22878
38693,22895
38662,22898
38632,22901
38591,22901
38561,22898
38531,22895
38474,22878
38453,22871
38381,22833
38318,22781
38266,22718
38228,22647
38220,22621
38204,22569
38196,22488
38204,22407
38228,22329
38228,22329
38266,22257
38318,22194
38381,22142
38453,22104
38479,22096
38531,22080
38561,22077
38591,22074
38632,22074
38662,22077
" /> 
<polyline style="fill-rule:evenodd;"
points="37057,21933
36230,21933
36230,21106
37057,21106
37057,21933
" /> 
<polyline style="fill-rule:evenodd;"
points="38662,21077
38693,21080
38745,21096
38771,21104
38842,21142
38905,21194
38957,21257
38995,21329
38995,21329
39019,21407
39027,21488
39019,21569
39003,21621
38995,21647
38957,21718
38905,21781
38842,21833
38771,21871
38745,21879
38693,21895
38662,21898
38632,21901
38591,21901
38561,21898
38531,21895
38479,21879
38453,21871
38381,21833
38318,21781
38266,21718
38228,21647
38220,21621
38204,21569
38196,21488
38204,21407
38228,21329
38228,21329
38266,21257
38318,21194
38381,21142
38453,21104
38479,21096
38531,21080
38561,21077
38591,21074
38632,21074
38662,21077
" /> 
<polyline style="fill-rule:evenodd;"
points="25364,20562
25450,20597
25527,20649
25593,20715
25645,20792
25680,20878
25698,20970
25698,21063
25680,21154
25645,21240
25593,21317
25527,21383
25450,21435
25364,21470
25272,21488
25179,21488
25088,21470
25002,21435
24925,21383
24859,21317
24807,21240
24772,21154
24753,21063
24753,20970
24772,20878
24807,20792
24859,20715
24925,20649
25002,20597
25088,20562
25179,20544
25272,20544
25364,20562
" /> 
<polyline style="fill-rule:evenodd;"
points="34222,20562
34308,20597
34385,20649
34451,20715
34503,20792
34538,20878
34557,20970
34557,21063
34538,21154
34503,21240
34451,21317
34385,21383
34308,21435
34222,21470
34131,21488
34038,21488
33946,21470
33860,21435
33783,21383
33717,21317
33665,21240
33630,21154
33612,21063
33612,20970
33630,20878
33665,20792
33717,20715
33783,20649
33860,20597
33946,20562
34038,20544
34131,20544
34222,20562
" /> 
<polyline style="fill-rule:evenodd;"
points="28907,20562
28993,20597
29070,20649
29136,20715
29188,20792
29223,20878
29242,20970
29242,21063
29223,21154
29188,21240
29136,21317
29070,21383
28993,21435
28907,21470
28816,21488
28723,21488
28631,21470
28545,21435
28468,21383
28402,21317
28351,21240
28315,21154
28297,21063
28297,20970
28315,20878
28351,20792
28402,20715
28468,20649
28545,20597
28631,20562
28723,20544
28816,20544
28907,20562
" /> 
<polyline style="fill-rule:evenodd;"
points="30679,20562
30765,20597
30842,20649
30908,20715
30960,20792
30995,20878
31013,20970
31013,21063
30995,21154
30960,21240
30908,21317
30842,21383
30765,21435
30679,21470
30587,21488
30494,21488
30403,21470
30317,21435
30240,21383
30174,21317
30122,21240
30087,21154
30068,21063
30068,20970
30087,20878
30122,20792
30174,20715
30240,20649
30317,20597
30403,20562
30494,20544
30587,20544
30679,20562
" /> 
<polyline style="fill-rule:evenodd;"
points="27135,20562
27221,20597
27299,20649
27365,20715
27416,20792
27452,20878
27470,20970
27470,21063
27452,21154
27416,21240
27365,21317
27299,21383
27221,21435
27135,21470
27044,21488
26951,21488
26860,21470
26774,21435
26696,21383
26631,21317
26579,21240
26543,21154
26525,21063
26525,20970
26543,20878
26579,20792
26631,20715
26696,20649
26774,20597
26860,20562
26951,20544
27044,20544
27135,20562
" /> 
<polyline style="fill-rule:evenodd;"
points="32450,20562
32536,20597
32614,20649
32679,20715
32731,20792
32767,20878
32785,20970
32785,21063
32767,21154
32731,21240
32679,21317
32614,21383
32536,21435
32450,21470
32359,21488
32266,21488
32175,21470
32089,21435
32011,21383
31946,21317
31894,21240
31858,21154
31840,21063
31840,20970
31858,20878
31894,20792
31946,20715
32011,20649
32089,20597
32175,20562
32266,20544
32359,20544
32450,20562
" /> 
<polyline style="fill-rule:evenodd;"
points="36694,20109
36724,20112
36776,20128
36802,20135
36874,20174
36937,20225
36989,20288
37027,20360
37027,20360
37051,20438
37059,20519
37051,20600
37037,20647
37027,20678
36989,20750
36937,20813
36874,20865
36802,20903
36776,20911
36724,20927
36694,20930
36664,20933
36623,20933
36593,20930
36562,20927
36510,20911
36484,20903
36412,20865
36349,20813
36298,20750
36259,20678
36250,20647
36236,20600
36228,20519
36236,20438
36259,20360
36259,20360
36298,20288
36349,20225
36412,20174
36484,20135
36510,20128
36562,20112
36593,20109
36623,20106
36664,20106
36694,20109
" /> 
<polyline style="fill-rule:evenodd;"
points="38662,20077
38693,20080
38745,20096
38771,20104
38842,20142
38905,20194
38957,20257
38995,20329
38995,20329
39019,20407
39027,20488
39019,20569
39010,20597
38995,20647
38957,20718
38905,20781
38842,20833
38771,20871
38748,20878
38693,20895
38662,20898
38632,20901
38591,20901
38561,20898
38531,20895
38475,20878
38453,20871
38381,20833
38318,20781
38266,20718
38228,20647
38213,20597
38204,20569
38196,20488
38204,20407
38228,20329
38228,20329
38266,20257
38318,20194
38381,20142
38453,20104
38479,20096
38531,20080
38561,20077
38591,20074
38632,20074
38662,20077
" /> 
<polyline style="fill-rule:evenodd;"
points="37904,18838
36188,18838
36188,17901
37904,17901
37904,18838
" /> 
<polyline style="fill-rule:evenodd;"
points="17374,16494
17417,16507
17460,16520
17538,16562
17608,16619
17643,16663
17664,16688
17664,16688
17706,16767
17706,16767
17732,16853
17732,16853
17733,16862
17735,16871
17739,16880
17744,16888
17751,16895
17759,16900
17768,16904
17777,16906
17787,16906
17797,16904
17805,16900
17813,16895
17820,16888
17826,16880
17829,16871
17831,16857
17831,16488
18739,16488
18739,17433
17831,17433
17831,17064
17830,17054
17828,17045
17823,17036
17817,17029
17810,17023
17801,17018
17792,17015
17782,17014
17773,17015
17763,17018
17755,17023
17747,17029
17741,17036
17737,17045
17733,17059
17732,17068
17706,17153
17664,17232
17608,17301
17562,17339
17538,17358
17538,17358
17460,17400
17417,17413
17374,17426
17285,17435
17196,17426
17153,17413
17111,17400
17032,17358
16963,17301
16925,17255
16906,17232
16864,17153
16864,17153
16851,17111
16838,17068
16834,17029
16832,17019
16829,17010
16823,17002
16816,16996
16808,16990
16799,16986
16790,16985
16780,16985
16771,16986
16762,16990
16754,16996
16747,17002
16742,17010
16738,17019
16736,17029
16732,17068
16706,17153
16664,17232
16608,17301
16562,17339
16538,17358
16538,17358
16460,17400
16417,17413
16374,17426
16285,17435
16196,17426
16153,17413
16111,17400
16032,17358
15963,17301
15925,17255
15906,17232
15864,17153
15864,17153
15851,17111
15838,17068
15832,17010
15831,17001
15831,16919
15836,16870
15838,16853
15856,16793
15864,16767
15886,16725
15906,16688
15927,16663
15963,16619
16032,16562
16111,16520
16153,16507
16196,16494
16285,16486
16374,16494
16417,16507
16460,16520
16538,16562
16608,16619
16643,16663
16664,16688
16664,16688
16706,16767
16706,16767
16732,16853
16732,16853
16736,16892
16738,16901
16742,16910
16747,16918
16754,16925
16762,16930
16771,16934
16780,16936
16790,16936
16799,16934
16808,16930
16816,16925
16823,16918
16829,16910
16832,16901
16834,16892
16836,16870
16838,16853
16856,16793
16864,16767
16886,16725
16906,16688
16927,16663
16963,16619
17032,16562
17111,16520
17153,16507
17196,16494
17285,16486
17374,16494
" /> 
<polyline style="fill-rule:evenodd;"
points="22297,16494
22339,16507
22382,16520
22461,16562
22530,16619
22566,16663
22587,16688
22587,16688
22629,16767
22629,16767
22655,16853
22655,16853
22656,16862
22658,16871
22661,16880
22667,16888
22674,16895
22682,16900
22690,16904
22700,16906
22710,16906
22719,16904
22728,16900
22736,16895
22743,16888
22748,16880
22752,16871
22754,16857
22754,16488
23661,16488
23661,17433
22754,17433
22754,17064
22753,17054
22750,17045
22746,17036
22740,17029
22732,17023
22724,17018
22714,17015
22705,17014
22695,17015
22686,17018
22677,17023
22670,17029
22664,17036
22659,17045
22656,17059
22655,17068
22629,17153
22587,17232
22530,17301
22484,17339
22461,17358
22461,17358
22382,17400
22339,17413
22297,17426
22208,17435
22119,17426
22076,17413
22033,17400
21954,17358
21885,17301
21847,17255
21829,17232
21786,17153
21786,17153
21773,17111
21761,17068
21757,17029
21755,17019
21751,17010
21746,17002
21739,16996
21731,16990
21722,16986
21713,16985
21703,16985
21693,16986
21684,16990
21676,16996
21670,17002
21664,17010
21661,17019
21659,17029
21655,17068
21629,17153
21587,17232
21530,17301
21484,17339
21461,17358
21461,17358
21382,17400
21339,17413
21297,17426
21208,17435
21119,17426
21076,17413
21033,17400
20954,17358
20885,17301
20847,17255
20829,17232
20786,17153
20786,17153
20773,17111
20761,17068
20755,17010
20754,17001
20754,16919
20759,16870
20761,16853
20779,16793
20786,16767
20809,16725
20829,16688
20850,16663
20885,16619
20954,16562
21033,16520
21076,16507
21119,16494
21208,16486
21297,16494
21339,16507
21382,16520
21461,16562
21530,16619
21566,16663
21587,16688
21587,16688
21629,16767
21629,16767
21655,16853
21655,16853
21659,16892
21661,16901
21664,16910
21670,16918
21676,16925
21684,16930
21693,16934
21703,16936
21713,16936
21722,16934
21731,16930
21739,16925
21746,16918
21751,16910
21755,16901
21757,16892
21759,16870
21761,16853
21779,16793
21786,16767
21809,16725
21829,16688
21850,16663
21885,16619
21954,16562
22033,16520
22076,16507
22119,16494
22208,16486
22297,16494
" /> 
<polyline style="fill-rule:evenodd;"
points="2609,16494
2652,16507
2695,16520
2773,16562
2843,16619
2878,16663
2899,16688
2899,16688
2941,16767
2941,16767
2967,16853
2967,16853
2968,16862
2970,16871
2974,16880
2979,16888
2986,16895
2994,16900
3003,16904
3012,16906
3022,16906
3031,16904
3040,16900
3048,16895
3055,16888
3061,16880
3064,16871
3066,16857
3066,16488
3974,16488
3974,17433
3066,17433
3066,17064
3065,17054
3063,17045
3058,17036
3052,17029
3045,17023
3036,17018
3027,17015
3017,17014
3008,17015
2998,17018
2990,17023
2982,17029
2976,17036
2972,17045
2968,17059
2967,17068
2941,17153
2899,17232
2843,17301
2796,17339
2773,17358
2773,17358
2695,17400
2652,17413
2609,17426
2520,17435
2431,17426
2388,17413
2346,17400
2267,17358
2198,17301
2160,17255
2141,17232
2099,17153
2099,17153
2086,17111
2073,17068
2069,17029
2067,17019
2064,17010
2058,17002
2051,16996
2043,16990
2034,16986
2025,16985
2015,16985
2006,16986
1997,16990
1989,16996
1982,17002
1977,17010
1973,17019
1971,17029
1967,17068
1941,17153
1899,17232
1843,17301
1796,17339
1773,17358
1773,17358
1695,17400
1652,17413
1609,17426
1520,17435
1431,17426
1388,17413
1346,17400
1267,17358
1198,17301
1160,17255
1141,17232
1099,17153
1099,17153
1086,17111
1073,17068
1067,17010
1066,17001
1066,16919
1071,16870
1073,16853
1091,16793
1099,16767
1121,16725
1141,16688
1162,16663
1198,16619
1267,16562
1346,16520
1388,16507
1431,16494
1520,16486
1609,16494
1652,16507
1695,16520
1773,16562
1843,16619
1878,16663
1899,16688
1899,16688
1941,16767
1941,16767
1967,16853
1967,16853
1971,16892
1973,16901
1977,16910
1982,16918
1989,16925
1997,16930
2006,16934
2015,16936
2025,16936
2034,16934
2043,16930
2051,16925
2058,16918
2064,16910
2067,16901
2069,16892
2071,16870
2073,16853
2091,16793
2099,16767
2121,16725
2141,16688
2162,16663
2198,16619
2267,16562
2346,16520
2388,16507
2431,16494
2520,16486
2609,16494
" /> 
<polyline style="fill-rule:evenodd;"
points="7529,16494
7572,16507
7615,16520
7693,16562
7763,16619
7798,16663
7819,16688
7819,16688
7861,16767
7861,16767
7887,16853
7887,16853
7888,16862
7890,16871
7894,16880
7899,16888
7906,16895
7914,16900
7923,16904
7932,16906
7942,16906
7951,16904
7960,16900
7968,16895
7975,16888
7981,16880
7984,16871
7986,16857
7986,16488
8894,16488
8894,17433
7986,17433
7986,17064
7985,17054
7983,17045
7978,17036
7972,17029
7965,17023
7956,17018
7947,17015
7937,17014
7928,17015
7918,17018
7910,17023
7902,17029
7896,17036
7892,17045
7888,17059
7887,17068
7861,17153
7819,17232
7763,17301
7716,17339
7693,17358
7693,17358
7615,17400
7572,17413
7529,17426
7440,17435
7351,17426
7308,17413
7266,17400
7187,17358
7118,17301
7080,17255
7061,17232
7019,17153
7019,17153
7006,17111
6993,17068
6989,17029
6987,17019
6984,17010
6978,17002
6971,16996
6963,16990
6954,16986
6945,16985
6935,16985
6926,16986
6917,16990
6909,16996
6902,17002
6897,17010
6893,17019
6891,17029
6887,17068
6861,17153
6819,17232
6763,17301
6716,17339
6693,17358
6693,17358
6615,17400
6572,17413
6529,17426
6440,17435
6351,17426
6308,17413
6266,17400
6187,17358
6118,17301
6080,17255
6061,17232
6019,17153
6019,17153
6006,17111
5993,17068
5987,17010
5986,17001
5986,16919
5991,16870
5993,16853
6011,16793
6019,16767
6041,16725
6061,16688
6082,16663
6118,16619
6187,16562
6266,16520
6308,16507
6351,16494
6440,16486
6529,16494
6572,16507
6615,16520
6693,16562
6763,16619
6798,16663
6819,16688
6819,16688
6861,16767
6861,16767
6887,16853
6887,16853
6891,16892
6893,16901
6897,16910
6902,16918
6909,16925
6917,16930
6926,16934
6935,16936
6945,16936
6954,16934
6963,16930
6971,16925
6978,16918
6984,16910
6987,16901
6989,16892
6991,16870
6993,16853
7011,16793
7019,16767
7041,16725
7061,16688
7082,16663
7118,16619
7187,16562
7266,16520
7308,16507
7351,16494
7440,16486
7529,16494
" /> 
<polyline style="fill-rule:evenodd;"
points="12449,16494
12492,16507
12535,16520
12613,16562
12683,16619
12718,16663
12739,16688
12739,16688
12781,16767
12781,16767
12807,16853
12807,16853
12808,16862
12810,16871
12814,16880
12819,16888
12826,16895
12834,16900
12843,16904
12852,16906
12862,16906
12871,16904
12880,16900
12888,16895
12895,16888
12901,16880
12904,16871
12906,16857
12906,16488
13814,16488
13814,17433
12906,17433
12906,17064
12905,17054
12903,17045
12898,17036
12892,17029
12885,17023
12876,17018
12867,17015
12857,17014
12848,17015
12838,17018
12830,17023
12822,17029
12816,17036
12812,17045
12808,17059
12807,17068
12781,17153
12739,17232
12683,17301
12636,17339
12613,17358
12613,17358
12535,17400
12492,17413
12449,17426
12360,17435
12271,17426
12228,17413
12186,17400
12107,17358
12038,17301
12000,17255
11981,17232
11939,17153
11939,17153
11926,17111
11913,17068
11909,17029
11907,17019
11904,17010
11898,17002
11891,16996
11883,16990
11874,16986
11865,16985
11855,16985
11846,16986
11837,16990
11829,16996
11822,17002
11817,17010
11813,17019
11811,17029
11807,17068
11781,17153
11739,17232
11683,17301
11636,17339
11613,17358
11613,17358
11535,17400
11492,17413
11449,17426
11360,17435
11271,17426
11228,17413
11186,17400
11107,17358
11038,17301
11000,17255
10981,17232
10939,17153
10939,17153
10926,17111
10913,17068
10907,17010
10906,17001
10906,16919
10911,16870
10913,16853
10931,16793
10939,16767
10961,16725
10981,16688
11002,16663
11038,16619
11107,16562
11186,16520
11228,16507
11271,16494
11360,16486
11449,16494
11492,16507
11535,16520
11613,16562
11683,16619
11718,16663
11739,16688
11739,16688
11781,16767
11781,16767
11807,16853
11807,16853
11811,16892
11813,16901
11817,16910
11822,16918
11829,16925
11837,16930
11846,16934
11855,16936
11865,16936
11874,16934
11883,16930
11891,16925
11898,16918
11904,16910
11907,16901
11909,16892
11911,16870
11913,16853
11931,16793
11939,16767
11961,16725
11981,16688
12002,16663
12038,16619
12107,16562
12186,16520
12228,16507
12271,16494
12360,16486
12449,16494
" /> 
<polyline style="fill-rule:evenodd;"
points="37472,15934
37528,15939
37616,15966
37697,16010
37769,16068
37827,16140
37871,16221
37897,16309
37906,16401
37897,16493
37871,16581
37827,16663
37769,16734
37697,16793
37616,16836
37528,16863
37472,16868
37459,16870
36633,16870
36619,16868
36564,16863
36476,16836
36395,16793
36323,16734
36265,16663
36221,16581
36194,16493
36185,16401
36194,16309
36221,16221
36265,16140
36323,16068
36395,16010
36476,15966
36564,15939
36619,15934
36633,15933
37459,15933
37472,15934
" /> 
<polyline style="fill-rule:evenodd;"
points="23487,15548
23507,15554
23526,15564
23542,15578
23556,15594
23566,15613
23572,15633
23574,15657
23574,16006
23572,16030
23566,16050
23556,16069
23542,16085
23526,16098
23507,16108
23487,16115
23464,16117
23153,16117
23130,16115
23110,16108
23091,16098
23075,16085
23061,16069
23051,16050
23045,16030
23043,16006
23043,15657
23045,15633
23051,15613
23061,15594
23075,15578
23091,15564
23110,15554
23130,15548
23153,15546
23464,15546
23487,15548
" /> 
<polyline style="fill-rule:evenodd;"
points="18515,15527
18535,15534
18554,15544
18570,15557
18583,15573
18593,15592
18600,15612
18602,15636
18602,15985
18600,16009
18593,16029
18583,16048
18570,16064
18554,16078
18535,16087
18515,16094
18491,16096
18181,16096
18158,16094
18137,16087
18119,16078
18102,16064
18089,16048
18079,16029
18073,16009
18070,15985
18070,15636
18073,15612
18079,15592
18089,15573
18102,15557
18119,15544
18137,15534
18158,15527
18181,15525
18491,15525
18515,15527
" /> 
<polyline style="fill-rule:evenodd;"
points="4023,15419
4043,15425
4062,15435
4078,15449
4092,15465
4102,15484
4108,15504
4110,15528
4110,15877
4108,15900
4102,15921
4092,15939
4078,15956
4062,15969
4043,15979
4023,15985
4000,15988
3690,15988
3666,15985
3646,15979
3627,15969
3611,15956
3597,15939
3587,15921
3581,15900
3579,15877
3579,15528
3581,15504
3587,15484
3597,15465
3611,15449
3627,15435
3646,15425
3666,15419
3690,15417
4000,15417
4023,15419
" /> 
<polyline style="fill-rule:evenodd;"
points="13773,15419
13794,15425
13812,15435
13829,15449
13842,15465
13852,15484
13858,15504
13861,15528
13861,15877
13858,15900
13852,15921
13842,15939
13829,15956
13812,15969
13794,15979
13773,15985
13750,15988
13440,15988
13416,15985
13396,15979
13377,15969
13361,15956
13348,15939
13338,15921
13331,15900
13329,15877
13329,15528
13331,15504
13338,15484
13348,15465
13361,15449
13377,15435
13396,15425
13416,15419
13440,15417
13750,15417
13773,15419
" /> 
<polyline style="fill-rule:evenodd;"
points="8898,15419
8919,15425
8937,15435
8954,15449
8967,15465
8977,15484
8983,15504
8985,15528
8985,15877
8983,15900
8977,15921
8967,15939
8954,15956
8937,15969
8919,15979
8898,15985
8875,15988
8565,15988
8541,15985
8521,15979
8502,15969
8486,15956
8472,15939
8462,15921
8456,15900
8454,15877
8454,15528
8456,15504
8462,15484
8472,15465
8486,15449
8502,15435
8521,15425
8541,15419
8565,15417
8875,15417
8898,15419
" /> 
<polyline style="fill-rule:evenodd;"
points="11261,14826
11265,14827
11273,14827
11293,14829
11326,14835
11338,14839
11343,14840
11343,14840
11346,14841
11377,14854
11395,14864
11423,14882
11438,14895
11462,14919
11475,14935
11494,14963
11504,14981
11517,15012
11522,15032
11529,15065
11531,15085
11531,15092
11531,15097
11532,15104
11532,15296
11530,15314
11530,15314
11530,15314
11526,15329
11526,15329
11523,15335
11519,15343
11517,15353
11517,15363
11519,15372
11523,15381
11526,15387
11530,15401
11532,15419
11532,15611
11531,15618
11531,15623
11531,15631
11529,15651
11522,15684
11517,15703
11504,15735
11494,15753
11475,15781
11462,15796
11438,15820
11423,15833
11395,15852
11377,15862
11346,15874
11343,15875
11343,15875
11339,15876
11326,15880
11293,15887
11273,15889
11265,15889
11261,15889
11253,15890
11061,15890
11054,15889
11049,15889
11042,15889
11022,15887
10989,15880
10975,15876
10971,15875
10971,15875
10969,15874
10938,15862
10920,15852
10892,15833
10876,15820
10852,15796
10839,15781
10821,15753
10811,15735
10798,15703
10792,15684
10786,15651
10784,15631
10784,15623
10783,15618
10783,15611
10783,15419
10784,15401
10789,15387
10792,15381
10796,15372
10798,15363
10798,15353
10796,15343
10792,15335
10789,15329
10789,15329
10784,15314
10784,15314
10784,15314
10783,15296
10783,15104
10783,15097
10784,15092
10784,15085
10786,15065
10792,15032
10798,15012
10811,14981
10821,14963
10839,14935
10852,14919
10876,14895
10892,14882
10920,14864
10938,14854
10969,14841
10971,14840
10971,14840
10977,14839
10989,14835
11022,14829
11042,14827
11049,14827
11054,14826
11061,14826
11253,14826
11261,14826
" /> 
<polyline style="fill-rule:evenodd;"
points="16136,14826
16141,14827
16148,14827
16168,14829
16201,14835
16213,14839
16218,14840
16218,14840
16221,14841
16252,14854
16270,14864
16298,14882
16314,14895
16338,14919
16350,14935
16369,14963
16379,14981
16392,15012
16398,15032
16404,15065
16406,15085
16406,15092
16406,15097
16407,15104
16407,15296
16405,15314
16405,15314
16405,15314
16401,15329
16401,15329
16398,15335
16394,15343
16392,15353
16392,15363
16394,15372
16398,15381
16401,15387
16405,15401
16407,15419
16407,15611
16406,15618
16406,15623
16406,15631
16404,15651
16398,15684
16392,15703
16379,15735
16369,15753
16350,15781
16338,15796
16314,15820
16298,15833
16270,15852
16252,15862
16221,15874
16218,15875
16218,15875
16214,15876
16201,15880
16168,15887
16148,15889
16141,15889
16136,15889
16129,15890
15936,15890
15929,15889
15924,15889
15917,15889
15897,15887
15864,15880
15851,15876
15847,15875
15847,15875
15844,15874
15813,15862
15795,15852
15767,15833
15751,15820
15728,15796
15715,15781
15696,15753
15686,15735
15673,15703
15667,15684
15661,15651
15659,15631
15659,15623
15659,15618
15658,15611
15658,15419
15660,15401
15664,15387
15667,15381
15671,15372
15673,15363
15673,15353
15671,15343
15667,15335
15664,15329
15664,15329
15660,15314
15660,15314
15660,15314
15658,15296
15658,15104
15659,15097
15659,15092
15659,15085
15661,15065
15667,15032
15673,15012
15686,14981
15696,14963
15715,14935
15728,14919
15751,14895
15767,14882
15795,14864
15813,14854
15844,14841
15847,14840
15847,14840
15852,14839
15864,14835
15897,14829
15917,14827
15924,14827
15929,14826
15936,14826
16129,14826
16136,14826
" /> 
<polyline style="fill-rule:evenodd;"
points="6385,14826
6390,14827
6397,14827
6418,14829
6451,14835
6462,14839
6468,14840
6468,14840
6470,14841
6502,14854
6519,14864
6548,14882
6563,14895
6587,14919
6600,14935
6619,14963
6628,14981
6641,15012
6647,15032
6654,15065
6656,15085
6656,15092
6656,15097
6657,15104
6657,15296
6655,15314
6655,15314
6655,15314
6651,15329
6651,15329
6648,15335
6644,15343
6642,15353
6642,15363
6644,15372
6648,15381
6651,15387
6655,15401
6657,15419
6657,15611
6656,15618
6656,15623
6656,15631
6654,15651
6647,15684
6641,15703
6628,15735
6619,15753
6600,15781
6587,15796
6563,15820
6548,15833
6519,15852
6502,15862
6470,15874
6468,15875
6468,15875
6464,15876
6451,15880
6418,15887
6397,15889
6390,15889
6385,15889
6378,15890
6186,15890
6179,15889
6174,15889
6167,15889
6147,15887
6113,15880
6100,15876
6096,15875
6096,15875
6094,15874
6063,15862
6045,15852
6017,15833
6001,15820
5977,15796
5964,15781
5945,15753
5936,15735
5923,15703
5917,15684
5910,15651
5908,15631
5908,15623
5908,15618
5908,15611
5908,15419
5909,15401
5914,15387
5917,15381
5920,15372
5922,15363
5922,15353
5920,15343
5917,15335
5914,15329
5914,15329
5909,15314
5909,15314
5909,15314
5908,15296
5908,15104
5908,15097
5908,15092
5908,15085
5910,15065
5917,15032
5923,15012
5936,14981
5945,14963
5964,14935
5977,14919
6001,14895
6017,14882
6045,14864
6063,14854
6094,14841
6096,14840
6096,14840
6102,14839
6113,14835
6147,14829
6167,14827
6174,14827
6179,14826
6186,14826
6378,14826
6385,14826
" /> 
<polyline style="fill-rule:evenodd;"
points="1510,14826
1515,14827
1522,14827
1543,14829
1576,14835
1587,14839
1593,14840
1593,14840
1595,14841
1626,14854
1644,14864
1672,14882
1688,14895
1712,14919
1725,14935
1744,14963
1753,14981
1766,15012
1772,15032
1779,15065
1781,15085
1781,15092
1781,15097
1782,15104
1782,15296
1780,15314
1780,15314
1780,15314
1775,15329
1775,15329
1772,15335
1769,15343
1767,15353
1767,15363
1769,15372
1772,15381
1775,15387
1780,15401
1782,15419
1782,15611
1781,15618
1781,15623
1781,15631
1779,15651
1772,15684
1766,15703
1753,15735
1744,15753
1725,15781
1712,15796
1688,15820
1672,15833
1644,15852
1626,15862
1595,15874
1593,15875
1593,15875
1589,15876
1576,15880
1543,15887
1522,15889
1515,15889
1510,15889
1503,15890
1311,15890
1304,15889
1299,15889
1292,15889
1271,15887
1238,15880
1225,15876
1221,15875
1221,15875
1219,15874
1188,15862
1170,15852
1142,15833
1126,15820
1102,15796
1089,15781
1070,15753
1061,15735
1048,15703
1042,15684
1035,15651
1033,15631
1033,15623
1033,15618
1032,15611
1032,15419
1034,15401
1039,15387
1042,15381
1045,15372
1047,15363
1047,15353
1045,15343
1042,15335
1039,15329
1039,15329
1034,15314
1034,15314
1034,15314
1032,15296
1032,15104
1033,15097
1033,15092
1033,15085
1035,15065
1042,15032
1048,15012
1061,14981
1070,14963
1089,14935
1102,14919
1126,14895
1142,14882
1170,14864
1188,14854
1219,14841
1221,14840
1221,14840
1227,14839
1238,14835
1271,14829
1292,14827
1299,14827
1304,14826
1311,14826
1503,14826
1510,14826
" /> 
<polyline style="fill-rule:evenodd;"
points="21112,14826
21117,14827
21124,14827
21144,14829
21177,14835
21189,14839
21194,14840
21194,14840
21197,14841
21228,14854
21246,14864
21274,14882
21290,14895
21314,14919
21326,14935
21345,14963
21355,14981
21368,15012
21374,15032
21380,15065
21382,15085
21382,15092
21382,15097
21383,15104
21383,15296
21381,15314
21381,15314
21381,15314
21377,15329
21377,15329
21374,15335
21370,15343
21368,15353
21368,15363
21370,15372
21374,15381
21377,15387
21381,15401
21383,15419
21383,15611
21382,15618
21382,15623
21382,15631
21380,15651
21374,15684
21368,15703
21355,15735
21345,15753
21326,15781
21314,15796
21290,15820
21274,15833
21246,15852
21228,15862
21197,15874
21194,15875
21194,15875
21191,15876
21177,15880
21144,15887
21124,15889
21117,15889
21112,15889
21105,15890
20913,15890
20905,15889
20901,15889
20893,15889
20873,15887
20840,15880
20827,15876
20823,15875
20823,15875
20820,15874
20789,15862
20771,15852
20743,15833
20727,15820
20704,15796
20691,15781
20672,15753
20662,15735
20649,15703
20643,15684
20637,15651
20635,15631
20635,15623
20635,15618
20634,15611
20634,15419
20636,15401
20640,15387
20643,15381
20647,15372
20649,15363
20649,15353
20647,15343
20643,15335
20640,15329
20640,15329
20636,15314
20636,15314
20636,15314
20634,15296
20634,15104
20635,15097
20635,15092
20635,15085
20637,15065
20643,15032
20649,15012
20662,14981
20672,14963
20691,14935
20704,14919
20727,14895
20743,14882
20771,14864
20789,14854
20820,14841
20823,14840
20823,14840
20828,14839
20840,14835
20873,14829
20893,14827
20901,14827
20905,14826
20913,14826
21105,14826
21112,14826
" /> 
<polyline style="fill-rule:evenodd;"
points="23487,14859
23507,14865
23526,14875
23542,14889
23556,14905
23566,14924
23572,14944
23574,14968
23574,15317
23572,15341
23566,15361
23556,15380
23542,15396
23526,15409
23507,15419
23487,15426
23464,15428
23153,15428
23130,15426
23110,15419
23091,15409
23075,15396
23061,15380
23051,15361
23045,15341
23043,15317
23043,14968
23045,14944
23051,14924
23061,14905
23075,14889
23091,14875
23110,14865
23130,14859
23153,14857
23464,14857
23487,14859
" /> 
<polyline style="fill-rule:evenodd;"
points="18515,14838
18535,14845
18554,14855
18570,14868
18583,14884
18593,14903
18600,14923
18602,14947
18602,15296
18600,15320
18593,15340
18583,15359
18570,15375
18554,15389
18535,15399
18515,15405
18491,15407
18181,15407
18158,15405
18137,15399
18119,15389
18102,15375
18089,15359
18079,15340
18073,15320
18070,15296
18070,14947
18073,14923
18079,14903
18089,14884
18102,14868
18119,14855
18137,14845
18158,14838
18181,14836
18491,14836
18515,14838
" /> 
<polyline style="fill-rule:evenodd;"
points="13773,14730
13794,14736
13812,14746
13829,14760
13842,14776
13852,14795
13858,14815
13861,14839
13861,15188
13858,15212
13852,15232
13842,15250
13829,15267
13812,15280
13794,15290
13773,15296
13750,15299
13440,15299
13416,15296
13396,15290
13377,15280
13361,15267
13348,15250
13338,15232
13331,15212
13329,15188
13329,14839
13331,14815
13338,14795
13348,14776
13361,14760
13377,14746
13396,14736
13416,14730
13440,14728
13750,14728
13773,14730
" /> 
<polyline style="fill-rule:evenodd;"
points="8898,14730
8919,14736
8937,14746
8954,14760
8967,14776
8977,14795
8983,14815
8985,14839
8985,15188
8983,15212
8977,15232
8967,15250
8954,15267
8937,15280
8919,15290
8898,15296
8875,15299
8565,15299
8541,15296
8521,15290
8502,15280
8486,15267
8472,15250
8462,15232
8456,15212
8454,15188
8454,14839
8456,14815
8462,14795
8472,14776
8486,14760
8502,14746
8521,14736
8541,14730
8565,14728
8875,14728
8898,14730
" /> 
<polyline style="fill-rule:evenodd;"
points="4023,14730
4043,14736
4062,14746
4078,14760
4092,14776
4102,14795
4108,14815
4110,14839
4110,15188
4108,15212
4102,15232
4092,15250
4078,15267
4062,15280
4043,15290
4023,15296
4000,15299
3690,15299
3666,15296
3646,15290
3627,15280
3611,15267
3597,15250
3587,15232
3581,15212
3579,15188
3579,14839
3581,14815
3587,14795
3597,14776
3611,14760
3627,14746
3646,14736
3666,14730
3690,14728
4000,14728
4023,14730
" /> 
<polyline style="fill-rule:evenodd;"
points="27207,14723
27227,14730
27246,14740
27262,14753
27276,14769
27286,14788
27292,14808
27294,14832
27294,15142
27292,15165
27286,15186
27276,15204
27262,15221
27246,15234
27227,15244
27207,15250
27183,15253
26834,15253
26810,15250
26790,15244
26771,15234
26755,15221
26742,15204
26732,15186
26725,15165
26723,15142
26723,14832
26725,14808
26732,14788
26742,14769
26755,14753
26771,14740
26790,14730
26810,14723
26834,14721
27183,14721
27207,14723
" /> 
<polyline style="fill-rule:evenodd;"
points="26518,14723
26538,14730
26557,14740
26573,14753
26587,14769
26597,14788
26603,14808
26605,14832
26605,15142
26603,15165
26597,15186
26587,15204
26573,15221
26557,15234
26538,15244
26518,15250
26494,15253
26145,15253
26121,15250
26101,15244
26082,15234
26066,15221
26053,15204
26043,15186
26036,15165
26034,15142
26034,14832
26036,14808
26043,14788
26053,14769
26066,14753
26082,14740
26101,14730
26121,14723
26145,14721
26494,14721
26518,14723
" /> 
<polyline style="fill-rule:evenodd;"
points="5232,13160
5299,13181
5361,13214
5416,13258
5460,13313
5494,13375
5514,13442
5521,13515
5521,14327
5514,14399
5494,14467
5460,14529
5416,14583
5361,14628
5299,14661
5232,14681
5159,14688
4347,14688
4275,14681
4208,14661
4146,14628
4091,14583
4046,14529
4013,14467
3993,14399
3986,14327
3986,13515
3993,13442
4013,13375
4046,13313
4091,13258
4146,13214
4208,13181
4275,13160
4347,13153
5159,13153
5232,13160
" /> 
<polyline style="fill-rule:evenodd;"
points="37895,14114
36179,14114
36179,13177
37895,13177
37895,14114
" /> 
<polyline style="fill-rule:evenodd;"
points="10379,14013
9238,14013
9238,12547
10379,12547
10379,14013
" /> 
<polyline style="fill-rule:evenodd;"
points="27135,13960
25994,13960
25994,13409
27135,13409
27135,13960
" /> 
<polyline style="fill-rule:evenodd;"
points="33120,13960
31978,13960
31978,13409
33120,13409
33120,13960
" /> 
<polyline style="fill-rule:evenodd;"
points="33987,13348
34007,13354
34026,13364
34042,13378
34056,13394
34066,13413
34072,13433
34074,13457
34074,13806
34072,13830
34066,13850
34056,13869
34042,13885
34026,13898
34007,13908
33987,13915
33964,13917
33653,13917
33630,13915
33610,13908
33591,13898
33575,13885
33561,13869
33551,13850
33545,13830
33543,13806
33543,13457
33545,13433
33551,13413
33561,13394
33575,13378
33591,13364
33610,13354
33630,13348
33653,13346
33964,13346
33987,13348
" /> 
<polyline style="fill-rule:evenodd;"
points="11307,13915
10914,13915
10914,13167
11307,13167
11307,13915
" /> 
<polyline style="fill-rule:evenodd;"
points="13307,13915
12914,13915
12914,13167
13307,13167
13307,13915
" /> 
<polyline style="fill-rule:evenodd;"
points="13807,13915
13414,13915
13414,13167
13807,13167
13807,13915
" /> 
<polyline style="fill-rule:evenodd;"
points="12307,13915
11914,13915
11914,13167
12307,13167
12307,13915
" /> 
<polyline style="fill-rule:evenodd;"
points="12807,13915
12414,13915
12414,13167
12807,13167
12807,13915
" /> 
<polyline style="fill-rule:evenodd;"
points="14307,13915
13914,13915
13914,13167
14307,13167
14307,13915
" /> 
<polyline style="fill-rule:evenodd;"
points="14807,13915
14414,13915
14414,13167
14807,13167
14807,13915
" /> 
<polyline style="fill-rule:evenodd;"
points="11807,13915
11414,13915
11414,13167
11807,13167
11807,13915
" /> 
<polyline style="fill-rule:evenodd;"
points="16025,13382
16045,13388
16063,13398
16080,13411
16093,13428
16103,13446
16109,13467
16112,13490
16112,13800
16109,13824
16103,13844
16093,13863
16080,13879
16063,13892
16045,13902
16025,13909
16001,13911
15652,13911
15628,13909
15608,13902
15589,13892
15573,13879
15559,13863
15549,13844
15543,13824
15541,13800
15541,13490
15543,13467
15549,13446
15559,13428
15573,13411
15589,13398
15608,13388
15628,13382
15652,13379
16001,13379
16025,13382
" /> 
<polyline style="fill-rule:evenodd;"
points="16713,13382
16734,13388
16752,13398
16769,13411
16782,13428
16792,13446
16798,13467
16801,13490
16801,13800
16798,13824
16792,13844
16782,13863
16769,13879
16752,13892
16734,13902
16713,13909
16690,13911
16341,13911
16317,13909
16297,13902
16278,13892
16262,13879
16248,13863
16238,13844
16232,13824
16230,13800
16230,13490
16232,13467
16238,13446
16248,13428
16262,13411
16278,13398
16297,13388
16317,13382
16341,13379
16690,13379
16713,13382
" /> 
<polyline style="fill-rule:evenodd;"
points="8118,13023
8138,13030
8157,13040
8173,13053
8187,13069
8197,13088
8203,13108
8205,13132
8205,13442
8203,13465
8197,13486
8187,13504
8173,13521
8157,13534
8138,13544
8118,13550
8094,13553
7745,13553
7721,13550
7701,13544
7682,13534
7666,13521
7653,13504
7643,13486
7636,13465
7634,13442
7634,13132
7636,13108
7643,13088
7653,13069
7666,13053
7682,13040
7701,13030
7721,13023
7745,13021
8094,13021
8118,13023
" /> 
<polyline style="fill-rule:evenodd;"
points="8807,13023
8827,13030
8846,13040
8862,13053
8876,13069
8886,13088
8892,13108
8894,13132
8894,13442
8892,13465
8886,13486
8876,13504
8862,13521
8846,13534
8827,13544
8807,13550
8783,13553
8434,13553
8410,13550
8390,13544
8371,13534
8355,13521
8342,13504
8332,13486
8325,13465
8323,13442
8323,13132
8325,13108
8332,13088
8342,13069
8355,13053
8371,13040
8390,13030
8410,13023
8434,13021
8783,13021
8807,13023
" /> 
<polyline style="fill-rule:evenodd;"
points="33987,12659
34007,12665
34026,12675
34042,12689
34056,12705
34066,12724
34072,12744
34074,12768
34074,13117
34072,13141
34066,13161
34056,13180
34042,13196
34026,13209
34007,13219
33987,13226
33964,13228
33653,13228
33630,13226
33610,13219
33591,13209
33575,13196
33561,13180
33551,13161
33545,13141
33543,13117
33543,12768
33545,12744
33551,12724
33561,12705
33575,12689
33591,12675
33610,12665
33630,12659
33653,12657
33964,12657
33987,12659
" /> 
<polyline style="fill-rule:evenodd;"
points="33120,13173
31978,13173
31978,12622
33120,12622
33120,13173
" /> 
<polyline style="fill-rule:evenodd;"
points="27135,13173
25994,13173
25994,12622
27135,12622
27135,13173
" /> 
<polyline style="fill-rule:evenodd;"
points="16916,11419
16939,11426
16960,11437
16978,11452
16994,11471
17005,11492
17012,11515
17015,11541
17015,12157
17013,12177
17013,12187
17015,12196
17018,12205
17024,12213
17030,12220
17038,12225
17047,12229
17062,12231
17375,12231
17384,12230
17394,12227
17402,12223
17410,12217
17416,12209
17420,12201
17423,12191
17424,12182
17424,11416
18015,11416
18015,12282
17562,12282
17552,12283
17543,12286
17534,12290
17527,12297
17521,12304
17516,12313
17513,12322
17513,12336
17515,12356
17515,12972
17512,12998
17505,13021
17494,13042
17478,13061
17460,13076
17439,13088
17416,13095
17389,13097
17050,13097
17023,13095
17000,13088
16979,13076
16960,13061
16945,13042
16934,13021
16927,12998
16924,12972
16924,12356
16926,12336
16926,12327
16924,12317
16921,12308
16915,12300
16908,12293
16900,12288
16891,12284
16877,12282
16550,12282
16523,12280
16500,12273
16479,12261
16460,12246
16445,12227
16434,12206
16427,12183
16424,12157
16424,11541
16427,11515
16434,11492
16445,11471
16460,11452
16479,11437
16500,11426
16523,11419
16550,11416
16889,11416
16916,11419
" /> 
<polyline style="fill-rule:evenodd;"
points="15887,12525
15907,12532
15926,12542
15942,12555
15956,12571
15966,12590
15972,12610
15974,12634
15974,12983
15972,13007
15966,13027
15956,13046
15942,13062
15926,13076
15907,13086
15887,13092
15864,13094
15553,13094
15530,13092
15510,13086
15491,13076
15475,13062
15461,13046
15451,13027
15445,13007
15443,12983
15443,12634
15445,12610
15451,12590
15461,12571
15475,12555
15491,12542
15510,12532
15530,12525
15553,12523
15864,12523
15887,12525
" /> 
<polyline style="fill-rule:evenodd;"
points="21309,12877
20482,12877
20482,12051
21309,12051
21309,12877
" /> 
<polyline style="fill-rule:evenodd;"
points="21946,12054
21976,12057
22014,12068
22054,12080
22126,12119
22189,12170
22241,12233
22279,12305
22283,12317
22303,12383
22311,12464
22303,12545
22295,12569
22279,12623
22241,12695
22189,12758
22126,12809
22054,12848
22028,12856
21976,12871
21946,12874
21915,12877
21875,12877
21844,12874
21814,12871
21762,12856
21736,12848
21664,12809
21601,12758
21550,12695
21511,12623
21495,12569
21488,12545
21480,12464
21488,12383
21508,12317
21511,12305
21550,12233
21601,12170
21664,12119
21736,12080
21776,12068
21814,12057
21844,12054
21875,12051
21915,12051
21946,12054
" /> 
<polyline style="fill-rule:evenodd;"
points="22946,12054
22976,12057
23014,12068
23054,12080
23126,12119
23189,12170
23241,12233
23279,12305
23283,12317
23303,12383
23311,12464
23303,12545
23295,12569
23279,12623
23241,12695
23189,12758
23126,12809
23054,12848
23028,12856
22976,12871
22946,12874
22915,12877
22875,12877
22844,12874
22814,12871
22762,12856
22736,12848
22664,12809
22601,12758
22550,12695
22511,12623
22495,12569
22488,12545
22480,12464
22488,12383
22508,12317
22511,12305
22550,12233
22601,12170
22664,12119
22736,12080
22776,12068
22814,12057
22844,12054
22875,12051
22915,12051
22946,12054
" /> 
<polyline style="fill-rule:evenodd;"
points="3992,11309
4050,11326
4104,11355
4151,11394
4189,11441
4218,11494
4235,11552
4242,11615
4242,12526
4235,12588
4218,12647
4189,12700
4151,12747
4104,12786
4050,12814
3992,12832
3929,12838
3216,12838
3153,12832
3095,12814
3041,12786
2994,12747
2955,12700
2927,12647
2909,12588
2903,12526
2903,11615
2909,11552
2927,11494
2955,11441
2994,11394
3041,11355
3095,11326
3153,11309
3216,11303
3929,11303
3992,11309
" /> 
<polyline style="fill-rule:evenodd;"
points="6702,12838
5167,12838
5167,11303
6702,11303
6702,12838
" /> 
<polyline style="fill-rule:evenodd;"
points="15887,11836
15907,11843
15926,11853
15942,11866
15956,11882
15966,11901
15972,11921
15974,11945
15974,12294
15972,12318
15966,12338
15956,12357
15942,12373
15926,12387
15907,12397
15887,12403
15864,12405
15553,12405
15530,12403
15510,12397
15491,12387
15475,12373
15461,12357
15451,12338
15445,12318
15443,12294
15443,11945
15445,11921
15451,11901
15461,11882
15475,11866
15491,11853
15510,11843
15530,11836
15553,11834
15864,11834
15887,11836
" /> 
<polyline style="fill-rule:evenodd;"
points="33120,12385
31978,12385
31978,11834
33120,11834
33120,12385
" /> 
<polyline style="fill-rule:evenodd;"
points="27135,12385
25994,12385
25994,11834
27135,11834
27135,12385
" /> 
<polyline style="fill-rule:evenodd;"
points="37463,11210
37519,11215
37607,11242
37688,11285
37760,11344
37818,11415
37862,11497
37888,11585
37897,11677
37888,11769
37862,11857
37818,11938
37760,12010
37688,12068
37607,12112
37519,12138
37463,12144
37450,12145
36624,12145
36610,12144
36555,12138
36467,12112
36386,12068
36314,12010
36256,11938
36212,11857
36185,11769
36176,11677
36185,11585
36212,11497
36256,11415
36314,11344
36386,11285
36467,11242
36555,11215
36610,11210
36624,11208
37450,11208
37463,11210
" /> 
<polyline style="fill-rule:evenodd;"
points="10379,11720
9238,11720
9238,10254
10379,10254
10379,11720
" /> 
<polyline style="fill-rule:evenodd;"
points="33120,11598
31978,11598
31978,11047
33120,11047
33120,11598
" /> 
<polyline style="fill-rule:evenodd;"
points="27135,11598
25994,11598
25994,11047
27135,11047
27135,11598
" /> 
<polyline style="fill-rule:evenodd;"
points="8796,10723
8816,10730
8835,10740
8851,10753
8865,10769
8875,10788
8881,10808
8883,10832
8883,11142
8881,11165
8875,11186
8865,11204
8851,11221
8835,11234
8816,11244
8796,11250
8772,11253
8423,11253
8399,11250
8379,11244
8360,11234
8344,11221
8331,11204
8321,11186
8314,11165
8312,11142
8312,10832
8314,10808
8321,10788
8331,10769
8344,10753
8360,10740
8379,10730
8399,10723
8423,10721
8772,10721
8796,10723
" /> 
<polyline style="fill-rule:evenodd;"
points="8107,10723
8127,10730
8146,10740
8162,10753
8176,10769
8186,10788
8192,10808
8194,10832
8194,11142
8192,11165
8186,11186
8176,11204
8162,11221
8146,11234
8127,11244
8107,11250
8083,11253
7734,11253
7710,11250
7690,11244
7671,11234
7655,11221
7642,11204
7632,11186
7625,11165
7623,11142
7623,10832
7625,10808
7632,10788
7642,10769
7655,10753
7671,10740
7690,10730
7710,10723
7734,10721
8083,10721
8107,10723
" /> 
<polyline style="fill-rule:evenodd;"
points="14807,11120
14414,11120
14414,10372
14807,10372
14807,11120
" /> 
<polyline style="fill-rule:evenodd;"
points="11307,11120
10914,11120
10914,10372
11307,10372
11307,11120
" /> 
<polyline style="fill-rule:evenodd;"
points="14307,11120
13914,11120
13914,10372
14307,10372
14307,11120
" /> 
<polyline style="fill-rule:evenodd;"
points="13807,11120
13414,11120
13414,10372
13807,10372
13807,11120
" /> 
<polyline style="fill-rule:evenodd;"
points="12807,11120
12414,11120
12414,10372
12807,10372
12807,11120
" /> 
<polyline style="fill-rule:evenodd;"
points="12307,11120
11914,11120
11914,10372
12307,10372
12307,11120
" /> 
<polyline style="fill-rule:evenodd;"
points="11807,11120
11414,11120
11414,10372
11807,10372
11807,11120
" /> 
<polyline style="fill-rule:evenodd;"
points="13307,11120
12914,11120
12914,10372
13307,10372
13307,11120
" /> 
<polyline style="fill-rule:evenodd;"
points="16907,10523
16927,10530
16946,10540
16962,10553
16976,10569
16986,10588
16992,10608
16994,10632
16994,10942
16992,10965
16986,10986
16976,11004
16962,11021
16946,11034
16927,11044
16907,11050
16883,11053
16534,11053
16510,11050
16490,11044
16471,11034
16455,11021
16442,11004
16432,10986
16425,10965
16423,10942
16423,10632
16425,10608
16432,10588
16442,10569
16455,10553
16471,10540
16490,10530
16510,10523
16534,10521
16883,10521
16907,10523
" /> 
<polyline style="fill-rule:evenodd;"
points="16218,10523
16238,10530
16257,10540
16273,10553
16287,10569
16297,10588
16303,10608
16305,10632
16305,10942
16303,10965
16297,10986
16287,11004
16273,11021
16257,11034
16238,11044
16218,11050
16194,11053
15845,11053
15821,11050
15801,11044
15782,11034
15766,11021
15753,11004
15743,10986
15736,10965
15734,10942
15734,10632
15736,10608
15743,10588
15753,10569
15766,10553
15782,10540
15801,10530
15821,10523
15845,10521
16194,10521
16218,10523
" /> 
<polyline style="fill-rule:evenodd;"
points="33120,10811
31978,10811
31978,10259
33120,10259
33120,10811
" /> 
<polyline style="fill-rule:evenodd;"
points="27135,10811
25994,10811
25994,10259
27135,10259
27135,10811
" /> 
<polyline style="fill-rule:evenodd;"
points="8118,9623
8138,9630
8157,9640
8173,9653
8187,9669
8197,9688
8203,9708
8205,9732
8205,10042
8203,10065
8197,10086
8187,10104
8173,10121
8157,10134
8138,10144
8118,10150
8094,10153
7745,10153
7721,10150
7701,10144
7682,10134
7666,10121
7653,10104
7643,10086
7636,10065
7634,10042
7634,9732
7636,9708
7643,9688
7653,9669
7666,9653
7682,9640
7701,9630
7721,9623
7745,9621
8094,9621
8118,9623
" /> 
<polyline style="fill-rule:evenodd;"
points="8807,9623
8827,9630
8846,9640
8862,9653
8876,9669
8886,9688
8892,9708
8894,9732
8894,10042
8892,10065
8886,10086
8876,10104
8862,10121
8846,10134
8827,10144
8807,10150
8783,10153
8434,10153
8410,10150
8390,10144
8371,10134
8355,10121
8342,10104
8332,10086
8325,10065
8323,10042
8323,9732
8325,9708
8332,9688
8342,9669
8355,9653
8371,9640
8390,9630
8410,9623
8434,9621
8783,9621
8807,9623
" /> 
<polyline style="fill-rule:evenodd;"
points="27135,10023
25994,10023
25994,9472
27135,9472
27135,10023
" /> 
<polyline style="fill-rule:evenodd;"
points="33120,10023
31978,10023
31978,9472
33120,9472
33120,10023
" /> 
<polyline style="fill-rule:evenodd;"
points="7293,9748
5757,9748
5757,8881
7293,8881
7293,9748
" /> 
<polyline style="fill-rule:evenodd;"
points="5324,9748
3789,9748
3789,8881
5324,8881
5324,9748
" /> 
<polyline style="fill-rule:evenodd;"
points="37904,9389
36188,9389
36188,8452
37904,8452
37904,9389
" /> 
<polyline style="fill-rule:evenodd;"
points="27135,9236
25994,9236
25994,8685
27135,8685
27135,9236
" /> 
<polyline style="fill-rule:evenodd;"
points="33120,9236
31978,9236
31978,8685
33120,8685
33120,9236
" /> 
<polyline style="fill-rule:evenodd;"
points="8864,9011
7919,9011
7919,8263
8864,8263
8864,9011
" /> 
<polyline style="fill-rule:evenodd;"
points="1301,5554
1316,5555
1346,5564
1376,5573
1430,5602
1478,5642
1518,5690
1547,5745
1549,5752
1553,5761
1558,5769
1565,5776
1569,5779
1569,5848
1570,5853
1571,5866
1570,5879
1569,5884
1569,8604
1570,8608
1571,8622
1570,8635
1569,8639
1569,8708
1569,8709
1561,8715
1555,8722
1551,8731
1549,8735
1547,8743
1518,8797
1478,8845
1430,8885
1376,8914
1346,8923
1316,8932
1301,8933
1270,8937
963,8937
933,8933
917,8932
887,8923
858,8914
803,8885
755,8845
716,8797
686,8743
684,8735
680,8726
675,8718
668,8711
664,8708
664,8639
664,8635
662,8622
664,8608
664,8604
664,5884
664,5879
662,5866
664,5853
664,5848
664,5779
664,5779
672,5772
678,5765
683,5757
684,5752
686,5745
716,5690
755,5642
803,5602
858,5573
887,5564
917,5555
933,5554
963,5551
1270,5551
1301,5554
" /> 
<polyline style="fill-rule:evenodd;"
points="2286,5909
2286,5909
2286,5909
2352,5937
2352,5937
2412,5976
2462,6027
2462,6027
2502,6087
2513,6112
2530,6153
2544,6223
2544,6295
2530,6366
2530,6366
2502,6432
2502,6432
2462,6493
2458,6498
2453,6506
2450,6515
2449,6525
2450,6535
2453,6544
2458,6552
2464,6560
2471,6566
2480,6571
2489,6573
2498,6574
2524,6574
2524,7913
2498,7913
2489,7914
2480,7917
2471,7921
2464,7927
2458,7935
2453,7943
2450,7952
2449,7962
2450,7972
2453,7981
2458,7989
2462,7994
2462,7996
2502,8055
2509,8070
2530,8122
2544,8192
2544,8264
2530,8334
2530,8334
2502,8400
2468,8452
2462,8460
2412,8511
2412,8511
2352,8551
2301,8572
2286,8578
2215,8592
2144,8592
2073,8578
2058,8572
2007,8551
1947,8511
1947,8511
1897,8460
1891,8452
1857,8400
1829,8334
1829,8334
1815,8264
1815,8192
1829,8122
1851,8070
1857,8055
1897,7996
1898,7994
1902,7989
1906,7981
1909,7972
1910,7962
1909,7952
1906,7943
1902,7935
1896,7927
1888,7921
1880,7917
1870,7914
1861,7913
1835,7913
1835,6574
1861,6574
1870,6573
1880,6571
1888,6566
1896,6560
1902,6552
1906,6544
1909,6535
1910,6525
1909,6515
1906,6506
1902,6498
1898,6493
1857,6432
1857,6432
1829,6366
1829,6366
1815,6295
1815,6223
1829,6153
1846,6112
1857,6087
1897,6027
1897,6027
1947,5976
2007,5937
2007,5937
2073,5909
2073,5909
2073,5909
2144,5895
2215,5895
2286,5909
" /> 
<polyline style="fill-rule:evenodd;"
points="11344,8559
10399,8559
10399,6905
11344,6905
11344,8559
" /> 
<polyline style="fill-rule:evenodd;"
points="5028,7787
5047,7793
5064,7802
5079,7814
5091,7829
5100,7846
5106,7864
5108,7886
5108,8353
5106,8375
5100,8393
5091,8410
5079,8425
5064,8437
5047,8447
5028,8452
5007,8454
3713,8454
3691,8452
3673,8447
3656,8437
3641,8425
3628,8410
3619,8393
3614,8375
3612,8353
3612,7886
3614,7864
3619,7846
3628,7829
3641,7814
3656,7802
3673,7793
3691,7787
3713,7785
5007,7785
5028,7787
" /> 
<polyline style="fill-rule:evenodd;"
points="27135,8448
25994,8448
25994,7897
27135,7897
27135,8448
" /> 
<polyline style="fill-rule:evenodd;"
points="33120,8448
31978,8448
31978,7897
33120,7897
33120,8448
" /> 
<polyline style="fill-rule:evenodd;"
points="17528,7170
17542,7175
17555,7182
17566,7191
17575,7202
17582,7215
17586,7229
17588,7246
17588,8233
17586,8250
17582,8264
17575,8277
17566,8288
17555,8298
17542,8305
17528,8309
17511,8311
15776,8311
15759,8309
15745,8305
15732,8298
15720,8288
15711,8277
15704,8264
15700,8250
15698,8233
15698,7246
15700,7229
15704,7215
15711,7202
15720,7191
15732,7182
15745,7175
15759,7170
15776,7169
17511,7169
17528,7170
" /> 
<polyline style="fill-rule:evenodd;"
points="14221,7170
14235,7175
14248,7182
14259,7191
14268,7202
14275,7215
14279,7229
14281,7246
14281,8233
14279,8250
14275,8264
14268,8277
14259,8288
14248,8298
14235,8305
14221,8309
14204,8311
12468,8311
12451,8309
12438,8305
12425,8298
12413,8288
12404,8277
12397,8264
12393,8250
12391,8233
12391,7246
12393,7229
12397,7215
12404,7202
12413,7191
12425,7182
12438,7175
12451,7170
12468,7169
14204,7169
14221,7170
" /> 
<polyline style="fill-rule:evenodd;"
points="8864,8106
7919,8106
7919,7358
8864,7358
8864,8106
" /> 
<polyline style="fill-rule:evenodd;"
points="7294,7099
7314,7105
7333,7115
7350,7128
7363,7145
7373,7163
7379,7184
7381,7207
7381,7557
7379,7580
7373,7600
7363,7619
7350,7635
7333,7649
7314,7659
7294,7665
7271,7667
6961,7667
6937,7665
6917,7659
6898,7649
6882,7635
6868,7619
6858,7600
6852,7580
6850,7557
6850,7207
6852,7184
6858,7163
6868,7145
6882,7128
6898,7115
6917,7105
6937,7099
6961,7096
7271,7096
7294,7099
" /> 
<polyline style="fill-rule:evenodd;"
points="37472,6485
37528,6491
37616,6517
37697,6561
37769,6619
37827,6691
37871,6772
37897,6860
37906,6952
37897,7044
37871,7132
37827,7214
37769,7285
37697,7344
37616,7387
37528,7414
37472,7419
37459,7421
36633,7421
36619,7419
36564,7414
36476,7387
36395,7344
36323,7285
36265,7214
36221,7132
36194,7044
36185,6952
36194,6860
36221,6772
36265,6691
36323,6619
36395,6561
36476,6517
36564,6491
36619,6485
36633,6484
37459,6484
37472,6485
" /> 
<polyline style="fill-rule:evenodd;"
points="8864,7200
7919,7200
7919,6452
8864,6452
8864,7200
" /> 
<polyline style="fill-rule:evenodd;"
points="7294,6410
7314,6416
7333,6426
7350,6439
7363,6456
7373,6474
7379,6495
7381,6518
7381,6868
7379,6891
7373,6911
7363,6930
7350,6946
7333,6960
7314,6970
7294,6976
7271,6978
6961,6978
6937,6976
6917,6970
6898,6960
6882,6946
6868,6930
6858,6911
6852,6891
6850,6868
6850,6518
6852,6495
6858,6474
6868,6456
6882,6439
6898,6426
6917,6416
6937,6410
6961,6407
7271,6407
7294,6410
" /> 
<polyline style="fill-rule:evenodd;"
points="5028,6035
5047,6041
5064,6050
5079,6062
5091,6077
5100,6094
5106,6112
5108,6134
5108,6601
5106,6623
5100,6641
5091,6658
5079,6673
5064,6685
5047,6695
5028,6700
5007,6702
3713,6702
3691,6700
3673,6695
3656,6685
3641,6673
3628,6658
3619,6641
3614,6623
3612,6601
3612,6134
3614,6112
3619,6094
3628,6077
3641,6062
3656,6050
3673,6041
3691,6035
3713,6033
5007,6033
5028,6035
" /> 
</g>
<g style="fill:#000000; fill-opacity:1.0; 
stroke:#000000; stroke-width:59.0551; stroke-opacity:1; 
stroke-linecap:round; stroke-linejoin:round;">
</g>
<g style="fill:#000000; fill-opacity:0.0; 
stroke:#000000; stroke-width:59.0551; stroke-opacity:1; 
stroke-linecap:round; stroke-linejoin:round;">
<path d="M29 5377
L39399 5377
" />
<path d="M29 25062
L29 5377
" />
<path d="M39399 25062
L29 25062
" />
<path d="M39399 5377
L39399 25062
" />
</g> 
</svg>
