G04 #@! TF.GenerationSoftware,KiCad,Pcbnew,5.0.2-bee76a0~70~ubuntu18.04.1*
G04 #@! TF.CreationDate,2019-01-15T01:12:48+01:00*
G04 #@! TF.ProjectId,ESPLED,4553504c-4544-42e6-9b69-6361645f7063,rev?*
G04 #@! TF.SameCoordinates,Original*
G04 #@! TF.FileFunction,Copper,L2,Bot*
G04 #@! TF.FilePolarity,Positive*
%FSLAX46Y46*%
G04 Gerber Fmt 4.6, Leading zero omitted, Abs format (unit mm)*
G04 Created by KiCad (PCBNEW 5.0.2-bee76a0~70~ubuntu18.04.1) date Di 15 Jan 2019 01:12:48 CET*
%MOMM*%
%LPD*%
G01*
G04 APERTURE LIST*
G04 #@! TA.AperFunction,ComponentPad*
%ADD10C,2.000000*%
G04 #@! TD*
G04 #@! TA.AperFunction,ComponentPad*
%ADD11O,3.960000X1.980000*%
G04 #@! TD*
G04 #@! TA.AperFunction,ComponentPad*
%ADD12R,3.960000X1.980000*%
G04 #@! TD*
G04 #@! TA.AperFunction,ComponentPad*
%ADD13O,1.905000X2.000000*%
G04 #@! TD*
G04 #@! TA.AperFunction,ComponentPad*
%ADD14R,1.905000X2.000000*%
G04 #@! TD*
G04 #@! TA.AperFunction,ComponentPad*
%ADD15R,3.500000X3.500000*%
G04 #@! TD*
G04 #@! TA.AperFunction,Conductor*
%ADD16C,0.100000*%
G04 #@! TD*
G04 #@! TA.AperFunction,ComponentPad*
%ADD17C,3.000000*%
G04 #@! TD*
G04 #@! TA.AperFunction,ComponentPad*
%ADD18C,3.500000*%
G04 #@! TD*
G04 #@! TA.AperFunction,ComponentPad*
%ADD19C,1.450000*%
G04 #@! TD*
G04 #@! TA.AperFunction,ComponentPad*
%ADD20O,1.900000X1.200000*%
G04 #@! TD*
G04 #@! TA.AperFunction,ComponentPad*
%ADD21C,1.100000*%
G04 #@! TD*
G04 #@! TA.AperFunction,ComponentPad*
%ADD22R,1.100000X1.800000*%
G04 #@! TD*
G04 #@! TA.AperFunction,ComponentPad*
%ADD23R,1.700000X1.700000*%
G04 #@! TD*
G04 #@! TA.AperFunction,ComponentPad*
%ADD24O,1.700000X1.700000*%
G04 #@! TD*
G04 #@! TA.AperFunction,ViaPad*
%ADD25C,1.270000*%
G04 #@! TD*
G04 #@! TA.AperFunction,ViaPad*
%ADD26C,1.000000*%
G04 #@! TD*
G04 #@! TA.AperFunction,Conductor*
%ADD27C,1.270000*%
G04 #@! TD*
G04 #@! TA.AperFunction,Conductor*
%ADD28C,0.254000*%
G04 #@! TD*
G04 #@! TA.AperFunction,Conductor*
%ADD29C,0.635000*%
G04 #@! TD*
G04 APERTURE END LIST*
D10*
G04 #@! TO.P,SW1,1*
G04 #@! TO.N,GND*
X156000000Y-104722000D03*
G04 #@! TO.P,SW1,2*
G04 #@! TO.N,Net-(SW1-Pad2)*
X160500000Y-104722000D03*
G04 #@! TO.P,SW1,1*
G04 #@! TO.N,GND*
X156000000Y-111222000D03*
G04 #@! TO.P,SW1,2*
G04 #@! TO.N,Net-(SW1-Pad2)*
X160500000Y-111222000D03*
G04 #@! TD*
D11*
G04 #@! TO.P,P1,2*
G04 #@! TO.N,/CH5*
X185515000Y-71032000D03*
D12*
G04 #@! TO.P,P1,1*
G04 #@! TO.N,/CH4*
X185515000Y-76032000D03*
G04 #@! TD*
D13*
G04 #@! TO.P,Q5,3*
G04 #@! TO.N,GND*
X145793785Y-94420101D03*
G04 #@! TO.P,Q5,2*
G04 #@! TO.N,/CH5*
X148333785Y-94420101D03*
D14*
G04 #@! TO.P,Q5,1*
G04 #@! TO.N,Net-(Q5-Pad1)*
X150873785Y-94420101D03*
G04 #@! TD*
D10*
G04 #@! TO.P,SW2,2*
G04 #@! TO.N,GND*
X169500000Y-111222000D03*
G04 #@! TO.P,SW2,1*
G04 #@! TO.N,Net-(SW2-Pad1)*
X165000000Y-111222000D03*
G04 #@! TO.P,SW2,2*
G04 #@! TO.N,GND*
X169500000Y-104722000D03*
G04 #@! TO.P,SW2,1*
G04 #@! TO.N,Net-(SW2-Pad1)*
X165000000Y-104722000D03*
G04 #@! TD*
D12*
G04 #@! TO.P,P2,1*
G04 #@! TO.N,/CH2*
X185515000Y-86192000D03*
D11*
G04 #@! TO.P,P2,2*
G04 #@! TO.N,/CH3*
X185515000Y-81192000D03*
G04 #@! TD*
D14*
G04 #@! TO.P,Q4,1*
G04 #@! TO.N,Net-(Q4-Pad1)*
X138370596Y-94420101D03*
D13*
G04 #@! TO.P,Q4,2*
G04 #@! TO.N,/CH4*
X135830596Y-94420101D03*
G04 #@! TO.P,Q4,3*
G04 #@! TO.N,GND*
X133290596Y-94420101D03*
G04 #@! TD*
D10*
G04 #@! TO.P,SW3,2*
G04 #@! TO.N,GND*
X178500000Y-111222000D03*
G04 #@! TO.P,SW3,1*
G04 #@! TO.N,Net-(SW3-Pad1)*
X174000000Y-111222000D03*
G04 #@! TO.P,SW3,2*
G04 #@! TO.N,GND*
X178500000Y-104722000D03*
G04 #@! TO.P,SW3,1*
G04 #@! TO.N,Net-(SW3-Pad1)*
X174000000Y-104722000D03*
G04 #@! TD*
D12*
G04 #@! TO.P,P3,1*
G04 #@! TO.N,+12V*
X185515000Y-96352000D03*
D11*
G04 #@! TO.P,P3,2*
G04 #@! TO.N,/CH1*
X185515000Y-91352000D03*
G04 #@! TD*
D15*
G04 #@! TO.P,CON1,1*
G04 #@! TO.N,+12V*
X107000000Y-82000000D03*
D16*
G04 #@! TD*
G04 #@! TO.N,GND*
G04 #@! TO.C,CON1*
G36*
X101823513Y-80253611D02*
X101896318Y-80264411D01*
X101967714Y-80282295D01*
X102037013Y-80307090D01*
X102103548Y-80338559D01*
X102166678Y-80376398D01*
X102225795Y-80420242D01*
X102280330Y-80469670D01*
X102329758Y-80524205D01*
X102373602Y-80583322D01*
X102411441Y-80646452D01*
X102442910Y-80712987D01*
X102467705Y-80782286D01*
X102485589Y-80853682D01*
X102496389Y-80926487D01*
X102500000Y-81000000D01*
X102500000Y-83000000D01*
X102496389Y-83073513D01*
X102485589Y-83146318D01*
X102467705Y-83217714D01*
X102442910Y-83287013D01*
X102411441Y-83353548D01*
X102373602Y-83416678D01*
X102329758Y-83475795D01*
X102280330Y-83530330D01*
X102225795Y-83579758D01*
X102166678Y-83623602D01*
X102103548Y-83661441D01*
X102037013Y-83692910D01*
X101967714Y-83717705D01*
X101896318Y-83735589D01*
X101823513Y-83746389D01*
X101750000Y-83750000D01*
X100250000Y-83750000D01*
X100176487Y-83746389D01*
X100103682Y-83735589D01*
X100032286Y-83717705D01*
X99962987Y-83692910D01*
X99896452Y-83661441D01*
X99833322Y-83623602D01*
X99774205Y-83579758D01*
X99719670Y-83530330D01*
X99670242Y-83475795D01*
X99626398Y-83416678D01*
X99588559Y-83353548D01*
X99557090Y-83287013D01*
X99532295Y-83217714D01*
X99514411Y-83146318D01*
X99503611Y-83073513D01*
X99500000Y-83000000D01*
X99500000Y-81000000D01*
X99503611Y-80926487D01*
X99514411Y-80853682D01*
X99532295Y-80782286D01*
X99557090Y-80712987D01*
X99588559Y-80646452D01*
X99626398Y-80583322D01*
X99670242Y-80524205D01*
X99719670Y-80469670D01*
X99774205Y-80420242D01*
X99833322Y-80376398D01*
X99896452Y-80338559D01*
X99962987Y-80307090D01*
X100032286Y-80282295D01*
X100103682Y-80264411D01*
X100176487Y-80253611D01*
X100250000Y-80250000D01*
X101750000Y-80250000D01*
X101823513Y-80253611D01*
X101823513Y-80253611D01*
G37*
D17*
G04 #@! TO.P,CON1,2*
G04 #@! TO.N,GND*
X101000000Y-82000000D03*
D16*
G04 #@! TD*
G04 #@! TO.N,GND*
G04 #@! TO.C,CON1*
G36*
X104960765Y-84954213D02*
X105045704Y-84966813D01*
X105128999Y-84987677D01*
X105209848Y-85016605D01*
X105287472Y-85053319D01*
X105361124Y-85097464D01*
X105430094Y-85148616D01*
X105493718Y-85206282D01*
X105551384Y-85269906D01*
X105602536Y-85338876D01*
X105646681Y-85412528D01*
X105683395Y-85490152D01*
X105712323Y-85571001D01*
X105733187Y-85654296D01*
X105745787Y-85739235D01*
X105750000Y-85825000D01*
X105750000Y-87575000D01*
X105745787Y-87660765D01*
X105733187Y-87745704D01*
X105712323Y-87828999D01*
X105683395Y-87909848D01*
X105646681Y-87987472D01*
X105602536Y-88061124D01*
X105551384Y-88130094D01*
X105493718Y-88193718D01*
X105430094Y-88251384D01*
X105361124Y-88302536D01*
X105287472Y-88346681D01*
X105209848Y-88383395D01*
X105128999Y-88412323D01*
X105045704Y-88433187D01*
X104960765Y-88445787D01*
X104875000Y-88450000D01*
X103125000Y-88450000D01*
X103039235Y-88445787D01*
X102954296Y-88433187D01*
X102871001Y-88412323D01*
X102790152Y-88383395D01*
X102712528Y-88346681D01*
X102638876Y-88302536D01*
X102569906Y-88251384D01*
X102506282Y-88193718D01*
X102448616Y-88130094D01*
X102397464Y-88061124D01*
X102353319Y-87987472D01*
X102316605Y-87909848D01*
X102287677Y-87828999D01*
X102266813Y-87745704D01*
X102254213Y-87660765D01*
X102250000Y-87575000D01*
X102250000Y-85825000D01*
X102254213Y-85739235D01*
X102266813Y-85654296D01*
X102287677Y-85571001D01*
X102316605Y-85490152D01*
X102353319Y-85412528D01*
X102397464Y-85338876D01*
X102448616Y-85269906D01*
X102506282Y-85206282D01*
X102569906Y-85148616D01*
X102638876Y-85097464D01*
X102712528Y-85053319D01*
X102790152Y-85016605D01*
X102871001Y-84987677D01*
X102954296Y-84966813D01*
X103039235Y-84954213D01*
X103125000Y-84950000D01*
X104875000Y-84950000D01*
X104960765Y-84954213D01*
X104960765Y-84954213D01*
G37*
D18*
G04 #@! TO.P,CON1,3*
G04 #@! TO.N,GND*
X104000000Y-86700000D03*
G04 #@! TD*
D19*
G04 #@! TO.P,J1,6*
G04 #@! TO.N,GND*
X97474500Y-68620000D03*
X97474500Y-73620000D03*
D20*
X94774500Y-67620000D03*
X94774500Y-74620000D03*
G04 #@! TD*
D14*
G04 #@! TO.P,Q1,1*
G04 #@! TO.N,Net-(Q1-Pad1)*
X100867409Y-94420101D03*
D13*
G04 #@! TO.P,Q1,2*
G04 #@! TO.N,/CH1*
X98327409Y-94420101D03*
G04 #@! TO.P,Q1,3*
G04 #@! TO.N,GND*
X95787409Y-94420101D03*
G04 #@! TD*
G04 #@! TO.P,Q2,3*
G04 #@! TO.N,GND*
X108284222Y-94420101D03*
G04 #@! TO.P,Q2,2*
G04 #@! TO.N,/CH2*
X110824222Y-94420101D03*
D14*
G04 #@! TO.P,Q2,1*
G04 #@! TO.N,Net-(Q2-Pad1)*
X113364222Y-94420101D03*
G04 #@! TD*
G04 #@! TO.P,Q3,1*
G04 #@! TO.N,Net-(Q3-Pad1)*
X125861035Y-94420101D03*
D13*
G04 #@! TO.P,Q3,2*
G04 #@! TO.N,/CH3*
X123321035Y-94420101D03*
G04 #@! TO.P,Q3,3*
G04 #@! TO.N,GND*
X120781035Y-94420101D03*
G04 #@! TD*
D16*
G04 #@! TO.N,Net-(R8-Pad2)*
G04 #@! TO.C,U4*
G36*
X135965455Y-82609324D02*
X135992150Y-82613284D01*
X136018328Y-82619841D01*
X136043738Y-82628933D01*
X136068134Y-82640472D01*
X136091282Y-82654346D01*
X136112958Y-82670422D01*
X136132954Y-82688546D01*
X136151078Y-82708542D01*
X136167154Y-82730218D01*
X136181028Y-82753366D01*
X136192567Y-82777762D01*
X136201659Y-82803172D01*
X136208216Y-82829350D01*
X136212176Y-82856045D01*
X136213500Y-82883000D01*
X136213500Y-84133000D01*
X136212176Y-84159955D01*
X136208216Y-84186650D01*
X136201659Y-84212828D01*
X136192567Y-84238238D01*
X136181028Y-84262634D01*
X136167154Y-84285782D01*
X136151078Y-84307458D01*
X136132954Y-84327454D01*
X136112958Y-84345578D01*
X136091282Y-84361654D01*
X136068134Y-84375528D01*
X136043738Y-84387067D01*
X136018328Y-84396159D01*
X135992150Y-84402716D01*
X135965455Y-84406676D01*
X135938500Y-84408000D01*
X135388500Y-84408000D01*
X135361545Y-84406676D01*
X135334850Y-84402716D01*
X135308672Y-84396159D01*
X135283262Y-84387067D01*
X135258866Y-84375528D01*
X135235718Y-84361654D01*
X135214042Y-84345578D01*
X135194046Y-84327454D01*
X135175922Y-84307458D01*
X135159846Y-84285782D01*
X135145972Y-84262634D01*
X135134433Y-84238238D01*
X135125341Y-84212828D01*
X135118784Y-84186650D01*
X135114824Y-84159955D01*
X135113500Y-84133000D01*
X135113500Y-82883000D01*
X135114824Y-82856045D01*
X135118784Y-82829350D01*
X135125341Y-82803172D01*
X135134433Y-82777762D01*
X135145972Y-82753366D01*
X135159846Y-82730218D01*
X135175922Y-82708542D01*
X135194046Y-82688546D01*
X135214042Y-82670422D01*
X135235718Y-82654346D01*
X135258866Y-82640472D01*
X135283262Y-82628933D01*
X135308672Y-82619841D01*
X135334850Y-82613284D01*
X135361545Y-82609324D01*
X135388500Y-82608000D01*
X135938500Y-82608000D01*
X135965455Y-82609324D01*
X135965455Y-82609324D01*
G37*
D21*
G04 #@! TD*
G04 #@! TO.P,U4,2*
G04 #@! TO.N,Net-(R8-Pad2)*
X135663500Y-83508000D03*
D16*
G04 #@! TO.N,+3V3*
G04 #@! TO.C,U4*
G36*
X134695455Y-80539324D02*
X134722150Y-80543284D01*
X134748328Y-80549841D01*
X134773738Y-80558933D01*
X134798134Y-80570472D01*
X134821282Y-80584346D01*
X134842958Y-80600422D01*
X134862954Y-80618546D01*
X134881078Y-80638542D01*
X134897154Y-80660218D01*
X134911028Y-80683366D01*
X134922567Y-80707762D01*
X134931659Y-80733172D01*
X134938216Y-80759350D01*
X134942176Y-80786045D01*
X134943500Y-80813000D01*
X134943500Y-82063000D01*
X134942176Y-82089955D01*
X134938216Y-82116650D01*
X134931659Y-82142828D01*
X134922567Y-82168238D01*
X134911028Y-82192634D01*
X134897154Y-82215782D01*
X134881078Y-82237458D01*
X134862954Y-82257454D01*
X134842958Y-82275578D01*
X134821282Y-82291654D01*
X134798134Y-82305528D01*
X134773738Y-82317067D01*
X134748328Y-82326159D01*
X134722150Y-82332716D01*
X134695455Y-82336676D01*
X134668500Y-82338000D01*
X134118500Y-82338000D01*
X134091545Y-82336676D01*
X134064850Y-82332716D01*
X134038672Y-82326159D01*
X134013262Y-82317067D01*
X133988866Y-82305528D01*
X133965718Y-82291654D01*
X133944042Y-82275578D01*
X133924046Y-82257454D01*
X133905922Y-82237458D01*
X133889846Y-82215782D01*
X133875972Y-82192634D01*
X133864433Y-82168238D01*
X133855341Y-82142828D01*
X133848784Y-82116650D01*
X133844824Y-82089955D01*
X133843500Y-82063000D01*
X133843500Y-80813000D01*
X133844824Y-80786045D01*
X133848784Y-80759350D01*
X133855341Y-80733172D01*
X133864433Y-80707762D01*
X133875972Y-80683366D01*
X133889846Y-80660218D01*
X133905922Y-80638542D01*
X133924046Y-80618546D01*
X133944042Y-80600422D01*
X133965718Y-80584346D01*
X133988866Y-80570472D01*
X134013262Y-80558933D01*
X134038672Y-80549841D01*
X134064850Y-80543284D01*
X134091545Y-80539324D01*
X134118500Y-80538000D01*
X134668500Y-80538000D01*
X134695455Y-80539324D01*
X134695455Y-80539324D01*
G37*
D21*
G04 #@! TD*
G04 #@! TO.P,U4,3*
G04 #@! TO.N,+3V3*
X134393500Y-81438000D03*
D22*
G04 #@! TO.P,U4,1*
G04 #@! TO.N,GND*
X136933500Y-81438000D03*
G04 #@! TD*
D23*
G04 #@! TO.P,J2,1*
G04 #@! TO.N,+12V*
X190000000Y-111000000D03*
D24*
G04 #@! TO.P,J2,2*
G04 #@! TO.N,/CH1*
X190000000Y-108460000D03*
G04 #@! TO.P,J2,3*
G04 #@! TO.N,/CH2*
X190000000Y-105920000D03*
G04 #@! TO.P,J2,4*
G04 #@! TO.N,/CH3*
X190000000Y-103380000D03*
G04 #@! TD*
D23*
G04 #@! TO.P,J3,1*
G04 #@! TO.N,/CH4*
X185000000Y-106000000D03*
D24*
G04 #@! TO.P,J3,2*
G04 #@! TO.N,/CH5*
X185000000Y-103460000D03*
G04 #@! TD*
D23*
G04 #@! TO.P,J4,1*
G04 #@! TO.N,Net-(J4-Pad1)*
X145000000Y-83000000D03*
D24*
G04 #@! TO.P,J4,2*
G04 #@! TO.N,GND*
X147540000Y-83000000D03*
G04 #@! TO.P,J4,3*
G04 #@! TO.N,+3V3*
X150080000Y-83000000D03*
G04 #@! TD*
D25*
G04 #@! TO.N,+12V*
X168910000Y-99822000D03*
D26*
G04 #@! TO.N,+3V3*
X156718000Y-86106000D03*
X167386000Y-82550000D03*
G04 #@! TO.N,Net-(J1-Pad2)*
X122682000Y-75438000D03*
X106172000Y-69088000D03*
G04 #@! TO.N,Net-(J1-Pad3)*
X123952000Y-76454000D03*
X106172000Y-70866000D03*
G04 #@! TO.N,Net-(R8-Pad2)*
X170959400Y-78486000D03*
G04 #@! TO.N,SIG1*
X168910000Y-79502000D03*
X172255120Y-78679480D03*
G04 #@! TD*
D27*
G04 #@! TO.N,+12V*
X185980102Y-111000000D02*
X190000000Y-111000000D01*
X183261000Y-113719102D02*
X185980102Y-111000000D01*
X104360990Y-79360990D02*
X95772010Y-79360990D01*
X95772010Y-79360990D02*
X93945899Y-81187101D01*
X93945899Y-81187101D02*
X93945899Y-110604313D01*
X107000000Y-82000000D02*
X104360990Y-79360990D01*
X93945899Y-110604313D02*
X97060688Y-113719102D01*
X97060688Y-113719102D02*
X183261000Y-113719102D01*
D28*
X185262944Y-111000000D02*
X180340000Y-106077056D01*
X185980102Y-111000000D02*
X185262944Y-111000000D01*
X180340000Y-106077056D02*
X180340000Y-102616000D01*
X180340000Y-102616000D02*
X177546000Y-99822000D01*
X177546000Y-99822000D02*
X168910000Y-99822000D01*
D29*
G04 #@! TO.N,+3V3*
X134393500Y-81838000D02*
X134393500Y-85117500D01*
X134393500Y-85117500D02*
X134874000Y-85598000D01*
X134874000Y-85598000D02*
X150114000Y-85598000D01*
X156718000Y-86106000D02*
X156210000Y-85598000D01*
X150080000Y-85564000D02*
X150114000Y-85598000D01*
X150080000Y-83000000D02*
X150080000Y-85564000D01*
X156210000Y-85598000D02*
X150114000Y-85598000D01*
X156718000Y-86106000D02*
X163830000Y-86106000D01*
X163830000Y-86106000D02*
X167386000Y-82550000D01*
D28*
G04 #@! TO.N,Net-(J1-Pad2)*
X116332000Y-69088000D02*
X122682000Y-75438000D01*
X106172000Y-69088000D02*
X116332000Y-69088000D01*
G04 #@! TO.N,Net-(J1-Pad3)*
X122428000Y-76454000D02*
X123952000Y-76454000D01*
X116840000Y-70866000D02*
X122428000Y-76454000D01*
X106172000Y-70866000D02*
X116840000Y-70866000D01*
G04 #@! TO.N,Net-(R8-Pad2)*
X170459401Y-77986001D02*
X170959400Y-78486000D01*
X170447999Y-77986001D02*
X170459401Y-77986001D01*
X170434000Y-78000000D02*
X170447999Y-77986001D01*
X145000000Y-78000000D02*
X170434000Y-78000000D01*
X139892000Y-83108000D02*
X145000000Y-78000000D01*
X135663500Y-83108000D02*
X139892000Y-83108000D01*
D27*
G04 #@! TO.N,/CH1*
X104042450Y-102405142D02*
X160248957Y-102405142D01*
X160248957Y-102405142D02*
X171302098Y-91352000D01*
X98327409Y-94420101D02*
X98327409Y-96690101D01*
X98327409Y-96690101D02*
X104042450Y-102405142D01*
X183438799Y-107739001D02*
X181356000Y-105656202D01*
X189279001Y-107739001D02*
X183438799Y-107739001D01*
X181356000Y-105656202D02*
X181356000Y-91352000D01*
X190000000Y-108460000D02*
X189279001Y-107739001D01*
X171302098Y-91352000D02*
X181356000Y-91352000D01*
X181356000Y-91352000D02*
X185515000Y-91352000D01*
G04 #@! TO.N,/CH2*
X188797919Y-105920000D02*
X190000000Y-105920000D01*
X185515000Y-86192000D02*
X188765000Y-86192000D01*
X188765000Y-86192000D02*
X189992000Y-87419000D01*
X187452000Y-102616000D02*
X187452000Y-104574081D01*
X189992000Y-87419000D02*
X189992000Y-100076000D01*
X189992000Y-100076000D02*
X187452000Y-102616000D01*
X187452000Y-104574081D02*
X188797919Y-105920000D01*
X110824222Y-96690101D02*
X110824222Y-94420101D01*
X115015253Y-100881132D02*
X110824222Y-96690101D01*
X159617692Y-100881132D02*
X115015253Y-100881132D01*
X174306823Y-86192000D02*
X159617692Y-100881132D01*
X185515000Y-86192000D02*
X174306823Y-86192000D01*
G04 #@! TO.N,/CH3*
X123321035Y-94420101D02*
X123321035Y-95432803D01*
X123321035Y-96690101D02*
X123321035Y-94420101D01*
X125988056Y-99357122D02*
X123321035Y-96690101D01*
X158986427Y-99357122D02*
X125988056Y-99357122D01*
X177151548Y-81192000D02*
X158986427Y-99357122D01*
X185515000Y-81192000D02*
X177151548Y-81192000D01*
G04 #@! TO.N,/CH4*
X136973607Y-97833112D02*
X158355162Y-97833112D01*
X135830596Y-94420101D02*
X135830596Y-96690101D01*
X135830596Y-96690101D02*
X136973607Y-97833112D01*
X180156274Y-76032000D02*
X185515000Y-76032000D01*
X158355162Y-97833112D02*
X180156274Y-76032000D01*
G04 #@! TO.N,/CH5*
X182968000Y-71032000D02*
X185515000Y-71032000D01*
X157723898Y-96276102D02*
X182968000Y-71032000D01*
X157723898Y-96309102D02*
X157723898Y-96276102D01*
X149210084Y-96309102D02*
X157723898Y-96309102D01*
X148333785Y-94420101D02*
X148333785Y-95432803D01*
X148333785Y-95432803D02*
X149210084Y-96309102D01*
D28*
G04 #@! TO.N,SIG1*
X172212000Y-78722600D02*
X172255120Y-78679480D01*
X172255120Y-78679480D02*
X171738801Y-79195799D01*
X171738801Y-79195799D02*
X171738801Y-79213199D01*
X171450000Y-79502000D02*
X168910000Y-79502000D01*
X171738801Y-79213199D02*
X171450000Y-79502000D01*
G04 #@! TD*
G04 #@! TO.N,GND*
G36*
X157910197Y-71089803D02*
X157951399Y-71117333D01*
X158000000Y-71127000D01*
X176000000Y-71127000D01*
X176048601Y-71117333D01*
X176089803Y-71089803D01*
X181469606Y-65710000D01*
X191290000Y-65710000D01*
X191290001Y-102637694D01*
X191070625Y-102309375D01*
X190579418Y-101981161D01*
X190146256Y-101895000D01*
X189969051Y-101895000D01*
X190801584Y-101062468D01*
X190907618Y-100991618D01*
X190978467Y-100885585D01*
X190978470Y-100885582D01*
X191188312Y-100571530D01*
X191188313Y-100571529D01*
X191262000Y-100201080D01*
X191262000Y-100201076D01*
X191286879Y-100076001D01*
X191262000Y-99950926D01*
X191262000Y-87544074D01*
X191286879Y-87418999D01*
X191262000Y-87293924D01*
X191262000Y-87293920D01*
X191188313Y-86923471D01*
X190907618Y-86503382D01*
X190801582Y-86432531D01*
X189751471Y-85382421D01*
X189680618Y-85276382D01*
X189260529Y-84995687D01*
X188890080Y-84922000D01*
X188890075Y-84922000D01*
X188765000Y-84897121D01*
X188639925Y-84922000D01*
X188071618Y-84922000D01*
X187952809Y-84744191D01*
X187742765Y-84603843D01*
X187495000Y-84554560D01*
X183535000Y-84554560D01*
X183287235Y-84603843D01*
X183077191Y-84744191D01*
X182958382Y-84922000D01*
X175217599Y-84922000D01*
X177677599Y-82462000D01*
X183500768Y-82462000D01*
X183890957Y-82722716D01*
X184364955Y-82817000D01*
X186665045Y-82817000D01*
X187139043Y-82722716D01*
X187676559Y-82363559D01*
X188035716Y-81826043D01*
X188161835Y-81192000D01*
X188035716Y-80557957D01*
X187676559Y-80020441D01*
X187139043Y-79661284D01*
X186665045Y-79567000D01*
X184364955Y-79567000D01*
X183890957Y-79661284D01*
X183500768Y-79922000D01*
X178062325Y-79922000D01*
X180682325Y-77302000D01*
X182958382Y-77302000D01*
X183077191Y-77479809D01*
X183287235Y-77620157D01*
X183535000Y-77669440D01*
X187495000Y-77669440D01*
X187742765Y-77620157D01*
X187952809Y-77479809D01*
X188093157Y-77269765D01*
X188142440Y-77022000D01*
X188142440Y-75042000D01*
X188093157Y-74794235D01*
X187952809Y-74584191D01*
X187742765Y-74443843D01*
X187495000Y-74394560D01*
X183535000Y-74394560D01*
X183287235Y-74443843D01*
X183077191Y-74584191D01*
X182958382Y-74762000D01*
X181034051Y-74762000D01*
X183494051Y-72302000D01*
X183500768Y-72302000D01*
X183890957Y-72562716D01*
X184364955Y-72657000D01*
X186665045Y-72657000D01*
X187139043Y-72562716D01*
X187676559Y-72203559D01*
X188035716Y-71666043D01*
X188161835Y-71032000D01*
X188035716Y-70397957D01*
X187676559Y-69860441D01*
X187139043Y-69501284D01*
X186665045Y-69407000D01*
X184364955Y-69407000D01*
X183890957Y-69501284D01*
X183500768Y-69762000D01*
X183093074Y-69762000D01*
X182967999Y-69737121D01*
X182842924Y-69762000D01*
X182842920Y-69762000D01*
X182472471Y-69835687D01*
X182281727Y-69963138D01*
X182238066Y-69992312D01*
X182052382Y-70116382D01*
X181981531Y-70222418D01*
X173390120Y-78813829D01*
X173390120Y-78453714D01*
X173217327Y-78036554D01*
X172898046Y-77717273D01*
X172480886Y-77544480D01*
X172029354Y-77544480D01*
X171742027Y-77663494D01*
X171602326Y-77523793D01*
X171185166Y-77351000D01*
X170880618Y-77351000D01*
X170756718Y-77268213D01*
X170534449Y-77224001D01*
X170534444Y-77224001D01*
X170459401Y-77209074D01*
X170453702Y-77210208D01*
X170447999Y-77209073D01*
X170372952Y-77224001D01*
X170372951Y-77224001D01*
X170302573Y-77238000D01*
X145075047Y-77238000D01*
X145000000Y-77223072D01*
X144924953Y-77238000D01*
X144924952Y-77238000D01*
X144702683Y-77282212D01*
X144450629Y-77450629D01*
X144408118Y-77514251D01*
X139576370Y-82346000D01*
X138118500Y-82346000D01*
X138118500Y-81723750D01*
X137959750Y-81565000D01*
X137060500Y-81565000D01*
X137060500Y-81585000D01*
X136806500Y-81585000D01*
X136806500Y-81565000D01*
X135907250Y-81565000D01*
X135748500Y-81723750D01*
X135748500Y-81960560D01*
X135590940Y-81960560D01*
X135590940Y-80813000D01*
X135520723Y-80459997D01*
X135488446Y-80411690D01*
X135748500Y-80411690D01*
X135748500Y-81152250D01*
X135907250Y-81311000D01*
X136806500Y-81311000D01*
X136806500Y-80061750D01*
X137060500Y-80061750D01*
X137060500Y-81311000D01*
X137959750Y-81311000D01*
X138118500Y-81152250D01*
X138118500Y-80411690D01*
X138021827Y-80178301D01*
X137843198Y-79999673D01*
X137609809Y-79903000D01*
X137219250Y-79903000D01*
X137060500Y-80061750D01*
X136806500Y-80061750D01*
X136647750Y-79903000D01*
X136257191Y-79903000D01*
X136023802Y-79999673D01*
X135845173Y-80178301D01*
X135748500Y-80411690D01*
X135488446Y-80411690D01*
X135320764Y-80160736D01*
X135021503Y-79960777D01*
X134668500Y-79890560D01*
X134118500Y-79890560D01*
X133765497Y-79960777D01*
X133466236Y-80160736D01*
X133266277Y-80459997D01*
X133196060Y-80813000D01*
X133196060Y-82063000D01*
X133266277Y-82416003D01*
X133441000Y-82677496D01*
X133441001Y-85023685D01*
X133422340Y-85117500D01*
X133496265Y-85489146D01*
X133496266Y-85489147D01*
X133706787Y-85804214D01*
X133786317Y-85857354D01*
X134134145Y-86205183D01*
X134187286Y-86284714D01*
X134476029Y-86477646D01*
X134502353Y-86495235D01*
X134874000Y-86569160D01*
X134967810Y-86550500D01*
X150020190Y-86550500D01*
X150113999Y-86569160D01*
X150207808Y-86550500D01*
X155673602Y-86550500D01*
X155755793Y-86748926D01*
X156075074Y-87068207D01*
X156492234Y-87241000D01*
X156943766Y-87241000D01*
X157360926Y-87068207D01*
X157370633Y-87058500D01*
X163736190Y-87058500D01*
X163830000Y-87077160D01*
X163923810Y-87058500D01*
X164201647Y-87003235D01*
X164516714Y-86792714D01*
X164569857Y-86713180D01*
X167598038Y-83685000D01*
X167611766Y-83685000D01*
X168028926Y-83512207D01*
X168348207Y-83192926D01*
X168521000Y-82775766D01*
X168521000Y-82324234D01*
X168348207Y-81907074D01*
X168028926Y-81587793D01*
X167611766Y-81415000D01*
X167160234Y-81415000D01*
X166743074Y-81587793D01*
X166423793Y-81907074D01*
X166251000Y-82324234D01*
X166251000Y-82337962D01*
X163435463Y-85153500D01*
X157370633Y-85153500D01*
X157360926Y-85143793D01*
X156943766Y-84971000D01*
X156936614Y-84971000D01*
X156896714Y-84911286D01*
X156581647Y-84700765D01*
X156303810Y-84645500D01*
X156210000Y-84626840D01*
X156116190Y-84645500D01*
X151032500Y-84645500D01*
X151032500Y-84149554D01*
X151150625Y-84070625D01*
X151478839Y-83579418D01*
X151594092Y-83000000D01*
X151478839Y-82420582D01*
X151150625Y-81929375D01*
X150659418Y-81601161D01*
X150226256Y-81515000D01*
X149933744Y-81515000D01*
X149500582Y-81601161D01*
X149009375Y-81929375D01*
X148796157Y-82248478D01*
X148735183Y-82118642D01*
X148306924Y-81728355D01*
X147896890Y-81558524D01*
X147667000Y-81679845D01*
X147667000Y-82873000D01*
X147687000Y-82873000D01*
X147687000Y-83127000D01*
X147667000Y-83127000D01*
X147667000Y-84320155D01*
X147896890Y-84441476D01*
X148306924Y-84271645D01*
X148735183Y-83881358D01*
X148796157Y-83751522D01*
X149009375Y-84070625D01*
X149127500Y-84149554D01*
X149127501Y-84645500D01*
X136684151Y-84645500D01*
X136790723Y-84486003D01*
X136860940Y-84133000D01*
X136860940Y-83870000D01*
X139816957Y-83870000D01*
X139892000Y-83884927D01*
X139967043Y-83870000D01*
X139967048Y-83870000D01*
X140189317Y-83825788D01*
X140441371Y-83657371D01*
X140483883Y-83593747D01*
X141927630Y-82150000D01*
X143502560Y-82150000D01*
X143502560Y-83850000D01*
X143551843Y-84097765D01*
X143692191Y-84307809D01*
X143902235Y-84448157D01*
X144150000Y-84497440D01*
X145850000Y-84497440D01*
X146097765Y-84448157D01*
X146307809Y-84307809D01*
X146448157Y-84097765D01*
X146468739Y-83994292D01*
X146773076Y-84271645D01*
X147183110Y-84441476D01*
X147413000Y-84320155D01*
X147413000Y-83127000D01*
X147393000Y-83127000D01*
X147393000Y-82873000D01*
X147413000Y-82873000D01*
X147413000Y-81679845D01*
X147183110Y-81558524D01*
X146773076Y-81728355D01*
X146468739Y-82005708D01*
X146448157Y-81902235D01*
X146307809Y-81692191D01*
X146097765Y-81551843D01*
X145850000Y-81502560D01*
X144150000Y-81502560D01*
X143902235Y-81551843D01*
X143692191Y-81692191D01*
X143551843Y-81902235D01*
X143502560Y-82150000D01*
X141927630Y-82150000D01*
X145315631Y-78762000D01*
X168044867Y-78762000D01*
X167947793Y-78859074D01*
X167775000Y-79276234D01*
X167775000Y-79727766D01*
X167947793Y-80144926D01*
X168267074Y-80464207D01*
X168684234Y-80637000D01*
X169135766Y-80637000D01*
X169552926Y-80464207D01*
X169753133Y-80264000D01*
X171374957Y-80264000D01*
X171450000Y-80278927D01*
X171525043Y-80264000D01*
X171525048Y-80264000D01*
X171747317Y-80219788D01*
X171999371Y-80051371D01*
X172041884Y-79987746D01*
X172215150Y-79814480D01*
X172389469Y-79814480D01*
X157164848Y-95039102D01*
X152473725Y-95039102D01*
X152473725Y-93420101D01*
X152424442Y-93172336D01*
X152284094Y-92962292D01*
X152074050Y-92821944D01*
X151826285Y-92772661D01*
X149921285Y-92772661D01*
X149673520Y-92821944D01*
X149463476Y-92962292D01*
X149345276Y-93139189D01*
X148953196Y-92877210D01*
X148333785Y-92754001D01*
X147714375Y-92877210D01*
X147189262Y-93228078D01*
X147054626Y-93429575D01*
X146660709Y-93044128D01*
X146166765Y-92829538D01*
X145920785Y-92949507D01*
X145920785Y-94293101D01*
X145940785Y-94293101D01*
X145940785Y-94547101D01*
X145920785Y-94547101D01*
X145920785Y-95890695D01*
X146166765Y-96010664D01*
X146660709Y-95796074D01*
X147040584Y-95424367D01*
X147038906Y-95432803D01*
X147063785Y-95557878D01*
X147063785Y-95557883D01*
X147137472Y-95928332D01*
X147418168Y-96348421D01*
X147524204Y-96419272D01*
X147668044Y-96563112D01*
X137499658Y-96563112D01*
X137100596Y-96164051D01*
X137100596Y-95971662D01*
X137170331Y-96018258D01*
X137418096Y-96067541D01*
X139323096Y-96067541D01*
X139570861Y-96018258D01*
X139780905Y-95877910D01*
X139921253Y-95667866D01*
X139970536Y-95420101D01*
X139970536Y-94793965D01*
X144241405Y-94793965D01*
X144484467Y-95363192D01*
X144926861Y-95796074D01*
X145420805Y-96010664D01*
X145666785Y-95890695D01*
X145666785Y-94547101D01*
X144368213Y-94547101D01*
X144241405Y-94793965D01*
X139970536Y-94793965D01*
X139970536Y-94046237D01*
X144241405Y-94046237D01*
X144368213Y-94293101D01*
X145666785Y-94293101D01*
X145666785Y-92949507D01*
X145420805Y-92829538D01*
X144926861Y-93044128D01*
X144484467Y-93477010D01*
X144241405Y-94046237D01*
X139970536Y-94046237D01*
X139970536Y-93420101D01*
X139921253Y-93172336D01*
X139780905Y-92962292D01*
X139570861Y-92821944D01*
X139323096Y-92772661D01*
X137418096Y-92772661D01*
X137170331Y-92821944D01*
X136960287Y-92962292D01*
X136842087Y-93139189D01*
X136450007Y-92877210D01*
X135830596Y-92754001D01*
X135211186Y-92877210D01*
X134686073Y-93228078D01*
X134551437Y-93429575D01*
X134157520Y-93044128D01*
X133663576Y-92829538D01*
X133417596Y-92949507D01*
X133417596Y-94293101D01*
X133437596Y-94293101D01*
X133437596Y-94547101D01*
X133417596Y-94547101D01*
X133417596Y-95890695D01*
X133663576Y-96010664D01*
X134157520Y-95796074D01*
X134551437Y-95410627D01*
X134560596Y-95424334D01*
X134560597Y-96565021D01*
X134535717Y-96690101D01*
X134634284Y-97185630D01*
X134844126Y-97499681D01*
X134844128Y-97499683D01*
X134914979Y-97605719D01*
X135021015Y-97676570D01*
X135431567Y-98087122D01*
X126514107Y-98087122D01*
X124591035Y-96164051D01*
X124591035Y-95971662D01*
X124660770Y-96018258D01*
X124908535Y-96067541D01*
X126813535Y-96067541D01*
X127061300Y-96018258D01*
X127271344Y-95877910D01*
X127411692Y-95667866D01*
X127460975Y-95420101D01*
X127460975Y-94793965D01*
X131738216Y-94793965D01*
X131981278Y-95363192D01*
X132423672Y-95796074D01*
X132917616Y-96010664D01*
X133163596Y-95890695D01*
X133163596Y-94547101D01*
X131865024Y-94547101D01*
X131738216Y-94793965D01*
X127460975Y-94793965D01*
X127460975Y-94046237D01*
X131738216Y-94046237D01*
X131865024Y-94293101D01*
X133163596Y-94293101D01*
X133163596Y-92949507D01*
X132917616Y-92829538D01*
X132423672Y-93044128D01*
X131981278Y-93477010D01*
X131738216Y-94046237D01*
X127460975Y-94046237D01*
X127460975Y-93420101D01*
X127411692Y-93172336D01*
X127271344Y-92962292D01*
X127061300Y-92821944D01*
X126813535Y-92772661D01*
X124908535Y-92772661D01*
X124660770Y-92821944D01*
X124450726Y-92962292D01*
X124332526Y-93139189D01*
X123940446Y-92877210D01*
X123321035Y-92754001D01*
X122701625Y-92877210D01*
X122176512Y-93228078D01*
X122041876Y-93429575D01*
X121647959Y-93044128D01*
X121154015Y-92829538D01*
X120908035Y-92949507D01*
X120908035Y-94293101D01*
X120928035Y-94293101D01*
X120928035Y-94547101D01*
X120908035Y-94547101D01*
X120908035Y-95890695D01*
X121154015Y-96010664D01*
X121647959Y-95796074D01*
X122041876Y-95410627D01*
X122051035Y-95424334D01*
X122051035Y-96565026D01*
X122026156Y-96690101D01*
X122051035Y-96815176D01*
X122051035Y-96815180D01*
X122124722Y-97185629D01*
X122405417Y-97605719D01*
X122511456Y-97676572D01*
X124446015Y-99611132D01*
X115541304Y-99611132D01*
X112094222Y-96164051D01*
X112094222Y-95971662D01*
X112163957Y-96018258D01*
X112411722Y-96067541D01*
X114316722Y-96067541D01*
X114564487Y-96018258D01*
X114774531Y-95877910D01*
X114914879Y-95667866D01*
X114964162Y-95420101D01*
X114964162Y-94793965D01*
X119228655Y-94793965D01*
X119471717Y-95363192D01*
X119914111Y-95796074D01*
X120408055Y-96010664D01*
X120654035Y-95890695D01*
X120654035Y-94547101D01*
X119355463Y-94547101D01*
X119228655Y-94793965D01*
X114964162Y-94793965D01*
X114964162Y-94046237D01*
X119228655Y-94046237D01*
X119355463Y-94293101D01*
X120654035Y-94293101D01*
X120654035Y-92949507D01*
X120408055Y-92829538D01*
X119914111Y-93044128D01*
X119471717Y-93477010D01*
X119228655Y-94046237D01*
X114964162Y-94046237D01*
X114964162Y-93420101D01*
X114914879Y-93172336D01*
X114774531Y-92962292D01*
X114564487Y-92821944D01*
X114316722Y-92772661D01*
X112411722Y-92772661D01*
X112163957Y-92821944D01*
X111953913Y-92962292D01*
X111835713Y-93139189D01*
X111443633Y-92877210D01*
X110824222Y-92754001D01*
X110204812Y-92877210D01*
X109679699Y-93228078D01*
X109545063Y-93429575D01*
X109151146Y-93044128D01*
X108657202Y-92829538D01*
X108411222Y-92949507D01*
X108411222Y-94293101D01*
X108431222Y-94293101D01*
X108431222Y-94547101D01*
X108411222Y-94547101D01*
X108411222Y-95890695D01*
X108657202Y-96010664D01*
X109151146Y-95796074D01*
X109545063Y-95410627D01*
X109554223Y-95424335D01*
X109554222Y-96565026D01*
X109529343Y-96690101D01*
X109554222Y-96815176D01*
X109554222Y-96815180D01*
X109627909Y-97185629D01*
X109908604Y-97605719D01*
X110014643Y-97676572D01*
X113473212Y-101135142D01*
X104568502Y-101135142D01*
X99597409Y-96164051D01*
X99597409Y-95971662D01*
X99667144Y-96018258D01*
X99914909Y-96067541D01*
X101819909Y-96067541D01*
X102067674Y-96018258D01*
X102277718Y-95877910D01*
X102418066Y-95667866D01*
X102467349Y-95420101D01*
X102467349Y-94793965D01*
X106731842Y-94793965D01*
X106974904Y-95363192D01*
X107417298Y-95796074D01*
X107911242Y-96010664D01*
X108157222Y-95890695D01*
X108157222Y-94547101D01*
X106858650Y-94547101D01*
X106731842Y-94793965D01*
X102467349Y-94793965D01*
X102467349Y-94046237D01*
X106731842Y-94046237D01*
X106858650Y-94293101D01*
X108157222Y-94293101D01*
X108157222Y-92949507D01*
X107911242Y-92829538D01*
X107417298Y-93044128D01*
X106974904Y-93477010D01*
X106731842Y-94046237D01*
X102467349Y-94046237D01*
X102467349Y-93420101D01*
X102418066Y-93172336D01*
X102277718Y-92962292D01*
X102067674Y-92821944D01*
X101819909Y-92772661D01*
X99914909Y-92772661D01*
X99667144Y-92821944D01*
X99457100Y-92962292D01*
X99338900Y-93139189D01*
X98946820Y-92877210D01*
X98327409Y-92754001D01*
X97707999Y-92877210D01*
X97182886Y-93228078D01*
X97048250Y-93429575D01*
X96654333Y-93044128D01*
X96160389Y-92829538D01*
X95914409Y-92949507D01*
X95914409Y-94293101D01*
X95934409Y-94293101D01*
X95934409Y-94547101D01*
X95914409Y-94547101D01*
X95914409Y-95890695D01*
X96160389Y-96010664D01*
X96654333Y-95796074D01*
X97048250Y-95410627D01*
X97057409Y-95424334D01*
X97057410Y-96565021D01*
X97032530Y-96690101D01*
X97131097Y-97185630D01*
X97340939Y-97499681D01*
X97340941Y-97499683D01*
X97411792Y-97605719D01*
X97517828Y-97676570D01*
X103055983Y-103214726D01*
X103126832Y-103320760D01*
X103232865Y-103391609D01*
X103232868Y-103391612D01*
X103442403Y-103531618D01*
X103546921Y-103601455D01*
X103917370Y-103675142D01*
X103917374Y-103675142D01*
X104042449Y-103700021D01*
X104167524Y-103675142D01*
X154773534Y-103675142D01*
X154847466Y-103749074D01*
X154580613Y-103847736D01*
X154354092Y-104457461D01*
X154378144Y-105107460D01*
X154580613Y-105596264D01*
X154847468Y-105694927D01*
X155820395Y-104722000D01*
X155806253Y-104707858D01*
X155985858Y-104528253D01*
X156000000Y-104542395D01*
X156014143Y-104528253D01*
X156193748Y-104707858D01*
X156179605Y-104722000D01*
X157152532Y-105694927D01*
X157419387Y-105596264D01*
X157645908Y-104986539D01*
X157621856Y-104336540D01*
X157419387Y-103847736D01*
X157152534Y-103749074D01*
X157226466Y-103675142D01*
X159234619Y-103675142D01*
X159113914Y-103795847D01*
X158865000Y-104396778D01*
X158865000Y-105047222D01*
X159113914Y-105648153D01*
X159573847Y-106108086D01*
X160174778Y-106357000D01*
X160825222Y-106357000D01*
X161426153Y-106108086D01*
X161886086Y-105648153D01*
X162135000Y-105047222D01*
X162135000Y-104396778D01*
X163365000Y-104396778D01*
X163365000Y-105047222D01*
X163613914Y-105648153D01*
X164073847Y-106108086D01*
X164674778Y-106357000D01*
X165325222Y-106357000D01*
X165926153Y-106108086D01*
X166159707Y-105874532D01*
X168527073Y-105874532D01*
X168625736Y-106141387D01*
X169235461Y-106367908D01*
X169885460Y-106343856D01*
X170374264Y-106141387D01*
X170472927Y-105874532D01*
X169500000Y-104901605D01*
X168527073Y-105874532D01*
X166159707Y-105874532D01*
X166386086Y-105648153D01*
X166635000Y-105047222D01*
X166635000Y-104457461D01*
X167854092Y-104457461D01*
X167878144Y-105107460D01*
X168080613Y-105596264D01*
X168347468Y-105694927D01*
X169320395Y-104722000D01*
X169679605Y-104722000D01*
X170652532Y-105694927D01*
X170919387Y-105596264D01*
X171145908Y-104986539D01*
X171124085Y-104396778D01*
X172365000Y-104396778D01*
X172365000Y-105047222D01*
X172613914Y-105648153D01*
X173073847Y-106108086D01*
X173674778Y-106357000D01*
X174325222Y-106357000D01*
X174926153Y-106108086D01*
X175386086Y-105648153D01*
X175635000Y-105047222D01*
X175635000Y-104457461D01*
X176854092Y-104457461D01*
X176878144Y-105107460D01*
X177080613Y-105596264D01*
X177347468Y-105694927D01*
X178320395Y-104722000D01*
X177347468Y-103749073D01*
X177080613Y-103847736D01*
X176854092Y-104457461D01*
X175635000Y-104457461D01*
X175635000Y-104396778D01*
X175386086Y-103795847D01*
X174926153Y-103335914D01*
X174325222Y-103087000D01*
X173674778Y-103087000D01*
X173073847Y-103335914D01*
X172613914Y-103795847D01*
X172365000Y-104396778D01*
X171124085Y-104396778D01*
X171121856Y-104336540D01*
X170919387Y-103847736D01*
X170652532Y-103749073D01*
X169679605Y-104722000D01*
X169320395Y-104722000D01*
X168347468Y-103749073D01*
X168080613Y-103847736D01*
X167854092Y-104457461D01*
X166635000Y-104457461D01*
X166635000Y-104396778D01*
X166386086Y-103795847D01*
X166159707Y-103569468D01*
X168527073Y-103569468D01*
X169500000Y-104542395D01*
X170472927Y-103569468D01*
X170374264Y-103302613D01*
X169764539Y-103076092D01*
X169114540Y-103100144D01*
X168625736Y-103302613D01*
X168527073Y-103569468D01*
X166159707Y-103569468D01*
X165926153Y-103335914D01*
X165325222Y-103087000D01*
X164674778Y-103087000D01*
X164073847Y-103335914D01*
X163613914Y-103795847D01*
X163365000Y-104396778D01*
X162135000Y-104396778D01*
X161886086Y-103795847D01*
X161426153Y-103335914D01*
X161213347Y-103247767D01*
X161235428Y-103214721D01*
X171828149Y-92622000D01*
X180086001Y-92622000D01*
X180086000Y-101284370D01*
X178137883Y-99336253D01*
X178095371Y-99272629D01*
X177843317Y-99104212D01*
X177621048Y-99060000D01*
X177621043Y-99060000D01*
X177546000Y-99045073D01*
X177470957Y-99060000D01*
X169944051Y-99060000D01*
X169629397Y-98745346D01*
X169162619Y-98552000D01*
X168657381Y-98552000D01*
X168190603Y-98745346D01*
X167833346Y-99102603D01*
X167640000Y-99569381D01*
X167640000Y-100074619D01*
X167833346Y-100541397D01*
X168190603Y-100898654D01*
X168657381Y-101092000D01*
X169162619Y-101092000D01*
X169629397Y-100898654D01*
X169944051Y-100584000D01*
X177230370Y-100584000D01*
X179578001Y-102931632D01*
X179578001Y-103464391D01*
X179472926Y-103569466D01*
X179374264Y-103302613D01*
X178764539Y-103076092D01*
X178114540Y-103100144D01*
X177625736Y-103302613D01*
X177527073Y-103569468D01*
X178500000Y-104542395D01*
X178514143Y-104528253D01*
X178693748Y-104707858D01*
X178679605Y-104722000D01*
X178693748Y-104736143D01*
X178514143Y-104915748D01*
X178500000Y-104901605D01*
X177527073Y-105874532D01*
X177625736Y-106141387D01*
X178235461Y-106367908D01*
X178885460Y-106343856D01*
X179374264Y-106141387D01*
X179472926Y-105874534D01*
X179578000Y-105979608D01*
X179578000Y-106002013D01*
X179563073Y-106077056D01*
X179578000Y-106152099D01*
X179578000Y-106152103D01*
X179622212Y-106374372D01*
X179790629Y-106626427D01*
X179854253Y-106668939D01*
X184184682Y-110999369D01*
X182734950Y-112449102D01*
X179445357Y-112449102D01*
X179472927Y-112374532D01*
X178500000Y-111401605D01*
X177527073Y-112374532D01*
X177554643Y-112449102D01*
X175085137Y-112449102D01*
X175386086Y-112148153D01*
X175635000Y-111547222D01*
X175635000Y-110957461D01*
X176854092Y-110957461D01*
X176878144Y-111607460D01*
X177080613Y-112096264D01*
X177347468Y-112194927D01*
X178320395Y-111222000D01*
X178679605Y-111222000D01*
X179652532Y-112194927D01*
X179919387Y-112096264D01*
X180145908Y-111486539D01*
X180121856Y-110836540D01*
X179919387Y-110347736D01*
X179652532Y-110249073D01*
X178679605Y-111222000D01*
X178320395Y-111222000D01*
X177347468Y-110249073D01*
X177080613Y-110347736D01*
X176854092Y-110957461D01*
X175635000Y-110957461D01*
X175635000Y-110896778D01*
X175386086Y-110295847D01*
X175159707Y-110069468D01*
X177527073Y-110069468D01*
X178500000Y-111042395D01*
X179472927Y-110069468D01*
X179374264Y-109802613D01*
X178764539Y-109576092D01*
X178114540Y-109600144D01*
X177625736Y-109802613D01*
X177527073Y-110069468D01*
X175159707Y-110069468D01*
X174926153Y-109835914D01*
X174325222Y-109587000D01*
X173674778Y-109587000D01*
X173073847Y-109835914D01*
X172613914Y-110295847D01*
X172365000Y-110896778D01*
X172365000Y-111547222D01*
X172613914Y-112148153D01*
X172914863Y-112449102D01*
X170445357Y-112449102D01*
X170472927Y-112374532D01*
X169500000Y-111401605D01*
X168527073Y-112374532D01*
X168554643Y-112449102D01*
X166085137Y-112449102D01*
X166386086Y-112148153D01*
X166635000Y-111547222D01*
X166635000Y-110957461D01*
X167854092Y-110957461D01*
X167878144Y-111607460D01*
X168080613Y-112096264D01*
X168347468Y-112194927D01*
X169320395Y-111222000D01*
X169679605Y-111222000D01*
X170652532Y-112194927D01*
X170919387Y-112096264D01*
X171145908Y-111486539D01*
X171121856Y-110836540D01*
X170919387Y-110347736D01*
X170652532Y-110249073D01*
X169679605Y-111222000D01*
X169320395Y-111222000D01*
X168347468Y-110249073D01*
X168080613Y-110347736D01*
X167854092Y-110957461D01*
X166635000Y-110957461D01*
X166635000Y-110896778D01*
X166386086Y-110295847D01*
X166159707Y-110069468D01*
X168527073Y-110069468D01*
X169500000Y-111042395D01*
X170472927Y-110069468D01*
X170374264Y-109802613D01*
X169764539Y-109576092D01*
X169114540Y-109600144D01*
X168625736Y-109802613D01*
X168527073Y-110069468D01*
X166159707Y-110069468D01*
X165926153Y-109835914D01*
X165325222Y-109587000D01*
X164674778Y-109587000D01*
X164073847Y-109835914D01*
X163613914Y-110295847D01*
X163365000Y-110896778D01*
X163365000Y-111547222D01*
X163613914Y-112148153D01*
X163914863Y-112449102D01*
X161585137Y-112449102D01*
X161886086Y-112148153D01*
X162135000Y-111547222D01*
X162135000Y-110896778D01*
X161886086Y-110295847D01*
X161426153Y-109835914D01*
X160825222Y-109587000D01*
X160174778Y-109587000D01*
X159573847Y-109835914D01*
X159113914Y-110295847D01*
X158865000Y-110896778D01*
X158865000Y-111547222D01*
X159113914Y-112148153D01*
X159414863Y-112449102D01*
X156945357Y-112449102D01*
X156972927Y-112374532D01*
X156000000Y-111401605D01*
X155027073Y-112374532D01*
X155054643Y-112449102D01*
X150287462Y-112449102D01*
X150580405Y-112010681D01*
X150765509Y-111080101D01*
X150741115Y-110957461D01*
X154354092Y-110957461D01*
X154378144Y-111607460D01*
X154580613Y-112096264D01*
X154847468Y-112194927D01*
X155820395Y-111222000D01*
X156179605Y-111222000D01*
X157152532Y-112194927D01*
X157419387Y-112096264D01*
X157645908Y-111486539D01*
X157621856Y-110836540D01*
X157419387Y-110347736D01*
X157152532Y-110249073D01*
X156179605Y-111222000D01*
X155820395Y-111222000D01*
X154847468Y-110249073D01*
X154580613Y-110347736D01*
X154354092Y-110957461D01*
X150741115Y-110957461D01*
X150580405Y-110149521D01*
X150526916Y-110069468D01*
X155027073Y-110069468D01*
X156000000Y-111042395D01*
X156972927Y-110069468D01*
X156874264Y-109802613D01*
X156264539Y-109576092D01*
X155614540Y-109600144D01*
X155125736Y-109802613D01*
X155027073Y-110069468D01*
X150526916Y-110069468D01*
X150053274Y-109360612D01*
X149264365Y-108833481D01*
X148568682Y-108695101D01*
X148098888Y-108695101D01*
X147403205Y-108833481D01*
X146614296Y-109360612D01*
X146087165Y-110149521D01*
X145902061Y-111080101D01*
X146087165Y-112010681D01*
X146380108Y-112449102D01*
X137784273Y-112449102D01*
X138077216Y-112010681D01*
X138262320Y-111080101D01*
X138077216Y-110149521D01*
X137550085Y-109360612D01*
X136761176Y-108833481D01*
X136065493Y-108695101D01*
X135595699Y-108695101D01*
X134900016Y-108833481D01*
X134111107Y-109360612D01*
X133583976Y-110149521D01*
X133398872Y-111080101D01*
X133583976Y-112010681D01*
X133876919Y-112449102D01*
X125274712Y-112449102D01*
X125567655Y-112010681D01*
X125752759Y-111080101D01*
X125567655Y-110149521D01*
X125040524Y-109360612D01*
X124251615Y-108833481D01*
X123555932Y-108695101D01*
X123086138Y-108695101D01*
X122390455Y-108833481D01*
X121601546Y-109360612D01*
X121074415Y-110149521D01*
X120889311Y-111080101D01*
X121074415Y-112010681D01*
X121367358Y-112449102D01*
X112777899Y-112449102D01*
X113070842Y-112010681D01*
X113255946Y-111080101D01*
X113070842Y-110149521D01*
X112543711Y-109360612D01*
X111754802Y-108833481D01*
X111059119Y-108695101D01*
X110589325Y-108695101D01*
X109893642Y-108833481D01*
X109104733Y-109360612D01*
X108577602Y-110149521D01*
X108392498Y-111080101D01*
X108577602Y-112010681D01*
X108870545Y-112449102D01*
X100281086Y-112449102D01*
X100574029Y-112010681D01*
X100759133Y-111080101D01*
X100574029Y-110149521D01*
X100046898Y-109360612D01*
X99257989Y-108833481D01*
X98562306Y-108695101D01*
X98092512Y-108695101D01*
X97396829Y-108833481D01*
X96607920Y-109360612D01*
X96080789Y-110149521D01*
X95949117Y-110811481D01*
X95215899Y-110078263D01*
X95215899Y-105874532D01*
X155027073Y-105874532D01*
X155125736Y-106141387D01*
X155735461Y-106367908D01*
X156385460Y-106343856D01*
X156874264Y-106141387D01*
X156972927Y-105874532D01*
X156000000Y-104901605D01*
X155027073Y-105874532D01*
X95215899Y-105874532D01*
X95215899Y-95924414D01*
X95414429Y-96010664D01*
X95660409Y-95890695D01*
X95660409Y-94547101D01*
X95640409Y-94547101D01*
X95640409Y-94293101D01*
X95660409Y-94293101D01*
X95660409Y-92949507D01*
X95414429Y-92829538D01*
X95215899Y-92915788D01*
X95215899Y-86985750D01*
X101615000Y-86985750D01*
X101615000Y-88576310D01*
X101711673Y-88809699D01*
X101890302Y-88988327D01*
X102123691Y-89085000D01*
X103714250Y-89085000D01*
X103873000Y-88926250D01*
X103873000Y-86827000D01*
X104127000Y-86827000D01*
X104127000Y-88926250D01*
X104285750Y-89085000D01*
X105876309Y-89085000D01*
X106109698Y-88988327D01*
X106288327Y-88809699D01*
X106385000Y-88576310D01*
X106385000Y-86985750D01*
X106226250Y-86827000D01*
X104127000Y-86827000D01*
X103873000Y-86827000D01*
X101773750Y-86827000D01*
X101615000Y-86985750D01*
X95215899Y-86985750D01*
X95215899Y-82285750D01*
X98865000Y-82285750D01*
X98865000Y-83876310D01*
X98961673Y-84109699D01*
X99140302Y-84288327D01*
X99373691Y-84385000D01*
X100714250Y-84385000D01*
X100873000Y-84226250D01*
X100873000Y-82127000D01*
X101127000Y-82127000D01*
X101127000Y-84226250D01*
X101285750Y-84385000D01*
X101954696Y-84385000D01*
X101890302Y-84411673D01*
X101711673Y-84590301D01*
X101615000Y-84823690D01*
X101615000Y-86414250D01*
X101773750Y-86573000D01*
X103873000Y-86573000D01*
X103873000Y-84473750D01*
X103714250Y-84315000D01*
X102795304Y-84315000D01*
X102859698Y-84288327D01*
X103038327Y-84109699D01*
X103135000Y-83876310D01*
X103135000Y-82285750D01*
X102976250Y-82127000D01*
X101127000Y-82127000D01*
X100873000Y-82127000D01*
X99023750Y-82127000D01*
X98865000Y-82285750D01*
X95215899Y-82285750D01*
X95215899Y-81713151D01*
X96298061Y-80630990D01*
X98865000Y-80630990D01*
X98865000Y-81714250D01*
X99023750Y-81873000D01*
X100873000Y-81873000D01*
X100873000Y-81853000D01*
X101127000Y-81853000D01*
X101127000Y-81873000D01*
X102976250Y-81873000D01*
X103135000Y-81714250D01*
X103135000Y-80630990D01*
X103834940Y-80630990D01*
X104602560Y-81398610D01*
X104602560Y-83750000D01*
X104651843Y-83997765D01*
X104792191Y-84207809D01*
X104952612Y-84315000D01*
X104285750Y-84315000D01*
X104127000Y-84473750D01*
X104127000Y-86573000D01*
X106226250Y-86573000D01*
X106385000Y-86414250D01*
X106385000Y-84823690D01*
X106288327Y-84590301D01*
X106109698Y-84411673D01*
X106075337Y-84397440D01*
X108750000Y-84397440D01*
X108997765Y-84348157D01*
X109207809Y-84207809D01*
X109348157Y-83997765D01*
X109397440Y-83750000D01*
X109397440Y-80250000D01*
X109348157Y-80002235D01*
X109207809Y-79792191D01*
X108997765Y-79651843D01*
X108750000Y-79602560D01*
X106398610Y-79602560D01*
X105347461Y-78551411D01*
X105276608Y-78445372D01*
X104856519Y-78164677D01*
X104486070Y-78090990D01*
X104486065Y-78090990D01*
X104360990Y-78066111D01*
X104235915Y-78090990D01*
X95897085Y-78090990D01*
X95772010Y-78066111D01*
X95646935Y-78090990D01*
X95646930Y-78090990D01*
X95276481Y-78164677D01*
X95276479Y-78164678D01*
X95276480Y-78164678D01*
X94973684Y-78367000D01*
X94856392Y-78445372D01*
X94785540Y-78551409D01*
X93136320Y-80200630D01*
X93030281Y-80271483D01*
X92749586Y-80691573D01*
X92710000Y-80890585D01*
X92710000Y-74937609D01*
X93231038Y-74937609D01*
X93234908Y-74975281D01*
X93461420Y-75403474D01*
X93834553Y-75712390D01*
X94297500Y-75855000D01*
X94647500Y-75855000D01*
X94647500Y-74747000D01*
X94901500Y-74747000D01*
X94901500Y-75855000D01*
X95251500Y-75855000D01*
X95714447Y-75712390D01*
X96087580Y-75403474D01*
X96314092Y-74975281D01*
X96317962Y-74937609D01*
X96193231Y-74747000D01*
X94901500Y-74747000D01*
X94647500Y-74747000D01*
X93355769Y-74747000D01*
X93231038Y-74937609D01*
X92710000Y-74937609D01*
X92710000Y-74573398D01*
X96700707Y-74573398D01*
X96765622Y-74811753D01*
X97275646Y-74992312D01*
X97815944Y-74963949D01*
X98183378Y-74811753D01*
X98248293Y-74573398D01*
X97474500Y-73799605D01*
X96700707Y-74573398D01*
X92710000Y-74573398D01*
X92710000Y-74302391D01*
X93231038Y-74302391D01*
X93355769Y-74493000D01*
X94647500Y-74493000D01*
X94647500Y-73385000D01*
X94901500Y-73385000D01*
X94901500Y-74493000D01*
X96193231Y-74493000D01*
X96297924Y-74333012D01*
X96521102Y-74393793D01*
X97294895Y-73620000D01*
X97654105Y-73620000D01*
X98427898Y-74393793D01*
X98666253Y-74328878D01*
X98846812Y-73818854D01*
X98818449Y-73278556D01*
X98666253Y-72911122D01*
X98427898Y-72846207D01*
X97654105Y-73620000D01*
X97294895Y-73620000D01*
X96521102Y-72846207D01*
X96282747Y-72911122D01*
X96102188Y-73421146D01*
X96128005Y-73912945D01*
X96087580Y-73836526D01*
X95714447Y-73527610D01*
X95251500Y-73385000D01*
X94901500Y-73385000D01*
X94647500Y-73385000D01*
X94297500Y-73385000D01*
X93834553Y-73527610D01*
X93461420Y-73836526D01*
X93234908Y-74264719D01*
X93231038Y-74302391D01*
X92710000Y-74302391D01*
X92710000Y-72666602D01*
X96700707Y-72666602D01*
X97474500Y-73440395D01*
X98248293Y-72666602D01*
X98183378Y-72428247D01*
X97673354Y-72247688D01*
X97133056Y-72276051D01*
X96765622Y-72428247D01*
X96700707Y-72666602D01*
X92710000Y-72666602D01*
X92710000Y-69573398D01*
X96700707Y-69573398D01*
X96765622Y-69811753D01*
X97275646Y-69992312D01*
X97815944Y-69963949D01*
X98183378Y-69811753D01*
X98248293Y-69573398D01*
X97474500Y-68799605D01*
X96700707Y-69573398D01*
X92710000Y-69573398D01*
X92710000Y-67937609D01*
X93231038Y-67937609D01*
X93234908Y-67975281D01*
X93461420Y-68403474D01*
X93834553Y-68712390D01*
X94297500Y-68855000D01*
X94647500Y-68855000D01*
X94647500Y-67747000D01*
X94901500Y-67747000D01*
X94901500Y-68855000D01*
X95251500Y-68855000D01*
X95714447Y-68712390D01*
X96087580Y-68403474D01*
X96150658Y-68284232D01*
X96102188Y-68421146D01*
X96130551Y-68961444D01*
X96282747Y-69328878D01*
X96521102Y-69393793D01*
X97294895Y-68620000D01*
X97654105Y-68620000D01*
X98427898Y-69393793D01*
X98666253Y-69328878D01*
X98831454Y-68862234D01*
X105037000Y-68862234D01*
X105037000Y-69313766D01*
X105209793Y-69730926D01*
X105455867Y-69977000D01*
X105209793Y-70223074D01*
X105037000Y-70640234D01*
X105037000Y-71091766D01*
X105209793Y-71508926D01*
X105529074Y-71828207D01*
X105946234Y-72001000D01*
X106397766Y-72001000D01*
X106814926Y-71828207D01*
X107015133Y-71628000D01*
X116524370Y-71628000D01*
X121836118Y-76939749D01*
X121878629Y-77003371D01*
X121942251Y-77045882D01*
X122130681Y-77171787D01*
X122130682Y-77171787D01*
X122130683Y-77171788D01*
X122352952Y-77216000D01*
X122352956Y-77216000D01*
X122427999Y-77230927D01*
X122503042Y-77216000D01*
X123108867Y-77216000D01*
X123309074Y-77416207D01*
X123726234Y-77589000D01*
X124177766Y-77589000D01*
X124594926Y-77416207D01*
X124914207Y-77096926D01*
X125087000Y-76679766D01*
X125087000Y-76228234D01*
X124914207Y-75811074D01*
X124594926Y-75491793D01*
X124177766Y-75319000D01*
X123817000Y-75319000D01*
X123817000Y-75212234D01*
X123644207Y-74795074D01*
X123324926Y-74475793D01*
X122907766Y-74303000D01*
X122624631Y-74303000D01*
X116923883Y-68602253D01*
X116881371Y-68538629D01*
X116629317Y-68370212D01*
X116407048Y-68326000D01*
X116407043Y-68326000D01*
X116332000Y-68311073D01*
X116256957Y-68326000D01*
X107015133Y-68326000D01*
X106814926Y-68125793D01*
X106397766Y-67953000D01*
X105946234Y-67953000D01*
X105529074Y-68125793D01*
X105209793Y-68445074D01*
X105037000Y-68862234D01*
X98831454Y-68862234D01*
X98846812Y-68818854D01*
X98818449Y-68278556D01*
X98666253Y-67911122D01*
X98427898Y-67846207D01*
X97654105Y-68620000D01*
X97294895Y-68620000D01*
X96521102Y-67846207D01*
X96297924Y-67906988D01*
X96193231Y-67747000D01*
X94901500Y-67747000D01*
X94647500Y-67747000D01*
X93355769Y-67747000D01*
X93231038Y-67937609D01*
X92710000Y-67937609D01*
X92710000Y-67666602D01*
X96700707Y-67666602D01*
X97474500Y-68440395D01*
X98248293Y-67666602D01*
X98183378Y-67428247D01*
X97673354Y-67247688D01*
X97133056Y-67276051D01*
X96765622Y-67428247D01*
X96700707Y-67666602D01*
X92710000Y-67666602D01*
X92710000Y-67302391D01*
X93231038Y-67302391D01*
X93355769Y-67493000D01*
X94647500Y-67493000D01*
X94647500Y-66385000D01*
X94901500Y-66385000D01*
X94901500Y-67493000D01*
X96193231Y-67493000D01*
X96317962Y-67302391D01*
X96314092Y-67264719D01*
X96087580Y-66836526D01*
X95714447Y-66527610D01*
X95251500Y-66385000D01*
X94901500Y-66385000D01*
X94647500Y-66385000D01*
X94297500Y-66385000D01*
X93834553Y-66527610D01*
X93461420Y-66836526D01*
X93234908Y-67264719D01*
X93231038Y-67302391D01*
X92710000Y-67302391D01*
X92710000Y-65710000D01*
X152530394Y-65710000D01*
X157910197Y-71089803D01*
X157910197Y-71089803D01*
G37*
X157910197Y-71089803D02*
X157951399Y-71117333D01*
X158000000Y-71127000D01*
X176000000Y-71127000D01*
X176048601Y-71117333D01*
X176089803Y-71089803D01*
X181469606Y-65710000D01*
X191290000Y-65710000D01*
X191290001Y-102637694D01*
X191070625Y-102309375D01*
X190579418Y-101981161D01*
X190146256Y-101895000D01*
X189969051Y-101895000D01*
X190801584Y-101062468D01*
X190907618Y-100991618D01*
X190978467Y-100885585D01*
X190978470Y-100885582D01*
X191188312Y-100571530D01*
X191188313Y-100571529D01*
X191262000Y-100201080D01*
X191262000Y-100201076D01*
X191286879Y-100076001D01*
X191262000Y-99950926D01*
X191262000Y-87544074D01*
X191286879Y-87418999D01*
X191262000Y-87293924D01*
X191262000Y-87293920D01*
X191188313Y-86923471D01*
X190907618Y-86503382D01*
X190801582Y-86432531D01*
X189751471Y-85382421D01*
X189680618Y-85276382D01*
X189260529Y-84995687D01*
X188890080Y-84922000D01*
X188890075Y-84922000D01*
X188765000Y-84897121D01*
X188639925Y-84922000D01*
X188071618Y-84922000D01*
X187952809Y-84744191D01*
X187742765Y-84603843D01*
X187495000Y-84554560D01*
X183535000Y-84554560D01*
X183287235Y-84603843D01*
X183077191Y-84744191D01*
X182958382Y-84922000D01*
X175217599Y-84922000D01*
X177677599Y-82462000D01*
X183500768Y-82462000D01*
X183890957Y-82722716D01*
X184364955Y-82817000D01*
X186665045Y-82817000D01*
X187139043Y-82722716D01*
X187676559Y-82363559D01*
X188035716Y-81826043D01*
X188161835Y-81192000D01*
X188035716Y-80557957D01*
X187676559Y-80020441D01*
X187139043Y-79661284D01*
X186665045Y-79567000D01*
X184364955Y-79567000D01*
X183890957Y-79661284D01*
X183500768Y-79922000D01*
X178062325Y-79922000D01*
X180682325Y-77302000D01*
X182958382Y-77302000D01*
X183077191Y-77479809D01*
X183287235Y-77620157D01*
X183535000Y-77669440D01*
X187495000Y-77669440D01*
X187742765Y-77620157D01*
X187952809Y-77479809D01*
X188093157Y-77269765D01*
X188142440Y-77022000D01*
X188142440Y-75042000D01*
X188093157Y-74794235D01*
X187952809Y-74584191D01*
X187742765Y-74443843D01*
X187495000Y-74394560D01*
X183535000Y-74394560D01*
X183287235Y-74443843D01*
X183077191Y-74584191D01*
X182958382Y-74762000D01*
X181034051Y-74762000D01*
X183494051Y-72302000D01*
X183500768Y-72302000D01*
X183890957Y-72562716D01*
X184364955Y-72657000D01*
X186665045Y-72657000D01*
X187139043Y-72562716D01*
X187676559Y-72203559D01*
X188035716Y-71666043D01*
X188161835Y-71032000D01*
X188035716Y-70397957D01*
X187676559Y-69860441D01*
X187139043Y-69501284D01*
X186665045Y-69407000D01*
X184364955Y-69407000D01*
X183890957Y-69501284D01*
X183500768Y-69762000D01*
X183093074Y-69762000D01*
X182967999Y-69737121D01*
X182842924Y-69762000D01*
X182842920Y-69762000D01*
X182472471Y-69835687D01*
X182281727Y-69963138D01*
X182238066Y-69992312D01*
X182052382Y-70116382D01*
X181981531Y-70222418D01*
X173390120Y-78813829D01*
X173390120Y-78453714D01*
X173217327Y-78036554D01*
X172898046Y-77717273D01*
X172480886Y-77544480D01*
X172029354Y-77544480D01*
X171742027Y-77663494D01*
X171602326Y-77523793D01*
X171185166Y-77351000D01*
X170880618Y-77351000D01*
X170756718Y-77268213D01*
X170534449Y-77224001D01*
X170534444Y-77224001D01*
X170459401Y-77209074D01*
X170453702Y-77210208D01*
X170447999Y-77209073D01*
X170372952Y-77224001D01*
X170372951Y-77224001D01*
X170302573Y-77238000D01*
X145075047Y-77238000D01*
X145000000Y-77223072D01*
X144924953Y-77238000D01*
X144924952Y-77238000D01*
X144702683Y-77282212D01*
X144450629Y-77450629D01*
X144408118Y-77514251D01*
X139576370Y-82346000D01*
X138118500Y-82346000D01*
X138118500Y-81723750D01*
X137959750Y-81565000D01*
X137060500Y-81565000D01*
X137060500Y-81585000D01*
X136806500Y-81585000D01*
X136806500Y-81565000D01*
X135907250Y-81565000D01*
X135748500Y-81723750D01*
X135748500Y-81960560D01*
X135590940Y-81960560D01*
X135590940Y-80813000D01*
X135520723Y-80459997D01*
X135488446Y-80411690D01*
X135748500Y-80411690D01*
X135748500Y-81152250D01*
X135907250Y-81311000D01*
X136806500Y-81311000D01*
X136806500Y-80061750D01*
X137060500Y-80061750D01*
X137060500Y-81311000D01*
X137959750Y-81311000D01*
X138118500Y-81152250D01*
X138118500Y-80411690D01*
X138021827Y-80178301D01*
X137843198Y-79999673D01*
X137609809Y-79903000D01*
X137219250Y-79903000D01*
X137060500Y-80061750D01*
X136806500Y-80061750D01*
X136647750Y-79903000D01*
X136257191Y-79903000D01*
X136023802Y-79999673D01*
X135845173Y-80178301D01*
X135748500Y-80411690D01*
X135488446Y-80411690D01*
X135320764Y-80160736D01*
X135021503Y-79960777D01*
X134668500Y-79890560D01*
X134118500Y-79890560D01*
X133765497Y-79960777D01*
X133466236Y-80160736D01*
X133266277Y-80459997D01*
X133196060Y-80813000D01*
X133196060Y-82063000D01*
X133266277Y-82416003D01*
X133441000Y-82677496D01*
X133441001Y-85023685D01*
X133422340Y-85117500D01*
X133496265Y-85489146D01*
X133496266Y-85489147D01*
X133706787Y-85804214D01*
X133786317Y-85857354D01*
X134134145Y-86205183D01*
X134187286Y-86284714D01*
X134476029Y-86477646D01*
X134502353Y-86495235D01*
X134874000Y-86569160D01*
X134967810Y-86550500D01*
X150020190Y-86550500D01*
X150113999Y-86569160D01*
X150207808Y-86550500D01*
X155673602Y-86550500D01*
X155755793Y-86748926D01*
X156075074Y-87068207D01*
X156492234Y-87241000D01*
X156943766Y-87241000D01*
X157360926Y-87068207D01*
X157370633Y-87058500D01*
X163736190Y-87058500D01*
X163830000Y-87077160D01*
X163923810Y-87058500D01*
X164201647Y-87003235D01*
X164516714Y-86792714D01*
X164569857Y-86713180D01*
X167598038Y-83685000D01*
X167611766Y-83685000D01*
X168028926Y-83512207D01*
X168348207Y-83192926D01*
X168521000Y-82775766D01*
X168521000Y-82324234D01*
X168348207Y-81907074D01*
X168028926Y-81587793D01*
X167611766Y-81415000D01*
X167160234Y-81415000D01*
X166743074Y-81587793D01*
X166423793Y-81907074D01*
X166251000Y-82324234D01*
X166251000Y-82337962D01*
X163435463Y-85153500D01*
X157370633Y-85153500D01*
X157360926Y-85143793D01*
X156943766Y-84971000D01*
X156936614Y-84971000D01*
X156896714Y-84911286D01*
X156581647Y-84700765D01*
X156303810Y-84645500D01*
X156210000Y-84626840D01*
X156116190Y-84645500D01*
X151032500Y-84645500D01*
X151032500Y-84149554D01*
X151150625Y-84070625D01*
X151478839Y-83579418D01*
X151594092Y-83000000D01*
X151478839Y-82420582D01*
X151150625Y-81929375D01*
X150659418Y-81601161D01*
X150226256Y-81515000D01*
X149933744Y-81515000D01*
X149500582Y-81601161D01*
X149009375Y-81929375D01*
X148796157Y-82248478D01*
X148735183Y-82118642D01*
X148306924Y-81728355D01*
X147896890Y-81558524D01*
X147667000Y-81679845D01*
X147667000Y-82873000D01*
X147687000Y-82873000D01*
X147687000Y-83127000D01*
X147667000Y-83127000D01*
X147667000Y-84320155D01*
X147896890Y-84441476D01*
X148306924Y-84271645D01*
X148735183Y-83881358D01*
X148796157Y-83751522D01*
X149009375Y-84070625D01*
X149127500Y-84149554D01*
X149127501Y-84645500D01*
X136684151Y-84645500D01*
X136790723Y-84486003D01*
X136860940Y-84133000D01*
X136860940Y-83870000D01*
X139816957Y-83870000D01*
X139892000Y-83884927D01*
X139967043Y-83870000D01*
X139967048Y-83870000D01*
X140189317Y-83825788D01*
X140441371Y-83657371D01*
X140483883Y-83593747D01*
X141927630Y-82150000D01*
X143502560Y-82150000D01*
X143502560Y-83850000D01*
X143551843Y-84097765D01*
X143692191Y-84307809D01*
X143902235Y-84448157D01*
X144150000Y-84497440D01*
X145850000Y-84497440D01*
X146097765Y-84448157D01*
X146307809Y-84307809D01*
X146448157Y-84097765D01*
X146468739Y-83994292D01*
X146773076Y-84271645D01*
X147183110Y-84441476D01*
X147413000Y-84320155D01*
X147413000Y-83127000D01*
X147393000Y-83127000D01*
X147393000Y-82873000D01*
X147413000Y-82873000D01*
X147413000Y-81679845D01*
X147183110Y-81558524D01*
X146773076Y-81728355D01*
X146468739Y-82005708D01*
X146448157Y-81902235D01*
X146307809Y-81692191D01*
X146097765Y-81551843D01*
X145850000Y-81502560D01*
X144150000Y-81502560D01*
X143902235Y-81551843D01*
X143692191Y-81692191D01*
X143551843Y-81902235D01*
X143502560Y-82150000D01*
X141927630Y-82150000D01*
X145315631Y-78762000D01*
X168044867Y-78762000D01*
X167947793Y-78859074D01*
X167775000Y-79276234D01*
X167775000Y-79727766D01*
X167947793Y-80144926D01*
X168267074Y-80464207D01*
X168684234Y-80637000D01*
X169135766Y-80637000D01*
X169552926Y-80464207D01*
X169753133Y-80264000D01*
X171374957Y-80264000D01*
X171450000Y-80278927D01*
X171525043Y-80264000D01*
X171525048Y-80264000D01*
X171747317Y-80219788D01*
X171999371Y-80051371D01*
X172041884Y-79987746D01*
X172215150Y-79814480D01*
X172389469Y-79814480D01*
X157164848Y-95039102D01*
X152473725Y-95039102D01*
X152473725Y-93420101D01*
X152424442Y-93172336D01*
X152284094Y-92962292D01*
X152074050Y-92821944D01*
X151826285Y-92772661D01*
X149921285Y-92772661D01*
X149673520Y-92821944D01*
X149463476Y-92962292D01*
X149345276Y-93139189D01*
X148953196Y-92877210D01*
X148333785Y-92754001D01*
X147714375Y-92877210D01*
X147189262Y-93228078D01*
X147054626Y-93429575D01*
X146660709Y-93044128D01*
X146166765Y-92829538D01*
X145920785Y-92949507D01*
X145920785Y-94293101D01*
X145940785Y-94293101D01*
X145940785Y-94547101D01*
X145920785Y-94547101D01*
X145920785Y-95890695D01*
X146166765Y-96010664D01*
X146660709Y-95796074D01*
X147040584Y-95424367D01*
X147038906Y-95432803D01*
X147063785Y-95557878D01*
X147063785Y-95557883D01*
X147137472Y-95928332D01*
X147418168Y-96348421D01*
X147524204Y-96419272D01*
X147668044Y-96563112D01*
X137499658Y-96563112D01*
X137100596Y-96164051D01*
X137100596Y-95971662D01*
X137170331Y-96018258D01*
X137418096Y-96067541D01*
X139323096Y-96067541D01*
X139570861Y-96018258D01*
X139780905Y-95877910D01*
X139921253Y-95667866D01*
X139970536Y-95420101D01*
X139970536Y-94793965D01*
X144241405Y-94793965D01*
X144484467Y-95363192D01*
X144926861Y-95796074D01*
X145420805Y-96010664D01*
X145666785Y-95890695D01*
X145666785Y-94547101D01*
X144368213Y-94547101D01*
X144241405Y-94793965D01*
X139970536Y-94793965D01*
X139970536Y-94046237D01*
X144241405Y-94046237D01*
X144368213Y-94293101D01*
X145666785Y-94293101D01*
X145666785Y-92949507D01*
X145420805Y-92829538D01*
X144926861Y-93044128D01*
X144484467Y-93477010D01*
X144241405Y-94046237D01*
X139970536Y-94046237D01*
X139970536Y-93420101D01*
X139921253Y-93172336D01*
X139780905Y-92962292D01*
X139570861Y-92821944D01*
X139323096Y-92772661D01*
X137418096Y-92772661D01*
X137170331Y-92821944D01*
X136960287Y-92962292D01*
X136842087Y-93139189D01*
X136450007Y-92877210D01*
X135830596Y-92754001D01*
X135211186Y-92877210D01*
X134686073Y-93228078D01*
X134551437Y-93429575D01*
X134157520Y-93044128D01*
X133663576Y-92829538D01*
X133417596Y-92949507D01*
X133417596Y-94293101D01*
X133437596Y-94293101D01*
X133437596Y-94547101D01*
X133417596Y-94547101D01*
X133417596Y-95890695D01*
X133663576Y-96010664D01*
X134157520Y-95796074D01*
X134551437Y-95410627D01*
X134560596Y-95424334D01*
X134560597Y-96565021D01*
X134535717Y-96690101D01*
X134634284Y-97185630D01*
X134844126Y-97499681D01*
X134844128Y-97499683D01*
X134914979Y-97605719D01*
X135021015Y-97676570D01*
X135431567Y-98087122D01*
X126514107Y-98087122D01*
X124591035Y-96164051D01*
X124591035Y-95971662D01*
X124660770Y-96018258D01*
X124908535Y-96067541D01*
X126813535Y-96067541D01*
X127061300Y-96018258D01*
X127271344Y-95877910D01*
X127411692Y-95667866D01*
X127460975Y-95420101D01*
X127460975Y-94793965D01*
X131738216Y-94793965D01*
X131981278Y-95363192D01*
X132423672Y-95796074D01*
X132917616Y-96010664D01*
X133163596Y-95890695D01*
X133163596Y-94547101D01*
X131865024Y-94547101D01*
X131738216Y-94793965D01*
X127460975Y-94793965D01*
X127460975Y-94046237D01*
X131738216Y-94046237D01*
X131865024Y-94293101D01*
X133163596Y-94293101D01*
X133163596Y-92949507D01*
X132917616Y-92829538D01*
X132423672Y-93044128D01*
X131981278Y-93477010D01*
X131738216Y-94046237D01*
X127460975Y-94046237D01*
X127460975Y-93420101D01*
X127411692Y-93172336D01*
X127271344Y-92962292D01*
X127061300Y-92821944D01*
X126813535Y-92772661D01*
X124908535Y-92772661D01*
X124660770Y-92821944D01*
X124450726Y-92962292D01*
X124332526Y-93139189D01*
X123940446Y-92877210D01*
X123321035Y-92754001D01*
X122701625Y-92877210D01*
X122176512Y-93228078D01*
X122041876Y-93429575D01*
X121647959Y-93044128D01*
X121154015Y-92829538D01*
X120908035Y-92949507D01*
X120908035Y-94293101D01*
X120928035Y-94293101D01*
X120928035Y-94547101D01*
X120908035Y-94547101D01*
X120908035Y-95890695D01*
X121154015Y-96010664D01*
X121647959Y-95796074D01*
X122041876Y-95410627D01*
X122051035Y-95424334D01*
X122051035Y-96565026D01*
X122026156Y-96690101D01*
X122051035Y-96815176D01*
X122051035Y-96815180D01*
X122124722Y-97185629D01*
X122405417Y-97605719D01*
X122511456Y-97676572D01*
X124446015Y-99611132D01*
X115541304Y-99611132D01*
X112094222Y-96164051D01*
X112094222Y-95971662D01*
X112163957Y-96018258D01*
X112411722Y-96067541D01*
X114316722Y-96067541D01*
X114564487Y-96018258D01*
X114774531Y-95877910D01*
X114914879Y-95667866D01*
X114964162Y-95420101D01*
X114964162Y-94793965D01*
X119228655Y-94793965D01*
X119471717Y-95363192D01*
X119914111Y-95796074D01*
X120408055Y-96010664D01*
X120654035Y-95890695D01*
X120654035Y-94547101D01*
X119355463Y-94547101D01*
X119228655Y-94793965D01*
X114964162Y-94793965D01*
X114964162Y-94046237D01*
X119228655Y-94046237D01*
X119355463Y-94293101D01*
X120654035Y-94293101D01*
X120654035Y-92949507D01*
X120408055Y-92829538D01*
X119914111Y-93044128D01*
X119471717Y-93477010D01*
X119228655Y-94046237D01*
X114964162Y-94046237D01*
X114964162Y-93420101D01*
X114914879Y-93172336D01*
X114774531Y-92962292D01*
X114564487Y-92821944D01*
X114316722Y-92772661D01*
X112411722Y-92772661D01*
X112163957Y-92821944D01*
X111953913Y-92962292D01*
X111835713Y-93139189D01*
X111443633Y-92877210D01*
X110824222Y-92754001D01*
X110204812Y-92877210D01*
X109679699Y-93228078D01*
X109545063Y-93429575D01*
X109151146Y-93044128D01*
X108657202Y-92829538D01*
X108411222Y-92949507D01*
X108411222Y-94293101D01*
X108431222Y-94293101D01*
X108431222Y-94547101D01*
X108411222Y-94547101D01*
X108411222Y-95890695D01*
X108657202Y-96010664D01*
X109151146Y-95796074D01*
X109545063Y-95410627D01*
X109554223Y-95424335D01*
X109554222Y-96565026D01*
X109529343Y-96690101D01*
X109554222Y-96815176D01*
X109554222Y-96815180D01*
X109627909Y-97185629D01*
X109908604Y-97605719D01*
X110014643Y-97676572D01*
X113473212Y-101135142D01*
X104568502Y-101135142D01*
X99597409Y-96164051D01*
X99597409Y-95971662D01*
X99667144Y-96018258D01*
X99914909Y-96067541D01*
X101819909Y-96067541D01*
X102067674Y-96018258D01*
X102277718Y-95877910D01*
X102418066Y-95667866D01*
X102467349Y-95420101D01*
X102467349Y-94793965D01*
X106731842Y-94793965D01*
X106974904Y-95363192D01*
X107417298Y-95796074D01*
X107911242Y-96010664D01*
X108157222Y-95890695D01*
X108157222Y-94547101D01*
X106858650Y-94547101D01*
X106731842Y-94793965D01*
X102467349Y-94793965D01*
X102467349Y-94046237D01*
X106731842Y-94046237D01*
X106858650Y-94293101D01*
X108157222Y-94293101D01*
X108157222Y-92949507D01*
X107911242Y-92829538D01*
X107417298Y-93044128D01*
X106974904Y-93477010D01*
X106731842Y-94046237D01*
X102467349Y-94046237D01*
X102467349Y-93420101D01*
X102418066Y-93172336D01*
X102277718Y-92962292D01*
X102067674Y-92821944D01*
X101819909Y-92772661D01*
X99914909Y-92772661D01*
X99667144Y-92821944D01*
X99457100Y-92962292D01*
X99338900Y-93139189D01*
X98946820Y-92877210D01*
X98327409Y-92754001D01*
X97707999Y-92877210D01*
X97182886Y-93228078D01*
X97048250Y-93429575D01*
X96654333Y-93044128D01*
X96160389Y-92829538D01*
X95914409Y-92949507D01*
X95914409Y-94293101D01*
X95934409Y-94293101D01*
X95934409Y-94547101D01*
X95914409Y-94547101D01*
X95914409Y-95890695D01*
X96160389Y-96010664D01*
X96654333Y-95796074D01*
X97048250Y-95410627D01*
X97057409Y-95424334D01*
X97057410Y-96565021D01*
X97032530Y-96690101D01*
X97131097Y-97185630D01*
X97340939Y-97499681D01*
X97340941Y-97499683D01*
X97411792Y-97605719D01*
X97517828Y-97676570D01*
X103055983Y-103214726D01*
X103126832Y-103320760D01*
X103232865Y-103391609D01*
X103232868Y-103391612D01*
X103442403Y-103531618D01*
X103546921Y-103601455D01*
X103917370Y-103675142D01*
X103917374Y-103675142D01*
X104042449Y-103700021D01*
X104167524Y-103675142D01*
X154773534Y-103675142D01*
X154847466Y-103749074D01*
X154580613Y-103847736D01*
X154354092Y-104457461D01*
X154378144Y-105107460D01*
X154580613Y-105596264D01*
X154847468Y-105694927D01*
X155820395Y-104722000D01*
X155806253Y-104707858D01*
X155985858Y-104528253D01*
X156000000Y-104542395D01*
X156014143Y-104528253D01*
X156193748Y-104707858D01*
X156179605Y-104722000D01*
X157152532Y-105694927D01*
X157419387Y-105596264D01*
X157645908Y-104986539D01*
X157621856Y-104336540D01*
X157419387Y-103847736D01*
X157152534Y-103749074D01*
X157226466Y-103675142D01*
X159234619Y-103675142D01*
X159113914Y-103795847D01*
X158865000Y-104396778D01*
X158865000Y-105047222D01*
X159113914Y-105648153D01*
X159573847Y-106108086D01*
X160174778Y-106357000D01*
X160825222Y-106357000D01*
X161426153Y-106108086D01*
X161886086Y-105648153D01*
X162135000Y-105047222D01*
X162135000Y-104396778D01*
X163365000Y-104396778D01*
X163365000Y-105047222D01*
X163613914Y-105648153D01*
X164073847Y-106108086D01*
X164674778Y-106357000D01*
X165325222Y-106357000D01*
X165926153Y-106108086D01*
X166159707Y-105874532D01*
X168527073Y-105874532D01*
X168625736Y-106141387D01*
X169235461Y-106367908D01*
X169885460Y-106343856D01*
X170374264Y-106141387D01*
X170472927Y-105874532D01*
X169500000Y-104901605D01*
X168527073Y-105874532D01*
X166159707Y-105874532D01*
X166386086Y-105648153D01*
X166635000Y-105047222D01*
X166635000Y-104457461D01*
X167854092Y-104457461D01*
X167878144Y-105107460D01*
X168080613Y-105596264D01*
X168347468Y-105694927D01*
X169320395Y-104722000D01*
X169679605Y-104722000D01*
X170652532Y-105694927D01*
X170919387Y-105596264D01*
X171145908Y-104986539D01*
X171124085Y-104396778D01*
X172365000Y-104396778D01*
X172365000Y-105047222D01*
X172613914Y-105648153D01*
X173073847Y-106108086D01*
X173674778Y-106357000D01*
X174325222Y-106357000D01*
X174926153Y-106108086D01*
X175386086Y-105648153D01*
X175635000Y-105047222D01*
X175635000Y-104457461D01*
X176854092Y-104457461D01*
X176878144Y-105107460D01*
X177080613Y-105596264D01*
X177347468Y-105694927D01*
X178320395Y-104722000D01*
X177347468Y-103749073D01*
X177080613Y-103847736D01*
X176854092Y-104457461D01*
X175635000Y-104457461D01*
X175635000Y-104396778D01*
X175386086Y-103795847D01*
X174926153Y-103335914D01*
X174325222Y-103087000D01*
X173674778Y-103087000D01*
X173073847Y-103335914D01*
X172613914Y-103795847D01*
X172365000Y-104396778D01*
X171124085Y-104396778D01*
X171121856Y-104336540D01*
X170919387Y-103847736D01*
X170652532Y-103749073D01*
X169679605Y-104722000D01*
X169320395Y-104722000D01*
X168347468Y-103749073D01*
X168080613Y-103847736D01*
X167854092Y-104457461D01*
X166635000Y-104457461D01*
X166635000Y-104396778D01*
X166386086Y-103795847D01*
X166159707Y-103569468D01*
X168527073Y-103569468D01*
X169500000Y-104542395D01*
X170472927Y-103569468D01*
X170374264Y-103302613D01*
X169764539Y-103076092D01*
X169114540Y-103100144D01*
X168625736Y-103302613D01*
X168527073Y-103569468D01*
X166159707Y-103569468D01*
X165926153Y-103335914D01*
X165325222Y-103087000D01*
X164674778Y-103087000D01*
X164073847Y-103335914D01*
X163613914Y-103795847D01*
X163365000Y-104396778D01*
X162135000Y-104396778D01*
X161886086Y-103795847D01*
X161426153Y-103335914D01*
X161213347Y-103247767D01*
X161235428Y-103214721D01*
X171828149Y-92622000D01*
X180086001Y-92622000D01*
X180086000Y-101284370D01*
X178137883Y-99336253D01*
X178095371Y-99272629D01*
X177843317Y-99104212D01*
X177621048Y-99060000D01*
X177621043Y-99060000D01*
X177546000Y-99045073D01*
X177470957Y-99060000D01*
X169944051Y-99060000D01*
X169629397Y-98745346D01*
X169162619Y-98552000D01*
X168657381Y-98552000D01*
X168190603Y-98745346D01*
X167833346Y-99102603D01*
X167640000Y-99569381D01*
X167640000Y-100074619D01*
X167833346Y-100541397D01*
X168190603Y-100898654D01*
X168657381Y-101092000D01*
X169162619Y-101092000D01*
X169629397Y-100898654D01*
X169944051Y-100584000D01*
X177230370Y-100584000D01*
X179578001Y-102931632D01*
X179578001Y-103464391D01*
X179472926Y-103569466D01*
X179374264Y-103302613D01*
X178764539Y-103076092D01*
X178114540Y-103100144D01*
X177625736Y-103302613D01*
X177527073Y-103569468D01*
X178500000Y-104542395D01*
X178514143Y-104528253D01*
X178693748Y-104707858D01*
X178679605Y-104722000D01*
X178693748Y-104736143D01*
X178514143Y-104915748D01*
X178500000Y-104901605D01*
X177527073Y-105874532D01*
X177625736Y-106141387D01*
X178235461Y-106367908D01*
X178885460Y-106343856D01*
X179374264Y-106141387D01*
X179472926Y-105874534D01*
X179578000Y-105979608D01*
X179578000Y-106002013D01*
X179563073Y-106077056D01*
X179578000Y-106152099D01*
X179578000Y-106152103D01*
X179622212Y-106374372D01*
X179790629Y-106626427D01*
X179854253Y-106668939D01*
X184184682Y-110999369D01*
X182734950Y-112449102D01*
X179445357Y-112449102D01*
X179472927Y-112374532D01*
X178500000Y-111401605D01*
X177527073Y-112374532D01*
X177554643Y-112449102D01*
X175085137Y-112449102D01*
X175386086Y-112148153D01*
X175635000Y-111547222D01*
X175635000Y-110957461D01*
X176854092Y-110957461D01*
X176878144Y-111607460D01*
X177080613Y-112096264D01*
X177347468Y-112194927D01*
X178320395Y-111222000D01*
X178679605Y-111222000D01*
X179652532Y-112194927D01*
X179919387Y-112096264D01*
X180145908Y-111486539D01*
X180121856Y-110836540D01*
X179919387Y-110347736D01*
X179652532Y-110249073D01*
X178679605Y-111222000D01*
X178320395Y-111222000D01*
X177347468Y-110249073D01*
X177080613Y-110347736D01*
X176854092Y-110957461D01*
X175635000Y-110957461D01*
X175635000Y-110896778D01*
X175386086Y-110295847D01*
X175159707Y-110069468D01*
X177527073Y-110069468D01*
X178500000Y-111042395D01*
X179472927Y-110069468D01*
X179374264Y-109802613D01*
X178764539Y-109576092D01*
X178114540Y-109600144D01*
X177625736Y-109802613D01*
X177527073Y-110069468D01*
X175159707Y-110069468D01*
X174926153Y-109835914D01*
X174325222Y-109587000D01*
X173674778Y-109587000D01*
X173073847Y-109835914D01*
X172613914Y-110295847D01*
X172365000Y-110896778D01*
X172365000Y-111547222D01*
X172613914Y-112148153D01*
X172914863Y-112449102D01*
X170445357Y-112449102D01*
X170472927Y-112374532D01*
X169500000Y-111401605D01*
X168527073Y-112374532D01*
X168554643Y-112449102D01*
X166085137Y-112449102D01*
X166386086Y-112148153D01*
X166635000Y-111547222D01*
X166635000Y-110957461D01*
X167854092Y-110957461D01*
X167878144Y-111607460D01*
X168080613Y-112096264D01*
X168347468Y-112194927D01*
X169320395Y-111222000D01*
X169679605Y-111222000D01*
X170652532Y-112194927D01*
X170919387Y-112096264D01*
X171145908Y-111486539D01*
X171121856Y-110836540D01*
X170919387Y-110347736D01*
X170652532Y-110249073D01*
X169679605Y-111222000D01*
X169320395Y-111222000D01*
X168347468Y-110249073D01*
X168080613Y-110347736D01*
X167854092Y-110957461D01*
X166635000Y-110957461D01*
X166635000Y-110896778D01*
X166386086Y-110295847D01*
X166159707Y-110069468D01*
X168527073Y-110069468D01*
X169500000Y-111042395D01*
X170472927Y-110069468D01*
X170374264Y-109802613D01*
X169764539Y-109576092D01*
X169114540Y-109600144D01*
X168625736Y-109802613D01*
X168527073Y-110069468D01*
X166159707Y-110069468D01*
X165926153Y-109835914D01*
X165325222Y-109587000D01*
X164674778Y-109587000D01*
X164073847Y-109835914D01*
X163613914Y-110295847D01*
X163365000Y-110896778D01*
X163365000Y-111547222D01*
X163613914Y-112148153D01*
X163914863Y-112449102D01*
X161585137Y-112449102D01*
X161886086Y-112148153D01*
X162135000Y-111547222D01*
X162135000Y-110896778D01*
X161886086Y-110295847D01*
X161426153Y-109835914D01*
X160825222Y-109587000D01*
X160174778Y-109587000D01*
X159573847Y-109835914D01*
X159113914Y-110295847D01*
X158865000Y-110896778D01*
X158865000Y-111547222D01*
X159113914Y-112148153D01*
X159414863Y-112449102D01*
X156945357Y-112449102D01*
X156972927Y-112374532D01*
X156000000Y-111401605D01*
X155027073Y-112374532D01*
X155054643Y-112449102D01*
X150287462Y-112449102D01*
X150580405Y-112010681D01*
X150765509Y-111080101D01*
X150741115Y-110957461D01*
X154354092Y-110957461D01*
X154378144Y-111607460D01*
X154580613Y-112096264D01*
X154847468Y-112194927D01*
X155820395Y-111222000D01*
X156179605Y-111222000D01*
X157152532Y-112194927D01*
X157419387Y-112096264D01*
X157645908Y-111486539D01*
X157621856Y-110836540D01*
X157419387Y-110347736D01*
X157152532Y-110249073D01*
X156179605Y-111222000D01*
X155820395Y-111222000D01*
X154847468Y-110249073D01*
X154580613Y-110347736D01*
X154354092Y-110957461D01*
X150741115Y-110957461D01*
X150580405Y-110149521D01*
X150526916Y-110069468D01*
X155027073Y-110069468D01*
X156000000Y-111042395D01*
X156972927Y-110069468D01*
X156874264Y-109802613D01*
X156264539Y-109576092D01*
X155614540Y-109600144D01*
X155125736Y-109802613D01*
X155027073Y-110069468D01*
X150526916Y-110069468D01*
X150053274Y-109360612D01*
X149264365Y-108833481D01*
X148568682Y-108695101D01*
X148098888Y-108695101D01*
X147403205Y-108833481D01*
X146614296Y-109360612D01*
X146087165Y-110149521D01*
X145902061Y-111080101D01*
X146087165Y-112010681D01*
X146380108Y-112449102D01*
X137784273Y-112449102D01*
X138077216Y-112010681D01*
X138262320Y-111080101D01*
X138077216Y-110149521D01*
X137550085Y-109360612D01*
X136761176Y-108833481D01*
X136065493Y-108695101D01*
X135595699Y-108695101D01*
X134900016Y-108833481D01*
X134111107Y-109360612D01*
X133583976Y-110149521D01*
X133398872Y-111080101D01*
X133583976Y-112010681D01*
X133876919Y-112449102D01*
X125274712Y-112449102D01*
X125567655Y-112010681D01*
X125752759Y-111080101D01*
X125567655Y-110149521D01*
X125040524Y-109360612D01*
X124251615Y-108833481D01*
X123555932Y-108695101D01*
X123086138Y-108695101D01*
X122390455Y-108833481D01*
X121601546Y-109360612D01*
X121074415Y-110149521D01*
X120889311Y-111080101D01*
X121074415Y-112010681D01*
X121367358Y-112449102D01*
X112777899Y-112449102D01*
X113070842Y-112010681D01*
X113255946Y-111080101D01*
X113070842Y-110149521D01*
X112543711Y-109360612D01*
X111754802Y-108833481D01*
X111059119Y-108695101D01*
X110589325Y-108695101D01*
X109893642Y-108833481D01*
X109104733Y-109360612D01*
X108577602Y-110149521D01*
X108392498Y-111080101D01*
X108577602Y-112010681D01*
X108870545Y-112449102D01*
X100281086Y-112449102D01*
X100574029Y-112010681D01*
X100759133Y-111080101D01*
X100574029Y-110149521D01*
X100046898Y-109360612D01*
X99257989Y-108833481D01*
X98562306Y-108695101D01*
X98092512Y-108695101D01*
X97396829Y-108833481D01*
X96607920Y-109360612D01*
X96080789Y-110149521D01*
X95949117Y-110811481D01*
X95215899Y-110078263D01*
X95215899Y-105874532D01*
X155027073Y-105874532D01*
X155125736Y-106141387D01*
X155735461Y-106367908D01*
X156385460Y-106343856D01*
X156874264Y-106141387D01*
X156972927Y-105874532D01*
X156000000Y-104901605D01*
X155027073Y-105874532D01*
X95215899Y-105874532D01*
X95215899Y-95924414D01*
X95414429Y-96010664D01*
X95660409Y-95890695D01*
X95660409Y-94547101D01*
X95640409Y-94547101D01*
X95640409Y-94293101D01*
X95660409Y-94293101D01*
X95660409Y-92949507D01*
X95414429Y-92829538D01*
X95215899Y-92915788D01*
X95215899Y-86985750D01*
X101615000Y-86985750D01*
X101615000Y-88576310D01*
X101711673Y-88809699D01*
X101890302Y-88988327D01*
X102123691Y-89085000D01*
X103714250Y-89085000D01*
X103873000Y-88926250D01*
X103873000Y-86827000D01*
X104127000Y-86827000D01*
X104127000Y-88926250D01*
X104285750Y-89085000D01*
X105876309Y-89085000D01*
X106109698Y-88988327D01*
X106288327Y-88809699D01*
X106385000Y-88576310D01*
X106385000Y-86985750D01*
X106226250Y-86827000D01*
X104127000Y-86827000D01*
X103873000Y-86827000D01*
X101773750Y-86827000D01*
X101615000Y-86985750D01*
X95215899Y-86985750D01*
X95215899Y-82285750D01*
X98865000Y-82285750D01*
X98865000Y-83876310D01*
X98961673Y-84109699D01*
X99140302Y-84288327D01*
X99373691Y-84385000D01*
X100714250Y-84385000D01*
X100873000Y-84226250D01*
X100873000Y-82127000D01*
X101127000Y-82127000D01*
X101127000Y-84226250D01*
X101285750Y-84385000D01*
X101954696Y-84385000D01*
X101890302Y-84411673D01*
X101711673Y-84590301D01*
X101615000Y-84823690D01*
X101615000Y-86414250D01*
X101773750Y-86573000D01*
X103873000Y-86573000D01*
X103873000Y-84473750D01*
X103714250Y-84315000D01*
X102795304Y-84315000D01*
X102859698Y-84288327D01*
X103038327Y-84109699D01*
X103135000Y-83876310D01*
X103135000Y-82285750D01*
X102976250Y-82127000D01*
X101127000Y-82127000D01*
X100873000Y-82127000D01*
X99023750Y-82127000D01*
X98865000Y-82285750D01*
X95215899Y-82285750D01*
X95215899Y-81713151D01*
X96298061Y-80630990D01*
X98865000Y-80630990D01*
X98865000Y-81714250D01*
X99023750Y-81873000D01*
X100873000Y-81873000D01*
X100873000Y-81853000D01*
X101127000Y-81853000D01*
X101127000Y-81873000D01*
X102976250Y-81873000D01*
X103135000Y-81714250D01*
X103135000Y-80630990D01*
X103834940Y-80630990D01*
X104602560Y-81398610D01*
X104602560Y-83750000D01*
X104651843Y-83997765D01*
X104792191Y-84207809D01*
X104952612Y-84315000D01*
X104285750Y-84315000D01*
X104127000Y-84473750D01*
X104127000Y-86573000D01*
X106226250Y-86573000D01*
X106385000Y-86414250D01*
X106385000Y-84823690D01*
X106288327Y-84590301D01*
X106109698Y-84411673D01*
X106075337Y-84397440D01*
X108750000Y-84397440D01*
X108997765Y-84348157D01*
X109207809Y-84207809D01*
X109348157Y-83997765D01*
X109397440Y-83750000D01*
X109397440Y-80250000D01*
X109348157Y-80002235D01*
X109207809Y-79792191D01*
X108997765Y-79651843D01*
X108750000Y-79602560D01*
X106398610Y-79602560D01*
X105347461Y-78551411D01*
X105276608Y-78445372D01*
X104856519Y-78164677D01*
X104486070Y-78090990D01*
X104486065Y-78090990D01*
X104360990Y-78066111D01*
X104235915Y-78090990D01*
X95897085Y-78090990D01*
X95772010Y-78066111D01*
X95646935Y-78090990D01*
X95646930Y-78090990D01*
X95276481Y-78164677D01*
X95276479Y-78164678D01*
X95276480Y-78164678D01*
X94973684Y-78367000D01*
X94856392Y-78445372D01*
X94785540Y-78551409D01*
X93136320Y-80200630D01*
X93030281Y-80271483D01*
X92749586Y-80691573D01*
X92710000Y-80890585D01*
X92710000Y-74937609D01*
X93231038Y-74937609D01*
X93234908Y-74975281D01*
X93461420Y-75403474D01*
X93834553Y-75712390D01*
X94297500Y-75855000D01*
X94647500Y-75855000D01*
X94647500Y-74747000D01*
X94901500Y-74747000D01*
X94901500Y-75855000D01*
X95251500Y-75855000D01*
X95714447Y-75712390D01*
X96087580Y-75403474D01*
X96314092Y-74975281D01*
X96317962Y-74937609D01*
X96193231Y-74747000D01*
X94901500Y-74747000D01*
X94647500Y-74747000D01*
X93355769Y-74747000D01*
X93231038Y-74937609D01*
X92710000Y-74937609D01*
X92710000Y-74573398D01*
X96700707Y-74573398D01*
X96765622Y-74811753D01*
X97275646Y-74992312D01*
X97815944Y-74963949D01*
X98183378Y-74811753D01*
X98248293Y-74573398D01*
X97474500Y-73799605D01*
X96700707Y-74573398D01*
X92710000Y-74573398D01*
X92710000Y-74302391D01*
X93231038Y-74302391D01*
X93355769Y-74493000D01*
X94647500Y-74493000D01*
X94647500Y-73385000D01*
X94901500Y-73385000D01*
X94901500Y-74493000D01*
X96193231Y-74493000D01*
X96297924Y-74333012D01*
X96521102Y-74393793D01*
X97294895Y-73620000D01*
X97654105Y-73620000D01*
X98427898Y-74393793D01*
X98666253Y-74328878D01*
X98846812Y-73818854D01*
X98818449Y-73278556D01*
X98666253Y-72911122D01*
X98427898Y-72846207D01*
X97654105Y-73620000D01*
X97294895Y-73620000D01*
X96521102Y-72846207D01*
X96282747Y-72911122D01*
X96102188Y-73421146D01*
X96128005Y-73912945D01*
X96087580Y-73836526D01*
X95714447Y-73527610D01*
X95251500Y-73385000D01*
X94901500Y-73385000D01*
X94647500Y-73385000D01*
X94297500Y-73385000D01*
X93834553Y-73527610D01*
X93461420Y-73836526D01*
X93234908Y-74264719D01*
X93231038Y-74302391D01*
X92710000Y-74302391D01*
X92710000Y-72666602D01*
X96700707Y-72666602D01*
X97474500Y-73440395D01*
X98248293Y-72666602D01*
X98183378Y-72428247D01*
X97673354Y-72247688D01*
X97133056Y-72276051D01*
X96765622Y-72428247D01*
X96700707Y-72666602D01*
X92710000Y-72666602D01*
X92710000Y-69573398D01*
X96700707Y-69573398D01*
X96765622Y-69811753D01*
X97275646Y-69992312D01*
X97815944Y-69963949D01*
X98183378Y-69811753D01*
X98248293Y-69573398D01*
X97474500Y-68799605D01*
X96700707Y-69573398D01*
X92710000Y-69573398D01*
X92710000Y-67937609D01*
X93231038Y-67937609D01*
X93234908Y-67975281D01*
X93461420Y-68403474D01*
X93834553Y-68712390D01*
X94297500Y-68855000D01*
X94647500Y-68855000D01*
X94647500Y-67747000D01*
X94901500Y-67747000D01*
X94901500Y-68855000D01*
X95251500Y-68855000D01*
X95714447Y-68712390D01*
X96087580Y-68403474D01*
X96150658Y-68284232D01*
X96102188Y-68421146D01*
X96130551Y-68961444D01*
X96282747Y-69328878D01*
X96521102Y-69393793D01*
X97294895Y-68620000D01*
X97654105Y-68620000D01*
X98427898Y-69393793D01*
X98666253Y-69328878D01*
X98831454Y-68862234D01*
X105037000Y-68862234D01*
X105037000Y-69313766D01*
X105209793Y-69730926D01*
X105455867Y-69977000D01*
X105209793Y-70223074D01*
X105037000Y-70640234D01*
X105037000Y-71091766D01*
X105209793Y-71508926D01*
X105529074Y-71828207D01*
X105946234Y-72001000D01*
X106397766Y-72001000D01*
X106814926Y-71828207D01*
X107015133Y-71628000D01*
X116524370Y-71628000D01*
X121836118Y-76939749D01*
X121878629Y-77003371D01*
X121942251Y-77045882D01*
X122130681Y-77171787D01*
X122130682Y-77171787D01*
X122130683Y-77171788D01*
X122352952Y-77216000D01*
X122352956Y-77216000D01*
X122427999Y-77230927D01*
X122503042Y-77216000D01*
X123108867Y-77216000D01*
X123309074Y-77416207D01*
X123726234Y-77589000D01*
X124177766Y-77589000D01*
X124594926Y-77416207D01*
X124914207Y-77096926D01*
X125087000Y-76679766D01*
X125087000Y-76228234D01*
X124914207Y-75811074D01*
X124594926Y-75491793D01*
X124177766Y-75319000D01*
X123817000Y-75319000D01*
X123817000Y-75212234D01*
X123644207Y-74795074D01*
X123324926Y-74475793D01*
X122907766Y-74303000D01*
X122624631Y-74303000D01*
X116923883Y-68602253D01*
X116881371Y-68538629D01*
X116629317Y-68370212D01*
X116407048Y-68326000D01*
X116407043Y-68326000D01*
X116332000Y-68311073D01*
X116256957Y-68326000D01*
X107015133Y-68326000D01*
X106814926Y-68125793D01*
X106397766Y-67953000D01*
X105946234Y-67953000D01*
X105529074Y-68125793D01*
X105209793Y-68445074D01*
X105037000Y-68862234D01*
X98831454Y-68862234D01*
X98846812Y-68818854D01*
X98818449Y-68278556D01*
X98666253Y-67911122D01*
X98427898Y-67846207D01*
X97654105Y-68620000D01*
X97294895Y-68620000D01*
X96521102Y-67846207D01*
X96297924Y-67906988D01*
X96193231Y-67747000D01*
X94901500Y-67747000D01*
X94647500Y-67747000D01*
X93355769Y-67747000D01*
X93231038Y-67937609D01*
X92710000Y-67937609D01*
X92710000Y-67666602D01*
X96700707Y-67666602D01*
X97474500Y-68440395D01*
X98248293Y-67666602D01*
X98183378Y-67428247D01*
X97673354Y-67247688D01*
X97133056Y-67276051D01*
X96765622Y-67428247D01*
X96700707Y-67666602D01*
X92710000Y-67666602D01*
X92710000Y-67302391D01*
X93231038Y-67302391D01*
X93355769Y-67493000D01*
X94647500Y-67493000D01*
X94647500Y-66385000D01*
X94901500Y-66385000D01*
X94901500Y-67493000D01*
X96193231Y-67493000D01*
X96317962Y-67302391D01*
X96314092Y-67264719D01*
X96087580Y-66836526D01*
X95714447Y-66527610D01*
X95251500Y-66385000D01*
X94901500Y-66385000D01*
X94647500Y-66385000D01*
X94297500Y-66385000D01*
X93834553Y-66527610D01*
X93461420Y-66836526D01*
X93234908Y-67264719D01*
X93231038Y-67302391D01*
X92710000Y-67302391D01*
X92710000Y-65710000D01*
X152530394Y-65710000D01*
X157910197Y-71089803D01*
G04 #@! TD*
M02*
