<?xml version="1.0" standalone="no"?>
 <!DOCTYPE svg PUBLIC "-//W3C//DTD SVG 1.1//EN" 
 "http://www.w3.org/Graphics/SVG/1.1/DTD/svg11.dtd"> 
<svg xmlns="http://www.w3.org/2000/svg" version="1.1" 
    width="12.3825cm" height="7.9375cm" viewBox="0 0 48750 31250 ">
<title>SVG Picture created as ESPLED-F.SilkS.svg date 2019/01/08 01:43:35 </title>
  <desc>Picture generated by PCBNEW </desc>
<g style="fill:#000000; fill-opacity:1;stroke:#000000; stroke-opacity:1;
stroke-linecap:round; stroke-linejoin:round; "
 transform="translate(0 0) scale(1 1)">
</g>
<g style="fill:#000000; fill-opacity:0.0; 
stroke:#000000; stroke-width:-0.000393701; stroke-opacity:1; 
stroke-linecap:round; stroke-linejoin:round;">
</g>
<g style="fill:#000000; fill-opacity:0.0; 
stroke:#000000; stroke-width:78.7402; stroke-opacity:1; 
stroke-linecap:round; stroke-linejoin:round;">
<path d="M19320 13645
L19320 5771
" />
<path d="M24438 13645
L19320 13645
" />
<path d="M24438 5771
L24438 13645
" />
<path d="M19320 5771
L24438 5771
" />
</g>
<g style="fill:#000000; fill-opacity:0.0; 
stroke:#000000; stroke-width:118.11; stroke-opacity:1; 
stroke-linecap:round; stroke-linejoin:round;">
<path d="M17343 30969
L17006 30969
" />
<path d="M17174 30969
L17174 30379
L17118 30463
L17062 30519
L17006 30547
" />
<path d="M17709 30379
L17765 30379
L17821 30407
L17849 30435
L17877 30491
L17905 30604
L17905 30744
L17877 30857
L17849 30913
L17821 30941
L17765 30969
L17709 30969
L17652 30941
L17624 30913
L17596 30857
L17568 30744
L17568 30604
L17596 30491
L17624 30435
L17652 30407
L17709 30379
" />
<path d="M18271 30379
L18327 30379
L18383 30407
L18412 30435
L18440 30491
L18468 30604
L18468 30744
L18440 30857
L18412 30913
L18383 30941
L18327 30969
L18271 30969
L18215 30941
L18187 30913
L18158 30857
L18130 30744
L18130 30604
L18158 30491
L18187 30435
L18215 30407
L18271 30379
" />
<path d="M18749 30941
L18749 30969
L18721 31026
L18693 31054
" />
<path d="M19115 30379
L19171 30379
L19227 30407
L19255 30435
L19283 30491
L19311 30604
L19311 30744
L19283 30857
L19255 30913
L19227 30941
L19171 30969
L19115 30969
L19058 30941
L19030 30913
L19002 30857
L18974 30744
L18974 30604
L19002 30491
L19030 30435
L19058 30407
L19115 30379
" />
<path d="M19677 30379
L19733 30379
L19790 30407
L19818 30435
L19846 30491
L19874 30604
L19874 30744
L19846 30857
L19818 30913
L19790 30941
L19733 30969
L19677 30969
L19621 30941
L19593 30913
L19565 30857
L19536 30744
L19536 30604
L19565 30491
L19593 30435
L19621 30407
L19677 30379
" />
<path d="M20239 30379
L20296 30379
L20352 30407
L20380 30435
L20408 30491
L20436 30604
L20436 30744
L20408 30857
L20380 30913
L20352 30941
L20296 30969
L20239 30969
L20183 30941
L20155 30913
L20127 30857
L20099 30744
L20099 30604
L20127 30491
L20155 30435
L20183 30407
L20239 30379
" />
<path d="M21139 30969
L21139 30576
" />
<path d="M21139 30632
L21167 30604
L21224 30576
L21308 30576
L21364 30604
L21392 30660
L21392 30969
" />
<path d="M21392 30660
L21421 30604
L21477 30576
L21561 30576
L21617 30604
L21646 30660
L21646 30969
" />
<path d="M21927 30969
L21927 30576
" />
<path d="M21927 30632
L21955 30604
L22011 30576
L22096 30576
L22152 30604
L22180 30660
L22180 30969
" />
<path d="M22180 30660
L22208 30604
L22264 30576
L22349 30576
L22405 30604
L22433 30660
L22433 30969
" />
<path d="M48 29875
L39418 29875
" />
<path d="M48 25545
L48 30106
" />
<path d="M39418 25545
L39418 30106
" />
<path d="M39418 29875
L38975 30106
" />
<path d="M39418 29875
L38975 29644
" />
<path d="M48 29875
L492 30106
" />
<path d="M48 29875
L492 29644
" />
<path d="M46455 13083
L46455 12802
L46174 12773
L46202 12802
L46230 12858
L46230 12998
L46202 13055
L46174 13083
L46117 13111
L45977 13111
L45920 13083
L45892 13055
L45864 12998
L45864 12858
L45892 12802
L45920 12773
" />
<path d="M46455 13476
L46455 13533
L46427 13589
L46399 13617
L46342 13645
L46230 13673
L46089 13673
L45977 13645
L45920 13617
L45892 13589
L45864 13533
L45864 13476
L45892 13420
L45920 13392
L45977 13364
L46089 13336
L46230 13336
L46342 13364
L46399 13392
L46427 13420
L46455 13476
" />
<path d="M45892 13955
L45864 13955
L45808 13926
L45780 13898
" />
<path d="M46455 14320
L46455 14376
L46427 14433
L46399 14461
L46342 14489
L46230 14517
L46089 14517
L45977 14489
L45920 14461
L45892 14433
L45864 14376
L45864 14320
L45892 14264
L45920 14236
L45977 14208
L46089 14179
L46230 14179
L46342 14208
L46399 14236
L46427 14264
L46455 14320
" />
<path d="M46455 14883
L46455 14939
L46427 14995
L46399 15023
L46342 15051
L46230 15079
L46089 15079
L45977 15051
L45920 15023
L45892 14995
L45864 14939
L45864 14883
L45892 14826
L45920 14798
L45977 14770
L46089 14742
L46230 14742
L46342 14770
L46399 14798
L46427 14826
L46455 14883
" />
<path d="M46455 15445
L46455 15501
L46427 15557
L46399 15586
L46342 15614
L46230 15642
L46089 15642
L45977 15614
L45920 15586
L45892 15557
L45864 15501
L45864 15445
L45892 15389
L45920 15361
L45977 15332
L46089 15304
L46230 15304
L46342 15332
L46399 15361
L46427 15389
L46455 15445
" />
<path d="M45864 16345
L46258 16345
" />
<path d="M46202 16345
L46230 16373
L46258 16429
L46258 16514
L46230 16570
L46174 16598
L45864 16598
" />
<path d="M46174 16598
L46230 16626
L46258 16682
L46258 16767
L46230 16823
L46174 16851
L45864 16851
" />
<path d="M45864 17132
L46258 17132
" />
<path d="M46202 17132
L46230 17160
L46258 17217
L46258 17301
L46230 17357
L46174 17385
L45864 17385
" />
<path d="M46174 17385
L46230 17413
L46258 17470
L46258 17554
L46230 17610
L46174 17638
L45864 17638
" />
<path d="M45305 5377
L45305 25062
" />
<path d="M40187 5377
L45535 5377
" />
<path d="M40187 25062
L45535 25062
" />
<path d="M45305 25062
L45074 24619
" />
<path d="M45305 25062
L45535 24619
" />
<path d="M45305 5377
L45074 5821
" />
<path d="M45305 5377
L45535 5821
" />
</g>
<g style="fill:#000000; fill-opacity:0.0; 
stroke:#000000; stroke-width:47.2441; stroke-opacity:1; 
stroke-linecap:round; stroke-linejoin:round;">
<path d="M17100 9850
L17100 8334
" />
<path d="M17100 5629
L17100 7145
" />
<path d="M13298 5629
L17100 5629
" />
<path d="M13298 9850
L17100 9850
" />
<path d="M12879 9431
L12879 8334
" />
<path d="M12879 6048
L12879 7145
" />
<path d="M12879 6048
L13298 5629
" />
<path d="M12879 9431
L13298 9850
" />
<path d="M12293 6653
L12785 6653
" />
<path d="M12539 6407
L12539 6899
" />
<path d="M16238 13846
L16103 13846
" />
<path d="M16238 13444
L16103 13444
" />
<path d="M8331 13488
L8197 13488
" />
<path d="M8331 13086
L8197 13086
" />
<path d="M16297 10586
L16431 10586
" />
<path d="M16297 10988
L16431 10988
" />
<path d="M8320 10786
L8186 10786
" />
<path d="M8320 11188
L8186 11188
" />
<path d="M26597 14786
L26731 14786
" />
<path d="M26597 15188
L26731 15188
" />
<path d="M34009 13219
L34009 13354
" />
<path d="M33608 13219
L33608 13354
" />
</g>
<g style="fill:#000000; fill-opacity:0.0; 
stroke:#000000; stroke-width:59.0551; stroke-opacity:1; 
stroke-linecap:round; stroke-linejoin:round;">
<path d="M14937 11051
L14829 11051
" />
<path d="M14937 13236
L14797 13236
" />
<path d="M10784 13236
L10923 13236
" />
<path d="M10784 11051
L10923 11051
" />
<path d="M14937 11051
L14937 13236
" />
<path d="M10784 11051
L10784 13236
" />
<path d="M14829 11051
L14829 10451
" />
</g>
<g style="fill:#000000; fill-opacity:0.0; 
stroke:#000000; stroke-width:47.2441; stroke-opacity:1; 
stroke-linecap:round; stroke-linejoin:round;">
<path d="M32753 8645
L32753 8488
" />
<path d="M26360 8645
L26360 8488
" />
<path d="M32753 9433
L32753 9275
" />
<path d="M26360 9433
L26360 9275
" />
<path d="M32753 10220
L32753 10062
" />
<path d="M26360 10220
L26360 10062
" />
<path d="M32753 11007
L32753 10850
" />
<path d="M26360 11007
L26360 10850
" />
<path d="M32753 11795
L32753 11637
" />
<path d="M26360 11795
L26360 11637
" />
<path d="M32753 12582
L32753 12425
" />
<path d="M26360 12582
L26360 12425
" />
<path d="M32753 13370
L32753 13212
" />
<path d="M26360 13370
L26360 13212
" />
<path d="M25954 7976
L25954 8370
" />
<path d="M26360 14322
L26360 14000
" />
<path d="M32753 14322
L26360 14322
" />
<path d="M32753 14000
L32753 14322
" />
<path d="M1289.37 14807.1 A275.591 275.591 0.0 0 0 1013.78 15082.7 " />
<path d="M1801.18 15082.7 A275.591 275.591 0.0 0 0 1525.59 14807.1 " />
<path d="M1525.59 15909.4 A275.591 275.591 0.0 0 0 1801.18 15633.9 " />
<path d="M1013.78 15633.9 A275.591 275.591 0.0 0 0 1289.37 15909.4 " />
<path d="M1525 15909
L1289 15909
" />
<path d="M1801 15082
L1801 15633
" />
<path d="M1289 14807
L1525 14807
" />
<path d="M1013 15633
L1013 15082
" />
<path d="M26407 20918
L25816 20918
" />
<path d="M24832 21410
L24832 23181
" />
<path d="M25816 23674
L26407 23674
" />
<path d="M27391 23181
L27391 21410
" />
<path d="M34566 5692
L34566 9964
" />
<path d="M36574 5692
L34566 5692
" />
<path d="M36455 5889
L36574 5692
" />
<path d="M38581 5889
L36455 5889
" />
<path d="M38483 5692
L38581 5889
" />
<path d="M38503 5692
L38483 5692
" />
<path d="M39251 5692
L38503 5692
" />
<path d="M39152 5889
L39251 5692
" />
<path d="M39526 5889
L39152 5889
" />
<path d="M39526 9964
L39526 5889
" />
<path d="M34566 9964
L39526 9964
" />
<path d="M21208 18413
L21208 17413
" />
<path d="M22208 18413
L22208 17413
" />
<path d="M23208 18413
L23208 17413
" />
<path d="M20192 24669
L20192 18413
" />
<path d="M24223 24669
L24223 18413
" />
<path d="M24223 24669
L20192 24669
" />
<path d="M24223 18413
L20192 18413
" />
<path d="M20615 15633
L20615 15082
" />
<path d="M20890 14807
L21127 14807
" />
<path d="M21402 15082
L21402 15633
" />
<path d="M21127 15909
L20890 15909
" />
<path d="M20615.4 15633.9 A275.591 275.591 0.0 0 0 20890.9 15909.4 " />
<path d="M21127.2 15909.4 A275.591 275.591 0.0 0 0 21402.8 15633.9 " />
<path d="M21402.8 15082.7 A275.591 275.591 0.0 0 0 21127.2 14807.1 " />
<path d="M20890.9 14807.1 A275.591 275.591 0.0 0 0 20615.4 15082.7 " />
<path d="M30935 23181
L30935 21410
" />
<path d="M29360 23674
L29950 23674
" />
<path d="M28375 21410
L28375 23181
" />
<path d="M29950 20918
L29360 20918
" />
<path d="M18537 15533
L18537 15399
" />
<path d="M18135 15533
L18135 15399
" />
<path d="M15508 12397
L15508 12531
" />
<path d="M15909 12397
L15909 12531
" />
<path d="M34557 14688
L39517 14688
" />
<path d="M39517 14688
L39517 10614
" />
<path d="M39517 10614
L39143 10614
" />
<path d="M39143 10614
L39242 10417
" />
<path d="M39242 10417
L38494 10417
" />
<path d="M38494 10417
L38474 10417
" />
<path d="M38474 10417
L38572 10614
" />
<path d="M38572 10614
L36446 10614
" />
<path d="M36446 10614
L36564 10417
" />
<path d="M36564 10417
L34557 10417
" />
<path d="M34557 10417
L34557 14688
" />
<path d="M19301 18413
L15269 18413
" />
<path d="M19301 24669
L15269 24669
" />
<path d="M19301 24669
L19301 18413
" />
<path d="M15269 24669
L15269 18413
" />
<path d="M18285 18413
L18285 17413
" />
<path d="M17285 18413
L17285 17413
" />
<path d="M16285 18413
L16285 17413
" />
<path d="M13796 15425
L13796 15290
" />
<path d="M13394 15425
L13394 15290
" />
<path d="M10764 15633
L10764 15082
" />
<path d="M11039 14807
L11275 14807
" />
<path d="M11551 15082
L11551 15633
" />
<path d="M11275 15909
L11039 15909
" />
<path d="M10764.1 15633.9 A275.591 275.591 0.0 0 0 11039.7 15909.4 " />
<path d="M11275.9 15909.4 A275.591 275.591 0.0 0 0 11551.5 15633.9 " />
<path d="M11551.5 15082.7 A275.591 275.591 0.0 0 0 11275.9 14807.1 " />
<path d="M11039.7 14807.1 A275.591 275.591 0.0 0 0 10764.1 15082.7 " />
<path d="M5888 15633
L5888 15082
" />
<path d="M6164 14807
L6400 14807
" />
<path d="M6676 15082
L6676 15633
" />
<path d="M6400 15909
L6164 15909
" />
<path d="M5888.96 15633.9 A275.591 275.591 0.0 0 0 6164.55 15909.4 " />
<path d="M6400.77 15909.4 A275.591 275.591 0.0 0 0 6676.36 15633.9 " />
<path d="M6676.36 15082.7 A275.591 275.591 0.0 0 0 6400.77 14807.1 " />
<path d="M6164.55 14807.1 A275.591 275.591 0.0 0 0 5888.96 15082.7 " />
<path d="M10383 9074
L10383 8578
" />
<path d="M10383 6389
L10383 6885
" />
<path d="M8903 9074
L10383 9074
" />
<path d="M8017 6389
L10383 6389
" />
<path d="M23108 15554
L23108 15419
" />
<path d="M23509 15554
L23509 15419
" />
<path d="M3687 7789
L3687 6698
" />
<path d="M5033 7789
L5033 6698
" />
<path d="M34478 23181
L34478 21410
" />
<path d="M32903 23674
L33494 23674
" />
<path d="M31919 21410
L31919 23181
" />
<path d="M33494 20918
L32903 20918
" />
<path d="M7316 7105
L7316 6970
" />
<path d="M6915 7105
L6915 6970
" />
<path d="M34566 19413
L39526 19413
" />
<path d="M39526 19413
L39526 15338
" />
<path d="M39526 15338
L39152 15338
" />
<path d="M39152 15338
L39251 15141
" />
<path d="M39251 15141
L38503 15141
" />
<path d="M38503 15141
L38483 15141
" />
<path d="M38483 15141
L38581 15338
" />
<path d="M38581 15338
L36455 15338
" />
<path d="M36455 15338
L36574 15141
" />
<path d="M36574 15141
L34566 15141
" />
<path d="M34566 15141
L34566 19413
" />
<path d="M7273 9964
L7273 8665
" />
<path d="M7273 8665
L4557 8665
" />
<path d="M7273 9964
L4557 9964
" />
<path d="M6368 10594
L6368 10181
" />
<path d="M5954 10181
L6368 10181
" />
<path d="M3966 13881
L501 13881
" />
<path d="M501 13881
L501 10259
" />
<path d="M6289 12818
L6289 13881
" />
<path d="M6289 13881
L5541 13881
" />
<path d="M501 10259
L6289 10259
" />
<path d="M6289 10259
L6289 11283
" />
<path d="M2298 5708
L2298 5885
" />
<path d="M1569 5708
L2298 5708
" />
<path d="M565 8779
L664 8779
" />
<path d="M565 5708
L664 5708
" />
<path d="M1569 8779
L2298 8779
" />
<path d="M2298 8779
L2298 8602
" />
<path d="M2514 6574
L2514 6751
" />
<path d="M2514 6574
L2337 6574
" />
<path d="M8197 10088
L8331 10088
" />
<path d="M8197 9686
L8331 9686
" />
<path d="M4536 18413
L504 18413
" />
<path d="M4536 24669
L504 24669
" />
<path d="M4536 24669
L4536 18413
" />
<path d="M504 24669
L504 18413
" />
<path d="M3520 18413
L3520 17413
" />
<path d="M2520 18413
L2520 17413
" />
<path d="M1520 18413
L1520 17413
" />
<path d="M4045 15425
L4045 15290
" />
<path d="M3644 15425
L3644 15290
" />
<path d="M6440 18413
L6440 17413
" />
<path d="M7440 18413
L7440 17413
" />
<path d="M8440 18413
L8440 17413
" />
<path d="M5424 24669
L5424 18413
" />
<path d="M9456 24669
L9456 18413
" />
<path d="M9456 24669
L5424 24669
" />
<path d="M9456 18413
L5424 18413
" />
<path d="M8519 15425
L8519 15290
" />
<path d="M8921 15425
L8921 15290
" />
<path d="M14376 18413
L10344 18413
" />
<path d="M14376 24669
L10344 24669
" />
<path d="M14376 24669
L14376 18413
" />
<path d="M10344 24669
L10344 18413
" />
<path d="M13360 18413
L13360 17413
" />
<path d="M12360 18413
L12360 17413
" />
<path d="M11360 18413
L11360 17413
" />
<path d="M17928 11278
L16511 11278
" />
<path d="M17542.7 12971.7 A1017.16 1017.16 0.0 0 0 17933.2 11282 " />
<path d="M16507.9 11287.5 A1012.27 1012.27 0.0 0 0 16912.8 12971.7 " />
<path d="M9041 10874
L9041 14013
" />
<path d="M9041 14013
L10576 14013
" />
<path d="M10576 14013
L10576 10874
" />
<path d="M39135 19964
L38088 19964
" />
<path d="M39135 22988
L39135 19964
" />
<path d="M38088 22988
L38088 19964
" />
<path d="M39135 22988
L38088 22988
" />
<path d="M39135 23488
L39135 24011
" />
<path d="M39135 24011
L38612 24011
" />
<path d="M37167 19996
L36120 19996
" />
<path d="M37167 21019
L37167 19996
" />
<path d="M36120 21019
L36120 19996
" />
<path d="M37167 21019
L36120 21019
" />
<path d="M37167 21519
L37167 22043
" />
<path d="M37167 22043
L36643 22043
" />
<path d="M23419 12988
L23419 11940
" />
<path d="M21395 12988
L23419 12988
" />
<path d="M21395 11940
L23419 11940
" />
<path d="M21395 12988
L21395 11940
" />
<path d="M20895 12988
L20372 12988
" />
<path d="M20372 12988
L20372 12464
" />
<path d="M15639 15633
L15639 15082
" />
<path d="M15914 14807
L16151 14807
" />
<path d="M16426 15082
L16426 15633
" />
<path d="M16151 15909
L15914 15909
" />
<path d="M15639.3 15633.9 A275.591 275.591 0.0 0 0 15914.9 15909.4 " />
<path d="M16151.1 15909.4 A275.591 275.591 0.0 0 0 16426.7 15633.9 " />
<path d="M16426.7 15082.7 A275.591 275.591 0.0 0 0 16151.1 14807.1 " />
<path d="M15914.9 14807.1 A275.591 275.591 0.0 0 0 15639.3 15082.7 " />
</g>
<g style="fill:#000000; fill-opacity:0.0; 
stroke:#000000; stroke-width:59.0551; stroke-opacity:1; 
stroke-linecap:round; stroke-linejoin:round;">
<path d="M14924 5400
L14905 5419
L14849 5437
L14812 5437
L14755 5419
L14718 5381
L14699 5344
L14680 5269
L14680 5212
L14699 5137
L14718 5100
L14755 5062
L14812 5044
L14849 5044
L14905 5062
L14924 5081
" />
<path d="M15074 5081
L15093 5062
L15130 5044
L15224 5044
L15261 5062
L15280 5081
L15299 5119
L15299 5156
L15280 5212
L15055 5437
L15299 5437
" />
<path d="M16105 14349
L16086 14368
L16030 14386
L15993 14386
L15936 14368
L15899 14330
L15880 14293
L15861 14218
L15861 14161
L15880 14086
L15899 14049
L15936 14011
L15993 13993
L16030 13993
L16086 14011
L16105 14030
" />
<path d="M16236 13993
L16499 13993
L16330 14386
" />
<path d="M8198 13991
L8180 14009
L8123 14028
L8086 14028
L8030 14009
L7992 13972
L7973 13934
L7955 13859
L7955 13803
L7973 13728
L7992 13691
L8030 13653
L8086 13634
L8123 13634
L8180 13653
L8198 13672
" />
<path d="M8536 13634
L8461 13634
L8423 13653
L8405 13672
L8367 13728
L8348 13803
L8348 13953
L8367 13991
L8386 14009
L8423 14028
L8498 14028
L8536 14009
L8555 13991
L8573 13953
L8573 13859
L8555 13822
L8536 13803
L8498 13784
L8423 13784
L8386 13803
L8367 13822
L8348 13859
" />
<path d="M16298 10365
L16280 10383
L16223 10402
L16186 10402
L16130 10383
L16092 10346
L16073 10308
L16055 10233
L16055 10177
L16073 10102
L16092 10065
L16130 10027
L16186 10008
L16223 10008
L16280 10027
L16298 10046
" />
<path d="M16636 10140
L16636 10402
" />
<path d="M16542 9990
L16448 10271
L16692 10271
" />
<path d="M8187 11691
L8169 11709
L8112 11728
L8075 11728
L8019 11709
L7981 11672
L7962 11634
L7944 11559
L7944 11503
L7962 11428
L7981 11391
L8019 11353
L8075 11334
L8112 11334
L8169 11353
L8187 11372
" />
<path d="M8544 11334
L8356 11334
L8337 11522
L8356 11503
L8394 11484
L8487 11484
L8525 11503
L8544 11522
L8562 11559
L8562 11653
L8544 11691
L8525 11709
L8487 11728
L8394 11728
L8356 11709
L8337 11691
" />
<path d="M26598 14602
L26467 14415
" />
<path d="M26373 14602
L26373 14208
L26523 14208
L26561 14227
L26580 14246
L26598 14283
L26598 14340
L26580 14377
L26561 14396
L26523 14415
L26373 14415
" />
<path d="M26936 14208
L26861 14208
L26823 14227
L26805 14246
L26767 14302
L26748 14377
L26748 14527
L26767 14565
L26786 14583
L26823 14602
L26898 14602
L26936 14583
L26955 14565
L26973 14527
L26973 14433
L26955 14396
L26936 14377
L26898 14358
L26823 14358
L26786 14377
L26767 14396
L26748 14433
" />
<path d="M34550 13353
L34362 13484
" />
<path d="M34550 13577
L34156 13577
L34156 13428
L34175 13390
L34193 13371
L34231 13353
L34287 13353
L34325 13371
L34343 13390
L34362 13428
L34362 13577
" />
<path d="M34156 13221
L34156 12959
L34550 13128
" />
<path d="M15086 12444
L15404 12444
L15442 12425
L15461 12406
L15479 12369
L15479 12294
L15461 12256
L15442 12237
L15404 12219
L15086 12219
" />
<path d="M15086 12069
L15086 11825
L15236 11956
L15236 11900
L15255 11862
L15273 11844
L15311 11825
L15404 11825
L15442 11844
L15461 11862
L15479 11900
L15479 12012
L15461 12050
L15442 12069
" />
<path d="M29257 14453
L29257 14772
L29275 14809
L29294 14828
L29332 14847
L29407 14847
L29444 14828
L29463 14809
L29482 14772
L29482 14453
" />
<path d="M29650 14491
L29669 14472
L29707 14453
L29800 14453
L29838 14472
L29857 14491
L29875 14528
L29875 14566
L29857 14622
L29632 14847
L29875 14847
" />
<path d="M483 15686
L764 15686
L820 15705
L858 15742
L876 15798
L876 15836
" />
<path d="M876 15498
L483 15498
L483 15348
L501 15311
L520 15292
L558 15273
L614 15273
L651 15292
L670 15311
L689 15348
L689 15498
" />
<path d="M876 14898
L876 15123
" />
<path d="M876 15011
L483 15011
L539 15048
L576 15086
L595 15123
" />
<path d="M25621 24765
L25490 24578
" />
<path d="M25396 24765
L25396 24371
L25546 24371
L25584 24390
L25602 24409
L25621 24446
L25621 24503
L25602 24540
L25584 24559
L25546 24578
L25396 24578
" />
<path d="M25940 24746
L25902 24765
L25827 24765
L25790 24746
L25771 24709
L25771 24559
L25790 24521
L25827 24503
L25902 24503
L25940 24521
L25959 24559
L25959 24596
L25771 24634
" />
<path d="M26109 24746
L26146 24765
L26221 24765
L26259 24746
L26277 24709
L26277 24690
L26259 24653
L26221 24634
L26165 24634
L26127 24615
L26109 24578
L26109 24559
L26127 24521
L26165 24503
L26221 24503
L26259 24521
" />
<path d="M26596 24746
L26558 24765
L26484 24765
L26446 24746
L26427 24709
L26427 24559
L26446 24521
L26484 24503
L26558 24503
L26596 24521
L26615 24559
L26615 24596
L26427 24634
" />
<path d="M26727 24503
L26877 24503
" />
<path d="M26783 24371
L26783 24709
L26802 24746
L26840 24765
L26877 24765
" />
<path d="M25587 22455
L25643 22474
L25737 22474
L25774 22455
L25793 22436
L25812 22399
L25812 22361
L25793 22324
L25774 22305
L25737 22286
L25662 22267
L25624 22249
L25606 22230
L25587 22192
L25587 22155
L25606 22117
L25624 22099
L25662 22080
L25755 22080
L25812 22099
" />
<path d="M25943 22080
L26037 22474
L26112 22192
L26187 22474
L26280 22080
" />
<path d="M26637 22474
L26412 22474
" />
<path d="M26524 22474
L26524 22080
L26487 22136
L26449 22174
L26412 22192
" />
<path d="M34472 9967
L34078 9967
L34078 9817
L34097 9780
L34116 9761
L34153 9742
L34210 9742
L34247 9761
L34266 9780
L34285 9817
L34285 9967
" />
<path d="M34472 9367
L34472 9592
" />
<path d="M34472 9480
L34078 9480
L34135 9517
L34172 9555
L34191 9592
" />
<path d="M22170 20110
L22133 20091
L22095 20054
L22039 19997
L22001 19979
L21964 19979
" />
<path d="M21983 20072
L21945 20054
L21908 20016
L21889 19941
L21889 19810
L21908 19735
L21945 19698
L21983 19679
L22058 19679
L22095 19698
L22133 19735
L22151 19810
L22151 19941
L22133 20016
L22095 20054
L22058 20072
L21983 20072
" />
<path d="M22508 19679
L22320 19679
L22301 19866
L22320 19848
L22358 19829
L22451 19829
L22489 19848
L22508 19866
L22526 19904
L22526 19997
L22508 20035
L22489 20054
L22451 20072
L22358 20072
L22320 20054
L22301 20035
" />
<path d="M21083 19285
L21083 18891
" />
<path d="M21495 19285
L21364 19098
" />
<path d="M21270 19285
L21270 18891
L21420 18891
L21458 18910
L21477 18929
L21495 18966
L21495 19023
L21477 19060
L21458 19079
L21420 19098
L21270 19098
" />
<path d="M21851 19285
L21664 19285
L21664 18891
" />
<path d="M21945 18891
L22208 18891
L21945 19285
L22208 19285
" />
<path d="M22320 18891
L22564 18891
L22433 19041
L22489 19041
L22526 19060
L22545 19079
L22564 19116
L22564 19210
L22545 19248
L22526 19266
L22489 19285
L22376 19285
L22339 19266
L22320 19248
" />
<path d="M22901 19023
L22901 19285
" />
<path d="M22808 18873
L22714 19154
L22958 19154
" />
<path d="M23108 19285
L23108 18891
L23333 19285
L23333 18891
" />
<path d="M20084 15686
L20366 15686
L20422 15705
L20459 15742
L20478 15798
L20478 15836
" />
<path d="M20478 15498
L20084 15498
L20084 15348
L20103 15311
L20122 15292
L20159 15273
L20216 15273
L20253 15292
L20272 15311
L20291 15348
L20291 15498
" />
<path d="M20084 14917
L20084 15105
L20272 15123
L20253 15105
L20234 15067
L20234 14973
L20253 14936
L20272 14917
L20309 14898
L20403 14898
L20441 14917
L20459 14936
L20478 14973
L20478 15067
L20459 15105
L20441 15123
" />
<path d="M28565 24765
L28565 24371
L28715 24371
L28752 24390
L28771 24409
L28790 24446
L28790 24503
L28771 24540
L28752 24559
L28715 24578
L28565 24578
" />
<path d="M28959 24765
L28959 24503
" />
<path d="M28959 24578
L28977 24540
L28996 24521
L29034 24503
L29071 24503
" />
<path d="M29259 24765
L29221 24746
L29202 24728
L29184 24690
L29184 24578
L29202 24540
L29221 24521
L29259 24503
L29315 24503
L29352 24521
L29371 24540
L29390 24578
L29390 24690
L29371 24728
L29352 24746
L29315 24765
L29259 24765
" />
<path d="M29727 24503
L29727 24821
L29709 24859
L29690 24877
L29652 24896
L29596 24896
L29559 24877
" />
<path d="M29727 24746
L29690 24765
L29615 24765
L29577 24746
L29559 24728
L29540 24690
L29540 24578
L29559 24540
L29577 24521
L29615 24503
L29690 24503
L29727 24521
" />
<path d="M29915 24765
L29915 24503
" />
<path d="M29915 24578
L29934 24540
L29952 24521
L29990 24503
L30027 24503
" />
<path d="M30327 24765
L30327 24559
L30308 24521
L30271 24503
L30196 24503
L30158 24521
" />
<path d="M30327 24746
L30290 24765
L30196 24765
L30158 24746
L30140 24709
L30140 24671
L30158 24634
L30196 24615
L30290 24615
L30327 24596
" />
<path d="M30515 24765
L30515 24503
" />
<path d="M30515 24540
L30533 24521
L30571 24503
L30627 24503
L30665 24521
L30683 24559
L30683 24765
" />
<path d="M30683 24559
L30702 24521
L30740 24503
L30796 24503
L30833 24521
L30852 24559
L30852 24765
" />
<path d="M29130 22455
L29186 22474
L29280 22474
L29318 22455
L29336 22436
L29355 22399
L29355 22361
L29336 22324
L29318 22305
L29280 22286
L29205 22267
L29168 22249
L29149 22230
L29130 22192
L29130 22155
L29149 22117
L29168 22099
L29205 22080
L29299 22080
L29355 22099
" />
<path d="M29486 22080
L29580 22474
L29655 22192
L29730 22474
L29824 22080
" />
<path d="M29955 22117
L29974 22099
L30011 22080
L30105 22080
L30142 22099
L30161 22117
L30180 22155
L30180 22192
L30161 22249
L29936 22474
L30180 22474
" />
<path d="M17951 15532
L17764 15663
" />
<path d="M17951 15757
L17558 15757
L17558 15607
L17576 15569
L17595 15550
L17633 15532
L17689 15532
L17726 15550
L17745 15569
L17764 15607
L17764 15757
" />
<path d="M17689 15194
L17951 15194
" />
<path d="M17539 15288
L17820 15382
L17820 15138
" />
<path d="M16450 12530
L16262 12661
" />
<path d="M16450 12755
L16056 12755
L16056 12605
L16075 12567
L16093 12548
L16131 12530
L16187 12530
L16225 12548
L16243 12567
L16262 12605
L16262 12755
" />
<path d="M16225 12305
L16206 12342
L16187 12361
L16150 12380
L16131 12380
L16093 12361
L16075 12342
L16056 12305
L16056 12230
L16075 12192
L16093 12173
L16131 12155
L16150 12155
L16187 12173
L16206 12192
L16225 12230
L16225 12305
L16243 12342
L16262 12361
L16300 12380
L16375 12380
L16412 12361
L16431 12342
L16450 12305
L16450 12230
L16431 12192
L16412 12173
L16375 12155
L16300 12155
L16262 12173
L16243 12192
L16225 12230
" />
<path d="M34463 14692
L34069 14692
L34069 14542
L34088 14504
L34107 14485
L34144 14467
L34201 14467
L34238 14485
L34257 14504
L34276 14542
L34276 14692
" />
<path d="M34107 14317
L34088 14298
L34069 14260
L34069 14167
L34088 14129
L34107 14110
L34144 14092
L34182 14092
L34238 14110
L34463 14335
L34463 14092
" />
<path d="M17248 20160
L17210 20141
L17173 20104
L17116 20047
L17079 20029
L17041 20029
" />
<path d="M17060 20122
L17023 20104
L16985 20066
L16966 19991
L16966 19860
L16985 19785
L17023 19748
L17060 19729
L17135 19729
L17173 19748
L17210 19785
L17229 19860
L17229 19991
L17210 20066
L17173 20104
L17135 20122
L17060 20122
" />
<path d="M17566 19860
L17566 20122
" />
<path d="M17473 19710
L17379 19991
L17623 19991
" />
<path d="M16228 19335
L16228 18941
" />
<path d="M16641 19335
L16509 19148
" />
<path d="M16416 19335
L16416 18941
L16566 18941
L16603 18960
L16622 18979
L16641 19016
L16641 19073
L16622 19110
L16603 19129
L16566 19148
L16416 19148
" />
<path d="M16997 19335
L16809 19335
L16809 18941
" />
<path d="M17091 18941
L17353 18941
L17091 19335
L17353 19335
" />
<path d="M17466 18941
L17709 18941
L17578 19091
L17634 19091
L17672 19110
L17691 19129
L17709 19166
L17709 19260
L17691 19298
L17672 19316
L17634 19335
L17522 19335
L17484 19316
L17466 19298
" />
<path d="M18047 19073
L18047 19335
" />
<path d="M17953 18923
L17859 19204
L18103 19204
" />
<path d="M18253 19335
L18253 18941
L18478 19335
L18478 18941
" />
<path d="M13210 15423
L13023 15555
" />
<path d="M13210 15648
L12816 15648
L12816 15498
L12835 15461
L12854 15442
L12891 15423
L12948 15423
L12985 15442
L13004 15461
L13023 15498
L13023 15648
" />
<path d="M12816 15292
L12816 15048
L12966 15180
L12966 15123
L12985 15086
L13004 15067
L13041 15048
L13135 15048
L13173 15067
L13191 15086
L13210 15123
L13210 15236
L13191 15273
L13173 15292
" />
<path d="M10233 15686
L10514 15686
L10571 15705
L10608 15742
L10627 15798
L10627 15836
" />
<path d="M10627 15498
L10233 15498
L10233 15348
L10252 15311
L10271 15292
L10308 15273
L10364 15273
L10402 15292
L10421 15311
L10439 15348
L10439 15498
" />
<path d="M10233 15142
L10233 14898
L10383 15030
L10383 14973
L10402 14936
L10421 14917
L10458 14898
L10552 14898
L10589 14917
L10608 14936
L10627 14973
L10627 15086
L10608 15123
L10589 15142
" />
<path d="M5358 15686
L5639 15686
L5695 15705
L5733 15742
L5752 15798
L5752 15836
" />
<path d="M5752 15498
L5358 15498
L5358 15348
L5377 15311
L5395 15292
L5433 15273
L5489 15273
L5527 15292
L5545 15311
L5564 15348
L5564 15498
" />
<path d="M5395 15123
L5377 15105
L5358 15067
L5358 14973
L5377 14936
L5395 14917
L5433 14898
L5470 14898
L5527 14917
L5752 15142
L5752 14898
" />
<path d="M9331 5745
L9331 6063
L9350 6101
L9369 6119
L9406 6138
L9481 6138
L9519 6119
L9538 6101
L9556 6063
L9556 5745
" />
<path d="M9950 6138
L9725 6138
" />
<path d="M9838 6138
L9838 5745
L9800 5801
L9763 5838
L9725 5857
" />
<path d="M22924 15553
L22736 15684
" />
<path d="M22924 15777
L22530 15777
L22530 15628
L22549 15590
L22567 15571
L22605 15553
L22661 15553
L22699 15571
L22717 15590
L22736 15628
L22736 15777
" />
<path d="M22530 15196
L22530 15384
L22717 15403
L22699 15384
L22680 15346
L22680 15253
L22699 15215
L22717 15196
L22755 15178
L22849 15178
L22886 15196
L22905 15215
L22924 15253
L22924 15346
L22905 15384
L22886 15403
" />
<path d="M3288 7375
L3288 7506
" />
<path d="M3495 7506
L3101 7506
L3101 7319
" />
<path d="M3495 6962
L3495 7187
" />
<path d="M3495 7075
L3101 7075
L3157 7112
L3195 7150
L3213 7187
" />
<path d="M32444 24765
L32444 24371
L32575 24653
L32706 24371
L32706 24765
" />
<path d="M32950 24765
L32912 24746
L32894 24728
L32875 24690
L32875 24578
L32894 24540
L32912 24521
L32950 24503
L33006 24503
L33044 24521
L33062 24540
L33081 24578
L33081 24690
L33062 24728
L33044 24746
L33006 24765
L32950 24765
" />
<path d="M33419 24765
L33419 24371
" />
<path d="M33419 24746
L33381 24765
L33306 24765
L33269 24746
L33250 24728
L33231 24690
L33231 24578
L33250 24540
L33269 24521
L33306 24503
L33381 24503
L33419 24521
" />
<path d="M33756 24746
L33719 24765
L33644 24765
L33606 24746
L33587 24709
L33587 24559
L33606 24521
L33644 24503
L33719 24503
L33756 24521
L33775 24559
L33775 24596
L33587 24634
" />
<path d="M32673 22455
L32730 22474
L32823 22474
L32861 22455
L32880 22436
L32898 22399
L32898 22361
L32880 22324
L32861 22305
L32823 22286
L32748 22267
L32711 22249
L32692 22230
L32673 22192
L32673 22155
L32692 22117
L32711 22099
L32748 22080
L32842 22080
L32898 22099
" />
<path d="M33030 22080
L33123 22474
L33198 22192
L33273 22474
L33367 22080
" />
<path d="M33480 22080
L33723 22080
L33592 22230
L33648 22230
L33686 22249
L33705 22267
L33723 22305
L33723 22399
L33705 22436
L33686 22455
L33648 22474
L33536 22474
L33498 22455
L33480 22436
" />
<path d="M6693 7103
L6712 7122
L6731 7178
L6731 7215
L6712 7272
L6675 7309
L6637 7328
L6562 7347
L6506 7347
L6431 7328
L6393 7309
L6356 7272
L6337 7215
L6337 7178
L6356 7122
L6375 7103
" />
<path d="M6337 6972
L6337 6728
L6487 6859
L6487 6803
L6506 6765
L6525 6747
L6562 6728
L6656 6728
L6693 6747
L6712 6765
L6731 6803
L6731 6915
L6712 6953
L6693 6972
" />
<path d="M34472 19416
L34078 19416
L34078 19266
L34097 19229
L34116 19210
L34153 19191
L34210 19191
L34247 19210
L34266 19229
L34285 19266
L34285 19416
" />
<path d="M34078 19060
L34078 18816
L34228 18947
L34228 18891
L34247 18854
L34266 18835
L34303 18816
L34397 18816
L34435 18835
L34453 18854
L34472 18891
L34472 19004
L34453 19041
L34435 19060
" />
<path d="M5250 10477
L5250 10083
L5344 10083
L5400 10102
L5438 10139
L5456 10177
L5475 10252
L5475 10308
L5456 10383
L5438 10421
L5400 10458
L5344 10477
L5250 10477
" />
<path d="M5850 10477
L5625 10477
" />
<path d="M5738 10477
L5738 10083
L5700 10139
L5663 10177
L5625 10196
" />
<path d="M2130 14475
L2111 14494
L2055 14512
L2017 14512
L1961 14494
L1923 14456
L1905 14419
L1886 14344
L1886 14287
L1905 14212
L1923 14175
L1961 14137
L2017 14119
L2055 14119
L2111 14137
L2130 14156
" />
<path d="M2373 14119
L2448 14119
L2486 14137
L2523 14175
L2542 14250
L2542 14381
L2523 14456
L2486 14494
L2448 14512
L2373 14512
L2336 14494
L2298 14456
L2280 14381
L2280 14250
L2298 14175
L2336 14137
L2373 14119
" />
<path d="M2711 14512
L2711 14119
L2936 14512
L2936 14119
" />
<path d="M3330 14512
L3105 14512
" />
<path d="M3217 14512
L3217 14119
L3180 14175
L3142 14212
L3105 14231
" />
<path d="M2614 7375
L2895 7375
L2951 7394
L2989 7431
L3007 7487
L3007 7525
" />
<path d="M3007 6981
L3007 7206
" />
<path d="M3007 7094
L2614 7094
L2670 7131
L2707 7169
L2726 7206
" />
<path d="M8198 9465
L8180 9483
L8123 9502
L8086 9502
L8030 9483
L7992 9446
L7973 9408
L7955 9333
L7955 9277
L7973 9202
L7992 9165
L8030 9127
L8086 9108
L8123 9108
L8180 9127
L8198 9146
" />
<path d="M8573 9502
L8348 9502
" />
<path d="M8461 9502
L8461 9108
L8423 9165
L8386 9202
L8348 9221
" />
<path d="M2483 20110
L2445 20091
L2408 20054
L2351 19997
L2314 19979
L2276 19979
" />
<path d="M2295 20072
L2258 20054
L2220 20016
L2201 19941
L2201 19810
L2220 19735
L2258 19698
L2295 19679
L2370 19679
L2408 19698
L2445 19735
L2464 19810
L2464 19941
L2445 20016
L2408 20054
L2370 20072
L2295 20072
" />
<path d="M2839 20072
L2614 20072
" />
<path d="M2726 20072
L2726 19679
L2689 19735
L2651 19773
L2614 19791
" />
<path d="M1274 19285
L1274 18891
" />
<path d="M1686 19285
L1555 19098
" />
<path d="M1461 19285
L1461 18891
L1611 18891
L1649 18910
L1668 18929
L1686 18966
L1686 19023
L1668 19060
L1649 19079
L1611 19098
L1461 19098
" />
<path d="M2043 19285
L1855 19285
L1855 18891
" />
<path d="M2136 18891
L2399 18891
L2136 19285
L2399 19285
" />
<path d="M2511 18891
L2755 18891
L2624 19041
L2680 19041
L2717 19060
L2736 19079
L2755 19116
L2755 19210
L2736 19248
L2717 19266
L2680 19285
L2567 19285
L2530 19266
L2511 19248
" />
<path d="M3092 19023
L3092 19285
" />
<path d="M2999 18873
L2905 19154
L3149 19154
" />
<path d="M3299 19285
L3299 18891
L3524 19285
L3524 18891
" />
<path d="M3460 15423
L3272 15555
" />
<path d="M3460 15648
L3066 15648
L3066 15498
L3085 15461
L3103 15442
L3141 15423
L3197 15423
L3235 15442
L3253 15461
L3272 15498
L3272 15648
" />
<path d="M3460 15048
L3460 15273
" />
<path d="M3460 15161
L3066 15161
L3122 15198
L3160 15236
L3178 15273
" />
<path d="M7403 20160
L7365 20141
L7328 20104
L7271 20047
L7234 20029
L7196 20029
" />
<path d="M7215 20122
L7178 20104
L7140 20066
L7121 19991
L7121 19860
L7140 19785
L7178 19748
L7215 19729
L7290 19729
L7328 19748
L7365 19785
L7384 19860
L7384 19991
L7365 20066
L7328 20104
L7290 20122
L7215 20122
" />
<path d="M7534 19766
L7553 19748
L7590 19729
L7684 19729
L7721 19748
L7740 19766
L7759 19804
L7759 19841
L7740 19898
L7515 20122
L7759 20122
" />
<path d="M6315 19335
L6315 18941
" />
<path d="M6728 19335
L6596 19148
" />
<path d="M6503 19335
L6503 18941
L6653 18941
L6690 18960
L6709 18979
L6728 19016
L6728 19073
L6709 19110
L6690 19129
L6653 19148
L6503 19148
" />
<path d="M7084 19335
L6896 19335
L6896 18941
" />
<path d="M7178 18941
L7440 18941
L7178 19335
L7440 19335
" />
<path d="M7553 18941
L7796 18941
L7665 19091
L7721 19091
L7759 19110
L7778 19129
L7796 19166
L7796 19260
L7778 19298
L7759 19316
L7721 19335
L7609 19335
L7571 19316
L7553 19298
" />
<path d="M8134 19073
L8134 19335
" />
<path d="M8040 18923
L7946 19204
L8190 19204
" />
<path d="M8340 19335
L8340 18941
L8565 19335
L8565 18941
" />
<path d="M8335 15423
L8147 15555
" />
<path d="M8335 15648
L7941 15648
L7941 15498
L7960 15461
L7979 15442
L8016 15423
L8072 15423
L8110 15442
L8129 15461
L8147 15498
L8147 15648
" />
<path d="M7979 15273
L7960 15255
L7941 15217
L7941 15123
L7960 15086
L7979 15067
L8016 15048
L8054 15048
L8110 15067
L8335 15292
L8335 15048
" />
<path d="M12323 20160
L12285 20141
L12248 20104
L12191 20047
L12154 20029
L12116 20029
" />
<path d="M12135 20122
L12098 20104
L12060 20066
L12041 19991
L12041 19860
L12060 19785
L12098 19748
L12135 19729
L12210 19729
L12248 19748
L12285 19785
L12304 19860
L12304 19991
L12285 20066
L12248 20104
L12210 20122
L12135 20122
" />
<path d="M12435 19729
L12679 19729
L12548 19879
L12604 19879
L12641 19898
L12660 19916
L12679 19954
L12679 20047
L12660 20085
L12641 20104
L12604 20122
L12491 20122
L12454 20104
L12435 20085
" />
<path d="M11235 19335
L11235 18941
" />
<path d="M11648 19335
L11516 19148
" />
<path d="M11423 19335
L11423 18941
L11573 18941
L11610 18960
L11629 18979
L11648 19016
L11648 19073
L11629 19110
L11610 19129
L11573 19148
L11423 19148
" />
<path d="M12004 19335
L11816 19335
L11816 18941
" />
<path d="M12098 18941
L12360 18941
L12098 19335
L12360 19335
" />
<path d="M12473 18941
L12716 18941
L12585 19091
L12641 19091
L12679 19110
L12698 19129
L12716 19166
L12716 19260
L12698 19298
L12679 19316
L12641 19335
L12529 19335
L12491 19316
L12473 19298
" />
<path d="M13054 19073
L13054 19335
" />
<path d="M12960 18923
L12866 19204
L13110 19204
" />
<path d="M13260 19335
L13260 18941
L13485 19335
L13485 18941
" />
<path d="M16919 13523
L16919 13842
L16938 13879
L16957 13898
L16994 13917
L17069 13917
L17107 13898
L17126 13879
L17144 13842
L17144 13523
" />
<path d="M17501 13655
L17501 13917
" />
<path d="M17407 13505
L17313 13786
L17557 13786
" />
<path d="M8638 12321
L8825 12321
" />
<path d="M8432 12452
L8638 12321
L8432 12190
" />
<path d="M8825 11852
L8825 12077
" />
<path d="M8825 11965
L8432 11965
L8488 12002
L8525 12040
L8544 12077
" />
<path d="M38480 24189
L38480 24471
L38462 24527
L38424 24564
L38368 24583
L38330 24583
" />
<path d="M38649 24227
L38668 24208
L38705 24189
L38799 24189
L38837 24208
L38855 24227
L38874 24264
L38874 24302
L38855 24358
L38630 24583
L38874 24583
" />
<path d="M36512 22221
L36512 22502
L36493 22558
L36456 22596
L36399 22615
L36362 22615
" />
<path d="M36662 22221
L36906 22221
L36774 22371
L36831 22371
L36868 22390
L36887 22408
L36906 22446
L36906 22540
L36887 22577
L36868 22596
L36831 22615
L36718 22615
L36681 22596
L36662 22577
" />
<path d="M19762 12595
L20043 12595
L20100 12614
L20137 12652
L20156 12708
L20156 12745
" />
<path d="M19893 12239
L20156 12239
" />
<path d="M19744 12333
L20025 12427
L20025 12183
" />
<path d="M15108 15686
L15389 15686
L15446 15705
L15483 15742
L15502 15798
L15502 15836
" />
<path d="M15502 15498
L15108 15498
L15108 15348
L15127 15311
L15146 15292
L15183 15273
L15239 15273
L15277 15292
L15296 15311
L15314 15348
L15314 15498
" />
<path d="M15239 14936
L15502 14936
" />
<path d="M15090 15030
L15371 15123
L15371 14880
" />
<path d="M29 5377
L39399 5377
" />
<path d="M29 25062
L29 5377
" />
<path d="M39399 25062
L29 25062
" />
<path d="M39399 5377
L39399 25062
" />
</g> 
</svg>
