<?xml version="1.0" standalone="no"?>
 <!DOCTYPE svg PUBLIC "-//W3C//DTD SVG 1.1//EN" 
 "http://www.w3.org/Graphics/SVG/1.1/DTD/svg11.dtd"> 
<svg xmlns="http://www.w3.org/2000/svg" version="1.1" 
    width="12.3825cm" height="7.9375cm" viewBox="0 0 48750 31250 ">
<title>SVG Picture created as ESPLED-F.Paste.svg date 2019/01/08 01:43:35 </title>
  <desc>Picture generated by PCBNEW </desc>
<g style="fill:#000000; fill-opacity:1;stroke:#000000; stroke-opacity:1;
stroke-linecap:round; stroke-linejoin:round; "
 transform="translate(0 0) scale(1 1)">
</g>
<g style="fill:#000000; fill-opacity:0.0; 
stroke:#000000; stroke-width:-0.000393701; stroke-opacity:1; 
stroke-linecap:round; stroke-linejoin:round;">
</g>
<g style="fill:#000000; fill-opacity:0.0; 
stroke:#000000; stroke-width:0; stroke-opacity:1; 
stroke-linecap:round; stroke-linejoin:round;">
</g>
<g style="fill:#000000; fill-opacity:1.0; 
stroke:#000000; stroke-width:0; stroke-opacity:1; 
stroke-linecap:round; stroke-linejoin:round;">
<polyline style="fill-rule:evenodd;"
points="14113,7248
14123,7249
14132,7252
14141,7255
14150,7259
14159,7264
14166,7270
14173,7276
14180,7284
14186,7291
14191,7300
14195,7308
14198,7317
14200,7327
14202,7336
14202,7346
14202,8133
14202,8143
14200,8153
14198,8162
14195,8171
14191,8180
14186,8188
14180,8196
14173,8203
14166,8209
14159,8215
14150,8220
14141,8224
14132,8228
14123,8230
14113,8231
14104,8232
12568,8232
12559,8231
12549,8230
12540,8228
12531,8224
12522,8220
12514,8215
12506,8209
12499,8203
12492,8196
12487,8188
12482,8180
12477,8171
12474,8162
12472,8153
12470,8143
12470,8133
12470,7346
12470,7336
12472,7327
12474,7317
12477,7308
12482,7300
12487,7291
12492,7284
12499,7276
12506,7270
12514,7264
12522,7259
12531,7255
12540,7252
12549,7249
12559,7248
12568,7248
14104,7248
14113,7248
" /> 
<polyline style="fill-rule:evenodd;"
points="17421,7248
17430,7249
17439,7252
17449,7255
17457,7259
17466,7264
17473,7270
17481,7276
17487,7284
17493,7291
17498,7300
17502,7308
17505,7317
17507,7327
17509,7336
17509,7346
17509,8133
17509,8143
17507,8153
17505,8162
17502,8171
17498,8180
17493,8188
17487,8196
17481,8203
17473,8209
17466,8215
17457,8220
17449,8224
17439,8228
17430,8230
17421,8231
17411,8232
15875,8232
15866,8231
15856,8230
15847,8228
15838,8224
15829,8220
15821,8215
15813,8209
15806,8203
15799,8196
15794,8188
15789,8180
15785,8171
15781,8162
15779,8153
15778,8143
15777,8133
15777,7346
15778,7336
15779,7327
15781,7317
15785,7308
15789,7300
15794,7291
15799,7284
15806,7276
15813,7270
15821,7264
15829,7259
15838,7255
15847,7252
15856,7249
15866,7248
15875,7248
17411,7248
17421,7248
" /> 
<polyline style="fill-rule:evenodd;"
points="16638,13459
16647,13460
16656,13462
16664,13465
16673,13469
16680,13474
16688,13479
16695,13486
16701,13492
16706,13500
16711,13508
16715,13516
16718,13525
16720,13533
16721,13543
16722,13552
16722,13739
16721,13748
16720,13757
16718,13766
16715,13774
16711,13783
16706,13791
16701,13798
16695,13805
16688,13811
16680,13816
16673,13821
16664,13825
16656,13828
16647,13830
16638,13832
16628,13832
16402,13832
16393,13832
16384,13830
16375,13828
16366,13825
16358,13821
16350,13816
16343,13811
16336,13805
16330,13798
16324,13791
16320,13783
16316,13774
16313,13766
16310,13757
16309,13748
16309,13739
16309,13552
16309,13543
16310,13533
16313,13525
16316,13516
16320,13508
16324,13500
16330,13492
16336,13486
16343,13479
16350,13474
16358,13469
16366,13465
16375,13462
16384,13460
16393,13459
16402,13458
16628,13458
16638,13459
" /> 
<polyline style="fill-rule:evenodd;"
points="15949,13459
15958,13460
15967,13462
15975,13465
15984,13469
15991,13474
15999,13479
16006,13486
16012,13492
16017,13500
16022,13508
16026,13516
16029,13525
16031,13533
16033,13543
16033,13552
16033,13739
16033,13748
16031,13757
16029,13766
16026,13774
16022,13783
16017,13791
16012,13798
16006,13805
15999,13811
15991,13816
15984,13821
15975,13825
15967,13828
15958,13830
15949,13832
15939,13832
15713,13832
15704,13832
15695,13830
15686,13828
15677,13825
15669,13821
15661,13816
15654,13811
15647,13805
15641,13798
15635,13791
15631,13783
15627,13774
15624,13766
15621,13757
15620,13748
15620,13739
15620,13552
15620,13543
15621,13533
15624,13525
15627,13516
15631,13508
15635,13500
15641,13492
15647,13486
15654,13479
15661,13474
15669,13469
15677,13465
15686,13462
15695,13460
15704,13459
15713,13458
15939,13458
15949,13459
" /> 
<polyline style="fill-rule:evenodd;"
points="8731,13100
8740,13102
8749,13104
8758,13107
8766,13111
8774,13116
8781,13121
8788,13127
8794,13134
8799,13141
8804,13149
8808,13158
8811,13166
8813,13175
8815,13184
8815,13193
8815,13380
8815,13390
8813,13399
8811,13408
8808,13416
8804,13424
8799,13432
8794,13440
8788,13447
8781,13453
8774,13458
8766,13463
8758,13467
8749,13470
8740,13472
8731,13473
8722,13474
8495,13474
8486,13473
8477,13472
8468,13470
8460,13467
8451,13463
8443,13458
8436,13453
8429,13447
8423,13440
8418,13432
8413,13424
8409,13416
8406,13408
8404,13399
8402,13390
8402,13380
8402,13193
8402,13184
8404,13175
8406,13166
8409,13158
8413,13149
8418,13141
8423,13134
8429,13127
8436,13121
8443,13116
8451,13111
8460,13107
8468,13104
8477,13102
8486,13100
8495,13100
8722,13100
8731,13100
" /> 
<polyline style="fill-rule:evenodd;"
points="8042,13100
8051,13102
8060,13104
8069,13107
8077,13111
8085,13116
8092,13121
8099,13127
8105,13134
8111,13141
8115,13149
8119,13158
8122,13166
8124,13175
8126,13184
8126,13193
8126,13380
8126,13390
8124,13399
8122,13408
8119,13416
8115,13424
8111,13432
8105,13440
8099,13447
8092,13453
8085,13458
8077,13463
8069,13467
8060,13470
8051,13472
8042,13473
8033,13474
7806,13474
7797,13473
7788,13472
7779,13470
7771,13467
7762,13463
7754,13458
7747,13453
7740,13447
7734,13440
7729,13432
7724,13424
7720,13416
7717,13408
7715,13399
7713,13390
7713,13380
7713,13193
7713,13184
7715,13175
7717,13166
7720,13158
7724,13149
7729,13141
7734,13134
7740,13127
7747,13121
7754,13116
7762,13111
7771,13107
7779,13104
7788,13102
7797,13100
7806,13100
8033,13100
8042,13100
" /> 
<polyline style="fill-rule:evenodd;"
points="16142,10600
16151,10602
16160,10604
16169,10607
16177,10611
16185,10616
16192,10621
16199,10627
16205,10634
16211,10641
16215,10649
16219,10658
16222,10666
16224,10675
16226,10684
16226,10693
16226,10880
16226,10890
16224,10899
16222,10908
16219,10916
16215,10924
16211,10932
16205,10940
16199,10947
16192,10953
16185,10958
16177,10963
16169,10967
16160,10970
16151,10972
16142,10973
16133,10974
15906,10974
15897,10973
15888,10972
15879,10970
15871,10967
15862,10963
15854,10958
15847,10953
15840,10947
15834,10940
15829,10932
15824,10924
15820,10916
15817,10908
15815,10899
15813,10890
15813,10880
15813,10693
15813,10684
15815,10675
15817,10666
15820,10658
15824,10649
15829,10641
15834,10634
15840,10627
15847,10621
15854,10616
15862,10611
15871,10607
15879,10604
15888,10602
15897,10600
15906,10600
16133,10600
16142,10600
" /> 
<polyline style="fill-rule:evenodd;"
points="16831,10600
16840,10602
16849,10604
16858,10607
16866,10611
16874,10616
16881,10621
16888,10627
16894,10634
16899,10641
16904,10649
16908,10658
16911,10666
16913,10675
16915,10684
16915,10693
16915,10880
16915,10890
16913,10899
16911,10908
16908,10916
16904,10924
16899,10932
16894,10940
16888,10947
16881,10953
16874,10958
16866,10963
16858,10967
16849,10970
16840,10972
16831,10973
16822,10974
16595,10974
16586,10973
16577,10972
16568,10970
16560,10967
16551,10963
16543,10958
16536,10953
16529,10947
16523,10940
16518,10932
16513,10924
16509,10916
16506,10908
16504,10899
16502,10890
16502,10880
16502,10693
16502,10684
16504,10675
16506,10666
16509,10658
16513,10649
16518,10641
16523,10634
16529,10627
16536,10621
16543,10616
16551,10611
16560,10607
16568,10604
16577,10602
16586,10600
16595,10600
16822,10600
16831,10600
" /> 
<polyline style="fill-rule:evenodd;"
points="8031,10800
8040,10802
8049,10804
8058,10807
8066,10811
8074,10816
8081,10821
8088,10827
8094,10834
8099,10841
8104,10849
8108,10858
8111,10866
8113,10875
8115,10884
8115,10893
8115,11080
8115,11090
8113,11099
8111,11108
8108,11116
8104,11124
8099,11132
8094,11140
8088,11147
8081,11153
8074,11158
8066,11163
8058,11167
8049,11170
8040,11172
8031,11173
8022,11174
7795,11174
7786,11173
7777,11172
7768,11170
7760,11167
7751,11163
7743,11158
7736,11153
7729,11147
7723,11140
7718,11132
7713,11124
7709,11116
7706,11108
7704,11099
7702,11090
7702,11080
7702,10893
7702,10884
7704,10875
7706,10866
7709,10858
7713,10849
7718,10841
7723,10834
7729,10827
7736,10821
7743,10816
7751,10811
7760,10807
7768,10804
7777,10802
7786,10800
7795,10800
8022,10800
8031,10800
" /> 
<polyline style="fill-rule:evenodd;"
points="8720,10800
8729,10802
8738,10804
8747,10807
8755,10811
8763,10816
8770,10821
8777,10827
8783,10834
8788,10841
8793,10849
8797,10858
8800,10866
8802,10875
8804,10884
8804,10893
8804,11080
8804,11090
8802,11099
8800,11108
8797,11116
8793,11124
8788,11132
8783,11140
8777,11147
8770,11153
8763,11158
8755,11163
8747,11167
8738,11170
8729,11172
8720,11173
8711,11174
8484,11174
8475,11173
8466,11172
8457,11170
8449,11167
8440,11163
8432,11158
8425,11153
8418,11147
8412,11140
8407,11132
8402,11124
8398,11116
8395,11108
8393,11099
8391,11090
8391,11080
8391,10893
8391,10884
8393,10875
8395,10866
8398,10858
8402,10849
8407,10841
8412,10834
8418,10827
8425,10821
8432,10816
8440,10811
8449,10807
8457,10804
8466,10802
8475,10800
8484,10800
8711,10800
8720,10800
" /> 
<polyline style="fill-rule:evenodd;"
points="26442,14800
26451,14802
26460,14804
26469,14807
26477,14811
26485,14816
26492,14821
26499,14827
26505,14834
26511,14841
26515,14849
26519,14858
26522,14866
26524,14875
26526,14884
26526,14893
26526,15080
26526,15090
26524,15099
26522,15108
26519,15116
26515,15124
26511,15132
26505,15140
26499,15147
26492,15153
26485,15158
26477,15163
26469,15167
26460,15170
26451,15172
26442,15173
26433,15174
26206,15174
26197,15173
26188,15172
26179,15170
26171,15167
26162,15163
26154,15158
26147,15153
26140,15147
26134,15140
26129,15132
26124,15124
26120,15116
26117,15108
26115,15099
26113,15090
26113,15080
26113,14893
26113,14884
26115,14875
26117,14866
26120,14858
26124,14849
26129,14841
26134,14834
26140,14827
26147,14821
26154,14816
26162,14811
26171,14807
26179,14804
26188,14802
26197,14800
26206,14800
26433,14800
26442,14800
" /> 
<polyline style="fill-rule:evenodd;"
points="27131,14800
27140,14802
27149,14804
27158,14807
27166,14811
27174,14816
27181,14821
27188,14827
27194,14834
27199,14841
27204,14849
27208,14858
27211,14866
27213,14875
27215,14884
27215,14893
27215,15080
27215,15090
27213,15099
27211,15108
27208,15116
27204,15124
27199,15132
27194,15140
27188,15147
27181,15153
27174,15158
27166,15163
27158,15167
27149,15170
27140,15172
27131,15173
27122,15174
26895,15174
26886,15173
26877,15172
26868,15170
26860,15167
26851,15163
26843,15158
26836,15153
26829,15147
26823,15140
26818,15132
26813,15124
26809,15116
26806,15108
26804,15099
26802,15090
26802,15080
26802,14893
26802,14884
26804,14875
26806,14866
26809,14858
26813,14849
26818,14841
26823,14834
26829,14827
26836,14821
26843,14816
26851,14811
26860,14807
26868,14804
26877,14802
26886,14800
26895,14800
27122,14800
27131,14800
" /> 
<polyline style="fill-rule:evenodd;"
points="33911,12736
33920,12738
33929,12740
33938,12743
33946,12747
33954,12751
33961,12757
33968,12763
33974,12770
33980,12777
33985,12785
33988,12793
33992,12802
33994,12811
33995,12820
33996,12829
33996,13056
33995,13065
33994,13074
33992,13083
33988,13091
33985,13100
33980,13108
33974,13115
33968,13122
33961,13128
33954,13133
33946,13138
33938,13142
33929,13145
33920,13147
33911,13149
33902,13149
33715,13149
33706,13149
33697,13147
33688,13145
33679,13142
33671,13138
33663,13133
33656,13128
33649,13122
33643,13115
33637,13108
33633,13100
33629,13091
33626,13083
33623,13074
33622,13065
33622,13056
33622,12829
33622,12820
33623,12811
33626,12802
33629,12793
33633,12785
33637,12777
33643,12770
33649,12763
33656,12757
33663,12751
33671,12747
33679,12743
33688,12740
33697,12738
33706,12736
33715,12736
33902,12736
33911,12736
" /> 
<polyline style="fill-rule:evenodd;"
points="33911,13425
33920,13426
33929,13429
33938,13432
33946,13436
33954,13440
33961,13446
33968,13452
33974,13459
33980,13466
33985,13474
33988,13482
33992,13491
33994,13500
33995,13509
33996,13518
33996,13745
33995,13754
33994,13763
33992,13772
33988,13780
33985,13789
33980,13797
33974,13804
33968,13811
33961,13817
33954,13822
33946,13827
33938,13831
33929,13834
33920,13836
33911,13838
33902,13838
33715,13838
33706,13838
33697,13836
33688,13834
33679,13831
33671,13827
33663,13822
33656,13817
33649,13811
33643,13804
33637,13797
33633,13789
33629,13780
33626,13772
33623,13763
33622,13754
33622,13745
33622,13518
33622,13509
33623,13500
33626,13491
33629,13482
33633,13474
33637,13466
33643,13459
33649,13452
33656,13446
33663,13440
33671,13436
33679,13432
33688,13429
33697,13426
33706,13425
33715,13425
33902,13425
33911,13425
" /> 
<polyline style="fill-rule:evenodd;"
points="14492,10451
14729,10451
14729,11041
14492,11041
14492,10451
" /> 
<polyline style="fill-rule:evenodd;"
points="13992,10451
14229,10451
14229,11041
13992,11041
13992,10451
" /> 
<polyline style="fill-rule:evenodd;"
points="13492,10451
13729,10451
13729,11041
13492,11041
13492,10451
" /> 
<polyline style="fill-rule:evenodd;"
points="12992,10451
13229,10451
13229,11041
12992,11041
12992,10451
" /> 
<polyline style="fill-rule:evenodd;"
points="12492,10451
12729,10451
12729,11041
12492,11041
12492,10451
" /> 
<polyline style="fill-rule:evenodd;"
points="11992,10451
12229,10451
12229,11041
11992,11041
11992,10451
" /> 
<polyline style="fill-rule:evenodd;"
points="11492,10451
11729,10451
11729,11041
11492,11041
11492,10451
" /> 
<polyline style="fill-rule:evenodd;"
points="10992,10451
11229,10451
11229,11041
10992,11041
10992,10451
" /> 
<polyline style="fill-rule:evenodd;"
points="10992,13246
11229,13246
11229,13837
10992,13837
10992,13246
" /> 
<polyline style="fill-rule:evenodd;"
points="11492,13246
11729,13246
11729,13837
11492,13837
11492,13246
" /> 
<polyline style="fill-rule:evenodd;"
points="11992,13246
12229,13246
12229,13837
11992,13837
11992,13246
" /> 
<polyline style="fill-rule:evenodd;"
points="12492,13246
12729,13246
12729,13837
12492,13837
12492,13246
" /> 
<polyline style="fill-rule:evenodd;"
points="12992,13246
13229,13246
13229,13837
12992,13837
12992,13246
" /> 
<polyline style="fill-rule:evenodd;"
points="13492,13246
13729,13246
13729,13837
13492,13837
13492,13246
" /> 
<polyline style="fill-rule:evenodd;"
points="13992,13246
14229,13246
14229,13837
13992,13837
13992,13246
" /> 
<polyline style="fill-rule:evenodd;"
points="14492,13246
14729,13246
14729,13837
14492,13837
14492,13246
" /> 
<polyline style="fill-rule:evenodd;"
points="32057,8370
32057,7976
33041,7976
33041,8370
32057,8370
" /> 
<polyline style="fill-rule:evenodd;"
points="32057,9157
32057,8763
33041,8763
33041,9157
32057,9157
" /> 
<polyline style="fill-rule:evenodd;"
points="32057,9944
32057,9551
33041,9551
33041,9944
32057,9944
" /> 
<polyline style="fill-rule:evenodd;"
points="32057,10732
32057,10338
33041,10338
33041,10732
32057,10732
" /> 
<polyline style="fill-rule:evenodd;"
points="32057,11519
32057,11125
33041,11125
33041,11519
32057,11519
" /> 
<polyline style="fill-rule:evenodd;"
points="32057,12307
32057,11913
33041,11913
33041,12307
32057,12307
" /> 
<polyline style="fill-rule:evenodd;"
points="32057,13094
32057,12700
33041,12700
33041,13094
32057,13094
" /> 
<polyline style="fill-rule:evenodd;"
points="32057,13881
32057,13488
33041,13488
33041,13881
32057,13881
" /> 
<polyline style="fill-rule:evenodd;"
points="26072,13881
26072,13488
27057,13488
27057,13881
26072,13881
" /> 
<polyline style="fill-rule:evenodd;"
points="26072,13094
26072,12700
27057,12700
27057,13094
26072,13094
" /> 
<polyline style="fill-rule:evenodd;"
points="26072,12307
26072,11913
27057,11913
27057,12307
26072,12307
" /> 
<polyline style="fill-rule:evenodd;"
points="26072,11519
26072,11125
27057,11125
27057,11519
26072,11519
" /> 
<polyline style="fill-rule:evenodd;"
points="26072,10732
26072,10338
27057,10338
27057,10732
26072,10732
" /> 
<polyline style="fill-rule:evenodd;"
points="26072,9944
26072,9551
27057,9551
27057,9944
26072,9944
" /> 
<polyline style="fill-rule:evenodd;"
points="26072,9157
26072,8763
27057,8763
27057,9157
26072,9157
" /> 
<polyline style="fill-rule:evenodd;"
points="26072,8370
26072,7976
27057,7976
27057,8370
26072,8370
" /> 
<polyline style="fill-rule:evenodd;"
points="18439,14915
18448,14917
18457,14919
18465,14922
18474,14926
18482,14931
18489,14936
18496,14942
18502,14949
18507,14956
18512,14964
18516,14973
18519,14981
18521,14990
18523,14999
18523,15008
18523,15235
18523,15244
18521,15253
18519,15262
18516,15271
18512,15279
18507,15287
18502,15294
18496,15301
18489,15307
18482,15312
18474,15317
18465,15321
18457,15324
18448,15326
18439,15328
18430,15328
18243,15328
18233,15328
18224,15326
18215,15324
18207,15321
18199,15317
18191,15312
18183,15307
18176,15301
18170,15294
18165,15287
18160,15279
18156,15271
18153,15262
18151,15253
18150,15244
18149,15235
18149,15008
18150,14999
18151,14990
18153,14981
18156,14973
18160,14964
18165,14956
18170,14949
18176,14942
18183,14936
18191,14931
18199,14926
18207,14922
18215,14919
18224,14917
18233,14915
18243,14915
18430,14915
18439,14915
" /> 
<polyline style="fill-rule:evenodd;"
points="18439,15604
18448,15606
18457,15608
18465,15611
18474,15615
18482,15620
18489,15625
18496,15631
18502,15638
18507,15645
18512,15653
18516,15662
18519,15670
18521,15679
18523,15688
18523,15697
18523,15924
18523,15933
18521,15942
18519,15951
18516,15959
18512,15968
18507,15976
18502,15983
18496,15990
18489,15996
18482,16001
18474,16006
18465,16010
18457,16013
18448,16015
18439,16017
18430,16017
18243,16017
18233,16017
18224,16015
18215,16013
18207,16010
18199,16006
18191,16001
18183,15996
18176,15990
18170,15983
18165,15976
18160,15968
18156,15959
18153,15951
18151,15942
18150,15933
18149,15924
18149,15697
18150,15688
18151,15679
18153,15670
18156,15662
18160,15653
18165,15645
18170,15638
18176,15631
18183,15625
18191,15620
18199,15615
18207,15611
18215,15608
18224,15606
18233,15604
18243,15604
18430,15604
18439,15604
" /> 
<polyline style="fill-rule:evenodd;"
points="15811,12602
15820,12604
15829,12606
15838,12609
15846,12613
15854,12618
15861,12623
15868,12629
15874,12636
15880,12643
15885,12651
15888,12660
15892,12668
15894,12677
15895,12686
15896,12695
15896,12922
15895,12931
15894,12940
15892,12949
15888,12958
15885,12966
15880,12974
15874,12981
15868,12988
15861,12994
15854,12999
15846,13004
15838,13008
15829,13011
15820,13013
15811,13015
15802,13015
15615,13015
15606,13015
15597,13013
15588,13011
15579,13008
15571,13004
15563,12999
15556,12994
15549,12988
15543,12981
15537,12974
15533,12966
15529,12958
15526,12949
15523,12940
15522,12931
15522,12922
15522,12695
15522,12686
15523,12677
15526,12668
15529,12660
15533,12651
15537,12643
15543,12636
15549,12629
15556,12623
15563,12618
15571,12613
15579,12609
15588,12606
15597,12604
15606,12602
15615,12602
15802,12602
15811,12602
" /> 
<polyline style="fill-rule:evenodd;"
points="15811,11913
15820,11915
15829,11917
15838,11920
15846,11924
15854,11929
15861,11934
15868,11940
15874,11947
15880,11954
15885,11962
15888,11971
15892,11979
15894,11988
15895,11997
15896,12006
15896,12233
15895,12242
15894,12251
15892,12260
15888,12269
15885,12277
15880,12285
15874,12292
15868,12299
15861,12305
15854,12311
15846,12315
15838,12319
15829,12322
15820,12324
15811,12326
15802,12326
15615,12326
15606,12326
15597,12324
15588,12322
15579,12319
15571,12315
15563,12311
15556,12305
15549,12299
15543,12292
15537,12285
15533,12277
15529,12269
15526,12260
15523,12251
15522,12242
15522,12233
15522,12006
15522,11997
15523,11988
15526,11979
15529,11971
15533,11962
15537,11954
15543,11947
15549,11940
15556,11934
15563,11929
15571,11924
15579,11920
15588,11917
15597,11915
15606,11913
15615,11913
15802,11913
15811,11913
" /> 
<polyline style="fill-rule:evenodd;"
points="13698,14807
13707,14808
13716,14811
13724,14814
13733,14818
13740,14822
13748,14828
13755,14834
13761,14841
13766,14848
13771,14856
13775,14864
13778,14873
13780,14882
13781,14891
13782,14900
13782,15126
13781,15136
13780,15145
13778,15154
13775,15162
13771,15171
13766,15178
13761,15186
13755,15193
13748,15199
13740,15204
13733,15209
13724,15213
13716,15216
13707,15218
13698,15220
13688,15220
13501,15220
13492,15220
13483,15218
13474,15216
13466,15213
13457,15209
13449,15204
13442,15199
13435,15193
13429,15186
13424,15178
13419,15171
13415,15162
13412,15154
13410,15145
13408,15136
13408,15126
13408,14900
13408,14891
13410,14882
13412,14873
13415,14864
13419,14856
13424,14848
13429,14841
13435,14834
13442,14828
13449,14822
13457,14818
13466,14814
13474,14811
13483,14808
13492,14807
13501,14807
13688,14807
13698,14807
" /> 
<polyline style="fill-rule:evenodd;"
points="13698,15496
13707,15497
13716,15500
13724,15503
13733,15507
13740,15511
13748,15517
13755,15523
13761,15530
13766,15537
13771,15545
13775,15553
13778,15562
13780,15571
13781,15580
13782,15589
13782,15815
13781,15825
13780,15834
13778,15843
13775,15851
13771,15860
13766,15867
13761,15875
13755,15882
13748,15888
13740,15893
13733,15898
13724,15902
13716,15905
13707,15907
13698,15908
13688,15909
13501,15909
13492,15908
13483,15907
13474,15905
13466,15902
13457,15898
13449,15893
13442,15888
13435,15882
13429,15875
13424,15867
13419,15860
13415,15851
13412,15843
13410,15834
13408,15825
13408,15815
13408,15589
13408,15580
13410,15571
13412,15562
13415,15553
13419,15545
13424,15537
13429,15530
13435,15523
13442,15517
13449,15511
13457,15507
13466,15503
13474,15500
13483,15497
13492,15496
13501,15496
13688,15496
13698,15496
" /> 
<polyline style="fill-rule:evenodd;"
points="10478,8480
10478,6984
11265,6984
11265,8480
10478,8480
" /> 
<polyline style="fill-rule:evenodd;"
points="7998,8027
7998,7437
8785,7437
8785,8027
7998,8027
" /> 
<polyline style="fill-rule:evenodd;"
points="7998,8933
7998,8342
8785,8342
8785,8933
7998,8933
" /> 
<polyline style="fill-rule:evenodd;"
points="7998,7122
7998,6531
8785,6531
8785,7122
7998,7122
" /> 
<polyline style="fill-rule:evenodd;"
points="23411,15625
23420,15626
23429,15629
23438,15632
23446,15636
23454,15640
23461,15646
23468,15652
23474,15659
23480,15666
23485,15674
23488,15682
23492,15691
23494,15700
23495,15709
23496,15718
23496,15945
23495,15954
23494,15963
23492,15972
23488,15980
23485,15989
23480,15997
23474,16004
23468,16011
23461,16017
23454,16022
23446,16027
23438,16031
23429,16034
23420,16036
23411,16038
23402,16038
23215,16038
23206,16038
23197,16036
23188,16034
23179,16031
23171,16027
23163,16022
23156,16017
23149,16011
23143,16004
23137,15997
23133,15989
23129,15980
23126,15972
23123,15963
23122,15954
23122,15945
23122,15718
23122,15709
23123,15700
23126,15691
23129,15682
23133,15674
23137,15666
23143,15659
23149,15652
23156,15646
23163,15640
23171,15636
23179,15632
23188,15629
23197,15626
23206,15625
23215,15625
23402,15625
23411,15625
" /> 
<polyline style="fill-rule:evenodd;"
points="23411,14936
23420,14938
23429,14940
23438,14943
23446,14947
23454,14951
23461,14957
23468,14963
23474,14970
23480,14977
23485,14985
23488,14993
23492,15002
23494,15011
23495,15020
23496,15029
23496,15256
23495,15265
23494,15274
23492,15283
23488,15291
23485,15300
23480,15308
23474,15315
23468,15322
23461,15328
23454,15333
23446,15338
23438,15342
23429,15345
23420,15347
23411,15349
23402,15349
23215,15349
23206,15349
23197,15347
23188,15345
23179,15342
23171,15338
23163,15333
23156,15328
23149,15322
23143,15315
23137,15308
23133,15300
23129,15291
23126,15283
23123,15274
23122,15265
23122,15256
23122,15029
23122,15020
23123,15011
23126,15002
23129,14993
23133,14985
23137,14977
23143,14970
23149,14963
23156,14957
23163,14951
23171,14947
23179,14943
23188,14940
23197,14938
23206,14936
23215,14936
23402,14936
23411,14936
" /> 
<polyline style="fill-rule:evenodd;"
points="4940,7864
4950,7866
4959,7868
4968,7871
4977,7875
4985,7880
4993,7886
5000,7893
5007,7900
5012,7907
5017,7916
5022,7924
5025,7934
5027,7943
5029,7952
5029,7962
5029,8277
5029,8287
5027,8296
5025,8306
5022,8315
5017,8323
5012,8332
5007,8339
5000,8347
4993,8353
4985,8359
4977,8364
4968,8368
4959,8371
4950,8374
4940,8375
4931,8375
3789,8375
3779,8375
3770,8374
3760,8371
3751,8368
3742,8364
3734,8359
3726,8353
3719,8347
3713,8339
3707,8332
3702,8323
3698,8315
3695,8306
3692,8296
3691,8287
3690,8277
3690,7962
3691,7952
3692,7943
3695,7934
3698,7924
3702,7916
3707,7907
3713,7900
3719,7893
3726,7886
3734,7880
3742,7875
3751,7871
3760,7868
3770,7866
3779,7864
3789,7864
4931,7864
4940,7864
" /> 
<polyline style="fill-rule:evenodd;"
points="4940,6112
4950,6114
4959,6116
4968,6119
4977,6123
4985,6128
4993,6134
5000,6141
5007,6148
5012,6155
5017,6164
5022,6172
5025,6182
5027,6191
5029,6200
5029,6210
5029,6525
5029,6535
5027,6544
5025,6554
5022,6563
5017,6571
5012,6580
5007,6588
5000,6595
4993,6601
4985,6607
4977,6612
4968,6616
4959,6619
4950,6622
4940,6623
4931,6624
3789,6624
3779,6623
3770,6622
3760,6619
3751,6616
3742,6612
3734,6607
3726,6601
3719,6595
3713,6588
3707,6580
3702,6571
3698,6563
3695,6554
3692,6544
3691,6535
3690,6525
3690,6210
3691,6200
3692,6191
3695,6182
3698,6172
3702,6164
3707,6155
3713,6148
3719,6141
3726,6134
3734,6128
3742,6123
3751,6119
3760,6116
3770,6114
3779,6112
3789,6112
4931,6112
4940,6112
" /> 
<polyline style="fill-rule:evenodd;"
points="7218,6487
7227,6488
7236,6490
7245,6493
7253,6497
7261,6502
7268,6507
7275,6514
7281,6520
7287,6528
7292,6536
7296,6544
7299,6552
7301,6561
7302,6570
7303,6580
7303,6806
7302,6815
7301,6824
7299,6833
7296,6842
7292,6850
7287,6858
7281,6865
7275,6872
7268,6878
7261,6884
7253,6888
7245,6892
7236,6895
7227,6898
7218,6899
7209,6900
7022,6900
7013,6899
7004,6898
6995,6895
6986,6892
6978,6888
6970,6884
6963,6878
6956,6872
6950,6865
6944,6858
6940,6850
6936,6842
6933,6833
6930,6824
6929,6815
6929,6806
6929,6580
6929,6570
6930,6561
6933,6552
6936,6544
6940,6536
6944,6528
6950,6520
6956,6514
6963,6507
6970,6502
6978,6497
6986,6493
6995,6490
7004,6488
7013,6487
7022,6486
7209,6486
7218,6487
" /> 
<polyline style="fill-rule:evenodd;"
points="7218,7176
7227,7177
7236,7179
7245,7182
7253,7186
7261,7191
7268,7196
7275,7202
7281,7209
7287,7217
7292,7225
7296,7233
7299,7241
7301,7250
7302,7259
7303,7269
7303,7495
7302,7504
7301,7513
7299,7522
7296,7531
7292,7539
7287,7547
7281,7554
7275,7561
7268,7567
7261,7573
7253,7577
7245,7581
7236,7584
7227,7587
7218,7588
7209,7588
7022,7588
7013,7588
7004,7587
6995,7584
6986,7581
6978,7577
6970,7573
6963,7567
6956,7561
6950,7554
6944,7547
6940,7539
6936,7531
6933,7522
6930,7513
6929,7504
6929,7495
6929,7269
6929,7259
6930,7250
6933,7241
6936,7233
6940,7225
6944,7217
6950,7209
6956,7202
6963,7196
6970,7191
6978,7186
6986,7182
6995,7179
7004,7177
7013,7176
7022,7175
7209,7175
7218,7176
" /> 
<polyline style="fill-rule:evenodd;"
points="7214,8960
7214,9669
5836,9669
5836,8960
7214,8960
" /> 
<polyline style="fill-rule:evenodd;"
points="5246,8960
5246,9669
3868,9669
3868,8960
5246,8960
" /> 
<polyline style="fill-rule:evenodd;"
points="743,7342
1491,7342
1491,7933
743,7933
743,7342
" /> 
<polyline style="fill-rule:evenodd;"
points="1914,6909
2445,6909
2445,7066
1914,7066
1914,6909
" /> 
<polyline style="fill-rule:evenodd;"
points="1914,6653
2445,6653
2445,6811
1914,6811
1914,6653
" /> 
<polyline style="fill-rule:evenodd;"
points="1914,7677
2445,7677
2445,7834
1914,7834
1914,7677
" /> 
<polyline style="fill-rule:evenodd;"
points="1914,7421
2445,7421
2445,7578
1914,7578
1914,7421
" /> 
<polyline style="fill-rule:evenodd;"
points="1914,7165
2445,7165
2445,7322
1914,7322
1914,7165
" /> 
<polyline style="fill-rule:evenodd;"
points="743,6555
1491,6555
1491,7145
743,7145
743,6555
" /> 
<polyline style="fill-rule:evenodd;"
points="8731,9700
8740,9702
8749,9704
8758,9707
8766,9711
8774,9716
8781,9721
8788,9727
8794,9734
8799,9741
8804,9749
8808,9758
8811,9766
8813,9775
8815,9784
8815,9793
8815,9980
8815,9990
8813,9999
8811,10008
8808,10016
8804,10024
8799,10032
8794,10040
8788,10047
8781,10053
8774,10058
8766,10063
8758,10067
8749,10070
8740,10072
8731,10073
8722,10074
8495,10074
8486,10073
8477,10072
8468,10070
8460,10067
8451,10063
8443,10058
8436,10053
8429,10047
8423,10040
8418,10032
8413,10024
8409,10016
8406,10008
8404,9999
8402,9990
8402,9980
8402,9793
8402,9784
8404,9775
8406,9766
8409,9758
8413,9749
8418,9741
8423,9734
8429,9727
8436,9721
8443,9716
8451,9711
8460,9707
8468,9704
8477,9702
8486,9700
8495,9700
8722,9700
8731,9700
" /> 
<polyline style="fill-rule:evenodd;"
points="8042,9700
8051,9702
8060,9704
8069,9707
8077,9711
8085,9716
8092,9721
8099,9727
8105,9734
8111,9741
8115,9749
8119,9758
8122,9766
8124,9775
8126,9784
8126,9793
8126,9980
8126,9990
8124,9999
8122,10008
8119,10016
8115,10024
8111,10032
8105,10040
8099,10047
8092,10053
8085,10058
8077,10063
8069,10067
8060,10070
8051,10072
8042,10073
8033,10074
7806,10074
7797,10073
7788,10072
7779,10070
7771,10067
7762,10063
7754,10058
7747,10053
7740,10047
7734,10040
7729,10032
7724,10024
7720,10016
7717,10008
7715,9999
7713,9990
7713,9980
7713,9793
7713,9784
7715,9775
7717,9766
7720,9758
7724,9749
7729,9741
7734,9734
7740,9727
7747,9721
7754,9716
7762,9711
7771,9707
7779,9704
7788,9702
7797,9700
7806,9700
8033,9700
8042,9700
" /> 
<polyline style="fill-rule:evenodd;"
points="3947,14807
3956,14808
3965,14811
3974,14814
3982,14818
3990,14822
3997,14828
4004,14834
4010,14841
4016,14848
4021,14856
4024,14864
4028,14873
4030,14882
4031,14891
4032,14900
4032,15126
4031,15136
4030,15145
4028,15154
4024,15162
4021,15171
4016,15178
4010,15186
4004,15193
3997,15199
3990,15204
3982,15209
3974,15213
3965,15216
3956,15218
3947,15220
3938,15220
3751,15220
3742,15220
3733,15218
3724,15216
3715,15213
3707,15209
3699,15204
3692,15199
3685,15193
3679,15186
3673,15178
3669,15171
3665,15162
3662,15154
3659,15145
3658,15136
3658,15126
3658,14900
3658,14891
3659,14882
3662,14873
3665,14864
3669,14856
3673,14848
3679,14841
3685,14834
3692,14828
3699,14822
3707,14818
3715,14814
3724,14811
3733,14808
3742,14807
3751,14807
3938,14807
3947,14807
" /> 
<polyline style="fill-rule:evenodd;"
points="3947,15496
3956,15497
3965,15500
3974,15503
3982,15507
3990,15511
3997,15517
4004,15523
4010,15530
4016,15537
4021,15545
4024,15553
4028,15562
4030,15571
4031,15580
4032,15589
4032,15815
4031,15825
4030,15834
4028,15843
4024,15851
4021,15860
4016,15867
4010,15875
4004,15882
3997,15888
3990,15893
3982,15898
3974,15902
3965,15905
3956,15907
3947,15908
3938,15909
3751,15909
3742,15908
3733,15907
3724,15905
3715,15902
3707,15898
3699,15893
3692,15888
3685,15882
3679,15875
3673,15867
3669,15860
3665,15851
3662,15843
3659,15834
3658,15825
3658,15815
3658,15589
3658,15580
3659,15571
3662,15562
3665,15553
3669,15545
3673,15537
3679,15530
3685,15523
3692,15517
3699,15511
3707,15507
3715,15503
3724,15500
3733,15497
3742,15496
3751,15496
3938,15496
3947,15496
" /> 
<polyline style="fill-rule:evenodd;"
points="8822,15496
8831,15497
8840,15500
8849,15503
8857,15507
8865,15511
8873,15517
8879,15523
8886,15530
8891,15537
8896,15545
8900,15553
8903,15562
8905,15571
8906,15580
8907,15589
8907,15815
8906,15825
8905,15834
8903,15843
8900,15851
8896,15860
8891,15867
8886,15875
8879,15882
8873,15888
8865,15893
8857,15898
8849,15902
8840,15905
8831,15907
8822,15908
8813,15909
8626,15909
8617,15908
8608,15907
8599,15905
8590,15902
8582,15898
8574,15893
8567,15888
8560,15882
8554,15875
8548,15867
8544,15860
8540,15851
8537,15843
8535,15834
8533,15825
8533,15815
8533,15589
8533,15580
8535,15571
8537,15562
8540,15553
8544,15545
8548,15537
8554,15530
8560,15523
8567,15517
8574,15511
8582,15507
8590,15503
8599,15500
8608,15497
8617,15496
8626,15496
8813,15496
8822,15496
" /> 
<polyline style="fill-rule:evenodd;"
points="8822,14807
8831,14808
8840,14811
8849,14814
8857,14818
8865,14822
8873,14828
8879,14834
8886,14841
8891,14848
8896,14856
8900,14864
8903,14873
8905,14882
8906,14891
8907,14900
8907,15126
8906,15136
8905,15145
8903,15154
8900,15162
8896,15171
8891,15178
8886,15186
8879,15193
8873,15199
8865,15204
8857,15209
8849,15213
8840,15216
8831,15218
8822,15220
8813,15220
8626,15220
8617,15220
8608,15218
8599,15216
8590,15213
8582,15209
8574,15204
8567,15199
8560,15193
8554,15186
8548,15178
8544,15171
8540,15162
8537,15154
8535,15145
8533,15136
8533,15126
8533,14900
8533,14891
8535,14882
8537,14873
8540,14864
8544,14856
8548,14848
8554,14841
8560,14834
8567,14828
8574,14822
8582,14818
8590,14814
8599,14811
8608,14808
8617,14807
8626,14807
8813,14807
8822,14807
" /> 
<polyline style="fill-rule:evenodd;"
points="10301,13935
9316,13935
9316,12626
10301,12626
10301,13935
" /> 
<polyline style="fill-rule:evenodd;"
points="10301,11641
9316,11641
9316,10332
10301,10332
10301,11641
" /> 
</g>
<g style="fill:#000000; fill-opacity:1.0; 
stroke:#000000; stroke-width:59.0551; stroke-opacity:1; 
stroke-linecap:round; stroke-linejoin:round;">
</g>
<g style="fill:#000000; fill-opacity:0.0; 
stroke:#000000; stroke-width:59.0551; stroke-opacity:1; 
stroke-linecap:round; stroke-linejoin:round;">
<path d="M29 5377
L39399 5377
" />
<path d="M29 25062
L29 5377
" />
<path d="M39399 25062
L29 25062
" />
<path d="M39399 5377
L39399 25062
" />
</g> 
</svg>
