M48
;DRILL file {KiCad 4.0.6+dfsg1-1} date Mon Apr 23 23:44:25 2018
;FORMAT={3:3/ absolute / metric / suppress leading zeros}
FMAT,2
METRIC,TZ
T1C0.300
T2C0.650
T3C0.998
T4C1.000
T5C1.001
T6C1.100
T7C3.500
%
G90
G05
M71
T1
X124460Y-93980
X124460Y-97790
X124460Y-139700
X124460Y-143510
X138430Y-76200
X138430Y-121920
X147320Y-92710
X147320Y-138430
T2
X149860Y-76200
X149860Y-78200
X149860Y-80200
X149860Y-82200
X149860Y-84200
X149860Y-86200
X149860Y-88200
X149860Y-90200
X149860Y-121920
X149860Y-123920
X149860Y-125920
X149860Y-127920
X149860Y-129920
X149860Y-131920
X149860Y-133920
X149860Y-135920
X163860Y-76200
X163860Y-78200
X163860Y-80200
X163860Y-82200
X163860Y-84200
X163860Y-86200
X163860Y-88200
X163860Y-90200
X163860Y-121920
X163860Y-123920
X163860Y-125920
X163860Y-127920
X163860Y-129920
X163860Y-131920
X163860Y-133920
X163860Y-135920
T3
X115570Y-92867
X115570Y-96363
X115570Y-99852
X115570Y-103348
X115570Y-138587
X115570Y-142083
X115570Y-145572
X115570Y-149068
T4
X114300Y-81280
X114300Y-83820
X114300Y-86360
X114300Y-88900
X114300Y-127000
X114300Y-129540
X114300Y-132080
X114300Y-134620
X142240Y-101600
X142240Y-104140
X142240Y-106680
X142240Y-147320
X142240Y-149860
X142240Y-152400
X163830Y-101600
X163830Y-104140
X163830Y-106680
X163830Y-147320
X163830Y-149860
X163830Y-152400
X173355Y-71120
X173355Y-73660
X173355Y-76200
X173355Y-116840
X173355Y-119380
X173355Y-121920
X175895Y-71120
X175895Y-73660
X175895Y-76200
X175895Y-116840
X175895Y-119380
X175895Y-121920
X186690Y-101600
X186690Y-104140
X186690Y-106680
X186690Y-147320
X186690Y-149860
X186690Y-152400
T6
X181555Y-70485
X181555Y-76985
X181555Y-116205
X181555Y-122705
X186055Y-70485
X186055Y-76985
X186055Y-116205
X186055Y-122705
T7
X125580Y-104140
X125580Y-149860
X147170Y-104140
X147170Y-149860
X170030Y-104140
X170030Y-149860
T5
X119126Y-77131G85X119126Y-79130
G05
X119126Y-122851G85X119126Y-124850
G05
X124824Y-75131G85X122826Y-75131
G05
X124824Y-81130G85X122826Y-81130
G05
X124824Y-120851G85X122826Y-120851
G05
X124824Y-126850G85X122826Y-126850
G05
T0
M30
