G04 #@! TF.FileFunction,Profile,NP*
%FSLAX46Y46*%
G04 Gerber Fmt 4.6, Leading zero omitted, Abs format (unit mm)*
G04 Created by KiCad (PCBNEW 4.0.6+dfsg1-1) date Mon Apr 23 23:44:20 2018*
%MOMM*%
%LPD*%
G01*
G04 APERTURE LIST*
%ADD10C,0.100000*%
%ADD11C,0.150000*%
G04 APERTURE END LIST*
D10*
D11*
X180340000Y-114300000D02*
X111760000Y-114300000D01*
X180340000Y-157480000D02*
X111760000Y-157480000D01*
X111760000Y-157480000D02*
X111760000Y-114300000D01*
X180340000Y-157480000D02*
X185420000Y-157480000D01*
X185420000Y-157480000D02*
X187960000Y-157480000D01*
X187960000Y-157480000D02*
X190500000Y-157480000D01*
X190500000Y-114300000D02*
X180340000Y-114300000D01*
X193675000Y-118110000D02*
G75*
G03X193675000Y-118110000I-1905000J0D01*
G01*
X193040000Y-153670000D02*
G75*
G03X193040000Y-153670000I-1905000J0D01*
G01*
X190500000Y-114300000D02*
X195580000Y-114300000D01*
X117475000Y-118110000D02*
G75*
G03X117475000Y-118110000I-1905000J0D01*
G01*
X117475000Y-153670000D02*
G75*
G03X117475000Y-153670000I-1905000J0D01*
G01*
X191135000Y-157480000D02*
X195580000Y-157480000D01*
X195580000Y-157480000D02*
X189865000Y-157480000D01*
X195580000Y-114300000D02*
X195580000Y-157480000D01*
X195580000Y-68580000D02*
X195580000Y-111760000D01*
X195580000Y-111760000D02*
X189865000Y-111760000D01*
X191135000Y-111760000D02*
X195580000Y-111760000D01*
X117475000Y-107950000D02*
G75*
G03X117475000Y-107950000I-1905000J0D01*
G01*
X117475000Y-72390000D02*
G75*
G03X117475000Y-72390000I-1905000J0D01*
G01*
X190500000Y-68580000D02*
X195580000Y-68580000D01*
X193040000Y-107950000D02*
G75*
G03X193040000Y-107950000I-1905000J0D01*
G01*
X193675000Y-72390000D02*
G75*
G03X193675000Y-72390000I-1905000J0D01*
G01*
X190500000Y-68580000D02*
X180340000Y-68580000D01*
X187960000Y-111760000D02*
X190500000Y-111760000D01*
X185420000Y-111760000D02*
X187960000Y-111760000D01*
X180340000Y-111760000D02*
X185420000Y-111760000D01*
X111760000Y-111760000D02*
X111760000Y-68580000D01*
X180340000Y-111760000D02*
X111760000Y-111760000D01*
X180340000Y-68580000D02*
X111760000Y-68580000D01*
M02*
