G04 #@! TF.FileFunction,Legend,Top*
%FSLAX46Y46*%
G04 Gerber Fmt 4.6, Leading zero omitted, Abs format (unit mm)*
G04 Created by KiCad (PCBNEW 4.0.6+dfsg1-1) date Mon Apr 23 23:44:20 2018*
%MOMM*%
%LPD*%
G01*
G04 APERTURE LIST*
%ADD10C,0.100000*%
%ADD11C,0.066040*%
%ADD12C,0.127000*%
%ADD13C,0.063500*%
%ADD14C,0.120000*%
%ADD15C,0.150000*%
%ADD16C,0.152400*%
%ADD17C,0.101600*%
G04 APERTURE END LIST*
D10*
D11*
X118999000Y-150749000D02*
X118999000Y-143891000D01*
X118999000Y-143891000D02*
X112141000Y-143891000D01*
X112141000Y-150749000D02*
X112141000Y-143891000D01*
X118999000Y-150749000D02*
X112141000Y-150749000D01*
D12*
X112072420Y-150817580D02*
X112072420Y-143822420D01*
X112072420Y-143822420D02*
X113471960Y-143822420D01*
X113471960Y-143822420D02*
X117668040Y-143822420D01*
X117668040Y-143822420D02*
X119067580Y-143822420D01*
X119067580Y-143822420D02*
X119067580Y-150817580D01*
X119067580Y-150817580D02*
X117668040Y-150817580D01*
X117668040Y-150817580D02*
X113471960Y-150817580D01*
X113471960Y-150817580D02*
X112072420Y-150817580D01*
X113471960Y-150817580D02*
X113471960Y-143822420D01*
X117668040Y-150817580D02*
X117668040Y-143822420D01*
D13*
X116629670Y-149049740D02*
G75*
G03X116629670Y-149049740I-1059670J0D01*
G01*
X116629670Y-145590260D02*
G75*
G03X116629670Y-145590260I-1059670J0D01*
G01*
D11*
X118999000Y-143764000D02*
X118999000Y-136906000D01*
X118999000Y-136906000D02*
X112141000Y-136906000D01*
X112141000Y-143764000D02*
X112141000Y-136906000D01*
X118999000Y-143764000D02*
X112141000Y-143764000D01*
D12*
X112072420Y-143832580D02*
X112072420Y-136837420D01*
X112072420Y-136837420D02*
X113471960Y-136837420D01*
X113471960Y-136837420D02*
X117668040Y-136837420D01*
X117668040Y-136837420D02*
X119067580Y-136837420D01*
X119067580Y-136837420D02*
X119067580Y-143832580D01*
X119067580Y-143832580D02*
X117668040Y-143832580D01*
X117668040Y-143832580D02*
X113471960Y-143832580D01*
X113471960Y-143832580D02*
X112072420Y-143832580D01*
X113471960Y-143832580D02*
X113471960Y-136837420D01*
X117668040Y-143832580D02*
X117668040Y-136837420D01*
D13*
X116629670Y-142064740D02*
G75*
G03X116629670Y-142064740I-1059670J0D01*
G01*
X116629670Y-138605260D02*
G75*
G03X116629670Y-138605260I-1059670J0D01*
G01*
D14*
X149260000Y-141320000D02*
X149260000Y-140620000D01*
X150460000Y-140620000D02*
X150460000Y-141320000D01*
X140340000Y-131315000D02*
X137450000Y-131315000D01*
X131440000Y-131315000D02*
X134330000Y-131315000D01*
X130680000Y-141735000D02*
X134330000Y-141735000D01*
X141100000Y-141735000D02*
X137450000Y-141735000D01*
X130680000Y-141735000D02*
X130680000Y-132075000D01*
X130680000Y-132075000D02*
X131440000Y-131315000D01*
X140340000Y-131315000D02*
X141100000Y-132075000D01*
X141100000Y-132075000D02*
X141100000Y-141735000D01*
X135380000Y-123500000D02*
X135380000Y-122570000D01*
X135380000Y-120340000D02*
X135380000Y-121270000D01*
X135380000Y-120340000D02*
X132220000Y-120340000D01*
X135380000Y-123500000D02*
X133920000Y-123500000D01*
X180555000Y-117205000D02*
X180555000Y-121705000D01*
X184555000Y-115955000D02*
X183055000Y-115955000D01*
X187055000Y-121705000D02*
X187055000Y-117205000D01*
X183055000Y-122955000D02*
X184555000Y-122955000D01*
X166960000Y-135120000D02*
X166960000Y-134120000D01*
X168320000Y-134120000D02*
X168320000Y-135120000D01*
X145280000Y-126410000D02*
X144280000Y-126410000D01*
X144280000Y-125050000D02*
X145280000Y-125050000D01*
X156890000Y-140470000D02*
X156890000Y-141470000D01*
X155530000Y-141470000D02*
X155530000Y-140470000D01*
X154350000Y-140470000D02*
X154350000Y-141470000D01*
X152990000Y-141470000D02*
X152990000Y-140470000D01*
X160140000Y-154980000D02*
X160140000Y-144740000D01*
X144250000Y-154980000D02*
X144250000Y-144740000D01*
X144250000Y-154980000D02*
X160140000Y-154980000D01*
X144250000Y-144740000D02*
X160140000Y-144740000D01*
X160140000Y-152400000D02*
X162780000Y-152400000D01*
X160140000Y-149860000D02*
X162764000Y-149860000D01*
X160140000Y-147320000D02*
X162764000Y-147320000D01*
X138550000Y-154980000D02*
X138550000Y-144740000D01*
X122660000Y-154980000D02*
X122660000Y-144740000D01*
X122660000Y-154980000D02*
X138550000Y-154980000D01*
X122660000Y-144740000D02*
X138550000Y-144740000D01*
X138550000Y-152400000D02*
X141190000Y-152400000D01*
X138550000Y-149860000D02*
X141174000Y-149860000D01*
X138550000Y-147320000D02*
X141174000Y-147320000D01*
X115630000Y-125670000D02*
X112970000Y-125670000D01*
X115630000Y-133350000D02*
X115630000Y-125670000D01*
X112970000Y-133350000D02*
X112970000Y-125670000D01*
X115630000Y-133350000D02*
X112970000Y-133350000D01*
X115630000Y-134620000D02*
X115630000Y-135950000D01*
X115630000Y-135950000D02*
X114300000Y-135950000D01*
X172025000Y-123250000D02*
X177225000Y-123250000D01*
X172025000Y-118110000D02*
X172025000Y-123250000D01*
X177225000Y-115510000D02*
X177225000Y-123250000D01*
X172025000Y-118110000D02*
X174625000Y-118110000D01*
X174625000Y-118110000D02*
X174625000Y-115510000D01*
X174625000Y-115510000D02*
X177225000Y-115510000D01*
X172025000Y-116840000D02*
X172025000Y-115510000D01*
X172025000Y-115510000D02*
X173355000Y-115510000D01*
D15*
X128325880Y-116649500D02*
X119324120Y-116649500D01*
X128325880Y-113149380D02*
X119324120Y-113149380D01*
X119324120Y-113149380D02*
X119324120Y-127650240D01*
X119324120Y-127650240D02*
X128325880Y-127650240D01*
X128325880Y-127650240D02*
X128325880Y-113149380D01*
D14*
X134270000Y-125130000D02*
X134970000Y-125130000D01*
X134970000Y-126330000D02*
X134270000Y-126330000D01*
X134270000Y-117510000D02*
X134970000Y-117510000D01*
X134970000Y-118710000D02*
X134270000Y-118710000D01*
X183000000Y-154980000D02*
X183000000Y-144740000D01*
X167110000Y-154980000D02*
X167110000Y-144740000D01*
X167110000Y-154980000D02*
X183000000Y-154980000D01*
X167110000Y-144740000D02*
X183000000Y-144740000D01*
X183000000Y-152400000D02*
X185640000Y-152400000D01*
X183000000Y-149860000D02*
X185624000Y-149860000D01*
X183000000Y-147320000D02*
X185624000Y-147320000D01*
X159430000Y-140470000D02*
X159430000Y-141470000D01*
X158070000Y-141470000D02*
X158070000Y-140470000D01*
D16*
X148860000Y-115520000D02*
X164860000Y-115520000D01*
X164860000Y-115520000D02*
X164860000Y-120920000D01*
X148860000Y-115520000D02*
X148860000Y-120920000D01*
X148860000Y-136720000D02*
X148860000Y-137520000D01*
X148860000Y-137520000D02*
X164860000Y-137520000D01*
X164860000Y-137520000D02*
X164860000Y-136720000D01*
X164860000Y-115520000D02*
X148860000Y-119320000D01*
X148860000Y-115520000D02*
X164860000Y-119320000D01*
X148852000Y-119320000D02*
X164852000Y-119320000D01*
X148860000Y-69800000D02*
X164860000Y-69800000D01*
X164860000Y-69800000D02*
X164860000Y-75200000D01*
X148860000Y-69800000D02*
X148860000Y-75200000D01*
X148860000Y-91000000D02*
X148860000Y-91800000D01*
X148860000Y-91800000D02*
X164860000Y-91800000D01*
X164860000Y-91800000D02*
X164860000Y-91000000D01*
X164860000Y-69800000D02*
X148860000Y-73600000D01*
X148860000Y-69800000D02*
X164860000Y-73600000D01*
X148852000Y-73600000D02*
X164852000Y-73600000D01*
D14*
X159430000Y-94750000D02*
X159430000Y-95750000D01*
X158070000Y-95750000D02*
X158070000Y-94750000D01*
X183000000Y-109260000D02*
X183000000Y-99020000D01*
X167110000Y-109260000D02*
X167110000Y-99020000D01*
X167110000Y-109260000D02*
X183000000Y-109260000D01*
X167110000Y-99020000D02*
X183000000Y-99020000D01*
X183000000Y-106680000D02*
X185640000Y-106680000D01*
X183000000Y-104140000D02*
X185624000Y-104140000D01*
X183000000Y-101600000D02*
X185624000Y-101600000D01*
X134270000Y-71790000D02*
X134970000Y-71790000D01*
X134970000Y-72990000D02*
X134270000Y-72990000D01*
X134270000Y-79410000D02*
X134970000Y-79410000D01*
X134970000Y-80610000D02*
X134270000Y-80610000D01*
D15*
X128325880Y-70929500D02*
X119324120Y-70929500D01*
X128325880Y-67429380D02*
X119324120Y-67429380D01*
X119324120Y-67429380D02*
X119324120Y-81930240D01*
X119324120Y-81930240D02*
X128325880Y-81930240D01*
X128325880Y-81930240D02*
X128325880Y-67429380D01*
D14*
X172025000Y-77530000D02*
X177225000Y-77530000D01*
X172025000Y-72390000D02*
X172025000Y-77530000D01*
X177225000Y-69790000D02*
X177225000Y-77530000D01*
X172025000Y-72390000D02*
X174625000Y-72390000D01*
X174625000Y-72390000D02*
X174625000Y-69790000D01*
X174625000Y-69790000D02*
X177225000Y-69790000D01*
X172025000Y-71120000D02*
X172025000Y-69790000D01*
X172025000Y-69790000D02*
X173355000Y-69790000D01*
X115630000Y-79950000D02*
X112970000Y-79950000D01*
X115630000Y-87630000D02*
X115630000Y-79950000D01*
X112970000Y-87630000D02*
X112970000Y-79950000D01*
X115630000Y-87630000D02*
X112970000Y-87630000D01*
X115630000Y-88900000D02*
X115630000Y-90230000D01*
X115630000Y-90230000D02*
X114300000Y-90230000D01*
X138550000Y-109260000D02*
X138550000Y-99020000D01*
X122660000Y-109260000D02*
X122660000Y-99020000D01*
X122660000Y-109260000D02*
X138550000Y-109260000D01*
X122660000Y-99020000D02*
X138550000Y-99020000D01*
X138550000Y-106680000D02*
X141190000Y-106680000D01*
X138550000Y-104140000D02*
X141174000Y-104140000D01*
X138550000Y-101600000D02*
X141174000Y-101600000D01*
X160140000Y-109260000D02*
X160140000Y-99020000D01*
X144250000Y-109260000D02*
X144250000Y-99020000D01*
X144250000Y-109260000D02*
X160140000Y-109260000D01*
X144250000Y-99020000D02*
X160140000Y-99020000D01*
X160140000Y-106680000D02*
X162780000Y-106680000D01*
X160140000Y-104140000D02*
X162764000Y-104140000D01*
X160140000Y-101600000D02*
X162764000Y-101600000D01*
X154350000Y-94750000D02*
X154350000Y-95750000D01*
X152990000Y-95750000D02*
X152990000Y-94750000D01*
X156890000Y-94750000D02*
X156890000Y-95750000D01*
X155530000Y-95750000D02*
X155530000Y-94750000D01*
X145280000Y-80690000D02*
X144280000Y-80690000D01*
X144280000Y-79330000D02*
X145280000Y-79330000D01*
X166960000Y-89400000D02*
X166960000Y-88400000D01*
X168320000Y-88400000D02*
X168320000Y-89400000D01*
X180555000Y-71485000D02*
X180555000Y-75985000D01*
X184555000Y-70235000D02*
X183055000Y-70235000D01*
X187055000Y-75985000D02*
X187055000Y-71485000D01*
X183055000Y-77235000D02*
X184555000Y-77235000D01*
X135380000Y-77780000D02*
X135380000Y-76850000D01*
X135380000Y-74620000D02*
X135380000Y-75550000D01*
X135380000Y-74620000D02*
X132220000Y-74620000D01*
X135380000Y-77780000D02*
X133920000Y-77780000D01*
X140340000Y-85595000D02*
X137450000Y-85595000D01*
X131440000Y-85595000D02*
X134330000Y-85595000D01*
X130680000Y-96015000D02*
X134330000Y-96015000D01*
X141100000Y-96015000D02*
X137450000Y-96015000D01*
X130680000Y-96015000D02*
X130680000Y-86355000D01*
X130680000Y-86355000D02*
X131440000Y-85595000D01*
X140340000Y-85595000D02*
X141100000Y-86355000D01*
X141100000Y-86355000D02*
X141100000Y-96015000D01*
X149260000Y-95600000D02*
X149260000Y-94900000D01*
X150460000Y-94900000D02*
X150460000Y-95600000D01*
D11*
X118999000Y-98044000D02*
X118999000Y-91186000D01*
X118999000Y-91186000D02*
X112141000Y-91186000D01*
X112141000Y-98044000D02*
X112141000Y-91186000D01*
X118999000Y-98044000D02*
X112141000Y-98044000D01*
D12*
X112072420Y-98112580D02*
X112072420Y-91117420D01*
X112072420Y-91117420D02*
X113471960Y-91117420D01*
X113471960Y-91117420D02*
X117668040Y-91117420D01*
X117668040Y-91117420D02*
X119067580Y-91117420D01*
X119067580Y-91117420D02*
X119067580Y-98112580D01*
X119067580Y-98112580D02*
X117668040Y-98112580D01*
X117668040Y-98112580D02*
X113471960Y-98112580D01*
X113471960Y-98112580D02*
X112072420Y-98112580D01*
X113471960Y-98112580D02*
X113471960Y-91117420D01*
X117668040Y-98112580D02*
X117668040Y-91117420D01*
D13*
X116629670Y-96344740D02*
G75*
G03X116629670Y-96344740I-1059670J0D01*
G01*
X116629670Y-92885260D02*
G75*
G03X116629670Y-92885260I-1059670J0D01*
G01*
D11*
X118999000Y-105029000D02*
X118999000Y-98171000D01*
X118999000Y-98171000D02*
X112141000Y-98171000D01*
X112141000Y-105029000D02*
X112141000Y-98171000D01*
X118999000Y-105029000D02*
X112141000Y-105029000D01*
D12*
X112072420Y-105097580D02*
X112072420Y-98102420D01*
X112072420Y-98102420D02*
X113471960Y-98102420D01*
X113471960Y-98102420D02*
X117668040Y-98102420D01*
X117668040Y-98102420D02*
X119067580Y-98102420D01*
X119067580Y-98102420D02*
X119067580Y-105097580D01*
X119067580Y-105097580D02*
X117668040Y-105097580D01*
X117668040Y-105097580D02*
X113471960Y-105097580D01*
X113471960Y-105097580D02*
X112072420Y-105097580D01*
X113471960Y-105097580D02*
X113471960Y-98102420D01*
X117668040Y-105097580D02*
X117668040Y-98102420D01*
D13*
X116629670Y-103329740D02*
G75*
G03X116629670Y-103329740I-1059670J0D01*
G01*
X116629670Y-99870260D02*
G75*
G03X116629670Y-99870260I-1059670J0D01*
G01*
D17*
X111717667Y-147658666D02*
X110828667Y-147658666D01*
X110828667Y-147320000D01*
X110871000Y-147235333D01*
X110913333Y-147193000D01*
X110998000Y-147150666D01*
X111125000Y-147150666D01*
X111209667Y-147193000D01*
X111252000Y-147235333D01*
X111294333Y-147320000D01*
X111294333Y-147658666D01*
X111125000Y-146388666D02*
X111717667Y-146388666D01*
X110786333Y-146600333D02*
X111421333Y-146812000D01*
X111421333Y-146261666D01*
X119972667Y-151405166D02*
X119972667Y-151828499D01*
X119083667Y-151828499D01*
X119507000Y-151108832D02*
X119507000Y-150812499D01*
X119972667Y-150685499D02*
X119972667Y-151108832D01*
X119083667Y-151108832D01*
X119083667Y-150685499D01*
X119972667Y-150304499D02*
X119083667Y-150304499D01*
X119083667Y-150092833D01*
X119126000Y-149965833D01*
X119210667Y-149881166D01*
X119295333Y-149838833D01*
X119464667Y-149796499D01*
X119591667Y-149796499D01*
X119761000Y-149838833D01*
X119845667Y-149881166D01*
X119930333Y-149965833D01*
X119972667Y-150092833D01*
X119972667Y-150304499D01*
X120057333Y-149627166D02*
X120057333Y-148949833D01*
X119888000Y-148230166D02*
X119930333Y-148272500D01*
X119972667Y-148399500D01*
X119972667Y-148484166D01*
X119930333Y-148611166D01*
X119845667Y-148695833D01*
X119761000Y-148738166D01*
X119591667Y-148780500D01*
X119464667Y-148780500D01*
X119295333Y-148738166D01*
X119210667Y-148695833D01*
X119126000Y-148611166D01*
X119083667Y-148484166D01*
X119083667Y-148399500D01*
X119126000Y-148272500D01*
X119168333Y-148230166D01*
X119083667Y-147679833D02*
X119083667Y-147510500D01*
X119126000Y-147425833D01*
X119210667Y-147341166D01*
X119380000Y-147298833D01*
X119676333Y-147298833D01*
X119845667Y-147341166D01*
X119930333Y-147425833D01*
X119972667Y-147510500D01*
X119972667Y-147679833D01*
X119930333Y-147764500D01*
X119845667Y-147849166D01*
X119676333Y-147891500D01*
X119380000Y-147891500D01*
X119210667Y-147849166D01*
X119126000Y-147764500D01*
X119083667Y-147679833D01*
X119972667Y-146917833D02*
X119083667Y-146917833D01*
X119972667Y-146409833D01*
X119083667Y-146409833D01*
X120057333Y-146198167D02*
X120057333Y-145520834D01*
X119930333Y-145351501D02*
X119972667Y-145224501D01*
X119972667Y-145012834D01*
X119930333Y-144928167D01*
X119888000Y-144885834D01*
X119803333Y-144843501D01*
X119718667Y-144843501D01*
X119634000Y-144885834D01*
X119591667Y-144928167D01*
X119549333Y-145012834D01*
X119507000Y-145182167D01*
X119464667Y-145266834D01*
X119422333Y-145309167D01*
X119337667Y-145351501D01*
X119253000Y-145351501D01*
X119168333Y-145309167D01*
X119126000Y-145266834D01*
X119083667Y-145182167D01*
X119083667Y-144970501D01*
X119126000Y-144843501D01*
X119888000Y-143954500D02*
X119930333Y-143996834D01*
X119972667Y-144123834D01*
X119972667Y-144208500D01*
X119930333Y-144335500D01*
X119845667Y-144420167D01*
X119761000Y-144462500D01*
X119591667Y-144504834D01*
X119464667Y-144504834D01*
X119295333Y-144462500D01*
X119210667Y-144420167D01*
X119126000Y-144335500D01*
X119083667Y-144208500D01*
X119083667Y-144123834D01*
X119126000Y-143996834D01*
X119168333Y-143954500D01*
X119972667Y-143065500D02*
X119549333Y-143361834D01*
X119972667Y-143573500D02*
X119083667Y-143573500D01*
X119083667Y-143234834D01*
X119126000Y-143150167D01*
X119168333Y-143107834D01*
X119253000Y-143065500D01*
X119380000Y-143065500D01*
X119464667Y-143107834D01*
X119507000Y-143150167D01*
X119549333Y-143234834D01*
X119549333Y-143573500D01*
X119507000Y-142684500D02*
X119507000Y-142388167D01*
X119972667Y-142261167D02*
X119972667Y-142684500D01*
X119083667Y-142684500D01*
X119083667Y-142261167D01*
X119083667Y-141964834D02*
X119972667Y-141753167D01*
X119337667Y-141583834D01*
X119972667Y-141414501D01*
X119083667Y-141202834D01*
X111717667Y-140673666D02*
X110828667Y-140673666D01*
X110828667Y-140335000D01*
X110871000Y-140250333D01*
X110913333Y-140208000D01*
X110998000Y-140165666D01*
X111125000Y-140165666D01*
X111209667Y-140208000D01*
X111252000Y-140250333D01*
X111294333Y-140335000D01*
X111294333Y-140673666D01*
X110828667Y-139869333D02*
X110828667Y-139319000D01*
X111167333Y-139615333D01*
X111167333Y-139488333D01*
X111209667Y-139403666D01*
X111252000Y-139361333D01*
X111336667Y-139319000D01*
X111548333Y-139319000D01*
X111633000Y-139361333D01*
X111675333Y-139403666D01*
X111717667Y-139488333D01*
X111717667Y-139742333D01*
X111675333Y-139827000D01*
X111633000Y-139869333D01*
X119972667Y-144420166D02*
X119972667Y-144843499D01*
X119083667Y-144843499D01*
X119507000Y-144123832D02*
X119507000Y-143827499D01*
X119972667Y-143700499D02*
X119972667Y-144123832D01*
X119083667Y-144123832D01*
X119083667Y-143700499D01*
X119972667Y-143319499D02*
X119083667Y-143319499D01*
X119083667Y-143107833D01*
X119126000Y-142980833D01*
X119210667Y-142896166D01*
X119295333Y-142853833D01*
X119464667Y-142811499D01*
X119591667Y-142811499D01*
X119761000Y-142853833D01*
X119845667Y-142896166D01*
X119930333Y-142980833D01*
X119972667Y-143107833D01*
X119972667Y-143319499D01*
X120057333Y-142642166D02*
X120057333Y-141964833D01*
X119888000Y-141245166D02*
X119930333Y-141287500D01*
X119972667Y-141414500D01*
X119972667Y-141499166D01*
X119930333Y-141626166D01*
X119845667Y-141710833D01*
X119761000Y-141753166D01*
X119591667Y-141795500D01*
X119464667Y-141795500D01*
X119295333Y-141753166D01*
X119210667Y-141710833D01*
X119126000Y-141626166D01*
X119083667Y-141499166D01*
X119083667Y-141414500D01*
X119126000Y-141287500D01*
X119168333Y-141245166D01*
X119083667Y-140694833D02*
X119083667Y-140525500D01*
X119126000Y-140440833D01*
X119210667Y-140356166D01*
X119380000Y-140313833D01*
X119676333Y-140313833D01*
X119845667Y-140356166D01*
X119930333Y-140440833D01*
X119972667Y-140525500D01*
X119972667Y-140694833D01*
X119930333Y-140779500D01*
X119845667Y-140864166D01*
X119676333Y-140906500D01*
X119380000Y-140906500D01*
X119210667Y-140864166D01*
X119126000Y-140779500D01*
X119083667Y-140694833D01*
X119972667Y-139932833D02*
X119083667Y-139932833D01*
X119972667Y-139424833D01*
X119083667Y-139424833D01*
X120057333Y-139213167D02*
X120057333Y-138535834D01*
X119930333Y-138366501D02*
X119972667Y-138239501D01*
X119972667Y-138027834D01*
X119930333Y-137943167D01*
X119888000Y-137900834D01*
X119803333Y-137858501D01*
X119718667Y-137858501D01*
X119634000Y-137900834D01*
X119591667Y-137943167D01*
X119549333Y-138027834D01*
X119507000Y-138197167D01*
X119464667Y-138281834D01*
X119422333Y-138324167D01*
X119337667Y-138366501D01*
X119253000Y-138366501D01*
X119168333Y-138324167D01*
X119126000Y-138281834D01*
X119083667Y-138197167D01*
X119083667Y-137985501D01*
X119126000Y-137858501D01*
X119888000Y-136969500D02*
X119930333Y-137011834D01*
X119972667Y-137138834D01*
X119972667Y-137223500D01*
X119930333Y-137350500D01*
X119845667Y-137435167D01*
X119761000Y-137477500D01*
X119591667Y-137519834D01*
X119464667Y-137519834D01*
X119295333Y-137477500D01*
X119210667Y-137435167D01*
X119126000Y-137350500D01*
X119083667Y-137223500D01*
X119083667Y-137138834D01*
X119126000Y-137011834D01*
X119168333Y-136969500D01*
X119972667Y-136080500D02*
X119549333Y-136376834D01*
X119972667Y-136588500D02*
X119083667Y-136588500D01*
X119083667Y-136249834D01*
X119126000Y-136165167D01*
X119168333Y-136122834D01*
X119253000Y-136080500D01*
X119380000Y-136080500D01*
X119464667Y-136122834D01*
X119507000Y-136165167D01*
X119549333Y-136249834D01*
X119549333Y-136588500D01*
X119507000Y-135699500D02*
X119507000Y-135403167D01*
X119972667Y-135276167D02*
X119972667Y-135699500D01*
X119083667Y-135699500D01*
X119083667Y-135276167D01*
X119083667Y-134979834D02*
X119972667Y-134768167D01*
X119337667Y-134598834D01*
X119972667Y-134429501D01*
X119083667Y-134217834D01*
D15*
X148717143Y-141136666D02*
X148764762Y-141184285D01*
X148812381Y-141327142D01*
X148812381Y-141422380D01*
X148764762Y-141565238D01*
X148669524Y-141660476D01*
X148574286Y-141708095D01*
X148383810Y-141755714D01*
X148240952Y-141755714D01*
X148050476Y-141708095D01*
X147955238Y-141660476D01*
X147860000Y-141565238D01*
X147812381Y-141422380D01*
X147812381Y-141327142D01*
X147860000Y-141184285D01*
X147907619Y-141136666D01*
X148145714Y-140279523D02*
X148812381Y-140279523D01*
X147764762Y-140517619D02*
X148479048Y-140755714D01*
X148479048Y-140136666D01*
X129897143Y-134151666D02*
X129944762Y-134199285D01*
X129992381Y-134342142D01*
X129992381Y-134437380D01*
X129944762Y-134580238D01*
X129849524Y-134675476D01*
X129754286Y-134723095D01*
X129563810Y-134770714D01*
X129420952Y-134770714D01*
X129230476Y-134723095D01*
X129135238Y-134675476D01*
X129040000Y-134580238D01*
X128992381Y-134437380D01*
X128992381Y-134342142D01*
X129040000Y-134199285D01*
X129087619Y-134151666D01*
X129087619Y-133770714D02*
X129040000Y-133723095D01*
X128992381Y-133627857D01*
X128992381Y-133389761D01*
X129040000Y-133294523D01*
X129087619Y-133246904D01*
X129182857Y-133199285D01*
X129278095Y-133199285D01*
X129420952Y-133246904D01*
X129992381Y-133818333D01*
X129992381Y-133199285D01*
X130991429Y-131125952D02*
X130991429Y-130364047D01*
X131372381Y-130744999D02*
X130610476Y-130744999D01*
X138938095Y-122642381D02*
X138938095Y-123451905D01*
X138985714Y-123547143D01*
X139033333Y-123594762D01*
X139128571Y-123642381D01*
X139319048Y-123642381D01*
X139414286Y-123594762D01*
X139461905Y-123547143D01*
X139509524Y-123451905D01*
X139509524Y-122642381D01*
X140509524Y-123642381D02*
X139938095Y-123642381D01*
X140223809Y-123642381D02*
X140223809Y-122642381D01*
X140128571Y-122785238D01*
X140033333Y-122880476D01*
X139938095Y-122928095D01*
X188459762Y-120788333D02*
X188507381Y-120645476D01*
X188507381Y-120407380D01*
X188459762Y-120312142D01*
X188412143Y-120264523D01*
X188316905Y-120216904D01*
X188221667Y-120216904D01*
X188126429Y-120264523D01*
X188078810Y-120312142D01*
X188031190Y-120407380D01*
X187983571Y-120597857D01*
X187935952Y-120693095D01*
X187888333Y-120740714D01*
X187793095Y-120788333D01*
X187697857Y-120788333D01*
X187602619Y-120740714D01*
X187555000Y-120693095D01*
X187507381Y-120597857D01*
X187507381Y-120359761D01*
X187555000Y-120216904D01*
X187507381Y-119883571D02*
X188507381Y-119645476D01*
X187793095Y-119454999D01*
X188507381Y-119264523D01*
X187507381Y-119026428D01*
X188507381Y-118121666D02*
X188507381Y-118693095D01*
X188507381Y-118407381D02*
X187507381Y-118407381D01*
X187650238Y-118502619D01*
X187745476Y-118597857D01*
X187793095Y-118693095D01*
X169542381Y-134786666D02*
X169066190Y-135120000D01*
X169542381Y-135358095D02*
X168542381Y-135358095D01*
X168542381Y-134977142D01*
X168590000Y-134881904D01*
X168637619Y-134834285D01*
X168732857Y-134786666D01*
X168875714Y-134786666D01*
X168970952Y-134834285D01*
X169018571Y-134881904D01*
X169066190Y-134977142D01*
X169066190Y-135358095D01*
X168542381Y-133881904D02*
X168542381Y-134358095D01*
X169018571Y-134405714D01*
X168970952Y-134358095D01*
X168923333Y-134262857D01*
X168923333Y-134024761D01*
X168970952Y-133929523D01*
X169018571Y-133881904D01*
X169113810Y-133834285D01*
X169351905Y-133834285D01*
X169447143Y-133881904D01*
X169494762Y-133929523D01*
X169542381Y-134024761D01*
X169542381Y-134262857D01*
X169494762Y-134358095D01*
X169447143Y-134405714D01*
X144613334Y-124732381D02*
X144280000Y-124256190D01*
X144041905Y-124732381D02*
X144041905Y-123732381D01*
X144422858Y-123732381D01*
X144518096Y-123780000D01*
X144565715Y-123827619D01*
X144613334Y-123922857D01*
X144613334Y-124065714D01*
X144565715Y-124160952D01*
X144518096Y-124208571D01*
X144422858Y-124256190D01*
X144041905Y-124256190D01*
X145470477Y-124065714D02*
X145470477Y-124732381D01*
X145232381Y-123684762D02*
X144994286Y-124399048D01*
X145613334Y-124399048D01*
X155392381Y-141136666D02*
X154916190Y-141470000D01*
X155392381Y-141708095D02*
X154392381Y-141708095D01*
X154392381Y-141327142D01*
X154440000Y-141231904D01*
X154487619Y-141184285D01*
X154582857Y-141136666D01*
X154725714Y-141136666D01*
X154820952Y-141184285D01*
X154868571Y-141231904D01*
X154916190Y-141327142D01*
X154916190Y-141708095D01*
X154487619Y-140755714D02*
X154440000Y-140708095D01*
X154392381Y-140612857D01*
X154392381Y-140374761D01*
X154440000Y-140279523D01*
X154487619Y-140231904D01*
X154582857Y-140184285D01*
X154678095Y-140184285D01*
X154820952Y-140231904D01*
X155392381Y-140803333D01*
X155392381Y-140184285D01*
X152672381Y-141136666D02*
X152196190Y-141470000D01*
X152672381Y-141708095D02*
X151672381Y-141708095D01*
X151672381Y-141327142D01*
X151720000Y-141231904D01*
X151767619Y-141184285D01*
X151862857Y-141136666D01*
X152005714Y-141136666D01*
X152100952Y-141184285D01*
X152148571Y-141231904D01*
X152196190Y-141327142D01*
X152196190Y-141708095D01*
X152672381Y-140184285D02*
X152672381Y-140755714D01*
X152672381Y-140470000D02*
X151672381Y-140470000D01*
X151815238Y-140565238D01*
X151910476Y-140660476D01*
X151958095Y-140755714D01*
X143797619Y-149955238D02*
X143750000Y-150050476D01*
X143654762Y-150145714D01*
X143511905Y-150288571D01*
X143464286Y-150383810D01*
X143464286Y-150479048D01*
X143702381Y-150431429D02*
X143654762Y-150526667D01*
X143559524Y-150621905D01*
X143369048Y-150669524D01*
X143035714Y-150669524D01*
X142845238Y-150621905D01*
X142750000Y-150526667D01*
X142702381Y-150431429D01*
X142702381Y-150240952D01*
X142750000Y-150145714D01*
X142845238Y-150050476D01*
X143035714Y-150002857D01*
X143369048Y-150002857D01*
X143559524Y-150050476D01*
X143654762Y-150145714D01*
X143702381Y-150240952D01*
X143702381Y-150431429D01*
X142797619Y-149621905D02*
X142750000Y-149574286D01*
X142702381Y-149479048D01*
X142702381Y-149240952D01*
X142750000Y-149145714D01*
X142797619Y-149098095D01*
X142892857Y-149050476D01*
X142988095Y-149050476D01*
X143130952Y-149098095D01*
X143702381Y-149669524D01*
X143702381Y-149050476D01*
X122207619Y-149955238D02*
X122160000Y-150050476D01*
X122064762Y-150145714D01*
X121921905Y-150288571D01*
X121874286Y-150383810D01*
X121874286Y-150479048D01*
X122112381Y-150431429D02*
X122064762Y-150526667D01*
X121969524Y-150621905D01*
X121779048Y-150669524D01*
X121445714Y-150669524D01*
X121255238Y-150621905D01*
X121160000Y-150526667D01*
X121112381Y-150431429D01*
X121112381Y-150240952D01*
X121160000Y-150145714D01*
X121255238Y-150050476D01*
X121445714Y-150002857D01*
X121779048Y-150002857D01*
X121969524Y-150050476D01*
X122064762Y-150145714D01*
X122112381Y-150240952D01*
X122112381Y-150431429D01*
X122112381Y-149050476D02*
X122112381Y-149621905D01*
X122112381Y-149336191D02*
X121112381Y-149336191D01*
X121255238Y-149431429D01*
X121350476Y-149526667D01*
X121398095Y-149621905D01*
X113561905Y-137402381D02*
X113561905Y-136402381D01*
X113942858Y-136402381D01*
X114038096Y-136450000D01*
X114085715Y-136497619D01*
X114133334Y-136592857D01*
X114133334Y-136735714D01*
X114085715Y-136830952D01*
X114038096Y-136878571D01*
X113942858Y-136926190D01*
X113561905Y-136926190D01*
X114514286Y-136497619D02*
X114561905Y-136450000D01*
X114657143Y-136402381D01*
X114895239Y-136402381D01*
X114990477Y-136450000D01*
X115038096Y-136497619D01*
X115085715Y-136592857D01*
X115085715Y-136688095D01*
X115038096Y-136830952D01*
X114466667Y-137402381D01*
X115085715Y-137402381D01*
X173886905Y-114962381D02*
X173886905Y-113962381D01*
X174267858Y-113962381D01*
X174363096Y-114010000D01*
X174410715Y-114057619D01*
X174458334Y-114152857D01*
X174458334Y-114295714D01*
X174410715Y-114390952D01*
X174363096Y-114438571D01*
X174267858Y-114486190D01*
X173886905Y-114486190D01*
X175410715Y-114962381D02*
X174839286Y-114962381D01*
X175125000Y-114962381D02*
X175125000Y-113962381D01*
X175029762Y-114105238D01*
X174934524Y-114200476D01*
X174839286Y-114248095D01*
X127992143Y-125674285D02*
X128039762Y-125721904D01*
X128087381Y-125864761D01*
X128087381Y-125959999D01*
X128039762Y-126102857D01*
X127944524Y-126198095D01*
X127849286Y-126245714D01*
X127658810Y-126293333D01*
X127515952Y-126293333D01*
X127325476Y-126245714D01*
X127230238Y-126198095D01*
X127135000Y-126102857D01*
X127087381Y-125959999D01*
X127087381Y-125864761D01*
X127135000Y-125721904D01*
X127182619Y-125674285D01*
X127087381Y-125055238D02*
X127087381Y-124864761D01*
X127135000Y-124769523D01*
X127230238Y-124674285D01*
X127420714Y-124626666D01*
X127754048Y-124626666D01*
X127944524Y-124674285D01*
X128039762Y-124769523D01*
X128087381Y-124864761D01*
X128087381Y-125055238D01*
X128039762Y-125150476D01*
X127944524Y-125245714D01*
X127754048Y-125293333D01*
X127420714Y-125293333D01*
X127230238Y-125245714D01*
X127135000Y-125150476D01*
X127087381Y-125055238D01*
X128087381Y-124198095D02*
X127087381Y-124198095D01*
X128087381Y-123626666D01*
X127087381Y-123626666D01*
X128087381Y-122626666D02*
X128087381Y-123198095D01*
X128087381Y-122912381D02*
X127087381Y-122912381D01*
X127230238Y-123007619D01*
X127325476Y-123102857D01*
X127373095Y-123198095D01*
X139533334Y-126087143D02*
X139485715Y-126134762D01*
X139342858Y-126182381D01*
X139247620Y-126182381D01*
X139104762Y-126134762D01*
X139009524Y-126039524D01*
X138961905Y-125944286D01*
X138914286Y-125753810D01*
X138914286Y-125610952D01*
X138961905Y-125420476D01*
X139009524Y-125325238D01*
X139104762Y-125230000D01*
X139247620Y-125182381D01*
X139342858Y-125182381D01*
X139485715Y-125230000D01*
X139533334Y-125277619D01*
X139866667Y-125182381D02*
X140485715Y-125182381D01*
X140152381Y-125563333D01*
X140295239Y-125563333D01*
X140390477Y-125610952D01*
X140438096Y-125658571D01*
X140485715Y-125753810D01*
X140485715Y-125991905D01*
X140438096Y-126087143D01*
X140390477Y-126134762D01*
X140295239Y-126182381D01*
X140009524Y-126182381D01*
X139914286Y-126134762D01*
X139866667Y-126087143D01*
X134453334Y-117197143D02*
X134405715Y-117244762D01*
X134262858Y-117292381D01*
X134167620Y-117292381D01*
X134024762Y-117244762D01*
X133929524Y-117149524D01*
X133881905Y-117054286D01*
X133834286Y-116863810D01*
X133834286Y-116720952D01*
X133881905Y-116530476D01*
X133929524Y-116435238D01*
X134024762Y-116340000D01*
X134167620Y-116292381D01*
X134262858Y-116292381D01*
X134405715Y-116340000D01*
X134453334Y-116387619D01*
X135405715Y-117292381D02*
X134834286Y-117292381D01*
X135120000Y-117292381D02*
X135120000Y-116292381D01*
X135024762Y-116435238D01*
X134929524Y-116530476D01*
X134834286Y-116578095D01*
X166657619Y-149955238D02*
X166610000Y-150050476D01*
X166514762Y-150145714D01*
X166371905Y-150288571D01*
X166324286Y-150383810D01*
X166324286Y-150479048D01*
X166562381Y-150431429D02*
X166514762Y-150526667D01*
X166419524Y-150621905D01*
X166229048Y-150669524D01*
X165895714Y-150669524D01*
X165705238Y-150621905D01*
X165610000Y-150526667D01*
X165562381Y-150431429D01*
X165562381Y-150240952D01*
X165610000Y-150145714D01*
X165705238Y-150050476D01*
X165895714Y-150002857D01*
X166229048Y-150002857D01*
X166419524Y-150050476D01*
X166514762Y-150145714D01*
X166562381Y-150240952D01*
X166562381Y-150431429D01*
X165562381Y-149669524D02*
X165562381Y-149050476D01*
X165943333Y-149383810D01*
X165943333Y-149240952D01*
X165990952Y-149145714D01*
X166038571Y-149098095D01*
X166133810Y-149050476D01*
X166371905Y-149050476D01*
X166467143Y-149098095D01*
X166514762Y-149145714D01*
X166562381Y-149240952D01*
X166562381Y-149526667D01*
X166514762Y-149621905D01*
X166467143Y-149669524D01*
X157752381Y-141136666D02*
X157276190Y-141470000D01*
X157752381Y-141708095D02*
X156752381Y-141708095D01*
X156752381Y-141327142D01*
X156800000Y-141231904D01*
X156847619Y-141184285D01*
X156942857Y-141136666D01*
X157085714Y-141136666D01*
X157180952Y-141184285D01*
X157228571Y-141231904D01*
X157276190Y-141327142D01*
X157276190Y-141708095D01*
X156752381Y-140803333D02*
X156752381Y-140184285D01*
X157133333Y-140517619D01*
X157133333Y-140374761D01*
X157180952Y-140279523D01*
X157228571Y-140231904D01*
X157323810Y-140184285D01*
X157561905Y-140184285D01*
X157657143Y-140231904D01*
X157704762Y-140279523D01*
X157752381Y-140374761D01*
X157752381Y-140660476D01*
X157704762Y-140755714D01*
X157657143Y-140803333D01*
X145598095Y-119872381D02*
X145598095Y-120681905D01*
X145645714Y-120777143D01*
X145693333Y-120824762D01*
X145788571Y-120872381D01*
X145979048Y-120872381D01*
X146074286Y-120824762D01*
X146121905Y-120777143D01*
X146169524Y-120681905D01*
X146169524Y-119872381D01*
X146598095Y-119967619D02*
X146645714Y-119920000D01*
X146740952Y-119872381D01*
X146979048Y-119872381D01*
X147074286Y-119920000D01*
X147121905Y-119967619D01*
X147169524Y-120062857D01*
X147169524Y-120158095D01*
X147121905Y-120300952D01*
X146550476Y-120872381D01*
X147169524Y-120872381D01*
X153037714Y-116972381D02*
X153037714Y-115972381D01*
X153609143Y-116972381D01*
X153609143Y-115972381D01*
X154228190Y-116972381D02*
X154132952Y-116924762D01*
X154085333Y-116877143D01*
X154037714Y-116781905D01*
X154037714Y-116496190D01*
X154085333Y-116400952D01*
X154132952Y-116353333D01*
X154228190Y-116305714D01*
X154371048Y-116305714D01*
X154466286Y-116353333D01*
X154513905Y-116400952D01*
X154561524Y-116496190D01*
X154561524Y-116781905D01*
X154513905Y-116877143D01*
X154466286Y-116924762D01*
X154371048Y-116972381D01*
X154228190Y-116972381D01*
X156323429Y-116877143D02*
X156275810Y-116924762D01*
X156132953Y-116972381D01*
X156037715Y-116972381D01*
X155894857Y-116924762D01*
X155799619Y-116829524D01*
X155752000Y-116734286D01*
X155704381Y-116543810D01*
X155704381Y-116400952D01*
X155752000Y-116210476D01*
X155799619Y-116115238D01*
X155894857Y-116020000D01*
X156037715Y-115972381D01*
X156132953Y-115972381D01*
X156275810Y-116020000D01*
X156323429Y-116067619D01*
X156894857Y-116972381D02*
X156799619Y-116924762D01*
X156752000Y-116877143D01*
X156704381Y-116781905D01*
X156704381Y-116496190D01*
X156752000Y-116400952D01*
X156799619Y-116353333D01*
X156894857Y-116305714D01*
X157037715Y-116305714D01*
X157132953Y-116353333D01*
X157180572Y-116400952D01*
X157228191Y-116496190D01*
X157228191Y-116781905D01*
X157180572Y-116877143D01*
X157132953Y-116924762D01*
X157037715Y-116972381D01*
X156894857Y-116972381D01*
X157656762Y-116305714D02*
X157656762Y-117305714D01*
X157656762Y-116353333D02*
X157752000Y-116305714D01*
X157942477Y-116305714D01*
X158037715Y-116353333D01*
X158085334Y-116400952D01*
X158132953Y-116496190D01*
X158132953Y-116781905D01*
X158085334Y-116877143D01*
X158037715Y-116924762D01*
X157942477Y-116972381D01*
X157752000Y-116972381D01*
X157656762Y-116924762D01*
X158561524Y-116305714D02*
X158561524Y-117305714D01*
X158561524Y-116353333D02*
X158656762Y-116305714D01*
X158847239Y-116305714D01*
X158942477Y-116353333D01*
X158990096Y-116400952D01*
X159037715Y-116496190D01*
X159037715Y-116781905D01*
X158990096Y-116877143D01*
X158942477Y-116924762D01*
X158847239Y-116972381D01*
X158656762Y-116972381D01*
X158561524Y-116924762D01*
X159847239Y-116924762D02*
X159752001Y-116972381D01*
X159561524Y-116972381D01*
X159466286Y-116924762D01*
X159418667Y-116829524D01*
X159418667Y-116448571D01*
X159466286Y-116353333D01*
X159561524Y-116305714D01*
X159752001Y-116305714D01*
X159847239Y-116353333D01*
X159894858Y-116448571D01*
X159894858Y-116543810D01*
X159418667Y-116639048D01*
X160323429Y-116972381D02*
X160323429Y-116305714D01*
X160323429Y-116496190D02*
X160371048Y-116400952D01*
X160418667Y-116353333D01*
X160513905Y-116305714D01*
X160609144Y-116305714D01*
X145598095Y-74152381D02*
X145598095Y-74961905D01*
X145645714Y-75057143D01*
X145693333Y-75104762D01*
X145788571Y-75152381D01*
X145979048Y-75152381D01*
X146074286Y-75104762D01*
X146121905Y-75057143D01*
X146169524Y-74961905D01*
X146169524Y-74152381D01*
X146598095Y-74247619D02*
X146645714Y-74200000D01*
X146740952Y-74152381D01*
X146979048Y-74152381D01*
X147074286Y-74200000D01*
X147121905Y-74247619D01*
X147169524Y-74342857D01*
X147169524Y-74438095D01*
X147121905Y-74580952D01*
X146550476Y-75152381D01*
X147169524Y-75152381D01*
X153037714Y-71252381D02*
X153037714Y-70252381D01*
X153609143Y-71252381D01*
X153609143Y-70252381D01*
X154228190Y-71252381D02*
X154132952Y-71204762D01*
X154085333Y-71157143D01*
X154037714Y-71061905D01*
X154037714Y-70776190D01*
X154085333Y-70680952D01*
X154132952Y-70633333D01*
X154228190Y-70585714D01*
X154371048Y-70585714D01*
X154466286Y-70633333D01*
X154513905Y-70680952D01*
X154561524Y-70776190D01*
X154561524Y-71061905D01*
X154513905Y-71157143D01*
X154466286Y-71204762D01*
X154371048Y-71252381D01*
X154228190Y-71252381D01*
X156323429Y-71157143D02*
X156275810Y-71204762D01*
X156132953Y-71252381D01*
X156037715Y-71252381D01*
X155894857Y-71204762D01*
X155799619Y-71109524D01*
X155752000Y-71014286D01*
X155704381Y-70823810D01*
X155704381Y-70680952D01*
X155752000Y-70490476D01*
X155799619Y-70395238D01*
X155894857Y-70300000D01*
X156037715Y-70252381D01*
X156132953Y-70252381D01*
X156275810Y-70300000D01*
X156323429Y-70347619D01*
X156894857Y-71252381D02*
X156799619Y-71204762D01*
X156752000Y-71157143D01*
X156704381Y-71061905D01*
X156704381Y-70776190D01*
X156752000Y-70680952D01*
X156799619Y-70633333D01*
X156894857Y-70585714D01*
X157037715Y-70585714D01*
X157132953Y-70633333D01*
X157180572Y-70680952D01*
X157228191Y-70776190D01*
X157228191Y-71061905D01*
X157180572Y-71157143D01*
X157132953Y-71204762D01*
X157037715Y-71252381D01*
X156894857Y-71252381D01*
X157656762Y-70585714D02*
X157656762Y-71585714D01*
X157656762Y-70633333D02*
X157752000Y-70585714D01*
X157942477Y-70585714D01*
X158037715Y-70633333D01*
X158085334Y-70680952D01*
X158132953Y-70776190D01*
X158132953Y-71061905D01*
X158085334Y-71157143D01*
X158037715Y-71204762D01*
X157942477Y-71252381D01*
X157752000Y-71252381D01*
X157656762Y-71204762D01*
X158561524Y-70585714D02*
X158561524Y-71585714D01*
X158561524Y-70633333D02*
X158656762Y-70585714D01*
X158847239Y-70585714D01*
X158942477Y-70633333D01*
X158990096Y-70680952D01*
X159037715Y-70776190D01*
X159037715Y-71061905D01*
X158990096Y-71157143D01*
X158942477Y-71204762D01*
X158847239Y-71252381D01*
X158656762Y-71252381D01*
X158561524Y-71204762D01*
X159847239Y-71204762D02*
X159752001Y-71252381D01*
X159561524Y-71252381D01*
X159466286Y-71204762D01*
X159418667Y-71109524D01*
X159418667Y-70728571D01*
X159466286Y-70633333D01*
X159561524Y-70585714D01*
X159752001Y-70585714D01*
X159847239Y-70633333D01*
X159894858Y-70728571D01*
X159894858Y-70823810D01*
X159418667Y-70919048D01*
X160323429Y-71252381D02*
X160323429Y-70585714D01*
X160323429Y-70776190D02*
X160371048Y-70680952D01*
X160418667Y-70633333D01*
X160513905Y-70585714D01*
X160609144Y-70585714D01*
X157752381Y-95416666D02*
X157276190Y-95750000D01*
X157752381Y-95988095D02*
X156752381Y-95988095D01*
X156752381Y-95607142D01*
X156800000Y-95511904D01*
X156847619Y-95464285D01*
X156942857Y-95416666D01*
X157085714Y-95416666D01*
X157180952Y-95464285D01*
X157228571Y-95511904D01*
X157276190Y-95607142D01*
X157276190Y-95988095D01*
X156752381Y-95083333D02*
X156752381Y-94464285D01*
X157133333Y-94797619D01*
X157133333Y-94654761D01*
X157180952Y-94559523D01*
X157228571Y-94511904D01*
X157323810Y-94464285D01*
X157561905Y-94464285D01*
X157657143Y-94511904D01*
X157704762Y-94559523D01*
X157752381Y-94654761D01*
X157752381Y-94940476D01*
X157704762Y-95035714D01*
X157657143Y-95083333D01*
X166657619Y-104235238D02*
X166610000Y-104330476D01*
X166514762Y-104425714D01*
X166371905Y-104568571D01*
X166324286Y-104663810D01*
X166324286Y-104759048D01*
X166562381Y-104711429D02*
X166514762Y-104806667D01*
X166419524Y-104901905D01*
X166229048Y-104949524D01*
X165895714Y-104949524D01*
X165705238Y-104901905D01*
X165610000Y-104806667D01*
X165562381Y-104711429D01*
X165562381Y-104520952D01*
X165610000Y-104425714D01*
X165705238Y-104330476D01*
X165895714Y-104282857D01*
X166229048Y-104282857D01*
X166419524Y-104330476D01*
X166514762Y-104425714D01*
X166562381Y-104520952D01*
X166562381Y-104711429D01*
X165562381Y-103949524D02*
X165562381Y-103330476D01*
X165943333Y-103663810D01*
X165943333Y-103520952D01*
X165990952Y-103425714D01*
X166038571Y-103378095D01*
X166133810Y-103330476D01*
X166371905Y-103330476D01*
X166467143Y-103378095D01*
X166514762Y-103425714D01*
X166562381Y-103520952D01*
X166562381Y-103806667D01*
X166514762Y-103901905D01*
X166467143Y-103949524D01*
X134453334Y-71477143D02*
X134405715Y-71524762D01*
X134262858Y-71572381D01*
X134167620Y-71572381D01*
X134024762Y-71524762D01*
X133929524Y-71429524D01*
X133881905Y-71334286D01*
X133834286Y-71143810D01*
X133834286Y-71000952D01*
X133881905Y-70810476D01*
X133929524Y-70715238D01*
X134024762Y-70620000D01*
X134167620Y-70572381D01*
X134262858Y-70572381D01*
X134405715Y-70620000D01*
X134453334Y-70667619D01*
X135405715Y-71572381D02*
X134834286Y-71572381D01*
X135120000Y-71572381D02*
X135120000Y-70572381D01*
X135024762Y-70715238D01*
X134929524Y-70810476D01*
X134834286Y-70858095D01*
X139533334Y-80367143D02*
X139485715Y-80414762D01*
X139342858Y-80462381D01*
X139247620Y-80462381D01*
X139104762Y-80414762D01*
X139009524Y-80319524D01*
X138961905Y-80224286D01*
X138914286Y-80033810D01*
X138914286Y-79890952D01*
X138961905Y-79700476D01*
X139009524Y-79605238D01*
X139104762Y-79510000D01*
X139247620Y-79462381D01*
X139342858Y-79462381D01*
X139485715Y-79510000D01*
X139533334Y-79557619D01*
X139866667Y-79462381D02*
X140485715Y-79462381D01*
X140152381Y-79843333D01*
X140295239Y-79843333D01*
X140390477Y-79890952D01*
X140438096Y-79938571D01*
X140485715Y-80033810D01*
X140485715Y-80271905D01*
X140438096Y-80367143D01*
X140390477Y-80414762D01*
X140295239Y-80462381D01*
X140009524Y-80462381D01*
X139914286Y-80414762D01*
X139866667Y-80367143D01*
X127992143Y-79954285D02*
X128039762Y-80001904D01*
X128087381Y-80144761D01*
X128087381Y-80239999D01*
X128039762Y-80382857D01*
X127944524Y-80478095D01*
X127849286Y-80525714D01*
X127658810Y-80573333D01*
X127515952Y-80573333D01*
X127325476Y-80525714D01*
X127230238Y-80478095D01*
X127135000Y-80382857D01*
X127087381Y-80239999D01*
X127087381Y-80144761D01*
X127135000Y-80001904D01*
X127182619Y-79954285D01*
X127087381Y-79335238D02*
X127087381Y-79144761D01*
X127135000Y-79049523D01*
X127230238Y-78954285D01*
X127420714Y-78906666D01*
X127754048Y-78906666D01*
X127944524Y-78954285D01*
X128039762Y-79049523D01*
X128087381Y-79144761D01*
X128087381Y-79335238D01*
X128039762Y-79430476D01*
X127944524Y-79525714D01*
X127754048Y-79573333D01*
X127420714Y-79573333D01*
X127230238Y-79525714D01*
X127135000Y-79430476D01*
X127087381Y-79335238D01*
X128087381Y-78478095D02*
X127087381Y-78478095D01*
X128087381Y-77906666D01*
X127087381Y-77906666D01*
X128087381Y-76906666D02*
X128087381Y-77478095D01*
X128087381Y-77192381D02*
X127087381Y-77192381D01*
X127230238Y-77287619D01*
X127325476Y-77382857D01*
X127373095Y-77478095D01*
X173886905Y-69242381D02*
X173886905Y-68242381D01*
X174267858Y-68242381D01*
X174363096Y-68290000D01*
X174410715Y-68337619D01*
X174458334Y-68432857D01*
X174458334Y-68575714D01*
X174410715Y-68670952D01*
X174363096Y-68718571D01*
X174267858Y-68766190D01*
X173886905Y-68766190D01*
X175410715Y-69242381D02*
X174839286Y-69242381D01*
X175125000Y-69242381D02*
X175125000Y-68242381D01*
X175029762Y-68385238D01*
X174934524Y-68480476D01*
X174839286Y-68528095D01*
X113561905Y-91682381D02*
X113561905Y-90682381D01*
X113942858Y-90682381D01*
X114038096Y-90730000D01*
X114085715Y-90777619D01*
X114133334Y-90872857D01*
X114133334Y-91015714D01*
X114085715Y-91110952D01*
X114038096Y-91158571D01*
X113942858Y-91206190D01*
X113561905Y-91206190D01*
X114514286Y-90777619D02*
X114561905Y-90730000D01*
X114657143Y-90682381D01*
X114895239Y-90682381D01*
X114990477Y-90730000D01*
X115038096Y-90777619D01*
X115085715Y-90872857D01*
X115085715Y-90968095D01*
X115038096Y-91110952D01*
X114466667Y-91682381D01*
X115085715Y-91682381D01*
X122207619Y-104235238D02*
X122160000Y-104330476D01*
X122064762Y-104425714D01*
X121921905Y-104568571D01*
X121874286Y-104663810D01*
X121874286Y-104759048D01*
X122112381Y-104711429D02*
X122064762Y-104806667D01*
X121969524Y-104901905D01*
X121779048Y-104949524D01*
X121445714Y-104949524D01*
X121255238Y-104901905D01*
X121160000Y-104806667D01*
X121112381Y-104711429D01*
X121112381Y-104520952D01*
X121160000Y-104425714D01*
X121255238Y-104330476D01*
X121445714Y-104282857D01*
X121779048Y-104282857D01*
X121969524Y-104330476D01*
X122064762Y-104425714D01*
X122112381Y-104520952D01*
X122112381Y-104711429D01*
X122112381Y-103330476D02*
X122112381Y-103901905D01*
X122112381Y-103616191D02*
X121112381Y-103616191D01*
X121255238Y-103711429D01*
X121350476Y-103806667D01*
X121398095Y-103901905D01*
X143797619Y-104235238D02*
X143750000Y-104330476D01*
X143654762Y-104425714D01*
X143511905Y-104568571D01*
X143464286Y-104663810D01*
X143464286Y-104759048D01*
X143702381Y-104711429D02*
X143654762Y-104806667D01*
X143559524Y-104901905D01*
X143369048Y-104949524D01*
X143035714Y-104949524D01*
X142845238Y-104901905D01*
X142750000Y-104806667D01*
X142702381Y-104711429D01*
X142702381Y-104520952D01*
X142750000Y-104425714D01*
X142845238Y-104330476D01*
X143035714Y-104282857D01*
X143369048Y-104282857D01*
X143559524Y-104330476D01*
X143654762Y-104425714D01*
X143702381Y-104520952D01*
X143702381Y-104711429D01*
X142797619Y-103901905D02*
X142750000Y-103854286D01*
X142702381Y-103759048D01*
X142702381Y-103520952D01*
X142750000Y-103425714D01*
X142797619Y-103378095D01*
X142892857Y-103330476D01*
X142988095Y-103330476D01*
X143130952Y-103378095D01*
X143702381Y-103949524D01*
X143702381Y-103330476D01*
X152672381Y-95416666D02*
X152196190Y-95750000D01*
X152672381Y-95988095D02*
X151672381Y-95988095D01*
X151672381Y-95607142D01*
X151720000Y-95511904D01*
X151767619Y-95464285D01*
X151862857Y-95416666D01*
X152005714Y-95416666D01*
X152100952Y-95464285D01*
X152148571Y-95511904D01*
X152196190Y-95607142D01*
X152196190Y-95988095D01*
X152672381Y-94464285D02*
X152672381Y-95035714D01*
X152672381Y-94750000D02*
X151672381Y-94750000D01*
X151815238Y-94845238D01*
X151910476Y-94940476D01*
X151958095Y-95035714D01*
X155392381Y-95416666D02*
X154916190Y-95750000D01*
X155392381Y-95988095D02*
X154392381Y-95988095D01*
X154392381Y-95607142D01*
X154440000Y-95511904D01*
X154487619Y-95464285D01*
X154582857Y-95416666D01*
X154725714Y-95416666D01*
X154820952Y-95464285D01*
X154868571Y-95511904D01*
X154916190Y-95607142D01*
X154916190Y-95988095D01*
X154487619Y-95035714D02*
X154440000Y-94988095D01*
X154392381Y-94892857D01*
X154392381Y-94654761D01*
X154440000Y-94559523D01*
X154487619Y-94511904D01*
X154582857Y-94464285D01*
X154678095Y-94464285D01*
X154820952Y-94511904D01*
X155392381Y-95083333D01*
X155392381Y-94464285D01*
X144613334Y-79012381D02*
X144280000Y-78536190D01*
X144041905Y-79012381D02*
X144041905Y-78012381D01*
X144422858Y-78012381D01*
X144518096Y-78060000D01*
X144565715Y-78107619D01*
X144613334Y-78202857D01*
X144613334Y-78345714D01*
X144565715Y-78440952D01*
X144518096Y-78488571D01*
X144422858Y-78536190D01*
X144041905Y-78536190D01*
X145470477Y-78345714D02*
X145470477Y-79012381D01*
X145232381Y-77964762D02*
X144994286Y-78679048D01*
X145613334Y-78679048D01*
X169542381Y-89066666D02*
X169066190Y-89400000D01*
X169542381Y-89638095D02*
X168542381Y-89638095D01*
X168542381Y-89257142D01*
X168590000Y-89161904D01*
X168637619Y-89114285D01*
X168732857Y-89066666D01*
X168875714Y-89066666D01*
X168970952Y-89114285D01*
X169018571Y-89161904D01*
X169066190Y-89257142D01*
X169066190Y-89638095D01*
X168542381Y-88161904D02*
X168542381Y-88638095D01*
X169018571Y-88685714D01*
X168970952Y-88638095D01*
X168923333Y-88542857D01*
X168923333Y-88304761D01*
X168970952Y-88209523D01*
X169018571Y-88161904D01*
X169113810Y-88114285D01*
X169351905Y-88114285D01*
X169447143Y-88161904D01*
X169494762Y-88209523D01*
X169542381Y-88304761D01*
X169542381Y-88542857D01*
X169494762Y-88638095D01*
X169447143Y-88685714D01*
X188459762Y-75068333D02*
X188507381Y-74925476D01*
X188507381Y-74687380D01*
X188459762Y-74592142D01*
X188412143Y-74544523D01*
X188316905Y-74496904D01*
X188221667Y-74496904D01*
X188126429Y-74544523D01*
X188078810Y-74592142D01*
X188031190Y-74687380D01*
X187983571Y-74877857D01*
X187935952Y-74973095D01*
X187888333Y-75020714D01*
X187793095Y-75068333D01*
X187697857Y-75068333D01*
X187602619Y-75020714D01*
X187555000Y-74973095D01*
X187507381Y-74877857D01*
X187507381Y-74639761D01*
X187555000Y-74496904D01*
X187507381Y-74163571D02*
X188507381Y-73925476D01*
X187793095Y-73734999D01*
X188507381Y-73544523D01*
X187507381Y-73306428D01*
X188507381Y-72401666D02*
X188507381Y-72973095D01*
X188507381Y-72687381D02*
X187507381Y-72687381D01*
X187650238Y-72782619D01*
X187745476Y-72877857D01*
X187793095Y-72973095D01*
X138938095Y-76922381D02*
X138938095Y-77731905D01*
X138985714Y-77827143D01*
X139033333Y-77874762D01*
X139128571Y-77922381D01*
X139319048Y-77922381D01*
X139414286Y-77874762D01*
X139461905Y-77827143D01*
X139509524Y-77731905D01*
X139509524Y-76922381D01*
X140509524Y-77922381D02*
X139938095Y-77922381D01*
X140223809Y-77922381D02*
X140223809Y-76922381D01*
X140128571Y-77065238D01*
X140033333Y-77160476D01*
X139938095Y-77208095D01*
X129897143Y-88431666D02*
X129944762Y-88479285D01*
X129992381Y-88622142D01*
X129992381Y-88717380D01*
X129944762Y-88860238D01*
X129849524Y-88955476D01*
X129754286Y-89003095D01*
X129563810Y-89050714D01*
X129420952Y-89050714D01*
X129230476Y-89003095D01*
X129135238Y-88955476D01*
X129040000Y-88860238D01*
X128992381Y-88717380D01*
X128992381Y-88622142D01*
X129040000Y-88479285D01*
X129087619Y-88431666D01*
X129087619Y-88050714D02*
X129040000Y-88003095D01*
X128992381Y-87907857D01*
X128992381Y-87669761D01*
X129040000Y-87574523D01*
X129087619Y-87526904D01*
X129182857Y-87479285D01*
X129278095Y-87479285D01*
X129420952Y-87526904D01*
X129992381Y-88098333D01*
X129992381Y-87479285D01*
X130991429Y-85405952D02*
X130991429Y-84644047D01*
X131372381Y-85024999D02*
X130610476Y-85024999D01*
X148717143Y-95416666D02*
X148764762Y-95464285D01*
X148812381Y-95607142D01*
X148812381Y-95702380D01*
X148764762Y-95845238D01*
X148669524Y-95940476D01*
X148574286Y-95988095D01*
X148383810Y-96035714D01*
X148240952Y-96035714D01*
X148050476Y-95988095D01*
X147955238Y-95940476D01*
X147860000Y-95845238D01*
X147812381Y-95702380D01*
X147812381Y-95607142D01*
X147860000Y-95464285D01*
X147907619Y-95416666D01*
X148145714Y-94559523D02*
X148812381Y-94559523D01*
X147764762Y-94797619D02*
X148479048Y-95035714D01*
X148479048Y-94416666D01*
D17*
X111717667Y-94953666D02*
X110828667Y-94953666D01*
X110828667Y-94615000D01*
X110871000Y-94530333D01*
X110913333Y-94488000D01*
X110998000Y-94445666D01*
X111125000Y-94445666D01*
X111209667Y-94488000D01*
X111252000Y-94530333D01*
X111294333Y-94615000D01*
X111294333Y-94953666D01*
X110828667Y-94149333D02*
X110828667Y-93599000D01*
X111167333Y-93895333D01*
X111167333Y-93768333D01*
X111209667Y-93683666D01*
X111252000Y-93641333D01*
X111336667Y-93599000D01*
X111548333Y-93599000D01*
X111633000Y-93641333D01*
X111675333Y-93683666D01*
X111717667Y-93768333D01*
X111717667Y-94022333D01*
X111675333Y-94107000D01*
X111633000Y-94149333D01*
X119972667Y-98700166D02*
X119972667Y-99123499D01*
X119083667Y-99123499D01*
X119507000Y-98403832D02*
X119507000Y-98107499D01*
X119972667Y-97980499D02*
X119972667Y-98403832D01*
X119083667Y-98403832D01*
X119083667Y-97980499D01*
X119972667Y-97599499D02*
X119083667Y-97599499D01*
X119083667Y-97387833D01*
X119126000Y-97260833D01*
X119210667Y-97176166D01*
X119295333Y-97133833D01*
X119464667Y-97091499D01*
X119591667Y-97091499D01*
X119761000Y-97133833D01*
X119845667Y-97176166D01*
X119930333Y-97260833D01*
X119972667Y-97387833D01*
X119972667Y-97599499D01*
X120057333Y-96922166D02*
X120057333Y-96244833D01*
X119888000Y-95525166D02*
X119930333Y-95567500D01*
X119972667Y-95694500D01*
X119972667Y-95779166D01*
X119930333Y-95906166D01*
X119845667Y-95990833D01*
X119761000Y-96033166D01*
X119591667Y-96075500D01*
X119464667Y-96075500D01*
X119295333Y-96033166D01*
X119210667Y-95990833D01*
X119126000Y-95906166D01*
X119083667Y-95779166D01*
X119083667Y-95694500D01*
X119126000Y-95567500D01*
X119168333Y-95525166D01*
X119083667Y-94974833D02*
X119083667Y-94805500D01*
X119126000Y-94720833D01*
X119210667Y-94636166D01*
X119380000Y-94593833D01*
X119676333Y-94593833D01*
X119845667Y-94636166D01*
X119930333Y-94720833D01*
X119972667Y-94805500D01*
X119972667Y-94974833D01*
X119930333Y-95059500D01*
X119845667Y-95144166D01*
X119676333Y-95186500D01*
X119380000Y-95186500D01*
X119210667Y-95144166D01*
X119126000Y-95059500D01*
X119083667Y-94974833D01*
X119972667Y-94212833D02*
X119083667Y-94212833D01*
X119972667Y-93704833D01*
X119083667Y-93704833D01*
X120057333Y-93493167D02*
X120057333Y-92815834D01*
X119930333Y-92646501D02*
X119972667Y-92519501D01*
X119972667Y-92307834D01*
X119930333Y-92223167D01*
X119888000Y-92180834D01*
X119803333Y-92138501D01*
X119718667Y-92138501D01*
X119634000Y-92180834D01*
X119591667Y-92223167D01*
X119549333Y-92307834D01*
X119507000Y-92477167D01*
X119464667Y-92561834D01*
X119422333Y-92604167D01*
X119337667Y-92646501D01*
X119253000Y-92646501D01*
X119168333Y-92604167D01*
X119126000Y-92561834D01*
X119083667Y-92477167D01*
X119083667Y-92265501D01*
X119126000Y-92138501D01*
X119888000Y-91249500D02*
X119930333Y-91291834D01*
X119972667Y-91418834D01*
X119972667Y-91503500D01*
X119930333Y-91630500D01*
X119845667Y-91715167D01*
X119761000Y-91757500D01*
X119591667Y-91799834D01*
X119464667Y-91799834D01*
X119295333Y-91757500D01*
X119210667Y-91715167D01*
X119126000Y-91630500D01*
X119083667Y-91503500D01*
X119083667Y-91418834D01*
X119126000Y-91291834D01*
X119168333Y-91249500D01*
X119972667Y-90360500D02*
X119549333Y-90656834D01*
X119972667Y-90868500D02*
X119083667Y-90868500D01*
X119083667Y-90529834D01*
X119126000Y-90445167D01*
X119168333Y-90402834D01*
X119253000Y-90360500D01*
X119380000Y-90360500D01*
X119464667Y-90402834D01*
X119507000Y-90445167D01*
X119549333Y-90529834D01*
X119549333Y-90868500D01*
X119507000Y-89979500D02*
X119507000Y-89683167D01*
X119972667Y-89556167D02*
X119972667Y-89979500D01*
X119083667Y-89979500D01*
X119083667Y-89556167D01*
X119083667Y-89259834D02*
X119972667Y-89048167D01*
X119337667Y-88878834D01*
X119972667Y-88709501D01*
X119083667Y-88497834D01*
X111717667Y-101938666D02*
X110828667Y-101938666D01*
X110828667Y-101600000D01*
X110871000Y-101515333D01*
X110913333Y-101473000D01*
X110998000Y-101430666D01*
X111125000Y-101430666D01*
X111209667Y-101473000D01*
X111252000Y-101515333D01*
X111294333Y-101600000D01*
X111294333Y-101938666D01*
X111125000Y-100668666D02*
X111717667Y-100668666D01*
X110786333Y-100880333D02*
X111421333Y-101092000D01*
X111421333Y-100541666D01*
X119972667Y-105685166D02*
X119972667Y-106108499D01*
X119083667Y-106108499D01*
X119507000Y-105388832D02*
X119507000Y-105092499D01*
X119972667Y-104965499D02*
X119972667Y-105388832D01*
X119083667Y-105388832D01*
X119083667Y-104965499D01*
X119972667Y-104584499D02*
X119083667Y-104584499D01*
X119083667Y-104372833D01*
X119126000Y-104245833D01*
X119210667Y-104161166D01*
X119295333Y-104118833D01*
X119464667Y-104076499D01*
X119591667Y-104076499D01*
X119761000Y-104118833D01*
X119845667Y-104161166D01*
X119930333Y-104245833D01*
X119972667Y-104372833D01*
X119972667Y-104584499D01*
X120057333Y-103907166D02*
X120057333Y-103229833D01*
X119888000Y-102510166D02*
X119930333Y-102552500D01*
X119972667Y-102679500D01*
X119972667Y-102764166D01*
X119930333Y-102891166D01*
X119845667Y-102975833D01*
X119761000Y-103018166D01*
X119591667Y-103060500D01*
X119464667Y-103060500D01*
X119295333Y-103018166D01*
X119210667Y-102975833D01*
X119126000Y-102891166D01*
X119083667Y-102764166D01*
X119083667Y-102679500D01*
X119126000Y-102552500D01*
X119168333Y-102510166D01*
X119083667Y-101959833D02*
X119083667Y-101790500D01*
X119126000Y-101705833D01*
X119210667Y-101621166D01*
X119380000Y-101578833D01*
X119676333Y-101578833D01*
X119845667Y-101621166D01*
X119930333Y-101705833D01*
X119972667Y-101790500D01*
X119972667Y-101959833D01*
X119930333Y-102044500D01*
X119845667Y-102129166D01*
X119676333Y-102171500D01*
X119380000Y-102171500D01*
X119210667Y-102129166D01*
X119126000Y-102044500D01*
X119083667Y-101959833D01*
X119972667Y-101197833D02*
X119083667Y-101197833D01*
X119972667Y-100689833D01*
X119083667Y-100689833D01*
X120057333Y-100478167D02*
X120057333Y-99800834D01*
X119930333Y-99631501D02*
X119972667Y-99504501D01*
X119972667Y-99292834D01*
X119930333Y-99208167D01*
X119888000Y-99165834D01*
X119803333Y-99123501D01*
X119718667Y-99123501D01*
X119634000Y-99165834D01*
X119591667Y-99208167D01*
X119549333Y-99292834D01*
X119507000Y-99462167D01*
X119464667Y-99546834D01*
X119422333Y-99589167D01*
X119337667Y-99631501D01*
X119253000Y-99631501D01*
X119168333Y-99589167D01*
X119126000Y-99546834D01*
X119083667Y-99462167D01*
X119083667Y-99250501D01*
X119126000Y-99123501D01*
X119888000Y-98234500D02*
X119930333Y-98276834D01*
X119972667Y-98403834D01*
X119972667Y-98488500D01*
X119930333Y-98615500D01*
X119845667Y-98700167D01*
X119761000Y-98742500D01*
X119591667Y-98784834D01*
X119464667Y-98784834D01*
X119295333Y-98742500D01*
X119210667Y-98700167D01*
X119126000Y-98615500D01*
X119083667Y-98488500D01*
X119083667Y-98403834D01*
X119126000Y-98276834D01*
X119168333Y-98234500D01*
X119972667Y-97345500D02*
X119549333Y-97641834D01*
X119972667Y-97853500D02*
X119083667Y-97853500D01*
X119083667Y-97514834D01*
X119126000Y-97430167D01*
X119168333Y-97387834D01*
X119253000Y-97345500D01*
X119380000Y-97345500D01*
X119464667Y-97387834D01*
X119507000Y-97430167D01*
X119549333Y-97514834D01*
X119549333Y-97853500D01*
X119507000Y-96964500D02*
X119507000Y-96668167D01*
X119972667Y-96541167D02*
X119972667Y-96964500D01*
X119083667Y-96964500D01*
X119083667Y-96541167D01*
X119083667Y-96244834D02*
X119972667Y-96033167D01*
X119337667Y-95863834D01*
X119972667Y-95694501D01*
X119083667Y-95482834D01*
M02*
