G04 #@! TF.FileFunction,Copper,L1,Top,Signal*
%FSLAX46Y46*%
G04 Gerber Fmt 4.6, Leading zero omitted, Abs format (unit mm)*
G04 Created by KiCad (PCBNEW 4.0.6+dfsg1-1) date Mon Apr 23 23:44:20 2018*
%MOMM*%
%LPD*%
G01*
G04 APERTURE LIST*
%ADD10C,0.100000*%
%ADD11R,1.849120X1.849120*%
%ADD12C,1.849120*%
%ADD13R,0.750000X0.800000*%
%ADD14R,2.500000X4.000000*%
%ADD15R,1.900000X0.800000*%
%ADD16C,2.000000*%
%ADD17R,0.900000X1.200000*%
%ADD18R,1.200000X0.900000*%
%ADD19R,1.800000X1.800000*%
%ADD20O,1.800000X1.800000*%
%ADD21R,1.700000X1.700000*%
%ADD22O,1.700000X1.700000*%
%ADD23R,3.500120X3.500120*%
%ADD24R,0.800000X0.750000*%
%ADD25R,2.500000X1.100000*%
%ADD26O,2.500000X1.100000*%
%ADD27C,0.350000*%
%ADD28C,1.016000*%
%ADD29C,0.508000*%
%ADD30C,0.152400*%
%ADD31C,0.254000*%
G04 APERTURE END LIST*
D10*
D11*
X115570000Y-149067520D03*
D12*
X115570000Y-145572480D03*
D11*
X115570000Y-142082520D03*
D12*
X115570000Y-138587480D03*
D13*
X149860000Y-141720000D03*
X149860000Y-140220000D03*
D14*
X135890000Y-132525000D03*
X135890000Y-140525000D03*
D15*
X133120000Y-120970000D03*
X133120000Y-122870000D03*
X136120000Y-121920000D03*
D16*
X181555000Y-116205000D03*
X186055000Y-116205000D03*
X181555000Y-122705000D03*
X186055000Y-122705000D03*
D17*
X167640000Y-133520000D03*
X167640000Y-135720000D03*
D18*
X143680000Y-125730000D03*
X145880000Y-125730000D03*
D17*
X156210000Y-142070000D03*
X156210000Y-139870000D03*
X153670000Y-142070000D03*
X153670000Y-139870000D03*
D19*
X163830000Y-152400000D03*
D20*
X163830000Y-149860000D03*
X163830000Y-147320000D03*
D19*
X142240000Y-152400000D03*
D20*
X142240000Y-149860000D03*
X142240000Y-147320000D03*
D21*
X114300000Y-134620000D03*
D22*
X114300000Y-132080000D03*
X114300000Y-129540000D03*
X114300000Y-127000000D03*
D21*
X173355000Y-116840000D03*
D22*
X175895000Y-116840000D03*
X173355000Y-119380000D03*
X175895000Y-119380000D03*
X173355000Y-121920000D03*
X175895000Y-121920000D03*
D23*
X123825000Y-126850140D03*
X123825000Y-120850660D03*
X119126000Y-123850400D03*
D24*
X133870000Y-125730000D03*
X135370000Y-125730000D03*
X133870000Y-118110000D03*
X135370000Y-118110000D03*
D19*
X186690000Y-152400000D03*
D20*
X186690000Y-149860000D03*
X186690000Y-147320000D03*
D17*
X158750000Y-142070000D03*
X158750000Y-139870000D03*
D25*
X149160000Y-121920000D03*
D26*
X149160000Y-123920000D03*
X149160000Y-125920000D03*
X149160000Y-127920000D03*
X149160000Y-129920000D03*
X149160000Y-131920000D03*
X149160000Y-133920000D03*
X149160000Y-135920000D03*
X164560000Y-135920000D03*
X164460000Y-133920000D03*
X164560000Y-131920000D03*
X164560000Y-129920000D03*
X164560000Y-127920000D03*
X164560000Y-125920000D03*
X164560000Y-123920000D03*
X164560000Y-121920000D03*
D25*
X149160000Y-76200000D03*
D26*
X149160000Y-78200000D03*
X149160000Y-80200000D03*
X149160000Y-82200000D03*
X149160000Y-84200000D03*
X149160000Y-86200000D03*
X149160000Y-88200000D03*
X149160000Y-90200000D03*
X164560000Y-90200000D03*
X164460000Y-88200000D03*
X164560000Y-86200000D03*
X164560000Y-84200000D03*
X164560000Y-82200000D03*
X164560000Y-80200000D03*
X164560000Y-78200000D03*
X164560000Y-76200000D03*
D17*
X158750000Y-96350000D03*
X158750000Y-94150000D03*
D19*
X186690000Y-106680000D03*
D20*
X186690000Y-104140000D03*
X186690000Y-101600000D03*
D24*
X133870000Y-72390000D03*
X135370000Y-72390000D03*
X133870000Y-80010000D03*
X135370000Y-80010000D03*
D23*
X123825000Y-81130140D03*
X123825000Y-75130660D03*
X119126000Y-78130400D03*
D21*
X173355000Y-71120000D03*
D22*
X175895000Y-71120000D03*
X173355000Y-73660000D03*
X175895000Y-73660000D03*
X173355000Y-76200000D03*
X175895000Y-76200000D03*
D21*
X114300000Y-88900000D03*
D22*
X114300000Y-86360000D03*
X114300000Y-83820000D03*
X114300000Y-81280000D03*
D19*
X142240000Y-106680000D03*
D20*
X142240000Y-104140000D03*
X142240000Y-101600000D03*
D19*
X163830000Y-106680000D03*
D20*
X163830000Y-104140000D03*
X163830000Y-101600000D03*
D17*
X153670000Y-96350000D03*
X153670000Y-94150000D03*
X156210000Y-96350000D03*
X156210000Y-94150000D03*
D18*
X143680000Y-80010000D03*
X145880000Y-80010000D03*
D17*
X167640000Y-87800000D03*
X167640000Y-90000000D03*
D16*
X181555000Y-70485000D03*
X186055000Y-70485000D03*
X181555000Y-76985000D03*
X186055000Y-76985000D03*
D15*
X133120000Y-75250000D03*
X133120000Y-77150000D03*
X136120000Y-76200000D03*
D14*
X135890000Y-86805000D03*
X135890000Y-94805000D03*
D13*
X149860000Y-96000000D03*
X149860000Y-94500000D03*
D11*
X115570000Y-96362520D03*
D12*
X115570000Y-92867480D03*
D11*
X115570000Y-103347520D03*
D12*
X115570000Y-99852480D03*
D27*
X138430000Y-121920000D03*
X138430000Y-76200000D03*
X147320000Y-138430000D03*
X147320000Y-92710000D03*
X124460000Y-143510000D03*
X124460000Y-139700000D03*
X124460000Y-93980000D03*
X124460000Y-97790000D03*
D28*
X123675140Y-127000000D02*
X123825000Y-126850140D01*
X114300000Y-127000000D02*
X123675140Y-127000000D01*
X129540000Y-121920000D02*
X129540000Y-119380000D01*
X129540000Y-119380000D02*
X130810000Y-118110000D01*
X133350000Y-118110000D02*
X133870000Y-118110000D01*
X130810000Y-118110000D02*
X133350000Y-118110000D01*
X124609860Y-126850140D02*
X129540000Y-121920000D01*
X123825000Y-126850140D02*
X124609860Y-126850140D01*
X133120000Y-118110000D02*
X133350000Y-118110000D01*
X133120000Y-120970000D02*
X133120000Y-118110000D01*
X123825000Y-137795000D02*
X123032520Y-138587480D01*
X123032520Y-138587480D02*
X115570000Y-138587480D01*
X123825000Y-126850140D02*
X123825000Y-137795000D01*
X123825000Y-81130140D02*
X123825000Y-92075000D01*
X123032520Y-92867480D02*
X115570000Y-92867480D01*
X123825000Y-92075000D02*
X123032520Y-92867480D01*
X133120000Y-75250000D02*
X133120000Y-72390000D01*
X133120000Y-72390000D02*
X133350000Y-72390000D01*
X123825000Y-81130140D02*
X124609860Y-81130140D01*
X124609860Y-81130140D02*
X129540000Y-76200000D01*
X130810000Y-72390000D02*
X133350000Y-72390000D01*
X133350000Y-72390000D02*
X133870000Y-72390000D01*
X129540000Y-73660000D02*
X130810000Y-72390000D01*
X129540000Y-76200000D02*
X129540000Y-73660000D01*
X114300000Y-81280000D02*
X123675140Y-81280000D01*
X123675140Y-81280000D02*
X123825000Y-81130140D01*
D29*
X136120000Y-125246000D02*
X136120000Y-121920000D01*
X136120000Y-119102000D02*
X136120000Y-121920000D01*
X136120000Y-121920000D02*
X138430000Y-121920000D01*
X175895000Y-119380000D02*
X175895000Y-121920000D01*
X163860000Y-135920000D02*
X167440000Y-135920000D01*
X175895000Y-121920000D02*
X175895000Y-122174000D01*
X135636000Y-125730000D02*
X136120000Y-125246000D01*
X135370000Y-125730000D02*
X135636000Y-125730000D01*
X135370000Y-118352000D02*
X136120000Y-119102000D01*
X135370000Y-118110000D02*
X135370000Y-118352000D01*
X135370000Y-72390000D02*
X135370000Y-72632000D01*
X135370000Y-72632000D02*
X136120000Y-73382000D01*
X135370000Y-80010000D02*
X135636000Y-80010000D01*
X135636000Y-80010000D02*
X136120000Y-79526000D01*
X175895000Y-76200000D02*
X175895000Y-76454000D01*
X163860000Y-90200000D02*
X167440000Y-90200000D01*
X175895000Y-73660000D02*
X175895000Y-76200000D01*
X136120000Y-76200000D02*
X138430000Y-76200000D01*
X136120000Y-73382000D02*
X136120000Y-76200000D01*
X136120000Y-79526000D02*
X136120000Y-76200000D01*
X133120000Y-125500000D02*
X133350000Y-125730000D01*
X133350000Y-125730000D02*
X133870000Y-125730000D01*
X133120000Y-122870000D02*
X133120000Y-125500000D01*
X133870000Y-130505000D02*
X135890000Y-132525000D01*
X133870000Y-125730000D02*
X133870000Y-130505000D01*
X142685000Y-132525000D02*
X146080000Y-135920000D01*
X146080000Y-135920000D02*
X149860000Y-135920000D01*
X135890000Y-132525000D02*
X142685000Y-132525000D01*
X149860000Y-135920000D02*
X149860000Y-140220000D01*
X147320000Y-138430000D02*
X146080000Y-137190000D01*
X146080000Y-137190000D02*
X146080000Y-135920000D01*
X142685000Y-125730000D02*
X135890000Y-132525000D01*
X143680000Y-125730000D02*
X142685000Y-125730000D01*
X143680000Y-80010000D02*
X142685000Y-80010000D01*
X142685000Y-80010000D02*
X135890000Y-86805000D01*
X146080000Y-91470000D02*
X146080000Y-90200000D01*
X147320000Y-92710000D02*
X146080000Y-91470000D01*
X149860000Y-90200000D02*
X149860000Y-94500000D01*
X135890000Y-86805000D02*
X142685000Y-86805000D01*
X146080000Y-90200000D02*
X149860000Y-90200000D01*
X142685000Y-86805000D02*
X146080000Y-90200000D01*
X133870000Y-80010000D02*
X133870000Y-84785000D01*
X133870000Y-84785000D02*
X135890000Y-86805000D01*
X133120000Y-77150000D02*
X133120000Y-79780000D01*
X133350000Y-80010000D02*
X133870000Y-80010000D01*
X133120000Y-79780000D02*
X133350000Y-80010000D01*
D30*
X163860000Y-121920000D02*
X165100000Y-121920000D01*
D29*
X167640000Y-121920000D02*
X163860000Y-121920000D01*
X172720000Y-116840000D02*
X167640000Y-121920000D01*
X173355000Y-116840000D02*
X172720000Y-116840000D01*
X173355000Y-71120000D02*
X172720000Y-71120000D01*
X172720000Y-71120000D02*
X167640000Y-76200000D01*
X167640000Y-76200000D02*
X163860000Y-76200000D01*
D30*
X163860000Y-76200000D02*
X165100000Y-76200000D01*
X163860000Y-123920000D02*
X165640000Y-123920000D01*
D29*
X168180000Y-123920000D02*
X163860000Y-123920000D01*
X172720000Y-119380000D02*
X168180000Y-123920000D01*
X173355000Y-119380000D02*
X172720000Y-119380000D01*
X173355000Y-73660000D02*
X172720000Y-73660000D01*
X172720000Y-73660000D02*
X168180000Y-78200000D01*
X168180000Y-78200000D02*
X163860000Y-78200000D01*
D30*
X163860000Y-78200000D02*
X165640000Y-78200000D01*
D29*
X173355000Y-123825000D02*
X167260000Y-129920000D01*
X167260000Y-129920000D02*
X163860000Y-129920000D01*
X173355000Y-121920000D02*
X173355000Y-123825000D01*
X173355000Y-76200000D02*
X173355000Y-78105000D01*
X167260000Y-84200000D02*
X163860000Y-84200000D01*
X173355000Y-78105000D02*
X167260000Y-84200000D01*
X124460000Y-143510000D02*
X124460000Y-139700000D01*
X124460000Y-97790000D02*
X124460000Y-93980000D01*
X153670000Y-144780000D02*
X152400000Y-146050000D01*
X152400000Y-146050000D02*
X146050000Y-146050000D01*
X146050000Y-146050000D02*
X142240000Y-149860000D01*
X153670000Y-142070000D02*
X153670000Y-144780000D01*
X153670000Y-96350000D02*
X153670000Y-99060000D01*
X146050000Y-100330000D02*
X142240000Y-104140000D01*
X152400000Y-100330000D02*
X146050000Y-100330000D01*
X153670000Y-99060000D02*
X152400000Y-100330000D01*
X156210000Y-144780000D02*
X161290000Y-149860000D01*
X161290000Y-149860000D02*
X163830000Y-149860000D01*
X156210000Y-142070000D02*
X156210000Y-144780000D01*
X156210000Y-96350000D02*
X156210000Y-99060000D01*
X161290000Y-104140000D02*
X163830000Y-104140000D01*
X156210000Y-99060000D02*
X161290000Y-104140000D01*
X158750000Y-143510000D02*
X160020000Y-144780000D01*
X160020000Y-144780000D02*
X177800000Y-144780000D01*
X177800000Y-144780000D02*
X182880000Y-149860000D01*
X182880000Y-149860000D02*
X186690000Y-149860000D01*
X158750000Y-142070000D02*
X158750000Y-143510000D01*
X158750000Y-96350000D02*
X158750000Y-97790000D01*
X182880000Y-104140000D02*
X186690000Y-104140000D01*
X177800000Y-99060000D02*
X182880000Y-104140000D01*
X160020000Y-99060000D02*
X177800000Y-99060000D01*
X158750000Y-97790000D02*
X160020000Y-99060000D01*
X150430000Y-133920000D02*
X153670000Y-137160000D01*
X153670000Y-137160000D02*
X153670000Y-139870000D01*
X149860000Y-133920000D02*
X150430000Y-133920000D01*
X149860000Y-88200000D02*
X150430000Y-88200000D01*
X153670000Y-91440000D02*
X153670000Y-94150000D01*
X150430000Y-88200000D02*
X153670000Y-91440000D01*
X150970000Y-131920000D02*
X156210000Y-137160000D01*
X156210000Y-137160000D02*
X156210000Y-139870000D01*
X149860000Y-131920000D02*
X150970000Y-131920000D01*
X149860000Y-86200000D02*
X150970000Y-86200000D01*
X156210000Y-91440000D02*
X156210000Y-94150000D01*
X150970000Y-86200000D02*
X156210000Y-91440000D01*
D30*
X149860000Y-129920000D02*
X148210000Y-129920000D01*
D29*
X151510000Y-129920000D02*
X158750000Y-137160000D01*
X158750000Y-137160000D02*
X158750000Y-139870000D01*
X149860000Y-129920000D02*
X151510000Y-129920000D01*
X149860000Y-84200000D02*
X151510000Y-84200000D01*
X158750000Y-91440000D02*
X158750000Y-94150000D01*
X151510000Y-84200000D02*
X158750000Y-91440000D01*
D30*
X149860000Y-84200000D02*
X148210000Y-84200000D01*
X147510000Y-125920000D02*
X147320000Y-125730000D01*
D29*
X147320000Y-125730000D02*
X145880000Y-125730000D01*
X149860000Y-125920000D02*
X147510000Y-125920000D01*
X149860000Y-80200000D02*
X147510000Y-80200000D01*
X147320000Y-80010000D02*
X145880000Y-80010000D01*
D30*
X147510000Y-80200000D02*
X147320000Y-80010000D01*
D29*
X165800000Y-133920000D02*
X166200000Y-133520000D01*
X166200000Y-133520000D02*
X167640000Y-133520000D01*
X163860000Y-133920000D02*
X165800000Y-133920000D01*
X163860000Y-88200000D02*
X165800000Y-88200000D01*
X166200000Y-87800000D02*
X167640000Y-87800000D01*
X165800000Y-88200000D02*
X166200000Y-87800000D01*
X181555000Y-130865000D02*
X172720000Y-139700000D01*
X172720000Y-139700000D02*
X163830000Y-139700000D01*
X163830000Y-139700000D02*
X152400000Y-128270000D01*
X152400000Y-128270000D02*
X152400000Y-124460000D01*
X152400000Y-124460000D02*
X149860000Y-121920000D01*
X181555000Y-122705000D02*
X181555000Y-130865000D01*
X181555000Y-76985000D02*
X181555000Y-85145000D01*
X152400000Y-78740000D02*
X149860000Y-76200000D01*
X152400000Y-82550000D02*
X152400000Y-78740000D01*
X163830000Y-93980000D02*
X152400000Y-82550000D01*
X172720000Y-93980000D02*
X163830000Y-93980000D01*
X181555000Y-85145000D02*
X172720000Y-93980000D01*
D31*
G36*
X144690197Y-73749803D02*
X144730590Y-73776994D01*
X144780000Y-73787000D01*
X167640000Y-73787000D01*
X167687789Y-73777666D01*
X167729803Y-73749803D01*
X172189606Y-69290000D01*
X180437827Y-69290000D01*
X180169722Y-69557637D01*
X179920284Y-70158352D01*
X179919716Y-70808795D01*
X180168106Y-71409943D01*
X180627637Y-71870278D01*
X181228352Y-72119716D01*
X181878795Y-72120284D01*
X182479943Y-71871894D01*
X182714715Y-71637532D01*
X185082073Y-71637532D01*
X185180736Y-71904387D01*
X185790461Y-72130908D01*
X186440460Y-72106856D01*
X186929264Y-71904387D01*
X187027927Y-71637532D01*
X186055000Y-70664605D01*
X185082073Y-71637532D01*
X182714715Y-71637532D01*
X182940278Y-71412363D01*
X183189716Y-70811648D01*
X183190232Y-70220461D01*
X184409092Y-70220461D01*
X184433144Y-70870460D01*
X184635613Y-71359264D01*
X184902468Y-71457927D01*
X185875395Y-70485000D01*
X186234605Y-70485000D01*
X187207532Y-71457927D01*
X187474387Y-71359264D01*
X187700908Y-70749539D01*
X187676856Y-70099540D01*
X187474387Y-69610736D01*
X187207532Y-69512073D01*
X186234605Y-70485000D01*
X185875395Y-70485000D01*
X184902468Y-69512073D01*
X184635613Y-69610736D01*
X184409092Y-70220461D01*
X183190232Y-70220461D01*
X183190284Y-70161205D01*
X182941894Y-69560057D01*
X182672309Y-69290000D01*
X185097774Y-69290000D01*
X185082073Y-69332468D01*
X186055000Y-70305395D01*
X187027927Y-69332468D01*
X187012226Y-69290000D01*
X194870000Y-69290000D01*
X194870000Y-111050000D01*
X112470000Y-111050000D01*
X112470000Y-107950000D01*
X112955000Y-107950000D01*
X113154055Y-108950717D01*
X113720916Y-109799084D01*
X114569283Y-110365945D01*
X115570000Y-110565000D01*
X116570717Y-110365945D01*
X117419084Y-109799084D01*
X117985945Y-108950717D01*
X118185000Y-107950000D01*
X117985945Y-106949283D01*
X117419084Y-106100916D01*
X116570717Y-105534055D01*
X115570000Y-105335000D01*
X114569283Y-105534055D01*
X113720916Y-106100916D01*
X113154055Y-106949283D01*
X112955000Y-107950000D01*
X112470000Y-107950000D01*
X112470000Y-102422960D01*
X113998000Y-102422960D01*
X113998000Y-104272080D01*
X114042278Y-104507397D01*
X114181350Y-104723521D01*
X114393550Y-104868511D01*
X114645440Y-104919520D01*
X116494560Y-104919520D01*
X116729877Y-104875242D01*
X116946001Y-104736170D01*
X117090991Y-104523970D01*
X117142000Y-104272080D01*
X117142000Y-104093275D01*
X123195000Y-104093275D01*
X123195000Y-104186725D01*
X123376547Y-105099425D01*
X123893550Y-105873175D01*
X124667300Y-106390178D01*
X125580000Y-106571725D01*
X126492700Y-106390178D01*
X127266450Y-105873175D01*
X127783453Y-105099425D01*
X127965000Y-104186725D01*
X127965000Y-104093275D01*
X127783453Y-103180575D01*
X127266450Y-102406825D01*
X126492700Y-101889822D01*
X125580000Y-101708275D01*
X124667300Y-101889822D01*
X123893550Y-102406825D01*
X123376547Y-103180575D01*
X123195000Y-104093275D01*
X117142000Y-104093275D01*
X117142000Y-102422960D01*
X117097722Y-102187643D01*
X116958650Y-101971519D01*
X116746450Y-101826529D01*
X116494560Y-101775520D01*
X114645440Y-101775520D01*
X114410123Y-101819798D01*
X114193999Y-101958870D01*
X114049009Y-102171070D01*
X113998000Y-102422960D01*
X112470000Y-102422960D01*
X112470000Y-100161335D01*
X114010169Y-100161335D01*
X114247098Y-100734746D01*
X114685427Y-101173840D01*
X115258423Y-101411769D01*
X115878855Y-101412311D01*
X116307355Y-101235258D01*
X140748954Y-101235258D01*
X140869003Y-101473000D01*
X142113000Y-101473000D01*
X142113000Y-100229622D01*
X141875260Y-100108964D01*
X141443583Y-100287760D01*
X141002034Y-100692424D01*
X140748954Y-101235258D01*
X116307355Y-101235258D01*
X116452266Y-101175382D01*
X116891360Y-100737053D01*
X117129289Y-100164057D01*
X117129831Y-99543625D01*
X116892902Y-98970214D01*
X116454573Y-98531120D01*
X115881577Y-98293191D01*
X115261145Y-98292649D01*
X114687734Y-98529578D01*
X114248640Y-98967907D01*
X114010711Y-99540903D01*
X114010169Y-100161335D01*
X112470000Y-100161335D01*
X112470000Y-95437960D01*
X113998000Y-95437960D01*
X113998000Y-97287080D01*
X114042278Y-97522397D01*
X114181350Y-97738521D01*
X114393550Y-97883511D01*
X114645440Y-97934520D01*
X116494560Y-97934520D01*
X116729877Y-97890242D01*
X116946001Y-97751170D01*
X117090991Y-97538970D01*
X117142000Y-97287080D01*
X117142000Y-95437960D01*
X117097722Y-95202643D01*
X116958650Y-94986519D01*
X116746450Y-94841529D01*
X116494560Y-94790520D01*
X114645440Y-94790520D01*
X114410123Y-94834798D01*
X114193999Y-94973870D01*
X114049009Y-95186070D01*
X113998000Y-95437960D01*
X112470000Y-95437960D01*
X112470000Y-81280000D01*
X112785907Y-81280000D01*
X112898946Y-81848285D01*
X113220853Y-82330054D01*
X113550026Y-82550000D01*
X113220853Y-82769946D01*
X112898946Y-83251715D01*
X112785907Y-83820000D01*
X112898946Y-84388285D01*
X113220853Y-84870054D01*
X113550026Y-85090000D01*
X113220853Y-85309946D01*
X112898946Y-85791715D01*
X112785907Y-86360000D01*
X112898946Y-86928285D01*
X113220853Y-87410054D01*
X113262452Y-87437850D01*
X113214683Y-87446838D01*
X112998559Y-87585910D01*
X112853569Y-87798110D01*
X112802560Y-88050000D01*
X112802560Y-89750000D01*
X112846838Y-89985317D01*
X112985910Y-90201441D01*
X113198110Y-90346431D01*
X113450000Y-90397440D01*
X115150000Y-90397440D01*
X115385317Y-90353162D01*
X115601441Y-90214090D01*
X115746431Y-90001890D01*
X115797440Y-89750000D01*
X115797440Y-88050000D01*
X115753162Y-87814683D01*
X115614090Y-87598559D01*
X115401890Y-87453569D01*
X115334459Y-87439914D01*
X115379147Y-87410054D01*
X115701054Y-86928285D01*
X115814093Y-86360000D01*
X115701054Y-85791715D01*
X115379147Y-85309946D01*
X115049974Y-85090000D01*
X115379147Y-84870054D01*
X115701054Y-84388285D01*
X115814093Y-83820000D01*
X115701054Y-83251715D01*
X115379147Y-82769946D01*
X115049974Y-82550000D01*
X115240043Y-82423000D01*
X121427500Y-82423000D01*
X121427500Y-82880200D01*
X121471778Y-83115517D01*
X121610850Y-83331641D01*
X121823050Y-83476631D01*
X122074940Y-83527640D01*
X122682000Y-83527640D01*
X122682000Y-91601554D01*
X122559074Y-91724480D01*
X116632622Y-91724480D01*
X116454573Y-91546120D01*
X115881577Y-91308191D01*
X115261145Y-91307649D01*
X114687734Y-91544578D01*
X114248640Y-91982907D01*
X114010711Y-92555903D01*
X114010169Y-93176335D01*
X114247098Y-93749746D01*
X114685427Y-94188840D01*
X115258423Y-94426769D01*
X115878855Y-94427311D01*
X116452266Y-94190382D01*
X116632482Y-94010480D01*
X123032520Y-94010480D01*
X123469927Y-93923474D01*
X123599460Y-93836923D01*
X123571000Y-93980000D01*
X123571000Y-97790000D01*
X123638671Y-98130206D01*
X123831382Y-98418618D01*
X124119794Y-98611329D01*
X124460000Y-98679000D01*
X124800206Y-98611329D01*
X125088618Y-98418618D01*
X125281329Y-98130206D01*
X125349000Y-97790000D01*
X125349000Y-95090750D01*
X134005000Y-95090750D01*
X134005000Y-96931309D01*
X134101673Y-97164698D01*
X134280301Y-97343327D01*
X134513690Y-97440000D01*
X135604250Y-97440000D01*
X135763000Y-97281250D01*
X135763000Y-94932000D01*
X136017000Y-94932000D01*
X136017000Y-97281250D01*
X136175750Y-97440000D01*
X137266310Y-97440000D01*
X137499699Y-97343327D01*
X137678327Y-97164698D01*
X137775000Y-96931309D01*
X137775000Y-96285750D01*
X148850000Y-96285750D01*
X148850000Y-96526309D01*
X148946673Y-96759698D01*
X149125301Y-96938327D01*
X149358690Y-97035000D01*
X149574250Y-97035000D01*
X149733000Y-96876250D01*
X149733000Y-96127000D01*
X149987000Y-96127000D01*
X149987000Y-96876250D01*
X150145750Y-97035000D01*
X150361310Y-97035000D01*
X150594699Y-96938327D01*
X150773327Y-96759698D01*
X150870000Y-96526309D01*
X150870000Y-96285750D01*
X150711250Y-96127000D01*
X149987000Y-96127000D01*
X149733000Y-96127000D01*
X149008750Y-96127000D01*
X148850000Y-96285750D01*
X137775000Y-96285750D01*
X137775000Y-95090750D01*
X137616250Y-94932000D01*
X136017000Y-94932000D01*
X135763000Y-94932000D01*
X134163750Y-94932000D01*
X134005000Y-95090750D01*
X125349000Y-95090750D01*
X125349000Y-93980000D01*
X125281329Y-93639794D01*
X125088618Y-93351382D01*
X124800206Y-93158671D01*
X124460000Y-93091000D01*
X124416866Y-93099580D01*
X124633223Y-92883223D01*
X124769886Y-92678691D01*
X134005000Y-92678691D01*
X134005000Y-94519250D01*
X134163750Y-94678000D01*
X135763000Y-94678000D01*
X135763000Y-92328750D01*
X136017000Y-92328750D01*
X136017000Y-94678000D01*
X137616250Y-94678000D01*
X137775000Y-94519250D01*
X137775000Y-92678691D01*
X137678327Y-92445302D01*
X137499699Y-92266673D01*
X137266310Y-92170000D01*
X136175750Y-92170000D01*
X136017000Y-92328750D01*
X135763000Y-92328750D01*
X135604250Y-92170000D01*
X134513690Y-92170000D01*
X134280301Y-92266673D01*
X134101673Y-92445302D01*
X134005000Y-92678691D01*
X124769886Y-92678691D01*
X124880994Y-92512407D01*
X124968000Y-92075000D01*
X124968000Y-83527640D01*
X125575060Y-83527640D01*
X125810377Y-83483362D01*
X126026501Y-83344290D01*
X126171491Y-83132090D01*
X126222500Y-82880200D01*
X126222500Y-81133946D01*
X130348223Y-77008223D01*
X130595994Y-76637407D01*
X130683000Y-76200000D01*
X130683000Y-74133446D01*
X131283446Y-73533000D01*
X131977000Y-73533000D01*
X131977000Y-74238875D01*
X131934683Y-74246838D01*
X131718559Y-74385910D01*
X131573569Y-74598110D01*
X131522560Y-74850000D01*
X131522560Y-75650000D01*
X131566838Y-75885317D01*
X131705910Y-76101441D01*
X131851083Y-76200633D01*
X131718559Y-76285910D01*
X131573569Y-76498110D01*
X131522560Y-76750000D01*
X131522560Y-77550000D01*
X131566838Y-77785317D01*
X131705910Y-78001441D01*
X131918110Y-78146431D01*
X132170000Y-78197440D01*
X132231000Y-78197440D01*
X132231000Y-79780000D01*
X132298671Y-80120206D01*
X132406889Y-80282165D01*
X132491382Y-80408618D01*
X132721382Y-80638618D01*
X132981000Y-80812089D01*
X132981000Y-84785000D01*
X133048671Y-85125206D01*
X133172815Y-85311000D01*
X133241382Y-85413618D01*
X133992560Y-86164796D01*
X133992560Y-88805000D01*
X134036838Y-89040317D01*
X134175910Y-89256441D01*
X134388110Y-89401431D01*
X134640000Y-89452440D01*
X137140000Y-89452440D01*
X137375317Y-89408162D01*
X137591441Y-89269090D01*
X137736431Y-89056890D01*
X137787440Y-88805000D01*
X137787440Y-87694000D01*
X142316764Y-87694000D01*
X145191000Y-90568236D01*
X145191000Y-91470000D01*
X145258671Y-91810206D01*
X145375608Y-91985214D01*
X145451382Y-92098618D01*
X146691382Y-93338618D01*
X146979795Y-93531329D01*
X147320000Y-93599000D01*
X147660205Y-93531329D01*
X147948618Y-93338618D01*
X148141329Y-93050205D01*
X148209000Y-92710000D01*
X148141329Y-92369795D01*
X147948618Y-92081382D01*
X146969000Y-91101764D01*
X146969000Y-91089000D01*
X147661593Y-91089000D01*
X147969591Y-91294797D01*
X148423071Y-91385000D01*
X148971000Y-91385000D01*
X148971000Y-93727468D01*
X148888569Y-93848110D01*
X148837560Y-94100000D01*
X148837560Y-94900000D01*
X148881838Y-95135317D01*
X148948329Y-95238646D01*
X148946673Y-95240302D01*
X148850000Y-95473691D01*
X148850000Y-95714250D01*
X149008750Y-95873000D01*
X149733000Y-95873000D01*
X149733000Y-95853000D01*
X149987000Y-95853000D01*
X149987000Y-95873000D01*
X150711250Y-95873000D01*
X150870000Y-95714250D01*
X150870000Y-95473691D01*
X150773327Y-95240302D01*
X150771957Y-95238932D01*
X150831431Y-95151890D01*
X150882440Y-94900000D01*
X150882440Y-94100000D01*
X150838162Y-93864683D01*
X150749000Y-93726121D01*
X150749000Y-91016746D01*
X150991726Y-90653480D01*
X151081929Y-90200000D01*
X151059374Y-90086610D01*
X152781000Y-91808236D01*
X152781000Y-93077904D01*
X152768559Y-93085910D01*
X152623569Y-93298110D01*
X152572560Y-93550000D01*
X152572560Y-94750000D01*
X152616838Y-94985317D01*
X152755910Y-95201441D01*
X152825711Y-95249134D01*
X152768559Y-95285910D01*
X152623569Y-95498110D01*
X152572560Y-95750000D01*
X152572560Y-96950000D01*
X152616838Y-97185317D01*
X152755910Y-97401441D01*
X152781000Y-97418584D01*
X152781000Y-98691764D01*
X152031764Y-99441000D01*
X146050000Y-99441000D01*
X145709795Y-99508670D01*
X145421382Y-99701382D01*
X143649766Y-101472998D01*
X143610998Y-101472998D01*
X143731046Y-101235258D01*
X143477966Y-100692424D01*
X143036417Y-100287760D01*
X142604740Y-100108964D01*
X142367000Y-100229622D01*
X142367000Y-101473000D01*
X142387000Y-101473000D01*
X142387000Y-101727000D01*
X142367000Y-101727000D01*
X142367000Y-101747000D01*
X142113000Y-101747000D01*
X142113000Y-101727000D01*
X140869003Y-101727000D01*
X140748954Y-101964742D01*
X141002034Y-102507576D01*
X141392582Y-102865499D01*
X141154591Y-103024519D01*
X140821845Y-103522509D01*
X140705000Y-104109928D01*
X140705000Y-104170072D01*
X140821845Y-104757491D01*
X141102837Y-105178026D01*
X140888559Y-105315910D01*
X140743569Y-105528110D01*
X140692560Y-105780000D01*
X140692560Y-107580000D01*
X140736838Y-107815317D01*
X140875910Y-108031441D01*
X141088110Y-108176431D01*
X141340000Y-108227440D01*
X143140000Y-108227440D01*
X143375317Y-108183162D01*
X143591441Y-108044090D01*
X143736431Y-107831890D01*
X143787440Y-107580000D01*
X143787440Y-105780000D01*
X143743162Y-105544683D01*
X143604090Y-105328559D01*
X143391890Y-105183569D01*
X143375656Y-105180281D01*
X143658155Y-104757491D01*
X143775000Y-104170072D01*
X143775000Y-104109928D01*
X143771688Y-104093275D01*
X144785000Y-104093275D01*
X144785000Y-104186725D01*
X144966547Y-105099425D01*
X145483550Y-105873175D01*
X146257300Y-106390178D01*
X147170000Y-106571725D01*
X148082700Y-106390178D01*
X148856450Y-105873175D01*
X149373453Y-105099425D01*
X149555000Y-104186725D01*
X149555000Y-104093275D01*
X149373453Y-103180575D01*
X148856450Y-102406825D01*
X148082700Y-101889822D01*
X147170000Y-101708275D01*
X146257300Y-101889822D01*
X145483550Y-102406825D01*
X144966547Y-103180575D01*
X144785000Y-104093275D01*
X143771688Y-104093275D01*
X143733905Y-103903331D01*
X146418236Y-101219000D01*
X152400000Y-101219000D01*
X152740206Y-101151329D01*
X153028618Y-100958618D01*
X154298618Y-99688618D01*
X154397318Y-99540903D01*
X154491329Y-99400206D01*
X154559000Y-99060000D01*
X154559000Y-97422096D01*
X154571441Y-97414090D01*
X154716431Y-97201890D01*
X154767440Y-96950000D01*
X154767440Y-95750000D01*
X154723162Y-95514683D01*
X154584090Y-95298559D01*
X154514289Y-95250866D01*
X154571441Y-95214090D01*
X154716431Y-95001890D01*
X154767440Y-94750000D01*
X154767440Y-93550000D01*
X154723162Y-93314683D01*
X154584090Y-93098559D01*
X154559000Y-93081416D01*
X154559000Y-91440000D01*
X154491329Y-91099794D01*
X154298618Y-90811382D01*
X151058618Y-87571382D01*
X150891616Y-87459795D01*
X150770206Y-87378671D01*
X150742218Y-87373104D01*
X150734851Y-87362078D01*
X150492283Y-87200000D01*
X150624452Y-87111688D01*
X155321000Y-91808236D01*
X155321000Y-93077904D01*
X155308559Y-93085910D01*
X155163569Y-93298110D01*
X155112560Y-93550000D01*
X155112560Y-94750000D01*
X155156838Y-94985317D01*
X155295910Y-95201441D01*
X155365711Y-95249134D01*
X155308559Y-95285910D01*
X155163569Y-95498110D01*
X155112560Y-95750000D01*
X155112560Y-96950000D01*
X155156838Y-97185317D01*
X155295910Y-97401441D01*
X155321000Y-97418584D01*
X155321000Y-99060000D01*
X155388671Y-99400206D01*
X155482682Y-99540903D01*
X155581382Y-99688618D01*
X160661382Y-104768618D01*
X160949794Y-104961329D01*
X161290000Y-105029000D01*
X162593261Y-105029000D01*
X162692837Y-105178026D01*
X162478559Y-105315910D01*
X162333569Y-105528110D01*
X162282560Y-105780000D01*
X162282560Y-107580000D01*
X162326838Y-107815317D01*
X162465910Y-108031441D01*
X162678110Y-108176431D01*
X162930000Y-108227440D01*
X164730000Y-108227440D01*
X164965317Y-108183162D01*
X165181441Y-108044090D01*
X165326431Y-107831890D01*
X165377440Y-107580000D01*
X165377440Y-105780000D01*
X165333162Y-105544683D01*
X165194090Y-105328559D01*
X164981890Y-105183569D01*
X164965656Y-105180281D01*
X165248155Y-104757491D01*
X165365000Y-104170072D01*
X165365000Y-104109928D01*
X165361688Y-104093275D01*
X167645000Y-104093275D01*
X167645000Y-104186725D01*
X167826547Y-105099425D01*
X168343550Y-105873175D01*
X169117300Y-106390178D01*
X170030000Y-106571725D01*
X170942700Y-106390178D01*
X171716450Y-105873175D01*
X172233453Y-105099425D01*
X172415000Y-104186725D01*
X172415000Y-104093275D01*
X172233453Y-103180575D01*
X171716450Y-102406825D01*
X170942700Y-101889822D01*
X170030000Y-101708275D01*
X169117300Y-101889822D01*
X168343550Y-102406825D01*
X167826547Y-103180575D01*
X167645000Y-104093275D01*
X165361688Y-104093275D01*
X165248155Y-103522509D01*
X164915409Y-103024519D01*
X164677418Y-102865499D01*
X165067966Y-102507576D01*
X165321046Y-101964742D01*
X165200997Y-101727000D01*
X163957000Y-101727000D01*
X163957000Y-101747000D01*
X163703000Y-101747000D01*
X163703000Y-101727000D01*
X162459003Y-101727000D01*
X162338954Y-101964742D01*
X162592034Y-102507576D01*
X162982582Y-102865499D01*
X162744591Y-103024519D01*
X162593261Y-103251000D01*
X161658236Y-103251000D01*
X159642494Y-101235258D01*
X162338954Y-101235258D01*
X162459003Y-101473000D01*
X163703000Y-101473000D01*
X163703000Y-100229622D01*
X163957000Y-100229622D01*
X163957000Y-101473000D01*
X165200997Y-101473000D01*
X165321046Y-101235258D01*
X165067966Y-100692424D01*
X164626417Y-100287760D01*
X164194740Y-100108964D01*
X163957000Y-100229622D01*
X163703000Y-100229622D01*
X163465260Y-100108964D01*
X163033583Y-100287760D01*
X162592034Y-100692424D01*
X162338954Y-101235258D01*
X159642494Y-101235258D01*
X157099000Y-98691764D01*
X157099000Y-97422096D01*
X157111441Y-97414090D01*
X157256431Y-97201890D01*
X157307440Y-96950000D01*
X157307440Y-95750000D01*
X157263162Y-95514683D01*
X157124090Y-95298559D01*
X157054289Y-95250866D01*
X157111441Y-95214090D01*
X157256431Y-95001890D01*
X157307440Y-94750000D01*
X157307440Y-93550000D01*
X157263162Y-93314683D01*
X157124090Y-93098559D01*
X157099000Y-93081416D01*
X157099000Y-91440000D01*
X157031329Y-91099794D01*
X156838618Y-90811382D01*
X151598618Y-85571382D01*
X151310206Y-85378671D01*
X150970000Y-85311000D01*
X150658407Y-85311000D01*
X150492283Y-85200000D01*
X150658407Y-85089000D01*
X151141764Y-85089000D01*
X157861000Y-91808236D01*
X157861000Y-93077904D01*
X157848559Y-93085910D01*
X157703569Y-93298110D01*
X157652560Y-93550000D01*
X157652560Y-94750000D01*
X157696838Y-94985317D01*
X157835910Y-95201441D01*
X157905711Y-95249134D01*
X157848559Y-95285910D01*
X157703569Y-95498110D01*
X157652560Y-95750000D01*
X157652560Y-96950000D01*
X157696838Y-97185317D01*
X157835910Y-97401441D01*
X157861000Y-97418584D01*
X157861000Y-97790000D01*
X157928671Y-98130206D01*
X158121382Y-98418618D01*
X159391382Y-99688618D01*
X159679794Y-99881329D01*
X160020000Y-99949000D01*
X177431764Y-99949000D01*
X182251382Y-104768618D01*
X182539794Y-104961329D01*
X182880000Y-105029000D01*
X185453261Y-105029000D01*
X185552837Y-105178026D01*
X185338559Y-105315910D01*
X185193569Y-105528110D01*
X185142560Y-105780000D01*
X185142560Y-107580000D01*
X185186838Y-107815317D01*
X185325910Y-108031441D01*
X185538110Y-108176431D01*
X185790000Y-108227440D01*
X187590000Y-108227440D01*
X187825317Y-108183162D01*
X188041441Y-108044090D01*
X188105729Y-107950000D01*
X188520000Y-107950000D01*
X188719055Y-108950717D01*
X189285916Y-109799084D01*
X190134283Y-110365945D01*
X191135000Y-110565000D01*
X192135717Y-110365945D01*
X192984084Y-109799084D01*
X193550945Y-108950717D01*
X193750000Y-107950000D01*
X193550945Y-106949283D01*
X192984084Y-106100916D01*
X192135717Y-105534055D01*
X191135000Y-105335000D01*
X190134283Y-105534055D01*
X189285916Y-106100916D01*
X188719055Y-106949283D01*
X188520000Y-107950000D01*
X188105729Y-107950000D01*
X188186431Y-107831890D01*
X188237440Y-107580000D01*
X188237440Y-105780000D01*
X188193162Y-105544683D01*
X188054090Y-105328559D01*
X187841890Y-105183569D01*
X187825656Y-105180281D01*
X188108155Y-104757491D01*
X188225000Y-104170072D01*
X188225000Y-104109928D01*
X188108155Y-103522509D01*
X187775409Y-103024519D01*
X187537418Y-102865499D01*
X187927966Y-102507576D01*
X188181046Y-101964742D01*
X188060997Y-101727000D01*
X186817000Y-101727000D01*
X186817000Y-101747000D01*
X186563000Y-101747000D01*
X186563000Y-101727000D01*
X185319003Y-101727000D01*
X185198954Y-101964742D01*
X185452034Y-102507576D01*
X185842582Y-102865499D01*
X185604591Y-103024519D01*
X185453261Y-103251000D01*
X183248236Y-103251000D01*
X181232494Y-101235258D01*
X185198954Y-101235258D01*
X185319003Y-101473000D01*
X186563000Y-101473000D01*
X186563000Y-100229622D01*
X186817000Y-100229622D01*
X186817000Y-101473000D01*
X188060997Y-101473000D01*
X188181046Y-101235258D01*
X187927966Y-100692424D01*
X187486417Y-100287760D01*
X187054740Y-100108964D01*
X186817000Y-100229622D01*
X186563000Y-100229622D01*
X186325260Y-100108964D01*
X185893583Y-100287760D01*
X185452034Y-100692424D01*
X185198954Y-101235258D01*
X181232494Y-101235258D01*
X178428618Y-98431382D01*
X178409515Y-98418618D01*
X178140206Y-98238671D01*
X177800000Y-98171000D01*
X160388236Y-98171000D01*
X159639202Y-97421966D01*
X159651441Y-97414090D01*
X159796431Y-97201890D01*
X159847440Y-96950000D01*
X159847440Y-95750000D01*
X159803162Y-95514683D01*
X159664090Y-95298559D01*
X159594289Y-95250866D01*
X159651441Y-95214090D01*
X159796431Y-95001890D01*
X159847440Y-94750000D01*
X159847440Y-93550000D01*
X159803162Y-93314683D01*
X159664090Y-93098559D01*
X159639000Y-93081416D01*
X159639000Y-91440000D01*
X159571329Y-91099794D01*
X159378618Y-90811382D01*
X152138618Y-83571382D01*
X152096047Y-83542937D01*
X151850206Y-83378671D01*
X151510000Y-83311000D01*
X150658407Y-83311000D01*
X150492283Y-83200000D01*
X150734851Y-83037922D01*
X150991726Y-82653480D01*
X151081929Y-82200000D01*
X150991726Y-81746520D01*
X150734851Y-81362078D01*
X150492283Y-81200000D01*
X150734851Y-81037922D01*
X150991726Y-80653480D01*
X151081929Y-80200000D01*
X150991726Y-79746520D01*
X150734851Y-79362078D01*
X150492283Y-79200000D01*
X150734851Y-79037922D01*
X150991726Y-78653480D01*
X151002430Y-78599666D01*
X151511000Y-79108236D01*
X151511000Y-82550000D01*
X151578671Y-82890206D01*
X151662056Y-83015000D01*
X151771382Y-83178618D01*
X163201382Y-94608618D01*
X163489794Y-94801329D01*
X163830000Y-94869000D01*
X172720000Y-94869000D01*
X173060206Y-94801329D01*
X173348618Y-94608618D01*
X182183618Y-85773618D01*
X182201724Y-85746520D01*
X182376329Y-85485206D01*
X182444000Y-85145000D01*
X182444000Y-78386745D01*
X182479943Y-78371894D01*
X182714715Y-78137532D01*
X185082073Y-78137532D01*
X185180736Y-78404387D01*
X185790461Y-78630908D01*
X186440460Y-78606856D01*
X186929264Y-78404387D01*
X187027927Y-78137532D01*
X186055000Y-77164605D01*
X185082073Y-78137532D01*
X182714715Y-78137532D01*
X182940278Y-77912363D01*
X183189716Y-77311648D01*
X183190232Y-76720461D01*
X184409092Y-76720461D01*
X184433144Y-77370460D01*
X184635613Y-77859264D01*
X184902468Y-77957927D01*
X185875395Y-76985000D01*
X186234605Y-76985000D01*
X187207532Y-77957927D01*
X187474387Y-77859264D01*
X187700908Y-77249539D01*
X187676856Y-76599540D01*
X187474387Y-76110736D01*
X187207532Y-76012073D01*
X186234605Y-76985000D01*
X185875395Y-76985000D01*
X184902468Y-76012073D01*
X184635613Y-76110736D01*
X184409092Y-76720461D01*
X183190232Y-76720461D01*
X183190284Y-76661205D01*
X182941894Y-76060057D01*
X182714703Y-75832468D01*
X185082073Y-75832468D01*
X186055000Y-76805395D01*
X187027927Y-75832468D01*
X186929264Y-75565613D01*
X186319539Y-75339092D01*
X185669540Y-75363144D01*
X185180736Y-75565613D01*
X185082073Y-75832468D01*
X182714703Y-75832468D01*
X182482363Y-75599722D01*
X181881648Y-75350284D01*
X181231205Y-75349716D01*
X180630057Y-75598106D01*
X180169722Y-76057637D01*
X179920284Y-76658352D01*
X179919716Y-77308795D01*
X180168106Y-77909943D01*
X180627637Y-78370278D01*
X180666000Y-78386208D01*
X180666000Y-84776764D01*
X172351764Y-93091000D01*
X164198236Y-93091000D01*
X161616980Y-90509744D01*
X162716197Y-90509744D01*
X162716602Y-90536146D01*
X162932276Y-90948118D01*
X163289187Y-91246196D01*
X163733000Y-91385000D01*
X164433000Y-91385000D01*
X164433000Y-90327000D01*
X164687000Y-90327000D01*
X164687000Y-91385000D01*
X165387000Y-91385000D01*
X165830813Y-91246196D01*
X166187724Y-90948118D01*
X166403398Y-90536146D01*
X166403803Y-90509744D01*
X166278361Y-90327000D01*
X164687000Y-90327000D01*
X164433000Y-90327000D01*
X162841639Y-90327000D01*
X162716197Y-90509744D01*
X161616980Y-90509744D01*
X161392986Y-90285750D01*
X166555000Y-90285750D01*
X166555000Y-90726309D01*
X166651673Y-90959698D01*
X166830301Y-91138327D01*
X167063690Y-91235000D01*
X167354250Y-91235000D01*
X167513000Y-91076250D01*
X167513000Y-90127000D01*
X167767000Y-90127000D01*
X167767000Y-91076250D01*
X167925750Y-91235000D01*
X168216310Y-91235000D01*
X168449699Y-91138327D01*
X168628327Y-90959698D01*
X168725000Y-90726309D01*
X168725000Y-90285750D01*
X168566250Y-90127000D01*
X167767000Y-90127000D01*
X167513000Y-90127000D01*
X166713750Y-90127000D01*
X166555000Y-90285750D01*
X161392986Y-90285750D01*
X159307236Y-88200000D01*
X162538071Y-88200000D01*
X162628274Y-88653480D01*
X162885149Y-89037922D01*
X163186691Y-89239405D01*
X162932276Y-89451882D01*
X162716602Y-89863854D01*
X162716197Y-89890256D01*
X162841639Y-90073000D01*
X164433000Y-90073000D01*
X164433000Y-90053000D01*
X164687000Y-90053000D01*
X164687000Y-90073000D01*
X166278361Y-90073000D01*
X166403803Y-89890256D01*
X166403398Y-89863854D01*
X166187724Y-89451882D01*
X165844417Y-89165165D01*
X166025553Y-89044135D01*
X166140206Y-89021329D01*
X166428618Y-88828618D01*
X166568236Y-88689000D01*
X166621382Y-88689000D01*
X166725910Y-88851441D01*
X166794006Y-88897969D01*
X166651673Y-89040302D01*
X166555000Y-89273691D01*
X166555000Y-89714250D01*
X166713750Y-89873000D01*
X167513000Y-89873000D01*
X167513000Y-89853000D01*
X167767000Y-89853000D01*
X167767000Y-89873000D01*
X168566250Y-89873000D01*
X168725000Y-89714250D01*
X168725000Y-89273691D01*
X168628327Y-89040302D01*
X168487090Y-88899064D01*
X168541441Y-88864090D01*
X168686431Y-88651890D01*
X168737440Y-88400000D01*
X168737440Y-87200000D01*
X168693162Y-86964683D01*
X168554090Y-86748559D01*
X168341890Y-86603569D01*
X168090000Y-86552560D01*
X167190000Y-86552560D01*
X166954683Y-86596838D01*
X166738559Y-86735910D01*
X166618925Y-86911000D01*
X166219657Y-86911000D01*
X166391726Y-86653480D01*
X166481929Y-86200000D01*
X166391726Y-85746520D01*
X166134851Y-85362078D01*
X165892283Y-85200000D01*
X166058407Y-85089000D01*
X167260000Y-85089000D01*
X167600206Y-85021329D01*
X167888618Y-84828618D01*
X173983618Y-78733618D01*
X174176330Y-78445205D01*
X174244000Y-78105000D01*
X174244000Y-77377106D01*
X174434147Y-77250054D01*
X174623345Y-76966899D01*
X174623355Y-76966924D01*
X175013642Y-77395183D01*
X175538108Y-77641486D01*
X175768000Y-77520819D01*
X175768000Y-76327000D01*
X176022000Y-76327000D01*
X176022000Y-77520819D01*
X176251892Y-77641486D01*
X176776358Y-77395183D01*
X177166645Y-76966924D01*
X177336476Y-76556890D01*
X177215155Y-76327000D01*
X176022000Y-76327000D01*
X175768000Y-76327000D01*
X175748000Y-76327000D01*
X175748000Y-76073000D01*
X175768000Y-76073000D01*
X175768000Y-73787000D01*
X176022000Y-73787000D01*
X176022000Y-76073000D01*
X177215155Y-76073000D01*
X177336476Y-75843110D01*
X177166645Y-75433076D01*
X176776358Y-75004817D01*
X176617046Y-74930000D01*
X176776358Y-74855183D01*
X177166645Y-74426924D01*
X177336476Y-74016890D01*
X177215155Y-73787000D01*
X176022000Y-73787000D01*
X175768000Y-73787000D01*
X175748000Y-73787000D01*
X175748000Y-73533000D01*
X175768000Y-73533000D01*
X175768000Y-73513000D01*
X176022000Y-73513000D01*
X176022000Y-73533000D01*
X177215155Y-73533000D01*
X177336476Y-73303110D01*
X177166645Y-72893076D01*
X176776358Y-72464817D01*
X176633447Y-72397702D01*
X176644973Y-72390000D01*
X189155000Y-72390000D01*
X189354055Y-73390717D01*
X189920916Y-74239084D01*
X190769283Y-74805945D01*
X191770000Y-75005000D01*
X192770717Y-74805945D01*
X193619084Y-74239084D01*
X194185945Y-73390717D01*
X194385000Y-72390000D01*
X194185945Y-71389283D01*
X193619084Y-70540916D01*
X192770717Y-69974055D01*
X191770000Y-69775000D01*
X190769283Y-69974055D01*
X189920916Y-70540916D01*
X189354055Y-71389283D01*
X189155000Y-72390000D01*
X176644973Y-72390000D01*
X176974147Y-72170054D01*
X177296054Y-71688285D01*
X177409093Y-71120000D01*
X177296054Y-70551715D01*
X176974147Y-70069946D01*
X176492378Y-69748039D01*
X175924093Y-69635000D01*
X175865907Y-69635000D01*
X175297622Y-69748039D01*
X174815853Y-70069946D01*
X174815029Y-70071179D01*
X174808162Y-70034683D01*
X174669090Y-69818559D01*
X174456890Y-69673569D01*
X174205000Y-69622560D01*
X172505000Y-69622560D01*
X172269683Y-69666838D01*
X172053559Y-69805910D01*
X171908569Y-70018110D01*
X171857560Y-70270000D01*
X171857560Y-70725204D01*
X167271764Y-75311000D01*
X166058407Y-75311000D01*
X165750409Y-75105203D01*
X165296929Y-75015000D01*
X163823071Y-75015000D01*
X163369591Y-75105203D01*
X162985149Y-75362078D01*
X162728274Y-75746520D01*
X162638071Y-76200000D01*
X162728274Y-76653480D01*
X162985149Y-77037922D01*
X163227717Y-77200000D01*
X162985149Y-77362078D01*
X162728274Y-77746520D01*
X162638071Y-78200000D01*
X162728274Y-78653480D01*
X162985149Y-79037922D01*
X163227717Y-79200000D01*
X162985149Y-79362078D01*
X162728274Y-79746520D01*
X162638071Y-80200000D01*
X162728274Y-80653480D01*
X162985149Y-81037922D01*
X163227717Y-81200000D01*
X162985149Y-81362078D01*
X162728274Y-81746520D01*
X162638071Y-82200000D01*
X162728274Y-82653480D01*
X162985149Y-83037922D01*
X163227717Y-83200000D01*
X162985149Y-83362078D01*
X162728274Y-83746520D01*
X162638071Y-84200000D01*
X162728274Y-84653480D01*
X162985149Y-85037922D01*
X163227717Y-85200000D01*
X162985149Y-85362078D01*
X162728274Y-85746520D01*
X162638071Y-86200000D01*
X162728274Y-86653480D01*
X162985149Y-87037922D01*
X163177717Y-87166591D01*
X162885149Y-87362078D01*
X162628274Y-87746520D01*
X162538071Y-88200000D01*
X159307236Y-88200000D01*
X153289000Y-82181764D01*
X153289000Y-78740000D01*
X153221329Y-78399794D01*
X153028618Y-78111382D01*
X151057440Y-76140204D01*
X151057440Y-75650000D01*
X151013162Y-75414683D01*
X150874090Y-75198559D01*
X150661890Y-75053569D01*
X150410000Y-75002560D01*
X147910000Y-75002560D01*
X147674683Y-75046838D01*
X147458559Y-75185910D01*
X147313569Y-75398110D01*
X147262560Y-75650000D01*
X147262560Y-76750000D01*
X147306838Y-76985317D01*
X147445910Y-77201441D01*
X147633615Y-77329694D01*
X147585149Y-77362078D01*
X147328274Y-77746520D01*
X147238071Y-78200000D01*
X147328274Y-78653480D01*
X147585149Y-79037922D01*
X147827717Y-79200000D01*
X147752439Y-79250299D01*
X147660206Y-79188671D01*
X147320000Y-79121000D01*
X146952096Y-79121000D01*
X146944090Y-79108559D01*
X146731890Y-78963569D01*
X146480000Y-78912560D01*
X145280000Y-78912560D01*
X145044683Y-78956838D01*
X144828559Y-79095910D01*
X144780866Y-79165711D01*
X144744090Y-79108559D01*
X144531890Y-78963569D01*
X144280000Y-78912560D01*
X143080000Y-78912560D01*
X142844683Y-78956838D01*
X142628559Y-79095910D01*
X142599842Y-79137939D01*
X142344794Y-79188671D01*
X142075485Y-79368618D01*
X142056382Y-79381382D01*
X137256593Y-84181171D01*
X137140000Y-84157560D01*
X134759000Y-84157560D01*
X134759000Y-80984920D01*
X134843691Y-81020000D01*
X135084250Y-81020000D01*
X135243000Y-80861250D01*
X135243000Y-80137000D01*
X135497000Y-80137000D01*
X135497000Y-80861250D01*
X135655750Y-81020000D01*
X135896309Y-81020000D01*
X136129698Y-80923327D01*
X136308327Y-80744699D01*
X136405000Y-80511310D01*
X136405000Y-80295750D01*
X136246250Y-80137000D01*
X135497000Y-80137000D01*
X135243000Y-80137000D01*
X135223000Y-80137000D01*
X135223000Y-79883000D01*
X135243000Y-79883000D01*
X135243000Y-79158750D01*
X135497000Y-79158750D01*
X135497000Y-79883000D01*
X136246250Y-79883000D01*
X136405000Y-79724250D01*
X136405000Y-79508690D01*
X136308327Y-79275301D01*
X136129698Y-79096673D01*
X135896309Y-79000000D01*
X135655750Y-79000000D01*
X135497000Y-79158750D01*
X135243000Y-79158750D01*
X135084250Y-79000000D01*
X134843691Y-79000000D01*
X134610302Y-79096673D01*
X134608932Y-79098043D01*
X134521890Y-79038569D01*
X134270000Y-78987560D01*
X134009000Y-78987560D01*
X134009000Y-78197440D01*
X134070000Y-78197440D01*
X134305317Y-78153162D01*
X134521441Y-78014090D01*
X134666431Y-77801890D01*
X134717440Y-77550000D01*
X134717440Y-77045466D01*
X134810302Y-77138327D01*
X135043691Y-77235000D01*
X135834250Y-77235000D01*
X135993000Y-77076250D01*
X135993000Y-76327000D01*
X136247000Y-76327000D01*
X136247000Y-77076250D01*
X136405750Y-77235000D01*
X137196309Y-77235000D01*
X137429698Y-77138327D01*
X137608327Y-76959699D01*
X137705000Y-76726310D01*
X137705000Y-76485750D01*
X137546250Y-76327000D01*
X136247000Y-76327000D01*
X135993000Y-76327000D01*
X134693750Y-76327000D01*
X134607738Y-76413012D01*
X134534090Y-76298559D01*
X134388917Y-76199367D01*
X134521441Y-76114090D01*
X134608064Y-75987314D01*
X134693750Y-76073000D01*
X135993000Y-76073000D01*
X135993000Y-75323750D01*
X136247000Y-75323750D01*
X136247000Y-76073000D01*
X137546250Y-76073000D01*
X137705000Y-75914250D01*
X137705000Y-75673690D01*
X137608327Y-75440301D01*
X137429698Y-75261673D01*
X137196309Y-75165000D01*
X136405750Y-75165000D01*
X136247000Y-75323750D01*
X135993000Y-75323750D01*
X135834250Y-75165000D01*
X135043691Y-75165000D01*
X134810302Y-75261673D01*
X134717440Y-75354534D01*
X134717440Y-74850000D01*
X134673162Y-74614683D01*
X134534090Y-74398559D01*
X134321890Y-74253569D01*
X134263000Y-74241643D01*
X134263000Y-73454827D01*
X134307407Y-73445994D01*
X134391972Y-73389489D01*
X134505317Y-73368162D01*
X134608646Y-73301671D01*
X134610302Y-73303327D01*
X134843691Y-73400000D01*
X135084250Y-73400000D01*
X135243000Y-73241250D01*
X135243000Y-72517000D01*
X135497000Y-72517000D01*
X135497000Y-73241250D01*
X135655750Y-73400000D01*
X135896309Y-73400000D01*
X136129698Y-73303327D01*
X136308327Y-73124699D01*
X136405000Y-72891310D01*
X136405000Y-72675750D01*
X136246250Y-72517000D01*
X135497000Y-72517000D01*
X135243000Y-72517000D01*
X135223000Y-72517000D01*
X135223000Y-72263000D01*
X135243000Y-72263000D01*
X135243000Y-71538750D01*
X135497000Y-71538750D01*
X135497000Y-72263000D01*
X136246250Y-72263000D01*
X136405000Y-72104250D01*
X136405000Y-71888690D01*
X136308327Y-71655301D01*
X136129698Y-71476673D01*
X135896309Y-71380000D01*
X135655750Y-71380000D01*
X135497000Y-71538750D01*
X135243000Y-71538750D01*
X135084250Y-71380000D01*
X134843691Y-71380000D01*
X134610302Y-71476673D01*
X134608932Y-71478043D01*
X134521890Y-71418569D01*
X134395729Y-71393021D01*
X134307407Y-71334006D01*
X133870000Y-71247000D01*
X130810000Y-71247000D01*
X130372593Y-71334006D01*
X130001777Y-71581777D01*
X128731777Y-72851777D01*
X128484006Y-73222593D01*
X128397000Y-73660000D01*
X128397000Y-75726554D01*
X125390914Y-78732640D01*
X122074940Y-78732640D01*
X121839623Y-78776918D01*
X121623499Y-78915990D01*
X121511060Y-79080550D01*
X121511060Y-78416150D01*
X121352310Y-78257400D01*
X119253000Y-78257400D01*
X119253000Y-78277400D01*
X118999000Y-78277400D01*
X118999000Y-78257400D01*
X116899690Y-78257400D01*
X116740940Y-78416150D01*
X116740940Y-80006769D01*
X116794884Y-80137000D01*
X115240043Y-80137000D01*
X114897378Y-79908039D01*
X114329093Y-79795000D01*
X114270907Y-79795000D01*
X113702622Y-79908039D01*
X113220853Y-80229946D01*
X112898946Y-80711715D01*
X112785907Y-81280000D01*
X112470000Y-81280000D01*
X112470000Y-76254031D01*
X116740940Y-76254031D01*
X116740940Y-77844650D01*
X116899690Y-78003400D01*
X118999000Y-78003400D01*
X118999000Y-75904090D01*
X119253000Y-75904090D01*
X119253000Y-78003400D01*
X121352310Y-78003400D01*
X121511060Y-77844650D01*
X121511060Y-77178728D01*
X121536613Y-77240418D01*
X121715241Y-77419047D01*
X121948630Y-77515720D01*
X123539250Y-77515720D01*
X123698000Y-77356970D01*
X123698000Y-75257660D01*
X123952000Y-75257660D01*
X123952000Y-77356970D01*
X124110750Y-77515720D01*
X125701370Y-77515720D01*
X125934759Y-77419047D01*
X126113387Y-77240418D01*
X126210060Y-77007029D01*
X126210060Y-75416410D01*
X126051310Y-75257660D01*
X123952000Y-75257660D01*
X123698000Y-75257660D01*
X121598690Y-75257660D01*
X121439940Y-75416410D01*
X121439940Y-76082332D01*
X121414387Y-76020642D01*
X121235759Y-75842013D01*
X121002370Y-75745340D01*
X119411750Y-75745340D01*
X119253000Y-75904090D01*
X118999000Y-75904090D01*
X118840250Y-75745340D01*
X117249630Y-75745340D01*
X117016241Y-75842013D01*
X116837613Y-76020642D01*
X116740940Y-76254031D01*
X112470000Y-76254031D01*
X112470000Y-72390000D01*
X112955000Y-72390000D01*
X113154055Y-73390717D01*
X113720916Y-74239084D01*
X114569283Y-74805945D01*
X115570000Y-75005000D01*
X116570717Y-74805945D01*
X117419084Y-74239084D01*
X117985945Y-73390717D01*
X118013081Y-73254291D01*
X121439940Y-73254291D01*
X121439940Y-74844910D01*
X121598690Y-75003660D01*
X123698000Y-75003660D01*
X123698000Y-72904350D01*
X123952000Y-72904350D01*
X123952000Y-75003660D01*
X126051310Y-75003660D01*
X126210060Y-74844910D01*
X126210060Y-73254291D01*
X126113387Y-73020902D01*
X125934759Y-72842273D01*
X125701370Y-72745600D01*
X124110750Y-72745600D01*
X123952000Y-72904350D01*
X123698000Y-72904350D01*
X123539250Y-72745600D01*
X121948630Y-72745600D01*
X121715241Y-72842273D01*
X121536613Y-73020902D01*
X121439940Y-73254291D01*
X118013081Y-73254291D01*
X118185000Y-72390000D01*
X117985945Y-71389283D01*
X117419084Y-70540916D01*
X116570717Y-69974055D01*
X115570000Y-69775000D01*
X114569283Y-69974055D01*
X113720916Y-70540916D01*
X113154055Y-71389283D01*
X112955000Y-72390000D01*
X112470000Y-72390000D01*
X112470000Y-69290000D01*
X140230394Y-69290000D01*
X144690197Y-73749803D01*
X144690197Y-73749803D01*
G37*
X144690197Y-73749803D02*
X144730590Y-73776994D01*
X144780000Y-73787000D01*
X167640000Y-73787000D01*
X167687789Y-73777666D01*
X167729803Y-73749803D01*
X172189606Y-69290000D01*
X180437827Y-69290000D01*
X180169722Y-69557637D01*
X179920284Y-70158352D01*
X179919716Y-70808795D01*
X180168106Y-71409943D01*
X180627637Y-71870278D01*
X181228352Y-72119716D01*
X181878795Y-72120284D01*
X182479943Y-71871894D01*
X182714715Y-71637532D01*
X185082073Y-71637532D01*
X185180736Y-71904387D01*
X185790461Y-72130908D01*
X186440460Y-72106856D01*
X186929264Y-71904387D01*
X187027927Y-71637532D01*
X186055000Y-70664605D01*
X185082073Y-71637532D01*
X182714715Y-71637532D01*
X182940278Y-71412363D01*
X183189716Y-70811648D01*
X183190232Y-70220461D01*
X184409092Y-70220461D01*
X184433144Y-70870460D01*
X184635613Y-71359264D01*
X184902468Y-71457927D01*
X185875395Y-70485000D01*
X186234605Y-70485000D01*
X187207532Y-71457927D01*
X187474387Y-71359264D01*
X187700908Y-70749539D01*
X187676856Y-70099540D01*
X187474387Y-69610736D01*
X187207532Y-69512073D01*
X186234605Y-70485000D01*
X185875395Y-70485000D01*
X184902468Y-69512073D01*
X184635613Y-69610736D01*
X184409092Y-70220461D01*
X183190232Y-70220461D01*
X183190284Y-70161205D01*
X182941894Y-69560057D01*
X182672309Y-69290000D01*
X185097774Y-69290000D01*
X185082073Y-69332468D01*
X186055000Y-70305395D01*
X187027927Y-69332468D01*
X187012226Y-69290000D01*
X194870000Y-69290000D01*
X194870000Y-111050000D01*
X112470000Y-111050000D01*
X112470000Y-107950000D01*
X112955000Y-107950000D01*
X113154055Y-108950717D01*
X113720916Y-109799084D01*
X114569283Y-110365945D01*
X115570000Y-110565000D01*
X116570717Y-110365945D01*
X117419084Y-109799084D01*
X117985945Y-108950717D01*
X118185000Y-107950000D01*
X117985945Y-106949283D01*
X117419084Y-106100916D01*
X116570717Y-105534055D01*
X115570000Y-105335000D01*
X114569283Y-105534055D01*
X113720916Y-106100916D01*
X113154055Y-106949283D01*
X112955000Y-107950000D01*
X112470000Y-107950000D01*
X112470000Y-102422960D01*
X113998000Y-102422960D01*
X113998000Y-104272080D01*
X114042278Y-104507397D01*
X114181350Y-104723521D01*
X114393550Y-104868511D01*
X114645440Y-104919520D01*
X116494560Y-104919520D01*
X116729877Y-104875242D01*
X116946001Y-104736170D01*
X117090991Y-104523970D01*
X117142000Y-104272080D01*
X117142000Y-104093275D01*
X123195000Y-104093275D01*
X123195000Y-104186725D01*
X123376547Y-105099425D01*
X123893550Y-105873175D01*
X124667300Y-106390178D01*
X125580000Y-106571725D01*
X126492700Y-106390178D01*
X127266450Y-105873175D01*
X127783453Y-105099425D01*
X127965000Y-104186725D01*
X127965000Y-104093275D01*
X127783453Y-103180575D01*
X127266450Y-102406825D01*
X126492700Y-101889822D01*
X125580000Y-101708275D01*
X124667300Y-101889822D01*
X123893550Y-102406825D01*
X123376547Y-103180575D01*
X123195000Y-104093275D01*
X117142000Y-104093275D01*
X117142000Y-102422960D01*
X117097722Y-102187643D01*
X116958650Y-101971519D01*
X116746450Y-101826529D01*
X116494560Y-101775520D01*
X114645440Y-101775520D01*
X114410123Y-101819798D01*
X114193999Y-101958870D01*
X114049009Y-102171070D01*
X113998000Y-102422960D01*
X112470000Y-102422960D01*
X112470000Y-100161335D01*
X114010169Y-100161335D01*
X114247098Y-100734746D01*
X114685427Y-101173840D01*
X115258423Y-101411769D01*
X115878855Y-101412311D01*
X116307355Y-101235258D01*
X140748954Y-101235258D01*
X140869003Y-101473000D01*
X142113000Y-101473000D01*
X142113000Y-100229622D01*
X141875260Y-100108964D01*
X141443583Y-100287760D01*
X141002034Y-100692424D01*
X140748954Y-101235258D01*
X116307355Y-101235258D01*
X116452266Y-101175382D01*
X116891360Y-100737053D01*
X117129289Y-100164057D01*
X117129831Y-99543625D01*
X116892902Y-98970214D01*
X116454573Y-98531120D01*
X115881577Y-98293191D01*
X115261145Y-98292649D01*
X114687734Y-98529578D01*
X114248640Y-98967907D01*
X114010711Y-99540903D01*
X114010169Y-100161335D01*
X112470000Y-100161335D01*
X112470000Y-95437960D01*
X113998000Y-95437960D01*
X113998000Y-97287080D01*
X114042278Y-97522397D01*
X114181350Y-97738521D01*
X114393550Y-97883511D01*
X114645440Y-97934520D01*
X116494560Y-97934520D01*
X116729877Y-97890242D01*
X116946001Y-97751170D01*
X117090991Y-97538970D01*
X117142000Y-97287080D01*
X117142000Y-95437960D01*
X117097722Y-95202643D01*
X116958650Y-94986519D01*
X116746450Y-94841529D01*
X116494560Y-94790520D01*
X114645440Y-94790520D01*
X114410123Y-94834798D01*
X114193999Y-94973870D01*
X114049009Y-95186070D01*
X113998000Y-95437960D01*
X112470000Y-95437960D01*
X112470000Y-81280000D01*
X112785907Y-81280000D01*
X112898946Y-81848285D01*
X113220853Y-82330054D01*
X113550026Y-82550000D01*
X113220853Y-82769946D01*
X112898946Y-83251715D01*
X112785907Y-83820000D01*
X112898946Y-84388285D01*
X113220853Y-84870054D01*
X113550026Y-85090000D01*
X113220853Y-85309946D01*
X112898946Y-85791715D01*
X112785907Y-86360000D01*
X112898946Y-86928285D01*
X113220853Y-87410054D01*
X113262452Y-87437850D01*
X113214683Y-87446838D01*
X112998559Y-87585910D01*
X112853569Y-87798110D01*
X112802560Y-88050000D01*
X112802560Y-89750000D01*
X112846838Y-89985317D01*
X112985910Y-90201441D01*
X113198110Y-90346431D01*
X113450000Y-90397440D01*
X115150000Y-90397440D01*
X115385317Y-90353162D01*
X115601441Y-90214090D01*
X115746431Y-90001890D01*
X115797440Y-89750000D01*
X115797440Y-88050000D01*
X115753162Y-87814683D01*
X115614090Y-87598559D01*
X115401890Y-87453569D01*
X115334459Y-87439914D01*
X115379147Y-87410054D01*
X115701054Y-86928285D01*
X115814093Y-86360000D01*
X115701054Y-85791715D01*
X115379147Y-85309946D01*
X115049974Y-85090000D01*
X115379147Y-84870054D01*
X115701054Y-84388285D01*
X115814093Y-83820000D01*
X115701054Y-83251715D01*
X115379147Y-82769946D01*
X115049974Y-82550000D01*
X115240043Y-82423000D01*
X121427500Y-82423000D01*
X121427500Y-82880200D01*
X121471778Y-83115517D01*
X121610850Y-83331641D01*
X121823050Y-83476631D01*
X122074940Y-83527640D01*
X122682000Y-83527640D01*
X122682000Y-91601554D01*
X122559074Y-91724480D01*
X116632622Y-91724480D01*
X116454573Y-91546120D01*
X115881577Y-91308191D01*
X115261145Y-91307649D01*
X114687734Y-91544578D01*
X114248640Y-91982907D01*
X114010711Y-92555903D01*
X114010169Y-93176335D01*
X114247098Y-93749746D01*
X114685427Y-94188840D01*
X115258423Y-94426769D01*
X115878855Y-94427311D01*
X116452266Y-94190382D01*
X116632482Y-94010480D01*
X123032520Y-94010480D01*
X123469927Y-93923474D01*
X123599460Y-93836923D01*
X123571000Y-93980000D01*
X123571000Y-97790000D01*
X123638671Y-98130206D01*
X123831382Y-98418618D01*
X124119794Y-98611329D01*
X124460000Y-98679000D01*
X124800206Y-98611329D01*
X125088618Y-98418618D01*
X125281329Y-98130206D01*
X125349000Y-97790000D01*
X125349000Y-95090750D01*
X134005000Y-95090750D01*
X134005000Y-96931309D01*
X134101673Y-97164698D01*
X134280301Y-97343327D01*
X134513690Y-97440000D01*
X135604250Y-97440000D01*
X135763000Y-97281250D01*
X135763000Y-94932000D01*
X136017000Y-94932000D01*
X136017000Y-97281250D01*
X136175750Y-97440000D01*
X137266310Y-97440000D01*
X137499699Y-97343327D01*
X137678327Y-97164698D01*
X137775000Y-96931309D01*
X137775000Y-96285750D01*
X148850000Y-96285750D01*
X148850000Y-96526309D01*
X148946673Y-96759698D01*
X149125301Y-96938327D01*
X149358690Y-97035000D01*
X149574250Y-97035000D01*
X149733000Y-96876250D01*
X149733000Y-96127000D01*
X149987000Y-96127000D01*
X149987000Y-96876250D01*
X150145750Y-97035000D01*
X150361310Y-97035000D01*
X150594699Y-96938327D01*
X150773327Y-96759698D01*
X150870000Y-96526309D01*
X150870000Y-96285750D01*
X150711250Y-96127000D01*
X149987000Y-96127000D01*
X149733000Y-96127000D01*
X149008750Y-96127000D01*
X148850000Y-96285750D01*
X137775000Y-96285750D01*
X137775000Y-95090750D01*
X137616250Y-94932000D01*
X136017000Y-94932000D01*
X135763000Y-94932000D01*
X134163750Y-94932000D01*
X134005000Y-95090750D01*
X125349000Y-95090750D01*
X125349000Y-93980000D01*
X125281329Y-93639794D01*
X125088618Y-93351382D01*
X124800206Y-93158671D01*
X124460000Y-93091000D01*
X124416866Y-93099580D01*
X124633223Y-92883223D01*
X124769886Y-92678691D01*
X134005000Y-92678691D01*
X134005000Y-94519250D01*
X134163750Y-94678000D01*
X135763000Y-94678000D01*
X135763000Y-92328750D01*
X136017000Y-92328750D01*
X136017000Y-94678000D01*
X137616250Y-94678000D01*
X137775000Y-94519250D01*
X137775000Y-92678691D01*
X137678327Y-92445302D01*
X137499699Y-92266673D01*
X137266310Y-92170000D01*
X136175750Y-92170000D01*
X136017000Y-92328750D01*
X135763000Y-92328750D01*
X135604250Y-92170000D01*
X134513690Y-92170000D01*
X134280301Y-92266673D01*
X134101673Y-92445302D01*
X134005000Y-92678691D01*
X124769886Y-92678691D01*
X124880994Y-92512407D01*
X124968000Y-92075000D01*
X124968000Y-83527640D01*
X125575060Y-83527640D01*
X125810377Y-83483362D01*
X126026501Y-83344290D01*
X126171491Y-83132090D01*
X126222500Y-82880200D01*
X126222500Y-81133946D01*
X130348223Y-77008223D01*
X130595994Y-76637407D01*
X130683000Y-76200000D01*
X130683000Y-74133446D01*
X131283446Y-73533000D01*
X131977000Y-73533000D01*
X131977000Y-74238875D01*
X131934683Y-74246838D01*
X131718559Y-74385910D01*
X131573569Y-74598110D01*
X131522560Y-74850000D01*
X131522560Y-75650000D01*
X131566838Y-75885317D01*
X131705910Y-76101441D01*
X131851083Y-76200633D01*
X131718559Y-76285910D01*
X131573569Y-76498110D01*
X131522560Y-76750000D01*
X131522560Y-77550000D01*
X131566838Y-77785317D01*
X131705910Y-78001441D01*
X131918110Y-78146431D01*
X132170000Y-78197440D01*
X132231000Y-78197440D01*
X132231000Y-79780000D01*
X132298671Y-80120206D01*
X132406889Y-80282165D01*
X132491382Y-80408618D01*
X132721382Y-80638618D01*
X132981000Y-80812089D01*
X132981000Y-84785000D01*
X133048671Y-85125206D01*
X133172815Y-85311000D01*
X133241382Y-85413618D01*
X133992560Y-86164796D01*
X133992560Y-88805000D01*
X134036838Y-89040317D01*
X134175910Y-89256441D01*
X134388110Y-89401431D01*
X134640000Y-89452440D01*
X137140000Y-89452440D01*
X137375317Y-89408162D01*
X137591441Y-89269090D01*
X137736431Y-89056890D01*
X137787440Y-88805000D01*
X137787440Y-87694000D01*
X142316764Y-87694000D01*
X145191000Y-90568236D01*
X145191000Y-91470000D01*
X145258671Y-91810206D01*
X145375608Y-91985214D01*
X145451382Y-92098618D01*
X146691382Y-93338618D01*
X146979795Y-93531329D01*
X147320000Y-93599000D01*
X147660205Y-93531329D01*
X147948618Y-93338618D01*
X148141329Y-93050205D01*
X148209000Y-92710000D01*
X148141329Y-92369795D01*
X147948618Y-92081382D01*
X146969000Y-91101764D01*
X146969000Y-91089000D01*
X147661593Y-91089000D01*
X147969591Y-91294797D01*
X148423071Y-91385000D01*
X148971000Y-91385000D01*
X148971000Y-93727468D01*
X148888569Y-93848110D01*
X148837560Y-94100000D01*
X148837560Y-94900000D01*
X148881838Y-95135317D01*
X148948329Y-95238646D01*
X148946673Y-95240302D01*
X148850000Y-95473691D01*
X148850000Y-95714250D01*
X149008750Y-95873000D01*
X149733000Y-95873000D01*
X149733000Y-95853000D01*
X149987000Y-95853000D01*
X149987000Y-95873000D01*
X150711250Y-95873000D01*
X150870000Y-95714250D01*
X150870000Y-95473691D01*
X150773327Y-95240302D01*
X150771957Y-95238932D01*
X150831431Y-95151890D01*
X150882440Y-94900000D01*
X150882440Y-94100000D01*
X150838162Y-93864683D01*
X150749000Y-93726121D01*
X150749000Y-91016746D01*
X150991726Y-90653480D01*
X151081929Y-90200000D01*
X151059374Y-90086610D01*
X152781000Y-91808236D01*
X152781000Y-93077904D01*
X152768559Y-93085910D01*
X152623569Y-93298110D01*
X152572560Y-93550000D01*
X152572560Y-94750000D01*
X152616838Y-94985317D01*
X152755910Y-95201441D01*
X152825711Y-95249134D01*
X152768559Y-95285910D01*
X152623569Y-95498110D01*
X152572560Y-95750000D01*
X152572560Y-96950000D01*
X152616838Y-97185317D01*
X152755910Y-97401441D01*
X152781000Y-97418584D01*
X152781000Y-98691764D01*
X152031764Y-99441000D01*
X146050000Y-99441000D01*
X145709795Y-99508670D01*
X145421382Y-99701382D01*
X143649766Y-101472998D01*
X143610998Y-101472998D01*
X143731046Y-101235258D01*
X143477966Y-100692424D01*
X143036417Y-100287760D01*
X142604740Y-100108964D01*
X142367000Y-100229622D01*
X142367000Y-101473000D01*
X142387000Y-101473000D01*
X142387000Y-101727000D01*
X142367000Y-101727000D01*
X142367000Y-101747000D01*
X142113000Y-101747000D01*
X142113000Y-101727000D01*
X140869003Y-101727000D01*
X140748954Y-101964742D01*
X141002034Y-102507576D01*
X141392582Y-102865499D01*
X141154591Y-103024519D01*
X140821845Y-103522509D01*
X140705000Y-104109928D01*
X140705000Y-104170072D01*
X140821845Y-104757491D01*
X141102837Y-105178026D01*
X140888559Y-105315910D01*
X140743569Y-105528110D01*
X140692560Y-105780000D01*
X140692560Y-107580000D01*
X140736838Y-107815317D01*
X140875910Y-108031441D01*
X141088110Y-108176431D01*
X141340000Y-108227440D01*
X143140000Y-108227440D01*
X143375317Y-108183162D01*
X143591441Y-108044090D01*
X143736431Y-107831890D01*
X143787440Y-107580000D01*
X143787440Y-105780000D01*
X143743162Y-105544683D01*
X143604090Y-105328559D01*
X143391890Y-105183569D01*
X143375656Y-105180281D01*
X143658155Y-104757491D01*
X143775000Y-104170072D01*
X143775000Y-104109928D01*
X143771688Y-104093275D01*
X144785000Y-104093275D01*
X144785000Y-104186725D01*
X144966547Y-105099425D01*
X145483550Y-105873175D01*
X146257300Y-106390178D01*
X147170000Y-106571725D01*
X148082700Y-106390178D01*
X148856450Y-105873175D01*
X149373453Y-105099425D01*
X149555000Y-104186725D01*
X149555000Y-104093275D01*
X149373453Y-103180575D01*
X148856450Y-102406825D01*
X148082700Y-101889822D01*
X147170000Y-101708275D01*
X146257300Y-101889822D01*
X145483550Y-102406825D01*
X144966547Y-103180575D01*
X144785000Y-104093275D01*
X143771688Y-104093275D01*
X143733905Y-103903331D01*
X146418236Y-101219000D01*
X152400000Y-101219000D01*
X152740206Y-101151329D01*
X153028618Y-100958618D01*
X154298618Y-99688618D01*
X154397318Y-99540903D01*
X154491329Y-99400206D01*
X154559000Y-99060000D01*
X154559000Y-97422096D01*
X154571441Y-97414090D01*
X154716431Y-97201890D01*
X154767440Y-96950000D01*
X154767440Y-95750000D01*
X154723162Y-95514683D01*
X154584090Y-95298559D01*
X154514289Y-95250866D01*
X154571441Y-95214090D01*
X154716431Y-95001890D01*
X154767440Y-94750000D01*
X154767440Y-93550000D01*
X154723162Y-93314683D01*
X154584090Y-93098559D01*
X154559000Y-93081416D01*
X154559000Y-91440000D01*
X154491329Y-91099794D01*
X154298618Y-90811382D01*
X151058618Y-87571382D01*
X150891616Y-87459795D01*
X150770206Y-87378671D01*
X150742218Y-87373104D01*
X150734851Y-87362078D01*
X150492283Y-87200000D01*
X150624452Y-87111688D01*
X155321000Y-91808236D01*
X155321000Y-93077904D01*
X155308559Y-93085910D01*
X155163569Y-93298110D01*
X155112560Y-93550000D01*
X155112560Y-94750000D01*
X155156838Y-94985317D01*
X155295910Y-95201441D01*
X155365711Y-95249134D01*
X155308559Y-95285910D01*
X155163569Y-95498110D01*
X155112560Y-95750000D01*
X155112560Y-96950000D01*
X155156838Y-97185317D01*
X155295910Y-97401441D01*
X155321000Y-97418584D01*
X155321000Y-99060000D01*
X155388671Y-99400206D01*
X155482682Y-99540903D01*
X155581382Y-99688618D01*
X160661382Y-104768618D01*
X160949794Y-104961329D01*
X161290000Y-105029000D01*
X162593261Y-105029000D01*
X162692837Y-105178026D01*
X162478559Y-105315910D01*
X162333569Y-105528110D01*
X162282560Y-105780000D01*
X162282560Y-107580000D01*
X162326838Y-107815317D01*
X162465910Y-108031441D01*
X162678110Y-108176431D01*
X162930000Y-108227440D01*
X164730000Y-108227440D01*
X164965317Y-108183162D01*
X165181441Y-108044090D01*
X165326431Y-107831890D01*
X165377440Y-107580000D01*
X165377440Y-105780000D01*
X165333162Y-105544683D01*
X165194090Y-105328559D01*
X164981890Y-105183569D01*
X164965656Y-105180281D01*
X165248155Y-104757491D01*
X165365000Y-104170072D01*
X165365000Y-104109928D01*
X165361688Y-104093275D01*
X167645000Y-104093275D01*
X167645000Y-104186725D01*
X167826547Y-105099425D01*
X168343550Y-105873175D01*
X169117300Y-106390178D01*
X170030000Y-106571725D01*
X170942700Y-106390178D01*
X171716450Y-105873175D01*
X172233453Y-105099425D01*
X172415000Y-104186725D01*
X172415000Y-104093275D01*
X172233453Y-103180575D01*
X171716450Y-102406825D01*
X170942700Y-101889822D01*
X170030000Y-101708275D01*
X169117300Y-101889822D01*
X168343550Y-102406825D01*
X167826547Y-103180575D01*
X167645000Y-104093275D01*
X165361688Y-104093275D01*
X165248155Y-103522509D01*
X164915409Y-103024519D01*
X164677418Y-102865499D01*
X165067966Y-102507576D01*
X165321046Y-101964742D01*
X165200997Y-101727000D01*
X163957000Y-101727000D01*
X163957000Y-101747000D01*
X163703000Y-101747000D01*
X163703000Y-101727000D01*
X162459003Y-101727000D01*
X162338954Y-101964742D01*
X162592034Y-102507576D01*
X162982582Y-102865499D01*
X162744591Y-103024519D01*
X162593261Y-103251000D01*
X161658236Y-103251000D01*
X159642494Y-101235258D01*
X162338954Y-101235258D01*
X162459003Y-101473000D01*
X163703000Y-101473000D01*
X163703000Y-100229622D01*
X163957000Y-100229622D01*
X163957000Y-101473000D01*
X165200997Y-101473000D01*
X165321046Y-101235258D01*
X165067966Y-100692424D01*
X164626417Y-100287760D01*
X164194740Y-100108964D01*
X163957000Y-100229622D01*
X163703000Y-100229622D01*
X163465260Y-100108964D01*
X163033583Y-100287760D01*
X162592034Y-100692424D01*
X162338954Y-101235258D01*
X159642494Y-101235258D01*
X157099000Y-98691764D01*
X157099000Y-97422096D01*
X157111441Y-97414090D01*
X157256431Y-97201890D01*
X157307440Y-96950000D01*
X157307440Y-95750000D01*
X157263162Y-95514683D01*
X157124090Y-95298559D01*
X157054289Y-95250866D01*
X157111441Y-95214090D01*
X157256431Y-95001890D01*
X157307440Y-94750000D01*
X157307440Y-93550000D01*
X157263162Y-93314683D01*
X157124090Y-93098559D01*
X157099000Y-93081416D01*
X157099000Y-91440000D01*
X157031329Y-91099794D01*
X156838618Y-90811382D01*
X151598618Y-85571382D01*
X151310206Y-85378671D01*
X150970000Y-85311000D01*
X150658407Y-85311000D01*
X150492283Y-85200000D01*
X150658407Y-85089000D01*
X151141764Y-85089000D01*
X157861000Y-91808236D01*
X157861000Y-93077904D01*
X157848559Y-93085910D01*
X157703569Y-93298110D01*
X157652560Y-93550000D01*
X157652560Y-94750000D01*
X157696838Y-94985317D01*
X157835910Y-95201441D01*
X157905711Y-95249134D01*
X157848559Y-95285910D01*
X157703569Y-95498110D01*
X157652560Y-95750000D01*
X157652560Y-96950000D01*
X157696838Y-97185317D01*
X157835910Y-97401441D01*
X157861000Y-97418584D01*
X157861000Y-97790000D01*
X157928671Y-98130206D01*
X158121382Y-98418618D01*
X159391382Y-99688618D01*
X159679794Y-99881329D01*
X160020000Y-99949000D01*
X177431764Y-99949000D01*
X182251382Y-104768618D01*
X182539794Y-104961329D01*
X182880000Y-105029000D01*
X185453261Y-105029000D01*
X185552837Y-105178026D01*
X185338559Y-105315910D01*
X185193569Y-105528110D01*
X185142560Y-105780000D01*
X185142560Y-107580000D01*
X185186838Y-107815317D01*
X185325910Y-108031441D01*
X185538110Y-108176431D01*
X185790000Y-108227440D01*
X187590000Y-108227440D01*
X187825317Y-108183162D01*
X188041441Y-108044090D01*
X188105729Y-107950000D01*
X188520000Y-107950000D01*
X188719055Y-108950717D01*
X189285916Y-109799084D01*
X190134283Y-110365945D01*
X191135000Y-110565000D01*
X192135717Y-110365945D01*
X192984084Y-109799084D01*
X193550945Y-108950717D01*
X193750000Y-107950000D01*
X193550945Y-106949283D01*
X192984084Y-106100916D01*
X192135717Y-105534055D01*
X191135000Y-105335000D01*
X190134283Y-105534055D01*
X189285916Y-106100916D01*
X188719055Y-106949283D01*
X188520000Y-107950000D01*
X188105729Y-107950000D01*
X188186431Y-107831890D01*
X188237440Y-107580000D01*
X188237440Y-105780000D01*
X188193162Y-105544683D01*
X188054090Y-105328559D01*
X187841890Y-105183569D01*
X187825656Y-105180281D01*
X188108155Y-104757491D01*
X188225000Y-104170072D01*
X188225000Y-104109928D01*
X188108155Y-103522509D01*
X187775409Y-103024519D01*
X187537418Y-102865499D01*
X187927966Y-102507576D01*
X188181046Y-101964742D01*
X188060997Y-101727000D01*
X186817000Y-101727000D01*
X186817000Y-101747000D01*
X186563000Y-101747000D01*
X186563000Y-101727000D01*
X185319003Y-101727000D01*
X185198954Y-101964742D01*
X185452034Y-102507576D01*
X185842582Y-102865499D01*
X185604591Y-103024519D01*
X185453261Y-103251000D01*
X183248236Y-103251000D01*
X181232494Y-101235258D01*
X185198954Y-101235258D01*
X185319003Y-101473000D01*
X186563000Y-101473000D01*
X186563000Y-100229622D01*
X186817000Y-100229622D01*
X186817000Y-101473000D01*
X188060997Y-101473000D01*
X188181046Y-101235258D01*
X187927966Y-100692424D01*
X187486417Y-100287760D01*
X187054740Y-100108964D01*
X186817000Y-100229622D01*
X186563000Y-100229622D01*
X186325260Y-100108964D01*
X185893583Y-100287760D01*
X185452034Y-100692424D01*
X185198954Y-101235258D01*
X181232494Y-101235258D01*
X178428618Y-98431382D01*
X178409515Y-98418618D01*
X178140206Y-98238671D01*
X177800000Y-98171000D01*
X160388236Y-98171000D01*
X159639202Y-97421966D01*
X159651441Y-97414090D01*
X159796431Y-97201890D01*
X159847440Y-96950000D01*
X159847440Y-95750000D01*
X159803162Y-95514683D01*
X159664090Y-95298559D01*
X159594289Y-95250866D01*
X159651441Y-95214090D01*
X159796431Y-95001890D01*
X159847440Y-94750000D01*
X159847440Y-93550000D01*
X159803162Y-93314683D01*
X159664090Y-93098559D01*
X159639000Y-93081416D01*
X159639000Y-91440000D01*
X159571329Y-91099794D01*
X159378618Y-90811382D01*
X152138618Y-83571382D01*
X152096047Y-83542937D01*
X151850206Y-83378671D01*
X151510000Y-83311000D01*
X150658407Y-83311000D01*
X150492283Y-83200000D01*
X150734851Y-83037922D01*
X150991726Y-82653480D01*
X151081929Y-82200000D01*
X150991726Y-81746520D01*
X150734851Y-81362078D01*
X150492283Y-81200000D01*
X150734851Y-81037922D01*
X150991726Y-80653480D01*
X151081929Y-80200000D01*
X150991726Y-79746520D01*
X150734851Y-79362078D01*
X150492283Y-79200000D01*
X150734851Y-79037922D01*
X150991726Y-78653480D01*
X151002430Y-78599666D01*
X151511000Y-79108236D01*
X151511000Y-82550000D01*
X151578671Y-82890206D01*
X151662056Y-83015000D01*
X151771382Y-83178618D01*
X163201382Y-94608618D01*
X163489794Y-94801329D01*
X163830000Y-94869000D01*
X172720000Y-94869000D01*
X173060206Y-94801329D01*
X173348618Y-94608618D01*
X182183618Y-85773618D01*
X182201724Y-85746520D01*
X182376329Y-85485206D01*
X182444000Y-85145000D01*
X182444000Y-78386745D01*
X182479943Y-78371894D01*
X182714715Y-78137532D01*
X185082073Y-78137532D01*
X185180736Y-78404387D01*
X185790461Y-78630908D01*
X186440460Y-78606856D01*
X186929264Y-78404387D01*
X187027927Y-78137532D01*
X186055000Y-77164605D01*
X185082073Y-78137532D01*
X182714715Y-78137532D01*
X182940278Y-77912363D01*
X183189716Y-77311648D01*
X183190232Y-76720461D01*
X184409092Y-76720461D01*
X184433144Y-77370460D01*
X184635613Y-77859264D01*
X184902468Y-77957927D01*
X185875395Y-76985000D01*
X186234605Y-76985000D01*
X187207532Y-77957927D01*
X187474387Y-77859264D01*
X187700908Y-77249539D01*
X187676856Y-76599540D01*
X187474387Y-76110736D01*
X187207532Y-76012073D01*
X186234605Y-76985000D01*
X185875395Y-76985000D01*
X184902468Y-76012073D01*
X184635613Y-76110736D01*
X184409092Y-76720461D01*
X183190232Y-76720461D01*
X183190284Y-76661205D01*
X182941894Y-76060057D01*
X182714703Y-75832468D01*
X185082073Y-75832468D01*
X186055000Y-76805395D01*
X187027927Y-75832468D01*
X186929264Y-75565613D01*
X186319539Y-75339092D01*
X185669540Y-75363144D01*
X185180736Y-75565613D01*
X185082073Y-75832468D01*
X182714703Y-75832468D01*
X182482363Y-75599722D01*
X181881648Y-75350284D01*
X181231205Y-75349716D01*
X180630057Y-75598106D01*
X180169722Y-76057637D01*
X179920284Y-76658352D01*
X179919716Y-77308795D01*
X180168106Y-77909943D01*
X180627637Y-78370278D01*
X180666000Y-78386208D01*
X180666000Y-84776764D01*
X172351764Y-93091000D01*
X164198236Y-93091000D01*
X161616980Y-90509744D01*
X162716197Y-90509744D01*
X162716602Y-90536146D01*
X162932276Y-90948118D01*
X163289187Y-91246196D01*
X163733000Y-91385000D01*
X164433000Y-91385000D01*
X164433000Y-90327000D01*
X164687000Y-90327000D01*
X164687000Y-91385000D01*
X165387000Y-91385000D01*
X165830813Y-91246196D01*
X166187724Y-90948118D01*
X166403398Y-90536146D01*
X166403803Y-90509744D01*
X166278361Y-90327000D01*
X164687000Y-90327000D01*
X164433000Y-90327000D01*
X162841639Y-90327000D01*
X162716197Y-90509744D01*
X161616980Y-90509744D01*
X161392986Y-90285750D01*
X166555000Y-90285750D01*
X166555000Y-90726309D01*
X166651673Y-90959698D01*
X166830301Y-91138327D01*
X167063690Y-91235000D01*
X167354250Y-91235000D01*
X167513000Y-91076250D01*
X167513000Y-90127000D01*
X167767000Y-90127000D01*
X167767000Y-91076250D01*
X167925750Y-91235000D01*
X168216310Y-91235000D01*
X168449699Y-91138327D01*
X168628327Y-90959698D01*
X168725000Y-90726309D01*
X168725000Y-90285750D01*
X168566250Y-90127000D01*
X167767000Y-90127000D01*
X167513000Y-90127000D01*
X166713750Y-90127000D01*
X166555000Y-90285750D01*
X161392986Y-90285750D01*
X159307236Y-88200000D01*
X162538071Y-88200000D01*
X162628274Y-88653480D01*
X162885149Y-89037922D01*
X163186691Y-89239405D01*
X162932276Y-89451882D01*
X162716602Y-89863854D01*
X162716197Y-89890256D01*
X162841639Y-90073000D01*
X164433000Y-90073000D01*
X164433000Y-90053000D01*
X164687000Y-90053000D01*
X164687000Y-90073000D01*
X166278361Y-90073000D01*
X166403803Y-89890256D01*
X166403398Y-89863854D01*
X166187724Y-89451882D01*
X165844417Y-89165165D01*
X166025553Y-89044135D01*
X166140206Y-89021329D01*
X166428618Y-88828618D01*
X166568236Y-88689000D01*
X166621382Y-88689000D01*
X166725910Y-88851441D01*
X166794006Y-88897969D01*
X166651673Y-89040302D01*
X166555000Y-89273691D01*
X166555000Y-89714250D01*
X166713750Y-89873000D01*
X167513000Y-89873000D01*
X167513000Y-89853000D01*
X167767000Y-89853000D01*
X167767000Y-89873000D01*
X168566250Y-89873000D01*
X168725000Y-89714250D01*
X168725000Y-89273691D01*
X168628327Y-89040302D01*
X168487090Y-88899064D01*
X168541441Y-88864090D01*
X168686431Y-88651890D01*
X168737440Y-88400000D01*
X168737440Y-87200000D01*
X168693162Y-86964683D01*
X168554090Y-86748559D01*
X168341890Y-86603569D01*
X168090000Y-86552560D01*
X167190000Y-86552560D01*
X166954683Y-86596838D01*
X166738559Y-86735910D01*
X166618925Y-86911000D01*
X166219657Y-86911000D01*
X166391726Y-86653480D01*
X166481929Y-86200000D01*
X166391726Y-85746520D01*
X166134851Y-85362078D01*
X165892283Y-85200000D01*
X166058407Y-85089000D01*
X167260000Y-85089000D01*
X167600206Y-85021329D01*
X167888618Y-84828618D01*
X173983618Y-78733618D01*
X174176330Y-78445205D01*
X174244000Y-78105000D01*
X174244000Y-77377106D01*
X174434147Y-77250054D01*
X174623345Y-76966899D01*
X174623355Y-76966924D01*
X175013642Y-77395183D01*
X175538108Y-77641486D01*
X175768000Y-77520819D01*
X175768000Y-76327000D01*
X176022000Y-76327000D01*
X176022000Y-77520819D01*
X176251892Y-77641486D01*
X176776358Y-77395183D01*
X177166645Y-76966924D01*
X177336476Y-76556890D01*
X177215155Y-76327000D01*
X176022000Y-76327000D01*
X175768000Y-76327000D01*
X175748000Y-76327000D01*
X175748000Y-76073000D01*
X175768000Y-76073000D01*
X175768000Y-73787000D01*
X176022000Y-73787000D01*
X176022000Y-76073000D01*
X177215155Y-76073000D01*
X177336476Y-75843110D01*
X177166645Y-75433076D01*
X176776358Y-75004817D01*
X176617046Y-74930000D01*
X176776358Y-74855183D01*
X177166645Y-74426924D01*
X177336476Y-74016890D01*
X177215155Y-73787000D01*
X176022000Y-73787000D01*
X175768000Y-73787000D01*
X175748000Y-73787000D01*
X175748000Y-73533000D01*
X175768000Y-73533000D01*
X175768000Y-73513000D01*
X176022000Y-73513000D01*
X176022000Y-73533000D01*
X177215155Y-73533000D01*
X177336476Y-73303110D01*
X177166645Y-72893076D01*
X176776358Y-72464817D01*
X176633447Y-72397702D01*
X176644973Y-72390000D01*
X189155000Y-72390000D01*
X189354055Y-73390717D01*
X189920916Y-74239084D01*
X190769283Y-74805945D01*
X191770000Y-75005000D01*
X192770717Y-74805945D01*
X193619084Y-74239084D01*
X194185945Y-73390717D01*
X194385000Y-72390000D01*
X194185945Y-71389283D01*
X193619084Y-70540916D01*
X192770717Y-69974055D01*
X191770000Y-69775000D01*
X190769283Y-69974055D01*
X189920916Y-70540916D01*
X189354055Y-71389283D01*
X189155000Y-72390000D01*
X176644973Y-72390000D01*
X176974147Y-72170054D01*
X177296054Y-71688285D01*
X177409093Y-71120000D01*
X177296054Y-70551715D01*
X176974147Y-70069946D01*
X176492378Y-69748039D01*
X175924093Y-69635000D01*
X175865907Y-69635000D01*
X175297622Y-69748039D01*
X174815853Y-70069946D01*
X174815029Y-70071179D01*
X174808162Y-70034683D01*
X174669090Y-69818559D01*
X174456890Y-69673569D01*
X174205000Y-69622560D01*
X172505000Y-69622560D01*
X172269683Y-69666838D01*
X172053559Y-69805910D01*
X171908569Y-70018110D01*
X171857560Y-70270000D01*
X171857560Y-70725204D01*
X167271764Y-75311000D01*
X166058407Y-75311000D01*
X165750409Y-75105203D01*
X165296929Y-75015000D01*
X163823071Y-75015000D01*
X163369591Y-75105203D01*
X162985149Y-75362078D01*
X162728274Y-75746520D01*
X162638071Y-76200000D01*
X162728274Y-76653480D01*
X162985149Y-77037922D01*
X163227717Y-77200000D01*
X162985149Y-77362078D01*
X162728274Y-77746520D01*
X162638071Y-78200000D01*
X162728274Y-78653480D01*
X162985149Y-79037922D01*
X163227717Y-79200000D01*
X162985149Y-79362078D01*
X162728274Y-79746520D01*
X162638071Y-80200000D01*
X162728274Y-80653480D01*
X162985149Y-81037922D01*
X163227717Y-81200000D01*
X162985149Y-81362078D01*
X162728274Y-81746520D01*
X162638071Y-82200000D01*
X162728274Y-82653480D01*
X162985149Y-83037922D01*
X163227717Y-83200000D01*
X162985149Y-83362078D01*
X162728274Y-83746520D01*
X162638071Y-84200000D01*
X162728274Y-84653480D01*
X162985149Y-85037922D01*
X163227717Y-85200000D01*
X162985149Y-85362078D01*
X162728274Y-85746520D01*
X162638071Y-86200000D01*
X162728274Y-86653480D01*
X162985149Y-87037922D01*
X163177717Y-87166591D01*
X162885149Y-87362078D01*
X162628274Y-87746520D01*
X162538071Y-88200000D01*
X159307236Y-88200000D01*
X153289000Y-82181764D01*
X153289000Y-78740000D01*
X153221329Y-78399794D01*
X153028618Y-78111382D01*
X151057440Y-76140204D01*
X151057440Y-75650000D01*
X151013162Y-75414683D01*
X150874090Y-75198559D01*
X150661890Y-75053569D01*
X150410000Y-75002560D01*
X147910000Y-75002560D01*
X147674683Y-75046838D01*
X147458559Y-75185910D01*
X147313569Y-75398110D01*
X147262560Y-75650000D01*
X147262560Y-76750000D01*
X147306838Y-76985317D01*
X147445910Y-77201441D01*
X147633615Y-77329694D01*
X147585149Y-77362078D01*
X147328274Y-77746520D01*
X147238071Y-78200000D01*
X147328274Y-78653480D01*
X147585149Y-79037922D01*
X147827717Y-79200000D01*
X147752439Y-79250299D01*
X147660206Y-79188671D01*
X147320000Y-79121000D01*
X146952096Y-79121000D01*
X146944090Y-79108559D01*
X146731890Y-78963569D01*
X146480000Y-78912560D01*
X145280000Y-78912560D01*
X145044683Y-78956838D01*
X144828559Y-79095910D01*
X144780866Y-79165711D01*
X144744090Y-79108559D01*
X144531890Y-78963569D01*
X144280000Y-78912560D01*
X143080000Y-78912560D01*
X142844683Y-78956838D01*
X142628559Y-79095910D01*
X142599842Y-79137939D01*
X142344794Y-79188671D01*
X142075485Y-79368618D01*
X142056382Y-79381382D01*
X137256593Y-84181171D01*
X137140000Y-84157560D01*
X134759000Y-84157560D01*
X134759000Y-80984920D01*
X134843691Y-81020000D01*
X135084250Y-81020000D01*
X135243000Y-80861250D01*
X135243000Y-80137000D01*
X135497000Y-80137000D01*
X135497000Y-80861250D01*
X135655750Y-81020000D01*
X135896309Y-81020000D01*
X136129698Y-80923327D01*
X136308327Y-80744699D01*
X136405000Y-80511310D01*
X136405000Y-80295750D01*
X136246250Y-80137000D01*
X135497000Y-80137000D01*
X135243000Y-80137000D01*
X135223000Y-80137000D01*
X135223000Y-79883000D01*
X135243000Y-79883000D01*
X135243000Y-79158750D01*
X135497000Y-79158750D01*
X135497000Y-79883000D01*
X136246250Y-79883000D01*
X136405000Y-79724250D01*
X136405000Y-79508690D01*
X136308327Y-79275301D01*
X136129698Y-79096673D01*
X135896309Y-79000000D01*
X135655750Y-79000000D01*
X135497000Y-79158750D01*
X135243000Y-79158750D01*
X135084250Y-79000000D01*
X134843691Y-79000000D01*
X134610302Y-79096673D01*
X134608932Y-79098043D01*
X134521890Y-79038569D01*
X134270000Y-78987560D01*
X134009000Y-78987560D01*
X134009000Y-78197440D01*
X134070000Y-78197440D01*
X134305317Y-78153162D01*
X134521441Y-78014090D01*
X134666431Y-77801890D01*
X134717440Y-77550000D01*
X134717440Y-77045466D01*
X134810302Y-77138327D01*
X135043691Y-77235000D01*
X135834250Y-77235000D01*
X135993000Y-77076250D01*
X135993000Y-76327000D01*
X136247000Y-76327000D01*
X136247000Y-77076250D01*
X136405750Y-77235000D01*
X137196309Y-77235000D01*
X137429698Y-77138327D01*
X137608327Y-76959699D01*
X137705000Y-76726310D01*
X137705000Y-76485750D01*
X137546250Y-76327000D01*
X136247000Y-76327000D01*
X135993000Y-76327000D01*
X134693750Y-76327000D01*
X134607738Y-76413012D01*
X134534090Y-76298559D01*
X134388917Y-76199367D01*
X134521441Y-76114090D01*
X134608064Y-75987314D01*
X134693750Y-76073000D01*
X135993000Y-76073000D01*
X135993000Y-75323750D01*
X136247000Y-75323750D01*
X136247000Y-76073000D01*
X137546250Y-76073000D01*
X137705000Y-75914250D01*
X137705000Y-75673690D01*
X137608327Y-75440301D01*
X137429698Y-75261673D01*
X137196309Y-75165000D01*
X136405750Y-75165000D01*
X136247000Y-75323750D01*
X135993000Y-75323750D01*
X135834250Y-75165000D01*
X135043691Y-75165000D01*
X134810302Y-75261673D01*
X134717440Y-75354534D01*
X134717440Y-74850000D01*
X134673162Y-74614683D01*
X134534090Y-74398559D01*
X134321890Y-74253569D01*
X134263000Y-74241643D01*
X134263000Y-73454827D01*
X134307407Y-73445994D01*
X134391972Y-73389489D01*
X134505317Y-73368162D01*
X134608646Y-73301671D01*
X134610302Y-73303327D01*
X134843691Y-73400000D01*
X135084250Y-73400000D01*
X135243000Y-73241250D01*
X135243000Y-72517000D01*
X135497000Y-72517000D01*
X135497000Y-73241250D01*
X135655750Y-73400000D01*
X135896309Y-73400000D01*
X136129698Y-73303327D01*
X136308327Y-73124699D01*
X136405000Y-72891310D01*
X136405000Y-72675750D01*
X136246250Y-72517000D01*
X135497000Y-72517000D01*
X135243000Y-72517000D01*
X135223000Y-72517000D01*
X135223000Y-72263000D01*
X135243000Y-72263000D01*
X135243000Y-71538750D01*
X135497000Y-71538750D01*
X135497000Y-72263000D01*
X136246250Y-72263000D01*
X136405000Y-72104250D01*
X136405000Y-71888690D01*
X136308327Y-71655301D01*
X136129698Y-71476673D01*
X135896309Y-71380000D01*
X135655750Y-71380000D01*
X135497000Y-71538750D01*
X135243000Y-71538750D01*
X135084250Y-71380000D01*
X134843691Y-71380000D01*
X134610302Y-71476673D01*
X134608932Y-71478043D01*
X134521890Y-71418569D01*
X134395729Y-71393021D01*
X134307407Y-71334006D01*
X133870000Y-71247000D01*
X130810000Y-71247000D01*
X130372593Y-71334006D01*
X130001777Y-71581777D01*
X128731777Y-72851777D01*
X128484006Y-73222593D01*
X128397000Y-73660000D01*
X128397000Y-75726554D01*
X125390914Y-78732640D01*
X122074940Y-78732640D01*
X121839623Y-78776918D01*
X121623499Y-78915990D01*
X121511060Y-79080550D01*
X121511060Y-78416150D01*
X121352310Y-78257400D01*
X119253000Y-78257400D01*
X119253000Y-78277400D01*
X118999000Y-78277400D01*
X118999000Y-78257400D01*
X116899690Y-78257400D01*
X116740940Y-78416150D01*
X116740940Y-80006769D01*
X116794884Y-80137000D01*
X115240043Y-80137000D01*
X114897378Y-79908039D01*
X114329093Y-79795000D01*
X114270907Y-79795000D01*
X113702622Y-79908039D01*
X113220853Y-80229946D01*
X112898946Y-80711715D01*
X112785907Y-81280000D01*
X112470000Y-81280000D01*
X112470000Y-76254031D01*
X116740940Y-76254031D01*
X116740940Y-77844650D01*
X116899690Y-78003400D01*
X118999000Y-78003400D01*
X118999000Y-75904090D01*
X119253000Y-75904090D01*
X119253000Y-78003400D01*
X121352310Y-78003400D01*
X121511060Y-77844650D01*
X121511060Y-77178728D01*
X121536613Y-77240418D01*
X121715241Y-77419047D01*
X121948630Y-77515720D01*
X123539250Y-77515720D01*
X123698000Y-77356970D01*
X123698000Y-75257660D01*
X123952000Y-75257660D01*
X123952000Y-77356970D01*
X124110750Y-77515720D01*
X125701370Y-77515720D01*
X125934759Y-77419047D01*
X126113387Y-77240418D01*
X126210060Y-77007029D01*
X126210060Y-75416410D01*
X126051310Y-75257660D01*
X123952000Y-75257660D01*
X123698000Y-75257660D01*
X121598690Y-75257660D01*
X121439940Y-75416410D01*
X121439940Y-76082332D01*
X121414387Y-76020642D01*
X121235759Y-75842013D01*
X121002370Y-75745340D01*
X119411750Y-75745340D01*
X119253000Y-75904090D01*
X118999000Y-75904090D01*
X118840250Y-75745340D01*
X117249630Y-75745340D01*
X117016241Y-75842013D01*
X116837613Y-76020642D01*
X116740940Y-76254031D01*
X112470000Y-76254031D01*
X112470000Y-72390000D01*
X112955000Y-72390000D01*
X113154055Y-73390717D01*
X113720916Y-74239084D01*
X114569283Y-74805945D01*
X115570000Y-75005000D01*
X116570717Y-74805945D01*
X117419084Y-74239084D01*
X117985945Y-73390717D01*
X118013081Y-73254291D01*
X121439940Y-73254291D01*
X121439940Y-74844910D01*
X121598690Y-75003660D01*
X123698000Y-75003660D01*
X123698000Y-72904350D01*
X123952000Y-72904350D01*
X123952000Y-75003660D01*
X126051310Y-75003660D01*
X126210060Y-74844910D01*
X126210060Y-73254291D01*
X126113387Y-73020902D01*
X125934759Y-72842273D01*
X125701370Y-72745600D01*
X124110750Y-72745600D01*
X123952000Y-72904350D01*
X123698000Y-72904350D01*
X123539250Y-72745600D01*
X121948630Y-72745600D01*
X121715241Y-72842273D01*
X121536613Y-73020902D01*
X121439940Y-73254291D01*
X118013081Y-73254291D01*
X118185000Y-72390000D01*
X117985945Y-71389283D01*
X117419084Y-70540916D01*
X116570717Y-69974055D01*
X115570000Y-69775000D01*
X114569283Y-69974055D01*
X113720916Y-70540916D01*
X113154055Y-71389283D01*
X112955000Y-72390000D01*
X112470000Y-72390000D01*
X112470000Y-69290000D01*
X140230394Y-69290000D01*
X144690197Y-73749803D01*
G36*
X144690197Y-119469803D02*
X144730590Y-119496994D01*
X144780000Y-119507000D01*
X167640000Y-119507000D01*
X167687789Y-119497666D01*
X167729803Y-119469803D01*
X172189606Y-115010000D01*
X180437827Y-115010000D01*
X180169722Y-115277637D01*
X179920284Y-115878352D01*
X179919716Y-116528795D01*
X180168106Y-117129943D01*
X180627637Y-117590278D01*
X181228352Y-117839716D01*
X181878795Y-117840284D01*
X182479943Y-117591894D01*
X182714715Y-117357532D01*
X185082073Y-117357532D01*
X185180736Y-117624387D01*
X185790461Y-117850908D01*
X186440460Y-117826856D01*
X186929264Y-117624387D01*
X187027927Y-117357532D01*
X186055000Y-116384605D01*
X185082073Y-117357532D01*
X182714715Y-117357532D01*
X182940278Y-117132363D01*
X183189716Y-116531648D01*
X183190232Y-115940461D01*
X184409092Y-115940461D01*
X184433144Y-116590460D01*
X184635613Y-117079264D01*
X184902468Y-117177927D01*
X185875395Y-116205000D01*
X186234605Y-116205000D01*
X187207532Y-117177927D01*
X187474387Y-117079264D01*
X187700908Y-116469539D01*
X187676856Y-115819540D01*
X187474387Y-115330736D01*
X187207532Y-115232073D01*
X186234605Y-116205000D01*
X185875395Y-116205000D01*
X184902468Y-115232073D01*
X184635613Y-115330736D01*
X184409092Y-115940461D01*
X183190232Y-115940461D01*
X183190284Y-115881205D01*
X182941894Y-115280057D01*
X182672309Y-115010000D01*
X185097774Y-115010000D01*
X185082073Y-115052468D01*
X186055000Y-116025395D01*
X187027927Y-115052468D01*
X187012226Y-115010000D01*
X194870000Y-115010000D01*
X194870000Y-156770000D01*
X112470000Y-156770000D01*
X112470000Y-153670000D01*
X112955000Y-153670000D01*
X113154055Y-154670717D01*
X113720916Y-155519084D01*
X114569283Y-156085945D01*
X115570000Y-156285000D01*
X116570717Y-156085945D01*
X117419084Y-155519084D01*
X117985945Y-154670717D01*
X118185000Y-153670000D01*
X117985945Y-152669283D01*
X117419084Y-151820916D01*
X116570717Y-151254055D01*
X115570000Y-151055000D01*
X114569283Y-151254055D01*
X113720916Y-151820916D01*
X113154055Y-152669283D01*
X112955000Y-153670000D01*
X112470000Y-153670000D01*
X112470000Y-148142960D01*
X113998000Y-148142960D01*
X113998000Y-149992080D01*
X114042278Y-150227397D01*
X114181350Y-150443521D01*
X114393550Y-150588511D01*
X114645440Y-150639520D01*
X116494560Y-150639520D01*
X116729877Y-150595242D01*
X116946001Y-150456170D01*
X117090991Y-150243970D01*
X117142000Y-149992080D01*
X117142000Y-149813275D01*
X123195000Y-149813275D01*
X123195000Y-149906725D01*
X123376547Y-150819425D01*
X123893550Y-151593175D01*
X124667300Y-152110178D01*
X125580000Y-152291725D01*
X126492700Y-152110178D01*
X127266450Y-151593175D01*
X127783453Y-150819425D01*
X127965000Y-149906725D01*
X127965000Y-149813275D01*
X127783453Y-148900575D01*
X127266450Y-148126825D01*
X126492700Y-147609822D01*
X125580000Y-147428275D01*
X124667300Y-147609822D01*
X123893550Y-148126825D01*
X123376547Y-148900575D01*
X123195000Y-149813275D01*
X117142000Y-149813275D01*
X117142000Y-148142960D01*
X117097722Y-147907643D01*
X116958650Y-147691519D01*
X116746450Y-147546529D01*
X116494560Y-147495520D01*
X114645440Y-147495520D01*
X114410123Y-147539798D01*
X114193999Y-147678870D01*
X114049009Y-147891070D01*
X113998000Y-148142960D01*
X112470000Y-148142960D01*
X112470000Y-145881335D01*
X114010169Y-145881335D01*
X114247098Y-146454746D01*
X114685427Y-146893840D01*
X115258423Y-147131769D01*
X115878855Y-147132311D01*
X116307355Y-146955258D01*
X140748954Y-146955258D01*
X140869003Y-147193000D01*
X142113000Y-147193000D01*
X142113000Y-145949622D01*
X141875260Y-145828964D01*
X141443583Y-146007760D01*
X141002034Y-146412424D01*
X140748954Y-146955258D01*
X116307355Y-146955258D01*
X116452266Y-146895382D01*
X116891360Y-146457053D01*
X117129289Y-145884057D01*
X117129831Y-145263625D01*
X116892902Y-144690214D01*
X116454573Y-144251120D01*
X115881577Y-144013191D01*
X115261145Y-144012649D01*
X114687734Y-144249578D01*
X114248640Y-144687907D01*
X114010711Y-145260903D01*
X114010169Y-145881335D01*
X112470000Y-145881335D01*
X112470000Y-141157960D01*
X113998000Y-141157960D01*
X113998000Y-143007080D01*
X114042278Y-143242397D01*
X114181350Y-143458521D01*
X114393550Y-143603511D01*
X114645440Y-143654520D01*
X116494560Y-143654520D01*
X116729877Y-143610242D01*
X116946001Y-143471170D01*
X117090991Y-143258970D01*
X117142000Y-143007080D01*
X117142000Y-141157960D01*
X117097722Y-140922643D01*
X116958650Y-140706519D01*
X116746450Y-140561529D01*
X116494560Y-140510520D01*
X114645440Y-140510520D01*
X114410123Y-140554798D01*
X114193999Y-140693870D01*
X114049009Y-140906070D01*
X113998000Y-141157960D01*
X112470000Y-141157960D01*
X112470000Y-127000000D01*
X112785907Y-127000000D01*
X112898946Y-127568285D01*
X113220853Y-128050054D01*
X113550026Y-128270000D01*
X113220853Y-128489946D01*
X112898946Y-128971715D01*
X112785907Y-129540000D01*
X112898946Y-130108285D01*
X113220853Y-130590054D01*
X113550026Y-130810000D01*
X113220853Y-131029946D01*
X112898946Y-131511715D01*
X112785907Y-132080000D01*
X112898946Y-132648285D01*
X113220853Y-133130054D01*
X113262452Y-133157850D01*
X113214683Y-133166838D01*
X112998559Y-133305910D01*
X112853569Y-133518110D01*
X112802560Y-133770000D01*
X112802560Y-135470000D01*
X112846838Y-135705317D01*
X112985910Y-135921441D01*
X113198110Y-136066431D01*
X113450000Y-136117440D01*
X115150000Y-136117440D01*
X115385317Y-136073162D01*
X115601441Y-135934090D01*
X115746431Y-135721890D01*
X115797440Y-135470000D01*
X115797440Y-133770000D01*
X115753162Y-133534683D01*
X115614090Y-133318559D01*
X115401890Y-133173569D01*
X115334459Y-133159914D01*
X115379147Y-133130054D01*
X115701054Y-132648285D01*
X115814093Y-132080000D01*
X115701054Y-131511715D01*
X115379147Y-131029946D01*
X115049974Y-130810000D01*
X115379147Y-130590054D01*
X115701054Y-130108285D01*
X115814093Y-129540000D01*
X115701054Y-128971715D01*
X115379147Y-128489946D01*
X115049974Y-128270000D01*
X115240043Y-128143000D01*
X121427500Y-128143000D01*
X121427500Y-128600200D01*
X121471778Y-128835517D01*
X121610850Y-129051641D01*
X121823050Y-129196631D01*
X122074940Y-129247640D01*
X122682000Y-129247640D01*
X122682000Y-137321554D01*
X122559074Y-137444480D01*
X116632622Y-137444480D01*
X116454573Y-137266120D01*
X115881577Y-137028191D01*
X115261145Y-137027649D01*
X114687734Y-137264578D01*
X114248640Y-137702907D01*
X114010711Y-138275903D01*
X114010169Y-138896335D01*
X114247098Y-139469746D01*
X114685427Y-139908840D01*
X115258423Y-140146769D01*
X115878855Y-140147311D01*
X116452266Y-139910382D01*
X116632482Y-139730480D01*
X123032520Y-139730480D01*
X123469927Y-139643474D01*
X123599460Y-139556923D01*
X123571000Y-139700000D01*
X123571000Y-143510000D01*
X123638671Y-143850206D01*
X123831382Y-144138618D01*
X124119794Y-144331329D01*
X124460000Y-144399000D01*
X124800206Y-144331329D01*
X125088618Y-144138618D01*
X125281329Y-143850206D01*
X125349000Y-143510000D01*
X125349000Y-140810750D01*
X134005000Y-140810750D01*
X134005000Y-142651309D01*
X134101673Y-142884698D01*
X134280301Y-143063327D01*
X134513690Y-143160000D01*
X135604250Y-143160000D01*
X135763000Y-143001250D01*
X135763000Y-140652000D01*
X136017000Y-140652000D01*
X136017000Y-143001250D01*
X136175750Y-143160000D01*
X137266310Y-143160000D01*
X137499699Y-143063327D01*
X137678327Y-142884698D01*
X137775000Y-142651309D01*
X137775000Y-142005750D01*
X148850000Y-142005750D01*
X148850000Y-142246309D01*
X148946673Y-142479698D01*
X149125301Y-142658327D01*
X149358690Y-142755000D01*
X149574250Y-142755000D01*
X149733000Y-142596250D01*
X149733000Y-141847000D01*
X149987000Y-141847000D01*
X149987000Y-142596250D01*
X150145750Y-142755000D01*
X150361310Y-142755000D01*
X150594699Y-142658327D01*
X150773327Y-142479698D01*
X150870000Y-142246309D01*
X150870000Y-142005750D01*
X150711250Y-141847000D01*
X149987000Y-141847000D01*
X149733000Y-141847000D01*
X149008750Y-141847000D01*
X148850000Y-142005750D01*
X137775000Y-142005750D01*
X137775000Y-140810750D01*
X137616250Y-140652000D01*
X136017000Y-140652000D01*
X135763000Y-140652000D01*
X134163750Y-140652000D01*
X134005000Y-140810750D01*
X125349000Y-140810750D01*
X125349000Y-139700000D01*
X125281329Y-139359794D01*
X125088618Y-139071382D01*
X124800206Y-138878671D01*
X124460000Y-138811000D01*
X124416866Y-138819580D01*
X124633223Y-138603223D01*
X124769886Y-138398691D01*
X134005000Y-138398691D01*
X134005000Y-140239250D01*
X134163750Y-140398000D01*
X135763000Y-140398000D01*
X135763000Y-138048750D01*
X136017000Y-138048750D01*
X136017000Y-140398000D01*
X137616250Y-140398000D01*
X137775000Y-140239250D01*
X137775000Y-138398691D01*
X137678327Y-138165302D01*
X137499699Y-137986673D01*
X137266310Y-137890000D01*
X136175750Y-137890000D01*
X136017000Y-138048750D01*
X135763000Y-138048750D01*
X135604250Y-137890000D01*
X134513690Y-137890000D01*
X134280301Y-137986673D01*
X134101673Y-138165302D01*
X134005000Y-138398691D01*
X124769886Y-138398691D01*
X124880994Y-138232407D01*
X124968000Y-137795000D01*
X124968000Y-129247640D01*
X125575060Y-129247640D01*
X125810377Y-129203362D01*
X126026501Y-129064290D01*
X126171491Y-128852090D01*
X126222500Y-128600200D01*
X126222500Y-126853946D01*
X130348223Y-122728223D01*
X130595994Y-122357407D01*
X130683000Y-121920000D01*
X130683000Y-119853446D01*
X131283446Y-119253000D01*
X131977000Y-119253000D01*
X131977000Y-119958875D01*
X131934683Y-119966838D01*
X131718559Y-120105910D01*
X131573569Y-120318110D01*
X131522560Y-120570000D01*
X131522560Y-121370000D01*
X131566838Y-121605317D01*
X131705910Y-121821441D01*
X131851083Y-121920633D01*
X131718559Y-122005910D01*
X131573569Y-122218110D01*
X131522560Y-122470000D01*
X131522560Y-123270000D01*
X131566838Y-123505317D01*
X131705910Y-123721441D01*
X131918110Y-123866431D01*
X132170000Y-123917440D01*
X132231000Y-123917440D01*
X132231000Y-125500000D01*
X132298671Y-125840206D01*
X132406889Y-126002165D01*
X132491382Y-126128618D01*
X132721382Y-126358618D01*
X132981000Y-126532089D01*
X132981000Y-130505000D01*
X133048671Y-130845206D01*
X133172815Y-131031000D01*
X133241382Y-131133618D01*
X133992560Y-131884796D01*
X133992560Y-134525000D01*
X134036838Y-134760317D01*
X134175910Y-134976441D01*
X134388110Y-135121431D01*
X134640000Y-135172440D01*
X137140000Y-135172440D01*
X137375317Y-135128162D01*
X137591441Y-134989090D01*
X137736431Y-134776890D01*
X137787440Y-134525000D01*
X137787440Y-133414000D01*
X142316764Y-133414000D01*
X145191000Y-136288236D01*
X145191000Y-137190000D01*
X145258671Y-137530206D01*
X145375608Y-137705214D01*
X145451382Y-137818618D01*
X146691382Y-139058618D01*
X146979795Y-139251329D01*
X147320000Y-139319000D01*
X147660205Y-139251329D01*
X147948618Y-139058618D01*
X148141329Y-138770205D01*
X148209000Y-138430000D01*
X148141329Y-138089795D01*
X147948618Y-137801382D01*
X146969000Y-136821764D01*
X146969000Y-136809000D01*
X147661593Y-136809000D01*
X147969591Y-137014797D01*
X148423071Y-137105000D01*
X148971000Y-137105000D01*
X148971000Y-139447468D01*
X148888569Y-139568110D01*
X148837560Y-139820000D01*
X148837560Y-140620000D01*
X148881838Y-140855317D01*
X148948329Y-140958646D01*
X148946673Y-140960302D01*
X148850000Y-141193691D01*
X148850000Y-141434250D01*
X149008750Y-141593000D01*
X149733000Y-141593000D01*
X149733000Y-141573000D01*
X149987000Y-141573000D01*
X149987000Y-141593000D01*
X150711250Y-141593000D01*
X150870000Y-141434250D01*
X150870000Y-141193691D01*
X150773327Y-140960302D01*
X150771957Y-140958932D01*
X150831431Y-140871890D01*
X150882440Y-140620000D01*
X150882440Y-139820000D01*
X150838162Y-139584683D01*
X150749000Y-139446121D01*
X150749000Y-136736746D01*
X150991726Y-136373480D01*
X151081929Y-135920000D01*
X151059374Y-135806610D01*
X152781000Y-137528236D01*
X152781000Y-138797904D01*
X152768559Y-138805910D01*
X152623569Y-139018110D01*
X152572560Y-139270000D01*
X152572560Y-140470000D01*
X152616838Y-140705317D01*
X152755910Y-140921441D01*
X152825711Y-140969134D01*
X152768559Y-141005910D01*
X152623569Y-141218110D01*
X152572560Y-141470000D01*
X152572560Y-142670000D01*
X152616838Y-142905317D01*
X152755910Y-143121441D01*
X152781000Y-143138584D01*
X152781000Y-144411764D01*
X152031764Y-145161000D01*
X146050000Y-145161000D01*
X145709795Y-145228670D01*
X145421382Y-145421382D01*
X143649766Y-147192998D01*
X143610998Y-147192998D01*
X143731046Y-146955258D01*
X143477966Y-146412424D01*
X143036417Y-146007760D01*
X142604740Y-145828964D01*
X142367000Y-145949622D01*
X142367000Y-147193000D01*
X142387000Y-147193000D01*
X142387000Y-147447000D01*
X142367000Y-147447000D01*
X142367000Y-147467000D01*
X142113000Y-147467000D01*
X142113000Y-147447000D01*
X140869003Y-147447000D01*
X140748954Y-147684742D01*
X141002034Y-148227576D01*
X141392582Y-148585499D01*
X141154591Y-148744519D01*
X140821845Y-149242509D01*
X140705000Y-149829928D01*
X140705000Y-149890072D01*
X140821845Y-150477491D01*
X141102837Y-150898026D01*
X140888559Y-151035910D01*
X140743569Y-151248110D01*
X140692560Y-151500000D01*
X140692560Y-153300000D01*
X140736838Y-153535317D01*
X140875910Y-153751441D01*
X141088110Y-153896431D01*
X141340000Y-153947440D01*
X143140000Y-153947440D01*
X143375317Y-153903162D01*
X143591441Y-153764090D01*
X143736431Y-153551890D01*
X143787440Y-153300000D01*
X143787440Y-151500000D01*
X143743162Y-151264683D01*
X143604090Y-151048559D01*
X143391890Y-150903569D01*
X143375656Y-150900281D01*
X143658155Y-150477491D01*
X143775000Y-149890072D01*
X143775000Y-149829928D01*
X143771688Y-149813275D01*
X144785000Y-149813275D01*
X144785000Y-149906725D01*
X144966547Y-150819425D01*
X145483550Y-151593175D01*
X146257300Y-152110178D01*
X147170000Y-152291725D01*
X148082700Y-152110178D01*
X148856450Y-151593175D01*
X149373453Y-150819425D01*
X149555000Y-149906725D01*
X149555000Y-149813275D01*
X149373453Y-148900575D01*
X148856450Y-148126825D01*
X148082700Y-147609822D01*
X147170000Y-147428275D01*
X146257300Y-147609822D01*
X145483550Y-148126825D01*
X144966547Y-148900575D01*
X144785000Y-149813275D01*
X143771688Y-149813275D01*
X143733905Y-149623331D01*
X146418236Y-146939000D01*
X152400000Y-146939000D01*
X152740206Y-146871329D01*
X153028618Y-146678618D01*
X154298618Y-145408618D01*
X154397318Y-145260903D01*
X154491329Y-145120206D01*
X154559000Y-144780000D01*
X154559000Y-143142096D01*
X154571441Y-143134090D01*
X154716431Y-142921890D01*
X154767440Y-142670000D01*
X154767440Y-141470000D01*
X154723162Y-141234683D01*
X154584090Y-141018559D01*
X154514289Y-140970866D01*
X154571441Y-140934090D01*
X154716431Y-140721890D01*
X154767440Y-140470000D01*
X154767440Y-139270000D01*
X154723162Y-139034683D01*
X154584090Y-138818559D01*
X154559000Y-138801416D01*
X154559000Y-137160000D01*
X154491329Y-136819794D01*
X154298618Y-136531382D01*
X151058618Y-133291382D01*
X150891616Y-133179795D01*
X150770206Y-133098671D01*
X150742218Y-133093104D01*
X150734851Y-133082078D01*
X150492283Y-132920000D01*
X150624452Y-132831688D01*
X155321000Y-137528236D01*
X155321000Y-138797904D01*
X155308559Y-138805910D01*
X155163569Y-139018110D01*
X155112560Y-139270000D01*
X155112560Y-140470000D01*
X155156838Y-140705317D01*
X155295910Y-140921441D01*
X155365711Y-140969134D01*
X155308559Y-141005910D01*
X155163569Y-141218110D01*
X155112560Y-141470000D01*
X155112560Y-142670000D01*
X155156838Y-142905317D01*
X155295910Y-143121441D01*
X155321000Y-143138584D01*
X155321000Y-144780000D01*
X155388671Y-145120206D01*
X155482682Y-145260903D01*
X155581382Y-145408618D01*
X160661382Y-150488618D01*
X160949794Y-150681329D01*
X161290000Y-150749000D01*
X162593261Y-150749000D01*
X162692837Y-150898026D01*
X162478559Y-151035910D01*
X162333569Y-151248110D01*
X162282560Y-151500000D01*
X162282560Y-153300000D01*
X162326838Y-153535317D01*
X162465910Y-153751441D01*
X162678110Y-153896431D01*
X162930000Y-153947440D01*
X164730000Y-153947440D01*
X164965317Y-153903162D01*
X165181441Y-153764090D01*
X165326431Y-153551890D01*
X165377440Y-153300000D01*
X165377440Y-151500000D01*
X165333162Y-151264683D01*
X165194090Y-151048559D01*
X164981890Y-150903569D01*
X164965656Y-150900281D01*
X165248155Y-150477491D01*
X165365000Y-149890072D01*
X165365000Y-149829928D01*
X165361688Y-149813275D01*
X167645000Y-149813275D01*
X167645000Y-149906725D01*
X167826547Y-150819425D01*
X168343550Y-151593175D01*
X169117300Y-152110178D01*
X170030000Y-152291725D01*
X170942700Y-152110178D01*
X171716450Y-151593175D01*
X172233453Y-150819425D01*
X172415000Y-149906725D01*
X172415000Y-149813275D01*
X172233453Y-148900575D01*
X171716450Y-148126825D01*
X170942700Y-147609822D01*
X170030000Y-147428275D01*
X169117300Y-147609822D01*
X168343550Y-148126825D01*
X167826547Y-148900575D01*
X167645000Y-149813275D01*
X165361688Y-149813275D01*
X165248155Y-149242509D01*
X164915409Y-148744519D01*
X164677418Y-148585499D01*
X165067966Y-148227576D01*
X165321046Y-147684742D01*
X165200997Y-147447000D01*
X163957000Y-147447000D01*
X163957000Y-147467000D01*
X163703000Y-147467000D01*
X163703000Y-147447000D01*
X162459003Y-147447000D01*
X162338954Y-147684742D01*
X162592034Y-148227576D01*
X162982582Y-148585499D01*
X162744591Y-148744519D01*
X162593261Y-148971000D01*
X161658236Y-148971000D01*
X159642494Y-146955258D01*
X162338954Y-146955258D01*
X162459003Y-147193000D01*
X163703000Y-147193000D01*
X163703000Y-145949622D01*
X163957000Y-145949622D01*
X163957000Y-147193000D01*
X165200997Y-147193000D01*
X165321046Y-146955258D01*
X165067966Y-146412424D01*
X164626417Y-146007760D01*
X164194740Y-145828964D01*
X163957000Y-145949622D01*
X163703000Y-145949622D01*
X163465260Y-145828964D01*
X163033583Y-146007760D01*
X162592034Y-146412424D01*
X162338954Y-146955258D01*
X159642494Y-146955258D01*
X157099000Y-144411764D01*
X157099000Y-143142096D01*
X157111441Y-143134090D01*
X157256431Y-142921890D01*
X157307440Y-142670000D01*
X157307440Y-141470000D01*
X157263162Y-141234683D01*
X157124090Y-141018559D01*
X157054289Y-140970866D01*
X157111441Y-140934090D01*
X157256431Y-140721890D01*
X157307440Y-140470000D01*
X157307440Y-139270000D01*
X157263162Y-139034683D01*
X157124090Y-138818559D01*
X157099000Y-138801416D01*
X157099000Y-137160000D01*
X157031329Y-136819794D01*
X156838618Y-136531382D01*
X151598618Y-131291382D01*
X151310206Y-131098671D01*
X150970000Y-131031000D01*
X150658407Y-131031000D01*
X150492283Y-130920000D01*
X150658407Y-130809000D01*
X151141764Y-130809000D01*
X157861000Y-137528236D01*
X157861000Y-138797904D01*
X157848559Y-138805910D01*
X157703569Y-139018110D01*
X157652560Y-139270000D01*
X157652560Y-140470000D01*
X157696838Y-140705317D01*
X157835910Y-140921441D01*
X157905711Y-140969134D01*
X157848559Y-141005910D01*
X157703569Y-141218110D01*
X157652560Y-141470000D01*
X157652560Y-142670000D01*
X157696838Y-142905317D01*
X157835910Y-143121441D01*
X157861000Y-143138584D01*
X157861000Y-143510000D01*
X157928671Y-143850206D01*
X158121382Y-144138618D01*
X159391382Y-145408618D01*
X159679794Y-145601329D01*
X160020000Y-145669000D01*
X177431764Y-145669000D01*
X182251382Y-150488618D01*
X182539794Y-150681329D01*
X182880000Y-150749000D01*
X185453261Y-150749000D01*
X185552837Y-150898026D01*
X185338559Y-151035910D01*
X185193569Y-151248110D01*
X185142560Y-151500000D01*
X185142560Y-153300000D01*
X185186838Y-153535317D01*
X185325910Y-153751441D01*
X185538110Y-153896431D01*
X185790000Y-153947440D01*
X187590000Y-153947440D01*
X187825317Y-153903162D01*
X188041441Y-153764090D01*
X188105729Y-153670000D01*
X188520000Y-153670000D01*
X188719055Y-154670717D01*
X189285916Y-155519084D01*
X190134283Y-156085945D01*
X191135000Y-156285000D01*
X192135717Y-156085945D01*
X192984084Y-155519084D01*
X193550945Y-154670717D01*
X193750000Y-153670000D01*
X193550945Y-152669283D01*
X192984084Y-151820916D01*
X192135717Y-151254055D01*
X191135000Y-151055000D01*
X190134283Y-151254055D01*
X189285916Y-151820916D01*
X188719055Y-152669283D01*
X188520000Y-153670000D01*
X188105729Y-153670000D01*
X188186431Y-153551890D01*
X188237440Y-153300000D01*
X188237440Y-151500000D01*
X188193162Y-151264683D01*
X188054090Y-151048559D01*
X187841890Y-150903569D01*
X187825656Y-150900281D01*
X188108155Y-150477491D01*
X188225000Y-149890072D01*
X188225000Y-149829928D01*
X188108155Y-149242509D01*
X187775409Y-148744519D01*
X187537418Y-148585499D01*
X187927966Y-148227576D01*
X188181046Y-147684742D01*
X188060997Y-147447000D01*
X186817000Y-147447000D01*
X186817000Y-147467000D01*
X186563000Y-147467000D01*
X186563000Y-147447000D01*
X185319003Y-147447000D01*
X185198954Y-147684742D01*
X185452034Y-148227576D01*
X185842582Y-148585499D01*
X185604591Y-148744519D01*
X185453261Y-148971000D01*
X183248236Y-148971000D01*
X181232494Y-146955258D01*
X185198954Y-146955258D01*
X185319003Y-147193000D01*
X186563000Y-147193000D01*
X186563000Y-145949622D01*
X186817000Y-145949622D01*
X186817000Y-147193000D01*
X188060997Y-147193000D01*
X188181046Y-146955258D01*
X187927966Y-146412424D01*
X187486417Y-146007760D01*
X187054740Y-145828964D01*
X186817000Y-145949622D01*
X186563000Y-145949622D01*
X186325260Y-145828964D01*
X185893583Y-146007760D01*
X185452034Y-146412424D01*
X185198954Y-146955258D01*
X181232494Y-146955258D01*
X178428618Y-144151382D01*
X178409515Y-144138618D01*
X178140206Y-143958671D01*
X177800000Y-143891000D01*
X160388236Y-143891000D01*
X159639202Y-143141966D01*
X159651441Y-143134090D01*
X159796431Y-142921890D01*
X159847440Y-142670000D01*
X159847440Y-141470000D01*
X159803162Y-141234683D01*
X159664090Y-141018559D01*
X159594289Y-140970866D01*
X159651441Y-140934090D01*
X159796431Y-140721890D01*
X159847440Y-140470000D01*
X159847440Y-139270000D01*
X159803162Y-139034683D01*
X159664090Y-138818559D01*
X159639000Y-138801416D01*
X159639000Y-137160000D01*
X159571329Y-136819794D01*
X159378618Y-136531382D01*
X152138618Y-129291382D01*
X152096047Y-129262937D01*
X151850206Y-129098671D01*
X151510000Y-129031000D01*
X150658407Y-129031000D01*
X150492283Y-128920000D01*
X150734851Y-128757922D01*
X150991726Y-128373480D01*
X151081929Y-127920000D01*
X150991726Y-127466520D01*
X150734851Y-127082078D01*
X150492283Y-126920000D01*
X150734851Y-126757922D01*
X150991726Y-126373480D01*
X151081929Y-125920000D01*
X150991726Y-125466520D01*
X150734851Y-125082078D01*
X150492283Y-124920000D01*
X150734851Y-124757922D01*
X150991726Y-124373480D01*
X151002430Y-124319666D01*
X151511000Y-124828236D01*
X151511000Y-128270000D01*
X151578671Y-128610206D01*
X151662056Y-128735000D01*
X151771382Y-128898618D01*
X163201382Y-140328618D01*
X163489794Y-140521329D01*
X163830000Y-140589000D01*
X172720000Y-140589000D01*
X173060206Y-140521329D01*
X173348618Y-140328618D01*
X182183618Y-131493618D01*
X182201724Y-131466520D01*
X182376329Y-131205206D01*
X182444000Y-130865000D01*
X182444000Y-124106745D01*
X182479943Y-124091894D01*
X182714715Y-123857532D01*
X185082073Y-123857532D01*
X185180736Y-124124387D01*
X185790461Y-124350908D01*
X186440460Y-124326856D01*
X186929264Y-124124387D01*
X187027927Y-123857532D01*
X186055000Y-122884605D01*
X185082073Y-123857532D01*
X182714715Y-123857532D01*
X182940278Y-123632363D01*
X183189716Y-123031648D01*
X183190232Y-122440461D01*
X184409092Y-122440461D01*
X184433144Y-123090460D01*
X184635613Y-123579264D01*
X184902468Y-123677927D01*
X185875395Y-122705000D01*
X186234605Y-122705000D01*
X187207532Y-123677927D01*
X187474387Y-123579264D01*
X187700908Y-122969539D01*
X187676856Y-122319540D01*
X187474387Y-121830736D01*
X187207532Y-121732073D01*
X186234605Y-122705000D01*
X185875395Y-122705000D01*
X184902468Y-121732073D01*
X184635613Y-121830736D01*
X184409092Y-122440461D01*
X183190232Y-122440461D01*
X183190284Y-122381205D01*
X182941894Y-121780057D01*
X182714703Y-121552468D01*
X185082073Y-121552468D01*
X186055000Y-122525395D01*
X187027927Y-121552468D01*
X186929264Y-121285613D01*
X186319539Y-121059092D01*
X185669540Y-121083144D01*
X185180736Y-121285613D01*
X185082073Y-121552468D01*
X182714703Y-121552468D01*
X182482363Y-121319722D01*
X181881648Y-121070284D01*
X181231205Y-121069716D01*
X180630057Y-121318106D01*
X180169722Y-121777637D01*
X179920284Y-122378352D01*
X179919716Y-123028795D01*
X180168106Y-123629943D01*
X180627637Y-124090278D01*
X180666000Y-124106208D01*
X180666000Y-130496764D01*
X172351764Y-138811000D01*
X164198236Y-138811000D01*
X161616980Y-136229744D01*
X162716197Y-136229744D01*
X162716602Y-136256146D01*
X162932276Y-136668118D01*
X163289187Y-136966196D01*
X163733000Y-137105000D01*
X164433000Y-137105000D01*
X164433000Y-136047000D01*
X164687000Y-136047000D01*
X164687000Y-137105000D01*
X165387000Y-137105000D01*
X165830813Y-136966196D01*
X166187724Y-136668118D01*
X166403398Y-136256146D01*
X166403803Y-136229744D01*
X166278361Y-136047000D01*
X164687000Y-136047000D01*
X164433000Y-136047000D01*
X162841639Y-136047000D01*
X162716197Y-136229744D01*
X161616980Y-136229744D01*
X161392986Y-136005750D01*
X166555000Y-136005750D01*
X166555000Y-136446309D01*
X166651673Y-136679698D01*
X166830301Y-136858327D01*
X167063690Y-136955000D01*
X167354250Y-136955000D01*
X167513000Y-136796250D01*
X167513000Y-135847000D01*
X167767000Y-135847000D01*
X167767000Y-136796250D01*
X167925750Y-136955000D01*
X168216310Y-136955000D01*
X168449699Y-136858327D01*
X168628327Y-136679698D01*
X168725000Y-136446309D01*
X168725000Y-136005750D01*
X168566250Y-135847000D01*
X167767000Y-135847000D01*
X167513000Y-135847000D01*
X166713750Y-135847000D01*
X166555000Y-136005750D01*
X161392986Y-136005750D01*
X159307236Y-133920000D01*
X162538071Y-133920000D01*
X162628274Y-134373480D01*
X162885149Y-134757922D01*
X163186691Y-134959405D01*
X162932276Y-135171882D01*
X162716602Y-135583854D01*
X162716197Y-135610256D01*
X162841639Y-135793000D01*
X164433000Y-135793000D01*
X164433000Y-135773000D01*
X164687000Y-135773000D01*
X164687000Y-135793000D01*
X166278361Y-135793000D01*
X166403803Y-135610256D01*
X166403398Y-135583854D01*
X166187724Y-135171882D01*
X165844417Y-134885165D01*
X166025553Y-134764135D01*
X166140206Y-134741329D01*
X166428618Y-134548618D01*
X166568236Y-134409000D01*
X166621382Y-134409000D01*
X166725910Y-134571441D01*
X166794006Y-134617969D01*
X166651673Y-134760302D01*
X166555000Y-134993691D01*
X166555000Y-135434250D01*
X166713750Y-135593000D01*
X167513000Y-135593000D01*
X167513000Y-135573000D01*
X167767000Y-135573000D01*
X167767000Y-135593000D01*
X168566250Y-135593000D01*
X168725000Y-135434250D01*
X168725000Y-134993691D01*
X168628327Y-134760302D01*
X168487090Y-134619064D01*
X168541441Y-134584090D01*
X168686431Y-134371890D01*
X168737440Y-134120000D01*
X168737440Y-132920000D01*
X168693162Y-132684683D01*
X168554090Y-132468559D01*
X168341890Y-132323569D01*
X168090000Y-132272560D01*
X167190000Y-132272560D01*
X166954683Y-132316838D01*
X166738559Y-132455910D01*
X166618925Y-132631000D01*
X166219657Y-132631000D01*
X166391726Y-132373480D01*
X166481929Y-131920000D01*
X166391726Y-131466520D01*
X166134851Y-131082078D01*
X165892283Y-130920000D01*
X166058407Y-130809000D01*
X167260000Y-130809000D01*
X167600206Y-130741329D01*
X167888618Y-130548618D01*
X173983618Y-124453618D01*
X174176330Y-124165205D01*
X174244000Y-123825000D01*
X174244000Y-123097106D01*
X174434147Y-122970054D01*
X174623345Y-122686899D01*
X174623355Y-122686924D01*
X175013642Y-123115183D01*
X175538108Y-123361486D01*
X175768000Y-123240819D01*
X175768000Y-122047000D01*
X176022000Y-122047000D01*
X176022000Y-123240819D01*
X176251892Y-123361486D01*
X176776358Y-123115183D01*
X177166645Y-122686924D01*
X177336476Y-122276890D01*
X177215155Y-122047000D01*
X176022000Y-122047000D01*
X175768000Y-122047000D01*
X175748000Y-122047000D01*
X175748000Y-121793000D01*
X175768000Y-121793000D01*
X175768000Y-119507000D01*
X176022000Y-119507000D01*
X176022000Y-121793000D01*
X177215155Y-121793000D01*
X177336476Y-121563110D01*
X177166645Y-121153076D01*
X176776358Y-120724817D01*
X176617046Y-120650000D01*
X176776358Y-120575183D01*
X177166645Y-120146924D01*
X177336476Y-119736890D01*
X177215155Y-119507000D01*
X176022000Y-119507000D01*
X175768000Y-119507000D01*
X175748000Y-119507000D01*
X175748000Y-119253000D01*
X175768000Y-119253000D01*
X175768000Y-119233000D01*
X176022000Y-119233000D01*
X176022000Y-119253000D01*
X177215155Y-119253000D01*
X177336476Y-119023110D01*
X177166645Y-118613076D01*
X176776358Y-118184817D01*
X176633447Y-118117702D01*
X176644973Y-118110000D01*
X189155000Y-118110000D01*
X189354055Y-119110717D01*
X189920916Y-119959084D01*
X190769283Y-120525945D01*
X191770000Y-120725000D01*
X192770717Y-120525945D01*
X193619084Y-119959084D01*
X194185945Y-119110717D01*
X194385000Y-118110000D01*
X194185945Y-117109283D01*
X193619084Y-116260916D01*
X192770717Y-115694055D01*
X191770000Y-115495000D01*
X190769283Y-115694055D01*
X189920916Y-116260916D01*
X189354055Y-117109283D01*
X189155000Y-118110000D01*
X176644973Y-118110000D01*
X176974147Y-117890054D01*
X177296054Y-117408285D01*
X177409093Y-116840000D01*
X177296054Y-116271715D01*
X176974147Y-115789946D01*
X176492378Y-115468039D01*
X175924093Y-115355000D01*
X175865907Y-115355000D01*
X175297622Y-115468039D01*
X174815853Y-115789946D01*
X174815029Y-115791179D01*
X174808162Y-115754683D01*
X174669090Y-115538559D01*
X174456890Y-115393569D01*
X174205000Y-115342560D01*
X172505000Y-115342560D01*
X172269683Y-115386838D01*
X172053559Y-115525910D01*
X171908569Y-115738110D01*
X171857560Y-115990000D01*
X171857560Y-116445204D01*
X167271764Y-121031000D01*
X166058407Y-121031000D01*
X165750409Y-120825203D01*
X165296929Y-120735000D01*
X163823071Y-120735000D01*
X163369591Y-120825203D01*
X162985149Y-121082078D01*
X162728274Y-121466520D01*
X162638071Y-121920000D01*
X162728274Y-122373480D01*
X162985149Y-122757922D01*
X163227717Y-122920000D01*
X162985149Y-123082078D01*
X162728274Y-123466520D01*
X162638071Y-123920000D01*
X162728274Y-124373480D01*
X162985149Y-124757922D01*
X163227717Y-124920000D01*
X162985149Y-125082078D01*
X162728274Y-125466520D01*
X162638071Y-125920000D01*
X162728274Y-126373480D01*
X162985149Y-126757922D01*
X163227717Y-126920000D01*
X162985149Y-127082078D01*
X162728274Y-127466520D01*
X162638071Y-127920000D01*
X162728274Y-128373480D01*
X162985149Y-128757922D01*
X163227717Y-128920000D01*
X162985149Y-129082078D01*
X162728274Y-129466520D01*
X162638071Y-129920000D01*
X162728274Y-130373480D01*
X162985149Y-130757922D01*
X163227717Y-130920000D01*
X162985149Y-131082078D01*
X162728274Y-131466520D01*
X162638071Y-131920000D01*
X162728274Y-132373480D01*
X162985149Y-132757922D01*
X163177717Y-132886591D01*
X162885149Y-133082078D01*
X162628274Y-133466520D01*
X162538071Y-133920000D01*
X159307236Y-133920000D01*
X153289000Y-127901764D01*
X153289000Y-124460000D01*
X153221329Y-124119794D01*
X153028618Y-123831382D01*
X151057440Y-121860204D01*
X151057440Y-121370000D01*
X151013162Y-121134683D01*
X150874090Y-120918559D01*
X150661890Y-120773569D01*
X150410000Y-120722560D01*
X147910000Y-120722560D01*
X147674683Y-120766838D01*
X147458559Y-120905910D01*
X147313569Y-121118110D01*
X147262560Y-121370000D01*
X147262560Y-122470000D01*
X147306838Y-122705317D01*
X147445910Y-122921441D01*
X147633615Y-123049694D01*
X147585149Y-123082078D01*
X147328274Y-123466520D01*
X147238071Y-123920000D01*
X147328274Y-124373480D01*
X147585149Y-124757922D01*
X147827717Y-124920000D01*
X147752439Y-124970299D01*
X147660206Y-124908671D01*
X147320000Y-124841000D01*
X146952096Y-124841000D01*
X146944090Y-124828559D01*
X146731890Y-124683569D01*
X146480000Y-124632560D01*
X145280000Y-124632560D01*
X145044683Y-124676838D01*
X144828559Y-124815910D01*
X144780866Y-124885711D01*
X144744090Y-124828559D01*
X144531890Y-124683569D01*
X144280000Y-124632560D01*
X143080000Y-124632560D01*
X142844683Y-124676838D01*
X142628559Y-124815910D01*
X142599842Y-124857939D01*
X142344794Y-124908671D01*
X142075485Y-125088618D01*
X142056382Y-125101382D01*
X137256593Y-129901171D01*
X137140000Y-129877560D01*
X134759000Y-129877560D01*
X134759000Y-126704920D01*
X134843691Y-126740000D01*
X135084250Y-126740000D01*
X135243000Y-126581250D01*
X135243000Y-125857000D01*
X135497000Y-125857000D01*
X135497000Y-126581250D01*
X135655750Y-126740000D01*
X135896309Y-126740000D01*
X136129698Y-126643327D01*
X136308327Y-126464699D01*
X136405000Y-126231310D01*
X136405000Y-126015750D01*
X136246250Y-125857000D01*
X135497000Y-125857000D01*
X135243000Y-125857000D01*
X135223000Y-125857000D01*
X135223000Y-125603000D01*
X135243000Y-125603000D01*
X135243000Y-124878750D01*
X135497000Y-124878750D01*
X135497000Y-125603000D01*
X136246250Y-125603000D01*
X136405000Y-125444250D01*
X136405000Y-125228690D01*
X136308327Y-124995301D01*
X136129698Y-124816673D01*
X135896309Y-124720000D01*
X135655750Y-124720000D01*
X135497000Y-124878750D01*
X135243000Y-124878750D01*
X135084250Y-124720000D01*
X134843691Y-124720000D01*
X134610302Y-124816673D01*
X134608932Y-124818043D01*
X134521890Y-124758569D01*
X134270000Y-124707560D01*
X134009000Y-124707560D01*
X134009000Y-123917440D01*
X134070000Y-123917440D01*
X134305317Y-123873162D01*
X134521441Y-123734090D01*
X134666431Y-123521890D01*
X134717440Y-123270000D01*
X134717440Y-122765466D01*
X134810302Y-122858327D01*
X135043691Y-122955000D01*
X135834250Y-122955000D01*
X135993000Y-122796250D01*
X135993000Y-122047000D01*
X136247000Y-122047000D01*
X136247000Y-122796250D01*
X136405750Y-122955000D01*
X137196309Y-122955000D01*
X137429698Y-122858327D01*
X137608327Y-122679699D01*
X137705000Y-122446310D01*
X137705000Y-122205750D01*
X137546250Y-122047000D01*
X136247000Y-122047000D01*
X135993000Y-122047000D01*
X134693750Y-122047000D01*
X134607738Y-122133012D01*
X134534090Y-122018559D01*
X134388917Y-121919367D01*
X134521441Y-121834090D01*
X134608064Y-121707314D01*
X134693750Y-121793000D01*
X135993000Y-121793000D01*
X135993000Y-121043750D01*
X136247000Y-121043750D01*
X136247000Y-121793000D01*
X137546250Y-121793000D01*
X137705000Y-121634250D01*
X137705000Y-121393690D01*
X137608327Y-121160301D01*
X137429698Y-120981673D01*
X137196309Y-120885000D01*
X136405750Y-120885000D01*
X136247000Y-121043750D01*
X135993000Y-121043750D01*
X135834250Y-120885000D01*
X135043691Y-120885000D01*
X134810302Y-120981673D01*
X134717440Y-121074534D01*
X134717440Y-120570000D01*
X134673162Y-120334683D01*
X134534090Y-120118559D01*
X134321890Y-119973569D01*
X134263000Y-119961643D01*
X134263000Y-119174827D01*
X134307407Y-119165994D01*
X134391972Y-119109489D01*
X134505317Y-119088162D01*
X134608646Y-119021671D01*
X134610302Y-119023327D01*
X134843691Y-119120000D01*
X135084250Y-119120000D01*
X135243000Y-118961250D01*
X135243000Y-118237000D01*
X135497000Y-118237000D01*
X135497000Y-118961250D01*
X135655750Y-119120000D01*
X135896309Y-119120000D01*
X136129698Y-119023327D01*
X136308327Y-118844699D01*
X136405000Y-118611310D01*
X136405000Y-118395750D01*
X136246250Y-118237000D01*
X135497000Y-118237000D01*
X135243000Y-118237000D01*
X135223000Y-118237000D01*
X135223000Y-117983000D01*
X135243000Y-117983000D01*
X135243000Y-117258750D01*
X135497000Y-117258750D01*
X135497000Y-117983000D01*
X136246250Y-117983000D01*
X136405000Y-117824250D01*
X136405000Y-117608690D01*
X136308327Y-117375301D01*
X136129698Y-117196673D01*
X135896309Y-117100000D01*
X135655750Y-117100000D01*
X135497000Y-117258750D01*
X135243000Y-117258750D01*
X135084250Y-117100000D01*
X134843691Y-117100000D01*
X134610302Y-117196673D01*
X134608932Y-117198043D01*
X134521890Y-117138569D01*
X134395729Y-117113021D01*
X134307407Y-117054006D01*
X133870000Y-116967000D01*
X130810000Y-116967000D01*
X130372593Y-117054006D01*
X130001777Y-117301777D01*
X128731777Y-118571777D01*
X128484006Y-118942593D01*
X128397000Y-119380000D01*
X128397000Y-121446554D01*
X125390914Y-124452640D01*
X122074940Y-124452640D01*
X121839623Y-124496918D01*
X121623499Y-124635990D01*
X121511060Y-124800550D01*
X121511060Y-124136150D01*
X121352310Y-123977400D01*
X119253000Y-123977400D01*
X119253000Y-123997400D01*
X118999000Y-123997400D01*
X118999000Y-123977400D01*
X116899690Y-123977400D01*
X116740940Y-124136150D01*
X116740940Y-125726769D01*
X116794884Y-125857000D01*
X115240043Y-125857000D01*
X114897378Y-125628039D01*
X114329093Y-125515000D01*
X114270907Y-125515000D01*
X113702622Y-125628039D01*
X113220853Y-125949946D01*
X112898946Y-126431715D01*
X112785907Y-127000000D01*
X112470000Y-127000000D01*
X112470000Y-121974031D01*
X116740940Y-121974031D01*
X116740940Y-123564650D01*
X116899690Y-123723400D01*
X118999000Y-123723400D01*
X118999000Y-121624090D01*
X119253000Y-121624090D01*
X119253000Y-123723400D01*
X121352310Y-123723400D01*
X121511060Y-123564650D01*
X121511060Y-122898728D01*
X121536613Y-122960418D01*
X121715241Y-123139047D01*
X121948630Y-123235720D01*
X123539250Y-123235720D01*
X123698000Y-123076970D01*
X123698000Y-120977660D01*
X123952000Y-120977660D01*
X123952000Y-123076970D01*
X124110750Y-123235720D01*
X125701370Y-123235720D01*
X125934759Y-123139047D01*
X126113387Y-122960418D01*
X126210060Y-122727029D01*
X126210060Y-121136410D01*
X126051310Y-120977660D01*
X123952000Y-120977660D01*
X123698000Y-120977660D01*
X121598690Y-120977660D01*
X121439940Y-121136410D01*
X121439940Y-121802332D01*
X121414387Y-121740642D01*
X121235759Y-121562013D01*
X121002370Y-121465340D01*
X119411750Y-121465340D01*
X119253000Y-121624090D01*
X118999000Y-121624090D01*
X118840250Y-121465340D01*
X117249630Y-121465340D01*
X117016241Y-121562013D01*
X116837613Y-121740642D01*
X116740940Y-121974031D01*
X112470000Y-121974031D01*
X112470000Y-118110000D01*
X112955000Y-118110000D01*
X113154055Y-119110717D01*
X113720916Y-119959084D01*
X114569283Y-120525945D01*
X115570000Y-120725000D01*
X116570717Y-120525945D01*
X117419084Y-119959084D01*
X117985945Y-119110717D01*
X118013081Y-118974291D01*
X121439940Y-118974291D01*
X121439940Y-120564910D01*
X121598690Y-120723660D01*
X123698000Y-120723660D01*
X123698000Y-118624350D01*
X123952000Y-118624350D01*
X123952000Y-120723660D01*
X126051310Y-120723660D01*
X126210060Y-120564910D01*
X126210060Y-118974291D01*
X126113387Y-118740902D01*
X125934759Y-118562273D01*
X125701370Y-118465600D01*
X124110750Y-118465600D01*
X123952000Y-118624350D01*
X123698000Y-118624350D01*
X123539250Y-118465600D01*
X121948630Y-118465600D01*
X121715241Y-118562273D01*
X121536613Y-118740902D01*
X121439940Y-118974291D01*
X118013081Y-118974291D01*
X118185000Y-118110000D01*
X117985945Y-117109283D01*
X117419084Y-116260916D01*
X116570717Y-115694055D01*
X115570000Y-115495000D01*
X114569283Y-115694055D01*
X113720916Y-116260916D01*
X113154055Y-117109283D01*
X112955000Y-118110000D01*
X112470000Y-118110000D01*
X112470000Y-115010000D01*
X140230394Y-115010000D01*
X144690197Y-119469803D01*
X144690197Y-119469803D01*
G37*
X144690197Y-119469803D02*
X144730590Y-119496994D01*
X144780000Y-119507000D01*
X167640000Y-119507000D01*
X167687789Y-119497666D01*
X167729803Y-119469803D01*
X172189606Y-115010000D01*
X180437827Y-115010000D01*
X180169722Y-115277637D01*
X179920284Y-115878352D01*
X179919716Y-116528795D01*
X180168106Y-117129943D01*
X180627637Y-117590278D01*
X181228352Y-117839716D01*
X181878795Y-117840284D01*
X182479943Y-117591894D01*
X182714715Y-117357532D01*
X185082073Y-117357532D01*
X185180736Y-117624387D01*
X185790461Y-117850908D01*
X186440460Y-117826856D01*
X186929264Y-117624387D01*
X187027927Y-117357532D01*
X186055000Y-116384605D01*
X185082073Y-117357532D01*
X182714715Y-117357532D01*
X182940278Y-117132363D01*
X183189716Y-116531648D01*
X183190232Y-115940461D01*
X184409092Y-115940461D01*
X184433144Y-116590460D01*
X184635613Y-117079264D01*
X184902468Y-117177927D01*
X185875395Y-116205000D01*
X186234605Y-116205000D01*
X187207532Y-117177927D01*
X187474387Y-117079264D01*
X187700908Y-116469539D01*
X187676856Y-115819540D01*
X187474387Y-115330736D01*
X187207532Y-115232073D01*
X186234605Y-116205000D01*
X185875395Y-116205000D01*
X184902468Y-115232073D01*
X184635613Y-115330736D01*
X184409092Y-115940461D01*
X183190232Y-115940461D01*
X183190284Y-115881205D01*
X182941894Y-115280057D01*
X182672309Y-115010000D01*
X185097774Y-115010000D01*
X185082073Y-115052468D01*
X186055000Y-116025395D01*
X187027927Y-115052468D01*
X187012226Y-115010000D01*
X194870000Y-115010000D01*
X194870000Y-156770000D01*
X112470000Y-156770000D01*
X112470000Y-153670000D01*
X112955000Y-153670000D01*
X113154055Y-154670717D01*
X113720916Y-155519084D01*
X114569283Y-156085945D01*
X115570000Y-156285000D01*
X116570717Y-156085945D01*
X117419084Y-155519084D01*
X117985945Y-154670717D01*
X118185000Y-153670000D01*
X117985945Y-152669283D01*
X117419084Y-151820916D01*
X116570717Y-151254055D01*
X115570000Y-151055000D01*
X114569283Y-151254055D01*
X113720916Y-151820916D01*
X113154055Y-152669283D01*
X112955000Y-153670000D01*
X112470000Y-153670000D01*
X112470000Y-148142960D01*
X113998000Y-148142960D01*
X113998000Y-149992080D01*
X114042278Y-150227397D01*
X114181350Y-150443521D01*
X114393550Y-150588511D01*
X114645440Y-150639520D01*
X116494560Y-150639520D01*
X116729877Y-150595242D01*
X116946001Y-150456170D01*
X117090991Y-150243970D01*
X117142000Y-149992080D01*
X117142000Y-149813275D01*
X123195000Y-149813275D01*
X123195000Y-149906725D01*
X123376547Y-150819425D01*
X123893550Y-151593175D01*
X124667300Y-152110178D01*
X125580000Y-152291725D01*
X126492700Y-152110178D01*
X127266450Y-151593175D01*
X127783453Y-150819425D01*
X127965000Y-149906725D01*
X127965000Y-149813275D01*
X127783453Y-148900575D01*
X127266450Y-148126825D01*
X126492700Y-147609822D01*
X125580000Y-147428275D01*
X124667300Y-147609822D01*
X123893550Y-148126825D01*
X123376547Y-148900575D01*
X123195000Y-149813275D01*
X117142000Y-149813275D01*
X117142000Y-148142960D01*
X117097722Y-147907643D01*
X116958650Y-147691519D01*
X116746450Y-147546529D01*
X116494560Y-147495520D01*
X114645440Y-147495520D01*
X114410123Y-147539798D01*
X114193999Y-147678870D01*
X114049009Y-147891070D01*
X113998000Y-148142960D01*
X112470000Y-148142960D01*
X112470000Y-145881335D01*
X114010169Y-145881335D01*
X114247098Y-146454746D01*
X114685427Y-146893840D01*
X115258423Y-147131769D01*
X115878855Y-147132311D01*
X116307355Y-146955258D01*
X140748954Y-146955258D01*
X140869003Y-147193000D01*
X142113000Y-147193000D01*
X142113000Y-145949622D01*
X141875260Y-145828964D01*
X141443583Y-146007760D01*
X141002034Y-146412424D01*
X140748954Y-146955258D01*
X116307355Y-146955258D01*
X116452266Y-146895382D01*
X116891360Y-146457053D01*
X117129289Y-145884057D01*
X117129831Y-145263625D01*
X116892902Y-144690214D01*
X116454573Y-144251120D01*
X115881577Y-144013191D01*
X115261145Y-144012649D01*
X114687734Y-144249578D01*
X114248640Y-144687907D01*
X114010711Y-145260903D01*
X114010169Y-145881335D01*
X112470000Y-145881335D01*
X112470000Y-141157960D01*
X113998000Y-141157960D01*
X113998000Y-143007080D01*
X114042278Y-143242397D01*
X114181350Y-143458521D01*
X114393550Y-143603511D01*
X114645440Y-143654520D01*
X116494560Y-143654520D01*
X116729877Y-143610242D01*
X116946001Y-143471170D01*
X117090991Y-143258970D01*
X117142000Y-143007080D01*
X117142000Y-141157960D01*
X117097722Y-140922643D01*
X116958650Y-140706519D01*
X116746450Y-140561529D01*
X116494560Y-140510520D01*
X114645440Y-140510520D01*
X114410123Y-140554798D01*
X114193999Y-140693870D01*
X114049009Y-140906070D01*
X113998000Y-141157960D01*
X112470000Y-141157960D01*
X112470000Y-127000000D01*
X112785907Y-127000000D01*
X112898946Y-127568285D01*
X113220853Y-128050054D01*
X113550026Y-128270000D01*
X113220853Y-128489946D01*
X112898946Y-128971715D01*
X112785907Y-129540000D01*
X112898946Y-130108285D01*
X113220853Y-130590054D01*
X113550026Y-130810000D01*
X113220853Y-131029946D01*
X112898946Y-131511715D01*
X112785907Y-132080000D01*
X112898946Y-132648285D01*
X113220853Y-133130054D01*
X113262452Y-133157850D01*
X113214683Y-133166838D01*
X112998559Y-133305910D01*
X112853569Y-133518110D01*
X112802560Y-133770000D01*
X112802560Y-135470000D01*
X112846838Y-135705317D01*
X112985910Y-135921441D01*
X113198110Y-136066431D01*
X113450000Y-136117440D01*
X115150000Y-136117440D01*
X115385317Y-136073162D01*
X115601441Y-135934090D01*
X115746431Y-135721890D01*
X115797440Y-135470000D01*
X115797440Y-133770000D01*
X115753162Y-133534683D01*
X115614090Y-133318559D01*
X115401890Y-133173569D01*
X115334459Y-133159914D01*
X115379147Y-133130054D01*
X115701054Y-132648285D01*
X115814093Y-132080000D01*
X115701054Y-131511715D01*
X115379147Y-131029946D01*
X115049974Y-130810000D01*
X115379147Y-130590054D01*
X115701054Y-130108285D01*
X115814093Y-129540000D01*
X115701054Y-128971715D01*
X115379147Y-128489946D01*
X115049974Y-128270000D01*
X115240043Y-128143000D01*
X121427500Y-128143000D01*
X121427500Y-128600200D01*
X121471778Y-128835517D01*
X121610850Y-129051641D01*
X121823050Y-129196631D01*
X122074940Y-129247640D01*
X122682000Y-129247640D01*
X122682000Y-137321554D01*
X122559074Y-137444480D01*
X116632622Y-137444480D01*
X116454573Y-137266120D01*
X115881577Y-137028191D01*
X115261145Y-137027649D01*
X114687734Y-137264578D01*
X114248640Y-137702907D01*
X114010711Y-138275903D01*
X114010169Y-138896335D01*
X114247098Y-139469746D01*
X114685427Y-139908840D01*
X115258423Y-140146769D01*
X115878855Y-140147311D01*
X116452266Y-139910382D01*
X116632482Y-139730480D01*
X123032520Y-139730480D01*
X123469927Y-139643474D01*
X123599460Y-139556923D01*
X123571000Y-139700000D01*
X123571000Y-143510000D01*
X123638671Y-143850206D01*
X123831382Y-144138618D01*
X124119794Y-144331329D01*
X124460000Y-144399000D01*
X124800206Y-144331329D01*
X125088618Y-144138618D01*
X125281329Y-143850206D01*
X125349000Y-143510000D01*
X125349000Y-140810750D01*
X134005000Y-140810750D01*
X134005000Y-142651309D01*
X134101673Y-142884698D01*
X134280301Y-143063327D01*
X134513690Y-143160000D01*
X135604250Y-143160000D01*
X135763000Y-143001250D01*
X135763000Y-140652000D01*
X136017000Y-140652000D01*
X136017000Y-143001250D01*
X136175750Y-143160000D01*
X137266310Y-143160000D01*
X137499699Y-143063327D01*
X137678327Y-142884698D01*
X137775000Y-142651309D01*
X137775000Y-142005750D01*
X148850000Y-142005750D01*
X148850000Y-142246309D01*
X148946673Y-142479698D01*
X149125301Y-142658327D01*
X149358690Y-142755000D01*
X149574250Y-142755000D01*
X149733000Y-142596250D01*
X149733000Y-141847000D01*
X149987000Y-141847000D01*
X149987000Y-142596250D01*
X150145750Y-142755000D01*
X150361310Y-142755000D01*
X150594699Y-142658327D01*
X150773327Y-142479698D01*
X150870000Y-142246309D01*
X150870000Y-142005750D01*
X150711250Y-141847000D01*
X149987000Y-141847000D01*
X149733000Y-141847000D01*
X149008750Y-141847000D01*
X148850000Y-142005750D01*
X137775000Y-142005750D01*
X137775000Y-140810750D01*
X137616250Y-140652000D01*
X136017000Y-140652000D01*
X135763000Y-140652000D01*
X134163750Y-140652000D01*
X134005000Y-140810750D01*
X125349000Y-140810750D01*
X125349000Y-139700000D01*
X125281329Y-139359794D01*
X125088618Y-139071382D01*
X124800206Y-138878671D01*
X124460000Y-138811000D01*
X124416866Y-138819580D01*
X124633223Y-138603223D01*
X124769886Y-138398691D01*
X134005000Y-138398691D01*
X134005000Y-140239250D01*
X134163750Y-140398000D01*
X135763000Y-140398000D01*
X135763000Y-138048750D01*
X136017000Y-138048750D01*
X136017000Y-140398000D01*
X137616250Y-140398000D01*
X137775000Y-140239250D01*
X137775000Y-138398691D01*
X137678327Y-138165302D01*
X137499699Y-137986673D01*
X137266310Y-137890000D01*
X136175750Y-137890000D01*
X136017000Y-138048750D01*
X135763000Y-138048750D01*
X135604250Y-137890000D01*
X134513690Y-137890000D01*
X134280301Y-137986673D01*
X134101673Y-138165302D01*
X134005000Y-138398691D01*
X124769886Y-138398691D01*
X124880994Y-138232407D01*
X124968000Y-137795000D01*
X124968000Y-129247640D01*
X125575060Y-129247640D01*
X125810377Y-129203362D01*
X126026501Y-129064290D01*
X126171491Y-128852090D01*
X126222500Y-128600200D01*
X126222500Y-126853946D01*
X130348223Y-122728223D01*
X130595994Y-122357407D01*
X130683000Y-121920000D01*
X130683000Y-119853446D01*
X131283446Y-119253000D01*
X131977000Y-119253000D01*
X131977000Y-119958875D01*
X131934683Y-119966838D01*
X131718559Y-120105910D01*
X131573569Y-120318110D01*
X131522560Y-120570000D01*
X131522560Y-121370000D01*
X131566838Y-121605317D01*
X131705910Y-121821441D01*
X131851083Y-121920633D01*
X131718559Y-122005910D01*
X131573569Y-122218110D01*
X131522560Y-122470000D01*
X131522560Y-123270000D01*
X131566838Y-123505317D01*
X131705910Y-123721441D01*
X131918110Y-123866431D01*
X132170000Y-123917440D01*
X132231000Y-123917440D01*
X132231000Y-125500000D01*
X132298671Y-125840206D01*
X132406889Y-126002165D01*
X132491382Y-126128618D01*
X132721382Y-126358618D01*
X132981000Y-126532089D01*
X132981000Y-130505000D01*
X133048671Y-130845206D01*
X133172815Y-131031000D01*
X133241382Y-131133618D01*
X133992560Y-131884796D01*
X133992560Y-134525000D01*
X134036838Y-134760317D01*
X134175910Y-134976441D01*
X134388110Y-135121431D01*
X134640000Y-135172440D01*
X137140000Y-135172440D01*
X137375317Y-135128162D01*
X137591441Y-134989090D01*
X137736431Y-134776890D01*
X137787440Y-134525000D01*
X137787440Y-133414000D01*
X142316764Y-133414000D01*
X145191000Y-136288236D01*
X145191000Y-137190000D01*
X145258671Y-137530206D01*
X145375608Y-137705214D01*
X145451382Y-137818618D01*
X146691382Y-139058618D01*
X146979795Y-139251329D01*
X147320000Y-139319000D01*
X147660205Y-139251329D01*
X147948618Y-139058618D01*
X148141329Y-138770205D01*
X148209000Y-138430000D01*
X148141329Y-138089795D01*
X147948618Y-137801382D01*
X146969000Y-136821764D01*
X146969000Y-136809000D01*
X147661593Y-136809000D01*
X147969591Y-137014797D01*
X148423071Y-137105000D01*
X148971000Y-137105000D01*
X148971000Y-139447468D01*
X148888569Y-139568110D01*
X148837560Y-139820000D01*
X148837560Y-140620000D01*
X148881838Y-140855317D01*
X148948329Y-140958646D01*
X148946673Y-140960302D01*
X148850000Y-141193691D01*
X148850000Y-141434250D01*
X149008750Y-141593000D01*
X149733000Y-141593000D01*
X149733000Y-141573000D01*
X149987000Y-141573000D01*
X149987000Y-141593000D01*
X150711250Y-141593000D01*
X150870000Y-141434250D01*
X150870000Y-141193691D01*
X150773327Y-140960302D01*
X150771957Y-140958932D01*
X150831431Y-140871890D01*
X150882440Y-140620000D01*
X150882440Y-139820000D01*
X150838162Y-139584683D01*
X150749000Y-139446121D01*
X150749000Y-136736746D01*
X150991726Y-136373480D01*
X151081929Y-135920000D01*
X151059374Y-135806610D01*
X152781000Y-137528236D01*
X152781000Y-138797904D01*
X152768559Y-138805910D01*
X152623569Y-139018110D01*
X152572560Y-139270000D01*
X152572560Y-140470000D01*
X152616838Y-140705317D01*
X152755910Y-140921441D01*
X152825711Y-140969134D01*
X152768559Y-141005910D01*
X152623569Y-141218110D01*
X152572560Y-141470000D01*
X152572560Y-142670000D01*
X152616838Y-142905317D01*
X152755910Y-143121441D01*
X152781000Y-143138584D01*
X152781000Y-144411764D01*
X152031764Y-145161000D01*
X146050000Y-145161000D01*
X145709795Y-145228670D01*
X145421382Y-145421382D01*
X143649766Y-147192998D01*
X143610998Y-147192998D01*
X143731046Y-146955258D01*
X143477966Y-146412424D01*
X143036417Y-146007760D01*
X142604740Y-145828964D01*
X142367000Y-145949622D01*
X142367000Y-147193000D01*
X142387000Y-147193000D01*
X142387000Y-147447000D01*
X142367000Y-147447000D01*
X142367000Y-147467000D01*
X142113000Y-147467000D01*
X142113000Y-147447000D01*
X140869003Y-147447000D01*
X140748954Y-147684742D01*
X141002034Y-148227576D01*
X141392582Y-148585499D01*
X141154591Y-148744519D01*
X140821845Y-149242509D01*
X140705000Y-149829928D01*
X140705000Y-149890072D01*
X140821845Y-150477491D01*
X141102837Y-150898026D01*
X140888559Y-151035910D01*
X140743569Y-151248110D01*
X140692560Y-151500000D01*
X140692560Y-153300000D01*
X140736838Y-153535317D01*
X140875910Y-153751441D01*
X141088110Y-153896431D01*
X141340000Y-153947440D01*
X143140000Y-153947440D01*
X143375317Y-153903162D01*
X143591441Y-153764090D01*
X143736431Y-153551890D01*
X143787440Y-153300000D01*
X143787440Y-151500000D01*
X143743162Y-151264683D01*
X143604090Y-151048559D01*
X143391890Y-150903569D01*
X143375656Y-150900281D01*
X143658155Y-150477491D01*
X143775000Y-149890072D01*
X143775000Y-149829928D01*
X143771688Y-149813275D01*
X144785000Y-149813275D01*
X144785000Y-149906725D01*
X144966547Y-150819425D01*
X145483550Y-151593175D01*
X146257300Y-152110178D01*
X147170000Y-152291725D01*
X148082700Y-152110178D01*
X148856450Y-151593175D01*
X149373453Y-150819425D01*
X149555000Y-149906725D01*
X149555000Y-149813275D01*
X149373453Y-148900575D01*
X148856450Y-148126825D01*
X148082700Y-147609822D01*
X147170000Y-147428275D01*
X146257300Y-147609822D01*
X145483550Y-148126825D01*
X144966547Y-148900575D01*
X144785000Y-149813275D01*
X143771688Y-149813275D01*
X143733905Y-149623331D01*
X146418236Y-146939000D01*
X152400000Y-146939000D01*
X152740206Y-146871329D01*
X153028618Y-146678618D01*
X154298618Y-145408618D01*
X154397318Y-145260903D01*
X154491329Y-145120206D01*
X154559000Y-144780000D01*
X154559000Y-143142096D01*
X154571441Y-143134090D01*
X154716431Y-142921890D01*
X154767440Y-142670000D01*
X154767440Y-141470000D01*
X154723162Y-141234683D01*
X154584090Y-141018559D01*
X154514289Y-140970866D01*
X154571441Y-140934090D01*
X154716431Y-140721890D01*
X154767440Y-140470000D01*
X154767440Y-139270000D01*
X154723162Y-139034683D01*
X154584090Y-138818559D01*
X154559000Y-138801416D01*
X154559000Y-137160000D01*
X154491329Y-136819794D01*
X154298618Y-136531382D01*
X151058618Y-133291382D01*
X150891616Y-133179795D01*
X150770206Y-133098671D01*
X150742218Y-133093104D01*
X150734851Y-133082078D01*
X150492283Y-132920000D01*
X150624452Y-132831688D01*
X155321000Y-137528236D01*
X155321000Y-138797904D01*
X155308559Y-138805910D01*
X155163569Y-139018110D01*
X155112560Y-139270000D01*
X155112560Y-140470000D01*
X155156838Y-140705317D01*
X155295910Y-140921441D01*
X155365711Y-140969134D01*
X155308559Y-141005910D01*
X155163569Y-141218110D01*
X155112560Y-141470000D01*
X155112560Y-142670000D01*
X155156838Y-142905317D01*
X155295910Y-143121441D01*
X155321000Y-143138584D01*
X155321000Y-144780000D01*
X155388671Y-145120206D01*
X155482682Y-145260903D01*
X155581382Y-145408618D01*
X160661382Y-150488618D01*
X160949794Y-150681329D01*
X161290000Y-150749000D01*
X162593261Y-150749000D01*
X162692837Y-150898026D01*
X162478559Y-151035910D01*
X162333569Y-151248110D01*
X162282560Y-151500000D01*
X162282560Y-153300000D01*
X162326838Y-153535317D01*
X162465910Y-153751441D01*
X162678110Y-153896431D01*
X162930000Y-153947440D01*
X164730000Y-153947440D01*
X164965317Y-153903162D01*
X165181441Y-153764090D01*
X165326431Y-153551890D01*
X165377440Y-153300000D01*
X165377440Y-151500000D01*
X165333162Y-151264683D01*
X165194090Y-151048559D01*
X164981890Y-150903569D01*
X164965656Y-150900281D01*
X165248155Y-150477491D01*
X165365000Y-149890072D01*
X165365000Y-149829928D01*
X165361688Y-149813275D01*
X167645000Y-149813275D01*
X167645000Y-149906725D01*
X167826547Y-150819425D01*
X168343550Y-151593175D01*
X169117300Y-152110178D01*
X170030000Y-152291725D01*
X170942700Y-152110178D01*
X171716450Y-151593175D01*
X172233453Y-150819425D01*
X172415000Y-149906725D01*
X172415000Y-149813275D01*
X172233453Y-148900575D01*
X171716450Y-148126825D01*
X170942700Y-147609822D01*
X170030000Y-147428275D01*
X169117300Y-147609822D01*
X168343550Y-148126825D01*
X167826547Y-148900575D01*
X167645000Y-149813275D01*
X165361688Y-149813275D01*
X165248155Y-149242509D01*
X164915409Y-148744519D01*
X164677418Y-148585499D01*
X165067966Y-148227576D01*
X165321046Y-147684742D01*
X165200997Y-147447000D01*
X163957000Y-147447000D01*
X163957000Y-147467000D01*
X163703000Y-147467000D01*
X163703000Y-147447000D01*
X162459003Y-147447000D01*
X162338954Y-147684742D01*
X162592034Y-148227576D01*
X162982582Y-148585499D01*
X162744591Y-148744519D01*
X162593261Y-148971000D01*
X161658236Y-148971000D01*
X159642494Y-146955258D01*
X162338954Y-146955258D01*
X162459003Y-147193000D01*
X163703000Y-147193000D01*
X163703000Y-145949622D01*
X163957000Y-145949622D01*
X163957000Y-147193000D01*
X165200997Y-147193000D01*
X165321046Y-146955258D01*
X165067966Y-146412424D01*
X164626417Y-146007760D01*
X164194740Y-145828964D01*
X163957000Y-145949622D01*
X163703000Y-145949622D01*
X163465260Y-145828964D01*
X163033583Y-146007760D01*
X162592034Y-146412424D01*
X162338954Y-146955258D01*
X159642494Y-146955258D01*
X157099000Y-144411764D01*
X157099000Y-143142096D01*
X157111441Y-143134090D01*
X157256431Y-142921890D01*
X157307440Y-142670000D01*
X157307440Y-141470000D01*
X157263162Y-141234683D01*
X157124090Y-141018559D01*
X157054289Y-140970866D01*
X157111441Y-140934090D01*
X157256431Y-140721890D01*
X157307440Y-140470000D01*
X157307440Y-139270000D01*
X157263162Y-139034683D01*
X157124090Y-138818559D01*
X157099000Y-138801416D01*
X157099000Y-137160000D01*
X157031329Y-136819794D01*
X156838618Y-136531382D01*
X151598618Y-131291382D01*
X151310206Y-131098671D01*
X150970000Y-131031000D01*
X150658407Y-131031000D01*
X150492283Y-130920000D01*
X150658407Y-130809000D01*
X151141764Y-130809000D01*
X157861000Y-137528236D01*
X157861000Y-138797904D01*
X157848559Y-138805910D01*
X157703569Y-139018110D01*
X157652560Y-139270000D01*
X157652560Y-140470000D01*
X157696838Y-140705317D01*
X157835910Y-140921441D01*
X157905711Y-140969134D01*
X157848559Y-141005910D01*
X157703569Y-141218110D01*
X157652560Y-141470000D01*
X157652560Y-142670000D01*
X157696838Y-142905317D01*
X157835910Y-143121441D01*
X157861000Y-143138584D01*
X157861000Y-143510000D01*
X157928671Y-143850206D01*
X158121382Y-144138618D01*
X159391382Y-145408618D01*
X159679794Y-145601329D01*
X160020000Y-145669000D01*
X177431764Y-145669000D01*
X182251382Y-150488618D01*
X182539794Y-150681329D01*
X182880000Y-150749000D01*
X185453261Y-150749000D01*
X185552837Y-150898026D01*
X185338559Y-151035910D01*
X185193569Y-151248110D01*
X185142560Y-151500000D01*
X185142560Y-153300000D01*
X185186838Y-153535317D01*
X185325910Y-153751441D01*
X185538110Y-153896431D01*
X185790000Y-153947440D01*
X187590000Y-153947440D01*
X187825317Y-153903162D01*
X188041441Y-153764090D01*
X188105729Y-153670000D01*
X188520000Y-153670000D01*
X188719055Y-154670717D01*
X189285916Y-155519084D01*
X190134283Y-156085945D01*
X191135000Y-156285000D01*
X192135717Y-156085945D01*
X192984084Y-155519084D01*
X193550945Y-154670717D01*
X193750000Y-153670000D01*
X193550945Y-152669283D01*
X192984084Y-151820916D01*
X192135717Y-151254055D01*
X191135000Y-151055000D01*
X190134283Y-151254055D01*
X189285916Y-151820916D01*
X188719055Y-152669283D01*
X188520000Y-153670000D01*
X188105729Y-153670000D01*
X188186431Y-153551890D01*
X188237440Y-153300000D01*
X188237440Y-151500000D01*
X188193162Y-151264683D01*
X188054090Y-151048559D01*
X187841890Y-150903569D01*
X187825656Y-150900281D01*
X188108155Y-150477491D01*
X188225000Y-149890072D01*
X188225000Y-149829928D01*
X188108155Y-149242509D01*
X187775409Y-148744519D01*
X187537418Y-148585499D01*
X187927966Y-148227576D01*
X188181046Y-147684742D01*
X188060997Y-147447000D01*
X186817000Y-147447000D01*
X186817000Y-147467000D01*
X186563000Y-147467000D01*
X186563000Y-147447000D01*
X185319003Y-147447000D01*
X185198954Y-147684742D01*
X185452034Y-148227576D01*
X185842582Y-148585499D01*
X185604591Y-148744519D01*
X185453261Y-148971000D01*
X183248236Y-148971000D01*
X181232494Y-146955258D01*
X185198954Y-146955258D01*
X185319003Y-147193000D01*
X186563000Y-147193000D01*
X186563000Y-145949622D01*
X186817000Y-145949622D01*
X186817000Y-147193000D01*
X188060997Y-147193000D01*
X188181046Y-146955258D01*
X187927966Y-146412424D01*
X187486417Y-146007760D01*
X187054740Y-145828964D01*
X186817000Y-145949622D01*
X186563000Y-145949622D01*
X186325260Y-145828964D01*
X185893583Y-146007760D01*
X185452034Y-146412424D01*
X185198954Y-146955258D01*
X181232494Y-146955258D01*
X178428618Y-144151382D01*
X178409515Y-144138618D01*
X178140206Y-143958671D01*
X177800000Y-143891000D01*
X160388236Y-143891000D01*
X159639202Y-143141966D01*
X159651441Y-143134090D01*
X159796431Y-142921890D01*
X159847440Y-142670000D01*
X159847440Y-141470000D01*
X159803162Y-141234683D01*
X159664090Y-141018559D01*
X159594289Y-140970866D01*
X159651441Y-140934090D01*
X159796431Y-140721890D01*
X159847440Y-140470000D01*
X159847440Y-139270000D01*
X159803162Y-139034683D01*
X159664090Y-138818559D01*
X159639000Y-138801416D01*
X159639000Y-137160000D01*
X159571329Y-136819794D01*
X159378618Y-136531382D01*
X152138618Y-129291382D01*
X152096047Y-129262937D01*
X151850206Y-129098671D01*
X151510000Y-129031000D01*
X150658407Y-129031000D01*
X150492283Y-128920000D01*
X150734851Y-128757922D01*
X150991726Y-128373480D01*
X151081929Y-127920000D01*
X150991726Y-127466520D01*
X150734851Y-127082078D01*
X150492283Y-126920000D01*
X150734851Y-126757922D01*
X150991726Y-126373480D01*
X151081929Y-125920000D01*
X150991726Y-125466520D01*
X150734851Y-125082078D01*
X150492283Y-124920000D01*
X150734851Y-124757922D01*
X150991726Y-124373480D01*
X151002430Y-124319666D01*
X151511000Y-124828236D01*
X151511000Y-128270000D01*
X151578671Y-128610206D01*
X151662056Y-128735000D01*
X151771382Y-128898618D01*
X163201382Y-140328618D01*
X163489794Y-140521329D01*
X163830000Y-140589000D01*
X172720000Y-140589000D01*
X173060206Y-140521329D01*
X173348618Y-140328618D01*
X182183618Y-131493618D01*
X182201724Y-131466520D01*
X182376329Y-131205206D01*
X182444000Y-130865000D01*
X182444000Y-124106745D01*
X182479943Y-124091894D01*
X182714715Y-123857532D01*
X185082073Y-123857532D01*
X185180736Y-124124387D01*
X185790461Y-124350908D01*
X186440460Y-124326856D01*
X186929264Y-124124387D01*
X187027927Y-123857532D01*
X186055000Y-122884605D01*
X185082073Y-123857532D01*
X182714715Y-123857532D01*
X182940278Y-123632363D01*
X183189716Y-123031648D01*
X183190232Y-122440461D01*
X184409092Y-122440461D01*
X184433144Y-123090460D01*
X184635613Y-123579264D01*
X184902468Y-123677927D01*
X185875395Y-122705000D01*
X186234605Y-122705000D01*
X187207532Y-123677927D01*
X187474387Y-123579264D01*
X187700908Y-122969539D01*
X187676856Y-122319540D01*
X187474387Y-121830736D01*
X187207532Y-121732073D01*
X186234605Y-122705000D01*
X185875395Y-122705000D01*
X184902468Y-121732073D01*
X184635613Y-121830736D01*
X184409092Y-122440461D01*
X183190232Y-122440461D01*
X183190284Y-122381205D01*
X182941894Y-121780057D01*
X182714703Y-121552468D01*
X185082073Y-121552468D01*
X186055000Y-122525395D01*
X187027927Y-121552468D01*
X186929264Y-121285613D01*
X186319539Y-121059092D01*
X185669540Y-121083144D01*
X185180736Y-121285613D01*
X185082073Y-121552468D01*
X182714703Y-121552468D01*
X182482363Y-121319722D01*
X181881648Y-121070284D01*
X181231205Y-121069716D01*
X180630057Y-121318106D01*
X180169722Y-121777637D01*
X179920284Y-122378352D01*
X179919716Y-123028795D01*
X180168106Y-123629943D01*
X180627637Y-124090278D01*
X180666000Y-124106208D01*
X180666000Y-130496764D01*
X172351764Y-138811000D01*
X164198236Y-138811000D01*
X161616980Y-136229744D01*
X162716197Y-136229744D01*
X162716602Y-136256146D01*
X162932276Y-136668118D01*
X163289187Y-136966196D01*
X163733000Y-137105000D01*
X164433000Y-137105000D01*
X164433000Y-136047000D01*
X164687000Y-136047000D01*
X164687000Y-137105000D01*
X165387000Y-137105000D01*
X165830813Y-136966196D01*
X166187724Y-136668118D01*
X166403398Y-136256146D01*
X166403803Y-136229744D01*
X166278361Y-136047000D01*
X164687000Y-136047000D01*
X164433000Y-136047000D01*
X162841639Y-136047000D01*
X162716197Y-136229744D01*
X161616980Y-136229744D01*
X161392986Y-136005750D01*
X166555000Y-136005750D01*
X166555000Y-136446309D01*
X166651673Y-136679698D01*
X166830301Y-136858327D01*
X167063690Y-136955000D01*
X167354250Y-136955000D01*
X167513000Y-136796250D01*
X167513000Y-135847000D01*
X167767000Y-135847000D01*
X167767000Y-136796250D01*
X167925750Y-136955000D01*
X168216310Y-136955000D01*
X168449699Y-136858327D01*
X168628327Y-136679698D01*
X168725000Y-136446309D01*
X168725000Y-136005750D01*
X168566250Y-135847000D01*
X167767000Y-135847000D01*
X167513000Y-135847000D01*
X166713750Y-135847000D01*
X166555000Y-136005750D01*
X161392986Y-136005750D01*
X159307236Y-133920000D01*
X162538071Y-133920000D01*
X162628274Y-134373480D01*
X162885149Y-134757922D01*
X163186691Y-134959405D01*
X162932276Y-135171882D01*
X162716602Y-135583854D01*
X162716197Y-135610256D01*
X162841639Y-135793000D01*
X164433000Y-135793000D01*
X164433000Y-135773000D01*
X164687000Y-135773000D01*
X164687000Y-135793000D01*
X166278361Y-135793000D01*
X166403803Y-135610256D01*
X166403398Y-135583854D01*
X166187724Y-135171882D01*
X165844417Y-134885165D01*
X166025553Y-134764135D01*
X166140206Y-134741329D01*
X166428618Y-134548618D01*
X166568236Y-134409000D01*
X166621382Y-134409000D01*
X166725910Y-134571441D01*
X166794006Y-134617969D01*
X166651673Y-134760302D01*
X166555000Y-134993691D01*
X166555000Y-135434250D01*
X166713750Y-135593000D01*
X167513000Y-135593000D01*
X167513000Y-135573000D01*
X167767000Y-135573000D01*
X167767000Y-135593000D01*
X168566250Y-135593000D01*
X168725000Y-135434250D01*
X168725000Y-134993691D01*
X168628327Y-134760302D01*
X168487090Y-134619064D01*
X168541441Y-134584090D01*
X168686431Y-134371890D01*
X168737440Y-134120000D01*
X168737440Y-132920000D01*
X168693162Y-132684683D01*
X168554090Y-132468559D01*
X168341890Y-132323569D01*
X168090000Y-132272560D01*
X167190000Y-132272560D01*
X166954683Y-132316838D01*
X166738559Y-132455910D01*
X166618925Y-132631000D01*
X166219657Y-132631000D01*
X166391726Y-132373480D01*
X166481929Y-131920000D01*
X166391726Y-131466520D01*
X166134851Y-131082078D01*
X165892283Y-130920000D01*
X166058407Y-130809000D01*
X167260000Y-130809000D01*
X167600206Y-130741329D01*
X167888618Y-130548618D01*
X173983618Y-124453618D01*
X174176330Y-124165205D01*
X174244000Y-123825000D01*
X174244000Y-123097106D01*
X174434147Y-122970054D01*
X174623345Y-122686899D01*
X174623355Y-122686924D01*
X175013642Y-123115183D01*
X175538108Y-123361486D01*
X175768000Y-123240819D01*
X175768000Y-122047000D01*
X176022000Y-122047000D01*
X176022000Y-123240819D01*
X176251892Y-123361486D01*
X176776358Y-123115183D01*
X177166645Y-122686924D01*
X177336476Y-122276890D01*
X177215155Y-122047000D01*
X176022000Y-122047000D01*
X175768000Y-122047000D01*
X175748000Y-122047000D01*
X175748000Y-121793000D01*
X175768000Y-121793000D01*
X175768000Y-119507000D01*
X176022000Y-119507000D01*
X176022000Y-121793000D01*
X177215155Y-121793000D01*
X177336476Y-121563110D01*
X177166645Y-121153076D01*
X176776358Y-120724817D01*
X176617046Y-120650000D01*
X176776358Y-120575183D01*
X177166645Y-120146924D01*
X177336476Y-119736890D01*
X177215155Y-119507000D01*
X176022000Y-119507000D01*
X175768000Y-119507000D01*
X175748000Y-119507000D01*
X175748000Y-119253000D01*
X175768000Y-119253000D01*
X175768000Y-119233000D01*
X176022000Y-119233000D01*
X176022000Y-119253000D01*
X177215155Y-119253000D01*
X177336476Y-119023110D01*
X177166645Y-118613076D01*
X176776358Y-118184817D01*
X176633447Y-118117702D01*
X176644973Y-118110000D01*
X189155000Y-118110000D01*
X189354055Y-119110717D01*
X189920916Y-119959084D01*
X190769283Y-120525945D01*
X191770000Y-120725000D01*
X192770717Y-120525945D01*
X193619084Y-119959084D01*
X194185945Y-119110717D01*
X194385000Y-118110000D01*
X194185945Y-117109283D01*
X193619084Y-116260916D01*
X192770717Y-115694055D01*
X191770000Y-115495000D01*
X190769283Y-115694055D01*
X189920916Y-116260916D01*
X189354055Y-117109283D01*
X189155000Y-118110000D01*
X176644973Y-118110000D01*
X176974147Y-117890054D01*
X177296054Y-117408285D01*
X177409093Y-116840000D01*
X177296054Y-116271715D01*
X176974147Y-115789946D01*
X176492378Y-115468039D01*
X175924093Y-115355000D01*
X175865907Y-115355000D01*
X175297622Y-115468039D01*
X174815853Y-115789946D01*
X174815029Y-115791179D01*
X174808162Y-115754683D01*
X174669090Y-115538559D01*
X174456890Y-115393569D01*
X174205000Y-115342560D01*
X172505000Y-115342560D01*
X172269683Y-115386838D01*
X172053559Y-115525910D01*
X171908569Y-115738110D01*
X171857560Y-115990000D01*
X171857560Y-116445204D01*
X167271764Y-121031000D01*
X166058407Y-121031000D01*
X165750409Y-120825203D01*
X165296929Y-120735000D01*
X163823071Y-120735000D01*
X163369591Y-120825203D01*
X162985149Y-121082078D01*
X162728274Y-121466520D01*
X162638071Y-121920000D01*
X162728274Y-122373480D01*
X162985149Y-122757922D01*
X163227717Y-122920000D01*
X162985149Y-123082078D01*
X162728274Y-123466520D01*
X162638071Y-123920000D01*
X162728274Y-124373480D01*
X162985149Y-124757922D01*
X163227717Y-124920000D01*
X162985149Y-125082078D01*
X162728274Y-125466520D01*
X162638071Y-125920000D01*
X162728274Y-126373480D01*
X162985149Y-126757922D01*
X163227717Y-126920000D01*
X162985149Y-127082078D01*
X162728274Y-127466520D01*
X162638071Y-127920000D01*
X162728274Y-128373480D01*
X162985149Y-128757922D01*
X163227717Y-128920000D01*
X162985149Y-129082078D01*
X162728274Y-129466520D01*
X162638071Y-129920000D01*
X162728274Y-130373480D01*
X162985149Y-130757922D01*
X163227717Y-130920000D01*
X162985149Y-131082078D01*
X162728274Y-131466520D01*
X162638071Y-131920000D01*
X162728274Y-132373480D01*
X162985149Y-132757922D01*
X163177717Y-132886591D01*
X162885149Y-133082078D01*
X162628274Y-133466520D01*
X162538071Y-133920000D01*
X159307236Y-133920000D01*
X153289000Y-127901764D01*
X153289000Y-124460000D01*
X153221329Y-124119794D01*
X153028618Y-123831382D01*
X151057440Y-121860204D01*
X151057440Y-121370000D01*
X151013162Y-121134683D01*
X150874090Y-120918559D01*
X150661890Y-120773569D01*
X150410000Y-120722560D01*
X147910000Y-120722560D01*
X147674683Y-120766838D01*
X147458559Y-120905910D01*
X147313569Y-121118110D01*
X147262560Y-121370000D01*
X147262560Y-122470000D01*
X147306838Y-122705317D01*
X147445910Y-122921441D01*
X147633615Y-123049694D01*
X147585149Y-123082078D01*
X147328274Y-123466520D01*
X147238071Y-123920000D01*
X147328274Y-124373480D01*
X147585149Y-124757922D01*
X147827717Y-124920000D01*
X147752439Y-124970299D01*
X147660206Y-124908671D01*
X147320000Y-124841000D01*
X146952096Y-124841000D01*
X146944090Y-124828559D01*
X146731890Y-124683569D01*
X146480000Y-124632560D01*
X145280000Y-124632560D01*
X145044683Y-124676838D01*
X144828559Y-124815910D01*
X144780866Y-124885711D01*
X144744090Y-124828559D01*
X144531890Y-124683569D01*
X144280000Y-124632560D01*
X143080000Y-124632560D01*
X142844683Y-124676838D01*
X142628559Y-124815910D01*
X142599842Y-124857939D01*
X142344794Y-124908671D01*
X142075485Y-125088618D01*
X142056382Y-125101382D01*
X137256593Y-129901171D01*
X137140000Y-129877560D01*
X134759000Y-129877560D01*
X134759000Y-126704920D01*
X134843691Y-126740000D01*
X135084250Y-126740000D01*
X135243000Y-126581250D01*
X135243000Y-125857000D01*
X135497000Y-125857000D01*
X135497000Y-126581250D01*
X135655750Y-126740000D01*
X135896309Y-126740000D01*
X136129698Y-126643327D01*
X136308327Y-126464699D01*
X136405000Y-126231310D01*
X136405000Y-126015750D01*
X136246250Y-125857000D01*
X135497000Y-125857000D01*
X135243000Y-125857000D01*
X135223000Y-125857000D01*
X135223000Y-125603000D01*
X135243000Y-125603000D01*
X135243000Y-124878750D01*
X135497000Y-124878750D01*
X135497000Y-125603000D01*
X136246250Y-125603000D01*
X136405000Y-125444250D01*
X136405000Y-125228690D01*
X136308327Y-124995301D01*
X136129698Y-124816673D01*
X135896309Y-124720000D01*
X135655750Y-124720000D01*
X135497000Y-124878750D01*
X135243000Y-124878750D01*
X135084250Y-124720000D01*
X134843691Y-124720000D01*
X134610302Y-124816673D01*
X134608932Y-124818043D01*
X134521890Y-124758569D01*
X134270000Y-124707560D01*
X134009000Y-124707560D01*
X134009000Y-123917440D01*
X134070000Y-123917440D01*
X134305317Y-123873162D01*
X134521441Y-123734090D01*
X134666431Y-123521890D01*
X134717440Y-123270000D01*
X134717440Y-122765466D01*
X134810302Y-122858327D01*
X135043691Y-122955000D01*
X135834250Y-122955000D01*
X135993000Y-122796250D01*
X135993000Y-122047000D01*
X136247000Y-122047000D01*
X136247000Y-122796250D01*
X136405750Y-122955000D01*
X137196309Y-122955000D01*
X137429698Y-122858327D01*
X137608327Y-122679699D01*
X137705000Y-122446310D01*
X137705000Y-122205750D01*
X137546250Y-122047000D01*
X136247000Y-122047000D01*
X135993000Y-122047000D01*
X134693750Y-122047000D01*
X134607738Y-122133012D01*
X134534090Y-122018559D01*
X134388917Y-121919367D01*
X134521441Y-121834090D01*
X134608064Y-121707314D01*
X134693750Y-121793000D01*
X135993000Y-121793000D01*
X135993000Y-121043750D01*
X136247000Y-121043750D01*
X136247000Y-121793000D01*
X137546250Y-121793000D01*
X137705000Y-121634250D01*
X137705000Y-121393690D01*
X137608327Y-121160301D01*
X137429698Y-120981673D01*
X137196309Y-120885000D01*
X136405750Y-120885000D01*
X136247000Y-121043750D01*
X135993000Y-121043750D01*
X135834250Y-120885000D01*
X135043691Y-120885000D01*
X134810302Y-120981673D01*
X134717440Y-121074534D01*
X134717440Y-120570000D01*
X134673162Y-120334683D01*
X134534090Y-120118559D01*
X134321890Y-119973569D01*
X134263000Y-119961643D01*
X134263000Y-119174827D01*
X134307407Y-119165994D01*
X134391972Y-119109489D01*
X134505317Y-119088162D01*
X134608646Y-119021671D01*
X134610302Y-119023327D01*
X134843691Y-119120000D01*
X135084250Y-119120000D01*
X135243000Y-118961250D01*
X135243000Y-118237000D01*
X135497000Y-118237000D01*
X135497000Y-118961250D01*
X135655750Y-119120000D01*
X135896309Y-119120000D01*
X136129698Y-119023327D01*
X136308327Y-118844699D01*
X136405000Y-118611310D01*
X136405000Y-118395750D01*
X136246250Y-118237000D01*
X135497000Y-118237000D01*
X135243000Y-118237000D01*
X135223000Y-118237000D01*
X135223000Y-117983000D01*
X135243000Y-117983000D01*
X135243000Y-117258750D01*
X135497000Y-117258750D01*
X135497000Y-117983000D01*
X136246250Y-117983000D01*
X136405000Y-117824250D01*
X136405000Y-117608690D01*
X136308327Y-117375301D01*
X136129698Y-117196673D01*
X135896309Y-117100000D01*
X135655750Y-117100000D01*
X135497000Y-117258750D01*
X135243000Y-117258750D01*
X135084250Y-117100000D01*
X134843691Y-117100000D01*
X134610302Y-117196673D01*
X134608932Y-117198043D01*
X134521890Y-117138569D01*
X134395729Y-117113021D01*
X134307407Y-117054006D01*
X133870000Y-116967000D01*
X130810000Y-116967000D01*
X130372593Y-117054006D01*
X130001777Y-117301777D01*
X128731777Y-118571777D01*
X128484006Y-118942593D01*
X128397000Y-119380000D01*
X128397000Y-121446554D01*
X125390914Y-124452640D01*
X122074940Y-124452640D01*
X121839623Y-124496918D01*
X121623499Y-124635990D01*
X121511060Y-124800550D01*
X121511060Y-124136150D01*
X121352310Y-123977400D01*
X119253000Y-123977400D01*
X119253000Y-123997400D01*
X118999000Y-123997400D01*
X118999000Y-123977400D01*
X116899690Y-123977400D01*
X116740940Y-124136150D01*
X116740940Y-125726769D01*
X116794884Y-125857000D01*
X115240043Y-125857000D01*
X114897378Y-125628039D01*
X114329093Y-125515000D01*
X114270907Y-125515000D01*
X113702622Y-125628039D01*
X113220853Y-125949946D01*
X112898946Y-126431715D01*
X112785907Y-127000000D01*
X112470000Y-127000000D01*
X112470000Y-121974031D01*
X116740940Y-121974031D01*
X116740940Y-123564650D01*
X116899690Y-123723400D01*
X118999000Y-123723400D01*
X118999000Y-121624090D01*
X119253000Y-121624090D01*
X119253000Y-123723400D01*
X121352310Y-123723400D01*
X121511060Y-123564650D01*
X121511060Y-122898728D01*
X121536613Y-122960418D01*
X121715241Y-123139047D01*
X121948630Y-123235720D01*
X123539250Y-123235720D01*
X123698000Y-123076970D01*
X123698000Y-120977660D01*
X123952000Y-120977660D01*
X123952000Y-123076970D01*
X124110750Y-123235720D01*
X125701370Y-123235720D01*
X125934759Y-123139047D01*
X126113387Y-122960418D01*
X126210060Y-122727029D01*
X126210060Y-121136410D01*
X126051310Y-120977660D01*
X123952000Y-120977660D01*
X123698000Y-120977660D01*
X121598690Y-120977660D01*
X121439940Y-121136410D01*
X121439940Y-121802332D01*
X121414387Y-121740642D01*
X121235759Y-121562013D01*
X121002370Y-121465340D01*
X119411750Y-121465340D01*
X119253000Y-121624090D01*
X118999000Y-121624090D01*
X118840250Y-121465340D01*
X117249630Y-121465340D01*
X117016241Y-121562013D01*
X116837613Y-121740642D01*
X116740940Y-121974031D01*
X112470000Y-121974031D01*
X112470000Y-118110000D01*
X112955000Y-118110000D01*
X113154055Y-119110717D01*
X113720916Y-119959084D01*
X114569283Y-120525945D01*
X115570000Y-120725000D01*
X116570717Y-120525945D01*
X117419084Y-119959084D01*
X117985945Y-119110717D01*
X118013081Y-118974291D01*
X121439940Y-118974291D01*
X121439940Y-120564910D01*
X121598690Y-120723660D01*
X123698000Y-120723660D01*
X123698000Y-118624350D01*
X123952000Y-118624350D01*
X123952000Y-120723660D01*
X126051310Y-120723660D01*
X126210060Y-120564910D01*
X126210060Y-118974291D01*
X126113387Y-118740902D01*
X125934759Y-118562273D01*
X125701370Y-118465600D01*
X124110750Y-118465600D01*
X123952000Y-118624350D01*
X123698000Y-118624350D01*
X123539250Y-118465600D01*
X121948630Y-118465600D01*
X121715241Y-118562273D01*
X121536613Y-118740902D01*
X121439940Y-118974291D01*
X118013081Y-118974291D01*
X118185000Y-118110000D01*
X117985945Y-117109283D01*
X117419084Y-116260916D01*
X116570717Y-115694055D01*
X115570000Y-115495000D01*
X114569283Y-115694055D01*
X113720916Y-116260916D01*
X113154055Y-117109283D01*
X112955000Y-118110000D01*
X112470000Y-118110000D01*
X112470000Y-115010000D01*
X140230394Y-115010000D01*
X144690197Y-119469803D01*
M02*
