G04 #@! TF.FileFunction,Soldermask,Top*
%FSLAX46Y46*%
G04 Gerber Fmt 4.6, Leading zero omitted, Abs format (unit mm)*
G04 Created by KiCad (PCBNEW 4.0.6+dfsg1-1) date Mon Apr 23 23:44:20 2018*
%MOMM*%
%LPD*%
G01*
G04 APERTURE LIST*
%ADD10C,0.100000*%
%ADD11R,2.249120X2.249120*%
%ADD12C,2.249120*%
%ADD13R,1.150000X1.200000*%
%ADD14R,2.900000X4.400000*%
%ADD15R,2.300000X1.200000*%
%ADD16C,2.400000*%
%ADD17R,1.300000X1.600000*%
%ADD18R,1.600000X1.300000*%
%ADD19O,3.900000X3.900000*%
%ADD20R,2.200000X2.200000*%
%ADD21O,2.200000X2.200000*%
%ADD22R,2.100000X2.100000*%
%ADD23O,2.100000X2.100000*%
%ADD24R,3.900120X3.900120*%
%ADD25R,1.200000X1.150000*%
%ADD26R,2.900000X1.500000*%
%ADD27O,2.900000X1.500000*%
G04 APERTURE END LIST*
D10*
D11*
X115570000Y-149067520D03*
D12*
X115570000Y-145572480D03*
D11*
X115570000Y-142082520D03*
D12*
X115570000Y-138587480D03*
D13*
X149860000Y-141720000D03*
X149860000Y-140220000D03*
D14*
X135890000Y-132525000D03*
X135890000Y-140525000D03*
D15*
X133120000Y-120970000D03*
X133120000Y-122870000D03*
X136120000Y-121920000D03*
D16*
X181555000Y-116205000D03*
X186055000Y-116205000D03*
X181555000Y-122705000D03*
X186055000Y-122705000D03*
D17*
X167640000Y-133520000D03*
X167640000Y-135720000D03*
D18*
X143680000Y-125730000D03*
X145880000Y-125730000D03*
D17*
X156210000Y-142070000D03*
X156210000Y-139870000D03*
X153670000Y-142070000D03*
X153670000Y-139870000D03*
D19*
X147170000Y-149860000D03*
D20*
X163830000Y-152400000D03*
D21*
X163830000Y-149860000D03*
X163830000Y-147320000D03*
D19*
X125580000Y-149860000D03*
D20*
X142240000Y-152400000D03*
D21*
X142240000Y-149860000D03*
X142240000Y-147320000D03*
D22*
X114300000Y-134620000D03*
D23*
X114300000Y-132080000D03*
X114300000Y-129540000D03*
X114300000Y-127000000D03*
D22*
X173355000Y-116840000D03*
D23*
X175895000Y-116840000D03*
X173355000Y-119380000D03*
X175895000Y-119380000D03*
X173355000Y-121920000D03*
X175895000Y-121920000D03*
D24*
X123825000Y-126850140D03*
X123825000Y-120850660D03*
X119126000Y-123850400D03*
D25*
X133870000Y-125730000D03*
X135370000Y-125730000D03*
X133870000Y-118110000D03*
X135370000Y-118110000D03*
D19*
X170030000Y-149860000D03*
D20*
X186690000Y-152400000D03*
D21*
X186690000Y-149860000D03*
X186690000Y-147320000D03*
D17*
X158750000Y-142070000D03*
X158750000Y-139870000D03*
D26*
X149160000Y-121920000D03*
D27*
X149160000Y-123920000D03*
X149160000Y-125920000D03*
X149160000Y-127920000D03*
X149160000Y-129920000D03*
X149160000Y-131920000D03*
X149160000Y-133920000D03*
X149160000Y-135920000D03*
X164560000Y-135920000D03*
X164460000Y-133920000D03*
X164560000Y-131920000D03*
X164560000Y-129920000D03*
X164560000Y-127920000D03*
X164560000Y-125920000D03*
X164560000Y-123920000D03*
X164560000Y-121920000D03*
D26*
X149160000Y-76200000D03*
D27*
X149160000Y-78200000D03*
X149160000Y-80200000D03*
X149160000Y-82200000D03*
X149160000Y-84200000D03*
X149160000Y-86200000D03*
X149160000Y-88200000D03*
X149160000Y-90200000D03*
X164560000Y-90200000D03*
X164460000Y-88200000D03*
X164560000Y-86200000D03*
X164560000Y-84200000D03*
X164560000Y-82200000D03*
X164560000Y-80200000D03*
X164560000Y-78200000D03*
X164560000Y-76200000D03*
D17*
X158750000Y-96350000D03*
X158750000Y-94150000D03*
D19*
X170030000Y-104140000D03*
D20*
X186690000Y-106680000D03*
D21*
X186690000Y-104140000D03*
X186690000Y-101600000D03*
D25*
X133870000Y-72390000D03*
X135370000Y-72390000D03*
X133870000Y-80010000D03*
X135370000Y-80010000D03*
D24*
X123825000Y-81130140D03*
X123825000Y-75130660D03*
X119126000Y-78130400D03*
D22*
X173355000Y-71120000D03*
D23*
X175895000Y-71120000D03*
X173355000Y-73660000D03*
X175895000Y-73660000D03*
X173355000Y-76200000D03*
X175895000Y-76200000D03*
D22*
X114300000Y-88900000D03*
D23*
X114300000Y-86360000D03*
X114300000Y-83820000D03*
X114300000Y-81280000D03*
D19*
X125580000Y-104140000D03*
D20*
X142240000Y-106680000D03*
D21*
X142240000Y-104140000D03*
X142240000Y-101600000D03*
D19*
X147170000Y-104140000D03*
D20*
X163830000Y-106680000D03*
D21*
X163830000Y-104140000D03*
X163830000Y-101600000D03*
D17*
X153670000Y-96350000D03*
X153670000Y-94150000D03*
X156210000Y-96350000D03*
X156210000Y-94150000D03*
D18*
X143680000Y-80010000D03*
X145880000Y-80010000D03*
D17*
X167640000Y-87800000D03*
X167640000Y-90000000D03*
D16*
X181555000Y-70485000D03*
X186055000Y-70485000D03*
X181555000Y-76985000D03*
X186055000Y-76985000D03*
D15*
X133120000Y-75250000D03*
X133120000Y-77150000D03*
X136120000Y-76200000D03*
D14*
X135890000Y-86805000D03*
X135890000Y-94805000D03*
D13*
X149860000Y-96000000D03*
X149860000Y-94500000D03*
D11*
X115570000Y-96362520D03*
D12*
X115570000Y-92867480D03*
D11*
X115570000Y-103347520D03*
D12*
X115570000Y-99852480D03*
M02*
