M48
;DRILL file {KiCad 5.0.2-bee76a0~70~ubuntu18.04.1} date Do 17 Jan 2019 01:44:19 CET
;FORMAT={-:-/ absolute / metric / decimal}
FMAT,2
METRIC,TZ
T1C0.600
T2C0.750
T3C0.800
T4C0.850
T5C1.000
T6C1.100
T7C1.320
T8C3.500
%
G90
G05
T1
X106.172Y-49.088
X106.172Y-50.866
X106.172Y-99.088
X106.172Y-100.866
X122.682Y-55.438
X122.682Y-105.438
X123.952Y-56.454
X123.952Y-106.454
X156.718Y-66.106
X156.718Y-116.106
X167.386Y-62.55
X167.386Y-112.55
X168.91Y-59.502
X168.91Y-109.502
X170.959Y-58.486
X170.959Y-108.486
X172.255Y-58.679
X172.255Y-108.679
T2
X134.393Y-61.838
X135.663Y-63.108
X136.933Y-61.838
X134.393Y-111.838
X135.663Y-113.108
X136.933Y-111.838
T3
X168.91Y-79.822
X168.91Y-129.822
T4
X97.474Y-98.62
X97.474Y-103.62
X97.474Y-48.62
X97.474Y-53.62
T5
X190.Y-133.38
X190.Y-135.92
X190.Y-138.46
X190.Y-141.
X185.Y-133.46
X185.Y-136.
X145.Y-113.
X147.54Y-113.
X150.08Y-113.
X190.Y-83.38
X190.Y-85.92
X190.Y-88.46
X190.Y-91.
X145.Y-63.
X147.54Y-63.
X150.08Y-63.
X185.Y-83.46
X185.Y-86.
T6
X174.Y-84.722
X174.Y-91.222
X178.5Y-84.722
X178.5Y-91.222
X145.794Y-124.42
X148.334Y-124.42
X150.874Y-124.42
X165.Y-84.722
X165.Y-91.222
X169.5Y-84.722
X169.5Y-91.222
X156.Y-134.722
X156.Y-141.222
X160.5Y-134.722
X160.5Y-141.222
X95.787Y-124.42
X98.327Y-124.42
X100.867Y-124.42
X120.781Y-124.42
X123.321Y-124.42
X125.861Y-124.42
X108.284Y-124.42
X110.824Y-124.42
X113.364Y-124.42
X133.291Y-74.42
X135.831Y-74.42
X138.371Y-74.42
X165.Y-134.722
X165.Y-141.222
X169.5Y-134.722
X169.5Y-141.222
X145.794Y-74.42
X148.334Y-74.42
X150.874Y-74.42
X133.291Y-124.42
X135.831Y-124.42
X138.371Y-124.42
X156.Y-84.722
X156.Y-91.222
X160.5Y-84.722
X160.5Y-91.222
X120.781Y-74.42
X123.321Y-74.42
X125.861Y-74.42
X95.787Y-74.42
X98.327Y-74.42
X100.867Y-74.42
X174.Y-134.722
X174.Y-141.222
X178.5Y-134.722
X178.5Y-141.222
X108.284Y-74.42
X110.824Y-74.42
X113.364Y-74.42
T7
X185.515Y-101.032
X185.515Y-106.032
X185.515Y-61.192
X185.515Y-66.192
X185.515Y-121.352
X185.515Y-126.352
X185.515Y-51.032
X185.515Y-56.032
X185.515Y-111.192
X185.515Y-116.192
X185.515Y-71.352
X185.515Y-76.352
T8
X123.321Y-91.08
X98.327Y-91.08
X98.327Y-141.08
X123.321Y-141.08
X110.824Y-141.08
X148.334Y-91.08
X135.831Y-141.08
X110.824Y-91.08
X148.334Y-141.08
X135.831Y-91.08
T1
X94.424Y-97.62G85X95.124Y-97.62
G05
X95.124Y-104.62G85X94.424Y-104.62
G05
X94.424Y-47.62G85X95.124Y-47.62
G05
X95.124Y-54.62G85X94.424Y-54.62
G05
T5
X101.Y-111.G85X101.Y-113.
G05
X103.Y-116.7G85X105.Y-116.7
G05
X107.Y-111.G85X107.Y-113.
G05
X101.Y-61.G85X101.Y-63.
G05
X103.Y-66.7G85X105.Y-66.7
G05
X107.Y-61.G85X107.Y-63.
G05
T0
M30
